<svg xmlns="http://www.w3.org/2000/svg" fill="none" viewBox="0 0 22 22"><path fill="#FF5400" d="M11.16 1.22C10.922.367 10.373-.057 9.878.007a1.835 1.835 0 0 0-1.445.975c-.691 1.598.785 6.247.974 7.022C8.12 11.958 3.98 19.436 1.475 21.13a.365.365 0 0 1-.545-.2.382.382 0 0 1-.004-.223c.25-.8 1.044-2.046 3.259-3.491.155-.166.3-.343.432-.528-2.631 1.302-6.04 3.403-3.99 4.97.147.103.309.184.48.24 1.57.59 3.77-1.343 5.976-5.729a40.099 40.099 0 0 1 7.178-1.861c3.04 2.1 5.074 2.532 6.456 1.989a2.123 2.123 0 0 0 1.162-1.302c-1.123 1.406-3.754.423-5.85-.92 1.931-.215 3.926-.343 4.798-.063 1.1.352 1.06.903 1.052.983a1.507 1.507 0 0 0 0-1.183c-.926-1.534-5.175-.639-6.722-.48a12.45 12.45 0 0 1-4.791-6.079c.636-2.476 1.311-4.274.785-6.055M10.1 6.38c-.361-1.318-.856-4.09-.29-5.4a.375.375 0 0 1 .256-.218.363.363 0 0 1 .324.082c1.28 1.159.283 3.435-.29 5.536Zm3.353 7.286a30.462 30.462 0 0 0-6.228 1.974 49.466 49.466 0 0 0 2.592-7.039 16.109 16.109 0 0 0 3.644 5.057"/></svg>