<svg xmlns="http://www.w3.org/2000/svg" fill="none" viewBox="0 0 30 25"><path fill="#28A0DC" fill-rule="evenodd" d="M2.054 10.72c8.052-3.497 13.411-5.82 16.103-6.947C25.817.575 27.427.023 28.463 0c.23 0 .736.046 1.08.322.277.23.346.53.392.76.046.23.092.712.046 1.08-.414 4.371-2.208 14.976-3.129 19.853-.39 2.07-1.15 2.76-1.886 2.83-1.61.137-2.83-1.059-4.37-2.071-2.44-1.587-3.796-2.576-6.166-4.14-2.737-1.795-.966-2.784.598-4.395.414-.414 7.477-6.855 7.615-7.43.023-.069.023-.345-.138-.483s-.391-.092-.575-.046c-.253.046-4.118 2.623-11.64 7.706-1.105.76-2.094 1.128-2.991 1.105-.99-.023-2.876-.552-4.302-1.012-1.725-.553-3.105-.852-2.99-1.818.069-.506.759-1.012 2.047-1.541Z" clip-rule="evenodd"/></svg>