<svg xmlns="http://www.w3.org/2000/svg" fill="none" viewBox="0 0 107 106"><path fill="#FF5400" d="m14.706 33.916-9.421-9.42V1h90.822l9.42 9.42v90.825H82.034l-9.42-9.42v-31.88L28.03 104.533 2 78.494l44.584-44.578H14.706Z"/><path fill="#000" fill-rule="evenodd" d="M4.396.111h92.079l9.941 9.942v92.081h-24.75l-9.941-9.941V62.09l-43.695 43.7-9.42-9.422v.001L.741 78.494l43.694-43.69H14.338l-9.942-9.94V.11Zm-1.14 78.383 45.472-45.467h-.001l9.422-9.42H6.174V1.888h89.044v89.047H73.502V38.958l-54.89 54.896-15.356-15.36Zm16.612 16.617 8.163 8.165 43.694-43.699V43.25L19.868 95.111Zm54.891-2.398 7.643 7.644h20.98l-7.644-7.644H74.76Zm22.236-1.256 7.644 7.643V10.789l-7.643-7.644-.001 88.312ZM7.43 25.384l7.644 7.643h31.14l7.644-7.643H7.43Z" clip-rule="evenodd"/></svg>