<svg class="service-item__icon" width="24" height="24" viewBox="0 0 24 24" fill="none" xmlns="http://www.w3.org/2000/svg">
                                                        <path d="M14.9328 19.7007C14.4774 18.4907 13.3213 17.625 11.9518 17.625H8.74858C7.37908 17.625 6.22298 18.4907 5.76758 19.7007M20.5552 4.42285L18.111 6.86705L16.6436 5.40075M14.2 4.3H5.4C2.9701 4.3 1 6.2701 1 8.7V18.6C1 21.0299 2.9701 23 5.4 23H15.3C17.7299 23 19.7 21.0299 19.7 18.6V9.8M12.1001 10.5528C13.0666 11.5194 13.0666 13.0865 12.1001 14.053C11.1335 15.0196 9.56646 15.0196 8.59991 14.053C7.63336 13.0865 7.63336 11.5194 8.59991 10.5528C9.56646 9.58629 11.1335 9.58629 12.1001 10.5528ZM18.6 9.8C16.1701 9.8 14.2 7.8299 14.2 5.4C14.2 2.9701 16.1701 1 18.6 1C21.031 1 23 2.9701 23 5.4C23 7.8299 21.031 9.8 18.6 9.8Z" stroke="#E31513" stroke-width="1.5" stroke-linecap="round" stroke-linejoin="round"></path>
                                                    </svg>