<svg xmlns="http://www.w3.org/2000/svg" width="36" height="36" viewBox="0 0 36 36"><path d="M24.4,10.6H11.6a1,1,0,0,0,0,2H24.4a1,1,0,0,0,0-2Z"/><path d="M24.4,17H11.6a1,1,0,0,0,0,2H24.4a1,1,0,0,0,0-2Z"/><path d="M16.4,23.4H11.6a1,1,0,0,0,0,2h4.8a1,1,0,0,0,0-2Z"/><path d="M33.2,9.28a9.1,9.1,0,0,0-1.52-4.57,9,9,0,0,0-2-2A9.1,9.1,0,0,0,25.12,1.2C23.29,1,21,1,18,1s-5.29,0-7.12.2A9.1,9.1,0,0,0,6.31,2.72a9,9,0,0,0-2,2A9.1,9.1,0,0,0,2.8,9.28c-.2,1.83-.2,4.14-.2,7.12v3.2c0,3,0,5.29.2,7.12a9.1,9.1,0,0,0,1.52,4.57,9,9,0,0,0,2,2,9.1,9.1,0,0,0,4.57,1.52C12.71,35,15,35,18,35s5.29,0,7.12-.2a9.1,9.1,0,0,0,4.57-1.52,9,9,0,0,0,2-2,9.1,9.1,0,0,0,1.52-4.57c.2-1.83.2-4.14.2-7.12V16.4C33.4,13.42,33.4,11.11,33.2,9.28Zm-2,17.22a7.14,7.14,0,0,1-1.15,3.61,6.71,6.71,0,0,1-1.55,1.55,7.14,7.14,0,0,1-3.61,1.15A68.7,68.7,0,0,1,18,33a68.7,68.7,0,0,1-6.9-.19,7.14,7.14,0,0,1-3.61-1.15,6.71,6.71,0,0,1-1.55-1.55A7.14,7.14,0,0,1,4.79,26.5a68.7,68.7,0,0,1-.19-6.9V16.4a68.7,68.7,0,0,1,.19-6.9A7.14,7.14,0,0,1,5.94,5.89,6.71,6.71,0,0,1,7.49,4.34,7.14,7.14,0,0,1,11.1,3.19,68.7,68.7,0,0,1,18,3a68.7,68.7,0,0,1,6.9.19,7.14,7.14,0,0,1,3.61,1.15,6.71,6.71,0,0,1,1.55,1.55A7.14,7.14,0,0,1,31.21,9.5a68.7,68.7,0,0,1,.19,6.9v3.2A68.7,68.7,0,0,1,31.21,26.5Z"/></svg>