<svg class="social-icon" xmlns="http://www.w3.org/2000/svg" width="28" height="28" viewBox="0 0 28 28"><path d="M14.11,3A5.69,5.69,0,1,0,19.8,8.69,5.73,5.73,0,0,0,14.11,3Zm0,8a2.31,2.31,0,0,1-2.3-2.29,2.39,2.39,0,0,1,2.3-2.3,2.39,2.39,0,0,1,2.3,2.3A2.31,2.31,0,0,1,14.11,11Z" fill="#ed812b"/><path d="M16.08,18.86a8.15,8.15,0,0,0,3.72-1.64,1.56,1.56,0,0,0-2-2.41A6.63,6.63,0,0,1,14,15.91a6.63,6.63,0,0,1-3.83-1.1,1.56,1.56,0,0,0-2,2.41A9,9,0,0,0,12,18.86L8.75,22.25a1.66,1.66,0,0,0,0,2.19,1.4,1.4,0,0,0,1.09.44,1.41,1.41,0,0,0,1.1-.44L14,21.27l3.28,3.28a1.57,1.57,0,0,0,2.19,0,1.66,1.66,0,0,0,0-2.19Z" fill="#ed812b"/></svg>