<svg class="social-icon" xmlns="http://www.w3.org/2000/svg" viewBox="0 0 28 28" width="28" height="28px">
	<path fill="#FF9E00" d="M17.3,14c0,0.7-0.2,1.3-0.6,1.8c-0.4,0.5-0.9,1-1.5,1.2c-0.6,0.3-1.3,0.3-1.9,0.2c-0.6-0.1-1.2-0.4-1.7-0.9
	c-0.5-0.5-0.8-1.1-0.9-1.7c-0.1-0.6-0.1-1.3,0.2-1.9c0.3-0.6,0.7-1.1,1.2-1.5c0.5-0.4,1.2-0.6,1.8-0.6c0.9,0,1.7,0.3,2.3,1
	C17,12.3,17.3,13.1,17.3,14z M14,3c-1.7,0-3.4,0.4-5,1.2C7.5,5,6.2,6.1,5.1,7.5c-1,1.4-1.7,3-2,4.7c-0.3,1.7-0.2,3.4,0.3,5.1
	c0.5,1.6,1.4,3.1,2.6,4.4c1.2,1.2,2.7,2.2,4.3,2.8c1.6,0.6,3.4,0.7,5.1,0.5c1.7-0.2,3.3-0.8,4.8-1.8l0,0l-1.5-1.7l0,0
	C17,22.5,15,22.9,13,22.7c-2-0.2-3.9-1.2-5.3-2.6c-1.4-1.5-2.3-3.4-2.4-5.4c-0.2-2,0.4-4,1.5-5.7s2.9-2.9,4.8-3.4
	c2-0.5,4-0.4,5.9,0.4c1.9,0.8,3.4,2.2,4.3,4.1c0.9,1.8,1.2,3.9,0.7,5.9c0,0.4-0.2,0.8-0.6,1c-0.3,0.3-0.7,0.4-1.1,0.4
	c-0.2,0-0.4-0.1-0.5-0.1S20,17,19.9,16.8c-0.1-0.1-0.2-0.3-0.3-0.5c-0.1-0.2-0.1-0.4-0.1-0.6V14c0-1.3-0.4-2.5-1.3-3.5
	c-0.8-1-2-1.7-3.2-1.9c-1.3-0.3-2.6-0.1-3.7,0.6c-1.1,0.6-2,1.6-2.5,2.8c-0.5,1.2-0.6,2.5-0.2,3.8c0.4,1.2,1.2,2.3,2.2,3
	c1.1,0.7,2.4,1,3.6,0.9c1.3-0.1,2.5-0.7,3.4-1.6c0.3,0.5,0.7,0.9,1.2,1.1s1,0.5,1.6,0.5c0.1,0,0.2,0,0.3,0c0.8,0,1.6-0.3,2.2-0.8
	c0.7-0.5,1.2-1.3,1.4-2.1c0-0.1,0.1-0.5,0.1-0.5v0c0.2-0.7,0.2-1.5,0.2-2.2c0-2.9-1.2-5.7-3.2-7.8C19.7,4.2,16.9,3,14,3z"/>
</svg>