<svg xmlns="http://www.w3.org/2000/svg" viewBox="0 0 24 24" width="24" height="24">
	<path d="M15.8,3.7L13.7,3C13,2.7,12.5,2.6,12,2.6c-0.5,0-1,0.2-1.7,0.4L8.2,3.7C3.4,5.5,0.9,6.3,0.9,8.4
	c0,0.4,0.1,0.7,0.3,1.1v6c0,0.4,0.4,0.7,0.8,0.7c0.4,0,0.8-0.3,0.8-0.8v-4.5c0.4,0.2,0.8,0.4,1.3,0.6v1.9c0,2,0,3,0.3,3.9
	c0.6,1.8,2,3.3,3.9,3.9C9,21.4,10,21.4,12,21.4c2,0,3,0,3.9-0.3c1.8-0.6,3.3-2,3.9-3.9c0.3-0.9,0.3-1.9,0.3-3.9v-1.9
	c1.6-0.7,3.1-1.6,3.1-3.1C23.1,6.3,20.6,5.5,15.8,3.7z M15.2,11.2L13,12c-0.5,0.2-0.8,0.3-1,0.3c-0.2,0-0.5-0.1-1-0.3l-2.1-0.8
	c-3.1-1.1-5.9-2.1-5.9-2.8s2.9-1.7,5.9-2.8L11,4.9c0.5-0.2,0.8-0.3,1-0.3c0.2,0,0.5,0.1,1,0.3l2.1,0.8c3.1,1.1,5.9,2.1,5.9,2.8
	c0,0.2-0.4,0.7-2.4,1.5C17.7,10.3,16.6,10.7,15.2,11.2z M18,13.4c0,1.8,0,2.6-0.2,3.2c-0.4,1.2-1.4,2.2-2.6,2.6
	c-0.6,0.2-1.5,0.2-3.2,0.2c-1.8,0-2.6,0-3.2-0.2c-1.2-0.4-2.2-1.4-2.6-2.6C6,16.1,6,15.2,6,13.4v-1.1c0.7,0.2,1.4,0.5,2.2,0.8
	l2.1,0.8c0.7,0.3,1.2,0.4,1.7,0.4c0.5,0,1-0.2,1.7-0.4l2.2-0.8c0.8-0.3,1.5-0.5,2.1-0.8V13.4z"/>
</svg>