<svg xmlns="http://www.w3.org/2000/svg" viewBox="0 0 24 24" width="24" height="24">
	<path d="M17,22.3c-0.1,0-0.2,0-0.3,0c-0.9-0.1-1.7-0.8-3.3-2.2c-0.5-0.4-0.8-0.7-1-0.8c-0.2-0.1-0.4-0.1-0.7,0
	c-0.2,0.1-0.5,0.3-1,0.8c-1.7,1.4-2.4,2.1-3.3,2.2c-1.1,0.1-2.2-0.4-2.8-1.3C4,20.2,4,19.2,4,17.1V9.7c0-2,0-3,0.3-3.9
	C4.9,4,6.3,2.6,8.1,2C9,1.7,10,1.7,12,1.7c2,0,3,0,3.9,0.3c1.8,0.6,3.3,2,3.9,3.9C20,6.7,20,7.7,20,9.7v7.4c0,2.2,0,3.2-0.5,3.9
	C18.9,21.8,18,22.3,17,22.3z M12,17.3c0.3,0,0.7,0.1,1,0.2c0.5,0.2,0.9,0.5,1.6,1.1c1,0.9,2,1.7,2.3,1.7c0.4,0,0.7-0.1,0.9-0.4
	c0.2-0.3,0.2-1.4,0.2-2.8V9.7c0-1.8,0-2.6-0.2-3.2c-0.4-1.2-1.4-2.2-2.6-2.6c-0.6-0.2-1.5-0.2-3.2-0.2c-1.8,0-2.6,0-3.2,0.2
	C7.6,4.3,6.6,5.2,6.2,6.4C6,7,6,7.9,6,9.7v7.4c0,1.4,0,2.6,0.2,2.8c0.2,0.3,0.6,0.5,0.9,0.4c0.3,0,1.2-0.8,2.3-1.7
	c0.7-0.6,1.1-0.9,1.6-1.1C11.3,17.4,11.7,17.3,12,17.3z"/>
</svg>