<svg width="16" height="19" viewBox="0 0 16 19" fill="none" xmlns="http://www.w3.org/2000/svg">
<path d="M8 2C9.609 2 11.12 2.614 12.254 3.73C13.38 4.837 14 6.309 14 7.87C14 9.431 13.38 10.9 12.255 12.009L8 16.193L3.746 12.007C2.621 10.9 2.001 9.431 2.001 7.868C2.001 6.305 2.621 4.836 3.746 3.727C4.881 2.614 6.393 2 8 2ZM8 0C5.953 0 3.904 0.768 2.343 2.305C-0.781 5.379 -0.781 10.362 2.343 13.436L8 18.999L13.657 13.434C16.781 10.362 16.781 5.378 13.657 2.305C12.096 0.768 10.048 0 8 0Z" fill="#DDDDDD"/>
<circle cx="8" cy="8" r="3" fill="#DDDDDD"/>
</svg>