<svg xmlns="http://www.w3.org/2000/svg" viewBox="0 0 24 24" width="24" height="24px">
	<path d="M4.7,11c4.5-2,7.6-3.3,9.1-3.9C18.1,5.3,19,5,19.6,5c0.1,0,0.4,0,0.6,0.2c0.2,0.1,0.2,0.3,0.2,0.4
	c0,0.1,0.1,0.4,0,0.6c-0.2,2.5-1.2,8.4-1.8,11.2C18.5,18.6,18,19,17.6,19c-0.9,0.1-1.6-0.6-2.5-1.2c-1.4-0.9-2.1-1.5-3.5-2.3
	c-1.5-1-0.5-1.6,0.3-2.5c0.2-0.2,4.2-3.9,4.3-4.2c0,0,0-0.2-0.1-0.3c-0.1-0.1-0.2-0.1-0.3,0c-0.1,0-2.3,1.5-6.6,4.3
	c-0.6,0.4-1.2,0.6-1.7,0.6c-0.6,0-1.6-0.3-2.4-0.6c-1-0.3-1.7-0.5-1.7-1C3.6,11.6,4,11.3,4.7,11z"/>
</svg>