<svg xmlns="http://www.w3.org/2000/svg" width="36" height="36" viewBox="0 0 36 36"><path d="M10.52,35c-.2,0-.41,0-.61,0a9,9,0,0,1-6.31-3.6C1.89,29,1.89,25.35,1.89,18S1.89,7,3.6,4.63A9,9,0,0,1,9.91,1C12.8.74,16,2.57,22.47,6.25s9.68,5.52,10.87,8.14a8.78,8.78,0,0,1,0,7.22c-1.18,2.62-4.41,4.46-10.85,8.14C16.49,33.17,13.27,35,10.52,35Zm0-32-.42,0a7,7,0,0,0-4.9,2.79C3.89,7.61,3.89,11.08,3.89,18s0,10.39,1.32,12.19A7,7,0,0,0,10.11,33c2.25.25,5.3-1.51,11.37-5s9.12-5.19,10-7.23a6.74,6.74,0,0,0,0-5.56c-.92-2-4-3.78-10-7.23h0C15.77,4.73,12.74,3,10.53,3Z"/></svg>