<svg xmlns="http://www.w3.org/2000/svg" width="22" height="22" viewBox="0 0 22 22"><path d="M19.42,5.16V4.42a3.26,3.26,0,0,0-3.25-3.24h0a3.81,3.81,0,0,0-.59.05L2.65,3.44h0A3.25,3.25,0,0,0,0,6.63V17.68a3.15,3.15,0,0,0,3.14,3.14H18.86A3.15,3.15,0,0,0,22,17.68V8.25A3.15,3.15,0,0,0,19.42,5.16ZM2.92,5,15.85,2.78h0a1.63,1.63,0,0,1,.31,0h0a1.67,1.67,0,0,1,1.67,1.67v.69H3.14a3.31,3.31,0,0,0-.77.09A1.74,1.74,0,0,1,2.92,5ZM20.43,17.68a1.58,1.58,0,0,1-1.57,1.57H3.14a1.58,1.58,0,0,1-1.57-1.57V8.25A1.57,1.57,0,0,1,3.14,6.68H18.86a1.57,1.57,0,0,1,1.57,1.57Z"/><circle cx="16.5" cy="12.96" r="1.57"/></svg>