<svg width="101" height="101" viewBox="0 0 101 101" fill="none" xmlns="http://www.w3.org/2000/svg">
    <path opacity="0.3" fill-rule="evenodd" clip-rule="evenodd" d="M50.3893 83.0159C68.1981 83.0159 82.635 68.579 82.635 50.7701C82.635 32.9613 68.1981 18.5244 50.3893 18.5244C32.5805 18.5244 18.1436 32.9613 18.1436 50.7701C18.1436 68.579 32.5805 83.0159 50.3893 83.0159ZM50.3893 87.0159C70.4072 87.0159 86.635 70.7881 86.635 50.7701C86.635 30.7522 70.4072 14.5244 50.3893 14.5244C30.3713 14.5244 14.1436 30.7522 14.1436 50.7701C14.1436 70.7881 30.3713 87.0159 50.3893 87.0159Z" fill="#5F22A6"/>
    <path fill-rule="evenodd" clip-rule="evenodd" d="M53.6496 45.1934L53.6495 45.1934C51.2233 43.8099 49.5735 42.8738 48.2886 42.2886C46.9827 41.6938 46.4855 41.6738 46.305 41.6925C45.413 41.7851 44.6141 42.2461 44.1001 42.9448C44.0071 43.0713 43.7783 43.4858 43.6475 44.8947C43.5187 46.2808 43.5146 48.1548 43.5146 50.9225V51.0347C43.5146 53.8024 43.5187 55.6763 43.6475 57.0625C43.7783 58.4714 44.0071 58.8859 44.1001 59.0124L41.3565 61.0308L44.1001 59.0124C44.6141 59.711 45.4131 60.172 46.305 60.2646C46.4855 60.2834 46.9827 60.2634 48.2886 59.6686C49.5735 59.0834 51.2232 58.1472 53.6495 56.7638L53.6495 56.7638L53.7453 56.7092C53.7454 56.7092 53.7454 56.7092 53.7454 56.7092C56.1718 55.3257 57.8172 54.383 58.9722 53.5771C60.1496 52.7556 60.4033 52.3472 60.4677 52.2042C60.8198 51.4232 60.8198 50.534 60.4677 49.7529C60.4033 49.61 60.1496 49.2016 58.9722 48.3801C57.8172 47.5742 56.1718 46.6315 53.7453 45.248L53.7453 45.248L53.6496 45.1934ZM55.7266 60.184L55.6308 60.2387C53.2698 61.5848 51.436 62.6305 49.9466 63.3088C48.4516 63.9897 47.1539 64.3742 45.892 64.2432C43.8894 64.0354 42.0662 62.9977 40.8781 61.3827C40.1277 60.3626 39.8152 59.0534 39.6646 57.4325C39.5146 55.8181 39.5146 53.7256 39.5146 51.0346V50.9225C39.5146 48.2315 39.5146 46.1391 39.6646 44.5247C39.8152 42.9038 40.1277 41.5945 40.8781 40.5744C42.0662 38.9595 43.8894 37.9218 45.892 37.7139C47.1539 37.5829 48.4516 37.9674 49.9466 38.6483C51.436 39.3267 53.2699 40.3723 55.6308 41.7185L55.7266 41.7731C58.0874 43.1192 59.9214 44.1649 61.2611 45.0996C62.6046 46.0371 63.595 46.9571 64.1143 48.1089C64.9377 49.9353 64.9377 52.0218 64.1143 53.8482C63.595 55.0001 62.6046 55.9201 61.2611 56.8575C59.9214 57.7923 58.0874 58.838 55.7266 60.184Z" fill="#DACEE8"/>
</svg>