<svg width="100" height="101" viewBox="0 0 100 101" fill="none" xmlns="http://www.w3.org/2000/svg">
    <path opacity="0.3" d="M27.0068 23.5151C27.0068 19.0969 30.5886 15.5151 35.0068 15.5151H72.0363C76.4545 15.5151 80.0363 19.0969 80.0363 23.5151V27.8019C80.0363 31.0878 77.3726 33.7515 74.0867 33.7515H70.2048C67.6008 33.7515 65.3757 35.6277 64.9358 38.1943C64.6803 39.6855 62.5386 39.6855 62.2831 38.1943C61.8432 35.6277 59.6181 33.7515 57.0142 33.7515H35.0068C30.5886 33.7515 27.0068 30.1698 27.0068 25.7515V23.5151Z" stroke="#5F22A6" stroke-width="4"/>
    <path opacity="0.3" d="M55.2523 50.3506C55.2523 47.2243 52.7179 44.6899 49.5916 44.6899H25.6183C22.492 44.6899 19.9577 47.2243 19.9577 50.3506V52.5339C19.9577 54.4544 21.5146 56.0113 23.4351 56.0113H26.1098C28.207 56.0113 29.999 57.5224 30.3533 59.5894C30.3682 59.6763 30.3907 59.7209 30.4019 59.7397C30.4135 59.7591 30.4255 59.7718 30.4397 59.7828C30.4725 59.8082 30.5459 59.8431 30.6542 59.8431C30.7624 59.8431 30.8358 59.8082 30.8686 59.7828C30.8828 59.7718 30.8948 59.7591 30.9064 59.7397C30.9176 59.7209 30.9402 59.6763 30.955 59.5894C31.3093 57.5224 33.1013 56.0113 35.1985 56.0113H49.5916C52.7179 56.0113 55.2523 53.4769 55.2523 50.3506Z" stroke="#5F22A6" stroke-width="4"/>
    <path opacity="0.3" d="M80.0443 73.6553C80.0443 70.529 77.5099 67.9946 74.3836 67.9946H50.4104C47.2841 67.9946 44.7497 70.529 44.7497 73.6553V75.8386C44.7497 77.7591 46.3066 79.316 48.2271 79.316H50.9019C52.999 79.316 54.7911 80.8271 55.1453 82.8941C55.1602 82.981 55.1827 83.0256 55.194 83.0444C55.2055 83.0637 55.2175 83.0765 55.2317 83.0875C55.2645 83.1129 55.3379 83.1478 55.4462 83.1478C55.5545 83.1478 55.6279 83.1129 55.6606 83.0875C55.6749 83.0765 55.6868 83.0637 55.6984 83.0444C55.7096 83.0256 55.7322 82.981 55.7471 82.8941C56.1013 80.8271 57.8933 79.316 59.9905 79.316H74.3836C77.5099 79.316 80.0443 76.7816 80.0443 73.6553Z" stroke="#5F22A6" stroke-width="4"/>
</svg>