<svg width="100" height="101" viewBox="0 0 100 101" fill="none" xmlns="http://www.w3.org/2000/svg">
    <path opacity="0.3" d="M58.1492 39.5347C58.1492 43.823 54.6728 47.2993 50.3845 47.2993C46.0962 47.2993 42.6199 43.823 42.6199 39.5347C42.6199 35.2464 46.0962 31.77 50.3845 31.77C54.6728 31.77 58.1492 35.2464 58.1492 39.5347Z" stroke="#5F22A6" stroke-width="4"/>
    <path opacity="0.3" d="M63.8075 62.2851C64.4213 63.1864 64.5748 63.9716 64.5213 64.6263C64.4658 65.3069 64.1686 66.0399 63.5755 66.7567C62.3568 68.2297 60.0772 69.3776 57.4998 69.3776H50.384L43.2683 69.3776C40.6909 69.3776 38.4113 68.2297 37.1926 66.7567C36.5995 66.0399 36.3023 65.3069 36.2467 64.6263C36.1933 63.9716 36.3467 63.1864 36.9606 62.2851C37.5061 61.4842 38.1206 60.729 38.8001 60.0293C41.8862 56.8513 46.0547 55.081 50.384 55.081C54.7133 55.081 58.8819 56.8513 61.968 60.0293C62.6474 60.729 63.262 61.4842 63.8075 62.2851Z" stroke="#5F22A6" stroke-width="5.38853"/>
    <path fill-rule="evenodd" clip-rule="evenodd" d="M84.878 14.9956C83.6409 14.9956 82.638 15.8591 82.638 16.9244L82.638 83.3706C82.638 84.4358 83.6409 85.2994 84.878 85.2994C86.1151 85.2994 87.118 84.4358 87.118 83.3706L87.118 16.9244C87.118 15.8591 86.1151 14.9956 84.878 14.9956Z" fill="#DACEE8"/>
    <path fill-rule="evenodd" clip-rule="evenodd" d="M17.2632 14.27C16.0387 14.27 15.0461 15.1425 15.0461 16.2187L15.0461 83.3507C15.0461 84.4269 16.0387 85.2994 17.2632 85.2994C18.4877 85.2994 19.4803 84.4269 19.4803 83.3507L19.4803 16.2187C19.4803 15.1425 18.4877 14.27 17.2632 14.27Z" fill="#DACEE8"/>
    <path fill-rule="evenodd" clip-rule="evenodd" d="M16.9747 85.2994C15.9094 85.2994 15.0459 84.2965 15.0459 83.0594C15.0459 81.8222 15.9094 80.8193 16.9747 80.8193L23.4209 80.8193C24.4861 80.8193 25.3497 81.8222 25.3497 83.0594C25.3497 84.2965 24.4861 85.2994 23.4209 85.2994L16.9747 85.2994ZM78.2247 85.2994C77.1594 85.2994 76.2959 84.2965 76.2959 83.0594C76.2959 81.8222 77.1594 80.8193 78.2247 80.8193L84.6709 80.8193C85.7361 80.8193 86.5997 81.8222 86.5997 83.0594C86.5997 84.2965 85.7361 85.2994 84.6709 85.2994L78.2247 85.2994Z" fill="#DACEE8"/>
    <path fill-rule="evenodd" clip-rule="evenodd" d="M76.2958 16.5101C76.2958 17.7472 77.1593 18.7501 78.2245 18.7501L84.6708 18.7501C85.736 18.7501 86.5995 17.7472 86.5995 16.51C86.5995 15.2729 85.736 14.27 84.6708 14.27L78.2245 14.27C77.1593 14.27 76.2958 15.2729 76.2958 16.5101Z" fill="#DACEE8"/>
    <path fill-rule="evenodd" clip-rule="evenodd" d="M15.0458 16.5101C15.0458 17.7472 15.9093 18.7501 16.9745 18.7501L23.4208 18.7501C24.486 18.7501 25.3495 17.7472 25.3495 16.51C25.3495 15.2729 24.486 14.27 23.4208 14.27L16.9745 14.27C15.9093 14.27 15.0458 15.2729 15.0458 16.5101Z" fill="#DACEE8"/>
</svg>