<svg width="101" height="101" viewBox="0 0 101 101" fill="none" xmlns="http://www.w3.org/2000/svg">
    <g opacity="0.3">
        <circle cx="25.1982" cy="15.9712" r="4.65141" fill="#5F22A6" stroke="#5F22A6" stroke-width="0.697173"/>
        <circle cx="63.7041" cy="71.0874" r="8.94638" fill="#5F22A6" stroke="#5F22A6" stroke-width="0.697173"/>
        <path d="M34.4426 14.2925C33.338 14.2925 32.4426 15.1879 32.4426 16.2925C32.4426 17.3971 33.338 18.2925 34.4426 18.2925V14.2925ZM50.9505 73.7067C51.7315 72.9256 51.7315 71.6593 50.9505 70.8783L38.2226 58.1503C37.4415 57.3693 36.1752 57.3693 35.3941 58.1503C34.6131 58.9314 34.6131 60.1977 35.3941 60.9788L46.7079 72.2925L35.3941 83.6062C34.6131 84.3872 34.6131 85.6536 35.3941 86.4346C36.1752 87.2157 37.4415 87.2157 38.2226 86.4346L50.9505 73.7067ZM34.4426 18.2925H53.8209V14.2925H34.4426V18.2925ZM53.8209 40.2269H32.7339V44.2269H53.8209V40.2269ZM32.7339 74.2925H49.5363V70.2925H32.7339V74.2925ZM15.7012 57.2597C15.7012 66.6666 23.327 74.2925 32.7339 74.2925V70.2925C25.5361 70.2925 19.7012 64.4575 19.7012 57.2597H15.7012ZM32.7339 40.2269C23.327 40.2269 15.7012 47.8528 15.7012 57.2597H19.7012C19.7012 50.0619 25.5361 44.2269 32.7339 44.2269V40.2269ZM64.7881 29.2597C64.7881 35.3167 59.8779 40.2269 53.8209 40.2269V44.2269C62.087 44.2269 68.7881 37.5259 68.7881 29.2597H64.7881ZM53.8209 18.2925C59.8779 18.2925 64.7881 23.2027 64.7881 29.2597H68.7881C68.7881 20.9935 62.087 14.2925 53.8209 14.2925V18.2925Z" fill="#5F22A6"/>
    </g>
</svg>
