<svg width="101" height="101" viewBox="0 0 101 101" fill="none" xmlns="http://www.w3.org/2000/svg">
    <path opacity="0.3" d="M31.1493 25.6824C31.1493 20.2047 34.9575 16.2544 39.091 16.2544H61.2723C65.4057 16.2544 69.2139 20.2047 69.2139 25.6824C69.2139 31.1601 65.4057 35.1104 61.2723 35.1104H39.091C34.9575 35.1104 31.1493 31.1601 31.1493 25.6824ZM6.68103 79.2011C6.68103 76.1467 8.78027 74.1608 10.8056 74.1608H23.024C25.0493 74.1608 27.1486 76.1467 27.1486 79.2011C27.1486 82.2556 25.0493 84.2415 23.024 84.2415H10.8056C8.78027 84.2415 6.68103 82.2556 6.68103 79.2011ZM39.9473 79.2011C39.9473 76.1467 42.0465 74.1608 44.0719 74.1608H56.2902C58.3156 74.1608 60.4148 76.1467 60.4148 79.2011C60.4148 82.2556 58.3156 84.2415 56.2902 84.2415H44.0719C42.0465 84.2415 39.9473 82.2556 39.9473 79.2011ZM73.2135 79.2011C73.2135 76.1467 75.3127 74.1608 77.3381 74.1608H89.5564C91.5818 74.1608 93.681 76.1467 93.681 79.2011C93.681 82.2556 91.5818 84.2415 89.5564 84.2415H77.3381C75.3127 84.2415 73.2135 82.2556 73.2135 79.2011Z" stroke="#5F22A6" stroke-width="4"/>
    <path opacity="0.3" fill-rule="evenodd" clip-rule="evenodd" d="M48.2502 59.3995L48.2502 63.8931C48.2502 65.1176 49.1138 66.1103 50.179 66.1103C51.2442 66.1103 52.1078 65.1176 52.1078 63.8931V59.3995L81.5219 59.3995L81.5219 63.893C81.5219 65.1175 82.3854 66.1101 83.4506 66.1101C84.5159 66.1101 85.3794 65.1175 85.3794 63.893L85.3794 57.6551C85.3794 57.5661 85.3748 57.4782 85.3659 57.3919C85.3716 57.3229 85.3745 57.2531 85.3745 57.1824C85.3745 55.9579 84.5109 54.9652 83.4457 54.9652L52.1078 54.9652L52.1078 44.3524C52.1078 43.1279 51.2442 42.1353 50.179 42.1353C49.1138 42.1353 48.2502 43.1279 48.2502 44.3524L48.2502 54.9652L16.9995 54.9652C16.0019 54.9652 15.1812 55.8358 15.081 56.952C15.0167 57.1731 14.9818 57.4097 14.9818 57.6556L14.9818 63.8935C14.9818 65.118 15.8454 66.1106 16.9106 66.1106C17.9758 66.1106 18.8394 65.118 18.8394 63.8935L18.8394 59.3995L48.2502 59.3995Z" fill="#5F22A6"/>
</svg>