<svg width="100" height="101" viewBox="0 0 100 101" fill="none" xmlns="http://www.w3.org/2000/svg">
    <path opacity="0.3" fill-rule="evenodd" clip-rule="evenodd" d="M77.667 17.7925H22.334C19.0203 17.7925 16.334 20.4788 16.334 23.7925V75.2925C16.334 78.6062 19.0203 81.2925 22.334 81.2925H77.667C80.9807 81.2925 83.667 78.6062 83.667 75.2925V23.7925C83.667 20.4788 80.9807 17.7925 77.667 17.7925ZM22.334 13.7925C16.8111 13.7925 12.334 18.2696 12.334 23.7925V75.2925C12.334 80.8153 16.8111 85.2925 22.334 85.2925H77.667C83.1898 85.2925 87.667 80.8153 87.667 75.2925V23.7925C87.667 18.2696 83.1898 13.7925 77.667 13.7925H22.334Z" fill="#5F22A6"/>
    <path opacity="0.3" fill-rule="evenodd" clip-rule="evenodd" d="M30.052 46.2925C28.9474 46.2925 28.052 47.1879 28.052 48.2925V53.9265C28.052 55.0311 28.9474 55.9265 30.052 55.9265H34.9109C36.0155 55.9265 36.9109 55.0311 36.9109 53.9265V48.2925C36.9109 47.1879 36.0155 46.2925 34.9109 46.2925H30.052ZM30.052 60.9619C28.9474 60.9619 28.052 61.8573 28.052 62.9619V68.596C28.052 69.7005 28.9474 70.596 30.052 70.596H34.9109C36.0155 70.596 36.9109 69.7005 36.9109 68.596V62.9619C36.9109 61.8573 36.0155 60.9619 34.9109 60.9619H30.052ZM39.7317 48.2925C39.7317 47.1879 40.6271 46.2925 41.7317 46.2925H46.5906C47.6952 46.2925 48.5906 47.1879 48.5906 48.2925V53.9265C48.5906 55.0311 47.6952 55.9265 46.5906 55.9265H41.7317C40.6271 55.9265 39.7317 55.0311 39.7317 53.9265V48.2925ZM41.7317 60.9619C40.6271 60.9619 39.7317 61.8573 39.7317 62.9619V68.596C39.7317 69.7005 40.6271 70.596 41.7317 70.596H46.5906C47.6952 70.596 48.5906 69.7005 48.5906 68.596V62.9619C48.5906 61.8573 47.6952 60.9619 46.5906 60.9619H41.7317ZM51.4094 48.2925C51.4094 47.1879 52.3049 46.2925 53.4094 46.2925H58.2684C59.3729 46.2925 60.2684 47.1879 60.2684 48.2925V53.9265C60.2684 55.0311 59.3729 55.9265 58.2684 55.9265H53.4094C52.3049 55.9265 51.4094 55.0311 51.4094 53.9265V48.2925ZM53.4094 60.9619C52.3049 60.9619 51.4094 61.8573 51.4094 62.9619V68.596C51.4094 69.7005 52.3049 70.596 53.4094 70.596H58.2684C59.3729 70.596 60.2684 69.7005 60.2684 68.596V62.9619C60.2684 61.8573 59.3729 60.9619 58.2684 60.9619H53.4094ZM63.0901 48.2925C63.0901 47.1879 63.9855 46.2925 65.0901 46.2925H69.949C71.0536 46.2925 71.949 47.1879 71.949 48.2925V53.9265C71.949 55.0311 71.0536 55.9265 69.949 55.9265H65.0901C63.9855 55.9265 63.0901 55.0311 63.0901 53.9265V48.2925ZM65.0901 60.9619C63.9855 60.9619 63.0901 61.8573 63.0901 62.9619V68.596C63.0901 69.7005 63.9855 70.596 65.0901 70.596H69.949C71.0536 70.596 71.949 69.7005 71.949 68.596V62.9619C71.949 61.8573 71.0536 60.9619 69.949 60.9619H65.0901Z" fill="#5F22A6"/>
    <rect x="68.4409" y="27.1016" width="8.83502" height="17.9794" rx="4.41751" transform="rotate(180 68.4409 27.1016)" fill="#CFBDE5"/>
    <rect x="40.394" y="27.1016" width="8.83502" height="17.9794" rx="4.41751" transform="rotate(180 40.394 27.1016)" fill="#CFBDE5"/>
    <path opacity="0.3" d="M28.0522 37.3354L71.9487 37.3354" stroke="#5F22A6" stroke-width="4" stroke-linecap="round"/>
</svg>