<svg width="12" height="9" viewBox="0 0 12 9" fill="none" xmlns="http://www.w3.org/2000/svg">
<path d="M5.9994 1.11994e-08C6.164 -2.46193e-05 6.32605 0.0405779 6.47119 0.118205C6.61632 0.195832 6.74006 0.308084 6.8314 0.445L8.4074 2.81L10.6834 2.051C10.8496 1.99555 11.0275 1.98474 11.1991 2.01966C11.3708 2.05457 11.5303 2.13398 11.6617 2.24993C11.793 2.36588 11.8916 2.51431 11.9476 2.68035C12.0035 2.84639 12.0148 3.02421 11.9804 3.196L10.9804 8.196C10.9351 8.42278 10.8125 8.62684 10.6337 8.77343C10.4548 8.92002 10.2307 9.00009 9.9994 9H1.9994C1.76831 8.99986 1.5444 8.91969 1.36574 8.77311C1.18708 8.62654 1.0647 8.42261 1.0194 8.196L0.0194048 3.196C-0.0149182 3.02432 -0.00356581 2.84663 0.0523268 2.68072C0.108219 2.5148 0.206693 2.36646 0.337901 2.25054C0.469108 2.13462 0.62845 2.05518 0.799991 2.02016C0.971533 1.98515 1.14926 1.99578 1.3154 2.051L3.5914 2.81L5.16741 0.445C5.25875 0.308084 5.38249 0.195832 5.52762 0.118205C5.67276 0.0405779 5.83481 -2.46193e-05 5.9994 1.11994e-08ZM5.9994 2.803L4.8314 4.555C4.70974 4.73747 4.53145 4.87489 4.32402 4.94608C4.11658 5.01728 3.89148 5.0183 3.6834 4.949L2.3184 4.494L2.8184 7H9.17941L9.68141 4.494L8.3154 4.949C8.10733 5.0183 7.88223 5.01728 7.67479 4.94608C7.46735 4.87489 7.28907 4.73747 7.16741 4.555L5.9994 2.803Z" fill="white"/>
</svg>
