<?xml version="1.0" encoding="UTF-8"?><!DOCTYPE svg PUBLIC "-//W3C//DTD SVG 1.1//EN" "http://www.w3.org/Graphics/SVG/1.1/DTD/svg11.dtd"><svg xmlns="http://www.w3.org/2000/svg" xmlns:xlink="http://www.w3.org/1999/xlink"><symbol id="arrow">
  <g transform="translate(-7,-2)">
    <path d="M 8.07901,2 C 8.36485,2 8.63,2.13261 8.80429,2.37099 l 7.70471,8.31781 0.0074,0.0088 c 0.6448,0.7639 0.6448,1.9441 0,2.708 l -0.0074,0.0087 -7.70738,8.326 -0.07978,0.0405 C 8.69568,21.7941 8.67128,21.8081 8.63903,21.827 L 8.63089,21.8318 C 8.60262,21.8484 8.56132,21.8726 8.51868,21.8943 8.40843,21.9502 8.26954,22 8.08916,22 7.78277,22 7.45663,21.8522 7.27158,21.542 7.0052,21.2175 6.87473,20.6244 7.32047,20.1652 l 7.56873,-8.1771 c -0.0028,-0.0169 -0.0064,-0.034 -0.0105,-0.0503 L 7.3479,3.80254 C 7.12111,3.62465 7,3.3634 7,3.08795 7,2.80135 7.12863,2.53585 7.32659,2.33483 7.52427,2.1341 7.78914,2 8.07901,2 Z"/>
  </g>
</symbol><symbol id="close2" viewBox="0 0 18 18">
<path d="M18 1.81929L16.1807 0L9 7.18071L1.81929 0L0 1.81929L7.18071 9L0 16.1807L1.81929 18L9 10.8193L16.1807 18L18 16.1807L10.8193 9L18 1.81929Z"/>
</symbol><symbol id="downward">
  <g transform="translate(-4,-4)">
    <path d="m 11.2132,4.83427 v 9.31883 l -3.859,-4.0713 c -0.3084,-0.32534 -0.8145,-0.32534 -1.1229,0 -0.3084,0.3254 -0.3084,0.851 0,1.1763 l 5.2112,5.4979 c 0.3084,0.3253 0.8066,0.3253 1.115,0 l 5.2112,-5.4979 c 0.3084,-0.3253 0.3084,-0.8509 0,-1.1763 -0.3084,-0.32534 -0.8066,-0.32534 -1.115,0 l -3.859,4.0713 V 4.83427 C 12.7947,4.37542 12.4389,4 12.004,4 11.569,4 11.2132,4.37542 11.2132,4.83427 Z"/>
    <path d="m 4.77419,16 c 0.20533,0 0.40225,0.0702 0.54744,0.1953 0.14519,0.125 0.22676,0.2946 0.22676,0.4714 v 1.7777 c 0,0.1227 0.11561,0.2223 0.25806,0.2223 H 18.1935 c 0.0685,0 0.1341,-0.0234 0.1825,-0.0651 0.0484,-0.0417 0.0756,-0.0982 0.0756,-0.1572 v -1.7777 c 0,-0.1768 0.0816,-0.3464 0.2268,-0.4714 C 18.8236,16.0702 19.0205,16 19.2258,16 c 0.2053,0 0.4023,0.0702 0.5474,0.1953 C 19.9184,16.3203 20,16.4899 20,16.6667 v 1.7777 c 0,0.4126 -0.1903,0.8083 -0.5291,1.1 C 19.1321,19.8361 18.6726,20 18.1935,20 H 5.80645 C 5.32735,20 4.86787,19.8361 4.5291,19.5444 4.19032,19.2527 4,18.857 4,18.4444 V 16.6667 C 4,16.4899 4.08157,16.3203 4.22676,16.1953 4.37195,16.0702 4.56886,16 4.77419,16 Z"/>
  </g>
</symbol><symbol id="eye" viewBox="0 0 22 16">
<path d="M11 5C11.7956 5 12.5587 5.31607 13.1213 5.87868C13.6839 6.44129 14 7.20435 14 8C14 8.79565 13.6839 9.55871 13.1213 10.1213C12.5587 10.6839 11.7956 11 11 11C10.2044 11 9.44129 10.6839 8.87868 10.1213C8.31607 9.55871 8 8.79565 8 8C8 7.20435 8.31607 6.44129 8.87868 5.87868C9.44129 5.31607 10.2044 5 11 5ZM11 0.5C16 0.5 20.27 3.61 22 8C20.27 12.39 16 15.5 11 15.5C6 15.5 1.73 12.39 0 8C1.73 3.61 6 0.5 11 0.5ZM2.18 8C2.98825 9.65031 4.24331 11.0407 5.80248 12.0133C7.36165 12.9858 9.1624 13.5013 11 13.5013C12.8376 13.5013 14.6383 12.9858 16.1975 12.0133C17.7567 11.0407 19.0117 9.65031 19.82 8C19.0117 6.34969 17.7567 4.95925 16.1975 3.98675C14.6383 3.01424 12.8376 2.49868 11 2.49868C9.1624 2.49868 7.36165 3.01424 5.80248 3.98675C4.24331 4.95925 2.98825 6.34969 2.18 8Z"/>
</symbol><symbol id="eye2" viewBox="0 0 22 20">
<path d="M11 4.49969C13.76 4.49969 16 6.73969 16 9.49969C16 10.0097 15.9 10.4997 15.76 10.9597L18.82 14.0197C20.21 12.7897 21.31 11.2497 22 9.48969C20.27 5.10969 16 1.99969 11 1.99969C9.73 1.99969 8.51 2.19969 7.36 2.56969L9.53 4.73969C10 4.59969 10.49 4.49969 11 4.49969ZM1.71 1.15969C1.32 1.54969 1.32 2.17969 1.71 2.56969L3.68 4.53969C2.06 5.82969 0.77 7.52969 0 9.49969C1.73 13.8897 6 16.9997 11 16.9997C12.52 16.9997 13.97 16.6997 15.31 16.1797L18.03 18.8997C18.42 19.2897 19.05 19.2897 19.44 18.8997C19.83 18.5097 19.83 17.8797 19.44 17.4897L3.13 1.15969C2.74 0.769688 2.1 0.769688 1.71 1.15969ZM11 14.4997C8.24 14.4997 6 12.2597 6 9.49969C6 8.72969 6.18 7.99969 6.49 7.35969L8.06 8.92969C8.03 9.10969 8 9.29969 8 9.49969C8 11.1597 9.34 12.4997 11 12.4997C11.2 12.4997 11.38 12.4697 11.57 12.4297L13.14 13.9997C12.49 14.3197 11.77 14.4997 11 14.4997ZM13.97 9.16969C13.82 7.76969 12.72 6.67969 11.33 6.52969L13.97 9.16969Z"/>
</symbol><symbol id="line" viewBox="0 0 2 17">
<rect width="2" height="17"/>
</symbol><symbol id="loader" viewBox="0 0 28 28">

<g>
	<path d="M14,0c-0.6,0-1,0.4-1,1v5c0,0.6,0.4,1,1,1s1-0.4,1-1V1C15,0.4,14.6,0,14,0z"/>
	<path d="M5.5,4.1c-0.4-0.4-1-0.4-1.4,0s-0.4,1,0,1.4L7.6,9c0.2,0.2,0.5,0.3,0.7,0.3S8.8,9.2,9,9c0.4-0.4,0.4-1,0-1.4
		L5.5,4.1z"/>
	<path d="M7,14c0-0.6-0.4-1-1-1H1c-0.6,0-1,0.4-1,1s0.4,1,1,1h5C6.6,15,7,14.6,7,14z"/>
	<path d="M7.6,18.9l-3.5,3.5c-0.4,0.4-0.4,1,0,1.4c0.2,0.2,0.5,0.3,0.7,0.3s0.5-0.1,0.7-0.3L9,20.3c0.4-0.4,0.4-1,0-1.4
		S8,18.6,7.6,18.9z"/>
	<path d="M14,21c-0.6,0-1,0.4-1,1v5c0,0.6,0.4,1,1,1s1-0.4,1-1v-5C15,21.4,14.6,21,14,21z"/>
	<path d="M20.4,18.9c-0.4-0.4-1-0.4-1.4,0s-0.4,1,0,1.4l3.5,3.5c0.2,0.2,0.5,0.3,0.7,0.3s0.5-0.1,0.7-0.3
		c0.4-0.4,0.4-1,0-1.4L20.4,18.9z"/>
	<path d="M27,13h-5c-0.6,0-1,0.4-1,1s0.4,1,1,1h5c0.6,0,1-0.4,1-1S27.6,13,27,13z"/>
	<path d="M19.7,9.3c0.3,0,0.5-0.1,0.7-0.3l3.5-3.5c0.4-0.4,0.4-1,0-1.4s-1-0.4-1.4,0L19,7.6c-0.4,0.4-0.4,1,0,1.4
		C19.1,9.2,19.4,9.3,19.7,9.3z"/>
</g>
</symbol><symbol id="lock">
  <path d="m 1.85714,15.99997 h 9.28572 c 1.0214,0 1.8571,-0.8 1.8571,-1.7777 v -7.1112 c 0,-0.9777 -0.8357,-1.77774 -1.8571,-1.77774 V 4.44445 C 11.14286,1.99111 9.06286,0 6.49996,0 3.93714,0 1.85714,1.99111 1.85714,4.44445 V 5.33333 C 0.83571,5.33333 0,6.13337 0,7.11107 v 7.1112 c 0,0.9777 0.83571,1.7777 1.85714,1.7777 z M 3.67076,4.61592 c 0,-1.7834 1.2634,-3.22529 2.8261,-3.22529 1.5626,0 2.8261,1.44189 2.8261,3.22529 v 0.94862 h -5.6522 z"/>
</symbol><symbol id="pause">
	<g>
		<rect width="188.088" height="470"/>
		<rect x="323.91199" width="188.088" height="470"/>
	</g>
</symbol><symbol id="play" viewBox="0 0 20 25">
<path d="M0 22.8211V2.17873C0 0.437077 1.97551 -0.598173 3.44366 0.374441L19.0241 10.6956C19.3245 10.8946 19.5706 11.1633 19.7408 11.4779C19.911 11.7925 20 12.1435 20 12.4999C20 12.8563 19.911 13.2073 19.7408 13.5219C19.5706 13.8366 19.3245 14.1052 19.0241 14.3042L3.44366 24.6254C1.97639 25.598 0 24.5636 0 22.8228V22.8211Z"/>
</symbol><symbol id="quotes" viewBox="0 0 40 31">
<path d="M0 30.7692V22.3055C0 19.8075 0.467324 17.1773 1.40197 14.4148C2.33662 11.6523 3.63636 9.00742 5.3012 6.48005C6.96605 3.95268 8.92296 1.79266 11.172 0L17.6561 4.67269C15.8744 7.28822 14.3556 10.0213 13.0997 12.8719C11.8437 15.7226 11.2158 18.823 11.2158 22.1732V30.7692H0ZM22.3439 30.7692V22.3055C22.3439 19.8075 22.8112 17.1773 23.7459 14.4148C24.6805 11.6523 25.9803 9.00742 27.6451 6.48005C29.31 3.95268 31.2669 1.79266 33.5159 0L40 4.67269C38.2183 7.28822 36.6995 10.0213 35.4436 12.8719C34.1877 15.7226 33.5597 18.823 33.5597 22.1732V30.7692H22.3439Z"/>
</symbol><symbol id="search" viewBox="0 0 21 18">
<path d="M8.3171 13.9883C11.8067 13.9883 14.6357 11.0808 14.6357 7.49416C14.6357 3.90753 11.8067 1 8.3171 1C4.82745 1 1.99854 3.90753 1.99854 7.49416C1.99854 11.0808 4.82745 13.9883 8.3171 13.9883Z M14.6357 12.2051L19.3012 17.0002" stroke-width="2" stroke-linecap="round"/>
</symbol><symbol id="trash" viewBox="0 0 18 20">
    <g>
        <path d="M14 20H4C2.89543 20 2 19.1046 2 18V5H0V3H4V2C4 0.89543 4.89543 0 6 0H12C13.1046 0 14 0.89543 14 2V3H18V5H16V18C16 19.1046 15.1046 20 14 20ZM4 5V18H14V5H4ZM6 2V3H12V2H6ZM12 16H10V7H12V16ZM8 16H6V7H8V16Z"/>
    </g>
</symbol></svg>