<?xml version="1.0" standalone="no"?>
<!DOCTYPE svg PUBLIC "-//W3C//DTD SVG 20010904//EN"
 "http://www.w3.org/TR/2001/REC-SVG-20010904/DTD/svg10.dtd">
<svg version="1.0" xmlns="http://www.w3.org/2000/svg"
 width="700.000000pt" height="700.000000pt" viewBox="0 0 700.000000 700.000000"
 preserveAspectRatio="xMidYMid meet">
<metadata>
Created by potrace 1.14, written by Peter Selinger 2001-2017
</metadata>
<g transform="translate(0.000000,700.000000) scale(0.100000,-0.100000)"
fill="#000000" stroke="none">
<path d="M6585 6269 c-132 -10 -256 -20 -285 -24 -14 -2 -50 -6 -80 -10 -30
-4 -66 -8 -80 -10 -14 -2 -61 -9 -105 -15 -491 -68 -962 -222 -1306 -427 -219
-130 -453 -341 -597 -538 -197 -271 -346 -658 -402 -1050 -6 -44 -13 -91 -15
-105 -10 -65 -22 -230 -24 -318 l-1 -62 -242 2 -243 3 0 568 c0 312 -2 568 -5
568 -3 1 -222 2 -487 3 -478 1 -483 1 -484 -19 0 -11 -1 -269 -1 -573 l-1
-552 -624 2 -624 3 -1 570 0 570 -487 0 -486 0 -3 -1665 -2 -1665 472 2 c260
1 480 2 489 2 15 1 17 58 17 678 1 373 1 695 1 715 l1 38 623 0 624 -1 -1
-714 c-1 -470 2 -715 9 -716 31 -2 952 -4 960 -2 7 2 10 230 10 681 l0 677
245 -2 c135 -1 257 -2 271 -2 23 -1 27 -6 37 -65 30 -161 115 -404 195 -555
112 -214 264 -398 436 -527 96 -72 286 -170 402 -208 258 -83 623 -106 899
-55 536 98 914 403 1113 896 48 118 93 302 115 463 8 57 6 55 64 59 16 1 17
32 16 411 l-1 410 -69 0 c-52 0 -68 3 -68 14 0 32 -75 237 -119 327 -71 143
-135 233 -246 345 -246 248 -545 358 -945 349 -183 -4 -327 -37 -480 -108
-109 -51 -168 -90 -307 -203 l-31 -25 32 93 c139 395 426 671 876 841 277 104
611 165 1000 181 l65 3 7 34 c3 19 9 57 12 84 8 65 17 134 22 165 2 14 15 113
30 220 14 107 29 208 34 223 l9 28 -72 -3 c-40 -2 -112 -6 -162 -9z m-1073
-2314 c91 -27 221 -130 271 -214 l18 -31 -535 0 c-295 0 -536 3 -536 6 0 10
61 62 123 105 110 77 260 133 382 146 33 3 62 7 64 9 9 8 168 -8 213 -21z
m399 -1077 c14 -22 -37 -226 -81 -325 -50 -109 -147 -228 -218 -264 -15 -8
-30 -19 -35 -26 -32 -50 -274 -65 -402 -26 -212 66 -339 234 -433 575 l-19 67
21 3 c52 8 1162 4 1167 -4z"/>
</g>
</svg>
