<svg width="16" height="16" viewBox="0 0 16 16" fill="none" xmlns="http://www.w3.org/2000/svg">
<path d="M4.90776 15.7193L12.6751 8.71929C12.8831 8.53176 13 8.27745 13 8.01229C13 7.74712 12.8831 7.49282 12.6751 7.30529L4.90776 0.305286C4.8054 0.209776 4.68296 0.133595 4.54758 0.0811863C4.4122 0.0287781 4.2666 0.00119019 4.11926 3.62396e-05C3.97193 -0.00111771 3.82582 0.0241842 3.68945 0.0744648C3.55308 0.124745 3.42919 0.198999 3.325 0.292892C3.22082 0.386786 3.13842 0.498439 3.08263 0.621335C3.02684 0.744231 2.99876 0.87591 3.00004 1.00869C3.00132 1.14147 3.03193 1.27269 3.09009 1.39469C3.14824 1.5167 3.23278 1.62704 3.33876 1.71929L9.21199 7.01229L10.2607 8.01229L9.21199 9.01229L3.33876 14.3053C3.13663 14.4939 3.02479 14.7465 3.02731 15.0087C3.02984 15.2709 3.14654 15.5217 3.35227 15.7071C3.558 15.8925 3.83631 15.9977 4.12725 16C4.41819 16.0022 4.69848 15.9014 4.90776 15.7193Z" fill="#3C3C3C"/>
</svg>
