<svg xmlns="http://www.w3.org/2000/svg" width="14" height="14" viewBox="0 0 14 14"><title>call</title><path d="M13.18,10.44A12.44,12.44,0,0,0,10,8.67c-.19,0-.33.19-.71.64a4.84,4.84,0,0,1-.57.63,5.39,5.39,0,0,1-1.1-.41A6.83,6.83,0,0,1,4.51,6.4a5.36,5.36,0,0,1-.4-1.1,4.76,4.76,0,0,1,.62-.57c.45-.38.61-.52.64-.71A12.44,12.44,0,0,0,3.6.86.59.59,0,0,0,3.17.58C2.69.58.54,3.25.54,3.59c0,0,0,2.8,3.55,6.37s6.33,3.55,6.36,3.55c.35,0,3-2.16,3-2.64A.59.59,0,0,0,13.18,10.44Z" fill="#fff"/><path d="M10.23,6.58h.92A3.69,3.69,0,0,0,7.46,2.89v.92a2.77,2.77,0,0,1,2,.82A2.74,2.74,0,0,1,10.23,6.58Z" fill="#fff"/><path d="M12.54,6.58h.92a6,6,0,0,0-6-6v.93a5.07,5.07,0,0,1,5.08,5.07Z" fill="#fff"/></svg>