<svg width="18" height="18" viewBox="0 0 18 18" fill="none" xmlns="http://www.w3.org/2000/svg">
<path d="M9 1.125C5.27197 1.125 2.25 4.14697 2.25 7.875C2.25 9.73834 3.00499 11.4255 4.22606 12.6469C5.44748 13.869 8.325 15.6375 8.49375 17.4937C8.51905 17.7721 8.72055 18 9 18C9.27945 18 9.48095 17.7721 9.50625 17.4937C9.675 15.6375 12.5525 13.869 13.7739 12.6469C14.995 11.4255 15.75 9.73834 15.75 7.875C15.75 4.14697 12.728 1.125 9 1.125Z" fill="#FF4433"/>
<path d="M9.00002 10.2377C10.3048 10.2377 11.3625 9.17993 11.3625 7.87517C11.3625 6.57039 10.3048 5.51267 9.00002 5.51267C7.69526 5.51267 6.63752 6.57039 6.63752 7.87517C6.63752 9.17993 7.69526 10.2377 9.00002 10.2377Z" fill="white"/>
</svg>
