<svg version="1.1" xmlns="http://www.w3.org/2000/svg" viewBox="0 0 34 46" width="34" height="46">
	<path d="M17,1.8c-4.1,0-7.9,1.6-10.8,4.5S1.8,13,1.8,17c0,3.4,2.7,9.2,7.5,16.3c3.1,4.6,6.3,8.4,7.8,10.2 c1.5-1.6,4.6-5.5,7.9-10.4c2.1-3.2,3.8-6.2,5.1-8.9c1.4-3,2.1-5.5,2.1-7.3c0-4.1-1.6-7.9-4.5-10.8C24.9,3.4,21.1,1.8,17,1.8z M17,0 c9.4,0,17,7.6,17,17c0,9.3-15.7,29-17,29c0,0,0,0,0,0C16.1,45.5,0,26.4,0,17C0,7.6,7.6,0,17,0z"/>
	<path d="M17.7,25c-4.1,0-7.5-3.1-7.5-7s3.4-7,7.5-7c4.1,0,7.5,3.1,7.5,7S21.8,25,17.7,25z M17.7,12.8 c-3.1,0-5.7,2.3-5.7,5.2s2.6,5.2,5.7,5.2s5.7-2.3,5.7-5.2S20.8,12.8,17.7,12.8z"/>
</svg>