<svg width="18" height="23" viewBox="0 0 18 23" fill="none" xmlns="http://www.w3.org/2000/svg">
<path d="M8.83203 0C11.0864 0 13.2484 0.895533 14.8424 2.48959C16.4365 4.08365 17.332 6.24566 17.332 8.5C17.332 13.194 9.27603 23.211 8.83203 22.955C8.38803 22.699 0.332031 13.194 0.332031 8.5C0.332031 6.24566 1.22756 4.08365 2.82162 2.48959C4.41568 0.895533 6.57769 0 8.83203 0Z" fill="#7CC5AD"/>
<path d="M8.83203 12.5859C11.0412 12.5859 12.832 10.7951 12.832 8.58594C12.832 6.3768 11.0412 4.58594 8.83203 4.58594C6.62289 4.58594 4.83203 6.3768 4.83203 8.58594C4.83203 10.7951 6.62289 12.5859 8.83203 12.5859Z" fill="white"/>
</svg>
