<svg width="18" height="22" viewBox="0 0 18 22" fill="none" xmlns="http://www.w3.org/2000/svg">
<path d="M8.9959 5.25098C8.25442 5.25236 7.53 5.47359 6.91425 5.88669C6.29851 6.29979 5.81908 6.8862 5.53661 7.57177C5.25413 8.25734 5.1813 9.01127 5.32732 9.73824C5.47333 10.4652 5.83163 11.1325 6.35692 11.6559C6.8822 12.1792 7.55088 12.535 8.27838 12.6783C9.00589 12.8216 9.75954 12.7459 10.444 12.4609C11.1286 12.1759 11.7132 11.6943 12.124 11.077C12.5348 10.4597 12.7533 9.73446 12.7519 8.99298C12.749 7.99901 12.3519 7.04679 11.6477 6.34526C10.9436 5.64373 9.98988 5.25018 8.9959 5.25098ZM8.9959 11.285C8.54457 11.2836 8.10376 11.1486 7.72907 10.897C7.35437 10.6454 7.06259 10.2884 6.89051 9.87119C6.71843 9.45394 6.67377 8.99508 6.76216 8.55249C6.85055 8.1099 7.06803 7.7034 7.38717 7.38426C7.70631 7.06511 8.11282 6.84763 8.55541 6.75924C8.99801 6.67085 9.45686 6.71551 9.8741 6.88759C10.2913 7.05967 10.6483 7.35145 10.8999 7.72614C11.1515 8.10084 11.2865 8.54165 11.2879 8.99298C11.2858 9.60021 11.0436 10.182 10.6143 10.6113C10.1849 11.0407 9.60313 11.2829 8.9959 11.285Z" fill="#D9232E"/>
<path d="M13.499 13.5088L13.513 13.4948C14.4018 12.6025 15.0064 11.4669 15.2503 10.2314C15.4943 8.99579 15.3666 7.71565 14.8836 6.55256C14.4005 5.38946 13.5836 4.39557 12.5361 3.69638C11.4886 2.99718 10.2574 2.62402 8.998 2.62402C7.73858 2.62402 6.50739 2.99718 5.45989 3.69638C4.41238 4.39557 3.59553 5.38946 3.11245 6.55256C2.62938 7.71565 2.50175 8.99579 2.74568 10.2314C2.98961 11.4669 3.59416 12.6025 4.483 13.4948C4.6237 13.6342 4.81391 13.7123 5.012 13.7118C5.10824 13.7122 5.20361 13.6935 5.29259 13.6569C5.38158 13.6202 5.46244 13.5663 5.53049 13.4983C5.59854 13.4302 5.65244 13.3494 5.68909 13.2604C5.72574 13.1714 5.7444 13.076 5.744 12.9798C5.73946 12.78 5.65649 12.5899 5.513 12.4508C4.83012 11.7622 4.36656 10.8867 4.18082 9.93483C3.99509 8.98297 4.09551 7.99744 4.46941 7.10261C4.84332 6.20778 5.47393 5.44378 6.28167 4.90705C7.08941 4.37032 8.03805 4.08492 9.00785 4.08687C9.97765 4.08882 10.9251 4.37804 11.7307 4.91802C12.5363 5.458 13.1638 6.22453 13.5341 7.12085C13.9044 8.01718 14.0009 9.00312 13.8113 9.95421C13.6217 10.9053 13.1547 11.7789 12.469 12.4648L6.096 18.8378L7.14 19.8688L13.499 13.5088Z" fill="#D9232E"/>
<path d="M18 8.9909C17.9985 7.51194 17.6326 6.05615 16.9345 4.75229C16.2365 3.44842 15.2279 2.33666 13.998 1.51535C12.7681 0.694039 11.3547 0.188486 9.88285 0.0434086C8.41103 -0.101669 6.92614 0.1182 5.55952 0.683567C4.1929 1.24894 2.98666 2.14238 2.0475 3.28487C1.10835 4.42736 0.465212 5.78368 0.174989 7.23388C-0.115234 8.68408 -0.0436022 10.1834 0.383548 11.5994C0.810698 13.0153 1.5802 14.3041 2.624 15.3519C2.69286 15.422 2.77526 15.4774 2.8662 15.5147C2.95714 15.5521 3.05472 15.5705 3.153 15.5689C3.34665 15.5673 3.53193 15.4897 3.66886 15.3528C3.8058 15.2158 3.88343 15.0306 3.885 14.8369C3.88046 14.6371 3.79748 14.4471 3.654 14.3079C2.78009 13.4298 2.13609 12.3498 1.77897 11.1635C1.42185 9.97721 1.36262 8.72119 1.60652 7.50656C1.85042 6.29193 2.38994 5.15614 3.17733 4.19967C3.96472 3.2432 4.97571 2.49555 6.12087 2.02285C7.26602 1.55016 8.51002 1.367 9.74282 1.48957C10.9756 1.61215 12.1592 2.03669 13.1889 2.72562C14.2185 3.41456 15.0625 4.34665 15.6461 5.43944C16.2297 6.53223 16.535 7.75202 16.535 8.9909C16.5386 9.98135 16.345 10.9626 15.9656 11.8775C15.5862 12.7924 15.0285 13.6227 14.325 14.3199L7.952 20.6909L8.994 21.7249L15.367 15.3519C16.2025 14.5173 16.8649 13.526 17.3163 12.4347C17.7676 11.3435 17.9989 10.1738 17.997 8.9929L18 8.9909Z" fill="#D9232E"/>
</svg>