<svg width="18" height="18" viewBox="0 0 18 18" fill="none" xmlns="http://www.w3.org/2000/svg">
<g clip-path="url(#clip0_904_20851)">
<path d="M16.0069 0H1.99311C0.892346 0 0 0.892346 0 1.99311V16.0069C0 17.1077 0.892346 18 1.99311 18H16.0069C17.1077 18 18 17.1077 18 16.0069V1.99311C18 0.892346 17.1077 0 16.0069 0Z" fill="#0D64B1"/>
<path d="M3.30762 1.61884H9.62585C11.5045 1.61885 12.9448 2.03743 13.9468 2.87457C14.9553 3.70515 15.4596 4.89167 15.4596 6.43414C15.4596 7.98322 14.9553 9.17634 13.9468 10.0135C12.9448 10.8441 11.5045 11.2593 9.62585 11.2593H7.11438V16.3812H3.30762V1.61884ZM7.11438 4.3775V8.50067H9.22046C9.95873 8.50068 10.5289 8.3227 10.931 7.96674C11.3331 7.6042 11.5342 7.09333 11.5342 6.43414C11.5342 5.77497 11.3331 5.26741 10.931 4.91144C10.5289 4.55549 9.95873 4.37751 9.22046 4.3775H7.11438Z" fill="white"/>
</g>
<defs>
<clipPath id="clip0_904_20851">
<rect width="18" height="18" fill="white"/>
</clipPath>
</defs>
</svg>
