<svg width="33" height="33" viewBox="0 0 33 33" fill="none" xmlns="http://www.w3.org/2000/svg">
<rect x="0.5" y="0.5" width="32" height="32" rx="16" fill="#7CC5AD"/>
<path d="M24.742 21.0274C24.2041 20.5764 21.0497 18.5788 20.5254 18.6705C20.2792 18.7142 20.0909 18.924 19.5869 19.5253C19.3538 19.8212 19.0979 20.0984 18.8214 20.3542C18.3148 20.2318 17.8244 20.05 17.3605 19.8127C15.5409 18.9268 14.071 17.4564 13.1857 15.6367C12.9483 15.1727 12.7665 14.6823 12.6442 14.1757C12.9 13.8992 13.1771 13.6433 13.4731 13.4102C14.0737 12.9062 14.2842 12.7191 14.3278 12.4717C14.4195 11.9462 12.4202 8.79297 11.9709 8.25512C11.7826 8.03235 11.6115 7.88281 11.3925 7.88281C10.7574 7.88281 7.88477 11.4348 7.88477 11.8951C7.88477 11.9327 7.9463 15.6305 12.6165 20.3819C17.3678 25.052 21.0657 25.1136 21.1032 25.1136C21.5635 25.1136 25.1155 22.241 25.1155 21.6059C25.1155 21.3868 24.966 21.2157 24.742 21.0274Z" fill="white"/>
<path d="M20.8075 15.884H22.0383C22.0368 14.5788 21.5177 13.3274 20.5948 12.4045C19.6718 11.4816 18.4205 10.9624 17.1152 10.9609V12.1917C18.0942 12.1927 19.0328 12.582 19.725 13.2742C20.4172 13.9665 20.8066 14.9051 20.8075 15.884Z" fill="white"/>
<path d="M23.8845 15.8828H25.1152C25.1128 13.7618 24.2692 11.7284 22.7694 10.2287C21.2696 8.72889 19.2362 7.88526 17.1152 7.88281V9.11358C18.9099 9.1157 20.6304 9.82956 21.8995 11.0986C23.1685 12.3676 23.8823 14.0882 23.8845 15.8828Z" fill="white"/>
</svg>
