<svg width="35" height="29" viewBox="0 0 35 29" fill="none" xmlns="http://www.w3.org/2000/svg">
<path d="M5.79907e-05 7.73506C-0.00401935 6.72262 0.206956 5.72083 0.619046 4.79604C1.02186 3.88187 1.58012 3.0445 2.26904 2.32106C2.93167 1.61702 3.71808 1.04077 4.58905 0.621051C5.40744 0.217979 6.30679 0.0063501 7.21905 0.00209304C8.31329 -0.0230992 9.40082 0.17936 10.4127 0.596636C11.4245 1.01391 12.3386 1.63685 13.097 2.42604C13.897 3.27042 14.5192 4.26691 14.9266 5.35634C15.3341 6.44578 15.5186 7.606 15.4691 8.76808C15.5822 11.992 14.9669 15.1998 13.6691 18.1531C12.6678 20.3187 11.366 22.3322 9.80206 24.1341C8.16824 25.8587 6.24951 27.2889 4.13006 28.3621L1.03604 24.2371C2.21584 23.5242 3.32136 22.695 4.33606 21.762C5.21344 20.9447 5.99209 20.0275 6.65606 19.0291C7.37266 17.9818 7.75065 16.74 7.73904 15.4711C5.70333 15.4216 3.76469 14.5909 2.3247 13.1511C0.884722 11.7113 0.0537849 9.77278 0.00405579 7.73708L5.79907e-05 7.73506ZM18.528 7.73506C18.5241 6.72263 18.7351 5.72087 19.1471 4.79604C19.5501 3.88197 20.1083 3.04462 20.7971 2.32106C21.4597 1.61702 22.2461 1.04077 23.1171 0.621051C23.9354 0.217946 24.8348 0.00631517 25.7471 0.00209304C26.8413 -0.0230992 27.9288 0.17936 28.9407 0.596636C29.9525 1.01391 30.8667 1.63685 31.6251 2.42604C32.4251 3.27039 33.0472 4.2669 33.4547 5.35634C33.8622 6.44578 34.0466 7.60599 33.9971 8.76808C34.1101 11.9919 33.4949 15.1998 32.197 18.1531C31.1959 20.3188 29.894 22.3322 28.33 24.1341C26.6962 25.8587 24.7775 27.289 22.658 28.3621L19.5641 24.2371C20.7438 23.5241 21.8492 22.6949 22.864 21.762C23.7414 20.9447 24.52 20.0275 25.184 19.0291C25.9006 17.9818 26.2787 16.74 26.2671 15.4711C24.2313 15.4216 22.2927 14.5909 20.8527 13.1511C19.4127 11.7113 18.5818 9.77278 18.532 7.73708L18.528 7.73506Z" fill="#DCECF8"/>
</svg>
