<svg width="80" height="68" viewBox="0 0 80 68" fill="none" xmlns="http://www.w3.org/2000/svg">
<path d="M0.00100708 19.0277C-0.00864721 16.6638 0.483894 14.3249 1.44601 12.1657C2.38635 10.0315 3.68965 8.07657 5.298 6.38772C6.84628 4.74196 8.68422 3.39517 10.72 2.4147C12.6306 1.47363 14.7302 0.979492 16.86 0.969694C19.4148 0.911168 21.9538 1.38398 24.3162 2.35812C26.6787 3.33226 28.813 4.78648 30.584 6.62869C34.274 10.4014 36.12 15.3367 36.122 21.4347C36.122 30.2654 34.7173 37.5694 31.908 43.3467C29.5702 48.4032 26.5306 53.1046 22.879 57.3117C19.0644 61.3385 14.5845 64.678 9.63599 67.1837L2.41299 57.5527C5.16588 55.8882 7.7454 53.9526 10.113 51.7747C12.1618 49.867 13.9798 47.7257 15.53 45.3947C17.2031 42.9493 18.0858 40.0495 18.059 37.0867C13.3061 36.9713 8.77981 35.0318 5.41785 31.6703C2.05588 28.3087 0.115953 23.7826 0 19.0297L0.00100708 19.0277ZM43.259 19.0277C43.2496 16.6639 43.7421 14.325 44.704 12.1657C45.645 10.0316 46.9486 8.07676 48.557 6.38772C50.1038 4.74245 51.94 3.39569 53.974 2.4147C55.8846 1.47363 57.9842 0.979492 60.114 0.969694C62.6688 0.911107 65.2078 1.38386 67.5703 2.358C69.9327 3.33214 72.067 4.78643 73.838 6.62869C77.528 10.4014 79.374 15.3367 79.376 21.4347C79.376 30.2654 77.9714 37.5694 75.162 43.3467C72.8244 48.4033 69.7847 53.1047 66.133 57.3117C62.3187 61.3384 57.8392 64.6779 52.891 67.1837L45.667 57.5527C48.4214 55.8882 51.0026 53.9526 53.372 51.7747C55.4206 49.8668 57.2386 47.7255 58.789 45.3947C60.4615 42.949 61.3438 40.0494 61.317 37.0867C56.5641 36.9713 52.0378 35.0318 48.6758 31.6703C45.3139 28.3087 43.3739 23.7826 43.258 19.0297L43.259 19.0277Z" fill="#515B90"/>
</svg>
