<svg class="social-icon" xmlns="http://www.w3.org/2000/svg" width="40" height="40" viewBox="0 0 40 40"><path d="M20,0h0A20,20,0,0,1,40,20h0A20,20,0,0,1,20,40h0A20,20,0,0,1,0,20H0A20,20,0,0,1,20,0Z"/><path d="M8.2,18.81l13.31-5.48c1.31-.57,5.77-2.4,5.77-2.4s2-.8,1.88,1.14c-.06.8-.51,3.6-1,6.63l-1.43,9S26.65,29,25.67,29.2s-2.57-.8-2.85-1-4.29-2.75-5.77-4a1.29,1.29,0,0,1-.36-.41,1,1,0,0,1-.11-.52,1,1,0,0,1,.15-.52,1,1,0,0,1,.38-.38c2.05-1.89,4.51-4.23,6-5.71.68-.69,1.37-2.29-1.49-.35l-8,5.43a3.34,3.34,0,0,1-2.63.06c-1.71-.52-3.71-1.2-3.71-1.2s-1.37-.86,1-1.77Z" fill="#fff"/></svg>