<svg width="30" height="31" viewBox="0 0 30 31" fill="none" xmlns="http://www.w3.org/2000/svg">
<path d="M20.7957 20.0268C20.8827 20.1728 20.9627 20.2878 21.0337 20.4108C21.1166 20.5471 21.1613 20.7034 21.1629 20.863C21.1644 21.0227 21.1229 21.1798 21.0427 21.3178C20.9604 21.4576 20.8436 21.574 20.7036 21.6559C20.5636 21.7379 20.4049 21.7826 20.2427 21.7858H15.9037C14.4483 21.7392 12.9985 21.5828 11.5667 21.3178C10.8357 21.1798 10.3037 20.9718 10.3037 20.6348V14.9448C10.3037 14.5448 10.2327 14.3608 10.7957 14.3848C11.0651 14.4108 11.3358 14.3504 11.5686 14.2123C11.8014 14.0742 11.9843 13.8657 12.0907 13.6168C12.3485 13.0493 12.6404 12.498 12.9647 11.9658C13.3283 11.4158 13.7431 10.9015 14.2037 10.4298C14.7706 9.84143 15.1445 9.09418 15.2757 8.28776C15.3547 7.84976 15.4667 7.41976 15.5697 6.98276C15.5933 6.87936 15.641 6.78299 15.7089 6.7015C15.7768 6.62001 15.863 6.5557 15.9605 6.5138C16.0579 6.4719 16.1639 6.45359 16.2697 6.46036C16.3756 6.46713 16.4783 6.49879 16.5697 6.55276C16.9038 6.69211 17.1865 6.93152 17.379 7.23808C17.5715 7.54464 17.6643 7.90331 17.6447 8.26476C17.627 9.05329 17.4682 9.83228 17.1757 10.5648C17.0327 10.9948 16.8577 11.4168 16.7147 11.8548C16.5717 12.2928 16.6747 12.4918 17.2227 12.4998H20.1847C20.5032 12.4942 20.8218 12.5122 21.1377 12.5538C21.397 12.5856 21.6413 12.6927 21.8404 12.8619C22.0394 13.0311 22.1845 13.2549 22.2577 13.5058C22.3401 13.7581 22.3365 14.0306 22.2474 14.2807C22.1584 14.5308 21.989 14.7443 21.7657 14.8878C21.5037 15.0948 21.4957 15.1108 21.7657 15.2948C21.9379 15.4105 22.079 15.5668 22.1766 15.7499C22.2741 15.933 22.3252 16.1373 22.3252 16.3448C22.3252 16.5522 22.2741 16.7565 22.1766 16.9396C22.079 17.1228 21.9379 17.279 21.7657 17.3948C21.6467 17.4558 21.5117 17.5408 21.7097 17.6638C21.9391 17.795 22.1179 17.9995 22.2173 18.2445C22.3166 18.4895 22.3309 18.7607 22.2577 19.0148C22.1822 19.2757 22.0296 19.5077 21.8199 19.6802C21.6102 19.8528 21.3532 19.9579 21.0827 19.9818H20.9397L20.7957 20.0268Z" fill="#E98D86"/>
<path d="M6.45703 14.1301H9.19603V21.7701H6.45703V14.1301Z" fill="#E98D86"/>
<path d="M15.0016 29.6496C22.8164 29.6496 29.1516 23.3144 29.1516 15.4996C29.1516 7.68478 22.8164 1.34961 15.0016 1.34961C7.18673 1.34961 0.851562 7.68478 0.851562 15.4996C0.851562 23.3144 7.18673 29.6496 15.0016 29.6496Z" stroke="#E98D86" stroke-width="1.7"/>
</svg>
