<svg version="1.1" xmlns="http://www.w3.org/2000/svg" viewBox="0 0 30 30" width="30" height="30">
<path fill="#E98D86" d="M20.8,19.5c0.1,0.1,0.2,0.3,0.2,0.4c0.1,0.1,0.1,0.3,0.1,0.5c0,0.2,0,0.3-0.1,0.5c-0.1,0.1-0.2,0.3-0.3,0.3 c-0.1,0.1-0.3,0.1-0.5,0.1h-4.3c-1.5,0-2.9-0.2-4.3-0.5c-0.7-0.1-1.3-0.3-1.3-0.7v-5.7c0-0.4-0.1-0.6,0.5-0.6c0.3,0,0.5,0,0.8-0.2 c0.2-0.1,0.4-0.3,0.5-0.6c0.3-0.6,0.5-1.1,0.9-1.7c0.4-0.6,0.8-1.1,1.2-1.5c0.6-0.6,0.9-1.3,1.1-2.1c0.1-0.4,0.2-0.9,0.3-1.3 c0-0.1,0.1-0.2,0.1-0.3C15.8,6.1,15.9,6.1,16,6C16.1,6,16.2,6,16.3,6c0.1,0,0.2,0,0.3,0.1c0.3,0.1,0.6,0.4,0.8,0.7 c0.2,0.3,0.3,0.7,0.3,1c0,0.8-0.2,1.6-0.5,2.3c-0.1,0.4-0.3,0.9-0.5,1.3c-0.1,0.4,0,0.6,0.5,0.6h3c0.3,0,0.6,0,1,0.1 c0.3,0,0.5,0.1,0.7,0.3c0.2,0.2,0.3,0.4,0.4,0.6c0.1,0.3,0.1,0.5,0,0.8c-0.1,0.3-0.3,0.5-0.5,0.6c-0.3,0.2-0.3,0.2,0,0.4 c0.2,0.1,0.3,0.3,0.4,0.5c0.1,0.2,0.1,0.4,0.1,0.6c0,0.2-0.1,0.4-0.1,0.6c-0.1,0.2-0.2,0.3-0.4,0.5c-0.1,0.1-0.3,0.1-0.1,0.3 c0.2,0.1,0.4,0.3,0.5,0.6c0.1,0.2,0.1,0.5,0,0.8c-0.1,0.3-0.2,0.5-0.4,0.7c-0.2,0.2-0.5,0.3-0.7,0.3h-0.1L20.8,19.5z"/>
<path fill="#E98D86" d="M6.5,13.6h2.7v7.6H6.5V13.6z"/>
<path fill="#E98D86" d="M15,30C6.7,30,0,23.3,0,15S6.7,0,15,0c8.3,0,15,6.7,15,15S23.3,30,15,30z M15,1.7C7.7,1.7,1.7,7.7,1.7,15 s6,13.3,13.3,13.3c7.3,0,13.3-6,13.3-13.3S22.3,1.7,15,1.7z"/>
</svg>