<svg width="16" height="16" viewBox="0 0 16 16" fill="none" xmlns="http://www.w3.org/2000/svg">
<path d="M8 16C12.4107 16 16 12.4107 16 8C16 3.58934 12.4107 0 8 0C3.5893 0 0 3.58934 0 8C0 12.4107 3.58934 16 8 16ZM8 1.06665C11.824 1.06665 14.9334 4.17597 14.9334 8C14.9334 11.824 11.824 14.9334 8 14.9334C4.17597 14.9334 1.06665 11.824 1.06665 8C1.06665 4.17597 4.17602 1.06665 8 1.06665Z" fill="black"/>
<path d="M10.3333 10.5494C10.432 10.6293 10.5493 10.6667 10.6667 10.6667C10.824 10.6667 10.9787 10.5974 11.0826 10.4667C11.2667 10.2374 11.2293 9.90137 11 9.71736L8.53332 7.74403V3.73336C8.53332 3.44002 8.29334 3.20004 8 3.20004C7.70666 3.20004 7.46668 3.44002 7.46668 3.73336V8.00004C7.46668 8.16272 7.54136 8.31471 7.66667 8.41603L10.3333 10.5494Z" fill="black"/>
</svg>
