<svg class="social-icon" version="1.1" xmlns="http://www.w3.org/2000/svg" viewBox="0 0 40 40" width="40" height="40"><path d="M20,0L20,0c11,0,20,9,20,20l0,0c0,11-9,20-20,20l0,0C9,40,0,31,0,20l0,0C0,9,9,0,20,0z"/><path fill="#ffffff" d="M30.2,15.6c0.2-0.5,0-0.8-0.8-0.8h-2.5c-0.2,0-0.5,0-0.7,0.1c-0.2,0.1-0.4,0.3-0.4,0.5 c-0.8,1.7-1.8,3.3-3.1,4.7c-0.6,0.5-0.8,0.7-1.2,0.7c-0.2,0-0.4-0.2-0.4-0.7v-4.5c0-0.6-0.2-0.8-0.7-0.8h-4c-0.2,0-0.3,0-0.4,0.1 c-0.1,0.1-0.2,0.2-0.2,0.4c0,0.6,0.9,0.7,1,2.2v3.4c0,0.7-0.1,0.9-0.5,0.9c-0.8,0-2.9-2.8-4.2-6.1c-0.3-0.6-0.5-0.9-1.1-0.9H8.6 c-0.7,0-0.9,0.3-0.9,0.7c0,0.6,0.8,3.6,4,7.6c0.9,1.2,2,2.2,3.4,3c1.3,0.7,2.8,1.1,4.3,1.2c1.6,0,1.8-0.3,1.8-0.9v-2.1 c0-0.7,0.1-0.8,0.7-0.8c0.4,0,1,0.2,2.5,1.5c1.7,1.5,2,2.3,2.9,2.3h2.5c0.7,0,1.1-0.3,0.9-1c-0.6-1-1.3-1.9-2.1-2.7 c-0.6-0.6-1.5-1.3-1.7-1.6c-0.4-0.4-0.3-0.6,0-1C26.8,20.9,29.9,17,30.2,15.6L30.2,15.6z"/></svg>