<svg class="social-icon" xmlns="http://www.w3.org/2000/svg" width="40" height="40" viewBox="0 0 40 40"><path d="M3.54,31.39l-.48-.76A20,20,0,1,1,40,20,20.25,20.25,0,0,1,29,37.86,19.35,19.35,0,0,1,20,40,19.93,19.93,0,0,1,9.84,37.21l-.73-.43L.24,40Z"/><path d="M14.55,10.73c-.42-.91-.86-.93-1.26-1H12.21a2.05,2.05,0,0,0-.82.19,2.1,2.1,0,0,0-.68.5,6,6,0,0,0-2,4.59A10.63,10.63,0,0,0,11,20.74c.28.36,3.89,6.1,9.61,8.3,4.75,1.83,5.72,1.46,6.75,1.37a5.71,5.71,0,0,0,2.17-.91,5.51,5.51,0,0,0,1.62-1.71,4.49,4.49,0,0,0,.33-2.61c-.14-.23-.51-.37-1.08-.64s-3.32-1.61-3.85-1.8-.89-.27-1.26.28-1.46,1.79-1.78,2.15-.66.41-1.22.14a15.25,15.25,0,0,1-4.52-2.73,16.16,16.16,0,0,1-3.13-3.81c-.33-.55,0-.85.24-1.12s.56-.64.85-1a3.78,3.78,0,0,0,.56-.92,1,1,0,0,0,.1-.49,1,1,0,0,0-.15-.47c-.15-.28-1.23-3-1.73-4.08" fill="#fff"/></svg>