<svg width="60" height="60" viewBox="0 0 60 60" fill="none" xmlns="http://www.w3.org/2000/svg">
<rect width="60" height="60" rx="8" fill="white"/>
<path d="M33.8149 34.3316H25.8984" stroke="#5451D6" stroke-width="2" stroke-linecap="round" stroke-linejoin="round"/>
<path fill-rule="evenodd" clip-rule="evenodd" d="M25.29 33.9462C22.9468 32.2903 21.5416 29.3995 22.0364 26.2171C22.5721 22.7774 25.4391 20.0317 28.8973 19.6267C33.6973 19.0633 37.7703 22.7998 37.7703 27.4864C37.7703 30.1582 36.443 32.5159 34.415 33.9488C34.0509 34.2061 33.8121 34.6046 33.8121 35.0505V38.7013C33.8121 40.5234 32.3357 41.9998 30.5136 41.9998H29.1942C27.3721 41.9998 25.8956 40.5234 25.8956 38.7013V35.0558C25.8956 34.6059 25.6555 34.2048 25.29 33.9462Z" stroke="#5451D6" stroke-width="2" stroke-linecap="round" stroke-linejoin="round"/>
<path d="M40.4062 20.8904L41.9763 19.3203" stroke="#5451D6" stroke-width="2" stroke-linecap="round" stroke-linejoin="round"/>
<path d="M19.2967 34.0859L17.7266 35.656" stroke="#5451D6" stroke-width="2" stroke-linecap="round" stroke-linejoin="round"/>
<path d="M20.617 19.5701L19.0469 18" stroke="#5451D6" stroke-width="2" stroke-linecap="round" stroke-linejoin="round"/>
<path d="M40.4062 34.0859L41.9763 35.656" stroke="#5451D6" stroke-width="2" stroke-linecap="round" stroke-linejoin="round"/>
<path d="M41.7266 27.4878H43.9564" stroke="#5451D6" stroke-width="2" stroke-linecap="round" stroke-linejoin="round"/>
<path d="M15.75 27.4878H17.9798" stroke="#5451D6" stroke-width="2" stroke-linecap="round" stroke-linejoin="round"/>
<path d="M25.8984 38.0425H33.6434" stroke="#5451D6" stroke-width="2" stroke-linecap="round" stroke-linejoin="round"/>
</svg>
