<?xml version="1.0" encoding="UTF-8"?><!DOCTYPE svg PUBLIC "-//W3C//DTD SVG 1.1//EN" "http://www.w3.org/Graphics/SVG/1.1/DTD/svg11.dtd"><svg xmlns="http://www.w3.org/2000/svg" xmlns:xlink="http://www.w3.org/1999/xlink"><symbol id="account" viewBox="0 0 32 32">
<path d="M16.0008 29.7998C8.40078 29.7998 2.30078 23.5998 2.30078 15.9998C2.30078 8.3998 8.40078 2.2998 16.0008 2.2998C23.6008 2.2998 29.8008 8.4998 29.8008 16.0998C29.8008 23.5998 23.6008 29.7998 16.0008 29.7998ZM16.0008 3.7998C9.20078 3.7998 3.80078 9.1998 3.80078 15.9998C3.80078 22.7998 9.20078 28.2998 16.0008 28.2998C22.8008 28.2998 28.3008 22.7998 28.3008 15.9998C28.3008 9.1998 22.8008 3.7998 16.0008 3.7998Z"/>
<path d="M6.20033 24.7C6.00033 24.7 5.80033 24.6 5.70033 24.5C5.40033 24.2 5.40033 23.8 5.60033 23.4C8.20033 20.4 12.0003 18.7 15.9003 18.7C19.8003 18.7 23.6003 20.4 26.2003 23.4C26.5003 23.7 26.4003 24.2 26.1003 24.5C25.8003 24.8 25.3003 24.7 25.0003 24.4C22.7003 21.8 19.3003 20.3 15.8003 20.3C12.3003 20.3 8.90033 21.8 6.60033 24.5C6.60033 24.6 6.40033 24.7 6.20033 24.7ZM16.0003 16.7C13.5003 16.7 11.5003 14.6 11.5003 12.1C11.5003 9.6 13.5003 7.5 16.0003 7.5C18.5003 7.5 20.5003 9.6 20.5003 12.1C20.5003 14.6 18.5003 16.7 16.0003 16.7ZM16.0003 9.1C14.3003 9.1 13.0003 10.5 13.0003 12.2C13.0003 13.9 14.4003 15.3 16.0003 15.3C17.7003 15.3 19.0003 13.9 19.0003 12.2C19.0003 10.5 17.7003 9.1 16.0003 9.1Z"/>
</symbol><symbol id="check" viewBox="0 0 11 8">
<path d="M4.87267 7.5H3.68944L0 3.38643L1.18323 2.06717L4.28571 5.51593L9.32609 0L10.5 1.32964L4.87267 7.5Z"/>
</symbol><symbol id="close" viewBox="0 0 24 24">
	<polygon points="24,2.9 21.1,0 12,9.1 2.9,0 0,2.9 9.1,12 0,21.1 2.9,24 12,14.9 21.1,24 24,21.1 14.9,12 "/>
</symbol><symbol id="cross" viewBox="0 0 18 18">
<path d="M16.1871 0L9 7.18714L1.81286 0L0 1.81286L7.18714 9L0 16.1871L1.81286 18L9 10.8129L16.1871 18L18 16.1871L10.8129 9L18 1.81286L16.1871 0Z"/>
<path d="M16.1871 0L9 7.18714L1.81286 0L0 1.81286L7.18714 9L0 16.1871L1.81286 18L9 10.8129L16.1871 18L18 16.1871L10.8129 9L18 1.81286L16.1871 0Z"/>
</symbol><symbol id="download" viewBox="0 0 12 12">
    <path d="M12 8.11719V10.7048C12 11.0479 11.8736 11.377 11.6485 11.6196C11.4235 11.8623 11.1183 11.9986 10.8 11.9986H1.2C0.88174 11.9986 0.576516 11.8623 0.351472 11.6196C0.126428 11.377 0 11.0479 0 10.7048L0 8.11719H1.2V10.7048H10.8V8.11719H12Z"/>
    <path d="M6.526 6.33423L8.256 4.36442L9 5.21078L6 8.62534L3 5.21078L3.743 4.36442L5.474 6.33423V0H6.526V6.33423Z"/>
</symbol><symbol id="drop-bottom-black" viewBox="0 0 40 15.7">

<path d="M0,0l40,0L20,15.7L0,0z"/>
</symbol><symbol id="drop-bottom-gray" viewBox="0 0 40 15.7">

<path d="M0,0l40,0L20,15.7L0,0z"/>
</symbol><symbol id="drop-bottom-white" viewBox="0 0 40 15.7">
<path d="M0,0l40,0L20,15.7L0,0z"/>
</symbol><symbol id="drop-bottom" viewBox="0 0 40 15.7">

<path d="M0,0l40,0L20,15.7L0,0z"/>
</symbol><symbol id="drop-left" viewBox="0 0 16 40">

<path d="M16,0v40L0.3,20L16,0z"/>
</symbol><symbol id="drop-right-white" viewBox="0 0 16 40">
    <path d="M15.9998 20L0.347656 40V0L15.9998 20Z"/>
</symbol><symbol id="drop-right" viewBox="0 0 16 40">
    <path d="M15.9998 20L0.347656 40V0L15.9998 20Z"/>
</symbol><symbol id="drop-top-white" viewBox="0 0 40 15.7">
<path d="M20,0l20,15.7H0L20,0z"/>
</symbol><symbol id="drop-top" viewBox="0 0 40 15.7">

<path d="M20,0l20,15.7H0L20,0z"/>
</symbol><symbol id="filter" viewBox="0 0 16 12">
<path d="M4.8 12C3.34021 12.0007 2.06495 11.0751 1.7 9.75007H0V8.25012H1.7008C2.11651 6.74075 3.69609 5.78138 5.33543 6.04261C6.97476 6.30383 8.1275 7.69859 7.98789 9.25196C7.84828 10.8053 6.46285 11.9996 4.8 12ZM4.8 7.50014C3.92592 7.50097 3.21431 8.15925 3.20179 8.9786C3.18926 9.79794 3.88045 10.4751 4.75415 10.4994C5.62785 10.5237 6.36067 9.88619 6.4 9.06759V9.36758V9.00009C6.4 8.17169 5.68366 7.50014 4.8 7.50014ZM16 9.75007H8.8V8.25012H16V9.75007ZM8.8 6.00019C7.3405 6.00053 6.06567 5.07504 5.7008 3.75025H0V2.2503H5.7008C6.11651 0.740931 7.69609 -0.218436 9.33543 0.0427902C10.9748 0.304017 12.1275 1.69878 11.9879 3.25214C11.8483 4.80551 10.4628 5.99979 8.8 6.00019ZM8.8 1.50032C7.92592 1.50115 7.21431 2.15944 7.20179 2.97878C7.18926 3.79813 7.88045 4.47526 8.75415 4.49957C9.62785 4.52388 10.3607 3.88637 10.4 3.06778V3.36777V3.00028C10.4 2.17188 9.68366 1.50032 8.8 1.50032ZM16 3.75025H12.8V2.2503H16V3.75025Z"/>
</symbol><symbol id="mail" viewBox="0 0 20 16">
<path fill-rule="evenodd" clip-rule="evenodd" d="M18 0H2C0.9 0 0 0.9 0 2V14C0 15.1 0.9 16 2 16H18C19.1 16 20 15.1 20 14V2C20 0.9 19.1 0 18 0ZM17.6 4.25L11.06 8.34C10.41 8.75 9.59 8.75 8.94 8.34L2.4 4.25C2.15 4.09 2 3.82 2 3.53C2 2.86 2.73 2.46 3.3 2.81L10 7L16.7 2.81C17.27 2.46 18 2.86 18 3.53C18 3.82 17.85 4.09 17.6 4.25Z"/>
</symbol><symbol id="search" viewBox="0 0 20 20">
<g>
	<path d="M8.1,16.2c-4.3,0-7.9-3.5-7.9-7.9c0-4.3,3.5-7.9,7.9-7.9C12.4,0.5,16,4,16,8.4C16,12.7,12.4,16.2,8.1,16.2z M8.1,2
		C4.6,2,1.7,4.8,1.7,8.4c0,3.5,2.9,6.4,6.4,6.4c3.5,0,6.4-2.9,6.4-6.4C14.5,4.8,11.6,2,8.1,2z"/>
</g>
<g>
	<path d="M19,19.5c-0.2,0-0.4-0.1-0.5-0.2L13.2,14c-0.3-0.3-0.3-0.8,0-1.1s0.8-0.3,1.1,0l5.2,5.2c0.3,0.3,0.3,0.8,0,1.1
		C19.4,19.4,19.2,19.5,19,19.5z"/>
</g>
</symbol><symbol id="subscribe" viewBox="0 0 22 23">

<g>
	<path d="M17.8,22.1l-5.5-10.4L0.2,8.6L21.6,1L17.8,22.1z M7,8.3l6.7,1.7l3.2,6L19,4L7,8.3z"/>
</g>
</symbol><symbol id="trash" viewBox="0 0 18 20"><path d="M14,20H4a2,2,0,0,1-2-2V5H0V3H4V2A2,2,0,0,1,6,0h6a2,2,0,0,1,2,2V3h4V5H16V18A2,2,0,0,1,14,20ZM4,5V18H14V5ZM6,2V3h6V2Zm6,14H10V7h2ZM8,16H6V7H8Z"/></symbol></svg>