<svg width="24" height="24" viewBox="0 0 24 24" fill="none" xmlns="http://www.w3.org/2000/svg">
<g id="Frame" clip-path="url(#clip0_24328_75364)">
<g id="Clip path group">
<mask id="mask0_24328_75364" style="mask-type:luminance" maskUnits="userSpaceOnUse" x="0" y="0" width="24" height="24">
<g id="clip0">
<path id="Vector" d="M24.0001 0H0V24H24.0001V0Z" fill="white"/>
</g>
</mask>
<g mask="url(#mask0_24328_75364)">
<g id="Group">
<path id="Vector_2" fill-rule="evenodd" clip-rule="evenodd" d="M6.47629 5.35383C6.55357 5.24639 6.63941 5.11486 6.74886 4.93751C6.78885 4.87271 6.8979 4.69278 6.9791 4.55883L7.07056 4.40811C7.97484 2.92892 8.63218 2.25 9.81748 2.25H15.2716V4.43166H9.81748C9.72288 4.43166 9.42533 4.73898 8.93194 5.54604L8.85263 5.67676C8.77076 5.81185 8.65139 6.0088 8.60543 6.08328C8.47131 6.30061 8.35986 6.47139 8.24736 6.62779C7.7584 7.30754 7.26968 7.70416 6.54499 7.70416H3.27249C2.67005 7.70416 2.18166 8.19254 2.18166 8.79499V18.6125C2.18166 19.2149 2.67005 19.7033 3.27249 19.7033H20.7258C21.3283 19.7033 21.8166 19.2149 21.8166 18.6125V12.0675H23.9983V18.6125C23.9983 20.4198 22.5331 21.885 20.7258 21.885H3.27249C1.46515 21.885 0 20.4198 0 18.6125V8.79499C0 6.98764 1.46515 5.52249 3.27249 5.52249H6.34449C6.38081 5.48098 6.42532 5.42468 6.47629 5.35383ZM17.4551 7.70471V5.52305H19.6337V3.34153H21.8154V5.52305H24.0001V7.70471H21.8154V9.88652H19.6337V7.70471H17.4551ZM11.9977 18.6125C8.98542 18.6125 6.54351 16.1706 6.54351 13.1584C6.54351 10.1461 8.98542 7.70422 11.9977 7.70422C15.0099 7.70422 17.4518 10.1461 17.4518 13.1584C17.4518 16.1706 15.0099 18.6125 11.9977 18.6125ZM11.9981 16.4313C13.8055 16.4313 15.2706 14.9662 15.2706 13.1588C15.2706 11.3515 13.8055 9.88633 11.9981 9.88633C10.1908 9.88633 8.72563 11.3515 8.72563 13.1588C8.72563 14.9662 10.1908 16.4313 11.9981 16.4313Z" fill="#333333"/>
</g>
</g>
</g>
</g>
<defs>
<clipPath id="clip0_24328_75364">
<rect width="24" height="24" fill="white"/>
</clipPath>
</defs>
</svg>
