<svg width="17" height="20" viewBox="0 0 17 20" fill="none" xmlns="http://www.w3.org/2000/svg">
<path fill-rule="evenodd" clip-rule="evenodd" d="M16.5 0H0.5V3V18.1123C0.5 18.5963 0.68596 19.0618 1.01946 19.4126C1.73761 20.168 2.93219 20.1982 3.68761 19.4801L4.05049 19.1351C4.05808 19.1279 4.06592 19.1209 4.07399 19.1142C4.2714 18.9505 4.56417 18.9778 4.72791 19.1752C4.82769 19.2955 4.93961 19.4052 5.06189 19.5026C6.0442 20.2845 7.4744 20.1221 8.2563 19.1397L8.2822 19.1073C8.2953 19.0909 8.3102 19.076 8.3266 19.0629C8.4465 18.9677 8.6208 18.9877 8.716 19.1075L8.7385 19.1359C8.8354 19.2578 8.9445 19.3694 9.0641 19.4691C10.0304 20.274 11.4662 20.1431 12.271 19.1768C12.2777 19.1689 12.2846 19.1611 12.2917 19.1536C12.4703 18.966 12.7671 18.9588 12.9547 19.1373L13.3141 19.4796C13.6647 19.8134 14.1303 19.9996 14.6144 19.9996C15.6558 19.9996 16.5 19.1553 16.5 18.1139V3V0ZM14.5 2V3V17.8471L14.3338 17.6889C13.3463 16.7486 11.7835 16.787 10.8432 17.7745C10.8056 17.814 10.7692 17.8548 10.7343 17.8968C10.6364 18.0144 10.4617 18.0303 10.3441 17.9324C10.3296 17.9202 10.3163 17.9067 10.3045 17.8918L10.282 17.8635C9.4997 16.8788 8.0673 16.7146 7.0825 17.4969C6.9474 17.6043 6.8249 17.7267 6.7174 17.8617L6.6916 17.8942C6.5976 18.0123 6.42559 18.0318 6.30748 17.9378C6.29278 17.9261 6.27932 17.9129 6.26732 17.8984C5.39843 16.8508 3.84481 16.7059 2.7972 17.5748C2.75439 17.6103 2.71279 17.6473 2.67248 17.6856L2.5 17.8496V3V2H14.5ZM5.5 7C4.94772 7 4.5 6.55228 4.5 6C4.5 5.44772 4.94772 5 5.5 5H11.5C12.0523 5 12.5 5.44772 12.5 6C12.5 6.55228 12.0523 7 11.5 7H5.5ZM4.5 10C4.5 10.5523 4.94772 11 5.5 11H11.5C12.0523 11 12.5 10.5523 12.5 10C12.5 9.4477 12.0523 9 11.5 9H5.5C4.94772 9 4.5 9.4477 4.5 10Z" fill="#CFD4E4"/>
</svg>
