<svg width="21" height="16" viewBox="0 0 21 16" fill="none" xmlns="http://www.w3.org/2000/svg">
<path fill-rule="evenodd" clip-rule="evenodd" d="M14.25 0.5C12.4446 0.5 10.9263 1.79406 10.5762 3.5H0.75C0.33579 3.5 0 3.83579 0 4.25C0 4.66421 0.33579 5 0.75 5H10.5762C10.9263 6.70594 12.4446 8 14.25 8C16.0554 8 17.5737 6.70594 17.9238 5H20.25C20.6642 5 21 4.66421 21 4.25C21 3.83579 20.6642 3.5 20.25 3.5H17.9238C17.5737 1.79406 16.0554 0.5 14.25 0.5ZM14.25 2C15.5015 2 16.5 2.9985 16.5 4.25C16.5 5.5015 15.5015 6.5 14.25 6.5C12.9985 6.5 12 5.5015 12 4.25C12 2.9985 12.9985 2 14.25 2Z" fill="black"/>
<path fill-rule="evenodd" clip-rule="evenodd" d="M6.75 8C4.94461 8 3.42634 9.29406 3.07617 11H0.75C0.33579 11 0 11.3358 0 11.75C0 12.1642 0.33579 12.5 0.75 12.5H3.07617C3.42634 14.2059 4.94461 15.5 6.75 15.5C8.55539 15.5 10.0737 14.2059 10.4238 12.5H20.25C20.6642 12.5 21 12.1642 21 11.75C21 11.3358 20.6642 11 20.25 11H10.4238C10.0737 9.29406 8.55539 8 6.75 8ZM6.75 9.5C8.0015 9.5 9 10.4985 9 11.75C9 13.0015 8.0015 14 6.75 14C5.4985 14 4.5 13.0015 4.5 11.75C4.5 10.4985 5.4985 9.5 6.75 9.5Z" fill="black"/>
</svg>
