<svg width="16" height="16" viewBox="0 0 16 16" fill="none" xmlns="http://www.w3.org/2000/svg">
<g clip-path="url(#clip0_23604_88551)">
<path d="M7.97344 14.6414H1.99334C1.62656 14.6414 1.32891 14.3437 1.32891 13.977V2.01681C1.32891 1.65003 1.62659 1.35238 1.99334 1.35238H7.97344C8.34087 1.35238 8.63787 1.05537 8.63787 0.687937C8.63787 0.3205 8.34087 0.0234375 7.97344 0.0234375H1.99334C0.894344 0.0234375 0 0.917813 0 2.01681V13.9769C0 15.0759 0.894344 15.9703 1.99334 15.9703H7.97344C8.34087 15.9703 8.63787 15.6733 8.63787 15.3058C8.63787 14.9384 8.34087 14.6414 7.97344 14.6414Z" fill="#666666"/>
<path d="M15.802 7.52957L11.7622 3.54285C11.5017 3.28504 11.0805 3.28839 10.8226 3.54951C10.5648 3.81064 10.5675 4.23123 10.8293 4.48904L13.7163 7.3382H5.98011C5.61267 7.3382 5.31567 7.6352 5.31567 8.00263C5.31567 8.37007 5.61267 8.6671 5.98011 8.6671H13.7163L10.8293 11.5163C10.5675 11.7741 10.5655 12.1947 10.8226 12.4558C10.9529 12.5874 11.1243 12.6538 11.2957 12.6538C11.4645 12.6538 11.6333 12.59 11.7622 12.4624L15.802 8.4757C15.9283 8.35079 16 8.18067 16 8.0026C16 7.8246 15.929 7.65517 15.802 7.52957Z" fill="#666666"/>
</g>
<defs>
<clipPath id="clip0_23604_88551">
<rect width="16" height="16" fill="white"/>
</clipPath>
</defs>
</svg>
