<svg width="23" height="19" viewBox="0 0 23 19" fill="none" xmlns="http://www.w3.org/2000/svg">
<path fill-rule="evenodd" clip-rule="evenodd" d="M-0.000244141 3C-0.000244141 1.34315 1.3429 0 2.99976 0H18.9998C20.6566 0 21.9998 1.34315 21.9998 3V4V7H19.9998H1.99976V13C1.99976 13.5523 2.44747 14 2.99976 14H9.9998C10.552 14 10.9998 14.4477 10.9998 15C10.9998 15.5523 10.552 16 9.9998 16H2.99976C1.3429 16 -0.000244141 14.6569 -0.000244141 13V3ZM1.99976 4H19.9998V3C19.9998 2.44772 19.552 2 18.9998 2H2.99976C2.44747 2 1.99976 2.44772 1.99976 3V4ZM12.9998 14C12.9998 13.4477 13.4475 13 13.9998 13H16.9998V10C16.9998 9.4477 17.4475 9 17.9998 9C18.552 9 18.9998 9.4477 18.9998 10V13H21.9998C22.552 13 22.9998 13.4477 22.9998 14C22.9998 14.5523 22.552 15 21.9998 15H18.9998V18C18.9998 18.5523 18.552 19 17.9998 19C17.4475 19 16.9998 18.5523 16.9998 18V15H13.9998C13.4475 15 12.9998 14.5523 12.9998 14Z" fill="#CCD2E3"/>
</svg>
