<svg width="22" height="18" viewBox="0 0 22 18" fill="none" xmlns="http://www.w3.org/2000/svg">
<path fill-rule="evenodd" clip-rule="evenodd" d="M19.8328 12.388C19.3679 12.1771 17.0679 11.1504 16.6397 11.0116C16.2115 10.8673 15.8996 10.8008 15.5876 11.2225C15.2756 11.6499 14.3825 12.6044 14.1073 12.8874C13.8381 13.1649 13.5629 13.2038 13.098 12.9929C12.6269 12.782 11.1222 12.3325 9.33599 10.884C7.94742 9.76296 7.0054 8.36999 6.73625 7.94821C6.46098 7.52088 6.70566 7.29335 6.93811 7.08246C7.15221 6.89377 7.40912 6.58854 7.64157 6.3388C7.87402 6.09461 7.95354 5.91702 8.11258 5.63399C8.2655 5.35096 8.18598 5.10122 8.06976 4.89033C7.95354 4.67944 7.01763 2.58721 6.62614 1.73811C6.24689 0.911204 5.86151 1.02775 5.57401 1.0111C5.30486 0.999999 4.99289 1 4.68093 1C4.36896 1 3.86124 1.10544 3.43305 1.53277C3.00486 1.95455 1.7998 2.98124 1.7998 5.06792C1.7998 7.1546 3.47587 9.17469 3.70832 9.45773C3.94076 9.73521 7.0054 14.0196 11.6972 15.8565C12.8105 16.2949 13.6791 16.5558 14.3581 16.75C15.4775 17.0719 16.499 17.0275 17.3065 16.9221C18.2057 16.8 20.0714 15.8954 20.4629 14.902C20.8482 13.9141 20.8482 13.065 20.732 12.8874C20.6158 12.7098 20.3038 12.6044 19.8328 12.388Z" stroke-width="2"/>
</svg>
