<svg width="14" height="14" viewBox="0 0 14 14" fill="none" xmlns="http://www.w3.org/2000/svg">
<circle cx="7" cy="7" r="7" fill="#EEEEEE"/>
<path d="M6.17676 8.2207V7.91309C6.17676 7.6722 6.20443 7.46224 6.25977 7.2832C6.3151 7.10417 6.40788 6.93652 6.53809 6.78027C6.66829 6.62077 6.84408 6.45475 7.06543 6.28223C7.29329 6.10319 7.47396 5.94857 7.60742 5.81836C7.74414 5.68815 7.8418 5.55794 7.90039 5.42773C7.96224 5.29427 7.99316 5.13965 7.99316 4.96387C7.99316 4.68717 7.89876 4.47721 7.70996 4.33398C7.52441 4.1875 7.26237 4.11426 6.92383 4.11426C6.62435 4.11426 6.34277 4.15658 6.0791 4.24121C5.81543 4.32585 5.55501 4.43164 5.29785 4.55859L4.89258 3.69922C5.1888 3.53646 5.50944 3.40625 5.85449 3.30859C6.2028 3.20768 6.58529 3.15723 7.00195 3.15723C7.66602 3.15723 8.17871 3.31836 8.54004 3.64062C8.90462 3.96289 9.08691 4.3877 9.08691 4.91504C9.08691 5.20475 9.04134 5.45378 8.9502 5.66211C8.85905 5.86719 8.72396 6.05762 8.54492 6.2334C8.36914 6.40592 8.15592 6.58822 7.90527 6.78027C7.7002 6.94303 7.54232 7.08464 7.43164 7.20508C7.32422 7.32227 7.24935 7.44108 7.20703 7.56152C7.16797 7.68197 7.14844 7.82682 7.14844 7.99609V8.2207H6.17676ZM5.99121 9.79297C5.99121 9.52604 6.05957 9.33887 6.19629 9.23145C6.33626 9.12077 6.50716 9.06543 6.70898 9.06543C6.9043 9.06543 7.07194 9.12077 7.21191 9.23145C7.35189 9.33887 7.42188 9.52604 7.42188 9.79297C7.42188 10.0534 7.35189 10.2422 7.21191 10.3594C7.07194 10.4733 6.9043 10.5303 6.70898 10.5303C6.50716 10.5303 6.33626 10.4733 6.19629 10.3594C6.05957 10.2422 5.99121 10.0534 5.99121 9.79297Z" fill="#100F0D"/>
</svg>
