<svg width="24" height="24" viewBox="0 0 24 24" fill="none" xmlns="http://www.w3.org/2000/svg">
<path d="M12.9995 2L10.9998 9.9981L5 4.00031L12.9995 2Z" fill="#100F0D"/>
<path d="M4.95985 8.15873C3.25185 9.65973 3.00785 12.3267 4.41185 14.1267C5.82585 15.9387 8.40185 16.2337 10.1678 14.7847L15.0478 10.7807C15.2667 10.6009 15.5195 10.467 15.7911 10.3869C16.0628 10.3068 16.3478 10.2822 16.6292 10.3144C16.9106 10.3467 17.1826 10.4353 17.4291 10.5748C17.6755 10.7144 17.8914 10.9021 18.0638 11.1267C18.8128 12.0867 18.6808 13.5267 17.7708 14.3267L16.7278 15.2427L17.9968 16.7607L19.0399 15.8447C20.7479 14.3427 20.9928 11.6787 19.5868 9.87673C18.1748 8.06673 15.5948 7.77073 13.8308 9.21873L8.95085 13.2227C8.73211 13.4028 8.47936 13.5369 8.20765 13.6172C7.93595 13.6975 7.65087 13.7222 7.36941 13.6899C7.08795 13.6576 6.81587 13.569 6.5694 13.4293C6.32294 13.2895 6.10713 13.1016 5.93485 12.8767C5.18785 11.9187 5.31885 10.4767 6.22785 9.67673L7 9.00156L5.83243 7.55078C5.83243 7.55078 5.5968 7.65645 5.49985 7.74173L4.95985 8.15873Z" fill="#100F0D"/>
<path d="M10 19C10 18.2044 10.3161 17.4413 10.8787 16.8787C11.4413 16.3161 12.2044 16 13 16C13.7956 16 14.5587 16.3161 15.1213 16.8787C15.6839 17.4413 16 18.2044 16 19C16 19.7956 15.6839 20.5587 15.1213 21.1213C14.5587 21.6839 13.7956 22 13 22C12.2044 22 11.4413 21.6839 10.8787 21.1213C10.3161 20.5587 10 19.7956 10 19Z" fill="#100F0D"/>
</svg>
