<svg width="16" height="16" viewBox="0 0 16 16" fill="none" xmlns="http://www.w3.org/2000/svg">
<path d="M8.9998 5.7C8.6998 5.6 8.4998 5.5 8.1998 5.5C7.5998 5.5 6.9998 5.5 6.3998 5.5C6.3998 5.5 6.3998 5.5 6.2998 5.5C6.2998 6.3 6.2998 7.2 6.2998 8C6.9998 8 7.4998 8 8.0998 8C8.3998 8 8.6998 7.9 8.9998 7.7C9.3998 7.5 9.5998 7.1 9.5998 6.7C9.5998 6.3 9.3998 5.9 8.9998 5.7Z" fill="#100F0D"/>
<path d="M15.9 1.2C15.8 0.5 15.4 0.2 14.7 0.1C14.5 2.23517e-08 14.4 0 14.2 0C10.1 0 5.9 0 1.8 0C1.6 0 1.4 2.23517e-08 1.2 0.1C0.5 0.3 0.2 0.6 0.1 1.3C2.23517e-08 1.5 0 1.6 0 1.8C0 5.9 0 10.1 0 14.2C0 14.4 2.23517e-08 14.6 0.1 14.8C0.2 15.5 0.6 15.8 1.3 15.9C1.5 16 1.6 16 1.8 16C5.9 16 10.1 16 14.2 16C14.4 16 14.6 15.9 14.8 15.9C15.5 15.7 15.8 15.4 15.9 14.7C16 14.5 16 14.4 16 14.2C16 10.1 16 5.9 16 1.8C16 1.6 16 1.4 15.9 1.2ZM12.3 12.7C11.5 12.7 10.7 12.7 9.9 12.7C9.8 12.7 9.7 12.7 9.7 12.6C9.2 11.8 8.6 11 8.1 10.1C8 10 8 10 7.8 10C7.3 10 6.8 10 6.3 10C6.2 10 6.2 10 6.1 10C6.1 10.9 6.1 11.8 6.1 12.7C5.3 12.7 4.5 12.7 3.8 12.7C3.8 9.6 3.8 6.5 3.8 3.4H3.9C5.4 3.4 6.8 3.4 8.3 3.4C9.2 3.4 10.1 3.7 10.8 4.3C11.5 4.9 11.8 5.6 11.9 6.5C11.9 7.8 11.4 8.8 10.3 9.5C11 10.6 11.8 11.7 12.5 12.7C12.4 12.7 12.4 12.7 12.3 12.7Z" fill="#100F0D"/>
</svg>
