<svg width="19" height="19" viewBox="0 0 19 19" fill="none" xmlns="http://www.w3.org/2000/svg">
<path fill-rule="evenodd" clip-rule="evenodd" d="M7.54173 3.65957e-07C6.35295 0.000357636 5.18108 0.281649 4.12166 0.820941C3.06224 1.36023 2.14527 2.14226 1.4455 3.10326C0.745724 4.06426 0.282966 5.17704 0.0949509 6.35086C-0.0930645 7.52468 -0.00101539 8.72632 0.363594 9.8578C0.728203 10.9893 1.35505 12.0186 2.19303 12.8618C3.03101 13.705 4.0564 14.3382 5.1856 14.7099C6.31479 15.0815 7.51584 15.181 8.6908 15.0003C9.86577 14.8196 10.9814 14.3638 11.9467 13.67L17.2777 19L18.9977 17.28L13.6677 11.95C14.4787 10.8229 14.9628 9.49386 15.0669 8.10924C15.1709 6.72462 14.8908 5.33815 14.2574 4.10253C13.6239 2.86691 12.6618 1.83007 11.4769 1.10621C10.292 0.382359 8.93025 -0.000432054 7.54173 3.65957e-07ZM2.43173 7.544C2.43173 6.18861 2.97016 4.88874 3.92856 3.93033C4.88697 2.97193 6.18684 2.4335 7.54223 2.4335C8.89762 2.4335 10.1975 2.97193 11.1559 3.93033C12.1143 4.88874 12.6527 6.18861 12.6527 7.544C12.6527 8.89939 12.1143 10.1993 11.1559 11.1577C10.1975 12.1161 8.89762 12.6545 7.54223 12.6545C6.18684 12.6545 4.88697 12.1161 3.92856 11.1577C2.97016 10.1993 2.43173 8.89939 2.43173 7.544Z" fill="#BCBCBC"/>
</svg>
