<svg width="16" height="14" viewBox="0 0 16 14" fill="none" xmlns="http://www.w3.org/2000/svg">
<path fill-rule="evenodd" clip-rule="evenodd" d="M8.4697 10.5266L11.4697 13.5266C11.7626 13.8195 12.2374 13.8195 12.5303 13.5266L15.5303 10.5266C15.8232 10.2337 15.8232 9.75894 15.5303 9.46604C15.2374 9.17314 14.7626 9.17314 14.4697 9.46604L12.75 11.1856V0.996338C12.75 0.582128 12.4142 0.246338 12 0.246338C11.5858 0.246338 11.25 0.582128 11.25 0.996338V11.1856L9.5303 9.46604C9.2374 9.17314 8.7626 9.17314 8.4697 9.46604C8.1768 9.75894 8.1768 10.2337 8.4697 10.5266ZM4.53033 0.466008C4.23744 0.173118 3.76256 0.173118 3.46967 0.466008L0.469668 3.46601C0.176777 3.7589 0.176777 4.23378 0.469668 4.52667C0.762558 4.81956 1.23744 4.81956 1.53033 4.52667L3.25 2.807V12.9963C3.25 13.4105 3.58579 13.7463 4 13.7463C4.41421 13.7463 4.75 13.4105 4.75 12.9963V2.807L6.4697 4.52667C6.7626 4.81956 7.2374 4.81956 7.5303 4.52667C7.8232 4.23378 7.8232 3.7589 7.5303 3.46601L4.53033 0.466008Z" fill="black"/>
</svg>
