<svg width="16" height="16" viewBox="0 0 16 16" fill="none" xmlns="http://www.w3.org/2000/svg">
<g clip-path="url(#clip0_23028_41045)">
<path fill-rule="evenodd" clip-rule="evenodd" d="M10.248 5.57474L16 6.09684L11.64 10.08L12.944 16L8 12.8589L3.056 16L4.368 10.08L0 6.09684L5.752 5.58316L8 0L10.248 5.57474ZM5.79174 9.59207L4.99174 13.1963L7.99974 11.2847L11.0157 13.2047L10.2157 9.60049L12.8717 7.17523L9.36774 6.85523L7.99974 3.45312L6.63974 6.84681L3.13574 7.16681L5.79174 9.59207Z" fill="#F35E19"/>
<mask id="mask0_23028_41045" style="mask-type:luminance" maskUnits="userSpaceOnUse" x="0" y="0" width="16" height="16">
<path d="M8 12.8589L12.944 16L11.632 10.08L16 6.09684L10.248 5.58316L8 0L5.752 5.58316L0 6.09684L4.368 10.08L3.056 16L8 12.8589Z" fill="white"/>
</mask>
<g mask="url(#mask0_23028_41045)">
<path d="M16 0H0V16H16V0Z" fill="#F35E19"/>
</g>
</g>
<defs>
<clipPath id="clip0_23028_41045">
<rect width="16" height="16" fill="white"/>
</clipPath>
</defs>
</svg>
