<svg width="20" height="17" viewBox="0 0 20 17" fill="none" xmlns="http://www.w3.org/2000/svg">
<path d="M18.6782 0.140061L0.752214 6.95806C-0.222786 7.24706 -0.197786 8.21406 0.527214 8.45206L5.01021 9.86006L6.73421 15.1601C6.94721 15.7371 7.10921 15.9631 7.47121 15.9631C7.84621 15.9631 7.98421 15.8251 8.38321 15.4861C8.83321 15.0591 9.53321 14.3811 10.6322 13.3011L15.3042 16.7671C16.1662 17.2441 16.7782 16.9931 17.0032 15.9641L19.9262 1.39506C20.2382 0.139061 19.5012 -0.236939 18.6762 0.139061L18.6782 0.140061ZM5.72321 9.54506L15.9302 3.10306C16.4302 2.76406 16.5922 3.14106 16.3682 3.40506L7.89821 11.0651L7.46121 14.8961L5.72421 9.54606L5.72321 9.54506Z" fill="#100F0D"/>
</svg>
