<svg width="19" height="15" viewBox="0 0 19 15" fill="none" xmlns="http://www.w3.org/2000/svg">
<path d="M16.0855 0.857296L16.0376 0.841796L15.9901 0.858293L15.679 0.966248L15.6788 0.96634L15.7282 1.10795C15.6788 0.96634 15.6787 0.966354 15.6786 0.966384L15.6783 0.966516L15.6768 0.967044L15.6707 0.969142L15.647 0.977446L15.5538 1.00997L15.1973 1.13452L13.8989 1.58839C12.8095 1.96932 11.3214 2.49005 9.72611 3.04927C6.53587 4.16763 2.91645 5.44021 1.20228 6.05628L1.20219 6.05632L0.681593 6.24382L0.582422 6.27954V6.38494V8.02415V8.14776L0.70375 8.17138L6.54182 9.30827V13.2798V13.4306L6.69257 13.4298L7.54415 13.4256L7.59365 13.4253L7.63328 13.3957L10.0511 11.586L12.8552 14.1115L12.898 14.15H12.9556H15.0446H15.1657L15.1912 14.0316L17.879 1.57995L17.9077 1.44737L17.7786 1.40559L16.0855 0.857296ZM2.89976 7.08747C6.02328 5.98067 11.6993 4.02287 14.4977 3.05766C15.0896 2.85347 15.5528 2.69371 15.8358 2.59581L13.6485 12.6454L10.1528 9.88512L10.0717 9.82105L9.98295 9.87407L7.98895 11.0654L8.52619 9.26944L13.8422 4.66164L13.9733 4.54801L13.8419 4.4347L13.6723 4.2884L13.5971 4.22357L13.5081 4.26741L13.5743 4.40199L13.508 4.26744L13.5078 4.26754L13.5071 4.2679L13.5041 4.26935L13.4924 4.27511L13.4465 4.2977L13.2703 4.38446L12.6238 4.70264C12.0788 4.97083 11.3282 5.34014 10.5057 5.74467C8.88615 6.54111 6.98781 7.47396 5.83053 8.04028L2.89976 7.08747Z" fill="#8D8D8D" stroke-width="0.3"/>
</svg>
