<svg width="23" height="18" viewBox="0 0 23 18" fill="none" xmlns="http://www.w3.org/2000/svg">
<path d="M22.8563 4.19565C22.8563 4.19565 22.7125 2.56957 21.85 1.83043C20.9875 0.795652 19.9813 0.647826 19.55 0.647826C16.2438 0.5 11.5 0.5 11.5 0.5C11.5 0.5 6.75625 0.5 3.45 0.647826C3.01875 0.647826 2.0125 0.647826 1.15 1.68261C0.43125 2.42174 0.14375 4.19565 0.14375 4.19565C0.14375 4.19565 0 6.26522 0 8.03913V8.33478V9.96087C0 12.0304 0.14375 13.9522 0.14375 13.9522C0.14375 13.9522 0.2875 15.5783 1.15 16.4652C2.0125 17.5 3.1625 17.5 3.59375 17.5C5.60625 17.5 11.5 17.5 11.5 17.5C11.5 17.5 16.2438 17.5 19.55 17.2043C19.9813 17.2043 20.9875 17.2043 21.85 16.1696C22.5688 15.4304 22.8563 13.6565 22.8563 13.6565C22.8563 13.6565 23 11.8826 23 9.96087V8.48261V8.03913C23 6.26522 22.8563 4.19565 22.8563 4.19565ZM15.2375 8.77826L9.05625 12.1783V6.85652V5.23043L11.7875 6.7087L15.2375 8.77826Z" fill="#100F0D"/>
</svg>
