<svg width="21" height="12" viewBox="0 0 21 12" fill="none" xmlns="http://www.w3.org/2000/svg">
<path d="M11.5807 11.995C11.5807 11.995 12.0007 11.995 12.1687 11.738C12.3367 11.566 12.3367 11.224 12.3367 11.224C12.3367 11.224 12.3367 9.51 13.0927 9.253C13.8487 8.996 14.8567 10.881 15.8647 11.566C16.6207 12.08 17.2927 11.995 17.2927 11.995H20.0637C20.0637 11.995 21.4917 11.909 20.8197 10.709C20.7357 10.624 20.3997 9.853 18.7197 8.311C16.9567 6.683 17.2087 6.94 19.3077 4.112C20.5677 2.399 21.0717 1.371 20.9877 0.857C20.8197 0.428 19.8957 0.514 19.8957 0.514H16.7047C16.7047 0.514 16.4527 0.514 16.2847 0.6C16.1167 0.685 16.0327 0.942 16.0327 0.942C16.0327 0.942 15.5287 2.313 14.8567 3.427C13.4287 5.826 12.9247 5.912 12.6727 5.826C12.1687 5.483 12.2527 4.456 12.2527 3.684C12.2527 1.371 12.5887 0.428 11.5807 0.171C11.2447 0.086 10.9927 0 10.0697 0C8.97767 0 7.96967 -2.98023e-08 7.46567 0.257C7.12967 0.428 6.79367 0.857 6.96167 0.857C7.12967 0.857 7.63367 0.942 7.88567 1.285C8.22167 1.714 8.22167 2.742 8.22167 2.742C8.22167 2.742 8.38967 5.483 7.80167 5.826C7.38167 6.083 6.79367 5.569 5.53367 3.427C4.86167 2.313 4.44167 1.114 4.44167 1.114C4.44167 1.114 4.35767 0.857 4.18967 0.771C4.02167 0.6 3.68567 0.6 3.68567 0.6H0.662667C0.662667 0.6 0.242667 0.6 0.0746667 0.771C-0.0933333 0.942 0.0746667 1.285 0.0746667 1.285C0.0746667 1.285 2.42567 6.768 5.11467 9.595C7.54967 12.166 10.3217 11.995 10.3217 11.995H11.5807Z" fill="#100F0D"/>
</svg>
