<svg width="30" height="30" viewBox="0 0 30 30" fill="none" xmlns="http://www.w3.org/2000/svg">
<path fill-rule="evenodd" clip-rule="evenodd" d="M21.0236 8.47067C19.4243 6.87865 17.2993 6 15.036 6C10.3709 6 6.57194 9.779 6.57194 14.4229C6.56917 15.9075 6.95931 17.3563 7.70085 18.6343L6.5 23L10.988 21.8266C12.222 22.4987 13.6165 22.8513 15.0332 22.854H15.036C19.701 22.854 23.4972 19.075 23.5 14.4284C23.5 12.1781 22.6201 10.0627 21.0236 8.47067ZM15.036 21.43H15.0332C13.7715 21.43 12.5319 21.0912 11.4528 20.455L11.1955 20.3035L8.53092 20.9976L9.24202 18.414L9.07601 18.1495C8.37044 17.034 7.99967 15.745 7.99967 14.4229C7.99967 10.564 11.1567 7.42401 15.0387 7.42401C16.9175 7.42401 18.6828 8.15392 20.0109 9.47602C21.339 10.8009 22.0695 12.5582 22.0695 14.4284C22.0695 18.29 18.9124 21.43 15.036 21.43ZM18.8931 16.1857C18.6828 16.081 17.6424 15.5715 17.4487 15.5026C17.255 15.431 17.1139 15.3979 16.9728 15.6073C16.8317 15.8193 16.4277 16.2931 16.3032 16.4336C16.1815 16.5713 16.057 16.5906 15.8467 16.4859C15.6336 16.3812 14.953 16.1581 14.145 15.4392C13.5169 14.8829 13.0908 14.1915 12.9691 13.9822C12.8446 13.7701 12.9552 13.6572 13.0604 13.5525C13.1572 13.4588 13.2734 13.3074 13.3786 13.1834C13.4837 13.0622 13.5197 12.9741 13.5916 12.8336C13.6608 12.6931 13.6248 12.5692 13.5723 12.4645C13.5197 12.3599 13.0964 11.3215 12.9193 10.9C12.7477 10.4896 12.5734 10.5475 12.4434 10.5392C12.3216 10.5337 12.1805 10.5337 12.0394 10.5337C11.8983 10.5337 11.6686 10.586 11.4749 10.7981C11.2812 11.0075 10.7362 11.517 10.7362 12.5527C10.7362 13.5883 11.4943 14.5909 11.5994 14.7314C11.7046 14.8691 13.0908 16.9955 15.2131 17.9072C15.7166 18.1248 16.1095 18.2542 16.4167 18.3506C16.923 18.5104 17.3851 18.4883 17.7503 18.436C18.1571 18.3754 19.001 17.9264 19.1781 17.4334C19.3524 16.9431 19.3524 16.5217 19.2998 16.4336C19.2472 16.3454 19.1061 16.2931 18.8931 16.1857Z" fill="white"/>
</svg>
