<svg width="18" height="19" viewBox="0 0 18 19" fill="none" xmlns="http://www.w3.org/2000/svg">
<path d="M0.588933 9.42274C0.58618 10.9127 0.972254 12.3674 1.70661 13.6549L0.522364 17.9602L0.453415 18.2109L0.704934 18.1451L5.13569 16.9867C6.37898 17.6525 7.7787 18.0013 9.1999 18.004H9.2002H9.20296C13.9502 18.004 17.8142 14.1585 17.817 9.42848V9.42839C17.817 7.13808 16.9212 4.98454 15.2965 3.36446L15.2964 3.36437C13.669 1.74435 11.506 0.85 9.20296 0.85C4.45584 0.85 0.589009 4.69538 0.588933 9.42274ZM0.588933 9.42274C0.588933 9.42269 0.588933 9.42265 0.588933 9.4226L0.738933 9.42288H0.588933C0.588933 9.42283 0.588933 9.42279 0.588933 9.42274ZM0.666992 18L0.712943 17.8329L0.62905 17.8549L0.666992 18ZM0.666992 18L0.811621 18.0398L0.834618 17.9562L0.666992 18ZM13.1269 11.0514L13.1276 11.0517C13.1655 11.0709 13.204 11.0896 13.241 11.1075C13.2987 11.1355 13.3528 11.1618 13.3957 11.1853C13.4669 11.2243 13.5472 11.2755 13.5956 11.3567L13.4668 11.4336L13.5956 11.3567C13.6281 11.4111 13.6392 11.485 13.644 11.5463C13.6495 11.6158 13.6486 11.7005 13.6405 11.7955C13.6242 11.9857 13.5779 12.2262 13.4864 12.4837L13.4862 12.4841C13.3802 12.7792 13.0889 13.0374 12.7981 13.2233C12.5036 13.4114 12.1708 13.5499 11.9394 13.5844L11.9386 13.5845C11.5615 13.6385 11.0745 13.6628 10.5385 13.4937C10.2289 13.3965 9.83065 13.2653 9.32055 13.0449C7.29937 12.1764 5.93571 10.2328 5.68405 9.87414C5.66599 9.8484 5.65365 9.83083 5.64721 9.82239L5.64635 9.82126L5.64635 9.82125L5.6432 9.81704C5.58423 9.73831 5.36652 9.44764 5.16173 9.04582C4.95418 8.63861 4.75316 8.10439 4.75316 7.55266C4.75316 6.5202 5.26902 5.97451 5.49276 5.73784C5.50704 5.72274 5.52013 5.70889 5.53183 5.69625L5.64193 5.79812L5.53117 5.69697C5.75833 5.44822 6.03127 5.3837 6.20638 5.3837H6.20865C6.34812 5.3837 6.492 5.3837 6.61713 5.38936L6.61986 5.38949L6.61986 5.38951C6.63054 5.39019 6.64258 5.39024 6.66119 5.39025H6.66215C6.67907 5.39026 6.70096 5.39028 6.72409 5.39161C6.77279 5.39442 6.83252 5.40323 6.8961 5.43285C7.02577 5.49328 7.13213 5.62088 7.2246 5.84205C7.28946 5.99639 7.38721 6.23317 7.48754 6.47617C7.52454 6.56579 7.56189 6.65625 7.59807 6.74374C7.73459 7.07388 7.85027 7.35134 7.8733 7.39719C7.935 7.52004 7.99259 7.69802 7.89319 7.89987L7.89215 7.90199L7.89214 7.90198C7.88183 7.9221 7.87206 7.94165 7.86247 7.96083C7.80873 8.0683 7.7609 8.16396 7.65944 8.28106M13.1269 11.0514L7.22738 8.5525L7.33165 8.66033C7.33193 8.66006 7.3322 8.65979 7.33248 8.65952C7.40756 8.58675 7.49511 8.48015 7.57427 8.38376C7.60424 8.34727 7.633 8.31224 7.65944 8.28106M13.1269 11.0514C13.0211 10.9987 12.7078 10.8448 12.3966 10.6955C12.0913 10.549 11.7742 10.3999 11.6669 10.3616L13.1269 11.0514ZM7.65944 8.28106C7.65925 8.28128 7.65906 8.28149 7.65888 8.28171L7.54557 8.18341L7.65996 8.28044C7.65979 8.28065 7.65961 8.28085 7.65944 8.28106ZM5.69598 15.3257L5.69589 15.3257L5.43857 15.1742L5.38491 15.1426L5.32466 15.1583L2.91147 15.7869L3.55364 13.4538L3.57116 13.3901L3.53605 13.3342L3.37004 13.0698L3.36977 13.0694C2.6795 11.978 2.31667 10.7168 2.31667 9.42288C2.31667 5.64764 5.40578 2.57401 9.20573 2.57401C11.0448 2.57401 12.772 3.28817 14.072 4.58222C15.372 5.87903 16.0865 7.59815 16.0865 9.42839C16.0865 13.2065 12.9973 16.28 9.20296 16.28H9.2002C7.96522 16.28 6.75195 15.9484 5.69598 15.3257Z" fill="#8D8D8D" stroke-width="0.3"/>
</svg>
