<svg width="20" height="14" viewBox="0 0 20 14" fill="none" xmlns="http://www.w3.org/2000/svg">
<path d="M19.875 3.04348C19.875 3.04348 19.75 1.70435 19 1.09565C18.25 0.243478 17.375 0.121739 17 0.121739C14.125 -1.17914e-07 10 0 10 0C10 0 5.875 -1.17914e-07 3 0.121739C2.625 0.121739 1.75 0.121739 1 0.973913C0.375 1.58261 0.125 3.04348 0.125 3.04348C0.125 3.04348 0 4.74783 0 6.2087V6.45217V7.7913C0 9.49565 0.125 11.0783 0.125 11.0783C0.125 11.0783 0.25 12.4174 1 13.1478C1.75 14 2.75 14 3.125 14C4.875 14 10 14 10 14C10 14 14.125 14 17 13.7565C17.375 13.7565 18.25 13.7565 19 12.9043C19.625 12.2957 19.875 10.8348 19.875 10.8348C19.875 10.8348 20 9.37391 20 7.7913V6.57391V6.2087C20 4.74783 19.875 3.04348 19.875 3.04348ZM13.25 6.81739L7.875 9.61739V5.23478V3.89565L10.25 5.11304L13.25 6.81739Z" fill="#100F0D"/>
</svg>
