<svg width="872" height="507" viewBox="0 0 872 507" fill="none" xmlns="http://www.w3.org/2000/svg">
    <path d="M760.999 480.506C760.947 480.105 760.735 479.736 760.418 479.491M641.611 221.496V220.315M641.611 243.144V241.968M641.611 265.028V263.851M641.611 286.68V285.504M620.651 285.504V286.68M620.651 263.851V265.028M620.651 241.968V243.144M620.651 220.315V221.496M629.715 220.315C629.559 220.693 629.559 221.118 629.715 221.492M632.542 221.496C632.698 221.118 632.698 220.693 632.542 220.32M629.715 285.499C629.559 285.877 629.559 286.302 629.715 286.68M632.542 286.68C632.698 286.302 632.698 285.877 632.542 285.504M546.469 221.496V220.315M546.469 243.144V241.968M546.469 265.028V263.851M546.469 286.68V285.504M525.504 285.504V286.68M525.504 263.851V265.028M525.504 241.968V243.144M525.504 220.315V221.496M534.573 220.315C534.412 220.693 534.412 221.118 534.568 221.492M537.396 221.496C537.552 221.118 537.552 220.693 537.396 220.32M534.573 285.499C534.412 285.877 534.412 286.302 534.568 286.68M537.396 286.68C537.552 286.302 537.552 285.877 537.396 285.504M498.662 303.622H500.076M476.993 303.622H478.17M455.328 303.622H456.505M433.427 303.622H434.604M434.604 282.447H433.427M456.505 282.447H455.328M478.17 282.447H476.993M500.076 282.447H498.662M499.84 291.508C499.461 291.348 499.036 291.348 498.662 291.508M498.662 294.324C499.036 294.485 499.461 294.485 499.84 294.324M434.604 291.508C434.226 291.348 433.8 291.348 433.427 291.508M433.427 294.324C433.8 294.485 434.226 294.485 434.604 294.324M498.662 224.558H500.076M476.993 224.558H478.17M455.328 224.558H456.505M433.427 224.558H434.604M434.604 203.373H433.427M456.505 203.373H455.328M478.17 203.373H476.993M500.076 203.373H498.662M499.84 212.435C499.461 212.279 499.036 212.279 498.662 212.435M498.662 215.265C499.036 215.416 499.461 215.416 499.84 215.265M434.604 212.435C434.226 212.279 433.8 212.279 433.427 212.435M433.427 215.265C433.8 215.416 434.226 215.416 434.604 215.265M413.402 307.151H412.93L412.934 306.679M435.304 307.151H432.949M456.969 307.151H454.614M478.638 307.151H476.52M500.539 307.151H498.185M522.214 307.151H520.091M641.611 307.151H642.793L643.261 308.096M412.934 200.321V199.844H413.407M641.611 199.844H642.793L643.261 198.909M520.091 199.844H522.214M498.185 199.844H500.539M476.52 199.844H478.638M454.614 199.844H456.969M432.949 199.844H435.304M758.186 505.764L757.713 506M850.51 451.876L850.746 452.349L850.273 452.585M839.677 433.054L840.855 434.934M828.845 414.222L829.786 416.107M818.012 395.4L818.953 397.28M806.939 376.577L808.121 378.458M796.107 357.746L797.284 359.626M736.521 254.445L735.817 253.505L736.521 252.56M704.019 413.523L703.078 411.402M715.093 432.341L713.911 430.229M725.925 451.172L724.743 449.292M736.758 469.999L735.576 468.114M747.59 488.817L746.417 486.941M757.718 506L757.486 505.764M850.273 54.4197L850.746 54.6561L850.51 55.1284M757.486 1.23155L757.718 1L758.191 1.23155M746.417 20.0633L747.59 18.1831M735.576 38.8904L736.758 37.0053M724.743 57.7128L725.925 55.8324M713.911 76.5398L715.093 74.6594M703.078 95.3669L704.019 93.4818M797.284 147.374L796.107 149.25M808.121 128.547L806.939 130.427M818.953 109.715L818.012 111.6M829.786 90.8975L828.845 92.7731M840.855 72.0658L839.677 73.946" stroke="white" stroke-width="0.398" stroke-miterlimit="10" stroke-linecap="round" stroke-linejoin="round"/>
    <path d="M757.969 480.904C758.021 481.311 758.234 481.674 758.56 481.925" stroke="white" stroke-width="0.398" stroke-miterlimit="10" stroke-linecap="round" stroke-linejoin="round"/>
    <path d="M728.267 424.035C728.215 423.624 728.002 423.265 727.676 423.01" stroke="white" stroke-width="0.398" stroke-miterlimit="10" stroke-linecap="round" stroke-linejoin="round"/>
    <path d="M725.234 424.426C725.286 424.832 725.499 425.196 725.816 425.446" stroke="white" stroke-width="0.398" stroke-miterlimit="10" stroke-linecap="round" stroke-linejoin="round"/>
    <path d="M829.537 440.971C829.48 440.57 829.268 440.201 828.951 439.956M736.055 419.404L735.582 418.459M747.124 438.222L746.419 437.286M757.956 457.053L757.256 456.113M768.789 475.881L768.089 474.94M749.951 485.291L750.651 486.468M739.114 466.464L739.819 467.641M728.282 447.642L728.754 448.819M717.449 428.815L717.922 429.992" stroke="white" stroke-width="0.398" stroke-miterlimit="10" stroke-linecap="round" stroke-linejoin="round"/>
    <path d="M826.5 441.363C826.557 441.77 826.77 442.133 827.091 442.384" stroke="white" stroke-width="0.398" stroke-miterlimit="10" stroke-linecap="round" stroke-linejoin="round"/>
    <path d="M796.798 384.495C796.746 384.089 796.533 383.725 796.207 383.475" stroke="white" stroke-width="0.398" stroke-miterlimit="10" stroke-linecap="round" stroke-linejoin="round"/>
    <path d="M793.766 384.889C793.818 385.295 794.03 385.659 794.352 385.909" stroke="white" stroke-width="0.398" stroke-miterlimit="10" stroke-linecap="round" stroke-linejoin="round"/>
    <path d="M770.825 354.939C770.423 354.996 770.054 355.204 769.809 355.525M804.59 379.871L804.112 378.926M815.658 398.693L814.949 397.753M826.491 417.52L825.782 416.585M837.323 436.347L836.619 435.407M818.476 445.758L819.186 446.935M807.644 426.931L808.353 428.107M796.812 408.109L797.284 409.285M785.748 389.282L786.452 390.458" stroke="white" stroke-width="0.398" stroke-miterlimit="10" stroke-linecap="round" stroke-linejoin="round"/>
    <path d="M771.223 357.973C771.629 357.916 771.993 357.703 772.244 357.387" stroke="white" stroke-width="0.398" stroke-miterlimit="10" stroke-linecap="round" stroke-linejoin="round"/>
    <path d="M714.307 387.646C713.896 387.698 713.532 387.911 713.281 388.232" stroke="white" stroke-width="0.398" stroke-miterlimit="10" stroke-linecap="round" stroke-linejoin="round"/>
    <path d="M714.699 390.679C715.106 390.627 715.47 390.415 715.721 390.094" stroke="white" stroke-width="0.398" stroke-miterlimit="10" stroke-linecap="round" stroke-linejoin="round"/>
    <path d="M723.259 272.578C722.853 272.63 722.489 272.843 722.238 273.164M709.68 379.63L708.734 380.339M728.513 368.811L727.576 369.515M747.355 357.987L746.414 358.455M766.201 347.163L765.256 347.631M775.62 365.981L776.793 365.282M756.778 376.81L757.955 376.106M737.936 387.634L739.113 386.93M719.099 398.457L720.276 397.758" stroke="white" stroke-width="0.398" stroke-miterlimit="10" stroke-linecap="round" stroke-linejoin="round"/>
    <path d="M723.652 275.609C724.059 275.557 724.423 275.345 724.674 275.023" stroke="white" stroke-width="0.398" stroke-miterlimit="10" stroke-linecap="round" stroke-linejoin="round"/>
    <path d="M666.736 305.285C666.33 305.337 665.965 305.55 665.715 305.871" stroke="white" stroke-width="0.398" stroke-miterlimit="10" stroke-linecap="round" stroke-linejoin="round"/>
    <path d="M667.129 308.318C667.536 308.262 667.9 308.049 668.15 307.732" stroke="white" stroke-width="0.398" stroke-miterlimit="10" stroke-linecap="round" stroke-linejoin="round"/>
    <path d="M770.881 354.935C770.437 354.977 770.035 355.209 769.775 355.572M793.756 384.841C793.804 385.28 794.035 385.686 794.395 385.937M796.806 384.548C796.764 384.104 796.527 383.702 796.163 383.447M826.495 441.317C826.537 441.761 826.774 442.163 827.138 442.413M829.54 441.024C829.497 440.58 829.261 440.178 828.906 439.923M725.225 424.37C725.273 424.814 725.504 425.221 725.868 425.471M728.275 424.082C728.232 423.638 727.991 423.236 727.637 422.976M757.964 480.847C758.006 481.291 758.238 481.697 758.602 481.948M761.009 480.559C760.966 480.115 760.735 479.713 760.37 479.453M629.738 285.456C629.554 285.863 629.554 286.33 629.738 286.732M632.523 286.727C632.708 286.326 632.708 285.858 632.523 285.452M629.738 220.273C629.554 220.679 629.554 221.142 629.738 221.548M632.523 221.544C632.708 221.142 632.708 220.674 632.523 220.268M534.597 220.273C534.408 220.679 534.408 221.142 534.597 221.548M537.377 221.544C537.566 221.142 537.566 220.674 537.377 220.268M534.597 285.456C534.408 285.863 534.408 286.33 534.597 286.732M537.377 286.727C537.566 286.326 537.566 285.858 537.377 285.452M499.887 291.527C499.475 291.343 499.012 291.343 498.605 291.527M498.61 294.31C499.012 294.494 499.48 294.494 499.892 294.31M434.651 291.527C434.245 291.343 433.776 291.343 433.375 291.527M433.375 294.31C433.776 294.494 434.245 294.494 434.651 294.31M499.887 212.458C499.475 212.269 499.012 212.269 498.605 212.458M498.61 215.236C499.012 215.425 499.48 215.425 499.892 215.236M434.651 212.458C434.245 212.269 433.776 212.269 433.375 212.458M433.375 215.236C433.776 215.425 434.245 215.425 434.651 215.236M704.256 93.9495L704.024 93.4818L713.915 76.5398H714.147M704.256 93.9495L704.492 93.718L796.811 147.133M704.256 93.9495V94.1858L796.575 147.369H796.811M704.492 93.7227L714.384 76.776M714.384 76.776L806.702 130.191M714.384 76.776L714.147 76.5446H714.625L806.939 129.723V129.96M806.702 130.191L806.939 129.955V130.427L797.284 147.369H796.811M806.702 130.191L796.811 147.133M796.811 147.133V147.369M715.093 75.1271V74.6548L724.748 57.7128H724.984M715.093 75.1271L715.324 74.891M715.093 75.1271V75.3634L807.412 128.547H807.88M724.984 57.7128L725.216 57.949M724.984 57.7128H725.457L817.771 110.896V111.128M715.324 74.891L725.216 57.949M715.324 74.891L807.648 128.311M725.216 57.949L817.535 111.369M817.535 111.369L817.771 111.128M817.535 111.369L807.648 128.311M817.771 111.128L818.008 111.605L808.116 128.547H807.88M807.648 128.311L807.88 128.547M725.925 56.3049V55.8277L735.58 38.8857H736.053M726.393 56.0686L736.053 39.1266M828.372 92.5416L736.053 39.1219V38.8809H736.289L828.608 92.0645V92.3054M828.372 92.5416L828.608 92.3054M828.372 92.5416L818.48 109.484M828.608 92.3054L828.84 92.7731L818.949 109.72H818.712M818.48 109.484L818.712 109.72M818.48 109.484L726.389 56.064L725.92 56.3001L726.157 56.5363L818.244 109.72H818.712M736.758 37.473V37.0053L746.413 20.0587H746.885M736.758 37.473L737.23 37.2369M736.758 37.473L736.994 37.7093L829.313 90.8975H829.549M746.885 20.0587V20.2949M746.885 20.0587H747.122L839.441 73.2421L839.672 73.4783M737.23 37.2369L746.885 20.2949M737.23 37.2369L829.549 90.6566M746.885 20.2949L839.204 73.7146M839.204 73.7146L839.672 73.4783M839.204 73.7146L829.549 90.6566M839.672 73.4783V73.9508L829.786 90.8975H829.549M829.549 90.6566V90.8975M747.826 18.6555L747.59 18.1783L757.481 1.23633H757.718M757.718 1.23633V1.46788M757.718 1.23633H758.195L850.278 54.415L850.514 54.6513M748.063 18.4145L757.718 1.46788M748.063 18.4145L840.382 71.8295M748.063 18.4145L747.826 18.6508V18.8822L840.145 72.0658H840.382M757.718 1.46788L850.037 54.8922M840.382 71.8295L850.037 54.8875L850.51 54.6466V55.1238L840.854 72.0658H840.382M840.382 71.8295V72.0658M796.811 359.635H797.284L806.939 376.577V377.05M796.811 359.635V359.867M796.811 359.635H796.575L704.256 412.814V413.046M796.811 359.867L806.702 376.814M796.811 359.867L704.492 413.282M806.702 376.814L714.384 429.993M806.702 376.814L806.939 377.045V377.277L714.625 430.46H714.147M714.384 429.993L714.147 430.46M714.384 429.993L704.492 413.282M714.147 430.46L713.915 430.224L704.024 413.518L704.256 413.046M704.492 413.282L704.256 413.046M807.88 378.453H808.116L818.008 395.4L817.771 395.872M807.88 378.453L807.648 378.694M807.88 378.453H807.412L715.093 431.636V431.878M817.771 395.872L817.535 395.636M817.771 395.872V396.109L725.457 449.292H724.984M807.648 378.694L817.535 395.636M807.648 378.694L715.324 432.109M817.535 395.636L725.216 448.819M725.216 448.819L724.984 449.292M725.216 448.819L715.324 432.109M724.984 449.292L724.748 449.287L715.093 432.345V431.878M715.324 432.109L715.093 431.878M818.712 397.28H818.949L828.84 414.222L828.608 414.694M828.608 414.694L828.372 414.458M828.608 414.694V414.936L736.289 468.119H736.053M818.48 397.516L828.372 414.458M828.372 414.458L736.053 467.642M736.053 467.642V468.119M736.053 467.642L726.393 450.931M736.053 468.119H735.58L725.925 451.172V450.7M726.393 450.931L725.925 450.7M726.393 450.931L818.485 397.516L818.717 397.28H818.249L726.162 450.464L725.925 450.7M829.549 416.112H829.786L839.672 433.054V433.526M839.672 433.526L839.204 433.285L746.885 486.469M839.672 433.526L839.441 433.753L747.122 486.937H746.885M829.549 416.348L839.204 433.29M746.885 486.469V486.937M746.885 486.469L737.23 469.758M746.885 486.937H746.413L736.758 469.995V469.522M737.23 469.758L736.758 469.522M737.23 469.758L829.549 416.343V416.107H829.313L736.994 469.291L736.758 469.522M840.382 434.934H840.854L850.51 451.876V452.349M840.382 434.934V435.166M840.382 434.934H840.145L747.826 488.113M850.51 452.349L850.037 452.113M850.51 452.349L850.273 452.585L758.191 505.768H757.713M840.382 435.166L850.037 452.113M840.382 435.166L748.063 488.585M850.037 452.113L757.718 505.296M757.718 505.296V505.764H757.481L747.59 488.822L747.826 488.354M757.718 505.296L748.063 488.585M748.063 488.585L747.826 488.354M747.826 488.354V488.108M520.327 306.915L520.091 307.151H500.544L500.308 306.915M520.091 306.688H500.544M520.091 306.688V200.317M520.091 306.688L520.327 306.92L520.563 306.688V200.317L520.327 200.08M500.544 306.688V200.317M500.544 306.688L500.308 306.92L500.066 306.688V200.317L500.308 200.08M500.544 200.317L500.308 200.08M500.544 200.317H520.091M500.308 200.08L500.544 199.844H520.091L520.327 200.08M520.091 200.317L520.327 200.08M498.421 306.915L498.189 307.151H478.638L478.406 306.915M498.189 306.688H478.638M498.189 306.688V200.317M498.189 306.688L498.421 306.92L498.657 306.688V200.317L498.421 200.08M478.638 306.688V200.317M478.638 306.688L478.406 306.92L478.165 306.688V200.317L478.406 200.08M478.638 200.317L478.406 200.08M478.638 200.317H498.189M478.406 200.08L478.638 199.844H498.189L498.421 200.08M498.189 200.317L498.421 200.08M476.756 306.915L476.52 307.151H456.973L456.737 306.915M476.52 306.688H456.973M476.52 306.688V200.317M476.52 306.688L476.756 306.92L476.993 306.688V200.317L476.756 200.08M456.973 306.688V200.317M456.973 306.688L456.737 306.92L456.496 306.688V200.317L456.737 200.08M456.973 200.317L456.737 200.08M456.973 200.317H476.52M456.737 200.08L456.973 199.844H476.52L476.756 200.08M476.52 200.317L476.756 200.08M454.855 306.915L454.619 307.151H435.308L434.831 306.915M454.619 306.688H435.308M454.619 306.688V200.317M454.619 306.688L454.855 306.92L455.323 306.688V200.317L454.855 200.08M435.308 306.688V200.317M435.308 306.688L434.831 306.92L434.594 306.688V200.317L434.831 200.08M435.308 200.317L434.831 200.08M435.308 200.317H454.619M434.831 200.08L435.308 199.844H454.619L454.855 200.08M454.619 200.317L454.855 200.08M433.185 306.915L432.954 307.151H413.402L413.166 306.915M432.954 306.688H413.402M432.954 306.688V200.317M432.954 306.688L433.185 306.92L433.422 306.688V200.317L433.185 200.08M413.402 306.688V200.317M413.402 306.688L413.166 306.92L412.93 306.688V200.317L413.166 200.08M413.402 200.317L413.166 200.08M413.402 200.317H432.954M413.166 200.08L413.402 199.844H432.954L433.185 200.08M432.954 200.317L433.185 200.08M717.684 241.736L718.625 242.209M698.842 230.912L699.783 231.385M680 219.852L680.941 220.556M661.158 209.028L662.103 209.728M672.699 191.609L671.522 190.91M691.541 202.433L690.364 201.734M710.379 213.262L709.201 212.558M729.221 224.085L728.043 223.381M724.672 231.98C724.422 231.659 724.053 231.451 723.646 231.389M722.232 233.841C722.483 234.163 722.852 234.375 723.254 234.432M668.146 199.272C667.895 198.946 667.531 198.734 667.125 198.682M665.711 201.134C665.966 201.45 666.326 201.663 666.732 201.715M765.255 159.369L766.191 159.847M746.413 148.546L747.354 149.023M727.571 137.486L728.516 138.19M708.733 126.662L709.669 127.366M720.27 109.016L719.093 108.543M739.112 120.076L737.935 119.372M757.954 130.9L756.782 130.196M776.796 141.728L775.619 141.02M772.243 149.623C771.992 149.297 771.628 149.084 771.222 149.032M769.808 151.475C770.054 151.801 770.423 152.009 770.829 152.065M715.717 116.911C715.471 116.589 715.102 116.377 714.7 116.325M713.287 118.767C713.532 119.088 713.901 119.301 714.303 119.353M717.915 77.0075L717.447 77.9477M728.753 58.1805L728.28 59.1254M739.826 39.3629L739.117 40.303M750.659 20.531L749.949 21.4712M768.082 32.0683L768.782 31.1233M757.245 50.8859L757.95 49.9505M746.413 69.7129L747.117 68.7727M735.58 88.5448L736.053 87.6046M727.679 83.9903C728.001 83.7399 728.214 83.3761 728.266 82.9698M725.821 81.5573C725.5 81.8077 725.287 82.1715 725.23 82.5778M760.413 27.5186C760.739 27.2634 760.952 26.8997 761.004 26.4934M758.559 25.0808C758.238 25.3264 758.025 25.695 757.968 26.1013M786.451 116.547L785.747 117.487M797.284 97.7149L796.811 98.6599M808.353 78.8973L807.653 79.8327M819.185 60.0655L818.485 61.0057M836.613 71.6027L837.313 70.6579M825.781 90.4203L826.481 89.4802M814.949 109.252L815.648 108.312M804.111 128.074L804.584 127.134M796.21 123.525C796.532 123.274 796.74 122.911 796.802 122.504M794.352 121.092C794.031 121.337 793.823 121.706 793.766 122.112M828.949 67.0483C829.27 66.7979 829.483 66.4294 829.535 66.0278M827.086 64.6153C826.769 64.861 826.556 65.2293 826.504 65.6356M662.103 297.268L661.158 297.971M680.941 286.444L680 287.153M699.783 275.62L698.842 276.088M718.625 264.796L717.684 265.264M728.043 283.387L729.221 282.915M709.201 294.452L710.379 293.743M690.364 305.276L691.541 304.567M671.522 316.099L672.699 315.395M771.614 356.569L771.378 357.047H770.668L770.437 356.569L770.668 355.87H771.378L771.614 356.569ZM795.166 385.28L794.693 385.044V384.34L795.166 384.104L795.87 384.34V385.044L795.166 385.28ZM827.904 441.756L827.431 441.52V440.816L827.904 440.58L828.377 440.816V441.52L827.904 441.756ZM726.866 424.819L726.162 424.583V423.874L726.866 423.643L727.339 423.874V424.583L726.866 424.819ZM759.368 481.296L758.89 481.059V480.355L759.368 480.119L759.836 480.355V481.059L759.368 481.296ZM630.779 286.68L630.542 286.208L630.779 285.504H631.483L631.72 286.208L631.483 286.68H630.779ZM630.779 221.265L630.542 220.788L630.779 220.32H631.483L631.72 220.788L631.483 221.265H630.779ZM535.632 221.265L535.396 220.788L535.632 220.32H536.342L536.573 220.788L536.342 221.265H535.632ZM535.632 286.68L535.396 286.208L535.632 285.504H536.342L536.573 286.208L536.342 286.68H535.632ZM498.899 292.798L499.371 292.562L499.84 292.798V293.275L499.371 293.507L498.899 293.275V292.798ZM433.663 292.798L434.136 292.562L434.604 292.798V293.275L434.136 293.507L433.663 293.275V292.798ZM498.899 213.734L499.371 213.493L499.84 213.734V214.207L499.371 214.443L498.899 214.207V213.734ZM433.663 213.734L434.136 213.493L434.604 213.734V214.207L434.136 214.443L433.663 214.207V213.734Z" stroke="white" stroke-width="0.398" stroke-miterlimit="10" stroke-linecap="round" stroke-linejoin="round"/>
    <path d="M771.164 357.977C771.609 357.935 772.01 357.699 772.271 357.34" stroke="white" stroke-width="0.398" stroke-miterlimit="10" stroke-linecap="round" stroke-linejoin="round"/>
    <path d="M714.36 387.643C713.915 387.68 713.513 387.916 713.258 388.276M715.092 389.046L714.615 389.518H714.147L713.91 389.046L714.147 388.573H714.615L715.092 389.046Z" stroke="white" stroke-width="0.398" stroke-miterlimit="10" stroke-linecap="round" stroke-linejoin="round"/>
    <path d="M714.645 390.685C715.089 390.642 715.491 390.411 715.751 390.047" stroke="white" stroke-width="0.398" stroke-miterlimit="10" stroke-linecap="round" stroke-linejoin="round"/>
    <path d="M666.785 305.281C666.341 305.319 665.939 305.56 665.684 305.919M667.523 306.684L667.045 307.161H666.577L666.341 306.684L666.577 306.212H667.045L667.523 306.684Z" stroke="white" stroke-width="0.398" stroke-miterlimit="10" stroke-linecap="round" stroke-linejoin="round"/>
    <path d="M667.074 308.323C667.519 308.281 667.925 308.049 668.181 307.686" stroke="white" stroke-width="0.398" stroke-miterlimit="10" stroke-linecap="round" stroke-linejoin="round"/>
    <path d="M723.305 272.572C722.86 272.615 722.458 272.846 722.203 273.21M724.042 274.212L723.565 274.684H723.097L722.86 274.212L723.097 273.508H723.565L724.042 274.212Z" stroke="white" stroke-width="0.398" stroke-miterlimit="10" stroke-linecap="round" stroke-linejoin="round"/>
    <path d="M723.594 275.614C724.043 275.572 724.44 275.34 724.7 274.977" stroke="white" stroke-width="0.398" stroke-miterlimit="10" stroke-linecap="round" stroke-linejoin="round"/>
    <path d="M674.584 252.792H685.417M673.88 252.324L668.461 242.913V242.677M740.997 117.015H741.47L758.194 126.898L758.43 127.135M740.997 117.015L741.229 117.487M740.997 117.015L740.761 117.251L668.461 242.204V242.677M758.43 127.135H757.953M758.43 127.135V127.371M685.89 252.56L685.648 252.324M685.89 252.56L686.358 252.324L758.426 127.371M685.89 252.56L685.412 252.796M685.648 252.324L757.948 127.135L741.229 117.487M685.648 252.324H674.343M741.229 117.487L668.693 242.677M668.693 242.677L674.348 252.324V252.56M668.693 242.677H668.461M674.348 252.56L674.584 252.796M674.348 252.56L673.875 252.324M758.426 379.871L758.189 380.107L741.465 389.986L740.992 389.754M740.992 389.754L741.229 389.518M740.992 389.754H740.756M741.229 389.518L757.953 379.871M741.229 389.518L668.693 264.329M668.461 264.329H668.693M668.461 264.329V264.797L740.761 389.754M668.461 264.329L668.457 263.856L673.875 254.677L674.348 254.445M668.693 264.329L674.348 254.677M757.953 379.871L685.653 254.677M757.953 379.871H758.43V379.635L686.362 254.677L685.894 254.445M674.348 254.677V254.445M674.348 254.677H685.653M685.653 254.677L685.894 254.445M674.348 254.445L674.584 254.209H685.417L685.894 254.445M667.279 243.617L672.693 253.033V253.5M672.698 253.973L667.284 263.384L667.048 263.616M521.971 263.384L521.734 263.148V243.617L521.971 243.385M521.971 263.384L522.207 263.148M521.971 263.384L522.207 263.861H666.57L667.048 263.616M521.971 243.385L522.207 243.617M521.971 243.385L522.207 243.144H666.57L667.048 243.385M522.207 243.617V263.148M522.207 243.617H666.811M667.048 243.385L666.811 243.617M667.048 243.385L667.284 243.617M666.811 243.617L672.457 253.5M522.207 263.148H666.811M672.693 253.968V253.496H672.457L666.811 263.143L667.048 263.616M777.258 138.431L711.323 252.324L711.082 252.56M776.795 138.195L710.85 252.324M776.795 138.195L760.071 128.311M776.795 138.195L777.263 137.958M711.082 252.56L710.845 252.324H688.239M711.082 252.56L710.609 252.796H688.003L687.767 252.56M687.767 252.56L687.771 252.324L759.603 128.075H759.839M687.767 252.56L688.244 252.324L760.071 128.311M760.071 128.311L759.839 128.075M759.839 128.075L760.307 127.839L777.031 137.722L777.263 137.958M777.263 137.958V138.431M667.516 240.796H667.284L655.979 221.256V220.788M655.979 220.788L656.215 220.793M655.979 220.788V220.316L721.914 106.427L722.155 106.191M667.516 240.324L656.215 220.793M667.516 240.324L739.111 116.311M667.516 240.324L667.511 240.801H667.747L739.579 116.547L739.583 116.311M656.215 220.793L722.155 106.663M722.155 106.663V106.191M722.155 106.663L739.111 116.311M722.155 106.191H722.628L739.347 115.838L739.583 116.311M739.111 116.311H739.583M722.155 400.342L656.215 286.213M722.155 400.342L739.111 390.695H739.583M722.155 400.342V400.814M656.215 286.213L667.516 266.682M656.215 286.213H655.979V285.74L667.284 265.968H667.516M655.979 286.208V286.68L721.914 400.574L722.155 400.814M667.516 265.968H667.752L739.583 390.458V390.695M667.516 265.968V266.677L739.115 390.69M739.583 390.695L739.347 391.167L722.628 400.814H722.155M687.771 254.445L688.008 254.209H710.614L711.086 254.445M687.771 254.445L688.244 254.677L760.071 378.69M687.771 254.445V254.677L759.603 378.926H759.839M711.086 254.445L710.85 254.677L776.795 368.811M711.086 254.445L711.328 254.677L777.263 368.575V369.042M688.239 254.677H710.845M776.795 368.811L777.263 369.037L777.031 369.274L760.307 379.157L759.839 378.926M776.795 368.811L760.071 378.69M760.071 378.69L759.839 378.926M522.207 221.492H654.092L654.329 221.733M522.207 221.969H654.324M522.207 221.969V241.5L521.971 241.736M522.207 221.969L521.971 221.733M654.324 221.969L665.634 241.5M654.324 221.969L654.329 221.733M654.329 221.733L654.801 221.969L666.107 241.5V241.736M522.207 241.495H665.634L666.107 241.732L665.87 241.968H522.207L521.971 241.732L521.734 241.495V221.964L521.971 221.728L522.207 221.487M666.107 265.269V265.505L654.801 285.036L654.324 285.272M666.107 265.269L665.634 265.505M666.107 265.269L665.87 265.033H522.207L521.971 265.269M654.324 285.272V285.036M654.324 285.272L654.087 285.509H522.202L521.966 285.272M665.634 265.505L654.324 285.036M665.634 265.505H522.212M654.324 285.036H522.207M522.207 285.036L521.975 285.272L521.739 285.036V265.505L521.971 265.269M522.207 285.036L522.212 265.505M522.212 265.505L521.971 265.269M796.105 149.255L736.515 252.56L736.047 252.796M795.637 149.018L735.815 252.56M795.637 149.018L778.913 139.135M795.637 149.018L796.105 148.782M735.815 252.56H713.441M735.815 252.56L736.052 252.796L735.579 253.037H712.973L712.736 252.796M713.441 252.56L712.736 252.796M713.441 252.56L778.913 139.135M712.736 252.796V252.56L778.44 138.899H778.677L779.154 138.667L795.873 148.551L796.11 148.782V149.255M778.913 139.135L778.672 138.899M654.801 219.38H654.565L643.255 199.608V199.136M654.801 218.676L643.491 199.141M643.491 199.141L703.313 95.6035M643.491 199.141H643.26V198.909L703.081 95.3673H703.313M703.313 95.6035V95.3673M703.313 95.6035L720.273 105.487M703.313 95.3673H703.786L720.51 105.015L720.741 105.487V105.719M720.737 105.487H720.269L654.797 218.676V219.38H655.033L720.737 105.714M703.081 411.402L643.26 308.096V307.624M703.313 411.166L643.496 307.624M703.313 411.166L720.269 401.514M703.313 411.166L703.308 411.638M643.496 307.624L654.801 288.329M643.496 307.624H643.26M643.26 307.624L643.255 307.393L654.565 287.621H654.801M720.269 401.514L654.797 288.324V287.621H655.033L720.737 401.282V401.518M720.269 401.514L720.737 401.518M720.737 401.518L720.505 401.991L703.781 411.638H703.308M703.308 411.638L703.077 411.402M712.736 254.209L712.973 253.968H735.579L736.052 254.209M712.736 254.209L713.441 254.445M712.736 254.209V254.445L778.44 368.102M736.052 254.209L735.815 254.445M736.052 254.209L736.52 254.445L796.11 357.751V358.218M713.441 254.445H735.815M713.441 254.445L778.913 367.866M735.815 254.445L795.637 357.982M795.637 357.982L796.105 358.218L795.869 358.455L779.149 368.102H778.672M795.637 357.982L778.913 367.866M778.913 367.866L778.672 368.102M778.672 368.102H778.435M522.207 199.844H641.61L642.082 200.085M522.207 200.317H641.846M522.207 200.317V219.853L521.971 220.084M522.207 200.317L521.971 200.085M641.846 200.317L653.151 219.853M641.846 200.317L642.082 200.085M642.082 200.085H642.319L653.86 219.853L653.624 220.084M522.207 219.848H653.146L653.624 220.079V220.316H522.207L521.971 220.079L521.734 219.848V200.312L521.971 200.081L522.207 199.84M653.624 286.917L653.86 287.153L642.319 306.684L642.082 306.92M653.624 286.917L653.146 287.153H522.212M653.624 286.917V286.68H522.207L521.971 286.917M642.082 306.92L641.846 306.684M642.082 306.92L641.61 307.161H522.207L521.971 306.92M653.151 287.153L641.846 306.684M641.846 306.684H522.207M522.207 306.684L521.971 306.92M522.207 306.684L522.212 287.153M521.971 306.92L521.739 306.684V287.153L521.971 286.917M522.212 287.153L521.971 286.917M668.178 199.315C667.913 198.951 667.511 198.72 667.071 198.677M665.681 201.087C665.936 201.451 666.343 201.682 666.783 201.725M724.694 232.028C724.439 231.664 724.032 231.432 723.593 231.39M722.202 233.795C722.462 234.158 722.864 234.395 723.304 234.432M772.27 149.661C772.015 149.302 771.613 149.066 771.168 149.023M769.778 151.433C770.038 151.792 770.44 152.028 770.88 152.07M715.748 116.949C715.493 116.59 715.091 116.353 714.651 116.311M713.247 118.72C713.512 119.084 713.914 119.316 714.354 119.363M727.631 84.0238C727.995 83.764 728.226 83.3624 728.273 82.9183M725.857 81.5245C725.498 81.7843 725.262 82.1907 725.219 82.63M760.369 27.5473C760.728 27.2875 760.96 26.8859 761.007 26.4465M758.596 25.0527C758.236 25.3079 757.995 25.7143 757.957 26.1489M796.166 123.558C796.53 123.298 796.762 122.897 796.805 122.453M794.393 121.064C794.034 121.324 793.797 121.73 793.755 122.165M828.9 67.0818C829.259 66.822 829.496 66.4204 829.543 65.9763M827.127 64.5872C826.768 64.8471 826.531 65.2534 826.489 65.6881M666.57 199.844H667.048L667.516 200.317L667.048 200.789H666.57L666.334 200.317L666.57 199.844ZM723.096 232.32H723.574L724.047 232.793L723.574 233.497H723.096L722.864 232.793L723.096 232.32ZM770.672 149.959H771.372L771.613 150.431L771.372 150.908H770.672L770.435 150.431L770.672 149.959ZM714.15 117.487H714.618L715.096 117.955L714.618 118.432H714.15L713.914 117.955L714.15 117.487ZM727.337 82.4221V83.1308L726.864 83.3623L726.16 83.1308V82.4221L726.864 82.186L727.337 82.4221ZM759.839 25.9458V26.6544L759.362 26.8858L758.889 26.6544V25.9458L759.362 25.7095L759.839 25.9458ZM795.869 121.957V122.661L795.164 122.897L794.691 122.661V121.957L795.164 121.72L795.869 121.957ZM828.37 65.4801V66.1794L827.893 66.4203L827.425 66.1794V65.4801L827.893 65.244L828.37 65.4801Z" stroke="white" stroke-width="0.398" stroke-miterlimit="10" stroke-linecap="round" stroke-linejoin="round"/>
    <path d="M558.333 423.016L556.22 426.627L555.781 426.374L557.626 423.221L557.605 423.209L556.378 423.283L556.638 422.839L557.894 422.763L558.333 423.016Z" fill="white"/>
    <path d="M563.43 431.206L563.616 430.889L565.575 430.275C565.805 430.203 565.999 430.137 566.155 430.076C566.313 430.015 566.443 429.947 566.545 429.872C566.649 429.797 566.733 429.704 566.798 429.594C566.872 429.467 566.906 429.339 566.899 429.211C566.893 429.083 566.852 428.964 566.777 428.852C566.702 428.741 566.599 428.648 566.468 428.572C566.328 428.492 566.19 428.45 566.053 428.448C565.917 428.445 565.791 428.479 565.675 428.548C565.559 428.618 565.461 428.722 565.381 428.86L564.963 428.619C565.087 428.407 565.245 428.25 565.436 428.146C565.628 428.043 565.834 427.995 566.055 428.003C566.277 428.012 566.494 428.078 566.705 428.199C566.917 428.322 567.079 428.475 567.191 428.66C567.302 428.844 567.36 429.038 567.365 429.244C567.369 429.449 567.317 429.645 567.208 429.831C567.13 429.963 567.03 430.079 566.908 430.178C566.787 430.277 566.622 430.37 566.413 430.457C566.206 430.543 565.934 430.638 565.597 430.74L564.275 431.137L564.259 431.166L565.943 432.139L565.716 432.527L563.43 431.206Z" fill="white"/>
    <path d="M576.942 438.983C576.676 438.829 576.491 438.626 576.388 438.373C576.286 438.119 576.266 437.825 576.329 437.491C576.392 437.157 576.539 436.793 576.769 436.4C576.997 436.01 577.241 435.705 577.502 435.486C577.765 435.267 578.032 435.138 578.305 435.101C578.58 435.063 578.849 435.12 579.114 435.273C579.378 435.426 579.561 435.63 579.662 435.885C579.765 436.14 579.785 436.434 579.722 436.769C579.661 437.103 579.516 437.465 579.287 437.856C579.058 438.248 578.812 438.555 578.551 438.775C578.29 438.994 578.023 439.122 577.75 439.16C577.478 439.196 577.209 439.137 576.942 438.983ZM577.169 438.595C577.434 438.748 577.713 438.739 578.008 438.57C578.303 438.4 578.588 438.081 578.863 437.61C579.046 437.298 579.168 437.012 579.23 436.753C579.292 436.495 579.295 436.273 579.237 436.085C579.181 435.899 579.065 435.755 578.891 435.654C578.629 435.503 578.349 435.513 578.051 435.685C577.753 435.856 577.468 436.177 577.193 436.646C577.01 436.958 576.888 437.243 576.826 437.5C576.764 437.757 576.761 437.978 576.819 438.163C576.877 438.35 576.994 438.494 577.169 438.595Z" fill="white"/>
    <path d="M589.731 443.732C589.581 443.645 589.466 443.53 589.385 443.385C589.305 443.241 589.264 443.087 589.262 442.923C589.262 442.757 589.305 442.6 589.392 442.45C589.48 442.301 589.596 442.186 589.74 442.106C589.886 442.025 590.041 441.984 590.206 441.982C590.373 441.98 590.531 442.023 590.681 442.109C590.83 442.196 590.945 442.311 591.025 442.455C591.106 442.599 591.147 442.754 591.148 442.92C591.15 443.085 591.107 443.241 591.02 443.391C590.932 443.54 590.816 443.655 590.671 443.736C590.526 443.816 590.37 443.857 590.204 443.858C590.039 443.86 589.881 443.818 589.731 443.732ZM589.938 443.379C590.022 443.428 590.112 443.452 590.205 443.451C590.299 443.45 590.387 443.427 590.469 443.382C590.551 443.336 590.616 443.271 590.666 443.186C590.715 443.102 590.74 443.013 590.739 442.92C590.738 442.826 590.715 442.739 590.67 442.658C590.624 442.576 590.559 442.511 590.474 442.462C590.389 442.413 590.3 442.389 590.206 442.39C590.113 442.391 590.025 442.414 589.943 442.46C589.861 442.505 589.795 442.57 589.746 442.655C589.696 442.739 589.672 442.828 589.673 442.922C589.673 443.015 589.696 443.102 589.742 443.183C589.787 443.265 589.853 443.33 589.938 443.379Z" fill="white"/>
    <path d="M465.379 319.584V306.766" stroke="white" stroke-width="0.199" stroke-miterlimit="10" stroke-linecap="round" stroke-linejoin="round"/>
    <path d="M463.406 319.584L467.35 319.359L464.98 306.766L463.406 319.584Z" fill="white"/>
    <path d="M720.066 466.499L731.601 460.392M466.938 319.683L464.82 306.766L463.406 319.919L466.938 319.683Z" stroke="white" stroke-width="0.199" stroke-miterlimit="10" stroke-linecap="round" stroke-linejoin="round"/>
    <path d="M721.558 468.472L731.602 460.584L719.77 465.131L721.558 468.472Z" fill="white"/>
    <path d="M721.558 468.472L731.602 460.584L719.77 465.131L721.558 468.472Z" stroke="white" stroke-width="0.199" stroke-miterlimit="10" stroke-linecap="round" stroke-linejoin="round"/>
    <path d="M465.688 319.742C469.981 378.491 503.112 431.292 554.153 460.754C605.199 490.211 667.532 492.502 720.601 466.853" stroke="white" stroke-width="0.25" stroke-miterlimit="10" stroke-linecap="round" stroke-linejoin="round"/>
    <path d="M702.992 410.97L733.573 463.541M522.118 306.766H461.434" stroke="white" stroke-width="0.199" stroke-miterlimit="10" stroke-linecap="round" stroke-linejoin="round"/>
    <path d="M356.214 273.988L355.802 273.987L352.923 272.163L352.922 271.864L353.56 271.866L353.56 272.068L355.736 273.446L355.768 273.446L355.762 270.999L356.207 271L356.214 273.988ZM357.057 272.044L356.084 272.041L355.892 272.041L352.922 272.034L352.921 271.557L357.056 271.567L357.057 272.044Z" fill="white"/>
    <path d="M357.103 256.436C357.104 256.702 357.058 256.94 356.967 257.148C356.876 257.355 356.75 257.52 356.587 257.642C356.423 257.762 356.233 257.828 356.016 257.838L356.015 257.329C356.148 257.319 356.263 257.273 356.36 257.193C356.455 257.112 356.529 257.007 356.581 256.876C356.633 256.746 356.659 256.601 356.659 256.443C356.658 256.265 356.627 256.107 356.565 255.97C356.503 255.833 356.416 255.725 356.306 255.646C356.195 255.568 356.067 255.529 355.922 255.528C355.77 255.528 355.636 255.565 355.52 255.64C355.403 255.715 355.312 255.826 355.246 255.971C355.181 256.116 355.148 256.294 355.149 256.504L355.15 256.835L354.705 256.834L354.705 256.502C354.704 256.338 354.674 256.194 354.615 256.07C354.555 255.945 354.472 255.847 354.364 255.777C354.256 255.705 354.129 255.669 353.984 255.669C353.844 255.669 353.722 255.699 353.619 255.761C353.515 255.823 353.435 255.91 353.377 256.023C353.32 256.134 353.291 256.266 353.291 256.418C353.292 256.561 353.318 256.696 353.371 256.822C353.422 256.948 353.497 257.05 353.596 257.13C353.693 257.209 353.81 257.253 353.947 257.26L353.949 257.744C353.732 257.736 353.542 257.67 353.379 257.547C353.214 257.424 353.086 257.264 352.994 257.066C352.902 256.866 352.856 256.647 352.855 256.409C352.855 256.154 352.906 255.934 353.009 255.751C353.111 255.569 353.246 255.428 353.414 255.33C353.582 255.233 353.763 255.184 353.959 255.184C354.191 255.185 354.39 255.247 354.555 255.37C354.719 255.491 354.833 255.656 354.897 255.865L354.929 255.865C354.972 255.604 355.082 255.4 355.261 255.254C355.438 255.108 355.658 255.035 355.921 255.036C356.145 255.036 356.347 255.098 356.527 255.221C356.705 255.342 356.845 255.508 356.948 255.719C357.051 255.929 357.102 256.168 357.103 256.436Z" fill="white"/>
    <path d="M357.099 242.599C357.1 242.836 357.053 243.049 356.959 243.239C356.866 243.428 356.737 243.58 356.573 243.694C356.409 243.808 356.222 243.87 356.012 243.881L356.011 243.396C356.198 243.378 356.353 243.293 356.475 243.143C356.596 242.991 356.656 242.809 356.655 242.598C356.655 242.428 356.615 242.278 356.535 242.146C356.455 242.012 356.346 241.908 356.207 241.832C356.067 241.755 355.909 241.716 355.732 241.716C355.552 241.715 355.391 241.755 355.25 241.834C355.108 241.911 354.996 242.019 354.914 242.156C354.832 242.293 354.791 242.45 354.79 242.626C354.789 242.752 354.809 242.882 354.849 243.016C354.889 243.149 354.939 243.259 355.001 243.345L354.946 243.813L352.91 243.558L352.905 241.41L353.349 241.411L353.354 243.139L354.573 243.288L354.573 243.263C354.506 243.178 354.45 243.072 354.405 242.944C354.36 242.816 354.338 242.683 354.337 242.544C354.337 242.291 354.397 242.066 354.517 241.868C354.637 241.669 354.801 241.514 355.009 241.401C355.217 241.287 355.455 241.23 355.723 241.231C355.987 241.232 356.223 241.292 356.43 241.41C356.636 241.528 356.8 241.69 356.92 241.896C357.039 242.102 357.099 242.337 357.099 242.599Z" fill="white"/>
    <path d="M383.539 213.132V200.275M383.539 268.31V238.851" stroke="white" stroke-width="0.3" stroke-miterlimit="10" stroke-linecap="round" stroke-linejoin="round"/>
    <path d="M381.566 213.094H385.51L383.531 200.275L381.566 213.094Z" fill="white"/>
    <path d="M385.51 213.094L383.538 200.275L381.566 213.094H385.51Z" stroke="white" stroke-width="0.3" stroke-miterlimit="10"/>
    <path d="M383.536 293.922V306.765M385.51 213.118L383.541 200.275L381.566 213.118H385.51Z" stroke="white" stroke-width="0.3" stroke-miterlimit="10" stroke-linecap="round" stroke-linejoin="round"/>
    <path d="M381.566 293.947L383.531 306.765L385.51 293.947H381.566Z" fill="white"/>
    <path d="M381.566 293.947L383.536 306.765L385.51 293.947H381.566Z" stroke="white" stroke-width="0.3" stroke-miterlimit="10"/>
    <path d="M383.538 213.094V293.918M381.566 293.918L383.538 306.765L385.51 293.918H381.566Z" stroke="white" stroke-width="0.3" stroke-miterlimit="10" stroke-linecap="round" stroke-linejoin="round"/>
    <path d="M842.054 284.444L841.694 284.443L840.211 283.088C840.038 282.929 839.887 282.799 839.759 282.696C839.629 282.593 839.508 282.516 839.394 282.467C839.28 282.416 839.16 282.39 839.034 282.39C838.89 282.39 838.766 282.424 838.661 282.493C838.556 282.561 838.475 282.654 838.418 282.772C838.361 282.891 838.332 283.024 838.333 283.172C838.333 283.329 838.366 283.467 838.432 283.584C838.496 283.7 838.586 283.79 838.702 283.854C838.818 283.917 838.954 283.949 839.11 283.949L839.111 284.421C838.871 284.421 838.661 284.365 838.479 284.254C838.298 284.143 838.156 283.992 838.054 283.801C837.953 283.609 837.901 283.393 837.901 283.155C837.9 282.915 837.95 282.703 838.051 282.518C838.152 282.333 838.288 282.188 838.46 282.083C838.632 281.978 838.823 281.926 839.033 281.926C839.184 281.927 839.331 281.954 839.475 282.009C839.618 282.063 839.777 282.157 839.954 282.29C840.129 282.423 840.342 282.606 840.595 282.842L841.58 283.763L841.612 283.763L841.608 281.861L842.047 281.862L842.054 284.444Z" fill="white"/>
    <path d="M842.091 269.32C842.092 269.621 842.01 269.877 841.847 270.089C841.682 270.3 841.443 270.462 841.13 270.573C840.816 270.684 840.436 270.739 839.991 270.738C839.549 270.737 839.171 270.68 838.858 270.567C838.543 270.453 838.303 270.29 838.137 270.078C837.97 269.864 837.886 269.608 837.885 269.31C837.884 269.011 837.967 268.756 838.133 268.545C838.298 268.332 838.537 268.17 838.852 268.059C839.164 267.946 839.542 267.891 839.985 267.892C840.43 267.893 840.81 267.95 841.124 268.062C841.438 268.175 841.677 268.337 841.843 268.55C842.008 268.762 842.09 269.019 842.091 269.32ZM841.651 269.319C841.65 269.02 841.506 268.788 841.218 268.622C840.929 268.456 840.519 268.373 839.986 268.371C839.631 268.371 839.329 268.408 839.08 268.483C838.831 268.557 838.642 268.665 838.512 268.806C838.381 268.945 838.316 269.114 838.317 269.311C838.318 269.607 838.464 269.838 838.756 270.006C839.047 270.173 839.459 270.257 839.99 270.258C840.345 270.259 840.646 270.223 840.893 270.149C841.141 270.075 841.329 269.968 841.458 269.828C841.587 269.687 841.652 269.517 841.651 269.319Z" fill="white"/>
    <path d="M841.199 256.937L840.791 256.936L837.94 255.13L837.939 254.834L838.571 254.835L838.572 255.035L840.726 256.4L840.758 256.4L840.752 253.977L841.192 253.978L841.199 256.937ZM842.034 255.012L841.07 255.009L840.88 255.009L837.94 255.002L837.939 254.53L842.033 254.54L842.034 255.012Z" fill="white"/>
    <path d="M842.079 239.696C842.08 239.931 842.034 240.142 841.941 240.33C841.848 240.517 841.72 240.667 841.558 240.78C841.396 240.893 841.211 240.955 841.003 240.965L841.002 240.485C841.187 240.467 841.34 240.383 841.461 240.234C841.58 240.084 841.64 239.904 841.639 239.695C841.639 239.527 841.599 239.378 841.52 239.247C841.442 239.115 841.333 239.011 841.196 238.937C841.057 238.86 840.9 238.822 840.726 238.821C840.547 238.821 840.388 238.86 840.248 238.938C840.107 239.015 839.996 239.122 839.915 239.257C839.834 239.393 839.793 239.548 839.793 239.723C839.792 239.848 839.811 239.977 839.851 240.109C839.89 240.241 839.941 240.349 840.002 240.435L839.947 240.898L837.932 240.646L837.927 238.519L838.366 238.52L838.371 240.231L839.578 240.378L839.578 240.354C839.511 240.27 839.456 240.164 839.412 240.038C839.367 239.911 839.345 239.779 839.345 239.642C839.344 239.391 839.403 239.168 839.523 238.972C839.641 238.776 839.803 238.621 840.01 238.51C840.216 238.397 840.452 238.341 840.717 238.342C840.978 238.342 841.211 238.402 841.417 238.519C841.621 238.636 841.783 238.796 841.902 239C842.019 239.204 842.079 239.436 842.079 239.696Z" fill="white"/>
    <path d="M869.641 14.0471V1.10156M869.641 273.241V234.158" stroke="white" stroke-width="0.3" stroke-miterlimit="10" stroke-linecap="round" stroke-linejoin="round"/>
    <path d="M867.668 13.9197H871.612L869.638 1.10156L867.668 13.9197Z" fill="white"/>
    <path d="M871.612 13.9197L869.638 1.10156L867.668 13.9197H871.612Z" stroke="white" stroke-width="0.3" stroke-miterlimit="10"/>
    <path d="M869.635 493.003V505.939M871.612 14.0379L869.64 1.10156L867.668 14.0379H871.612Z" stroke="white" stroke-width="0.3" stroke-miterlimit="10" stroke-linecap="round" stroke-linejoin="round"/>
    <path d="M867.668 493.121L869.638 505.939L871.612 493.121H867.668Z" fill="white"/>
    <path d="M867.668 493.121L869.633 505.939L871.612 493.121H867.668Z" stroke="white" stroke-width="0.3" stroke-miterlimit="10"/>
    <path d="M869.635 13.9199V493M867.668 493L869.635 505.939L871.612 493H867.668Z" stroke="white" stroke-width="0.3" stroke-miterlimit="10" stroke-linecap="round" stroke-linejoin="round"/>
    <path d="M204.169 62.3373H246.435M204.169 62.3373V65.997M204.169 62.3373V62.1717L204.335 62.003M204.169 62.3373H203.506M246.435 62.3373L246.597 62.1717M246.435 62.3373L246.432 65.997M246.597 62.003H204.335M246.597 62.003H247.426H254.417L254.251 62.1717M246.597 62.003V62.1717M204.335 62.003H203.168M204.169 65.997H246.432M204.169 65.997L204.166 66.1656L204.335 66.3313M204.169 65.997H203.506M246.597 62.1717L246.932 62.3373M246.432 65.997L246.597 66.1656M204.335 66.3313H246.597M204.335 66.3313H203.168L203.334 66.1656M246.597 66.3313V66.1656M246.597 66.3313H247.426V67.1566M246.932 62.3373V65.997M246.932 62.3373H247.098H254.085M246.597 66.1656L246.932 65.997M246.932 65.997H247.098H254.085M203.005 65.997H118.649M203.005 65.997V62.3373M203.005 65.997L203.334 66.1656M118.649 65.997L118.483 66.1656L118.318 65.997V62.3373L118.483 62.1717M118.649 65.997V62.3373M203.171 66.3283H118.649L118.483 66.1626M203.005 62.3373H118.649M203.005 62.3373L203.334 62.1717M203.334 66.1656L203.506 65.997M203.506 65.997V62.3373M203.506 62.3373L203.334 62.1717M203.334 62.1717L203.168 62.003M203.168 62.003H118.649L118.483 62.1717M118.649 62.3373L118.483 62.1717M213.821 66.3283V67.1566M206.499 66.3283V67.1566M240.11 66.3283V67.1566M299.01 66.3283V67.1566M347.259 66.3283V67.1566M334.282 67.1566V66.3283M250.592 66.3283V67.1566M298.841 66.3283V67.1566M285.861 67.1566V66.3283M203.005 66.3283V67.1566M188.199 67.1566V66.3283M135.786 66.3283V67.1566M120.979 67.1566V66.3283M114.824 66.3283V67.1566M44.111 66.3283V67.1566M101.678 66.3283H103.342M101.678 66.3283H87.8687M101.678 66.3283L101.847 66.1626L102.015 65.9939M103.342 66.3283L103.176 66.1656M103.342 66.3283L117.151 66.3313L117.323 66.1626L117.489 65.9939M86.3705 66.3283H87.8687M86.3705 66.3283H72.5613M86.3705 66.3283L86.5393 66.1626L86.7081 65.9939M87.8687 66.3283L87.7029 66.1656M72.5613 66.3283H70.8973L71.0631 66.1626L71.3977 65.9939M72.5613 66.3283L72.3955 66.1656M55.59 66.3283H57.254M55.59 66.3283L41.7808 66.3313L41.615 66.1656M55.59 66.3283L55.7588 66.1626L55.9276 65.9939M254.917 65.997H254.583M254.583 65.997L254.251 66.1656L254.085 65.997M254.583 65.997L254.58 62.3373M254.417 66.3283H255.083M254.417 66.3283H247.429L247.264 66.1626L247.098 65.9939V62.3343L247.264 62.1687L247.429 62M254.417 66.3283L254.251 66.1626M255.083 66.3283L254.917 66.1626V65.9939V62.3343V62.1687L255.083 62M255.083 66.3283H262.071M255.08 62.003H254.414M254.58 62.3373H254.914M254.58 62.3373L254.251 62.1717M254.085 65.997V62.3373M254.251 62.1717L254.085 62.3373M262.571 65.997H262.239M262.071 66.3283H262.903M262.071 66.3283L261.905 66.1626M262.903 66.3283L262.571 66.1626V65.9939V62.3343V62.1687L262.903 62M262.903 66.3283H269.724M262.071 62.003H262.903H269.724M262.071 62.003L261.908 62.1717L261.739 62.3373H254.917M262.071 62.003H255.086M262.236 62.3373H262.568M262.236 62.3373V65.997L261.905 66.1656L261.736 65.997M262.236 62.3373L261.905 62.1717M261.736 65.997V62.3373M261.736 65.997H254.914M269.89 65.997H270.225H277.046M269.724 66.3283H270.556M269.724 66.3283V66.1626M270.556 66.3283L270.225 66.1626V65.9939V62.3343V62.1687L270.556 62M270.556 66.3283H277.378M269.724 62.003H270.556H277.378M269.724 62.003V62.1717L269.393 62.3373H262.571M269.887 62.3373H270.222M269.887 62.3373V65.997L269.721 66.1656L269.39 65.997M269.887 62.3373L269.721 62.1717M269.39 65.997V62.3373M269.39 65.997H262.568M277.544 65.997H277.878H284.866M277.544 65.997L277.378 66.1656L277.046 65.997M277.544 65.997V62.3373M277.378 66.3283H278.21M277.378 66.3283V66.1626M278.21 66.3283L278.044 66.1626L277.878 65.9939V62.3343L278.044 62.1687L278.213 62M278.21 66.3283H285.032M277.378 62.003H278.21H285.032M277.378 62.003V62.1717M277.544 62.3373H277.878H284.866M277.544 62.3373L277.378 62.1717M277.046 65.997V62.3373M277.378 62.1717L277.046 62.3373M277.046 62.3373H270.225M350.418 65.997H285.366M350.418 65.997V62.3373M350.418 65.997L350.587 66.1656M285.366 65.997L285.032 66.1656L284.866 65.997M285.366 65.997V62.3373M285.032 66.3283H350.255L350.587 66.1626V65.9939V62.3343M285.032 66.3283L285.035 66.1626M350.418 62.3373H285.366M350.418 62.3373L350.587 62.1717M350.587 62.3373V62.1717M350.587 62.1717L350.255 62.003H285.032M285.366 62.3373L285.032 62.1717M285.032 62.003V62.1717M284.866 65.997V62.3373M285.032 62.1717L284.866 62.3373M103.176 66.1656L103.01 65.997V62.3373L103.173 62.1717M103.176 66.1656L103.342 65.997H117.151M103.339 65.997V62.3373M103.339 62.3373H117.151M103.339 62.3373L103.173 62.1717M117.151 65.997V62.3373M117.151 65.997L117.323 66.1656M117.151 62.3373L117.32 62.1717M117.486 65.997V62.3373L117.32 62.1717M117.32 62.1717L117.151 62.003H103.342L103.173 62.1717M87.7029 66.1656L87.5371 65.997V62.3373L87.6999 62.1717M87.7029 66.1656L87.8687 65.997M87.8687 65.997V62.3373M87.8687 65.997H101.678M87.8687 62.3373H101.678M87.8687 62.3373L87.6999 62.1717M101.678 65.997V62.3373M101.678 65.997L101.847 66.1656M101.678 62.3373L101.844 62.1717M102.012 65.997V62.3373L101.844 62.1717M101.844 62.1717L101.678 62.003H87.8687L87.6999 62.1717M72.3955 66.1656L72.2297 65.997V62.3373L72.3925 62.1717M72.3955 66.1656L72.5613 65.997M72.5613 65.997V62.3373M72.5613 65.997H86.3705M72.5613 62.3373H86.3705M72.5613 62.3373L72.3925 62.1717M86.3705 65.997V62.3373M86.3705 65.997L86.5393 66.1656M86.3705 62.3373L86.5363 62.1717M86.7051 65.997V62.3373L86.5363 62.1717M86.5363 62.1717L86.3705 62.003H72.5613L72.3925 62.1717M56.9224 66.1656L56.7536 65.997V62.3373L56.9224 62.1717M56.9224 66.1656L57.2509 65.997M56.9224 66.1656L57.2509 66.3313H70.8943M57.2509 65.997V62.3373M57.2509 65.997H70.8973M57.2509 62.3373H70.8973M57.2509 62.3373L56.9224 62.1717M70.8973 65.997V62.3373M70.8973 65.997L71.0631 66.1656M70.8973 62.3373L71.0601 62.1717M71.3977 65.997V62.3373L71.0601 62.1717M71.0601 62.1717L70.8973 62.003H57.2509L56.9224 62.1717M41.615 66.1656L41.4492 65.997V62.3373L41.612 62.1717M41.615 66.1656L41.7808 65.997M41.7808 65.997V62.3373M41.7808 65.997H55.59M41.7808 62.3373H55.59M41.7808 62.3373L41.612 62.1717M55.59 65.997V62.3373M55.59 65.997L55.7588 66.1656M55.59 62.3373L55.7558 62.1717M55.9246 65.997V62.3373L55.7558 62.1717M55.7558 62.1717L55.59 62.003H41.7808L41.612 62.1717M44.9399 130.003V70.6506M44.9399 130.003L71.0601 130V96.9186M44.9399 130.003H41.4492V67.1597M71.0601 96.9186L44.9399 70.6476H203.834M71.0601 96.9186H225.801M203.834 70.6476L225.801 96.9186M203.834 70.6476H283.202V130H285.032M203.834 70.6476V67.1566M225.801 96.9186H283.202M203.834 67.1566H41.4492M203.834 67.1566H285.032M285.032 67.1566H350.753V130H285.032M285.032 67.1566V130" stroke="white" stroke-width="0.5" stroke-miterlimit="10" stroke-linecap="round" stroke-linejoin="round"/>
    <path d="M6.09137 107.66C6.09201 107.928 6.04668 108.166 5.95537 108.375C5.86406 108.583 5.73687 108.748 5.5738 108.87C5.40937 108.991 5.21849 109.057 5.00114 109.067L4.99992 108.557C5.13355 108.546 5.24888 108.501 5.3459 108.42C5.44156 108.339 5.51557 108.233 5.56791 108.103C5.62025 107.972 5.64623 107.827 5.64584 107.667C5.64542 107.489 5.61398 107.331 5.55155 107.193C5.48911 107.055 5.40244 106.947 5.29154 106.869C5.18064 106.79 5.05228 106.751 4.90647 106.75C4.7539 106.75 4.61965 106.787 4.50372 106.863C4.38644 106.938 4.2949 107.048 4.22909 107.194C4.16328 107.34 4.13063 107.518 4.13114 107.729L4.13194 108.061L3.68639 108.06L3.68559 107.727C3.6852 107.563 3.65515 107.418 3.59544 107.294C3.53573 107.168 3.45179 107.07 3.34361 107C3.23543 106.928 3.10843 106.892 2.96261 106.891C2.8222 106.891 2.70008 106.922 2.59627 106.984C2.49246 107.045 2.41166 107.133 2.35388 107.246C2.29609 107.358 2.26738 107.49 2.26775 107.643C2.26809 107.786 2.29475 107.921 2.34771 108.048C2.39931 108.174 2.47449 108.277 2.57324 108.357C2.67065 108.437 2.78821 108.48 2.92594 108.487L2.92711 108.973C2.70972 108.965 2.51919 108.899 2.35553 108.775C2.19051 108.652 2.06187 108.491 1.96958 108.292C1.87729 108.092 1.83086 107.873 1.83028 107.634C1.82967 107.377 1.88112 107.157 1.98464 106.974C2.08681 106.791 2.22216 106.65 2.39069 106.552C2.55922 106.454 2.74137 106.405 2.93714 106.405C3.17072 106.406 3.37001 106.468 3.53502 106.591C3.70003 106.713 3.81452 106.879 3.87848 107.088L3.91088 107.088C3.95346 106.826 4.06435 106.622 4.24357 106.475C4.42143 106.328 4.642 106.255 4.90528 106.256C5.13075 106.257 5.33342 106.318 5.51329 106.442C5.6918 106.564 5.83261 106.73 5.93573 106.941C6.03884 107.152 6.09073 107.392 6.09137 107.66Z" fill="white"/>
    <path d="M1.82661 99.0182C1.82755 98.8481 1.85955 98.678 1.9226 98.5081C1.98564 98.3381 2.09058 98.1831 2.23741 98.043C2.38289 97.903 2.58176 97.7907 2.83404 97.7063C3.08631 97.6218 3.40281 97.58 3.78355 97.5809C4.15214 97.5818 4.47964 97.6177 4.76604 97.6886C5.05108 97.7582 5.29165 97.8586 5.48773 97.9901C5.68381 98.1202 5.83271 98.2785 5.93442 98.465C6.03612 98.6503 6.08725 98.8596 6.08782 99.0932C6.08837 99.3254 6.04297 99.5326 5.95159 99.7146C5.85887 99.8953 5.73029 100.044 5.56585 100.159C5.40006 100.274 5.20784 100.347 4.98919 100.379L4.98801 99.8845C5.17827 99.8404 5.33535 99.7523 5.45924 99.6203C5.58179 99.4869 5.64279 99.3109 5.64227 99.0922C5.6415 98.7722 5.50115 98.5194 5.22123 98.3337C4.9413 98.1467 4.54616 98.0526 4.03581 98.0514L4.03589 98.0838C4.14948 98.1597 4.24758 98.2497 4.33019 98.3539C4.4128 98.458 4.47653 98.5736 4.52139 98.7006C4.56625 98.8276 4.58885 98.9627 4.5892 99.1058C4.58977 99.3435 4.53156 99.5614 4.41457 99.7595C4.29623 99.9564 4.13392 100.114 3.92764 100.232C3.72 100.349 3.48251 100.407 3.21518 100.407C2.96136 100.406 2.729 100.349 2.5181 100.235C2.30585 100.12 2.1367 99.9586 2.01064 99.7518C1.88458 99.5435 1.82324 99.299 1.82661 99.0182ZM2.27216 99.0193C2.27257 99.1894 2.31546 99.3427 2.40085 99.4793C2.48488 99.6145 2.59855 99.7221 2.74186 99.8021C2.88381 99.8808 3.0412 99.9203 3.21402 99.9207C3.38683 99.9211 3.54404 99.8837 3.68562 99.8084C3.82585 99.7318 3.93766 99.6274 4.02105 99.4953C4.10309 99.3619 4.1439 99.2101 4.14349 99.04C4.14319 98.9117 4.11792 98.7921 4.0677 98.6813C4.01613 98.5705 3.94636 98.4738 3.85841 98.3912C3.7691 98.3073 3.66835 98.2416 3.55618 98.194C3.44265 98.1465 3.32446 98.1226 3.2016 98.1223C3.03958 98.1219 2.88778 98.1607 2.74621 98.2387C2.60463 98.3153 2.49012 98.4217 2.40269 98.5578C2.31525 98.6926 2.27174 98.8464 2.27216 99.0193Z" fill="white"/>
    <path d="M6.07977 90.0839C6.0805 90.389 5.99809 90.6487 5.83254 90.863C5.66564 91.0773 5.42368 91.2407 5.10667 91.3534C4.78831 91.466 4.40366 91.5218 3.95271 91.5207C3.50446 91.5197 3.12156 91.462 2.804 91.3479C2.48509 91.2323 2.24167 91.067 2.07374 90.852C1.90445 90.6355 1.81945 90.3761 1.81872 90.0737C1.81799 89.7712 1.90176 89.5129 2.07001 89.2986C2.23691 89.083 2.47954 88.9189 2.7979 88.8062C3.11491 88.6922 3.49753 88.6358 3.94578 88.6368C4.39673 88.6379 4.78166 88.6955 5.10056 88.8097C5.41812 88.9239 5.66086 89.0885 5.8288 89.3036C5.99538 89.5187 6.07904 89.7788 6.07977 90.0839ZM5.63422 90.0828C5.6335 89.7804 5.48712 89.5451 5.19508 89.377C4.90305 89.2089 4.48701 89.1242 3.94695 89.1229C3.58781 89.122 3.2821 89.1598 3.0298 89.2361C2.77751 89.3111 2.58538 89.42 2.45341 89.5628C2.32143 89.7043 2.25569 89.8749 2.25617 90.0747C2.25689 90.3745 2.40529 90.6091 2.70138 90.7785C2.99611 90.948 3.41283 91.0334 3.95154 91.0347C4.31068 91.0356 4.61572 90.9985 4.86666 90.9235C5.11761 90.8485 5.30839 90.7402 5.43902 90.5988C5.56964 90.456 5.63471 90.284 5.63422 90.0828Z" fill="white"/>
    <path d="M22.1289 73.2822V64.1406M22.1289 108.029V88.2461" stroke="white" stroke-width="0.3" stroke-miterlimit="10" stroke-linecap="round" stroke-linejoin="round"/>
    <path d="M20.8008 73.2863H23.4595L22.1302 64.1387L20.8008 73.2863Z" fill="white"/>
    <path d="M23.4595 73.2863L22.1302 64.1387L20.8008 73.2863H23.4595Z" stroke="white" stroke-width="0.3" stroke-miterlimit="10"/>
    <path d="M22.1302 118.725V127.867M23.4595 73.2852L22.1302 64.1406L20.8008 73.2852H23.4595Z" stroke="white" stroke-width="0.3" stroke-miterlimit="10" stroke-linecap="round" stroke-linejoin="round"/>
    <path d="M20.8008 118.727L22.1302 127.871L23.4595 118.727H20.8008Z" fill="white"/>
    <path d="M20.8008 118.727L22.1302 127.868L23.4595 118.727H20.8008Z" stroke="white" stroke-width="0.3" stroke-miterlimit="10"/>
    <path d="M22.1302 73.2871V118.727M20.8008 118.727L22.1302 127.868L23.4595 118.727H20.8008Z" stroke="white" stroke-width="0.3" stroke-miterlimit="10" stroke-linecap="round" stroke-linejoin="round"/>
</svg>