<?xml version="1.0" standalone="no"?>
<!DOCTYPE svg PUBLIC "-//W3C//DTD SVG 20010904//EN"
 "http://www.w3.org/TR/2001/REC-SVG-20010904/DTD/svg10.dtd">
<svg version="1.0" xmlns="http://www.w3.org/2000/svg"
 width="700.000000pt" height="700.000000pt" viewBox="0 0 700.000000 700.000000"
 preserveAspectRatio="xMidYMid meet">
<metadata>
Created by potrace 1.14, written by Peter Selinger 2001-2017
</metadata>
<g transform="translate(0.000000,700.000000) scale(0.100000,-0.100000)"
fill="#000000" stroke="none">
<path d="M4661 6984 c-217 -46 -392 -152 -528 -319 -290 -357 -211 -907 172
-1204 78 -60 86 -65 180 -110 103 -50 156 -68 262 -86 115 -20 195 -19 286 4
139 36 241 95 347 201 78 79 95 99 142 170 80 123 142 281 172 440 14 75 16
283 3 329 -72 263 -338 489 -666 568 -87 21 -288 25 -370 7z"/>
<path d="M2445 5289 c-27 -4 -60 -10 -72 -13 -13 -3 -31 -8 -40 -10 -94 -23
-223 -85 -343 -165 -95 -63 -325 -284 -436 -421 -331 -405 -498 -720 -749
-1415 -31 -88 -61 -169 -65 -180 -62 -157 -151 -472 -185 -655 -3 -14 -7 -36
-10 -50 -2 -14 -7 -45 -11 -70 -3 -24 -7 -47 -9 -50 -1 -3 -6 -32 -9 -65 -4
-33 -9 -67 -11 -75 -10 -39 -43 -285 -51 -385 -12 -145 -5 -460 11 -507 2 -7
7 -30 10 -51 27 -187 92 -403 176 -584 76 -161 163 -274 288 -375 99 -79 261
-161 361 -183 8 -2 38 -9 65 -15 129 -30 359 -18 492 26 208 68 394 214 525
408 72 109 111 183 198 385 37 85 71 156 77 158 14 5 46 -51 68 -118 149 -460
431 -771 755 -831 214 -41 394 23 586 205 147 140 254 308 338 531 14 37 35
81 47 97 l21 31 32 -38 c17 -21 36 -46 41 -56 288 -514 469 -701 751 -779 117
-32 312 -32 449 2 22 5 49 12 59 14 185 43 365 166 480 329 97 136 176 335
215 536 25 129 27 142 36 225 3 28 8 73 11 100 12 105 5 450 -11 555 -2 14 -7
50 -11 80 -11 96 -36 238 -58 334 -9 35 -17 75 -20 87 -81 385 -276 871 -482
1207 -59 95 -218 329 -233 342 -3 3 -24 28 -45 55 -66 83 -246 258 -327 318
-98 72 -242 148 -344 183 -148 49 -313 39 -422 -27 -135 -81 -401 -329 -508
-474 -64 -87 -192 -284 -325 -501 l-85 -139 -7 40 c-13 71 -57 289 -62 306
-50 181 -110 390 -116 409 -5 14 -23 72 -40 130 -65 215 -155 464 -180 495 -4
6 -11 20 -14 32 -10 30 -111 199 -150 248 -58 74 -71 89 -133 150 -73 71 -85
82 -143 121 -121 82 -251 113 -385 93z"/>
</g>
</svg>
