<?xml version="1.0" encoding="UTF-8"?><!DOCTYPE svg PUBLIC "-//W3C//DTD SVG 1.1//EN" "http://www.w3.org/Graphics/SVG/1.1/DTD/svg11.dtd"><svg xmlns="http://www.w3.org/2000/svg" xmlns:xlink="http://www.w3.org/1999/xlink"><symbol id="access-denied" viewBox="0 0 22 22"><path d="M11,21.75A10.75,10.75,0,1,1,21.75,11,10.76,10.76,0,0,1,11,21.75Zm0-20A9.25,9.25,0,1,0,20.25,11,9.26,9.26,0,0,0,11,1.75Zm5,12a.76.76,0,0,1-.33-.08.73.73,0,0,1-.34-1l.05-.11a1.26,1.26,0,0,0,.11-.81H14a2.73,2.73,0,0,1-.28,1.48l-.05.1a.75.75,0,0,1-1.34-.66l.05-.11a1.26,1.26,0,0,0,.11-.81H10.65a2.75,2.75,0,1,1,0-1.5h5.23a.93.93,0,0,1,.84.52,2.73,2.73,0,0,1,0,2.46l0,.1A.74.74,0,0,1,16,13.75Zm-8-4A1.25,1.25,0,1,0,9.25,11,1.25,1.25,0,0,0,8,9.75Zm7.88,2h0Z"/></symbol><symbol id="account" viewBox="0 0 24 24">
	<path d="M12,11.5c2.8,0,5-2.2,5-5s-2.2-5-5-5s-5,2.2-5,5S9.2,11.5,12,11.5z M12,3.5c1.7,0,3,1.3,3,3s-1.3,3-3,3 s-3-1.3-3-3S10.3,3.5,12,3.5z"/>
	<path d="M15,12.5H9c-2.8,0-5,2.2-5,5s2.2,5,5,5h6c2.8,0,5-2.2,5-5S17.8,12.5,15,12.5z M15,20.5H9c-1.7,0-3-1.3-3-3 s1.3-3,3-3h6c1.7,0,3,1.3,3,3S16.7,20.5,15,20.5z"/>
</symbol><symbol id="articles" viewBox="0 0 36 36"><path d="M24.4,10.6H11.6a1,1,0,0,0,0,2H24.4a1,1,0,0,0,0-2Z"/><path d="M24.4,17H11.6a1,1,0,0,0,0,2H24.4a1,1,0,0,0,0-2Z"/><path d="M16.4,23.4H11.6a1,1,0,0,0,0,2h4.8a1,1,0,0,0,0-2Z"/><path d="M33.2,9.28a9.1,9.1,0,0,0-1.52-4.57,9,9,0,0,0-2-2A9.1,9.1,0,0,0,25.12,1.2C23.29,1,21,1,18,1s-5.29,0-7.12.2A9.1,9.1,0,0,0,6.31,2.72a9,9,0,0,0-2,2A9.1,9.1,0,0,0,2.8,9.28c-.2,1.83-.2,4.14-.2,7.12v3.2c0,3,0,5.29.2,7.12a9.1,9.1,0,0,0,1.52,4.57,9,9,0,0,0,2,2,9.1,9.1,0,0,0,4.57,1.52C12.71,35,15,35,18,35s5.29,0,7.12-.2a9.1,9.1,0,0,0,4.57-1.52,9,9,0,0,0,2-2,9.1,9.1,0,0,0,1.52-4.57c.2-1.83.2-4.14.2-7.12V16.4C33.4,13.42,33.4,11.11,33.2,9.28Zm-2,17.22a7.14,7.14,0,0,1-1.15,3.61,6.71,6.71,0,0,1-1.55,1.55,7.14,7.14,0,0,1-3.61,1.15A68.7,68.7,0,0,1,18,33a68.7,68.7,0,0,1-6.9-.19,7.14,7.14,0,0,1-3.61-1.15,6.71,6.71,0,0,1-1.55-1.55A7.14,7.14,0,0,1,4.79,26.5a68.7,68.7,0,0,1-.19-6.9V16.4a68.7,68.7,0,0,1,.19-6.9A7.14,7.14,0,0,1,5.94,5.89,6.71,6.71,0,0,1,7.49,4.34,7.14,7.14,0,0,1,11.1,3.19,68.7,68.7,0,0,1,18,3a68.7,68.7,0,0,1,6.9.19,7.14,7.14,0,0,1,3.61,1.15,6.71,6.71,0,0,1,1.55,1.55A7.14,7.14,0,0,1,31.21,9.5a68.7,68.7,0,0,1,.19,6.9v3.2A68.7,68.7,0,0,1,31.21,26.5Z"/></symbol><symbol id="auth-google" viewBox="0 0 28 28">
<path fill="#4285F4" d="M24.8,14.2c0-0.8-0.1-1.5-0.2-2.3H14.2v4.3h5.9c-0.3,1.4-1,2.5-2.2,3.3v2.8h3.6C23.6,20.4,24.8,17.6,24.8,14.2z"/>
<path fill="#34A853" d="M14.2,25c3,0,5.5-1,7.3-2.7l-3.6-2.8c-1,0.7-2.2,1.1-3.7,1.1c-2.9,0-5.3-1.9-6.2-4.5H4.4v2.8 C6.2,22.5,9.9,25,14.2,25z"/>
<path fill="#FBBC05" d="M8.1,16.1c-0.2-0.7-0.4-1.4-0.4-2.1c0-0.7,0.1-1.4,0.4-2.1V9.1H4.4c-0.8,1.5-1.2,3.1-1.2,4.9s0.4,3.4,1.2,4.9 l2.8-2.2L8.1,16.1z"/>
<path fill="#EA4335" d="M14.2,7.4c1.6,0,3.1,0.6,4.2,1.6l3.2-3.2C19.7,4.1,17.2,3,14.2,3c-4.3,0-8,2.5-9.8,6.1l3.7,2.8 C8.9,9.3,11.4,7.4,14.2,7.4z"/>
</symbol><symbol id="auth-mail" viewBox="0 0 28 28">
	<path fill="#FF9E00" d="M17.3,14c0,0.7-0.2,1.3-0.6,1.8c-0.4,0.5-0.9,1-1.5,1.2c-0.6,0.3-1.3,0.3-1.9,0.2c-0.6-0.1-1.2-0.4-1.7-0.9
	c-0.5-0.5-0.8-1.1-0.9-1.7c-0.1-0.6-0.1-1.3,0.2-1.9c0.3-0.6,0.7-1.1,1.2-1.5c0.5-0.4,1.2-0.6,1.8-0.6c0.9,0,1.7,0.3,2.3,1
	C17,12.3,17.3,13.1,17.3,14z M14,3c-1.7,0-3.4,0.4-5,1.2C7.5,5,6.2,6.1,5.1,7.5c-1,1.4-1.7,3-2,4.7c-0.3,1.7-0.2,3.4,0.3,5.1
	c0.5,1.6,1.4,3.1,2.6,4.4c1.2,1.2,2.7,2.2,4.3,2.8c1.6,0.6,3.4,0.7,5.1,0.5c1.7-0.2,3.3-0.8,4.8-1.8l0,0l-1.5-1.7l0,0
	C17,22.5,15,22.9,13,22.7c-2-0.2-3.9-1.2-5.3-2.6c-1.4-1.5-2.3-3.4-2.4-5.4c-0.2-2,0.4-4,1.5-5.7s2.9-2.9,4.8-3.4
	c2-0.5,4-0.4,5.9,0.4c1.9,0.8,3.4,2.2,4.3,4.1c0.9,1.8,1.2,3.9,0.7,5.9c0,0.4-0.2,0.8-0.6,1c-0.3,0.3-0.7,0.4-1.1,0.4
	c-0.2,0-0.4-0.1-0.5-0.1S20,17,19.9,16.8c-0.1-0.1-0.2-0.3-0.3-0.5c-0.1-0.2-0.1-0.4-0.1-0.6V14c0-1.3-0.4-2.5-1.3-3.5
	c-0.8-1-2-1.7-3.2-1.9c-1.3-0.3-2.6-0.1-3.7,0.6c-1.1,0.6-2,1.6-2.5,2.8c-0.5,1.2-0.6,2.5-0.2,3.8c0.4,1.2,1.2,2.3,2.2,3
	c1.1,0.7,2.4,1,3.6,0.9c1.3-0.1,2.5-0.7,3.4-1.6c0.3,0.5,0.7,0.9,1.2,1.1s1,0.5,1.6,0.5c0.1,0,0.2,0,0.3,0c0.8,0,1.6-0.3,2.2-0.8
	c0.7-0.5,1.2-1.3,1.4-2.1c0-0.1,0.1-0.5,0.1-0.5v0c0.2-0.7,0.2-1.5,0.2-2.2c0-2.9-1.2-5.7-3.2-7.8C19.7,4.2,16.9,3,14,3z"/>
</symbol><symbol id="auth-ok" viewBox="0 0 28 28"><path d="M14.11,3A5.69,5.69,0,1,0,19.8,8.69,5.73,5.73,0,0,0,14.11,3Zm0,8a2.31,2.31,0,0,1-2.3-2.29,2.39,2.39,0,0,1,2.3-2.3,2.39,2.39,0,0,1,2.3,2.3A2.31,2.31,0,0,1,14.11,11Z" fill="#ed812b"/><path d="M16.08,18.86a8.15,8.15,0,0,0,3.72-1.64,1.56,1.56,0,0,0-2-2.41A6.63,6.63,0,0,1,14,15.91a6.63,6.63,0,0,1-3.83-1.1,1.56,1.56,0,0,0-2,2.41A9,9,0,0,0,12,18.86L8.75,22.25a1.66,1.66,0,0,0,0,2.19,1.4,1.4,0,0,0,1.09.44,1.41,1.41,0,0,0,1.1-.44L14,21.27l3.28,3.28a1.57,1.57,0,0,0,2.19,0,1.66,1.66,0,0,0,0-2.19Z" fill="#ed812b"/></symbol><symbol id="auth-vk" viewBox="0 0 28 28">
<path fill="#0077FF" d="M15.3,22.5c-9.6,0-15-6.4-15.3-17h4.8c0.2,7.8,3.7,11.1,6.5,11.8V5.5h4.5v6.7c2.8-0.3,5.7-3.4,6.6-6.7H27 c-0.8,4.2-3.9,7.2-6.1,8.5c2.2,1,5.8,3.7,7.2,8.5h-5c-1.1-3.2-3.7-5.7-7.2-6.1v6.1H15.3z"/>
</symbol><symbol id="auth-yandex" viewBox="0 0 28 28">
<path fill="#FC3D17" d="M21,25h-3.7V6h-1.6c-3,0-4.6,1.6-4.6,3.9c0,2.7,1.1,3.9,3.3,5.5l1.9,1.3L11,25H7l4.8-7.4 c-2.8-2.1-4.3-4.1-4.3-7.4c0-4.2,2.8-7.1,8.2-7.1H21L21,25L21,25L21,25z"/>
</symbol><symbol id="back" viewBox="0 0 26 18"><path d="M25,8H2.26a4.65,4.65,0,0,1,.48-.7A32.36,32.36,0,0,1,5.05,4.91L7.7,2.33A1,1,0,1,0,6.3.9L3.66,3.48A32.23,32.23,0,0,0,1.19,6,4.58,4.58,0,0,0,0,8.41,4.66,4.66,0,0,0,0,9.59,4.58,4.58,0,0,0,1.19,12a32.23,32.23,0,0,0,2.47,2.56L6.3,17.1a1,1,0,1,0,1.4-1.43L5.05,13.09A32.36,32.36,0,0,1,2.74,10.7a4.65,4.65,0,0,1-.48-.7H25a1,1,0,0,0,0-2Z"/></symbol><symbol id="bookmark" viewBox="0 0 24 24"><path d="M5,9.67a12.7,12.7,0,0,1,.24-3.54A5,5,0,0,1,8.45,2.92,12.32,12.32,0,0,1,12,2.67a12.32,12.32,0,0,1,3.55.25,5,5,0,0,1,3.21,3.21A12.7,12.7,0,0,1,19,9.67v7.39c0,1.92,0,2.88-.34,3.38a2,2,0,0,1-1.89.87c-.61-.07-1.34-.69-2.79-1.94a4.92,4.92,0,0,0-1.31-.95,2.05,2.05,0,0,0-1.34,0,4.92,4.92,0,0,0-1.31.95c-1.45,1.25-2.18,1.87-2.79,1.94a2,2,0,0,1-1.89-.87C5,19.94,5,19,5,17.06Z"/></symbol><symbol id="check" viewBox="0 0 12 12"><path d="M4.75,10.22c-1.35,0-2.17-1-3.65-2.76l-.87-1A1,1,0,0,1,.36,5a1,1,0,0,1,1.41.13l.87,1c1,1.19,1.7,2,2.11,2s1.12-.85,2.11-2l3.37-4A1,1,0,0,1,11.64,2a1,1,0,0,1,.13,1.41l-3.37,4C6.91,9.24,6.1,10.22,4.75,10.22Z"/></symbol><symbol id="courses" viewBox="0 0 36 36"><path d="M34.92,27.74a13.57,13.57,0,0,0-.87-1.64l-2.66-4.61a21.3,21.3,0,0,0-1.24-2,13.1,13.1,0,1,0-25-5.38,12.91,12.91,0,0,0,1,5.05l0,.05a14,14,0,0,0-1.47,2.28L2,26.1a13.57,13.57,0,0,0-.87,1.64,1.8,1.8,0,0,0,.08,1.79,1.77,1.77,0,0,0,1.66.68,12.92,12.92,0,0,0,1.82-.29l1.12-.22a12,12,0,0,1,1.37-.22c.28,0,.34,0,.35,0s.08,0,.2.28a11.57,11.57,0,0,1,.48,1.3l.37,1.08a15.38,15.38,0,0,0,.66,1.72A1.8,1.8,0,0,0,10.62,35a1.83,1.83,0,0,0,1.59-.83,13.3,13.3,0,0,0,1-1.57L15.86,28l.51-.9a12.46,12.46,0,0,0,1.84.15,13.93,13.93,0,0,0,1.45-.09l.48.84,2.66,4.61a13.3,13.3,0,0,0,1,1.57,1.83,1.83,0,0,0,1.59.83,1.8,1.8,0,0,0,1.43-1.1,15.38,15.38,0,0,0,.66-1.72l.37-1.08a11.57,11.57,0,0,1,.48-1.3c.12-.25.19-.28.2-.28s.07-.05.35,0a12,12,0,0,1,1.37.22l1.12.22a12.92,12.92,0,0,0,1.82.29,1.77,1.77,0,0,0,1.66-.68A1.8,1.8,0,0,0,34.92,27.74ZM11.46,31.59c-.27.48-.47.81-.63,1.06-.11-.27-.23-.62-.41-1.13l-.36-1.08a15.51,15.51,0,0,0-.59-1.53,2.56,2.56,0,0,0-1-1.14A2.58,2.58,0,0,0,7,27.48a13.92,13.92,0,0,0-1.61.26L4.26,28h0c-.52.11-.9.18-1.18.22.13-.27.32-.61.6-1.08l2.66-4.61c.35-.61.6-1,.8-1.35a13.16,13.16,0,0,0,7.19,5.49l-.21.35ZM16.05,25a11.13,11.13,0,0,1-7.8-6,11.11,11.11,0,1,1,21.07-4.93,11.11,11.11,0,0,1-9.25,11,11.39,11.39,0,0,1-1.86.16A11.8,11.8,0,0,1,16.05,25Zm14.57,2.72A13.92,13.92,0,0,0,29,27.48a2.32,2.32,0,0,0-2.48,1.43,15.51,15.51,0,0,0-.59,1.53l-.36,1.08c-.18.51-.3.86-.41,1.13-.16-.25-.36-.58-.63-1.06L21.88,27l-.15-.24a13.16,13.16,0,0,0,7.33-5.27c.17.27.36.6.6,1l2.66,4.61c.28.47.47.81.6,1.08-.28,0-.66-.11-1.18-.22Z"/></symbol><symbol id="cross" viewBox="0 0 26 26">
<path d="M25,26c-0.3,0-0.5-0.1-0.7-0.3L13,14.4L1.7,25.7c-0.4,0.4-1,0.4-1.4,0s-0.4-1,0-1.4L11.6,13L0.3,1.7 c-0.4-0.4-0.4-1,0-1.4s1-0.4,1.4,0L13,11.6L24.3,0.3c0.4-0.4,1-0.4,1.4,0s0.4,1,0,1.4L14.4,13l11.3,11.3c0.4,0.4,0.4,1,0,1.4 C25.5,25.9,25.3,26,25,26z"/>
</symbol><symbol id="dropdown-arrow" viewBox="0 0 16 8">
<path d="M8,7.8c-0.2,0-0.4,0-0.6,0C5.9,7.6,4.8,6.4,2.7,4.4L0.3,1.9c-0.4-0.4-0.4-1,0-1.4c0.4-0.4,1-0.4,1.4,0L4.2,3 c1.7,1.7,2.7,2.7,3.5,2.8c0.2,0,0.4,0,0.6,0c0.8-0.1,1.8-1.1,3.5-2.8l2.5-2.5c0.4-0.4,1-0.4,1.4,0c0.4,0.4,0.4,1,0,1.4l-2.4,2.5 c-2,2.1-3.2,3.2-4.7,3.4C8.4,7.8,8.2,7.8,8,7.8z"/>
</symbol><symbol id="education" viewBox="0 0 24 24">
	<path d="M15.8,3.7L13.7,3C13,2.7,12.5,2.6,12,2.6c-0.5,0-1,0.2-1.7,0.4L8.2,3.7C3.4,5.5,0.9,6.3,0.9,8.4
	c0,0.4,0.1,0.7,0.3,1.1v6c0,0.4,0.4,0.7,0.8,0.7c0.4,0,0.8-0.3,0.8-0.8v-4.5c0.4,0.2,0.8,0.4,1.3,0.6v1.9c0,2,0,3,0.3,3.9
	c0.6,1.8,2,3.3,3.9,3.9C9,21.4,10,21.4,12,21.4c2,0,3,0,3.9-0.3c1.8-0.6,3.3-2,3.9-3.9c0.3-0.9,0.3-1.9,0.3-3.9v-1.9
	c1.6-0.7,3.1-1.6,3.1-3.1C23.1,6.3,20.6,5.5,15.8,3.7z M15.2,11.2L13,12c-0.5,0.2-0.8,0.3-1,0.3c-0.2,0-0.5-0.1-1-0.3l-2.1-0.8
	c-3.1-1.1-5.9-2.1-5.9-2.8s2.9-1.7,5.9-2.8L11,4.9c0.5-0.2,0.8-0.3,1-0.3c0.2,0,0.5,0.1,1,0.3l2.1,0.8c3.1,1.1,5.9,2.1,5.9,2.8
	c0,0.2-0.4,0.7-2.4,1.5C17.7,10.3,16.6,10.7,15.2,11.2z M18,13.4c0,1.8,0,2.6-0.2,3.2c-0.4,1.2-1.4,2.2-2.6,2.6
	c-0.6,0.2-1.5,0.2-3.2,0.2c-1.8,0-2.6,0-3.2-0.2c-1.2-0.4-2.2-1.4-2.6-2.6C6,16.1,6,15.2,6,13.4v-1.1c0.7,0.2,1.4,0.5,2.2,0.8
	l2.1,0.8c0.7,0.3,1.2,0.4,1.7,0.4c0.5,0,1-0.2,1.7-0.4l2.2-0.8c0.8-0.3,1.5-0.5,2.1-0.8V13.4z"/>
</symbol><symbol id="eye-hidden" viewBox="0 0 24 24"><path d="M12,17.4a5.38,5.38,0,0,1-5.36-5l-3.93-3a12.11,12.11,0,0,0-1.38,2.08,1.25,1.25,0,0,0,0,1.1A12,12,0,0,0,12,19.2a11.75,11.75,0,0,0,2.92-.39L13,17.3A5.23,5.23,0,0,1,12,17.4Zm11.77,2.18-4.15-3.21a12.41,12.41,0,0,0,3.05-3.82,1.25,1.25,0,0,0,0-1.1A12,12,0,0,0,12,4.8,11.56,11.56,0,0,0,6.48,6.21L1.7,2.53a.59.59,0,0,0-.84.1h0l-.73,1a.59.59,0,0,0,.1.84l22.07,17a.59.59,0,0,0,.84-.1h0l.73-.95A.59.59,0,0,0,23.77,19.58Zm-6.89-5.33L15.4,13.11A3.46,3.46,0,0,0,15.6,12a3.55,3.55,0,0,0-3.51-3.6,3.67,3.67,0,0,0-1,.14A1.77,1.77,0,0,1,11.4,9.6a2.5,2.5,0,0,1-.06.38L8.58,7.84A5.38,5.38,0,0,1,17.4,12h0a5.27,5.27,0,0,1-.52,2.25Z"/></symbol><symbol id="eye" viewBox="0 0 24 24"><path d="M22.63,11.43A12,12,0,0,0,12,4.78,12,12,0,0,0,1.29,11.43a1.25,1.25,0,0,0,0,1.1A12,12,0,0,0,12,19.18a12,12,0,0,0,10.67-6.65A1.19,1.19,0,0,0,22.63,11.43ZM12,17.38a5.4,5.4,0,1,1,5.4-5.4,5.4,5.4,0,0,1-5.4,5.4Zm0-9a3.83,3.83,0,0,0-1,.14A1.8,1.8,0,0,1,8.5,11a3.6,3.6,0,1,0,4.41-2.52A3.4,3.4,0,0,0,12,8.38Z"/></symbol><symbol id="favourites" viewBox="0 0 24 24">
	<path d="M17,22.3c-0.1,0-0.2,0-0.3,0c-0.9-0.1-1.7-0.8-3.3-2.2c-0.5-0.4-0.8-0.7-1-0.8c-0.2-0.1-0.4-0.1-0.7,0
	c-0.2,0.1-0.5,0.3-1,0.8c-1.7,1.4-2.4,2.1-3.3,2.2c-1.1,0.1-2.2-0.4-2.8-1.3C4,20.2,4,19.2,4,17.1V9.7c0-2,0-3,0.3-3.9
	C4.9,4,6.3,2.6,8.1,2C9,1.7,10,1.7,12,1.7c2,0,3,0,3.9,0.3c1.8,0.6,3.3,2,3.9,3.9C20,6.7,20,7.7,20,9.7v7.4c0,2.2,0,3.2-0.5,3.9
	C18.9,21.8,18,22.3,17,22.3z M12,17.3c0.3,0,0.7,0.1,1,0.2c0.5,0.2,0.9,0.5,1.6,1.1c1,0.9,2,1.7,2.3,1.7c0.4,0,0.7-0.1,0.9-0.4
	c0.2-0.3,0.2-1.4,0.2-2.8V9.7c0-1.8,0-2.6-0.2-3.2c-0.4-1.2-1.4-2.2-2.6-2.6c-0.6-0.2-1.5-0.2-3.2-0.2c-1.8,0-2.6,0-3.2,0.2
	C7.6,4.3,6.6,5.2,6.2,6.4C6,7,6,7.9,6,9.7v7.4c0,1.4,0,2.6,0.2,2.8c0.2,0.3,0.6,0.5,0.9,0.4c0.3,0,1.2-0.8,2.3-1.7
	c0.7-0.6,1.1-0.9,1.6-1.1C11.3,17.4,11.7,17.3,12,17.3z"/>
</symbol><symbol id="live" viewBox="0 0 36 36"><path d="M18,22.2a7.4,7.4,0,0,0,7.4-7.4V8.4a7.4,7.4,0,1,0-14.8,0v6.4A7.4,7.4,0,0,0,18,22.2ZM12.6,8.4a5.4,5.4,0,1,1,10.8,0v6.4a5.4,5.4,0,0,1-10.8,0Z"/><path d="M19,28.55A13.79,13.79,0,0,0,31.8,14.8a1,1,0,0,0-2,0,11.8,11.8,0,0,1-23.6,0,1,1,0,0,0-2,0A13.79,13.79,0,0,0,17,28.55v4a9.38,9.38,0,0,0-1.18.2L14.56,33A1,1,0,1,0,15,35l1.26-.31a7,7,0,0,1,3.4,0L21,35A1,1,0,1,0,21.44,33l-1.26-.32a9.38,9.38,0,0,0-1.18-.2v-4Z"/></symbol><symbol id="location" viewBox="0 0 16 19">
<path d="M8 2C9.609 2 11.12 2.614 12.254 3.73C13.38 4.837 14 6.309 14 7.87C14 9.431 13.38 10.9 12.255 12.009L8 16.193L3.746 12.007C2.621 10.9 2.001 9.431 2.001 7.868C2.001 6.305 2.621 4.836 3.746 3.727C4.881 2.614 6.393 2 8 2ZM8 0C5.953 0 3.904 0.768 2.343 2.305C-0.781 5.379 -0.781 10.362 2.343 13.436L8 18.999L13.657 13.434C16.781 10.362 16.781 5.378 13.657 2.305C12.096 0.768 10.048 0 8 0Z"/>
<circle cx="8" cy="8" r="3"/>
</symbol><symbol id="ok" viewBox="0 0 24 24">
	<path d="M12.1,2C9.2,2,6.9,4.3,6.9,7.2c0,2.9,2.3,5.2,5.2,5.2s5.2-2.3,5.2-5.2C17.3,4.3,14.9,2,12.1,2z M12.1,9.3
	c-1.2,0-2.1-1-2.1-2.1s1-2.1,2.1-2.1s2.1,1,2.1,2.1S13.3,9.3,12.1,9.3z"/>
	<path d="M13.9,16.5c2.1-0.4,3.3-1.4,3.4-1.5c0.6-0.5,0.7-1.4,0.2-2c-0.5-0.6-1.4-0.7-2-0.2c0,0-1.3,1-3.5,1
	c-2.2,0-3.5-1-3.5-1c-0.6-0.5-1.5-0.4-2,0.2c-0.5,0.6-0.4,1.5,0.2,2c0.1,0.1,1.4,1.1,3.5,1.5l-3,3.1c-0.5,0.6-0.5,1.5,0,2
	c0.3,0.3,0.6,0.4,1,0.4c0.4,0,0.7-0.1,1-0.4l2.8-2.9l3,3c0.6,0.6,1.4,0.5,2,0c0.5-0.6,0.5-1.4,0-2L13.9,16.5z"/>
</symbol><symbol id="play" viewBox="0 0 24 24">
	<path d="M14.9,4.3c-2-1.1-3.5-2-4.7-2.5C9,1.2,7.9,0.9,6.8,1c-1.7,0.2-3.2,1-4.1,2.4c-0.6,0.8-0.9,1.9-1,3.3
	C1.6,8,1.6,9.7,1.6,12V12c0,2.2,0,4,0.1,5.3c0.1,1.3,0.4,2.4,1,3.3c1,1.3,2.5,2.2,4.1,2.4c1,0.1,2.1-0.2,3.4-0.8
	c1.2-0.6,2.8-1.4,4.7-2.5l0.1,0c2-1.1,3.5-2,4.6-2.8c1.1-0.8,1.9-1.5,2.4-2.5c0.7-1.5,0.7-3.2,0-4.8c-0.4-1-1.2-1.7-2.4-2.5
	C18.5,6.4,16.9,5.5,14.9,4.3L14.9,4.3z"/>
</symbol><symbol id="range-arrow-left" viewBox="0 0 6 10"><path d="M4.78,9.75a.73.73,0,0,1-.5-.19L2.71,8.16C1.37,7,.63,6.31.5,5.36a2.12,2.12,0,0,1,0-.71c.13-1,.87-1.61,2.21-2.81L4.28.44A.75.75,0,0,1,5.34.5a.76.76,0,0,1-.06,1.06L3.71,3C2.67,3.89,2,4.45,2,4.85a1.5,1.5,0,0,0,0,.3c.06.4.69,1,1.73,1.89l1.57,1.4A.76.76,0,0,1,5.34,9.5.75.75,0,0,1,4.78,9.75Z"/></symbol><symbol id="range-arrow-right" viewBox="0 0 6 10"><path d="M1.22,9.75A.75.75,0,0,1,.66,9.5.76.76,0,0,1,.72,8.44L2.29,7C3.33,6.11,4,5.55,4,5.15a1.5,1.5,0,0,0,0-.3C4,4.45,3.33,3.89,2.29,3L.72,1.56A.76.76,0,0,1,.66.5.75.75,0,0,1,1.72.44l1.57,1.4C4.63,3,5.37,3.69,5.5,4.64a2.17,2.17,0,0,1,0,.72c-.13.95-.87,1.61-2.21,2.8L1.72,9.56A.73.73,0,0,1,1.22,9.75Z"/></symbol><symbol id="req" viewBox="0 0 6 6"><path d="M2.61,5.29l.15-1.88L1.21,4.51.81,3.8,2.55,3,.81,2.2l.4-.69L2.76,2.59,2.61.71h.78L3.24,2.59,4.79,1.51l.4.69L3.45,3l1.74.79-.4.71L3.24,3.41l.15,1.88Z"/></symbol><symbol id="search-close" viewBox="0 0 18 18"><path d="M17,18a1,1,0,0,1-.71-.29L9,10.41l-7.29,7.3A1,1,0,0,1,.29,16.29L7.59,9,.29,1.71A1,1,0,0,1,1.71.29L9,7.59,16.29.29a1,1,0,1,1,1.42,1.42L10.41,9l7.3,7.29a1,1,0,0,1,0,1.42A1,1,0,0,1,17,18Z"/></symbol><symbol id="search-desktop" viewBox="0 0 20 20"><path d="M19.21,17.79,16,14.55a1,1,0,0,0-1-.22,8.3,8.3,0,1,0-.6.6,1,1,0,0,0,.22,1l3.24,3.24a1,1,0,0,0,1.42-1.42ZM8.79,15.07a6.29,6.29,0,1,1,6.28-6.28A6.28,6.28,0,0,1,8.79,15.07Z"/></symbol><symbol id="search-mobile" viewBox="0 0 14 14"><path d="M13.71,12.29,11.42,10a.9.9,0,0,0-.34-.22,6.17,6.17,0,1,0-1.29,1.29.9.9,0,0,0,.22.34l2.28,2.29a1,1,0,0,0,1.42-1.42Zm-7.57-2a4.15,4.15,0,1,1,4.15-4.15A4.14,4.14,0,0,1,6.14,10.29Z"/></symbol><symbol id="search-tablet" viewBox="0 0 16 16"><path d="M15.71,14.29,13,11.63a1,1,0,0,0-.57-.27,7,7,0,1,0-1.11,1.11,1,1,0,0,0,.27.57l2.66,2.67a1,1,0,0,0,1.42-1.42ZM7,12a5,5,0,1,1,5-5A5,5,0,0,1,7,12Z"/></symbol><symbol id="search" viewBox="0 0 24 24">
	<path d="M23.2,21.8l-4-4c-0.4-0.4-1-0.4-1.4,0c-0.4,0.4-0.4,1,0,1.4l4,4c0.4,0.4,1,0.4,1.4,0 C23.6,22.8,23.6,22.2,23.2,21.8z"/>
	<path d="M20.5,10.5c0-5.5-4.5-10-10-10s-10,4.5-10,10s4.5,10,10,10S20.5,16,20.5,10.5z M10.5,18.5c-4.4,0-8-3.6-8-8 s3.6-8,8-8s8,3.6,8,8S14.9,18.5,10.5,18.5z"/>
</symbol><symbol id="slider-arrow-left" viewBox="0 0 10 18">
<path d="M8.2,18c-0.3,0-0.5-0.1-0.7-0.3l-2.8-2.8c-2.4-2.4-3.6-3.6-3.8-5.3c-0.1-0.4-0.1-0.8,0-1.3 c0.2-1.7,1.4-2.9,3.8-5.3l2.8-2.8c0.4-0.4,1-0.4,1.4,0c0.4,0.4,0.4,1,0,1.4L6.1,4.5C4,6.6,3,7.6,2.8,8.6c0,0.2,0,0.5,0,0.8 c0.1,1,1.2,2.1,3.3,4.1l2.8,2.8c0.4,0.4,0.4,1,0,1.4C8.7,17.9,8.5,18,8.2,18z"/>
</symbol><symbol id="slider-arrow-right" viewBox="0 0 10 18">
<path d="M1.8,18c-0.3,0-0.5-0.1-0.7-0.3c-0.4-0.4-0.4-1,0-1.4l2.8-2.8C6,11.4,7,10.4,7.2,9.4c0-0.2,0-0.5,0-0.8 C7,7.6,6,6.6,3.9,4.5L1.1,1.7c-0.4-0.4-0.4-1,0-1.4c0.4-0.4,1-0.4,1.4,0l2.8,2.8c2.4,2.4,3.6,3.6,3.8,5.3c0.1,0.4,0.1,0.8,0,1.3 c-0.2,1.7-1.4,2.9-3.8,5.3l-2.8,2.8C2.3,17.9,2.1,18,1.8,18z"/>
</symbol><symbol id="sort" viewBox="0 0 16 10"><path d="M15,9.75H7a.75.75,0,0,1,0-1.5h8a.75.75,0,0,1,0,1.5Zm0-4H4a.75.75,0,0,1,0-1.5H15a.75.75,0,0,1,0,1.5Zm0-4H1A.76.76,0,0,1,.25,1,.76.76,0,0,1,1,.25H15a.76.76,0,0,1,.75.75A.76.76,0,0,1,15,1.75Z"/></symbol><symbol id="tg" viewBox="0 0 24 24">
	<path d="M4.7,11c4.5-2,7.6-3.3,9.1-3.9C18.1,5.3,19,5,19.6,5c0.1,0,0.4,0,0.6,0.2c0.2,0.1,0.2,0.3,0.2,0.4
	c0,0.1,0.1,0.4,0,0.6c-0.2,2.5-1.2,8.4-1.8,11.2C18.5,18.6,18,19,17.6,19c-0.9,0.1-1.6-0.6-2.5-1.2c-1.4-0.9-2.1-1.5-3.5-2.3
	c-1.5-1-0.5-1.6,0.3-2.5c0.2-0.2,4.2-3.9,4.3-4.2c0,0,0-0.2-0.1-0.3c-0.1-0.1-0.2-0.1-0.3,0c-0.1,0-2.3,1.5-6.6,4.3
	c-0.6,0.4-1.2,0.6-1.7,0.6c-0.6,0-1.6-0.3-2.4-0.6c-1-0.3-1.7-0.5-1.7-1C3.6,11.6,4,11.3,4.7,11z"/>
</symbol><symbol id="tooltip" viewBox="0 0 20 20"><path d="M10,19.75A9.75,9.75,0,1,1,19.75,10,9.76,9.76,0,0,1,10,19.75Zm0-18A8.25,8.25,0,1,0,18.25,10,8.26,8.26,0,0,0,10,1.75Zm0,11.7a.76.76,0,0,1-.75-.75v-.28a4.79,4.79,0,0,1,1.18-3.15l.83-.95A1.73,1.73,0,0,0,9.68,5.47,1.7,1.7,0,0,0,8.31,6.63L8,7.54a.75.75,0,0,1-1.42-.48l.3-.9a3.23,3.23,0,0,1,5.65-.92,3.25,3.25,0,0,1-.15,4.07l-.83.94a3.31,3.31,0,0,0-.81,2.17v.28A.76.76,0,0,1,10,13.45Z"/><path d="M10.9,15.4a.9.9,0,1,1-.9-.9A.9.9,0,0,1,10.9,15.4Z"/></symbol><symbol id="video" viewBox="0 0 36 36"><path d="M10.52,35c-.2,0-.41,0-.61,0a9,9,0,0,1-6.31-3.6C1.89,29,1.89,25.35,1.89,18S1.89,7,3.6,4.63A9,9,0,0,1,9.91,1C12.8.74,16,2.57,22.47,6.25s9.68,5.52,10.87,8.14a8.78,8.78,0,0,1,0,7.22c-1.18,2.62-4.41,4.46-10.85,8.14C16.49,33.17,13.27,35,10.52,35Zm0-32-.42,0a7,7,0,0,0-4.9,2.79C3.89,7.61,3.89,11.08,3.89,18s0,10.39,1.32,12.19A7,7,0,0,0,10.11,33c2.25.25,5.3-1.51,11.37-5s9.12-5.19,10-7.23a6.74,6.74,0,0,0,0-5.56c-.92-2-4-3.78-10-7.23h0C15.77,4.73,12.74,3,10.53,3Z"/></symbol><symbol id="vk" viewBox="0 0 24 24">
	<path d="M12.9,17.9C6.1,17.9,2.2,13.5,2,6.1h3.4c0.1,5.4,2.6,7.7,4.6,8.2V6.1h3.2v4.7c2-0.2,4-2.3,4.7-4.7h3.2 c-0.5,2.9-2.8,5-4.4,5.9c1.6,0.7,4.2,2.6,5.1,5.9h-3.5c-0.8-2.2-2.7-4-5.2-4.2v4.2H12.9z"/>
</symbol><symbol id="wallet" viewBox="0 0 22 22"><path d="M19.42,5.16V4.42a3.26,3.26,0,0,0-3.25-3.24h0a3.81,3.81,0,0,0-.59.05L2.65,3.44h0A3.25,3.25,0,0,0,0,6.63V17.68a3.15,3.15,0,0,0,3.14,3.14H18.86A3.15,3.15,0,0,0,22,17.68V8.25A3.15,3.15,0,0,0,19.42,5.16ZM2.92,5,15.85,2.78h0a1.63,1.63,0,0,1,.31,0h0a1.67,1.67,0,0,1,1.67,1.67v.69H3.14a3.31,3.31,0,0,0-.77.09A1.74,1.74,0,0,1,2.92,5ZM20.43,17.68a1.58,1.58,0,0,1-1.57,1.57H3.14a1.58,1.58,0,0,1-1.57-1.57V8.25A1.57,1.57,0,0,1,3.14,6.68H18.86a1.57,1.57,0,0,1,1.57,1.57Z"/><circle cx="16.5" cy="12.96" r="1.57"/></symbol><symbol id="yt" viewBox="0 0 24 24"><path d="M21.6,7.2a2.52,2.52,0,0,0-1.8-1.8C18.3,5,12,5,12,5s-6.3,0-7.8.4A2.37,2.37,0,0,0,2.4,7.2,26.68,26.68,0,0,0,2,12a26.68,26.68,0,0,0,.4,4.8,2.52,2.52,0,0,0,1.8,1.8c1.5.4,7.8.4,7.8.4s6.3,0,7.8-.4a2.52,2.52,0,0,0,1.8-1.8A26.68,26.68,0,0,0,22,12,26.68,26.68,0,0,0,21.6,7.2ZM10,15V9l5.2,3Z"/></symbol></svg>