<?xml version="1.0" standalone="no"?>
<!DOCTYPE svg PUBLIC "-//W3C//DTD SVG 20010904//EN"
 "http://www.w3.org/TR/2001/REC-SVG-20010904/DTD/svg10.dtd">
<svg version="1.0" xmlns="http://www.w3.org/2000/svg"
 width="700.000000pt" height="700.000000pt" viewBox="0 0 700.000000 700.000000"
 preserveAspectRatio="xMidYMid meet">
<metadata>
Created by potrace 1.14, written by Peter Selinger 2001-2017
</metadata>
<g transform="translate(0.000000,700.000000) scale(0.100000,-0.100000)"
fill="#000000" stroke="none">
<path d="M3425 6991 c-151 -40 -258 -187 -250 -344 l2 -37 -131 -79 c-186
-111 -715 -425 -753 -447 -18 -11 -146 -87 -285 -170 -139 -83 -365 -218 -503
-299 -137 -82 -297 -176 -354 -211 l-104 -62 -26 19 c-82 60 -215 72 -312 27
-126 -58 -202 -188 -192 -328 8 -124 67 -213 189 -286 18 -11 19 -54 19 -1274
l0 -1264 -29 -15 c-200 -107 -241 -383 -81 -544 105 -106 290 -124 404 -39
l28 20 404 -240 c222 -133 571 -340 774 -461 204 -121 465 -276 580 -345 116
-69 246 -146 289 -172 l79 -48 3 -63 c7 -175 129 -309 294 -326 61 -6 150 14
199 45 62 39 131 134 147 203 3 13 7 50 8 82 l1 58 55 34 c30 18 213 126 405
240 193 114 465 276 605 360 140 84 413 246 605 360 193 114 374 223 404 241
48 30 57 32 71 19 31 -28 115 -58 171 -61 262 -13 432 278 296 509 -29 49 -65
84 -122 119 l-40 25 0 1263 0 1263 40 25 c57 35 93 70 122 119 130 221 -25
513 -272 513 -56 0 -143 -27 -181 -55 l-30 -23 -265 157 c-859 512 -992 591
-1000 591 -5 0 -9 5 -9 10 0 6 -4 10 -9 10 -5 0 -166 94 -357 208 -192 114
-356 211 -364 215 -8 4 -40 22 -70 41 l-54 34 -2 64 c-7 179 -133 314 -303
323 -36 2 -79 1 -96 -4z m-80 -621 c31 -16 66 -30 76 -30 15 0 19 -7 19 -32 1
-49 1 -2397 1 -2439 -1 -33 -4 -37 -40 -47 -21 -7 -54 -23 -73 -36 l-35 -23
-54 32 c-73 44 -609 362 -1389 825 -355 211 -654 389 -665 397 -16 10 -20 25
-20 66 l0 52 150 89 c83 48 166 98 185 111 19 12 168 101 330 197 542 321 963
572 1210 720 135 81 246 147 246 148 1 0 28 -13 59 -30z m1035 -368 c327 -194
362 -215 385 -229 11 -7 28 -16 38 -19 9 -3 17 -10 17 -15 0 -5 4 -9 9 -9 5 0
78 -41 163 -91 645 -385 838 -500 842 -507 3 -4 2 -12 -2 -18 -6 -8 -201 -71
-402 -129 -25 -7 -148 -44 -274 -83 l-229 -70 -44 44 c-54 52 -135 85 -216 88
l-59 1 -100 175 c-55 96 -188 328 -294 515 -107 187 -199 347 -204 355 -17 28
-175 304 -178 312 -2 4 65 -33 150 -83 84 -50 263 -157 398 -237z m-766 227
c36 -62 347 -603 356 -619 4 -8 27 -46 49 -83 23 -38 41 -70 41 -72 0 -2 79
-141 175 -309 l174 -305 -30 -59 c-35 -67 -46 -167 -27 -241 l11 -42 -89 -86
c-247 -238 -532 -513 -576 -557 l-49 -48 -44 12 c-45 13 -45 13 -45 59 -1 94
-1 2397 0 2421 1 25 1 25 17 -5 9 -16 26 -46 37 -66z m2395 -1443 c17 -9 31
-24 32 -34 4 -89 3 -2346 -2 -2353 -3 -6 -77 120 -164 278 -87 158 -167 304
-178 323 -11 19 -30 53 -42 75 -20 38 -661 1202 -711 1293 l-24 43 25 42 c13
23 30 67 38 96 l14 54 74 23 c98 29 733 223 784 238 39 12 41 12 81 -25 23
-20 56 -45 73 -53z m-4692 -124 c81 -49 294 -176 473 -282 282 -167 643 -382
1138 -676 73 -43 149 -89 170 -102 20 -12 47 -27 59 -34 18 -9 21 -18 19 -51
-2 -21 1 -60 7 -85 11 -52 27 -31 -138 -178 -138 -123 -279 -248 -315 -281
-19 -17 -44 -40 -56 -50 -12 -10 -50 -44 -85 -75 -118 -104 -134 -118 -140
-118 -4 0 -24 7 -45 16 -21 9 -65 17 -98 18 l-60 3 -71 129 c-67 122 -110 199
-167 304 -25 45 -112 204 -183 335 -21 39 -46 84 -55 100 -10 17 -31 55 -48
85 -16 30 -52 96 -79 145 -27 50 -66 121 -87 158 -20 37 -45 82 -55 100 -10
18 -60 109 -111 202 -51 94 -104 190 -118 215 -13 25 -40 74 -59 110 -20 36
-39 69 -44 75 -9 9 -12 25 -5 25 3 0 71 -40 153 -88z m-329 -89 c10 -21 179
-328 374 -683 393 -714 571 -1038 614 -1118 16 -30 38 -70 50 -90 20 -37 20
-37 1 -65 -22 -32 -57 -128 -57 -156 0 -20 3 -18 -320 -132 -52 -18 -198 -70
-325 -114 l-230 -81 -37 32 c-20 18 -51 40 -67 49 -17 8 -31 21 -32 28 -5 61
-2 2374 2 2371 4 -2 16 -21 27 -41z m3584 -267 c25 -7 67 -13 94 -12 l49 1 31
-55 c28 -50 45 -81 119 -215 12 -22 35 -65 52 -95 17 -30 66 -120 110 -200 44
-80 93 -167 108 -195 72 -130 135 -245 162 -295 17 -30 65 -118 108 -195 43
-77 91 -165 107 -195 17 -30 79 -143 138 -250 104 -189 127 -231 213 -389 l40
-73 -42 27 c-23 14 -57 34 -74 44 -18 10 -297 177 -621 370 -324 193 -590 351
-592 351 -2 0 -18 10 -37 23 -19 12 -190 114 -381 227 l-347 205 7 35 c11 61
11 103 -1 157 l-12 52 225 218 c124 120 284 275 356 345 72 70 134 128 137
128 3 0 26 -6 51 -14z m-751 -1064 c35 -22 233 -139 439 -262 206 -123 501
-298 655 -390 154 -92 427 -255 607 -361 l327 -194 -7 -40 c-4 -22 -6 -60 -5
-85 l1 -45 -370 -220 c-203 -121 -420 -250 -481 -286 -62 -36 -218 -129 -347
-206 -129 -77 -391 -233 -583 -347 l-347 -207 -44 26 c-24 14 -46 31 -48 38
-3 10 -2 2499 1 2519 0 4 16 14 35 23 18 9 46 29 61 45 16 17 32 30 35 30 3 0
35 -17 71 -38z m-444 -54 c9 -16 11 -2410 1 -2400 -6 6 -104 174 -176 302 -32
57 -369 644 -494 860 -148 258 -159 278 -148 285 17 10 52 96 59 144 5 37 -1
126 -12 160 -1 4 63 65 143 136 80 71 161 143 180 161 50 46 86 78 154 137 63
55 145 128 211 189 41 39 68 47 82 26z m-1315 -986 c8 -19 87 -73 128 -87 25
-9 71 -17 103 -17 62 -2 64 -3 97 -63 12 -22 92 -161 178 -310 85 -148 252
-439 370 -645 118 -206 218 -379 223 -384 5 -6 9 -13 9 -17 0 -7 -144 78 -830
486 -146 87 -280 167 -299 177 -19 11 -59 35 -88 54 -29 19 -55 34 -57 34 -2
0 -79 46 -172 102 -93 55 -178 106 -189 112 -85 48 -365 218 -369 225 -15 23
13 41 112 76 59 20 116 41 127 46 11 5 67 25 125 44 58 20 191 67 295 104 185
67 230 79 237 63z"/>
</g>
</svg>
