<svg width="52" height="52" viewBox="0 0 52 52" fill="none" xmlns="http://www.w3.org/2000/svg">
<path fill-rule="evenodd" clip-rule="evenodd" d="M24.8311 36.4207C24.6856 36.2756 24.5702 36.1032 24.4914 35.9133C24.4126 35.7235 24.3721 35.52 24.3721 35.3145C24.3721 35.1089 24.4126 34.9054 24.4914 34.7156C24.5702 34.5258 24.6856 34.3534 24.8311 34.2082L33.103 25.9395L24.8311 17.6707C24.5377 17.3773 24.3729 16.9794 24.3729 16.5645C24.3729 16.1495 24.5377 15.7516 24.8311 15.4582C25.1245 15.1648 25.5224 15 25.9374 15C26.3523 15 26.7502 15.1648 27.0436 15.4582L36.4186 24.8332C36.5641 24.9784 36.6796 25.1508 36.7583 25.3406C36.8371 25.5304 36.8777 25.7339 36.8777 25.9395C36.8777 26.145 36.8371 26.3485 36.7583 26.5383C36.6796 26.7282 36.5641 26.9006 36.4186 27.0457L27.0436 36.4207C26.8985 36.5662 26.726 36.6817 26.5362 36.7604C26.3464 36.8392 26.1429 36.8798 25.9374 36.8798C25.7318 36.8798 25.5283 36.8392 25.3385 36.7604C25.1487 36.6817 24.9763 36.5662 24.8311 36.4207Z"/>
<path fill-rule="evenodd" clip-rule="evenodd" d="M15 25.9395C15 25.5251 15.1646 25.1276 15.4576 24.8346C15.7507 24.5416 16.1481 24.377 16.5625 24.377L32.1875 24.377C32.6019 24.377 32.9993 24.5416 33.2924 24.8346C33.5854 25.1276 33.75 25.5251 33.75 25.9395C33.75 26.3539 33.5854 26.7513 33.2924 27.0443C32.9993 27.3373 32.6019 27.502 32.1875 27.502L16.5625 27.502C16.1481 27.502 15.7507 27.3373 15.4576 27.0443C15.1646 26.7513 15 26.3539 15 25.9395Z"/>
</svg>