<svg width="24" height="24" viewBox="0 0 24 24" fill="none" xmlns="http://www.w3.org/2000/svg">
<path d="M22.8 17.4V6.59999C22.8 5.60399 21.996 4.79999 21 4.79999H4.188C3.192 4.79999 2.388 5.60399 2.388 6.59999V17.4C2.388 18.396 3.192 19.2 4.188 19.2H21C21.996 19.2 22.8 18.396 22.8 17.4ZM21.228 6.46799C21.624 6.86399 21.408 7.27199 21.192 7.47599L16.32 11.94L21 16.812C21.144 16.98 21.24 17.244 21.072 17.424C20.916 17.616 20.556 17.604 20.4 17.484L15.156 13.008L12.588 15.348L10.032 13.008L4.788 17.484C4.632 17.604 4.272 17.616 4.116 17.424C3.948 17.244 4.044 16.98 4.188 16.812L8.868 11.94L3.996 7.47599C3.78 7.27199 3.564 6.86399 3.96 6.46799C4.356 6.07199 4.764 6.26399 5.1 6.55199L12.588 12.6L20.088 6.55199C20.424 6.26399 20.832 6.07199 21.228 6.46799V6.46799Z"/>
</svg>