<svg width="12" height="12" viewBox="0 0 12 12" fill="none" xmlns="http://www.w3.org/2000/svg">
<path d="M0 6C0 2.68629 2.68629 0 6 0C9.31371 0 12 2.68629 12 6C12 9.31371 9.31371 12 6 12C2.68629 12 0 9.31371 0 6ZM5.625 0.807415C5.12293 0.960959 4.62347 1.42292 4.20956 2.19899C4.10222 2.40026 4.00301 2.61888 3.91328 2.85271C4.44216 2.97068 5.01787 3.04584 5.625 3.06791V0.807415ZM3.18639 2.65458C3.29357 2.36652 3.41451 2.09596 3.54779 1.84605C3.68183 1.59473 3.83147 1.35931 3.99545 1.14626C3.35215 1.41223 2.77324 1.80236 2.28859 2.28678C2.5597 2.42466 2.86057 2.54833 3.18639 2.65458ZM2.63134 5.625C2.65856 4.82249 2.77263 4.05947 2.95862 3.36922C2.53149 3.23026 2.13733 3.06226 1.78535 2.86908C1.2048 3.64929 0.835789 4.59623 0.763184 5.625H2.63134ZM3.68152 3.56913C3.51467 4.18983 3.40872 4.88474 3.38179 5.625H5.625V3.81836C4.94265 3.7952 4.28781 3.70918 3.68152 3.56913ZM6.375 3.81836V5.625H8.6182C8.59127 4.88474 8.48533 4.18983 8.31848 3.56913C7.71219 3.70918 7.05734 3.7952 6.375 3.81836ZM3.38179 6.375C3.40872 7.11525 3.51467 7.81016 3.68152 8.43086C4.28781 8.29081 4.94265 8.20479 5.625 8.18163V6.375H3.38179ZM6.375 6.375V8.18163C7.05734 8.20479 7.71219 8.29081 8.31848 8.43086C8.48533 7.81016 8.59127 7.11525 8.6182 6.375H6.375ZM3.91328 9.14728C4.00301 9.38111 4.10222 9.59973 4.20956 9.801C4.62347 10.5771 5.12293 11.039 5.625 11.1926V8.93208C5.01787 8.95415 4.44216 9.02931 3.91328 9.14728ZM3.99545 10.8537C3.83147 10.6407 3.68183 10.4053 3.54779 10.1539C3.41451 9.90403 3.29357 9.63347 3.18639 9.34541C2.86057 9.45166 2.5597 9.57533 2.28859 9.71321C2.77325 10.1976 3.35216 10.5878 3.99545 10.8537ZM2.95862 8.63078C2.77263 7.94052 2.65856 7.1775 2.63134 6.375H0.763184C0.835789 7.40377 1.2048 8.3507 1.78535 9.13091C2.13733 8.93773 2.53149 8.76973 2.95862 8.63078ZM8.00455 10.8537C8.64784 10.5878 9.22675 10.1976 9.71141 9.71321C9.44029 9.57533 9.13942 9.45166 8.81361 9.34541C8.70642 9.63347 8.58549 9.90403 8.4522 10.1539C8.31816 10.4053 8.16852 10.6407 8.00455 10.8537ZM6.375 8.93208V11.1926C6.87707 11.039 7.37653 10.5771 7.79044 9.801C7.89778 9.59973 7.99698 9.38111 8.08671 9.14728C7.55784 9.02931 6.98212 8.95415 6.375 8.93208ZM9.04137 8.63078C9.4685 8.76973 9.86266 8.93773 10.2146 9.13091C10.7952 8.3507 11.1642 7.40377 11.2368 6.375H9.36866C9.34144 7.1775 9.22736 7.94052 9.04137 8.63078ZM11.2368 5.625C11.1642 4.59623 10.7952 3.64929 10.2146 2.86908C9.86266 3.06226 9.4685 3.23026 9.04137 3.36922C9.22736 4.05947 9.34144 4.82249 9.36866 5.625H11.2368ZM8.4522 1.84605C8.58549 2.09596 8.70642 2.36652 8.81361 2.65458C9.13942 2.54833 9.44029 2.42466 9.71141 2.28678C9.22675 1.80236 8.64784 1.41223 8.00455 1.14626C8.16852 1.35931 8.31816 1.59473 8.4522 1.84605ZM8.08671 2.85271C7.99698 2.61888 7.89778 2.40026 7.79044 2.19899C7.37653 1.42292 6.87707 0.960959 6.375 0.807415V3.06791C6.98212 3.04584 7.55784 2.97068 8.08671 2.85271Z"/>
</svg>