<svg xmlns="http://www.w3.org/2000/svg" fill="none" viewBox="0 0 136 101"><path fill="#FF5400" d="M65.018 57.892h2.833v-11.36h8.47V57.89h2.814V44.07H65.018v13.822Zm31.994-11.359h5.652v11.358h2.813V46.533h5.652V44.07H97.012v2.464Zm18.701 9.171v-4.766h4.485c1.526 0 2.659.942 2.659 2.382 0 1.44-1.133 2.384-2.659 2.384h-4.485Zm7.506 1.616c.8-.381 1.416-.916 1.852-1.603.437-.688.655-1.487.655-2.397 0-.909-.218-1.708-.655-2.395-.436-.688-1.052-1.223-1.852-1.604-.799-.38-1.75-.57-2.856-.57h-4.65v-4.682h-2.832V57.89h7.482c1.106 0 2.057-.19 2.856-.571ZM47.755 80.04c-.664 1.074-.996 2.33-.996 3.767 0 1.438.332 2.694.996 3.77.663 1.075 1.588 1.914 2.774 2.516 1.185.601 2.564.903 4.137.903 1.425 0 2.694-.246 3.806-.737s2.009-1.183 2.69-2.074c.682-.89 1.09-1.92 1.226-3.087h-2.85c-.421 2.267-2.392 3.47-4.89 3.47-3.375 0-5.02-2.248-5.02-4.76 0-2.512 1.645-4.76 5.02-4.76 2.535 0 4.463 1.217 4.89 3.47h2.85c-.136-1.18-.544-2.212-1.225-3.096-.682-.885-1.58-1.572-2.69-2.065-1.113-.491-2.382-.737-3.807-.737-1.573 0-2.952.301-4.137.903-1.186.603-2.11 1.44-2.774 2.516Zm19.512-.68h8.47v11.36h2.814V76.897H64.434v13.822h2.833V79.36Zm31.009 11.359 4.309-5.482 4.291 5.482h3.552l-5.857-7.194 5.433-6.628h-3.516l-3.813 4.887-3.864-4.887h-3.588l5.468 6.62-5.892 7.202h3.477Zm16.291.019h3.021l9.093-13.822h-3.021l-4.825 7.334-5.146-7.354h-3.146l6.814 9.6-2.79 4.242Zm-20.578-.019V88.32H84.38v-3.373h9.037V82.65H84.38v-3.29h9.516v-2.465H81.548V90.72h12.44ZM25.596 76.897h-3.034l-4.587 5.8h-3.681v-5.8h-2.815v13.822h2.815v-5.812h3.695l4.535 5.812H25.8l-5.617-7.244 5.414-6.578Z"/><path fill="#FF5400" d="M102.392 33.788V2.518h31.27v31.27h-31.27Zm31.271 32.828H55.12v-31.27h78.543v31.27Zm-.001 32.828H1.557V68.173h132.105v31.27ZM100.835.96v32.828H53.563v32.828H0V101h135.22V.96h-34.385Z"/><path fill="#FF5400" d="M111.116 11.242v2.647h9.302l-9.588 9.589 1.873 1.873 9.587-9.589v9.302h2.648V11.242h-13.822ZM44.392 76.916l-4.806 7.305-5.125-7.325h-3.146l6.793 9.571-2.808 4.271h3.06l9.093-13.822h-3.061ZM88.657 51.42l-5.144-7.351h-3.145l6.812 9.597-2.792 4.245h3.024l9.093-13.822H93.48l-4.823 7.331Z"/></svg>