<svg xmlns="http://www.w3.org/2000/svg" fill="none" viewBox="0 0 124 50"><path fill="#FF5400" d="M47.849 17.738h2.085V9.38h6.233v8.358h2.071V7.567h-10.39v10.171ZM71.393 9.38h4.16v8.358h2.07V9.38h4.16V7.567h-10.39V9.38Zm17.063 6.749h-3.3V12.62h3.3c1.123 0 1.956.694 1.956 1.754s-.833 1.754-1.956 1.754Zm2.224-4.697c-.589-.28-1.289-.42-2.103-.42h-3.422V7.566h-2.084v10.171h5.507c.813 0 1.513-.14 2.102-.42a3.195 3.195 0 0 0 1.362-1.18c.322-.506.482-1.094.482-1.763 0-.67-.16-1.257-.482-1.763-.32-.507-.774-.9-1.362-1.18ZM35.145 34.038c-.489.79-.733 1.715-.733 2.773s.245 1.983.733 2.774c.488.79 1.168 1.408 2.04 1.851.873.443 1.888.664 3.045.664 1.05 0 1.983-.18 2.801-.542.819-.361 1.48-.87 1.98-1.525a4.527 4.527 0 0 0 .903-2.272h-2.099c-.309 1.667-1.76 2.553-3.598 2.553-2.483 0-3.693-1.654-3.693-3.503 0-1.848 1.21-3.503 3.693-3.503 1.866 0 3.285.895 3.598 2.554h2.099c-.1-.868-.4-1.628-.902-2.279-.502-.65-1.163-1.157-1.98-1.519-.819-.361-1.753-.543-2.801-.543-1.158 0-2.173.222-3.045.665-.873.443-1.553 1.06-2.041 1.852Zm14.358-.5h6.233v8.36h2.071V31.724H47.42v10.172h2.084v-8.359Zm22.821 8.359 3.17-4.034 3.158 4.034h2.614l-4.31-5.294 3.998-4.878h-2.586L75.56 35.32l-2.844-3.596h-2.64l4.024 4.872-4.337 5.3h2.56Zm11.988.014h2.224l6.69-10.172h-2.223l-3.55 5.398-3.787-5.412h-2.315l5.014 7.064-2.053 3.122Zm-15.144-.014v-1.765h-7.07V37.65h6.65v-1.69h-6.65v-2.421H69.1v-1.814h-9.087v10.172h9.155ZM18.837 31.725h-2.234l-3.375 4.268h-2.71v-4.268h-2.07v10.172h2.07V37.62h2.72l3.338 4.277h2.41l-4.134-5.331 3.985-4.84Z"/><path fill="#FF5400" d="M122.524 24.16H99.511V1.145h23.013V24.16ZM98.365 48.317H1.146V25.305h97.22v23.013Zm-57.8-47.172h57.8V24.16h-57.8V1.146ZM123.67 0H39.419v24.159H0v25.304h99.511V25.305h24.159V0Z"/><path fill="#FF5400" d="m32.669 31.739-3.537 5.376-3.772-5.39h-2.315l5 7.043-2.068 3.143h2.253l6.691-10.172H32.67Zm32.576-18.764-3.786-5.41h-2.315l5.013 7.063-2.054 3.124h2.225L71.02 7.58h-2.226l-3.55 5.395Zm41.854 4.975 7.056-7.056v6.844h1.949V7.567h-10.172v1.948h6.845l-7.056 7.056 1.378 1.378Z"/></svg>