<svg xmlns="http://www.w3.org/2000/svg" fill="none" viewBox="0 0 155 49"><path fill="#002F6C" d="M50.538 31.563c0-1.38.99-2.94 2.728-2.94 1.83 0 2.638 1.499 2.729 2.94h-5.457Zm9.865 1.648c0-4.679-2.879-7.737-7.016-7.737-4.527 0-7.075 3.657-7.075 7.916 0 3.986 2.219 7.823 7.616 7.823 1.827 0 3.867-.417 5.965-1.739l-.96-2.727c-1.707.811-2.819 1.08-4.287 1.08-2.008 0-3.926-1.26-4.017-3.3h9.774v-1.316Zm-39.605-1.648c0-1.38.991-2.94 2.728-2.94 1.832 0 2.638 1.499 2.73 2.94h-5.458Zm9.865 1.648c0-4.679-2.878-7.737-7.016-7.737-4.527 0-7.075 3.657-7.075 7.916 0 3.986 2.22 7.823 7.616 7.823 1.827 0 3.865-.417 5.965-1.739l-.96-2.727c-1.709.811-2.819 1.08-4.287 1.08-2.01 0-3.928-1.26-4.019-3.3h9.776v-1.316Zm7.501 4.831h-1.77v-3.718h1.56c2.068 0 3.178.48 3.178 1.83 0 1.439-1.469 1.888-2.968 1.888Zm-1.678-9.384h1.77c1.766 0 2.428.54 2.428 1.47 0 1.168-1.08 1.527-2.879 1.527h-1.319v-2.997Zm5.757 4.012v-.121c1.409-.299 2.578-1.229 2.578-3.208 0-2.362-1.983-3.223-3.932-3.484-.596-.08-1.905-.083-2.634-.083h-6.17v15.14h5.181c.574 0 1.428-.001 2.094-.02 2.726-.13 6.09-1.104 6.09-4.627 0-2.159-1.17-3.238-3.207-3.597Zm95.816 5.258h-1.498v-4.226h1.44c1.527 0 3.208.24 3.208 2.037 0 1.769-1.441 2.189-3.15 2.189Zm.721-7.237h-2.219v-5.576l-4.317 1.157v14.642h5.517c4.017 0 7.765-1.08 7.765-5.246 0-3.537-3.028-4.977-6.746-4.977Zm-28.027 6.476c-.413.317-1.276.7-2.422.7-1.469 0-2.295-.733-2.295-1.877 0-1.149.891-1.785 2.74-1.85l1.977-.062v3.088Zm-1.914-11.693c-2.04 0-4.014.316-6.086 1.657l1.308 2.613a7.832 7.832 0 0 1 3.857-1.02c1.496 0 2.835.663 2.835 2.255v.257l-2.617.1c-3.82.127-6.4 1.784-6.4 4.97 0 2.997 2.163 4.907 5.031 4.907 1.946 0 3.283-.731 4.269-1.624l.671 1.325h3.378v-9.832c0-3.984-2.23-5.608-6.246-5.608ZM67.815 38.096c-.78 0-1.38-.27-1.86-.599v-7.165c.51-.779 1.86-1.709 2.998-1.709 1.739 0 2.758 1.11 2.758 4.229 0 2.578-.958 5.245-3.896 5.245Zm2.008-12.622c-1.679 0-2.968.811-4.078 1.68l-.48-1.38h-3.627V48.29l4.317-1.32v-6.386c.78.42 1.8.63 2.91.63 4.466 0 7.163-3.807 7.163-8.304 0-4.797-2.728-7.436-6.205-7.436Zm48.95 2.07c0 5.275-.21 8.034-1.168 9.293-.481.63-1.23 1.05-2.01 1.169l1.199 3.208c.99-.03 2.519-.45 3.568-1.498 1.38-1.35 1.829-3.058 2.039-4.858.18-1.528.3-3.327.3-4.916v-.75h3.376v11.722h4.318v-15.14h-11.622v1.77Zm-20.877 1.648v11.722h-4.318V29.192h-4.197v-3.418h13.252l-.937 3.418h-3.8Zm-13.51 12.022c-4.857 0-7.345-3.567-7.345-7.824 0-4.767 3.297-7.915 7.705-7.915 1.948 0 2.968.39 3.777.869v3.419c-1.08-.78-1.95-1.05-3.148-1.05-2.488 0-4.09 1.828-4.09 4.467 0 2.368 1.242 4.677 4.03 4.677.778 0 1.81-.336 2.92-.907l1.037 2.825c-1.26.84-3.358 1.439-4.887 1.439Zm-73.84 0C3.979 41.214.413 36.478.413 30.542c0-5.997 4.197-10.914 11.092-10.914 1.83 0 3.418.24 4.797.96v3.868c-1.83-1.08-3.298-1.29-4.647-1.29-4.677 0-6.401 3.448-6.401 7.076 0 4.047 2.174 7.255 5.98 7.255 1.68 0 3.033-.466 4.651-1.335l1.166 3.134c-2.427 1.529-4.497 1.918-6.505 1.918ZM145.752.521c.272.128.514.28.714.464.661.604.972 1.64 1.109 2.655.095.723.137 1.516.112 2.387a25.062 25.062 0 0 0-3.317.69c-1.845.511-3.375 1.13-4.639 1.806a14.92 14.92 0 0 0-2.053 1.312c-.811.623-1.55 1.409-1.746 2.287a2.956 2.956 0 0 0-.037.887 19.868 19.868 0 0 1-1.876-3.088c-.475-1.013-.804-2.131-.572-3.028.231-.898 1.064-1.717 1.966-2.372.863-.624 1.9-1.232 3.139-1.8 1.222-.56 2.642-1.08 4.285-1.535h-.001a32.412 32.412 0 0 1 2.916-.665Zm-8.865 13.72a2.833 2.833 0 0 1 .045-.85c.193-.874.935-1.661 1.745-2.287a14.912 14.912 0 0 1 2.011-1.291 25.004 25.004 0 0 0 2.257 2.527c1.365 1.342 2.664 2.358 3.882 3.115.754.469 1.476.838 2.164 1.122.945.39 1.994.638 2.852.368.268-.088.533-.228.788-.412a19.894 19.894 0 0 1-1.737 3.17c-.64.917-1.443 1.762-2.336 2.01-.894.248-2.019-.064-3.037-.518-.972-.436-2.017-1.029-3.129-1.818a28.696 28.696 0 0 1-3.471-2.944l-.001.001a32.423 32.423 0 0 1-2.033-2.193Zm16.324.838a2.82 2.82 0 0 1-.758.387c-.855.27-1.907.022-2.854-.367a14.968 14.968 0 0 1-2.124-1.096c.388-.946.751-2.024 1.06-3.218.48-1.854.71-3.487.757-4.92a14.926 14.926 0 0 0-.11-2.435c-.135-1.014-.445-2.046-1.108-2.654a2.93 2.93 0 0 0-.75-.476 19.922 19.922 0 0 1 3.613-.081c1.114.095 2.247.369 2.909 1.018.662.65.954 1.78 1.07 2.889.109 1.06.117 2.26-.01 3.619-.127 1.338-.386 2.827-.814 4.478h.001a32.094 32.094 0 0 1-.882 2.856Z"/></svg>