<svg width="190" height="61" fill="none" xmlns="http://www.w3.org/2000/svg"><path d="M4.127 9.051c.38.481.703 1.011.977 1.58.274.572.496 1.177.694 1.825l.517 1.656 1.44-.93c1.458-.94 3.023-1.597 4.664-1.813 1.64-.227 3.337-.008 4.988.488l.757-2.53a16.534 16.534 0 0 0-2.988-.603 12.951 12.951 0 0 0-3.097.048 12.76 12.76 0 0 0-3 .803c-.463.186-.913.397-1.35.627-.096-.24-.197-.478-.31-.713A11.147 11.147 0 0 0 6.15 7.418a10.066 10.066 0 0 0-1.73-1.739 10.902 10.902 0 0 0-2.065-1.274l-1.095 2.4a8.331 8.331 0 0 1 1.575.96c.483.373.913.806 1.292 1.286Zm124.169 17.152h-4.976l.105-.096c.79-.721 1.059-1.96 1.059-3.9v-2.244h3.812v6.24Zm2.241-8.146h-8.103v3.96c0 2.66-.654 4.186-1.967 4.186h-.321v4.445h2.025v-2.542h7.873v2.542h1.978v-4.445h-1.485v-8.146Zm5.495 6.735c-.266-.494-.401-1.069-.401-1.71 0-.655.135-1.23.402-1.711a2.877 2.877 0 0 1 1.092-1.125 3.064 3.064 0 0 1 1.549-.397 3.06 3.06 0 0 1 1.55.397 2.82 2.82 0 0 1 1.083 1.125c.26.482.392 1.058.392 1.71 0 .641-.132 1.216-.392 1.71a2.787 2.787 0 0 1-1.083 1.145 3.09 3.09 0 0 1-1.568.397 3.019 3.019 0 0 1-1.531-.397 2.85 2.85 0 0 1-1.093-1.144Zm5.361 2.778a4.89 4.89 0 0 0 1.888-1.825c.45-.767.678-1.664.678-2.664 0-1.011-.228-1.91-.678-2.672a4.95 4.95 0 0 0-1.878-1.816c-.798-.444-1.722-.67-2.747-.67-1.014 0-1.928.226-2.718.67a5.027 5.027 0 0 0-1.879 1.816c-.456.762-.688 1.66-.688 2.672 0 .988.232 1.88.688 2.655a4.962 4.962 0 0 0 1.887 1.834c.796.444 1.708.67 2.71.67 1.013 0 1.934-.226 2.737-.67Zm8.684-1.643a2.937 2.937 0 0 1-1.091-1.143c-.267-.489-.402-1.061-.402-1.702 0-.653.135-1.229.402-1.71.267-.483.635-.86 1.092-1.125a3.03 3.03 0 0 1 1.531-.397c.583 0 1.108.134 1.559.397.451.264.815.642 1.083 1.125.267.48.401 1.056.401 1.71 0 .642-.134 1.214-.401 1.701a2.969 2.969 0 0 1-1.082 1.144c-.451.27-.976.407-1.56.407a2.967 2.967 0 0 1-1.532-.407Zm4.4 1.673a4.69 4.69 0 0 0 1.794-1.796c.438-.769.66-1.684.66-2.722 0-1.024-.222-1.936-.66-2.712a4.682 4.682 0 0 0-1.794-1.805c-.752-.425-1.623-.64-2.586-.64-.825 0-1.582.186-2.249.554-.375.209-.718.5-1.018.867l-.096.118v-1.406h-2.129v14.028h2.223v-5.318l.096.112c.289.337.612.609.962.806.654.367 1.398.554 2.211.554.965 0 1.834-.215 2.586-.64Zm6.691-2.807c-.266-.495-.401-1.07-.401-1.71 0-.653.135-1.23.401-1.711a2.891 2.891 0 0 1 1.092-1.125 3.065 3.065 0 0 1 1.55-.397c.571 0 1.093.134 1.55.397.458.264.822.643 1.083 1.125.26.481.392 1.057.392 1.71 0 .642-.132 1.217-.392 1.71a2.784 2.784 0 0 1-1.083 1.144c-.457.265-.984.398-1.569.398a3.022 3.022 0 0 1-1.531-.398 2.848 2.848 0 0 1-1.092-1.143Zm5.361 2.778a4.887 4.887 0 0 0 1.887-1.825c.45-.767.679-1.664.679-2.664 0-1.011-.229-1.91-.679-2.672a4.936 4.936 0 0 0-1.878-1.816c-.797-.444-1.721-.67-2.747-.67-1.013 0-1.928.226-2.718.67a5.022 5.022 0 0 0-1.878 1.816c-.457.762-.688 1.66-.688 2.672 0 .988.231 1.88.688 2.655a4.964 4.964 0 0 0 1.887 1.834c.797.444 1.709.67 2.709.67 1.014 0 1.935-.226 2.738-.67Zm7.227-7.607h4.982v-1.906h-7.205v10.05h2.223v-8.144Zm13.64 4.829a2.85 2.85 0 0 1-1.093 1.143 3.056 3.056 0 0 1-1.55.398 3.017 3.017 0 0 1-1.531-.398 2.857 2.857 0 0 1-1.093-1.143c-.266-.494-.4-1.069-.4-1.71 0-.655.134-1.23.401-1.711a2.884 2.884 0 0 1 1.092-1.125 3.027 3.027 0 0 1 1.531-.397 3.07 3.07 0 0 1 1.55.397c.458.264.825.642 1.092 1.125.267.482.401 1.058.401 1.71 0 .641-.134 1.216-.4 1.71Zm.362-6.735v1.334l-.095-.112a3.629 3.629 0 0 0-.954-.8c-.647-.369-1.4-.555-2.238-.555-.951 0-1.815.215-2.568.64a4.626 4.626 0 0 0-1.784 1.805c-.431.775-.65 1.687-.65 2.712 0 1.038.219 1.954.65 2.722a4.638 4.638 0 0 0 1.784 1.796c.752.425 1.616.64 2.568.64.863 0 1.629-.187 2.276-.554.378-.216.724-.52 1.028-.907l.097-.125v1.453H190V18.058h-2.242Zm-29.645 25.758c-.26.496-.625.88-1.083 1.145a3.095 3.095 0 0 1-1.569.397 3.016 3.016 0 0 1-1.53-.397 2.844 2.844 0 0 1-1.093-1.144c-.266-.495-.401-1.07-.401-1.71 0-.654.135-1.23.401-1.711a2.876 2.876 0 0 1 1.093-1.124 3.053 3.053 0 0 1 1.549-.397 3.06 3.06 0 0 1 1.55.397c.458.264.822.643 1.083 1.124.261.482.392 1.057.392 1.71 0 .641-.131 1.216-.392 1.71Zm.095-6.198c-.797-.444-1.721-.669-2.747-.669-1.014 0-1.928.225-2.718.669a5.02 5.02 0 0 0-1.878 1.816c-.456.762-.688 1.66-.688 2.673 0 .986.232 1.88.688 2.654a4.95 4.95 0 0 0 1.887 1.834c.797.444 1.709.67 2.709.67 1.013 0 1.935-.226 2.738-.67a4.89 4.89 0 0 0 1.887-1.825c.45-.767.679-1.663.679-2.663 0-1.013-.229-1.913-.679-2.673a4.923 4.923 0 0 0-1.878-1.816Zm14.234-.559-3.562 5.007-3.588-4.984h-2.087V47.13h2.032v-6.836l3.596 4.914 3.619-4.966v6.888h2.067l-.019-10.05-2.058-.022Zm-27.341 8.169h-4.976l.106-.096c.79-.72 1.059-1.96 1.059-3.9v-2.244h3.811v6.24Zm2.242-8.147h-8.103v3.961c0 2.66-.654 4.186-1.967 4.186h-.322v4.446h2.026V47.13h7.873v2.543h1.978v-4.446h-1.485V37.08Zm-15.867.001-2.718-.016-4.943 4.898v-4.882h-2.222v10.049h2.222v-4.876l4.904 4.876h2.931l-5.322-5.227 5.148-4.822Zm50.304 7.623-3.219-7.623h-2.305l4.351 10.147-.098.224c-.328.752-.949 1.788-2.599 1.788h-.515v1.868h.894c1.831 0 3.295-1.065 4.273-3.352l4.563-10.675h-2.137l-3.208 7.623Zm-96.34-3.569h-6.113c-1.71 0-3.387-.019-5.036-.053l-1.079-.028v-5.628l6.114-5.052 6.114 5.052v5.709Zm10.472 12.788c-4.318 2.896-10.4 4.427-17.585 4.427-14.78 0-29.006-3.384-40.88-6.47a73.38 73.38 0 0 0 1.668-1.099A78.116 78.116 0 0 0 50.133 41.7c8.318 1.375 18.162 2.085 29.194 2.085H94.93v-2.65h-6.872V34.17l-8.732-7.216-8.731 7.216v6.806c-6.645-.247-12.744-.783-18.2-1.597 7.272-7.757 13.512-17.299 18.667-28.555 4.95 1.464 9.737 3.412 13.962 5.74 14.759 8.133 17.856 17.593 17.856 24.097 0 5.7-2.344 10.163-6.968 13.263Zm-59.89-18.523c-8.618-3.254-13.173-7.635-13.173-12.667 0-2.122.779-6.207 5.99-9.727 5.044-3.407 12.88-5.209 22.66-5.209 5.384 0 11.255.825 17.001 2.315-5.293 11.46-11.733 21.07-19.26 28.751-5.058-.898-9.491-2.057-13.217-3.463ZM11.657 58.346c-3.375 0-9.038-.556-9.038-4.279 0-3.009 3.38-4.806 9.038-4.806 4.807 0 11.324 1.576 18.87 3.544-8.387 4.273-15.482 5.54-18.87 5.54Zm74.62-44.108c-4.28-2.36-9.118-4.342-14.128-5.848a148.152 148.152 0 0 0 2.923-7.25L72.62.204a144.998 144.998 0 0 1-3.02 7.465c-6.109-1.62-12.37-2.52-18.102-2.52-23.08 0-31.268 9.472-31.268 17.585 0 4.348 2.581 10.506 14.876 15.149 3.402 1.284 7.365 2.368 11.828 3.241a74.874 74.874 0 0 1-9.28 7.458 67.325 67.325 0 0 1-3.75 2.371c-8.875-2.33-16.54-4.34-22.249-4.34C.841 46.612 0 52.317 0 54.066c0 2.587 1.514 6.928 11.656 6.928 3.976 0 12.681-1.6 22.617-7.208C46.771 57.067 62.157 61 78.327 61c16.76 0 27.171-7.794 27.171-20.34 0-10.208-6.826-19.592-19.222-26.422Z" fill="#FF5400"/></svg>