<svg width="320" height="101" fill="none" xmlns="http://www.w3.org/2000/svg"><path d="M6.951 15.22c.638.79 1.183 1.662 1.645 2.598.462.94.836 1.935 1.168 3.002h.001l.87 2.724 2.427-1.53c2.454-1.548 5.089-2.626 7.853-2.982 2.761-.373 5.62-.013 8.4.802l1.276-4.162c-1.629-.468-3.31-.82-5.033-.99a22.327 22.327 0 0 0-5.216.078c-1.736.234-3.44.69-5.05 1.322a24.77 24.77 0 0 0-2.275 1.03 21.21 21.21 0 0 0-.52-1.172 18.253 18.253 0 0 0-2.139-3.407 16.758 16.758 0 0 0-2.914-2.86 18.44 18.44 0 0 0-3.477-2.095l-1.845 3.946c.95.44 1.844.961 2.653 1.58A12.39 12.39 0 0 1 6.95 15.22Zm209.114 28.211h-8.38l.177-.158c1.33-1.186 1.784-3.225 1.784-6.414v-3.692h6.419v10.264Zm3.773-13.4h-13.645v6.515c0 4.375-1.101 6.885-3.313 6.885h-.541v7.312h3.41V46.56h13.26v4.182h3.331V43.43h-2.502v-13.4Zm9.257 11.079c-.448-.812-.676-1.758-.676-2.814 0-1.076.228-2.023.677-2.813a4.795 4.795 0 0 1 1.839-1.85c.771-.434 1.648-.653 2.609-.653.963 0 1.84.22 2.611.653a4.71 4.71 0 0 1 1.824 1.85c.437.792.66 1.739.66 2.813 0 1.054-.223 2-.66 2.813a4.641 4.641 0 0 1-1.824 1.881c-.77.435-1.658.654-2.642.654-.94 0-1.808-.219-2.578-.654a4.739 4.739 0 0 1-1.84-1.88Zm9.028 4.569c1.35-.727 2.42-1.737 3.179-3.001.758-1.263 1.142-2.738 1.142-4.382 0-1.664-.384-3.144-1.142-4.397-.759-1.252-1.823-2.257-3.163-2.986-1.343-.73-2.899-1.1-4.626-1.1-1.707 0-3.247.37-4.577 1.1a8.377 8.377 0 0 0-3.164 2.986c-.769 1.254-1.159 2.733-1.159 4.397 0 1.624.39 3.092 1.159 4.366a8.266 8.266 0 0 0 3.178 3.017c1.342.73 2.877 1.1 4.563 1.1 1.707 0 3.258-.37 4.61-1.1Zm14.621-2.705a4.881 4.881 0 0 1-1.838-1.88c-.449-.804-.676-1.745-.676-2.799 0-1.074.227-2.021.677-2.813a4.804 4.804 0 0 1 1.838-1.85 5.199 5.199 0 0 1 2.578-.653c.982 0 1.866.22 2.627.653a4.847 4.847 0 0 1 1.822 1.85c.45.791.677 1.738.677 2.813 0 1.055-.227 1.997-.675 2.799a4.937 4.937 0 0 1-1.824 1.88c-.759.445-1.643.67-2.627.67-.941 0-1.81-.225-2.579-.67Zm7.41 2.752a7.812 7.812 0 0 0 3.02-2.954c.739-1.264 1.113-2.77 1.113-4.477 0-1.684-.374-3.185-1.113-4.46a7.795 7.795 0 0 0-3.02-2.97c-1.267-.7-2.733-1.053-4.355-1.053-1.39 0-2.664.307-3.787.912a5.933 5.933 0 0 0-1.715 1.425l-.162.195V30.03h-3.584v23.074h3.743v-8.748l.161.185a6.032 6.032 0 0 0 1.621 1.325c1.1.605 2.353.912 3.723.912 1.624 0 3.089-.354 4.355-1.053Zm11.266-4.616c-.448-.814-.676-1.76-.676-2.814 0-1.074.228-2.02.677-2.813a4.8 4.8 0 0 1 1.838-1.85c.772-.434 1.649-.653 2.611-.653.962 0 1.84.22 2.61.653a4.706 4.706 0 0 1 1.825 1.85c.437.792.659 1.738.659 2.813 0 1.056-.222 2.002-.659 2.813a4.64 4.64 0 0 1-1.825 1.881c-.77.435-1.658.654-2.642.654-.94 0-1.808-.219-2.579-.654a4.743 4.743 0 0 1-1.839-1.88Zm9.028 4.569c1.35-.727 2.42-1.737 3.179-3.001.759-1.263 1.143-2.738 1.143-4.382 0-1.664-.384-3.144-1.143-4.397-.759-1.252-1.822-2.257-3.162-2.986-1.344-.73-2.9-1.1-4.627-1.1-1.706 0-3.247.37-4.577 1.1-1.331.729-2.396 1.734-3.164 2.986-.769 1.254-1.159 2.733-1.159 4.397 0 1.624.39 3.093 1.159 4.366a8.275 8.275 0 0 0 3.179 3.017c1.341.73 2.877 1.1 4.562 1.1 1.708 0 3.259-.37 4.61-1.1Zm12.176-12.511h8.39v-3.136h-12.133v16.53h3.743V33.168Zm22.968 7.942a4.745 4.745 0 0 1-1.84 1.88c-.771.435-1.649.654-2.611.654-.941 0-1.808-.219-2.578-.654a4.739 4.739 0 0 1-1.84-1.88c-.448-.812-.675-1.758-.675-2.814 0-1.076.227-2.023.676-2.813a4.802 4.802 0 0 1 1.839-1.85c.771-.434 1.637-.653 2.578-.653.962 0 1.84.22 2.611.653a4.793 4.793 0 0 1 1.838 1.85c.45.792.677 1.739.677 2.813 0 1.054-.227 2-.675 2.813Zm.611-11.078v2.193l-.161-.183a6.083 6.083 0 0 0-1.606-1.318c-1.09-.605-2.358-.912-3.769-.912-1.602 0-3.058.354-4.325 1.053a7.683 7.683 0 0 0-3.004 2.97c-.727 1.274-1.096 2.775-1.096 4.461 0 1.707.369 3.214 1.096 4.476a7.706 7.706 0 0 0 3.004 2.955c1.267.699 2.721 1.053 4.325 1.053 1.454 0 2.744-.308 3.833-.912a5.93 5.93 0 0 0 1.73-1.492l.164-.205v2.39h3.584V30.03h-3.775ZM266.28 72.4a4.628 4.628 0 0 1-1.823 1.883c-.77.434-1.658.653-2.642.653-.941 0-1.808-.22-2.578-.653a4.738 4.738 0 0 1-1.84-1.881c-.448-.814-.676-1.76-.676-2.813 0-1.075.228-2.021.676-2.814a4.808 4.808 0 0 1 1.84-1.85c.769-.433 1.646-.652 2.609-.652.964 0 1.841.22 2.611.653a4.706 4.706 0 0 1 1.823 1.85c.439.792.661 1.739.661 2.813 0 1.053-.222 1.999-.661 2.812Zm.161-10.194c-1.343-.73-2.898-1.1-4.626-1.1-1.708 0-3.248.37-4.578 1.1a8.36 8.36 0 0 0-3.163 2.987c-.769 1.253-1.159 2.732-1.159 4.396 0 1.623.39 3.091 1.159 4.366a8.263 8.263 0 0 0 3.178 3.016c1.343.73 2.878 1.102 4.563 1.102 1.707 0 3.258-.371 4.61-1.102 1.35-.727 2.42-1.737 3.178-3.001.758-1.261 1.143-2.736 1.143-4.38 0-1.667-.385-3.146-1.143-4.397-.758-1.255-1.822-2.26-3.162-2.987Zm23.97-.92-5.999 8.236-6.042-8.199h-3.515v16.53h3.423V66.609l6.056 8.083 6.094-8.17v11.33h3.481l-.032-16.53-3.466-.036Zm-46.044 13.438h-8.38l.177-.159c1.331-1.184 1.785-3.223 1.785-6.414V64.46h6.418v10.264Zm3.774-13.4h-13.645v6.515c0 4.375-1.101 6.885-3.314 6.885h-.54v7.313h3.411v-4.183h13.259v4.183h3.331v-7.313h-2.502v-13.4Zm-26.722-.001-4.577-.026-8.324 8.056v-8.03h-3.743v16.53h3.743v-8.02l8.26 8.02h4.934l-8.961-8.598 8.668-7.932Zm84.717 12.539-5.421-12.538h-3.883l7.328 16.69-.166.37c-.551 1.237-1.598 2.94-4.377 2.94h-.866v3.073h1.505c3.083 0 5.549-1.752 7.196-5.515l7.684-17.558h-3.598l-5.402 12.538ZM143.89 67.993h-10.296a422.4 422.4 0 0 1-8.48-.087l-1.817-.047v-9.257l10.297-8.31 10.296 8.31v9.39Zm17.636 21.034c-7.273 4.764-17.514 7.282-29.616 7.282-24.891 0-48.848-5.566-68.846-10.644a118.73 118.73 0 0 0 2.81-1.805c6.547-4.342 12.736-9.325 18.555-14.939 14.009 2.261 30.586 3.429 49.165 3.429h26.278v-4.357h-11.573V56.535l-14.705-11.869-14.706 11.87V67.73c-11.189-.407-21.46-1.288-30.65-2.628 12.248-12.758 22.756-28.453 31.437-46.968 8.336 2.409 16.399 5.613 23.514 9.443 24.855 13.376 30.072 28.936 30.072 39.634 0 9.377-3.948 16.717-11.735 21.816ZM60.666 58.56C46.152 53.207 38.48 46.002 38.48 37.724c0-3.49 1.31-10.21 10.085-15.998 8.497-5.605 21.693-8.569 38.163-8.569 9.068 0 18.954 1.357 28.633 3.809-8.916 18.848-19.761 34.655-32.437 47.29-8.517-1.478-15.984-3.383-22.26-5.697ZM19.63 96.301c-5.684 0-15.221-.915-15.221-7.038 0-4.95 5.69-7.906 15.221-7.906 8.095 0 19.07 2.593 31.778 5.83C37.284 94.216 25.335 96.3 19.63 96.3Zm125.668-72.552c-7.209-3.88-15.357-7.141-23.794-9.617a241 241 0 0 0 4.922-11.926l-4.125-1.54a234.486 234.486 0 0 1-5.088 12.28C106.927 10.28 96.383 8.8 86.729 8.8 47.862 8.8 34.07 24.38 34.07 37.724c0 7.152 4.347 17.282 25.053 24.918 5.73 2.113 12.404 3.895 19.919 5.332A125.606 125.606 0 0 1 63.416 80.24a113.81 113.81 0 0 1-6.316 3.901c-14.947-3.834-27.854-7.14-37.47-7.14C1.416 77 0 86.384 0 89.261c0 4.256 2.55 11.396 19.63 11.396 6.696 0 21.357-2.63 38.09-11.856 21.047 5.396 46.959 11.864 74.19 11.864 28.225 0 45.759-12.819 45.759-33.455 0-16.792-11.496-32.227-32.371-43.462Z" fill="#fff"/></svg>