<svg xmlns="http://www.w3.org/2000/svg" fill="none" viewBox="0 0 1823 96">
  <path fill="#30F2B1" d="M1758.25 94.999h63.97V.001h-95.96v94.998h31.99Z"/>
  <path stroke="#000" stroke-miterlimit="10" stroke-width="1.5" d="M1758.25 94.999h63.97V.001h-95.96v94.998h31.99Z"/>
  <path fill="#FF5400" d="m1773.26 59.215 14.25-2.929c10.03-10.358 17.06-24.907 19.03-41.002-16.75 2.01-31.82 9.298-42.34 19.704-11.16 11.046-13.78 22.408-11.4 33.495l-11.35 11.231h7.53l10.55-10.454c6.61.14 13.3-1.667 19.88-6.107l-6.15-3.938Z"/>
  <path stroke="#000" stroke-miterlimit="10" stroke-width="1.5" d="m1773.26 59.215 14.25-2.929c10.03-10.358 17.06-24.907 19.03-41.002-16.75 2.01-31.82 9.298-42.34 19.704-11.16 11.046-13.78 22.408-11.4 33.495l-11.35 11.231h7.53l10.55-10.454c6.61.14 13.3-1.667 19.88-6.107l-6.15-3.938Z"/>
  <path fill="#009CFF" d="M1540.75 19.002h12.78V0h-19.19v19h6.41Z"/>
  <path stroke="#000" stroke-miterlimit="10" stroke-width="1.5" d="M1540.75 19.002h12.78V0h-19.19v19h6.41Z"/>
  <path fill="#0041A0" d="M1559.93 19h12.79V0h-19.19v19h6.4Z"/>
  <path stroke="#000" stroke-miterlimit="10" stroke-width="1.5" d="M1559.93 19h12.79V0h-19.19v19h6.4Z"/>
  <path fill="#009CFF" d="M1579.12 19.001h12.79v-19h-19.18v19h6.39Z"/>
  <path stroke="#000" stroke-miterlimit="10" stroke-width="1.5" d="M1579.12 19.001h12.79v-19h-19.18v19h6.39Z"/>
  <path fill="#0041A0" d="M1598.32 19h12.79V.001h-19.2V19h6.41Z"/>
  <path stroke="#000" stroke-miterlimit="10" stroke-width="1.5" d="M1598.32 19h12.79V.001h-19.2V19h6.41Z"/>
  <path fill="#009CFF" d="M1617.51 19h12.79V0h-19.2v19h6.41Z"/>
  <path stroke="#000" stroke-miterlimit="10" stroke-width="1.5" d="M1617.51 19h12.79V0h-19.2v19h6.41Z"/>
  <path fill="#009CFF" d="M1540.75 38h12.78V19h-19.19v19h6.41Z"/>
  <path stroke="#000" stroke-miterlimit="10" stroke-width="1.5" d="M1540.75 38h12.78V19h-19.19v19h6.41Z"/>
  <path fill="#009CFF" d="M1559.93 38.002h12.79V19h-19.19v19h6.4Z"/>
  <path stroke="#000" stroke-miterlimit="10" stroke-width="1.5" d="M1559.93 38.002h12.79V19h-19.19v19h6.4Z"/>
  <path fill="#0041A0" d="M1579.12 38h12.79V19h-19.18v19h6.39Z"/>
  <path stroke="#000" stroke-miterlimit="10" stroke-width="1.5" d="M1579.12 38h12.79V19h-19.18v19h6.39Z"/>
  <path fill="#009CFF" d="M1598.32 38.001h12.79v-19h-19.2v19h6.41Z"/>
  <path stroke="#000" stroke-miterlimit="10" stroke-width="1.5" d="M1598.32 38.001h12.79v-19h-19.2v19h6.41Z"/>
  <path fill="#009CFF" d="M1617.51 38.002h12.79V19h-19.2v19.002h6.41Z"/>
  <path stroke="#000" stroke-miterlimit="10" stroke-width="1.5" d="M1617.51 38.002h12.79V19h-19.2v19.002h6.41Z"/>
  <path fill="#009CFF" d="M1540.75 57h12.78V38h-19.19v19h6.41Z"/>
  <path stroke="#000" stroke-miterlimit="10" stroke-width="1.5" d="M1540.75 57h12.78V38h-19.19v19h6.41Z"/>
  <path fill="#0041A0" d="M1559.93 57h12.79V38.001h-19.19V57h6.4Z"/>
  <path stroke="#000" stroke-miterlimit="10" stroke-width="1.5" d="M1559.93 57h12.79V38.001h-19.19V57h6.4Z"/>
  <path fill="#009CFF" d="M1579.12 57h12.79V38h-19.18v19h6.39Z"/>
  <path stroke="#000" stroke-miterlimit="10" stroke-width="1.5" d="M1579.12 57h12.79V38h-19.18v19h6.39Z"/>
  <path fill="#0041A0" d="M1598.32 57h12.79V38.001h-19.2V57h6.41Z"/>
  <path stroke="#000" stroke-miterlimit="10" stroke-width="1.5" d="M1598.32 57h12.79V38.001h-19.2V57h6.41Z"/>
  <path fill="#009CFF" d="M1617.51 57h12.79V38.002h-19.2v19h6.41Z"/>
  <path stroke="#000" stroke-miterlimit="10" stroke-width="1.5" d="M1617.51 57h12.79V38.002h-19.2v19h6.41Z"/>
  <path fill="#0041A0" d="M1540.75 76h12.78V57h-19.19v19h6.41Z"/>
  <path stroke="#000" stroke-miterlimit="10" stroke-width="1.5" d="M1540.75 76h12.78V57h-19.19v19h6.41Z"/>
  <path fill="#009CFF" d="M1559.93 76h12.79V57h-19.19v19h6.4Z"/>
  <path stroke="#000" stroke-miterlimit="10" stroke-width="1.5" d="M1559.93 76h12.79V57h-19.19v19h6.4Z"/>
  <path fill="#009CFF" d="M1579.12 76h12.79V57h-19.18v19h6.39Z"/>
  <path stroke="#000" stroke-miterlimit="10" stroke-width="1.5" d="M1579.12 76h12.79V57h-19.18v19h6.39Z"/>
  <path fill="#009CFF" d="M1598.32 76h12.79V57h-19.2v19h6.41Z"/>
  <path stroke="#000" stroke-miterlimit="10" stroke-width="1.5" d="M1598.32 76h12.79V57h-19.2v19h6.41Z"/>
  <path fill="#0041A0" d="M1617.51 76h12.79V57h-19.2v19h6.41Z"/>
  <path stroke="#000" stroke-miterlimit="10" stroke-width="1.5" d="M1617.51 76h12.79V57h-19.2v19h6.41Z"/>
  <path fill="#009CFF" d="M1540.75 95h12.78V76h-19.19v19h6.41Z"/>
  <path stroke="#000" stroke-miterlimit="10" stroke-width="1.5" d="M1540.75 95h12.78V76h-19.19v19h6.41Z"/>
  <path fill="#0041A0" d="M1559.93 94.999h12.79V76h-19.19v19h6.4Z"/>
  <path stroke="#000" stroke-miterlimit="10" stroke-width="1.5" d="M1559.93 94.999h12.79V76h-19.19v19h6.4Z"/>
  <path fill="#009CFF" d="M1579.12 95h12.79V76h-19.18v19h6.39Z"/>
  <path stroke="#000" stroke-miterlimit="10" stroke-width="1.5" d="M1579.12 95h12.79V76h-19.18v19h6.39Z"/>
  <path fill="#0041A0" d="M1598.32 94.999h12.79V76h-19.2v18.999h6.41Z"/>
  <path stroke="#000" stroke-miterlimit="10" stroke-width="1.5" d="M1598.32 94.999h12.79V76h-19.2v18.999h6.41Z"/>
  <path fill="#009CFF" d="M1617.51 94.999h12.79v-19h-19.2v19h6.41Z"/>
  <path stroke="#000" stroke-miterlimit="10" stroke-width="1.5" d="M1617.51 94.999h12.79v-19h-19.2v19h6.41Z"/>
  <path fill="#0041A0" d="M1636.69 19h12.8V.002h-19.2v19h6.4Z"/>
  <path stroke="#000" stroke-miterlimit="10" stroke-width="1.5" d="M1636.69 19h12.8V.002h-19.2v19h6.4Z"/>
  <path fill="#009CFF" d="M1655.89 19.001h12.79v-19h-19.2v19h6.41Z"/>
  <path stroke="#000" stroke-miterlimit="10" stroke-width="1.5" d="M1655.89 19.001h12.79v-19h-19.2v19h6.41Z"/>
  <path fill="#0041A0" d="M1675.08 19h12.79V0h-19.19v19h6.4Z"/>
  <path stroke="#000" stroke-miterlimit="10" stroke-width="1.5" d="M1675.08 19h12.79V0h-19.19v19h6.4Z"/>
  <path fill="#009CFF" d="M1694.27 19.002h12.8V0h-19.2v19h6.4Z"/>
  <path stroke="#000" stroke-miterlimit="10" stroke-width="1.5" d="M1694.27 19.002h12.8V0h-19.2v19h6.4Z"/>
  <path fill="#0041A0" d="M1713.46 19.002h12.8v-19h-19.19v19h6.39Z"/>
  <path stroke="#000" stroke-miterlimit="10" stroke-width="1.5" d="M1713.46 19.002h12.8v-19h-19.19v19h6.39Z"/>
  <path fill="#009CFF" d="M1636.69 38h12.8V19h-19.2v19h6.4Z"/>
  <path stroke="#000" stroke-miterlimit="10" stroke-width="1.5" d="M1636.69 38h12.8V19h-19.2v19h6.4Z"/>
  <path fill="#0041A0" d="M1655.89 38h12.79V19h-19.2v19h6.41Z"/>
  <path stroke="#000" stroke-miterlimit="10" stroke-width="1.5" d="M1655.89 38h12.79V19h-19.2v19h6.41Z"/>
  <path fill="#009CFF" d="M1675.08 38.002h12.79V19h-19.19v19.002h6.4Z"/>
  <path stroke="#000" stroke-miterlimit="10" stroke-width="1.5" d="M1675.08 38.002h12.79V19h-19.19v19.002h6.4Z"/>
  <path fill="#009CFF" d="M1694.27 38h12.8V19h-19.2v19h6.4Z"/>
  <path stroke="#000" stroke-miterlimit="10" stroke-width="1.5" d="M1694.27 38h12.8V19h-19.2v19h6.4Z"/>
  <path fill="#009CFF" d="M1713.46 38.002h12.8v-19h-19.19v19h6.39Z"/>
  <path stroke="#000" stroke-miterlimit="10" stroke-width="1.5" d="M1713.46 38.002h12.8v-19h-19.19v19h6.39Z"/>
  <path fill="#0041A0" d="M1636.69 57h12.8V38h-19.2v19h6.4Z"/>
  <path stroke="#000" stroke-miterlimit="10" stroke-width="1.5" d="M1636.69 57h12.8V38h-19.2v19h6.4Z"/>
  <path fill="#009CFF" d="M1655.89 57h12.79V38h-19.2v19h6.41Z"/>
  <path stroke="#000" stroke-miterlimit="10" stroke-width="1.5" d="M1655.89 57h12.79V38h-19.2v19h6.41Z"/>
  <path fill="#0041A0" d="M1675.08 57h12.79V38.002h-19.19v19h6.4Z"/>
  <path stroke="#000" stroke-miterlimit="10" stroke-width="1.5" d="M1675.08 57h12.79V38.002h-19.19v19h6.4Z"/>
  <path fill="#009CFF" d="M1694.27 57h12.8V38h-19.2v19h6.4Z"/>
  <path stroke="#000" stroke-miterlimit="10" stroke-width="1.5" d="M1694.27 57h12.8V38h-19.2v19h6.4Z"/>
  <path fill="#0041A0" d="M1713.46 56.999h12.8V38.001h-19.19v18.998h6.39Z"/>
  <path stroke="#000" stroke-miterlimit="10" stroke-width="1.5" d="M1713.46 56.999h12.8V38.001h-19.19v18.998h6.39Z"/>
  <path fill="#009CFF" d="M1636.69 76h12.8V57h-19.2v19h6.4Z"/>
  <path stroke="#000" stroke-miterlimit="10" stroke-width="1.5" d="M1636.69 76h12.8V57h-19.2v19h6.4Z"/>
  <path fill="#009CFF" d="M1655.89 76h12.79V57h-19.2v19h6.41Z"/>
  <path stroke="#000" stroke-miterlimit="10" stroke-width="1.5" d="M1655.89 76h12.79V57h-19.2v19h6.41Z"/>
  <path fill="#009CFF" d="M1675.08 76h12.79V57h-19.19v19h6.4Z"/>
  <path stroke="#000" stroke-miterlimit="10" stroke-width="1.5" d="M1675.08 76h12.79V57h-19.19v19h6.4Z"/>
  <path fill="#0041A0" d="M1694.27 76h12.8V57.001h-19.2V76h6.4Z"/>
  <path stroke="#000" stroke-miterlimit="10" stroke-width="1.5" d="M1694.27 76h12.8V57.001h-19.2V76h6.4Z"/>
  <path fill="#009CFF" d="M1713.46 76h12.8V57h-19.19v19h6.39Z"/>
  <path stroke="#000" stroke-miterlimit="10" stroke-width="1.5" d="M1713.46 76h12.8V57h-19.19v19h6.39Z"/>
  <path fill="#0041A0" d="M1636.69 94.999h12.8v-19h-19.2v19h6.4Z"/>
  <path stroke="#000" stroke-miterlimit="10" stroke-width="1.5" d="M1636.69 94.999h12.8v-19h-19.2v19h6.4Z"/>
  <path fill="#009CFF" d="M1655.89 95h12.79V76h-19.2v19h6.41Z"/>
  <path stroke="#000" stroke-miterlimit="10" stroke-width="1.5" d="M1655.89 95h12.79V76h-19.2v19h6.41Z"/>
  <path fill="#0041A0" d="M1675.08 95h12.79V76h-19.19v19h6.4Z"/>
  <path stroke="#000" stroke-miterlimit="10" stroke-width="1.5" d="M1675.08 95h12.79V76h-19.19v19h6.4Z"/>
  <path fill="#009CFF" d="M1694.27 95h12.8V76h-19.2v19h6.4Z"/>
  <path stroke="#000" stroke-miterlimit="10" stroke-width="1.5" d="M1694.27 95h12.8V76h-19.2v19h6.4Z"/>
  <path fill="#0041A0" d="M1713.46 95h12.8V76h-19.19v19h6.39Z"/>
  <path stroke="#000" stroke-miterlimit="10" stroke-width="1.5" d="M1713.46 95h12.8V76h-19.19v19h6.39Z"/>
  <path fill="#FFE82C" d="M1534.34 95h-287.87V.002h287.87v95Z"/>
  <path stroke="#000" stroke-miterlimit="10" stroke-width="1.5" d="M1534.34 95h-287.87V.002h287.87v95Z"/>
  <path fill="#FF5400" d="M1409.57 47.684c-.09 10.49-8.76 18.918-19.36 18.82-10.6-.097-19.11-8.684-19-19.176.08-10.492 8.76-18.92 19.36-18.822 10.6.099 19.11 8.684 19 19.178Z"/>
  <path stroke="#000" stroke-miterlimit="10" stroke-width="1.5" d="M1409.57 47.684c-.09 10.49-8.76 18.918-19.36 18.82-10.6-.097-19.11-8.684-19-19.176.08-10.492 8.76-18.92 19.36-18.822 10.6.099 19.11 8.684 19 19.178Z"/>
  <path fill="#FF5400" d="M1393.73 66.206c8.93-1.542 15.76-9.222 15.85-18.522.02-1.93-.25-3.783-.78-5.547l-.58-.09c-2.88-.426-5.87-.853-8.68-.08-2.81.771-5.41 3.085-5.54 5.962-.09 2.373 1.44 4.802.56 7.007-.61 1.467-2.11 2.346-3.01 3.648-1.28 1.812-1.17 4.465.23 6.187a4.888 4.888 0 0 0 1.95 1.435Z"/>
  <path stroke="#000" stroke-miterlimit="10" stroke-width="1.5" d="M1393.73 66.206c8.93-1.542 15.76-9.222 15.85-18.522.02-1.93-.25-3.783-.78-5.547l-.58-.09c-2.88-.426-5.87-.853-8.68-.08-2.81.771-5.41 3.085-5.54 5.962-.09 2.373 1.44 4.802.56 7.007-.61 1.467-2.11 2.346-3.01 3.648-1.28 1.812-1.17 4.465.23 6.187a4.888 4.888 0 0 0 1.95 1.435Z"/>
  <path fill="#FF5400" d="M1380.62 55.225c-1.01-1.86-3.37-2.463-5.47-2.881-1.16-.23-2.33-.46-3.48-.68a18.896 18.896 0 0 0 6.59 10.55c.72-.638 1.4-1.326 1.91-2.129.91-1.445 1.28-3.36.45-4.86Z"/>
  <path stroke="#000" stroke-miterlimit="10" stroke-width="1.5" d="M1380.62 55.225c-1.01-1.86-3.37-2.463-5.47-2.881-1.16-.23-2.33-.46-3.48-.68a18.896 18.896 0 0 0 6.59 10.55c.72-.638 1.4-1.326 1.91-2.129.91-1.445 1.28-3.36.45-4.86Z"/>
  <path fill="#FF5400" d="M1396.15 29.37c-1.76-.548-3.62-.85-5.56-.868-7.53-.07-14.08 4.145-17.29 10.356 1.16 2.54 3.16 4.713 5.62 6.048.8.424 1.68.775 2.59.803.9.027 1.86-.316 2.39-1.052 1.06-1.435.06-3.439.36-5.193.21-1.451 1.33-2.63 2.57-3.415 1.26-.796 2.67-1.287 3.99-1.977a15.14 15.14 0 0 0 5.33-4.703Z"/>
  <path stroke="#000" stroke-miterlimit="10" stroke-width="1.5" d="M1396.15 29.37c-1.76-.548-3.62-.85-5.56-.868-7.53-.07-14.08 4.145-17.29 10.356 1.16 2.54 3.16 4.713 5.62 6.048.8.424 1.68.775 2.59.803.9.027 1.86-.316 2.39-1.052 1.06-1.435.06-3.439.36-5.193.21-1.451 1.33-2.63 2.57-3.415 1.26-.796 2.67-1.287 3.99-1.977a15.14 15.14 0 0 0 5.33-4.703Z"/>
  <path fill="#009CFF" d="M1358.86 47.606c.14-14.427-4.81-26.17-11.05-26.228-14.57-.135-26.5 11.451-26.64 25.88-.13 14.427 11.57 26.232 26.14 26.367 6.24.058 11.43-11.591 11.55-26.02Z"/>
  <path stroke="#000" stroke-miterlimit="10" stroke-width="1.5" d="M1358.86 47.606c.14-14.427-4.81-26.17-11.05-26.228-14.57-.135-26.5 11.451-26.64 25.88-.13 14.427 11.57 26.232 26.14 26.367 6.24.058 11.43-11.591 11.55-26.02Z"/>
  <path fill="#009CFF" d="M1358.86 47.606c.14-14.427-4.81-26.17-11.05-26.228-6.25-.059-11.43 11.591-11.56 26.018-.14 14.428 4.82 26.17 11.06 26.23 6.24.057 11.43-11.592 11.55-26.02Z"/>
  <path stroke="#000" stroke-miterlimit="10" stroke-width="1.5" d="M1358.86 47.606c.14-14.427-4.81-26.17-11.05-26.228-6.25-.059-11.43 11.591-11.56 26.018-.14 14.428 4.82 26.17 11.06 26.23 6.24.057 11.43-11.592 11.55-26.02Z"/>
  <path fill="#009CFF" d="M1336.33 44.954a4.69 4.69 0 0 1-1 .083c-1.25-.038-2.45-.52-3.55-1.103-3.4-1.835-6.14-4.825-7.72-8.314.01-.01.02-.022.02-.034.26-.502.53-.995.83-1.477.02-.03.03-.06.05-.09.3-.5.62-.988.96-1.465.01-.004.01-.008.01-.012.31-.442.64-.87.97-1.292.08-.077.13-.153.19-.23.7-.842 1.44-1.64 2.23-2.392.1-.089.19-.176.29-.264a22.4 22.4 0 0 1 1.01-.88c.08-.068.15-.137.24-.203.4-.333.83-.652 1.25-.96.11-.074.22-.144.32-.218.34-.24.71-.471 1.06-.695.13-.078.24-.157.37-.233.46-.274.92-.536 1.39-.782.05-.033.12-.062.19-.096.41-.213.84-.416 1.28-.609.12-.062.27-.123.4-.182.45-.186.88-.362 1.33-.525.07-.024.13-.052.2-.077.52-.182 1.04-.345 1.56-.497.13-.036.26-.068.39-.103.44-.118.88-.227 1.33-.323.1-.024.22-.052.34-.075.54-.11 1.1-.206 1.67-.282l.25-.03c.49-.061.98-.109 1.48-.143a27.11 27.11 0 0 1 2.09-.072c-5.87 0-10.78 10.333-11.43 23.575Z"/>
  <path stroke="#000" stroke-miterlimit="10" stroke-width="1.5" d="M1336.33 44.954a4.69 4.69 0 0 1-1 .083c-1.25-.038-2.45-.52-3.55-1.103-3.4-1.835-6.14-4.825-7.72-8.314.01-.01.02-.022.02-.034.26-.502.53-.995.83-1.477.02-.03.03-.06.05-.09.3-.5.62-.988.96-1.465.01-.004.01-.008.01-.012.31-.442.64-.87.97-1.292.08-.077.13-.153.19-.23.7-.842 1.44-1.64 2.23-2.392.1-.089.19-.176.29-.264a22.4 22.4 0 0 1 1.01-.88c.08-.068.15-.137.24-.203.4-.333.83-.652 1.25-.96.11-.074.22-.144.32-.218.34-.24.71-.471 1.06-.695.13-.078.24-.157.37-.233.46-.274.92-.536 1.39-.782.05-.033.12-.062.19-.096.41-.213.84-.416 1.28-.609.12-.062.27-.123.4-.182.45-.186.88-.362 1.33-.525.07-.024.13-.052.2-.077.52-.182 1.04-.345 1.56-.497.13-.036.26-.068.39-.103.44-.118.88-.227 1.33-.323.1-.024.22-.052.34-.075.54-.11 1.1-.206 1.67-.282l.25-.03c.49-.061.98-.109 1.48-.143a27.11 27.11 0 0 1 2.09-.072c-5.87 0-10.78 10.333-11.43 23.575Z"/>
  <path fill="#009CFF" d="M1334.14 58.119c-1.4-2.56-4.66-3.388-7.55-3.963-1.58-.315-3.18-.631-4.78-.932a25.95 25.95 0 0 0 9.07 14.506c.99-.88 1.91-1.824 2.62-2.928 1.26-1.988 1.76-4.622.64-6.683Z"/>
  <path stroke="#000" stroke-miterlimit="10" stroke-width="1.5" d="M1334.14 58.119c-1.4-2.56-4.66-3.388-7.55-3.963-1.58-.315-3.18-.631-4.78-.932a25.95 25.95 0 0 0 9.07 14.506c.99-.88 1.91-1.824 2.62-2.928 1.26-1.988 1.76-4.622.64-6.683Z"/>
  <path fill="#009CFF" d="M1421.93 47.397c.12-14.427 5.31-26.077 11.55-26.018 14.57.134 26.27 11.94 26.13 26.368-.13 14.427-12.05 26.014-26.62 25.879-6.25-.059-11.2-11.802-11.06-26.229Z"/>
  <path stroke="#000" stroke-miterlimit="10" stroke-width="1.5" d="M1421.93 47.397c.12-14.427 5.31-26.077 11.55-26.018 14.57.134 26.27 11.94 26.13 26.368-.13 14.427-12.05 26.014-26.62 25.879-6.25-.059-11.2-11.802-11.06-26.229Z"/>
  <path fill="#009CFF" d="M1437.82 73.216a6.69 6.69 0 0 1-2.69-1.97c-1.93-2.369-2.08-6.015-.32-8.507 1.26-1.793 3.31-3 4.14-5.018 1.22-3.032-.88-6.37-.75-9.634.16-3.956 3.75-7.137 7.62-8.198 3.85-1.061 7.97-.475 11.93.11l.79.125c.16.522.29 1.053.41 1.587.04.158.07.317.11.478.1.484.2.972.27 1.465.03.206.05.415.08.621.04.376.09.753.11 1.132l.06.717.03 1.207v.418c0 .085-.01.17-.01.254-.01.595-.04 1.186-.09 1.77-.01.177-.04.353-.05.53-.07.616-.16 1.224-.26 1.826l-.12.566c-.12.595-.25 1.184-.42 1.766-.05.17-.09.34-.14.511-.19.593-.37 1.183-.6 1.758-.05.116-.09.23-.15.345-.2.533-.43 1.056-.68 1.572-.06.115-.1.233-.16.349-.28.558-.59 1.101-.89 1.637l-.24.398a29.03 29.03 0 0 1-1.02 1.541c-.08.116-.17.23-.25.346-.38.511-.77 1.012-1.18 1.494-.07.07-.14.14-.2.21-.44.499-.89.985-1.36 1.448-.02.016-.03.033-.05.049-.5.482-1.01.942-1.55 1.385a24.166 24.166 0 0 1-1.81 1.379c-.06.039-.11.078-.17.116-.58.4-1.18.779-1.79 1.131a.112.112 0 0 0-.05.025 26.39 26.39 0 0 1-8.54 3.061"/>
  <path stroke="#000" stroke-miterlimit="10" stroke-width="1.5" d="M1437.82 73.216a6.69 6.69 0 0 1-2.69-1.97c-1.93-2.369-2.08-6.015-.32-8.507 1.26-1.793 3.31-3 4.14-5.018 1.22-3.032-.88-6.37-.75-9.634.16-3.956 3.75-7.137 7.62-8.198 3.85-1.061 7.97-.475 11.93.11l.79.125c.16.522.29 1.053.41 1.587.04.158.07.317.11.478.1.484.2.972.27 1.465.03.206.05.415.08.621.04.376.09.753.11 1.132l.06.717.03 1.207v.418c0 .085-.01.17-.01.254-.01.595-.04 1.186-.09 1.77-.01.177-.04.353-.05.53-.07.616-.16 1.224-.26 1.826l-.12.566c-.12.595-.25 1.184-.42 1.766-.05.17-.09.34-.14.511-.19.593-.37 1.183-.6 1.758-.05.116-.09.23-.15.345-.2.533-.43 1.056-.68 1.572-.06.115-.1.233-.16.349-.28.558-.59 1.101-.89 1.637l-.24.398a29.03 29.03 0 0 1-1.02 1.541c-.08.116-.17.23-.25.346-.38.511-.77 1.012-1.18 1.494-.07.07-.14.14-.2.21-.44.499-.89.985-1.36 1.448-.02.016-.03.033-.05.049-.5.482-1.01.942-1.55 1.385a24.166 24.166 0 0 1-1.81 1.379c-.06.039-.11.078-.17.116-.58.4-1.18.779-1.79 1.131a.112.112 0 0 0-.05.025 26.39 26.39 0 0 1-8.54 3.061"/>
  <path fill="#009CFF" d="M1437.84 73.21c-.01.016-.01 0-.01 0Z"/>
  <path stroke="#000" stroke-miterlimit="10" stroke-width="1.5" d="M1437.84 73.21c-.01.016-.01 0-.01 0"/>
  <path fill="#009CFF" d="M1430.85 34.279c-5.06 4.787-2.69 7.85-6.22 10.188-.82.544-1.72.779-2.65.78.6-13.386 5.55-23.874 11.46-23.868l.05-.001a26.87 26.87 0 0 1 2.2.118c.54.05 1.08.112 1.62.194.03.006.08.01.12.017.57.091 1.16.206 1.72.336.11.025.22.053.34.08a25.52 25.52 0 0 1 1.65.45c-.07 8.694-7.63 9.203-10.29 11.706Z"/>
  <path stroke="#000" stroke-miterlimit="10" stroke-width="1.5" d="M1430.85 34.279c-5.06 4.787-2.69 7.85-6.22 10.188-.82.544-1.72.779-2.65.78.6-13.386 5.55-23.874 11.46-23.868l.05-.001a26.87 26.87 0 0 1 2.2.118c.54.05 1.08.112 1.62.194.03.006.08.01.12.017.57.091 1.16.206 1.72.336.11.025.22.053.34.08a25.52 25.52 0 0 1 1.65.45c-.07 8.694-7.63 9.203-10.29 11.706Z"/>
  <path fill="#FF5400" d="M1471.96 47.368c.17-18.362 6.75-33.19 14.71-33.117 18.54.173 33.44 15.198 33.27 33.56-.18 18.362-15.35 33.11-33.91 32.938-7.94-.074-14.24-15.019-14.07-33.381Z"/>
  <path stroke="#000" stroke-miterlimit="10" stroke-width="1.5" d="M1471.96 47.368c.17-18.362 6.75-33.19 14.71-33.117 18.54.173 33.44 15.198 33.27 33.56-.18 18.362-15.35 33.11-33.91 32.938-7.94-.074-14.24-15.019-14.07-33.381Z"/>
  <path fill="#FF5400" d="M1519.91 48.135c0 .757-.05 1.508-.1 2.254-.04.222-.05.449-.07.672-.08.784-.2 1.558-.34 2.324-.05.242-.08.482-.13.72-.15.759-.34 1.51-.54 2.248-.07.218-.14.434-.2.65-.22.757-.48 1.506-.75 2.239-.06.148-.11.292-.18.439-.27.677-.55 1.343-.87 2l-.21.443c-.35.712-.74 1.405-1.14 2.085-.09.17-.2.339-.29.506-.42.67-.86 1.324-1.31 1.963-.11.148-.21.294-.32.439-.48.65-.98 1.288-1.51 1.9-.08.092-.15.179-.23.268a41.23 41.23 0 0 1-1.74 1.845c-.03.02-.05.042-.07.062-.62.613-1.29 1.198-1.97 1.762-.07.06-.14.123-.21.182-.68.551-1.37 1.075-2.09 1.573-.06.05-.14.1-.21.148-.75.51-1.5.992-2.29 1.44-.02.011-.05.021-.06.032a33.502 33.502 0 0 1-10.88 3.896c-1.32-.545-2.53-1.404-3.43-2.51-2.45-3.014-2.63-7.654-.39-10.827 1.59-2.279 4.21-3.817 5.26-6.385 1.55-3.86-1.14-8.106-.96-12.262.21-5.035 4.78-9.083 9.69-10.434 4.91-1.35 10.15-.604 15.2.14l1 .159c.2.664.37 1.34.52 2.02.05.203.1.405.13.609.14.616.26 1.237.36 1.866.03.262.07.527.09.79.06.477.12.956.15 1.44.02.302.05.608.06.913.03.51.04 1.02.05 1.536 0 .177.01.353.01.531-.01.108-.01.215-.03.324Z"/>
  <path stroke="#000" stroke-linecap="round" stroke-linejoin="round" stroke-miterlimit="10" stroke-width="1.5" d="M1519.91 48.135c0 .757-.05 1.508-.1 2.254-.04.222-.05.449-.07.672-.08.784-.2 1.558-.34 2.324-.05.242-.08.482-.13.72-.15.759-.34 1.51-.54 2.248-.07.218-.14.434-.2.65-.22.757-.48 1.506-.75 2.239-.06.148-.11.292-.18.439-.27.677-.55 1.343-.87 2l-.21.443c-.35.712-.74 1.405-1.14 2.085-.09.17-.2.339-.29.506-.42.67-.86 1.324-1.31 1.963-.11.148-.21.294-.32.439-.48.65-.98 1.288-1.51 1.9-.08.092-.15.179-.23.268a41.23 41.23 0 0 1-1.74 1.845c-.03.02-.05.042-.07.062-.62.613-1.29 1.198-1.97 1.762-.07.06-.14.123-.21.182-.68.551-1.37 1.075-2.09 1.573-.06.05-.14.1-.21.148-.75.51-1.5.992-2.29 1.44-.02.011-.05.021-.06.032a33.502 33.502 0 0 1-10.88 3.896c-1.32-.545-2.53-1.404-3.43-2.51-2.45-3.014-2.63-7.654-.39-10.827 1.59-2.279 4.21-3.817 5.26-6.385 1.55-3.86-1.14-8.106-.96-12.262.21-5.035 4.78-9.083 9.69-10.434 4.91-1.35 10.15-.604 15.2.14l1 .159c.2.664.37 1.34.52 2.02.05.203.1.405.13.609.14.616.26 1.237.36 1.866.03.262.07.527.09.79.06.477.12.956.15 1.44.02.302.05.608.06.913.03.51.04 1.02.05 1.536 0 .177.01.353.01.531-.01.108-.01.215-.03.324Z"/>
  <path fill="#FF5400" d="M1483.31 30.678c-6.45 6.093-3.43 9.99-7.92 12.966-1.04.692-2.19.992-3.37.992.77-17.036 7.06-30.384 14.58-30.377h.06c.76.006 1.51.047 2.27.104.18.013.35.03.53.045.69.063 1.39.144 2.07.247.04.009.1.013.15.021.74.117 1.47.263 2.19.428l.42.103a29.653 29.653 0 0 1 2.11.572c-.08 11.065-9.72 11.713-13.09 14.899Z"/>
  <path stroke="#000" stroke-miterlimit="10" stroke-width="1.5" d="M1483.31 30.678c-6.45 6.093-3.43 9.99-7.92 12.966-1.04.692-2.19.992-3.37.992.77-17.036 7.06-30.384 14.58-30.377h.06c.76.006 1.51.047 2.27.104.18.013.35.03.53.045.69.063 1.39.144 2.07.247.04.009.1.013.15.021.74.117 1.47.263 2.19.428l.42.103a29.653 29.653 0 0 1 2.11.572c-.08 11.065-9.72 11.713-13.09 14.899Z"/>
  <path fill="#FF5400" d="M1308.82 47.641c.18-18.362-6.13-33.308-14.08-33.381-18.54-.171-33.71 14.574-33.89 32.938-.18 18.362 14.72 33.387 33.28 33.558 7.94.073 14.52-14.752 14.69-33.115Z"/>
  <path stroke="#000" stroke-miterlimit="10" stroke-width="1.5" d="M1308.82 47.641c.18-18.362-6.13-33.308-14.08-33.381-18.54-.171-33.71 14.574-33.89 32.938-.18 18.362 14.72 33.387 33.28 33.558 7.94.073 14.52-14.752 14.69-33.115Z"/>
  <path fill="#FF5400" d="M1280.14 44.26c-.41.08-.84.118-1.27.106-1.59-.048-3.11-.66-4.51-1.404-4.33-2.335-7.8-6.14-9.83-10.582l.03-.044c.32-.639.69-1.265 1.06-1.879l.06-.113c.39-.636.79-1.26 1.22-1.866 0-.005.01-.01.01-.015.39-.562.81-1.108 1.25-1.644.07-.098.15-.195.24-.293a33.024 33.024 0 0 1 2.83-3.044c.12-.113.23-.226.37-.336.41-.384.84-.759 1.28-1.121.09-.086.2-.173.31-.258.52-.422 1.05-.83 1.6-1.222.13-.094.27-.184.4-.277.44-.305.88-.6 1.35-.886.15-.1.31-.199.46-.296.58-.346 1.17-.68 1.76-.995.09-.04.16-.08.25-.12.53-.274 1.07-.532 1.62-.776.17-.08.36-.157.54-.234.54-.235 1.1-.46 1.68-.666.08-.032.17-.067.26-.098.65-.231 1.31-.441 1.98-.632.17-.047.33-.088.49-.132.57-.152 1.12-.29 1.69-.412.15-.031.29-.065.44-.095.7-.14 1.4-.262 2.11-.358.12-.016.23-.025.34-.04.62-.077 1.25-.138 1.88-.181a33.925 33.925 0 0 1 2.66-.09c-7.47-.002-13.72 13.15-14.56 30.003Z"/>
  <path stroke="#000" stroke-miterlimit="10" stroke-width="1.5" d="M1280.14 44.26c-.41.08-.84.118-1.27.106-1.59-.048-3.11-.66-4.51-1.404-4.33-2.335-7.8-6.14-9.83-10.582l.03-.044c.32-.639.69-1.265 1.06-1.879l.06-.113c.39-.636.79-1.26 1.22-1.866 0-.005.01-.01.01-.015.39-.562.81-1.108 1.25-1.644.07-.098.15-.195.24-.293a33.024 33.024 0 0 1 2.83-3.044c.12-.113.23-.226.37-.336.41-.384.84-.759 1.28-1.121.09-.086.2-.173.31-.258.52-.422 1.05-.83 1.6-1.222.13-.094.27-.184.4-.277.44-.305.88-.6 1.35-.886.15-.1.31-.199.46-.296.58-.346 1.17-.68 1.76-.995.09-.04.16-.08.25-.12.53-.274 1.07-.532 1.62-.776.17-.08.36-.157.54-.234.54-.235 1.1-.46 1.68-.666.08-.032.17-.067.26-.098.65-.231 1.31-.441 1.98-.632.17-.047.33-.088.49-.132.57-.152 1.12-.29 1.69-.412.15-.031.29-.065.44-.095.7-.14 1.4-.262 2.11-.358.12-.016.23-.025.34-.04.62-.077 1.25-.138 1.88-.181a33.925 33.925 0 0 1 2.66-.09c-7.47-.002-13.72 13.15-14.56 30.003Z"/>
  <path fill="#FF5400" d="M1277.35 61.015c-1.76-3.258-5.91-4.312-9.58-5.043-2.03-.401-4.06-.804-6.1-1.188 1.66 7.381 5.82 13.854 11.54 18.463 1.27-1.12 2.43-2.323 3.34-3.728 1.61-2.529 2.24-5.882.8-8.504Z"/>
  <path stroke="#000" stroke-miterlimit="10" stroke-width="1.5" d="M1277.35 61.015c-1.76-3.258-5.91-4.312-9.58-5.043-2.03-.401-4.06-.804-6.1-1.188 1.66 7.381 5.82 13.854 11.54 18.463 1.27-1.12 2.43-2.323 3.34-3.728 1.61-2.529 2.24-5.882.8-8.504Z"/>
  <path fill="#FF5400" d="M1308.82 47.641c.18-18.362-6.13-33.308-14.08-33.381-7.95-.075-14.53 14.753-14.7 33.115-.17 18.362 6.13 33.307 14.09 33.381 7.94.073 14.52-14.752 14.69-33.115Z"/>
  <path stroke="#000" stroke-miterlimit="10" stroke-width="1.5" d="M1308.82 47.641c.18-18.362-6.13-33.308-14.08-33.381-7.95-.075-14.53 14.753-14.7 33.115-.17 18.362 6.13 33.307 14.09 33.381 7.94.073 14.52-14.752 14.69-33.115Z"/>
  <path fill="#FF5400" d="M1246.47 94.999h-95.95V0h95.95v94.998Z"/>
  <path stroke="#000" stroke-miterlimit="10" stroke-width="1.5" d="M1246.47 94.999h-95.95V0h95.95v94.998Z"/>
  <path fill="#FFE82C" d="M1226.44 63.964c-.04-.077-.05-.152-.08-.229-.04-.116-.07-.234-.12-.348-.03-.08-.08-.16-.1-.242a1.601 1.601 0 0 1-.16-.327.335.335 0 0 1-.05-.076l-.14-.221c-.03-.054-.05-.108-.1-.162l-27.27-46.21-27.38 46.666c-.03.054-.58 1.453-.63 1.832-.03.19-.03.38-.03.572 0 6.15 12.59 11.116 28.11 11.096 15.53-.02 28.11-5.02 28.1-11.168 0-.2-.02-.399-.04-.595 0-.067-.03-.13-.03-.196-.03-.13-.05-.261-.08-.392Z"/>
  <path stroke="#000" stroke-miterlimit="10" stroke-width="1.5" d="M1226.44 63.964c-.04-.077-.05-.152-.08-.229-.04-.116-.07-.234-.12-.348-.03-.08-.08-.16-.1-.242a1.601 1.601 0 0 1-.16-.327.335.335 0 0 1-.05-.076l-.14-.221c-.03-.054-.05-.108-.1-.162l-27.27-46.21-27.38 46.666c-.03.054-.58 1.453-.63 1.832-.03.19-.03.38-.03.572 0 6.15 12.59 11.116 28.11 11.096 15.53-.02 28.11-5.02 28.1-11.168 0-.2-.02-.399-.04-.595 0-.067-.03-.13-.03-.196-.03-.13-.05-.261-.08-.392Z"/>
  <path stroke="#000" stroke-miterlimit="10" stroke-width="1.5" d="M1225.93 62.742c.43.773.66 1.578.66 2.404.01 6.15-12.57 11.15-28.1 11.17-15.52.019-28.11-4.947-28.11-11.097 0-.768.18-1.518.56-2.244"/>
  <path stroke="#000" stroke-miterlimit="10" stroke-width="1.5" d="m1225.93 62.744-27.51-46.593-27.38 46.665"/>
  <path stroke="#000" stroke-dasharray="2.69 2.69" stroke-miterlimit="10" stroke-width="1.5" d="M1226.6 65.142c-.01-6.148-12.59-11.116-28.13-11.094-15.51.02-28.09 5.02-28.09 11.168"/>
  <path fill="#30F2B1" d="M1150.52 94.999h-95.96V.001h95.96v94.998Z"/>
  <path stroke="#000" stroke-miterlimit="10" stroke-width="1.5" d="M1150.52 94.999h-95.96V.001h95.96v94.998Z"/>
  <path fill="#009CFF" d="M1131.31 47.768c-.16 15.737-13.16 28.376-29.06 28.23-15.89-.147-28.67-13.025-28.51-28.762.15-15.739 13.15-28.377 29.05-28.23 15.9.148 28.66 13.023 28.52 28.762Z"/>
  <path stroke="#000" stroke-miterlimit="10" stroke-width="1.5" d="M1131.31 47.768c-.16 15.737-13.16 28.376-29.06 28.23-15.89-.147-28.67-13.025-28.51-28.762.15-15.739 13.15-28.377 29.05-28.23 15.9.148 28.66 13.023 28.52 28.762Z"/>
  <path fill="#009CFF" d="M1107.55 75.546c13.39-2.312 23.64-13.83 23.77-27.779.02-2.893-.38-5.675-1.19-8.319-.28-.044-.56-.091-.86-.136-4.32-.639-8.8-1.278-13.01-.12-4.22 1.158-8.12 4.627-8.3 8.942-.15 3.563 2.15 7.202.81 10.51-.89 2.2-3.14 3.52-4.51 5.473-1.91 2.718-1.77 6.695.35 9.28.76.945 1.79 1.683 2.92 2.149"/>
  <path stroke="#000" stroke-miterlimit="10" stroke-width="1.5" d="M1107.55 75.546c13.39-2.312 23.64-13.83 23.77-27.779.02-2.893-.38-5.675-1.19-8.319-.28-.044-.56-.091-.86-.136-4.32-.639-8.8-1.278-13.01-.12-4.22 1.158-8.12 4.627-8.3 8.942-.15 3.563 2.15 7.202.81 10.51-.89 2.2-3.14 3.52-4.51 5.473-1.91 2.718-1.77 6.695.35 9.28.76.945 1.79 1.683 2.92 2.149"/>
  <path fill="#009CFF" d="M1087.87 59.081c-1.51-2.792-5.07-3.695-8.22-4.323-1.73-.344-3.48-.686-5.21-1.017a28.338 28.338 0 0 0 9.88 15.823c1.09-.959 2.09-1.99 2.87-3.194 1.37-2.167 1.92-5.04.68-7.289Z"/>
  <path stroke="#000" stroke-miterlimit="10" stroke-width="1.5" d="M1087.87 59.081c-1.51-2.792-5.07-3.695-8.22-4.323-1.73-.344-3.48-.686-5.21-1.017a28.338 28.338 0 0 0 9.88 15.823c1.09-.959 2.09-1.99 2.87-3.194 1.37-2.167 1.92-5.04.68-7.289Z"/>
  <path fill="#009CFF" d="M1111.15 20.309a28.932 28.932 0 0 0-8.35-1.302c-11.29-.105-21.11 6.216-25.91 15.533 1.72 3.807 4.71 7.068 8.41 9.07 1.22.638 2.51 1.163 3.88 1.204 1.36.04 2.79-.473 3.6-1.577 1.57-2.151.1-5.157.52-7.79.33-2.177 2.01-3.942 3.88-5.123 1.88-1.193 4-1.93 5.98-2.965 3.19-1.665 5.93-4.12 7.99-7.05Z"/>
  <path stroke="#000" stroke-miterlimit="10" stroke-width="1.5" d="M1111.15 20.309a28.932 28.932 0 0 0-8.35-1.302c-11.29-.105-21.11 6.216-25.91 15.533 1.72 3.807 4.71 7.068 8.41 9.07 1.22.638 2.51 1.163 3.88 1.204 1.36.04 2.79-.473 3.6-1.577 1.57-2.151.1-5.157.52-7.79.33-2.177 2.01-3.942 3.88-5.123 1.88-1.193 4-1.93 5.98-2.965 3.19-1.665 5.93-4.12 7.99-7.05Z"/>
  <path fill="#FFE82C" d="M1054.56 94.999H862.635V0h191.925v95Z"/>
  <path stroke="#000" stroke-miterlimit="10" stroke-width="1.5" d="M1054.56 94.999H862.635V0h191.925v95Z"/>
  <path fill="#FF5400" d="M1054.56 26.394H900.143c-2.923 0-5.295 2.34-5.295 5.226v24.65c-2.896 0-5.268 2.34-5.268 5.225v9.712h164.98V26.394Z"/>
  <path stroke="#000" stroke-miterlimit="10" stroke-width="1.5" d="M1054.56 26.394H900.143c-2.923 0-5.295 2.34-5.295 5.226v24.65c-2.896 0-5.268 2.34-5.268 5.225v9.712h164.98V26.394Z"/>
  <path fill="#FF5400" d="M912.77 47.324v4.122c0 2.665-2.19 4.826-4.888 4.826h-13.034V42.503h12.633c2.938 0 5.289 2.16 5.289 4.82Z"/>
  <path stroke="#000" stroke-miterlimit="10" stroke-width="1.5" d="M912.77 47.324v4.122c0 2.665-2.19 4.826-4.888 4.826h-13.034V42.503h12.633c2.938 0 5.289 2.16 5.289 4.82Z"/>
  <path fill="#FF5400" d="M908.047 71.207c0-3.605-2.962-6.53-6.59-6.53-3.656 0-6.617 2.924-6.617 6.53 0 3.605 2.961 6.53 6.617 6.53 3.628 0 6.59-2.925 6.59-6.53Z"/>
  <path stroke="#000" stroke-miterlimit="10" stroke-width="1.5" d="M908.047 71.207c0-3.605-2.962-6.53-6.59-6.53-3.656 0-6.617 2.924-6.617 6.53 0 3.605 2.961 6.53 6.617 6.53 3.628 0 6.59-2.925 6.59-6.53Z"/>
  <path fill="#FF5400" d="M912.771 31.46h-11.779c-.561 0-1.015.452-1.015 1.013v5.32h12.794V31.46Z"/>
  <path stroke="#000" stroke-miterlimit="10" stroke-width="1.5" d="M912.771 31.46h-11.779c-.561 0-1.015.452-1.015 1.013v5.32h12.794V31.46Z"/>
  <path fill="#FF5400" d="M930.68 31.462h-12.793v6.332h12.793v-6.332Z"/>
  <path stroke="#000" stroke-miterlimit="10" stroke-width="1.5" d="M930.68 31.462h-12.793v6.332h12.793v-6.332Z"/>
  <path fill="#FF5400" d="M948.589 31.461h-12.791v6.332h12.791v-6.332Z"/>
  <path stroke="#000" stroke-miterlimit="10" stroke-width="1.5" d="M948.589 31.461h-12.791v6.332h12.791v-6.332Z"/>
  <path fill="#FF5400" d="M966.514 31.458h-12.789v6.334h12.789v-6.334Z"/>
  <path stroke="#000" stroke-miterlimit="10" stroke-width="1.5" d="M966.514 31.458h-12.789v6.334h12.789v-6.334Z"/>
  <path fill="#FF5400" d="M984.424 31.46h-12.815v6.332h12.815V31.46Z"/>
  <path stroke="#000" stroke-miterlimit="10" stroke-width="1.5" d="M984.424 31.46h-12.815v6.332h12.815V31.46Z"/>
  <path fill="#FF5400" d="M1002.33 31.46h-12.781v6.331h12.781v-6.33Z"/>
  <path stroke="#000" stroke-miterlimit="10" stroke-width="1.5" d="M1002.33 31.46h-12.781v6.331h12.781v-6.33Z"/>
  <path fill="#FF5400" d="M1020.24 31.46h-12.78v6.334h12.78V31.46Z"/>
  <path stroke="#000" stroke-miterlimit="10" stroke-width="1.5" d="M1020.24 31.46h-12.78v6.334h12.78V31.46Z"/>
  <path fill="#FF5400" d="M1038.17 31.46h-12.81v6.33h12.81v-6.33Z"/>
  <path stroke="#000" stroke-miterlimit="10" stroke-width="1.5" d="M1038.17 31.46h-12.81v6.33h12.81v-6.33Z"/>
  <path fill="#FF5400" d="M1054.56 31.461h-11.28v6.332h11.28v-6.332Z"/>
  <path stroke="#000" stroke-miterlimit="10" stroke-width="1.5" d="M1054.56 31.461h-11.28v6.332h11.28v-6.332Z"/>
  <path fill="#FF5400" d="M930.68 44.873h-12.793v6.332h12.793v-6.332Z"/>
  <path stroke="#000" stroke-miterlimit="10" stroke-width="1.5" d="M930.68 44.873h-12.793v6.332h12.793v-6.332Z"/>
  <path fill="#FF5400" d="M948.589 44.87h-12.791v6.335h12.791v-6.334Z"/>
  <path stroke="#000" stroke-miterlimit="10" stroke-width="1.5" d="M948.589 44.87h-12.791v6.335h12.791v-6.334Z"/>
  <path fill="#FF5400" d="M966.514 44.87h-12.789v6.333h12.789v-6.334Z"/>
  <path stroke="#000" stroke-miterlimit="10" stroke-width="1.5" d="M966.514 44.87h-12.789v6.333h12.789v-6.334Z"/>
  <path fill="#FF5400" d="M984.424 44.87h-12.815v6.335h12.815V44.87Z"/>
  <path stroke="#000" stroke-miterlimit="10" stroke-width="1.5" d="M984.424 44.87h-12.815v6.335h12.815V44.87Z"/>
  <path fill="#FF5400" d="M1002.33 44.87h-12.781v6.333h12.781V44.87Z"/>
  <path stroke="#000" stroke-miterlimit="10" stroke-width="1.5" d="M1002.33 44.87h-12.781v6.333h12.781V44.87Z"/>
  <path fill="#FF5400" d="M1020.24 44.872h-12.78v6.332h12.78v-6.332Z"/>
  <path stroke="#000" stroke-miterlimit="10" stroke-width="1.5" d="M1020.24 44.872h-12.78v6.332h12.78v-6.332Z"/>
  <path fill="#FF5400" d="M1038.17 44.868h-12.81v6.333h12.81v-6.333Z"/>
  <path stroke="#000" stroke-miterlimit="10" stroke-width="1.5" d="M1038.17 44.868h-12.81v6.333h12.81v-6.333Z"/>
  <path fill="#FF5400" d="M1054.56 44.87h-11.28v6.335h11.28v-6.334Z"/>
  <path stroke="#000" stroke-miterlimit="10" stroke-width="1.5" d="M1054.56 44.87h-11.28v6.335h11.28v-6.334Z"/>
  <path fill="#009CFF" d="M798.655 95h63.981V0h-95.964v95h31.983Z"/>
  <path stroke="#000" stroke-miterlimit="10" stroke-width="1.5" d="M798.655 95h63.981V0h-95.964v95h31.983Z"/>
  <path fill="#000" d="M804.449 61.317h-3.261l-15.225-21.702h-.267v21.702h-3.389v-27.64h3.274l15.275 21.755h.268V33.677h3.325v27.64Zm18.867-7.506v-2.915c-.54.648-4.184 1.026-5.549 1.187-2.511.325-4.751 1.08-4.751 3.51 0 2.213 1.854 3.346 4.416 3.346 3.811 0 5.884-2.538 5.884-5.128Zm-13.519 1.62c0-4.75 4.249-5.6 8.124-6.1 3.812-.486 5.395-.352 5.395-1.89v-.108c0-2.659-1.454-4.21-4.416-4.21-3.064 0-4.738 1.619-5.446 3.13l-3.065-1.079c1.648-3.78 5.241-4.858 8.408-4.858 2.665 0 7.738.755 7.738 7.341v13.657h-3.219v-2.807h-.154c-.657 1.35-2.562 3.293-6.219 3.293-3.992 0-7.146-2.321-7.146-6.37Z"/>
  <path stroke="#000" stroke-miterlimit="10" stroke-width="1.5" d="M814.641 80.751h33.589m-23.989-66.499h23.989m-66.23 0h23.988"/>
  <path fill="#FFE82C" d="M766.671 95h-95.964V0h95.964v95Z"/>
  <path stroke="#000" stroke-miterlimit="10" stroke-width="1.5" d="M766.671 95h-95.964V0h95.964v95Z"/>
  <path fill="#FF5400" d="M727.912 42.5V24.672c-.151-.02-32.307-.03-32.307-.03-2.904 0-5.277 2.34-5.277 5.224V42.5h37.584Z"/>
  <path stroke="#000" stroke-miterlimit="10" stroke-width="1.5" d="M727.912 42.5V24.672c-.151-.02-32.307-.03-32.307-.03-2.904 0-5.277 2.34-5.277 5.224V42.5h37.584Z"/>
  <path fill="#FF5400" d="M718.696 26.6c0 2.886-2.371 5.226-5.278 5.226H692.31c-2.925 0-5.277 2.34-5.277 5.224v31.351c0 2.885 2.352 5.225 5.277 5.225h52.771c2.906 0 5.277-2.34 5.277-5.225V26.6c0-2.885-2.371-5.224-5.277-5.224h-21.108c-2.926 0-5.277 2.34-5.277 5.224Z"/>
  <path stroke="#000" stroke-miterlimit="10" stroke-width="1.5" d="M718.696 26.6c0 2.886-2.371 5.226-5.278 5.226H692.31c-2.925 0-5.277 2.34-5.277 5.224v31.351c0 2.885 2.352 5.225 5.277 5.225h52.771c2.906 0 5.277-2.34 5.277-5.225V26.6c0-2.885-2.371-5.224-5.277-5.224h-21.108c-2.926 0-5.277 2.34-5.277 5.224Z"/>
  <path fill="#30F2B1" d="M382.837 95V0h287.871v95H382.837Z"/>
  <path stroke="#000" stroke-miterlimit="10" stroke-width="1.5" d="M382.837 95V0h287.871v95H382.837Z"/>
  <path fill="#009CFF" d="M409.229 63.648v-32.3c0-2.625-2.146-4.751-4.791-4.751-2.659 0-4.805 2.126-4.805 4.75v32.3c0 2.623 2.146 4.75 4.805 4.75 2.645 0 4.791-2.127 4.791-4.75Z"/>
  <path stroke="#000" stroke-miterlimit="10" stroke-width="1.5" d="M409.229 63.648v-32.3c0-2.625-2.146-4.751-4.791-4.751-2.659 0-4.805 2.126-4.805 4.75v32.3c0 2.623 2.146 4.75 4.805 4.75 2.645 0 4.791-2.127 4.791-4.75Z"/>
  <path fill="#009CFF" d="M557.963 63.648v-32.3c0-2.622-2.155-4.749-4.797-4.749-2.657 0-4.797 2.127-4.797 4.75v32.3c0 2.622 2.14 4.75 4.797 4.75 2.642 0 4.797-2.128 4.797-4.75Z"/>
  <path stroke="#000" stroke-miterlimit="10" stroke-width="1.5" d="M557.963 63.648v-32.3c0-2.622-2.155-4.749-4.797-4.749-2.657 0-4.797 2.127-4.797 4.75v32.3c0 2.622 2.14 4.75 4.797 4.75 2.642 0 4.797-2.128 4.797-4.75Z"/>
  <path fill="#009CFF" d="M473.991 26.916v41.167c0 2.624 2.146 4.752 4.806 4.752 2.647 0 4.792-2.127 4.792-4.752V26.916c0-2.622-2.145-4.75-4.792-4.75-2.66 0-4.806 2.128-4.806 4.75Z"/>
  <path stroke="#000" stroke-miterlimit="10" stroke-width="1.5" d="M473.991 26.916v41.167c0 2.624 2.146 4.752 4.806 4.752 2.647 0 4.792-2.127 4.792-4.752V26.916c0-2.622-2.145-4.75-4.792-4.75-2.66 0-4.806 2.128-4.806 4.75Z"/>
  <path fill="#FFE82C" d="M569.958 26.916v41.168c0 2.623 2.13 4.75 4.796 4.75 2.65 0 4.795-2.127 4.795-4.75V26.916c0-2.623-2.145-4.749-4.795-4.749-2.666 0-4.796 2.126-4.796 4.749Z"/>
  <path stroke="#000" stroke-miterlimit="10" stroke-width="1.5" d="M569.958 26.916v41.168c0 2.623 2.13 4.75 4.796 4.75 2.65 0 4.795-2.127 4.795-4.75V26.916c0-2.623-2.145-4.749-4.795-4.749-2.666 0-4.796 2.126-4.796 4.749Z"/>
  <path fill="#FFE82C" d="M452.409 31.35v32.299c0 2.622 2.14 4.75 4.79 4.75s4.804-2.128 4.804-4.75v-32.3c0-2.625-2.154-4.75-4.804-4.75-2.65 0-4.79 2.125-4.79 4.75Z"/>
  <path stroke="#000" stroke-miterlimit="10" stroke-width="1.5" d="M452.409 31.35v32.299c0 2.622 2.14 4.75 4.79 4.75s4.804-2.128 4.804-4.75v-32.3c0-2.625-2.154-4.75-4.804-4.75-2.65 0-4.79 2.125-4.79 4.75Z"/>
  <path fill="#FFE82C" d="M495.589 31.347v32.3c0 2.623 2.151 4.75 4.807 4.75 2.642 0 4.793-2.127 4.793-4.75v-32.3c0-2.624-2.151-4.75-4.793-4.75-2.656 0-4.807 2.126-4.807 4.75Z"/>
  <path stroke="#000" stroke-miterlimit="10" stroke-width="1.5" d="M495.589 31.347v32.3c0 2.623 2.151 4.75 4.807 4.75 2.642 0 4.793-2.127 4.793-4.75v-32.3c0-2.624-2.151-4.75-4.793-4.75-2.656 0-4.807 2.126-4.807 4.75Z"/>
  <path fill="#009CFF" d="M478.787 13.527v12.665c-22.968 0-42.724 24.925-42.924 25.177-.942 1.222-23.724 30.106-53.03 30.106V68.807c22.954 0 42.71-24.922 42.91-25.174.942-1.224 23.724-30.106 53.044-30.106Z"/>
  <path stroke="#000" stroke-miterlimit="10" stroke-width="1.5" d="M478.787 13.527c-29.32 0-52.102 28.882-53.044 30.106-.2.252-19.956 25.174-42.91 25.174v12.668c29.306 0 52.088-28.884 53.03-30.106.2-.252 19.956-25.177 42.924-25.177"/>
  <path fill="#FFE82C" d="M478.787 68.807v12.668c-29.32 0-52.102-28.884-53.059-30.113-.185-.245-19.941-25.17-42.895-25.17V13.527c29.306 0 52.088 28.882 53.044 30.112.186.246 19.942 25.168 42.91 25.168Z"/>
  <path stroke="#000" stroke-miterlimit="10" stroke-width="1.5" d="M478.787 81.475c-29.32 0-52.102-28.884-53.059-30.113-.185-.245-19.941-25.17-42.895-25.17V13.527c29.306 0 52.088 28.882 53.044 30.112.186.246 19.942 25.168 42.91 25.168"/>
  <path fill="#FFE82C" d="M574.748 26.192V13.526c-29.311 0-52.096 28.883-53.063 30.112-.193.244-19.931 25.17-42.895 25.17v12.667c29.31 0 52.081-28.883 53.047-30.113.193-.245 19.932-25.17 42.911-25.17Z"/>
  <path stroke="#000" stroke-miterlimit="10" stroke-width="1.5" d="M574.748 26.192c-22.979 0-42.718 24.925-42.911 25.17-.966 1.23-23.737 30.113-53.047 30.113m0-12.665c22.964 0 42.702-24.927 42.895-25.171.967-1.229 23.752-30.112 53.063-30.112"/>
  <path fill="#009CFF" d="M574.748 81.475V68.81c-22.979 0-42.718-24.927-42.926-25.177-.951-1.223-23.722-30.106-53.032-30.106v12.666c22.964 0 42.702 24.925 42.91 25.177.952 1.223 23.737 30.106 53.048 30.106Z"/>
  <path stroke="#000" stroke-miterlimit="10" stroke-width="1.5" d="M574.748 81.475c-29.311 0-52.096-28.883-53.048-30.106-.208-.252-19.946-25.177-42.91-25.177m0-12.665c29.31 0 52.081 28.883 53.032 30.106.208.25 19.947 25.177 42.926 25.177"/>
  <path fill="#009CFF" d="M601.15 63.648v-32.3c0-2.624-2.149-4.75-4.793-4.75-2.66 0-4.808 2.126-4.808 4.75v32.3c0 2.622 2.148 4.75 4.808 4.75 2.644 0 4.793-2.128 4.793-4.75Z"/>
  <path stroke="#000" stroke-miterlimit="10" stroke-width="1.5" d="M601.15 63.648v-32.3c0-2.624-2.149-4.75-4.793-4.75-2.66 0-4.808 2.126-4.808 4.75v32.3c0 2.622 2.148 4.75 4.808 4.75 2.644 0 4.793-2.128 4.793-4.75Z"/>
  <path fill="#FFE82C" d="M644.331 31.35v32.299c0 2.623 2.134 4.75 4.789 4.75s4.804-2.127 4.804-4.75v-32.3c0-2.624-2.149-4.75-4.804-4.75-2.655 0-4.789 2.126-4.789 4.75Z"/>
  <path stroke="#000" stroke-miterlimit="10" stroke-width="1.5" d="M644.331 31.35v32.299c0 2.623 2.134 4.75 4.789 4.75s4.804-2.127 4.804-4.75v-32.3c0-2.624-2.149-4.75-4.804-4.75-2.655 0-4.789 2.126-4.789 4.75Z"/>
  <path fill="#009CFF" d="M670.707 13.527v12.666c-22.977 0-42.725 24.924-42.926 25.176-.942 1.223-23.734 30.106-53.031 30.106V68.808c22.962 0 42.709-24.924 42.91-25.175.943-1.224 23.735-30.107 53.047-30.107Z"/>
  <path stroke="#000" stroke-miterlimit="10" stroke-width="1.5" d="M574.75 68.808c22.962 0 42.709-24.924 42.91-25.175.943-1.224 23.735-30.107 53.047-30.107v12.667c-22.977 0-42.725 24.924-42.926 25.176-.942 1.223-23.734 30.106-53.031 30.106"/>
  <path fill="#FFE82C" d="M670.707 68.808v12.667c-29.312 0-52.104-28.883-53.062-30.112-.186-.246-19.933-25.17-42.895-25.17V13.526c29.297 0 52.089 28.884 53.047 30.114.185.244 19.933 25.168 42.91 25.168Z"/>
  <path stroke="#000" stroke-miterlimit="10" stroke-width="1.5" d="M574.75 13.527c29.297 0 52.089 28.883 53.047 30.113.185.244 19.933 25.168 42.91 25.168v12.667c-29.312 0-52.104-28.883-53.062-30.112-.186-.246-19.933-25.17-42.895-25.17"/>
  <path fill="#0041A0" d="M286.879 95V0h95.954v95h-95.954Z"/>
  <path stroke="#000" stroke-miterlimit="10" stroke-width="1.5" d="M286.879 95V0h95.954v95h-95.954Z"/>
  <path fill="#009CFF" d="M286.877 95v-8.996c5.029 0 9.083 4.028 9.083 8.996h-9.083Z"/>
  <path stroke="#000" stroke-miterlimit="10" stroke-width="1.5" d="M286.877 95v-8.996c5.029 0 9.083 4.028 9.083 8.996h-9.083Z"/>
  <path fill="#009CFF" d="M286.877 80.238V62.264c5.029 0 9.083 4.018 9.083 8.987 0 4.959-4.054 8.987-9.083 8.987Z"/>
  <path stroke="#000" stroke-miterlimit="10" stroke-width="1.5" d="M286.877 80.238V62.264c5.029 0 9.083 4.018 9.083 8.987 0 4.959-4.054 8.987-9.083 8.987Z"/>
  <path fill="#009CFF" d="M286.877 56.487V38.513c5.029 0 9.083 4.019 9.083 8.988 0 4.968-4.054 8.986-9.083 8.986Z"/>
  <path stroke="#000" stroke-miterlimit="10" stroke-width="1.5" d="M286.877 56.487V38.513c5.029 0 9.083 4.019 9.083 8.988 0 4.968-4.054 8.986-9.083 8.986Z"/>
  <path fill="#009CFF" d="M310.871 74.138c-5.014 0-9.069 4.018-9.069 8.987 0 4.968 4.055 8.987 9.069 8.987 5.028 0 9.083-4.019 9.083-8.987 0-4.969-4.055-8.987-9.083-8.987Z"/>
  <path stroke="#000" stroke-miterlimit="10" stroke-width="1.5" d="M310.871 74.138c-5.014 0-9.069 4.018-9.069 8.987 0 4.968 4.055 8.987 9.069 8.987 5.028 0 9.083-4.019 9.083-8.987 0-4.969-4.055-8.987-9.083-8.987Z"/>
  <path fill="#009CFF" d="M310.871 26.638c-5.014 0-9.069 4.028-9.069 8.988 0 4.968 4.055 8.996 9.069 8.996 5.028 0 9.083-4.028 9.083-8.996 0-4.96-4.055-8.988-9.083-8.988Z"/>
  <path stroke="#000" stroke-miterlimit="10" stroke-width="1.5" d="M310.871 26.638c-5.014 0-9.069 4.028-9.069 8.988 0 4.968 4.055 8.996 9.069 8.996 5.028 0 9.083-4.028 9.083-8.996 0-4.96-4.055-8.988-9.083-8.988Z"/>
  <path fill="#009CFF" d="M310.871 2.888c-5.014 0-9.069 4.028-9.069 8.996 0 4.96 4.055 8.988 9.069 8.988 5.028 0 9.083-4.029 9.083-8.988 0-4.968-4.055-8.996-9.083-8.996Z"/>
  <path stroke="#000" stroke-miterlimit="10" stroke-width="1.5" d="M310.871 2.888c-5.014 0-9.069 4.028-9.069 8.996 0 4.96 4.055 8.988 9.069 8.988 5.028 0 9.083-4.029 9.083-8.988 0-4.968-4.055-8.996-9.083-8.996Z"/>
  <path fill="#009CFF" d="M325.77 95c0-4.968 4.07-8.996 9.081-8.996 5.025 0 9.081 4.028 9.081 8.996H325.77Z"/>
  <path stroke="#000" stroke-miterlimit="10" stroke-width="1.5" d="M325.77 95c0-4.968 4.07-8.996 9.081-8.996 5.025 0 9.081 4.028 9.081 8.996H325.77Z"/>
  <path fill="#009CFF" d="M334.851 62.264c-5.011 0-9.081 4.028-9.081 8.987 0 4.968 4.07 8.987 9.081 8.987 5.025 0 9.081-4.019 9.081-8.987 0-4.96-4.056-8.987-9.081-8.987Z"/>
  <path stroke="#000" stroke-miterlimit="10" stroke-width="1.5" d="M334.851 62.264c-5.011 0-9.081 4.028-9.081 8.987 0 4.968 4.07 8.987 9.081 8.987 5.025 0 9.081-4.019 9.081-8.987 0-4.96-4.056-8.987-9.081-8.987Z"/>
  <path fill="#009CFF" d="M334.851 14.764c-5.011 0-9.081 4.027-9.081 8.987 0 4.968 4.07 8.996 9.081 8.996 5.025 0 9.081-4.028 9.081-8.996 0-4.96-4.056-8.987-9.081-8.987Z"/>
  <path stroke="#000" stroke-miterlimit="10" stroke-width="1.5" d="M334.851 14.764c-5.011 0-9.081 4.027-9.081 8.987 0 4.968 4.07 8.996 9.081 8.996 5.025 0 9.081-4.028 9.081-8.996 0-4.96-4.056-8.987-9.081-8.987Z"/>
  <path fill="#009CFF" d="M325.77 0h18.162c0 4.969-4.056 8.997-9.081 8.997-5.011 0-9.081-4.028-9.081-8.996Z"/>
  <path stroke="#000" stroke-miterlimit="10" stroke-width="1.5" d="M325.77 0h18.162c0 4.969-4.056 8.997-9.081 8.997-5.011 0-9.081-4.028-9.081-8.996Z"/>
  <path fill="#009CFF" d="M358.849 74.138c-5.021 0-9.078 4.018-9.078 8.987 0 4.968 4.057 8.987 9.078 8.987 5.021 0 9.077-4.019 9.077-8.987 0-4.969-4.056-8.987-9.077-8.987Z"/>
  <path stroke="#000" stroke-miterlimit="10" stroke-width="1.5" d="M358.849 74.138c-5.021 0-9.078 4.018-9.078 8.987 0 4.968 4.057 8.987 9.078 8.987 5.021 0 9.077-4.019 9.077-8.987 0-4.969-4.056-8.987-9.077-8.987Z"/>
  <path fill="#009CFF" d="M358.849 50.389c-5.021 0-9.078 4.028-9.078 8.987 0 4.968 4.057 8.997 9.078 8.997 5.021 0 9.077-4.029 9.077-8.997 0-4.96-4.056-8.987-9.077-8.987Z"/>
  <path stroke="#000" stroke-miterlimit="10" stroke-width="1.5" d="M358.849 50.389c-5.021 0-9.078 4.028-9.078 8.987 0 4.968 4.057 8.997 9.078 8.997 5.021 0 9.077-4.029 9.077-8.997 0-4.96-4.056-8.987-9.077-8.987Z"/>
  <path fill="#009CFF" d="M358.849 26.638c-5.021 0-9.078 4.028-9.078 8.988 0 4.968 4.057 8.996 9.078 8.996 5.021 0 9.077-4.028 9.077-8.996 0-4.96-4.056-8.988-9.077-8.988Z"/>
  <path stroke="#000" stroke-miterlimit="10" stroke-width="1.5" d="M358.849 26.638c-5.021 0-9.078 4.028-9.078 8.988 0 4.968 4.057 8.996 9.078 8.996 5.021 0 9.077-4.028 9.077-8.996 0-4.96-4.056-8.988-9.077-8.988Z"/>
  <path fill="#009CFF" d="M358.849 2.888c-5.021 0-9.078 4.028-9.078 8.997 0 4.959 4.057 8.987 9.078 8.987 5.021 0 9.077-4.028 9.077-8.987 0-4.969-4.056-8.997-9.077-8.997Z"/>
  <path stroke="#000" stroke-miterlimit="10" stroke-width="1.5" d="M358.849 2.888c-5.021 0-9.078 4.028-9.078 8.997 0 4.959 4.057 8.987 9.078 8.987 5.021 0 9.077-4.028 9.077-8.987 0-4.969-4.056-8.997-9.077-8.997Z"/>
  <path fill="#009CFF" d="M373.754 47.5c0-4.968 4.054-8.986 9.078-8.986v17.973c-5.024 0-9.078-4.018-9.078-8.986Z"/>
  <path stroke="#000" stroke-miterlimit="10" stroke-width="1.5" d="M373.754 47.5c0-4.968 4.054-8.986 9.078-8.986v17.973c-5.024 0-9.078-4.018-9.078-8.986Z"/>
  <path fill="#009CFF" d="M373.754 23.751c0-4.96 4.054-8.987 9.078-8.987v17.974c-5.024 0-9.078-4.019-9.078-8.987Z"/>
  <path stroke="#000" stroke-miterlimit="10" stroke-width="1.5" d="M373.754 23.751c0-4.96 4.054-8.987 9.078-8.987v17.974c-5.024 0-9.078-4.019-9.078-8.987Z"/>
  <path fill="#009CFF" d="M373.754 0h9.078v8.997c-5.024 0-9.078-4.028-9.078-8.996Z"/>
  <path stroke="#000" stroke-miterlimit="10" stroke-width="1.5" d="M373.754 0h9.078v8.997c-5.024 0-9.078-4.028-9.078-8.996Z"/>
  <path fill="#009CFF" d="M286.877 32.738V0h9.083a8.92 8.92 0 0 1-3.284 6.916 6.812 6.812 0 0 0-1.773 2.223c-.398.845-.646 1.776-.646 2.736 0 1.928.921 3.734 2.419 4.959 2.006 1.653 3.284 4.132 3.284 6.916 0 4.968-4.054 8.996-9.083 8.987Zm86.949 37.334c.514-4.037 3.868-7.295 7.951-7.751a9.577 9.577 0 0 1 1.056-.057V95h-9.079c0-2.84 1.328-5.367 3.412-7.02 1.47-1.169 2.284-2.983 2.284-4.855 0-1.871-.814-3.686-2.284-4.854-2.37-1.872-3.768-4.883-3.34-8.199Z"/>
  <path stroke="#000" stroke-miterlimit="10" stroke-width="1.5" d="M373.826 70.072c.514-4.037 3.868-7.295 7.951-7.751a9.577 9.577 0 0 1 1.056-.057V95h-9.079c0-2.84 1.328-5.367 3.412-7.02 1.47-1.169 2.284-2.983 2.284-4.855 0-1.871-.814-3.686-2.284-4.854-2.37-1.872-3.768-4.883-3.34-8.199Z"/>
  <path fill="#009CFF" d="M321.385 50.34c-1.685.856-3.23 1.33-6.516.713-2.612-.484-5.154-1.13-8.089.361a8.932 8.932 0 0 0-3.89 12.094c2.289 4.398 7.738 6.165 12.19 3.904 2.935-1.491 3.89-3.914 4.999-6.298 1.419-3.012 2.697-3.971 4.382-4.826 1.685-.855 3.23-1.33 6.517-.713 2.612.485 5.154 1.121 8.075-.37 4.452-2.261 6.193-7.686 3.904-12.084-2.289-4.408-7.752-6.166-12.204-3.905-2.921 1.492-3.876 3.914-5 6.299-1.404 3.002-2.696 3.97-4.368 4.826Z"/>
  <path stroke="#000" stroke-miterlimit="10" stroke-width="1.5" d="M286.877 32.738V0h9.083a8.92 8.92 0 0 1-3.284 6.916 6.812 6.812 0 0 0-1.773 2.223c-.398.845-.646 1.776-.646 2.736 0 1.928.921 3.734 2.419 4.959 2.006 1.653 3.284 4.132 3.284 6.916 0 4.968-4.054 8.996-9.083 8.987Zm34.508 17.602c-1.685.856-3.23 1.33-6.516.713-2.612-.484-5.154-1.13-8.089.361a8.932 8.932 0 0 0-3.89 12.094c2.289 4.398 7.738 6.165 12.19 3.904 2.935-1.491 3.89-3.914 4.999-6.298 1.419-3.012 2.697-3.971 4.382-4.826 1.685-.855 3.23-1.33 6.517-.713 2.612.485 5.154 1.121 8.075-.37 4.452-2.261 6.193-7.686 3.904-12.084-2.289-4.408-7.752-6.166-12.204-3.905-2.921 1.492-3.876 3.914-5 6.299-1.404 3.002-2.696 3.97-4.368 4.826Z"/>
  <path fill="#FF5400" d="M286.877 95H-1V0h287.877v95Z"/>
  <path stroke="#000" stroke-miterlimit="10" stroke-width="1.5" d="M286.877 95H-1V0h287.877v95Z"/>
  <path fill="#FFE82C" d="M162.104 47.684c-.088 10.491-8.764 18.919-19.359 18.82-10.607-.097-19.117-8.683-19.007-19.176.089-10.492 8.764-18.917 19.36-18.818 10.607.098 19.116 8.68 19.006 19.174Z"/>
  <path stroke="#000" stroke-miterlimit="10" stroke-width="1.5" d="M162.104 47.684c-.088 10.491-8.764 18.919-19.359 18.82-10.607-.097-19.117-8.683-19.007-19.176.089-10.492 8.764-18.917 19.36-18.818 10.607.098 19.116 8.68 19.006 19.174Z"/>
  <path fill="#FFE82C" d="M146.266 66.207c8.929-1.542 15.76-9.222 15.849-18.521a18.463 18.463 0 0 0-.784-5.546l-.574-.092c-2.881-.425-5.872-.852-8.686-.08-2.803.771-5.408 3.086-5.54 5.963-.089 2.373 1.445 4.802.563 7.007-.608 1.466-2.109 2.346-3.014 3.649-1.28 1.81-1.169 4.463.232 6.185a4.863 4.863 0 0 0 1.954 1.435Z"/>
  <path stroke="#000" stroke-miterlimit="10" stroke-width="1.5" d="M146.266 66.207c8.929-1.542 15.76-9.222 15.849-18.521a18.463 18.463 0 0 0-.784-5.546l-.574-.092c-2.881-.425-5.872-.852-8.686-.08-2.803.771-5.408 3.086-5.54 5.963-.089 2.373 1.445 4.802.563 7.007-.608 1.466-2.109 2.346-3.014 3.649-1.28 1.81-1.169 4.463.232 6.185a4.863 4.863 0 0 0 1.954 1.435Z"/>
  <path fill="#FFE82C" d="M133.156 55.226c-1.01-1.862-3.379-2.463-5.475-2.882-1.163-.229-2.325-.459-3.477-.678a18.864 18.864 0 0 0 6.584 10.55c.728-.64 1.401-1.327 1.912-2.13.912-1.445 1.282-3.36.456-4.86Z"/>
  <path stroke="#000" stroke-miterlimit="10" stroke-width="1.5" d="M133.156 55.226c-1.01-1.862-3.379-2.463-5.475-2.882-1.163-.229-2.325-.459-3.477-.678a18.864 18.864 0 0 0 6.584 10.55c.728-.64 1.401-1.327 1.912-2.13.912-1.445 1.282-3.36.456-4.86Z"/>
  <path fill="#FFE82C" d="M148.685 29.368a19.631 19.631 0 0 0-5.565-.868c-7.526-.065-14.076 4.143-17.286 10.359 1.161 2.539 3.155 4.713 5.62 6.047.799.425 1.675.775 2.585.803.909.028 1.862-.315 2.399-1.052 1.051-1.434.055-3.438.35-5.193.219-1.453 1.337-2.624 2.575-3.416 1.259-.792 2.672-1.29 3.987-1.974a15.2 15.2 0 0 0 5.335-4.706Z"/>
  <path stroke="#000" stroke-miterlimit="10" stroke-width="1.5" d="M148.685 29.368a19.631 19.631 0 0 0-5.565-.868c-7.526-.065-14.076 4.143-17.286 10.359 1.161 2.539 3.155 4.713 5.62 6.047.799.425 1.675.775 2.585.803.909.028 1.862-.315 2.399-1.052 1.051-1.434.055-3.438.35-5.193.219-1.453 1.337-2.624 2.575-3.416 1.259-.792 2.672-1.29 3.987-1.974a15.2 15.2 0 0 0 5.335-4.706Z"/>
  <path fill="#009CFF" d="M111.397 47.608c.139-14.432-4.816-26.176-11.059-26.23-14.567-.138-26.494 11.448-26.634 25.88-.128 14.428 11.563 26.232 26.14 26.367 6.243.059 11.424-11.592 11.553-26.017Z"/>
  <path stroke="#000" stroke-miterlimit="10" stroke-width="1.5" d="M111.397 47.608c.139-14.432-4.816-26.176-11.059-26.23-14.567-.138-26.494 11.448-26.634 25.88-.128 14.428 11.563 26.232 26.14 26.367 6.243.059 11.424-11.592 11.553-26.017Z"/>
  <path fill="#009CFF" d="M111.396 47.608c.14-14.432-4.816-26.176-11.059-26.23-6.242-.063-11.423 11.596-11.552 26.017-.14 14.43 4.816 26.173 11.059 26.23 6.243.059 11.424-11.592 11.552-26.017Z"/>
  <path stroke="#000" stroke-miterlimit="10" stroke-width="1.5" d="M111.396 47.608c.14-14.432-4.816-26.176-11.059-26.23-6.242-.063-11.423 11.596-11.552 26.017-.14 14.43 4.816 26.173 11.059 26.23 6.243.059 11.424-11.592 11.552-26.017Z"/>
  <path fill="#009CFF" d="M88.865 44.957c-.33.063-.671.094-1.001.084-1.247-.042-2.452-.517-3.55-1.108-3.4-1.836-6.138-4.822-7.726-8.314.01-.01.021-.021.021-.032.267-.506.533-.991.832-1.477.02-.031.031-.063.053-.084.298-.507.618-.992.959-1.467l.01-.01c.31-.443.64-.876.97-1.298.075-.074.128-.148.192-.232a26.328 26.328 0 0 1 2.228-2.384c.096-.095.192-.18.288-.264.33-.306.66-.602 1.012-.886.075-.064.15-.138.234-.2.405-.338.832-.655 1.258-.961l.32-.222c.34-.232.703-.474 1.055-.696.128-.074.245-.158.373-.232.458-.274.916-.538 1.385-.78.053-.032.128-.064.192-.096a39 39 0 0 1 1.279-.612c.128-.063.277-.116.405-.18.448-.19.874-.358 1.332-.527.064-.02.128-.052.192-.073.522-.18 1.044-.349 1.567-.496.127-.032.255-.074.383-.106.448-.116.885-.221 1.332-.316.107-.032.224-.053.341-.085.544-.105 1.098-.2 1.674-.274.085-.01.16-.021.245-.032.49-.063.98-.105 1.481-.148.128-.01.267-.02.405-.02a22.285 22.285 0 0 1 1.684-.043c-5.872-.01-10.775 10.33-11.425 23.57Z"/>
  <path stroke="#000" stroke-miterlimit="10" stroke-width="1.5" d="M88.865 44.957c-.33.063-.671.094-1.001.084-1.247-.042-2.452-.517-3.55-1.108-3.4-1.836-6.138-4.822-7.726-8.314.01-.01.021-.021.021-.032.267-.506.533-.991.832-1.477.02-.031.031-.063.053-.084.298-.507.618-.992.959-1.467l.01-.01c.31-.443.64-.876.97-1.298.075-.074.128-.148.192-.232a26.328 26.328 0 0 1 2.228-2.384c.096-.095.192-.18.288-.264.33-.306.66-.602 1.012-.886.075-.064.15-.138.234-.2.405-.338.832-.655 1.258-.961l.32-.222c.34-.232.703-.474 1.055-.696.128-.074.245-.158.373-.232.458-.274.916-.538 1.385-.78.053-.032.128-.064.192-.096a39 39 0 0 1 1.279-.612c.128-.063.277-.116.405-.18.448-.19.874-.358 1.332-.527.064-.02.128-.052.192-.073.522-.18 1.044-.349 1.567-.496.127-.032.255-.074.383-.106.448-.116.885-.221 1.332-.316.107-.032.224-.053.341-.085.544-.105 1.098-.2 1.674-.274.085-.01.16-.021.245-.032.49-.063.98-.105 1.481-.148.128-.01.267-.02.405-.02a22.285 22.285 0 0 1 1.684-.043c-5.872-.01-10.775 10.33-11.425 23.57Z"/>
  <path fill="#009CFF" d="M86.67 58.117c-1.396-2.556-4.655-3.383-7.544-3.96a638.491 638.491 0 0 0-4.782-.932 26.006 26.006 0 0 0 9.067 14.508c.995-.88 1.915-1.823 2.624-2.933 1.26-1.99 1.757-4.62.635-6.683Z"/>
  <path stroke="#000" stroke-miterlimit="10" stroke-width="1.5" d="M86.67 58.117c-1.396-2.556-4.655-3.383-7.544-3.96a638.491 638.491 0 0 0-4.782-.932 26.006 26.006 0 0 0 9.067 14.508c.995-.88 1.915-1.823 2.624-2.933 1.26-1.99 1.757-4.62.635-6.683Z"/>
  <path fill="#009CFF" d="M174.46 47.398c.125-14.428 5.309-26.078 11.549-26.02 14.577.136 26.273 11.94 26.137 26.369-.136 14.427-12.059 26.014-26.625 25.88-6.251-.058-11.197-11.802-11.061-26.23Z"/>
  <path stroke="#000" stroke-miterlimit="10" stroke-width="1.5" d="M174.46 47.398c.125-14.428 5.309-26.078 11.549-26.02 14.577.136 26.273 11.94 26.137 26.369-.136 14.427-12.059 26.014-26.625 25.88-6.251-.058-11.197-11.802-11.061-26.23Z"/>
  <path fill="#009CFF" d="M190.351 73.217a6.75 6.75 0 0 1-2.688-1.97c-1.928-2.37-2.076-6.016-.318-8.508 1.26-1.791 3.313-3 4.141-5.017 1.214-3.031-.885-6.37-.749-9.634.159-3.957 3.744-7.136 7.612-8.199 3.857-1.06 7.974-.475 11.933.11.272.042.522.085.794.125.159.522.284 1.053.409 1.588.034.158.068.318.113.477.091.484.193.973.261 1.466.034.206.057.414.079.622.046.375.091.751.114 1.132.022.237.045.476.056.716l.034 1.208v.416c0 .087-.011.17-.011.254a22.542 22.542 0 0 1-.091 1.771c-.011.176-.034.354-.045.529a31.922 31.922 0 0 1-.261 1.827c-.045.189-.079.379-.125.565a18.6 18.6 0 0 1-.419 1.767l-.136.51c-.193.594-.375 1.183-.602 1.758a3.82 3.82 0 0 1-.147.346 20.002 20.002 0 0 1-.681 1.571c-.057.116-.102.233-.159.35a36.76 36.76 0 0 1-.896 1.638l-.238.396a26.772 26.772 0 0 1-1.021 1.542c-.079.117-.17.231-.249.346a27.46 27.46 0 0 1-1.18 1.493c-.068.072-.136.14-.193.212-.442.497-.896.983-1.361 1.447-.023.016-.034.034-.057.049-.499.482-1.01.942-1.543 1.384-.056.05-.113.098-.17.144-.533.433-1.078.844-1.645 1.236l-.17.117c-.578.399-1.18.778-1.792 1.13-.023.009-.034.017-.046.025a26.31 26.31 0 0 1-8.541 3.06"/>
  <path stroke="#000" stroke-miterlimit="10" stroke-width="1.5" d="M190.351 73.217a6.75 6.75 0 0 1-2.688-1.97c-1.928-2.37-2.076-6.016-.318-8.508 1.26-1.791 3.313-3 4.141-5.017 1.214-3.031-.885-6.37-.749-9.634.159-3.957 3.744-7.136 7.612-8.199 3.857-1.06 7.974-.475 11.933.11.272.042.522.085.794.125.159.522.284 1.053.409 1.588.034.158.068.318.113.477.091.484.193.973.261 1.466.034.206.057.414.079.622.046.375.091.751.114 1.132.022.237.045.476.056.716l.034 1.208v.416c0 .087-.011.17-.011.254a22.542 22.542 0 0 1-.091 1.771c-.011.176-.034.354-.045.529a31.922 31.922 0 0 1-.261 1.827c-.045.189-.079.379-.125.565a18.6 18.6 0 0 1-.419 1.767l-.136.51c-.193.594-.375 1.183-.602 1.758a3.82 3.82 0 0 1-.147.346 20.002 20.002 0 0 1-.681 1.571c-.057.116-.102.233-.159.35a36.76 36.76 0 0 1-.896 1.638l-.238.396a26.772 26.772 0 0 1-1.021 1.542c-.079.117-.17.231-.249.346a27.46 27.46 0 0 1-1.18 1.493c-.068.072-.136.14-.193.212-.442.497-.896.983-1.361 1.447-.023.016-.034.034-.057.049-.499.482-1.01.942-1.543 1.384-.056.05-.113.098-.17.144-.533.433-1.078.844-1.645 1.236l-.17.117c-.578.399-1.18.778-1.792 1.13-.023.009-.034.017-.046.025a26.31 26.31 0 0 1-8.541 3.06"/>
  <path fill="#009CFF" d="M190.37 73.21c-.013.016-.013 0-.013 0Z"/>
  <path stroke="#000" stroke-miterlimit="10" stroke-width="1.5" d="M190.37 73.21c-.013.016-.013 0-.013 0"/>
  <path fill="#009CFF" d="M183.383 34.28c-5.065 4.786-2.696 7.847-6.222 10.188-.82.543-1.718.778-2.65.778.606-13.385 5.547-23.872 11.466-23.867h.045a27.773 27.773 0 0 1 2.201.117c.539.05 1.078.112 1.617.195l.124.015c.572.091 1.156.207 1.718.336.112.025.224.054.337.082a26.276 26.276 0 0 1 1.651.45c-.068 8.694-7.626 9.202-10.287 11.705Z"/>
  <path stroke="#000" stroke-miterlimit="10" stroke-width="1.5" d="M183.383 34.28c-5.065 4.786-2.696 7.847-6.222 10.188-.82.543-1.718.778-2.65.778.606-13.385 5.547-23.872 11.466-23.867h.045a27.773 27.773 0 0 1 2.201.117c.539.05 1.078.112 1.617.195l.124.015c.572.091 1.156.207 1.718.336.112.025.224.054.337.082a26.276 26.276 0 0 1 1.651.45c-.068 8.694-7.626 9.202-10.287 11.705Z"/>
  <path fill="#FFE82C" d="M224.495 47.369c.164-18.363 6.748-33.189 14.702-33.116 18.544.172 33.446 15.196 33.27 33.559-.176 18.363-15.347 33.11-33.903 32.939-7.942-.074-14.245-15.02-14.069-33.382Z"/>
  <path stroke="#000" stroke-miterlimit="10" stroke-width="1.5" d="M224.495 47.369c.164-18.363 6.748-33.189 14.702-33.116 18.544.172 33.446 15.196 33.27 33.559-.176 18.363-15.347 33.11-33.903 32.939-7.942-.074-14.245-15.02-14.069-33.382Z"/>
  <path fill="#FFE82C" d="M272.448 48.135c0 .758-.058 1.508-.105 2.254-.035.222-.047.45-.071.672a30.54 30.54 0 0 1-.339 2.324c-.047.242-.082.483-.129.721a35.51 35.51 0 0 1-.539 2.247c-.07.218-.14.433-.199.65-.223.756-.48 1.507-.75 2.238a6.636 6.636 0 0 1-.187.441 31.04 31.04 0 0 1-.867 1.998l-.211.445a33.481 33.481 0 0 1-1.136 2.084c-.094.17-.199.339-.293.507-.422.67-.855 1.324-1.312 1.962l-.316.44c-.48.65-.984 1.287-1.511 1.9-.082.09-.152.178-.234.268a39.42 39.42 0 0 1-1.734 1.845c-.035.02-.047.04-.07.06a30.67 30.67 0 0 1-1.968 1.764l-.211.182a33.5 33.5 0 0 1-2.097 1.573c-.058.049-.14.1-.211.148-.749.51-1.499.992-2.284 1.44-.023.01-.047.02-.058.03a33.555 33.555 0 0 1-10.882 3.897c-1.324-.544-2.531-1.403-3.433-2.508-2.448-3.016-2.624-7.656-.386-10.828 1.593-2.278 4.205-3.817 5.259-6.386 1.547-3.86-1.136-8.106-.96-12.26.211-5.036 4.779-9.086 9.687-10.437 4.908-1.35 10.156-.604 15.204.142.328.052.668.107.996.158.199.665.375 1.34.527 2.02.047.203.094.406.129.608.141.617.258 1.239.352 1.866.035.262.07.528.093.791a28.424 28.424 0 0 1 .211 2.353c.035.51.035 1.022.047 1.535 0 .18.012.354.012.532-.012.109-.012.215-.024.324Z"/>
  <path stroke="#000" stroke-miterlimit="10" stroke-width="1.5" d="M272.448 48.135c0 .758-.058 1.508-.105 2.254-.035.222-.047.45-.071.672a30.54 30.54 0 0 1-.339 2.324c-.047.242-.082.483-.129.721a35.51 35.51 0 0 1-.539 2.247c-.07.218-.14.433-.199.65-.223.756-.48 1.507-.75 2.238a6.636 6.636 0 0 1-.187.441 31.04 31.04 0 0 1-.867 1.998l-.211.445a33.481 33.481 0 0 1-1.136 2.084c-.094.17-.199.339-.293.507-.422.67-.855 1.324-1.312 1.962l-.316.44c-.48.65-.984 1.287-1.511 1.9-.082.09-.152.178-.234.268a39.42 39.42 0 0 1-1.734 1.845c-.035.02-.047.04-.07.06a30.67 30.67 0 0 1-1.968 1.764l-.211.182a33.5 33.5 0 0 1-2.097 1.573c-.058.049-.14.1-.211.148-.749.51-1.499.992-2.284 1.44-.023.01-.047.02-.058.03a33.555 33.555 0 0 1-10.882 3.897c-1.324-.544-2.531-1.403-3.433-2.508-2.448-3.016-2.624-7.656-.386-10.828 1.593-2.278 4.205-3.817 5.259-6.386 1.547-3.86-1.136-8.106-.96-12.26.211-5.036 4.779-9.086 9.687-10.437 4.908-1.35 10.156-.604 15.204.142.328.052.668.107.996.158.199.665.375 1.34.527 2.02.047.203.094.406.129.608.141.617.258 1.239.352 1.866.035.262.07.528.093.791a28.424 28.424 0 0 1 .211 2.353c.035.51.035 1.022.047 1.535 0 .18.012.354.012.532-.012.109-.012.215-.024.324Z"/>
  <path fill="#FFE82C" d="M235.845 30.679c-6.455 6.093-3.436 9.99-7.925 12.967-1.041.69-2.186.992-3.366.992.763-17.036 7.057-30.385 14.577-30.377l.058-.002a35.47 35.47 0 0 1 2.268.104c.185.014.358.03.532.046a35.27 35.27 0 0 1 2.071.247c.046.008.104.013.15.02a32.949 32.949 0 0 1 2.615.532 30.55 30.55 0 0 1 2.036.552c.035.007.046.013.069.021-.081 11.064-9.718 11.711-13.085 14.898Z"/>
  <path stroke="#000" stroke-miterlimit="10" stroke-width="1.5" d="M235.845 30.679c-6.455 6.093-3.436 9.99-7.925 12.967-1.041.69-2.186.992-3.366.992.763-17.036 7.057-30.385 14.577-30.377l.058-.002a35.47 35.47 0 0 1 2.268.104c.185.014.358.03.532.046a35.27 35.27 0 0 1 2.071.247c.046.008.104.013.15.02a32.949 32.949 0 0 1 2.615.532 30.55 30.55 0 0 1 2.036.552c.035.007.046.013.069.021-.081 11.064-9.718 11.711-13.085 14.898Z"/>
  <path fill="#FFE82C" d="M61.353 47.637c.177-18.361-6.126-33.298-14.077-33.38-18.547-.165-33.717 14.575-33.895 32.937-.177 18.371 14.723 33.39 33.28 33.566 7.94.072 14.526-14.751 14.692-33.123Z"/>
  <path stroke="#000" stroke-miterlimit="10" stroke-width="1.5" d="M61.353 47.637c.177-18.361-6.126-33.298-14.077-33.38-18.547-.165-33.717 14.575-33.895 32.937-.177 18.371 14.723 33.39 33.28 33.566 7.94.072 14.526-14.751 14.692-33.123Z"/>
  <path fill="#FFE82C" d="M32.676 44.262a5.866 5.866 0 0 1-1.27.102c-1.592-.05-3.11-.654-4.516-1.401-4.329-2.332-7.8-6.137-9.826-10.587a.14.14 0 0 0 .031-.04c.32-.635.682-1.269 1.054-1.882a.973.973 0 0 0 .062-.113c.393-.634.796-1.258 1.22-1.861 0-.01.01-.01.01-.021.392-.563.816-1.105 1.25-1.637.072-.102.155-.194.238-.296a34.486 34.486 0 0 1 2.83-3.048c.125-.113.238-.225.372-.328.414-.388.837-.767 1.282-1.125.093-.082.196-.174.31-.255a30.8 30.8 0 0 1 1.601-1.228c.124-.092.269-.184.403-.276a25.49 25.49 0 0 1 1.343-.88c.155-.102.31-.204.465-.296a42.915 42.915 0 0 1 1.756-1.003c.093-.04.166-.071.248-.112a33.473 33.473 0 0 1 1.622-.778c.176-.081.362-.163.538-.235a27.56 27.56 0 0 1 1.684-.665c.082-.03.165-.071.258-.102.651-.225 1.312-.44 1.984-.634.165-.041.33-.082.486-.133.568-.143 1.126-.287 1.694-.41l.434-.091a29.52 29.52 0 0 1 2.118-.358c.114-.02.227-.02.33-.041.62-.072 1.25-.133 1.881-.184l.506-.031c.723-.04 1.426-.061 2.16-.051-7.47-.01-13.721 13.143-14.558 30Z"/>
  <path stroke="#000" stroke-miterlimit="10" stroke-width="1.5" d="M32.676 44.262a5.866 5.866 0 0 1-1.27.102c-1.592-.05-3.11-.654-4.516-1.401-4.329-2.332-7.8-6.137-9.826-10.587a.14.14 0 0 0 .031-.04c.32-.635.682-1.269 1.054-1.882a.973.973 0 0 0 .062-.113c.393-.634.796-1.258 1.22-1.861 0-.01.01-.01.01-.021.392-.563.816-1.105 1.25-1.637.072-.102.155-.194.238-.296a34.486 34.486 0 0 1 2.83-3.048c.125-.113.238-.225.372-.328.414-.388.837-.767 1.282-1.125.093-.082.196-.174.31-.255a30.8 30.8 0 0 1 1.601-1.228c.124-.092.269-.184.403-.276a25.49 25.49 0 0 1 1.343-.88c.155-.102.31-.204.465-.296a42.915 42.915 0 0 1 1.756-1.003c.093-.04.166-.071.248-.112a33.473 33.473 0 0 1 1.622-.778c.176-.081.362-.163.538-.235a27.56 27.56 0 0 1 1.684-.665c.082-.03.165-.071.258-.102.651-.225 1.312-.44 1.984-.634.165-.041.33-.082.486-.133.568-.143 1.126-.287 1.694-.41l.434-.091a29.52 29.52 0 0 1 2.118-.358c.114-.02.227-.02.33-.041.62-.072 1.25-.133 1.881-.184l.506-.031c.723-.04 1.426-.061 2.16-.051-7.47-.01-13.721 13.143-14.558 30Z"/>
  <path fill="#FFE82C" d="M29.884 61.016c-1.76-3.262-5.915-4.316-9.58-5.045-2.036-.395-4.062-.8-6.099-1.186 1.658 7.376 5.813 13.85 11.534 18.46 1.27-1.114 2.436-2.32 3.347-3.728 1.607-2.523 2.241-5.876.798-8.5Z"/>
  <path stroke="#000" stroke-miterlimit="10" stroke-width="1.5" d="M29.884 61.016c-1.76-3.262-5.915-4.316-9.58-5.045-2.036-.395-4.062-.8-6.099-1.186 1.658 7.376 5.813 13.85 11.534 18.46 1.27-1.114 2.436-2.32 3.347-3.728 1.607-2.523 2.241-5.876.798-8.5Z"/>
  <path fill="#FFE82C" d="M61.353 47.637c.177-18.361-6.127-33.298-14.077-33.38-7.95-.073-14.535 14.76-14.702 33.122-.177 18.361 6.127 33.308 14.087 33.38 7.94.073 14.525-14.75 14.692-33.122Z"/>
  <path stroke="#000" stroke-miterlimit="10" stroke-width="1.5" d="M61.353 47.637c.177-18.361-6.127-33.298-14.077-33.38-7.95-.073-14.535 14.76-14.702 33.122-.177 18.361 6.127 33.308 14.087 33.38 7.94.073 14.525-14.75 14.692-33.122Z"/>
</svg>
