<svg xmlns="http://www.w3.org/2000/svg" fill="none" viewBox="0 0 136 136">
  <path fill="#F14C24" d="m39.916 54.228-6.667-6.666V30.938H97.52l6.667 6.668v64.269H87.562l-6.667-6.667V72.653l-31.55 31.549-18.422-18.423 31.55-31.55H39.917Z"/>
  <path stroke="#040606" stroke-miterlimit="10" stroke-width="1.777" d="m33.25 47.562 6.666 6.666h22.558L30.924 85.78m2.325-38.217V30.938H97.52M33.25 47.562h35.89L30.924 85.779M97.52 30.938l6.667 6.668v64.269M97.52 30.938v64.27m6.667 6.667H87.562l-6.667-6.667m23.292 6.667-6.667-6.667m-16.625 0V72.652l-31.55 31.55-18.422-18.423m49.972 9.43H97.52m-16.625 0v-35.89L42.68 97.535 30.923 85.779M134.221.9v133.34H.888V.9h133.333Z"/>
</svg>
