<svg width="236" height="74" fill="none" xmlns="http://www.w3.org/2000/svg"><path d="M15.47 62.43C5.445 62.43 0 55.244 0 46.24c0-9.095 6.41-16.556 16.933-16.556 2.793 0 5.217.364 7.323 1.457v5.866c-2.793-1.637-5.032-1.958-7.092-1.958-7.14 0-9.774 5.233-9.774 10.736 0 6.139 3.318 11.005 9.13 11.005 2.565 0 4.63-.706 7.099-2.025l1.78 4.755c-3.702 2.32-6.865 2.91-9.93 2.91Zm112.726 0c-7.417 0-11.214-5.41-11.214-11.868 0-7.232 5.036-12.01 11.762-12.01 2.975 0 4.53.592 5.765 1.32v5.188c-1.648-1.185-2.975-1.595-4.804-1.595-3.798 0-6.244 2.776-6.244 6.779 0 3.593 1.895 7.094 6.151 7.094 1.189 0 2.764-.512 4.455-1.375l1.585 4.285c-1.919 1.273-5.122 2.182-7.456 2.182Zm20.627-18.237v17.784h-6.591V44.193h-6.405V39.01h20.231l-1.43 5.184h-5.805Zm31.871-2.5c0 8.003-.321 12.19-1.783 14.1-.733.954-1.876 1.594-3.068 1.771l1.829 4.866c1.509-.046 3.847-.682 5.449-2.274 2.106-2.047 2.79-4.64 3.11-7.37.274-2.32.459-5.046.459-7.458V44.19h5.154v17.784h6.591V39.006h-17.741v2.687Zm-74.731-3.14c-2.562 0-4.53 1.23-6.224 2.55l-.733-2.094H93.47v34.157l6.591-2.001v-9.69c1.192.637 2.747.955 4.441.955 6.818 0 10.936-5.775 10.936-12.596 0-7.278-4.164-11.281-9.474-11.281Zm-3.064 19.149c-1.192 0-2.106-.41-2.839-.91v-10.87c.779-1.18 2.839-2.592 4.576-2.592 2.655 0 4.21 1.684 4.21 6.415 0 3.911-1.463 7.957-5.947 7.957Zm62.629-19.15c-3.114 0-6.129.48-9.292 2.514l1.998 3.964a12.011 12.011 0 0 1 5.887-1.546c2.285 0 4.329 1.005 4.329 3.42v.39l-3.995.15c-5.832.194-9.771 2.708-9.771 7.541 0 4.548 3.302 7.445 7.68 7.445 2.972 0 5.013-1.109 6.519-2.464l1.023 2.011h5.158V47.061c0-6.044-3.405-8.508-9.536-8.508Zm2.922 17.739c-.631.482-1.948 1.063-3.698 1.063-2.242 0-3.504-1.112-3.504-2.848 0-1.742 1.361-2.707 4.184-2.805l3.018-.096v4.686Zm42.787-9.824h-3.388v-8.459l-6.591 1.756v22.213h8.424c6.131 0 11.854-1.64 11.854-7.96 0-5.365-4.623-7.55-10.299-7.55Zm-1.1 10.979h-2.288v-6.411h2.199c2.331 0 4.897.364 4.897 3.09 0 2.684-2.199 3.32-4.808 3.32ZM63.86 49.469v-.183c2.15-.453 3.936-1.864 3.936-4.866 0-3.583-3.028-4.89-6.003-5.286-.911-.122-2.909-.125-4.022-.125h-9.42v22.968h7.911c.875 0 2.18-.003 3.197-.033 4.16-.197 9.298-1.673 9.298-7.018 0-3.275-1.787-4.912-4.897-5.457Zm-8.79-6.086h2.701c2.698 0 3.708.82 3.708 2.231 0 1.772-1.647 2.317-4.395 2.317H55.07v-4.548Zm2.563 14.237h-2.701v-5.64h2.38c3.157 0 4.85.728 4.85 2.775 0 2.182-2.241 2.865-4.53 2.865ZM46.18 50.29c0-7.097-4.395-11.737-10.711-11.737-6.911 0-10.801 5.548-10.801 12.009 0 6.047 3.388 11.868 11.626 11.868 2.79 0 5.9-.633 9.107-2.638l-1.466-4.138c-2.609 1.23-4.303 1.638-6.544 1.638-3.068 0-5.997-1.91-6.136-5.004H46.18V50.29Zm-15.06-2.5c0-2.094 1.512-4.46 4.164-4.46 2.797 0 4.028 2.274 4.167 4.46h-8.33Zm60.462 2.5c0-7.097-4.394-11.737-10.711-11.737-6.911 0-10.8 5.548-10.8 12.009 0 6.047 3.387 11.868 11.625 11.868 2.79 0 5.904-.633 9.107-2.638l-1.466-4.138c-2.605 1.23-4.302 1.638-6.544 1.638-3.065 0-5.993-1.91-6.132-5.004h14.921V50.29Zm-15.06-2.5c0-2.094 1.512-4.46 4.164-4.46 2.793 0 4.028 2.274 4.167 4.46h-8.33Zm156.746-25.006a4.442 4.442 0 0 1-1.156.587c-1.304.41-2.912.033-4.355-.558a22.961 22.961 0 0 1-3.243-1.663 38.03 38.03 0 0 0 1.618-4.883c.733-2.812 1.083-5.29 1.156-7.465a22.222 22.222 0 0 0-.169-3.694c-.204-1.539-.68-3.104-1.69-4.026a4.51 4.51 0 0 0-1.146-.722c2.064-.223 3.896-.24 5.514-.121 1.701.144 3.431.56 4.441 1.545 1.011.984 1.457 2.7 1.635 4.384.165 1.607.178 3.428-.013 5.49-.195 2.03-.591 4.288-1.242 6.791h.003a50.74 50.74 0 0 1-1.353 4.334Zm-24.92-1.274a4.253 4.253 0 0 1 .066-1.29c.294-1.328 1.426-2.519 2.664-3.47a23.224 23.224 0 0 1 3.071-1.96 38.104 38.104 0 0 0 3.447 3.833c2.084 2.038 4.068 3.576 5.927 4.725 1.15.712 2.252 1.27 3.302 1.703 1.443.59 3.045.968 4.356.558a4.583 4.583 0 0 0 1.202-.624c-.839 1.887-1.74 3.475-2.652 4.807-.977 1.391-2.202 2.674-3.566 3.048-1.364.378-3.081-.095-4.636-.784-1.482-.66-3.077-1.562-4.778-2.756-1.671-1.181-3.444-2.651-5.299-4.466a48.124 48.124 0 0 1-3.104-3.324ZM221.882.698c.416.194.786.426 1.09.702 1.01.919 1.483 2.49 1.694 4.03.145 1.095.208 2.3.172 3.622a37.963 37.963 0 0 0-5.066 1.05c-2.816.774-5.151 1.713-7.082 2.74a22.206 22.206 0 0 0-3.134 1.991c-1.238.945-2.367 2.136-2.665 3.469-.089.42-.105.872-.056 1.345-1.225-1.664-2.159-3.235-2.862-4.686-.727-1.535-1.229-3.232-.875-4.593.353-1.362 1.624-2.606 3.001-3.597 1.317-.948 2.899-1.87 4.791-2.733 1.866-.846 4.035-1.637 6.541-2.326a47.612 47.612 0 0 1 4.451-1.014Z" fill="#fff"/></svg>