<svg width="140" height="44" fill="none" xmlns="http://www.w3.org/2000/svg"><path d="M45.396 28.704c0-1.262.896-2.688 2.47-2.688 1.657 0 2.39 1.371 2.472 2.688h-4.942Zm8.934 1.507c0-4.278-2.608-7.074-6.355-7.074-4.1 0-6.407 3.344-6.407 7.239 0 3.644 2.01 7.153 6.897 7.153 1.655 0 3.502-.382 5.402-1.59l-.87-2.494c-1.545.742-2.552.986-3.882.986-1.817 0-3.555-1.15-3.637-3.015h8.852v-1.205Zm-35.868-1.507c0-1.262.897-2.688 2.47-2.688 1.66 0 2.39 1.371 2.472 2.688h-4.942Zm8.934 1.507c0-4.278-2.607-7.074-6.354-7.074-4.1 0-6.407 3.344-6.407 7.239 0 3.644 2.01 7.153 6.896 7.153 1.656 0 3.5-.382 5.403-1.59l-.87-2.494c-1.547.742-2.552.986-3.882.986-1.82 0-3.557-1.15-3.64-3.015h8.854v-1.205Zm6.793 4.419h-1.602v-3.4h1.412c1.873 0 2.878.439 2.878 1.673 0 1.316-1.33 1.727-2.688 1.727Zm-1.52-8.582h1.603c1.6 0 2.199.494 2.199 1.345 0 1.068-.977 1.396-2.607 1.396H32.67v-2.74Zm5.214 3.669v-.11c1.276-.274 2.335-1.124 2.335-2.934 0-2.16-1.796-2.947-3.56-3.186-.541-.073-1.726-.075-2.386-.075h-5.589v13.844h4.694c.519 0 1.292-.002 1.896-.02 2.467-.118 5.515-1.009 5.515-4.23 0-1.974-1.06-2.961-2.905-3.289Zm86.775 4.808h-1.357V30.66h1.304c1.383 0 2.905.22 2.905 1.863 0 1.618-1.305 2.002-2.852 2.002Zm.652-6.618h-2.009V22.81l-3.91 1.057v13.39h4.997c3.637 0 7.032-.989 7.032-4.798 0-3.233-2.742-4.55-6.11-4.55ZM99.928 33.83c-.374.29-1.156.64-2.194.64-1.33 0-2.078-.67-2.078-1.717 0-1.05.807-1.63 2.482-1.69l1.79-.058v2.825Zm-1.733-10.692c-1.847 0-3.636.289-5.512 1.515l1.185 2.389a7.04 7.04 0 0 1 3.493-.932c1.355 0 2.567.606 2.567 2.061v.235l-2.37.092c-3.46.116-5.796 1.631-5.796 4.544 0 2.742 1.959 4.488 4.556 4.488 1.763 0 2.974-.668 3.867-1.485l.607 1.212h3.06v-8.991c0-3.643-2.02-5.128-5.657-5.128ZM61.042 34.679c-.707 0-1.25-.248-1.684-.548V27.58c.462-.712 1.684-1.563 2.715-1.563 1.575 0 2.497 1.015 2.497 3.867 0 2.357-.867 4.796-3.528 4.796Zm1.818-11.542c-1.52 0-2.687.741-3.692 1.537l-.435-1.262h-3.285V44l3.91-1.206v-5.84c.707.383 1.63.575 2.634.575 4.045 0 6.488-3.48 6.488-7.593 0-4.386-2.47-6.799-5.62-6.799Zm44.331 1.892c0 4.824-.19 7.347-1.058 8.498a2.847 2.847 0 0 1-1.82 1.069l1.086 2.934c.896-.027 2.282-.411 3.232-1.37 1.249-1.234 1.656-2.797 1.846-4.442.163-1.398.272-3.043.272-4.495v-.686h3.057v10.718h3.91V23.411h-10.525v1.618Zm-18.907 1.508v10.718h-3.91V26.537h-3.8v-3.125h12l-.848 3.125h-3.442ZM76.049 37.53c-4.4 0-6.652-3.262-6.652-7.155 0-4.359 2.987-7.238 6.978-7.238 1.765 0 2.688.357 3.42.796v3.126c-.977-.714-1.765-.96-2.85-.96-2.253 0-3.703 1.671-3.703 4.084 0 2.166 1.123 4.277 3.65 4.277.704 0 1.638-.308 2.642-.829l.94 2.583c-1.14.768-3.04 1.316-4.425 1.316Zm-66.872 0C3.23 37.53 0 33.199 0 27.77c0-5.483 3.801-9.979 10.046-9.979 1.657 0 3.095.22 4.343.878v3.537c-1.656-.987-2.986-1.18-4.207-1.18-4.236 0-5.798 3.153-5.798 6.47 0 3.702 1.97 6.634 5.417 6.634 1.521 0 2.746-.425 4.212-1.22l1.055 2.866c-2.198 1.398-4.072 1.754-5.891 1.754ZM131.625.32c.246.117.466.256.646.424.599.552.881 1.5 1.005 2.427.086.661.124 1.386.102 2.183a22.35 22.35 0 0 0-3.005.632c-1.671.467-3.056 1.032-4.201 1.65-.709.382-1.325.786-1.859 1.2-.734.57-1.404 1.288-1.581 2.091a2.686 2.686 0 0 0-.033.812 18.214 18.214 0 0 1-1.7-2.824c-.429-.926-.728-1.949-.518-2.77.209-.82.964-1.569 1.781-2.168.782-.57 1.72-1.126 2.842-1.647a25.936 25.936 0 0 1 3.881-1.402V.927a28.84 28.84 0 0 1 2.64-.607Zm-8.028 12.545a2.615 2.615 0 0 1 .04-.777c.175-.8.847-1.52 1.58-2.092a13.6 13.6 0 0 1 1.821-1.18 22.92 22.92 0 0 0 2.045 2.31c1.236 1.228 2.413 2.157 3.516 2.85a13.31 13.31 0 0 0 1.959 1.025c.856.357 1.806.583 2.583.337.243-.08.483-.21.713-.376a18.203 18.203 0 0 1-1.572 2.897c-.579.84-1.307 1.611-2.116 1.838-.809.227-1.828-.058-2.75-.473a16.76 16.76 0 0 1-2.834-1.662 26.073 26.073 0 0 1-3.144-2.692 29.458 29.458 0 0 1-1.841-2.005Zm14.783.767c-.224.157-.452.28-.686.353-.774.248-1.728.02-2.585-.335a13.467 13.467 0 0 1-1.923-1.003c.351-.865.68-1.85.959-2.942.436-1.695.644-3.189.686-4.5.026-.81-.011-1.551-.1-2.226-.122-.926-.403-1.87-1.003-2.427a2.66 2.66 0 0 0-.679-.435 17.882 17.882 0 0 1 3.272-.074c1.009.087 2.035.338 2.634.932.599.593.864 1.627.969 2.641a17.09 17.09 0 0 1-.009 3.309 26.3 26.3 0 0 1-.737 4.095h.002a30.118 30.118 0 0 1-.8 2.612Z" fill="#002F6C"/></svg>