<svg width="32" height="32" viewBox="0 0 32 32" fill="none" xmlns="http://www.w3.org/2000/svg">
<g id=" Round / Maps / place">
<path id="&#240;&#159;&#148;&#185; Icon Color" fill-rule="evenodd" clip-rule="evenodd" d="M15.9998 2.66675C10.8398 2.66675 6.6665 6.84008 6.6665 12.0001C6.6665 17.5601 12.5598 25.2267 14.9865 28.1467C15.5198 28.7867 16.4932 28.7867 17.0265 28.1467C19.4398 25.2267 25.3332 17.5601 25.3332 12.0001C25.3332 6.84008 21.1598 2.66675 15.9998 2.66675ZM15.9998 15.3334C14.1598 15.3334 12.6665 13.8401 12.6665 12.0001C12.6665 10.1601 14.1598 8.66675 15.9998 8.66675C17.8398 8.66675 19.3332 10.1601 19.3332 12.0001C19.3332 13.8401 17.8398 15.3334 15.9998 15.3334Z" fill="white"/>
</g>
</svg>
