<svg width="650" height="153" viewBox="0 0 650 153" fill="none" xmlns="http://www.w3.org/2000/svg">
<path fill-rule="evenodd" clip-rule="evenodd" d="M368.27 0.00543213C390.473 0.00543213 408.631 20.7041 408.636 46.0032C408.631 71.3077 390.464 92.0064 368.27 92.0064H340.202L323.71 92.0118C316.423 92.0118 310.464 98.7955 310.464 107.1C310.464 115.394 316.423 122.183 323.71 122.183H400.987V152.984H323.853C301.654 152.984 283.487 132.285 283.487 106.986C283.487 81.6815 301.654 60.9827 323.853 60.9827H351.92H368.412C375.699 60.9773 381.658 54.1936 381.658 45.8946C381.658 37.5955 375.699 30.8064 368.412 30.8064L366.285 30.8661L268.532 30.8933L268.613 153H241.564L241.588 0C283.82 0 326.057 0.00543213 368.27 0.00543213ZM217.823 152.935H190.832V0H217.823V152.935ZM599.263 104.661C598.663 133.974 579.791 152.316 556.959 152.935H432.296L432.286 104.656V0H459.278L459.297 122.188L473.852 122.101L556.783 122.128C565.826 121.65 571.857 114.774 572.271 104.45V0H599.263V104.661ZM650 152.935H623.003V0H650V152.935ZM167.091 104.661C166.477 132.035 148.804 152.299 124.783 152.929H47.0487V122.128L125.52 122.101C134.154 121.2 139.528 114.199 139.909 104.466L139.889 47.4262C139.09 37.6118 133.226 31.2572 124.606 30.8064L27.2678 30.8335L27.125 47.4208L27.1012 152.929H0.109483V48.2789L0 0H124.783C148.823 0.662628 166.477 20.8997 167.091 48.2735V104.661Z" fill="#E61865"/>
</svg>
