<svg xmlns="http://www.w3.org/2000/svg" width="10" height="20" fill="000">
  <g transform="translate(-7,-2)">
    <path d="M 8.07901,2 C 8.36485,2 8.63,2.13261 8.80429,2.37099 l 7.70471,8.31781 0.0074,0.0088 c 0.6448,0.7639 0.6448,1.9441 0,2.708 l -0.0074,0.0087 -7.70738,8.326 -0.07978,0.0405 C 8.69568,21.7941 8.67128,21.8081 8.63903,21.827 L 8.63089,21.8318 C 8.60262,21.8484 8.56132,21.8726 8.51868,21.8943 8.40843,21.9502 8.26954,22 8.08916,22 7.78277,22 7.45663,21.8522 7.27158,21.542 7.0052,21.2175 6.87473,20.6244 7.32047,20.1652 l 7.56873,-8.1771 c -0.0028,-0.0169 -0.0064,-0.034 -0.0105,-0.0503 L 7.3479,3.80254 C 7.12111,3.62465 7,3.3634 7,3.08795 7,2.80135 7.12863,2.53585 7.32659,2.33483 7.52427,2.1341 7.78914,2 8.07901,2 Z"/>
  </g>
</svg>
