<svg
   xmlns="http://www.w3.org/2000/svg" width="16" height="16" style="fill:none">
  <g transform="translate(-4,-4)">
    <path d="m 11.2132,4.83427 v 9.31883 l -3.859,-4.0713 c -0.3084,-0.32534 -0.8145,-0.32534 -1.1229,0 -0.3084,0.3254 -0.3084,0.851 0,1.1763 l 5.2112,5.4979 c 0.3084,0.3253 0.8066,0.3253 1.115,0 l 5.2112,-5.4979 c 0.3084,-0.3253 0.3084,-0.8509 0,-1.1763 -0.3084,-0.32534 -0.8066,-0.32534 -1.115,0 l -3.859,4.0713 V 4.83427 C 12.7947,4.37542 12.4389,4 12.004,4 11.569,4 11.2132,4.37542 11.2132,4.83427 Z" />
    <path d="m 4.77419,16 c 0.20533,0 0.40225,0.0702 0.54744,0.1953 0.14519,0.125 0.22676,0.2946 0.22676,0.4714 v 1.7777 c 0,0.1227 0.11561,0.2223 0.25806,0.2223 H 18.1935 c 0.0685,0 0.1341,-0.0234 0.1825,-0.0651 0.0484,-0.0417 0.0756,-0.0982 0.0756,-0.1572 v -1.7777 c 0,-0.1768 0.0816,-0.3464 0.2268,-0.4714 C 18.8236,16.0702 19.0205,16 19.2258,16 c 0.2053,0 0.4023,0.0702 0.5474,0.1953 C 19.9184,16.3203 20,16.4899 20,16.6667 v 1.7777 c 0,0.4126 -0.1903,0.8083 -0.5291,1.1 C 19.1321,19.8361 18.6726,20 18.1935,20 H 5.80645 C 5.32735,20 4.86787,19.8361 4.5291,19.5444 4.19032,19.2527 4,18.857 4,18.4444 V 16.6667 C 4,16.4899 4.08157,16.3203 4.22676,16.1953 4.37195,16.0702 4.56886,16 4.77419,16 Z" />
  </g>
</svg>
