<svg width="40" height="31" viewBox="0 0 40 31" fill="none" xmlns="http://www.w3.org/2000/svg">
<path d="M0 30.7692V22.3055C0 19.8075 0.467324 17.1773 1.40197 14.4148C2.33662 11.6523 3.63636 9.00742 5.3012 6.48005C6.96605 3.95268 8.92296 1.79266 11.172 0L17.6561 4.67269C15.8744 7.28822 14.3556 10.0213 13.0997 12.8719C11.8437 15.7226 11.2158 18.823 11.2158 22.1732V30.7692H0ZM22.3439 30.7692V22.3055C22.3439 19.8075 22.8112 17.1773 23.7459 14.4148C24.6805 11.6523 25.9803 9.00742 27.6451 6.48005C29.31 3.95268 31.2669 1.79266 33.5159 0L40 4.67269C38.2183 7.28822 36.6995 10.0213 35.4436 12.8719C34.1877 15.7226 33.5597 18.823 33.5597 22.1732V30.7692H22.3439Z" fill="#E61865"/>
</svg>
