<?xml version="1.0" standalone="no"?>
<!DOCTYPE svg PUBLIC "-//W3C//DTD SVG 20010904//EN"
 "http://www.w3.org/TR/2001/REC-SVG-20010904/DTD/svg10.dtd">
<svg version="1.0" xmlns="http://www.w3.org/2000/svg"
 width="932.000000pt" height="932.000000pt" viewBox="0 0 932.000000 932.000000"
 preserveAspectRatio="xMidYMid meet">
<metadata>
Created by potrace 1.14, written by Peter Selinger 2001-2017
</metadata>
<g transform="translate(0.000000,932.000000) scale(0.100000,-0.100000)"
fill="#000000" stroke="none">
<path d="M4177 7483 c-2 -1 -86 -5 -188 -8 -173 -5 -303 -11 -393 -21 -102
-10 -343 -95 -354 -125 -2 -5 -8 -9 -13 -9 -9 0 -63 -45 -101 -85 -31 -32 -83
-116 -101 -162 -34 -86 -45 -169 -41 -288 4 -97 6 -116 19 -180 32 -149 196
-686 217 -712 6 -7 8 -13 4 -13 -5 0 8 -42 34 -105 31 -75 75 -192 76 -201 4
-24 97 -203 120 -230 113 -133 177 -171 299 -181 91 -7 1747 -7 1842 0 69 6
143 30 179 59 92 74 161 170 214 299 17 41 35 83 40 94 74 160 233 619 255
735 2 8 8 35 15 60 7 25 14 58 16 73 2 16 6 36 8 46 21 67 35 312 21 371 -3
14 -8 41 -11 60 -9 63 -49 161 -97 234 -45 70 -173 169 -265 205 -133 53 -220
64 -577 76 -55 1 -104 4 -110 5 -5 1 -14 1 -20 0 -5 -1 -28 -1 -50 0 -75 4
-1035 7 -1038 3z"/>
<path d="M827 6434 c-1 -1 -56 -4 -122 -8 -66 -3 -131 -8 -145 -10 -14 -2 -46
-7 -71 -10 -73 -10 -89 -14 -177 -40 -46 -14 -102 -36 -125 -48 -51 -28 -119
-93 -139 -133 -57 -112 -45 -322 32 -570 199 -637 262 -796 362 -910 74 -84
156 -119 259 -110 52 5 94 12 94 15 0 1 7 3 15 5 8 2 65 18 125 34 61 17 119
33 130 36 11 2 30 6 41 9 12 2 38 9 58 14 20 6 36 8 36 6 0 -3 8 0 18 5 9 5
33 12 52 15 19 3 50 10 68 15 17 5 32 8 32 6 0 -3 11 0 26 5 14 6 42 12 62 15
45 6 57 9 107 23 22 6 55 12 73 14 19 1 36 6 38 10 3 5 9 6 13 3 5 -2 23 0 42
5 19 6 48 12 64 14 17 3 91 16 165 30 142 27 170 32 235 41 22 4 49 9 60 12
11 3 31 7 45 9 32 3 85 11 185 29 74 13 141 23 190 30 63 8 113 19 137 31 41
21 76 74 89 133 10 47 8 163 -5 217 -2 12 -7 39 -10 60 -4 22 -11 57 -17 79
-11 38 -13 49 -24 95 -4 19 -18 66 -33 110 -3 8 -6 20 -8 25 -23 96 -76 205
-132 271 -123 149 -368 251 -737 310 -22 3 -76 12 -120 19 -44 7 -83 11 -87 8
-5 -2 -8 -1 -8 4 0 4 -12 8 -27 9 -30 0 -130 12 -178 20 -16 3 -52 7 -80 9
-27 3 -68 7 -90 9 -86 10 -165 16 -290 21 -172 8 -226 10 -228 9z"/>
<path d="M8218 6425 c-2 -2 -41 -6 -88 -10 -47 -4 -101 -8 -120 -10 -19 -2
-62 -6 -95 -10 -33 -3 -75 -8 -94 -11 -39 -5 -140 -16 -158 -17 -7 0 -13 -3
-13 -6 0 -3 -17 -7 -38 -7 -20 -1 -55 -4 -77 -8 -22 -3 -62 -9 -90 -12 -54 -7
-80 -12 -80 -14 0 -1 -9 -3 -20 -4 -53 -7 -323 -73 -339 -84 -6 -3 -16 -7 -23
-8 -15 -3 -156 -66 -163 -74 -3 -3 -24 -17 -47 -32 -110 -72 -179 -174 -236
-353 -112 -348 -137 -542 -86 -652 13 -29 27 -53 31 -53 3 0 13 -6 20 -12 26
-26 104 -51 218 -72 14 -2 66 -13 115 -25 50 -11 101 -22 115 -25 14 -2 45 -9
70 -15 25 -5 61 -13 80 -16 19 -3 42 -8 50 -10 8 -2 26 -6 40 -9 14 -2 70 -13
125 -24 55 -11 172 -34 260 -51 88 -17 172 -33 188 -36 80 -15 80 -15 225 -41
24 -4 30 -5 167 -30 50 -9 99 -18 110 -20 11 -1 45 -8 75 -14 30 -6 69 -13 85
-16 17 -2 37 -7 45 -9 54 -16 169 -26 185 -17 5 3 20 7 33 8 72 8 176 93 251
204 56 82 176 344 196 425 1 6 8 24 14 40 7 17 14 35 15 40 1 6 23 74 49 153
44 136 70 227 81 282 2 14 9 44 14 67 5 23 10 91 11 151 2 132 -18 197 -80
261 -66 67 -202 125 -354 150 -38 6 -83 14 -100 17 -31 7 -561 14 -567 9z"/>
<path d="M4188 4795 c-2 -2 -106 -6 -233 -10 -126 -4 -257 -9 -290 -10 -33 -2
-116 -6 -185 -10 -69 -3 -150 -8 -180 -10 -182 -13 -308 -23 -375 -30 -22 -3
-69 -7 -105 -10 -36 -3 -81 -8 -100 -11 -19 -3 -53 -7 -75 -9 -22 -2 -53 -6
-70 -9 -16 -2 -59 -8 -95 -11 -36 -4 -74 -9 -85 -11 -10 -2 -37 -6 -60 -9 -22
-3 -51 -8 -65 -10 -14 -2 -45 -7 -70 -10 -25 -3 -52 -8 -60 -10 -8 -2 -33 -7
-55 -10 -23 -3 -52 -8 -65 -10 -26 -5 -59 -11 -112 -20 -27 -5 -273 -56 -413
-85 -103 -22 -486 -122 -525 -137 -8 -3 -23 -8 -34 -10 -61 -11 -196 -96 -196
-122 0 -6 -4 -11 -8 -11 -8 0 -14 -34 -15 -85 0 -51 18 -142 53 -260 12 -38
23 -77 25 -87 20 -88 198 -583 242 -673 27 -53 89 -125 109 -125 7 0 14 -4 16
-10 1 -5 12 -11 23 -13 11 -1 25 -6 31 -9 22 -14 162 0 249 25 50 15 101 28
115 31 14 2 45 9 70 15 44 10 96 20 135 27 11 1 31 5 45 8 13 3 40 8 60 11 20
3 47 8 60 10 45 9 74 14 125 21 28 3 57 8 67 9 9 2 38 6 65 10 26 4 58 8 71
10 13 2 53 7 90 11 37 3 76 8 87 10 11 2 49 7 85 9 36 3 81 8 100 10 19 2 71
7 115 10 44 4 98 8 120 10 82 7 323 22 485 30 187 9 228 13 241 21 7 4 10 3 6
-2 -3 -5 11 -8 31 -7 21 1 37 2 37 3 0 1 47 3 105 5 58 3 155 7 215 9 578 25
795 25 1360 1 61 -3 171 -7 245 -10 74 -3 176 -7 225 -10 450 -22 452 -22 661
-41 38 -3 92 -8 120 -9 27 -2 72 -6 99 -9 28 -3 74 -7 102 -10 29 -3 72 -7 95
-10 24 -4 113 -15 198 -27 85 -11 163 -21 173 -22 9 -1 17 -5 17 -10 0 -4 4
-5 10 -2 5 3 49 -2 97 -11 48 -9 99 -18 113 -20 14 -3 32 -7 40 -9 8 -2 30 -7
47 -10 18 -3 61 -12 95 -20 35 -8 77 -17 95 -20 18 -3 45 -10 60 -16 15 -6 36
-13 46 -15 9 -2 27 -7 40 -10 12 -3 53 -8 90 -11 105 -8 188 31 241 116 48 75
187 456 278 761 14 47 33 109 42 139 9 29 13 57 10 62 -3 5 -1 9 3 9 10 0 11
9 14 95 4 137 -60 179 -413 275 -43 12 -85 23 -95 25 -10 2 -65 16 -123 31
-58 14 -114 28 -125 30 -11 1 -29 5 -40 8 -63 16 -204 47 -225 50 -14 2 -61
11 -105 20 -44 9 -91 18 -105 21 -14 3 -41 7 -60 10 -19 3 -46 7 -60 10 -14 3
-38 7 -55 9 -16 2 -59 9 -95 14 -159 26 -170 27 -255 37 -27 4 -61 8 -75 10
-14 2 -50 6 -80 10 -30 3 -66 8 -80 10 -14 2 -58 7 -98 10 -41 4 -81 8 -90 10
-9 1 -57 6 -107 9 -49 4 -112 9 -140 11 -131 12 -288 21 -485 30 -63 3 -162 8
-220 11 -107 5 -1288 13 -1292 9z"/>
<path d="M4656 2963 c-1 -1 -168 -5 -371 -8 -620 -9 -1122 -25 -1305 -40 -30
-2 -89 -7 -130 -10 -41 -3 -104 -8 -140 -12 -36 -3 -84 -6 -107 -7 -24 0 -43
-3 -43 -6 0 -3 -12 -5 -27 -6 -34 0 -159 -12 -193 -18 -14 -3 -43 -7 -65 -11
-280 -42 -413 -67 -520 -97 -38 -10 -77 -21 -86 -23 -37 -8 -147 -65 -175 -91
-49 -44 -65 -87 -65 -162 0 -85 19 -143 101 -316 57 -120 103 -192 164 -251
75 -74 91 -80 215 -79 404 4 1019 13 1027 15 5 1 14 1 19 -1 6 -1 37 -1 70 0
33 1 71 1 85 0 14 -1 30 -2 35 -1 12 0 254 0 275 0 8 0 43 0 77 1 34 1 66 -1
72 -5 6 -3 11 -2 11 4 0 5 9 8 20 6 18 -3 56 -4 185 -5 11 0 36 0 55 1 19 0
40 0 45 0 277 -10 3484 -17 3570 -8 71 7 122 25 156 52 30 24 109 127 109 142
0 6 7 16 15 23 8 6 31 46 51 88 128 269 142 408 50 493 -66 62 -260 129 -471
164 -11 2 -74 12 -140 24 -114 19 -152 24 -245 36 -22 3 -58 7 -80 11 -22 3
-64 7 -93 10 -29 2 -68 6 -87 9 -19 2 -71 7 -115 10 -44 4 -100 8 -125 11 -25
2 -90 6 -145 9 -55 3 -130 7 -166 9 -213 12 -495 20 -1094 31 -170 3 -334 7
-363 8 -30 1 -55 1 -56 0z"/>
</g>
</svg>
