<svg width="75" height="62" viewBox="0 0 75 62" fill="none" xmlns="http://www.w3.org/2000/svg"><path d="M31 0L19.4 44.4L16.2 29.4C20.8667 29.4 24.7333 30.8667 27.8 33.8C30.8667 36.7333 32.4 40.6667 32.4 45.6C32.4 50.5333 30.8667 54.5333 27.8 57.6C24.7333 60.5333 20.9333 62 16.4 62C11.6 62 7.66667 60.4667 4.6 57.4C1.53333 54.3333 0 50.4 0 45.6C0 44 0.0666666 42.5333 0.2 41.2C0.466666 39.7333 0.933333 38 1.6 36C2.26667 34 3.2 31.4667 4.4 28.4L15 0H31ZM73.4 0L61.8 44.4L58.6 29.4C63.2667 29.4 67.1333 30.8667 70.2 33.8C73.2667 36.7333 74.8 40.6667 74.8 45.6C74.8 50.5333 73.2667 54.5333 70.2 57.6C67.1333 60.5333 63.3333 62 58.8 62C54 62 50.0667 60.4667 47 57.4C43.9333 54.3333 42.4 50.4 42.4 45.6C42.4 44 42.4667 42.5333 42.6 41.2C42.8667 39.7333 43.3333 38 44 36C44.6667 34 45.6 31.4667 46.8 28.4L57.4 0H73.4Z" fill="#1421B0"/>
</svg>