<?xml version="1.0" standalone="no"?>
<!DOCTYPE svg PUBLIC "-//W3C//DTD SVG 1.1//EN" "http://www.w3.org/Graphics/SVG/1.1/DTD/svg11.dtd" >
<svg xmlns="http://www.w3.org/2000/svg" xmlns:xlink="http://www.w3.org/1999/xlink" version="1.1">
<metadata>
Created by FontForge 20170731 at Sat Jan 28 16:56:59 2023
 By Aleksey,,,
2021 Created by Serdar Ozturk (c) Copyright all rights reserved.
</metadata>
<defs>
<font id="ActayRegular" horiz-adv-x="479" >
  <font-face 
    font-family="Actay"
    font-weight="400"
    font-stretch="normal"
    units-per-em="2048"
    panose-1="0 0 0 0 0 0 0 0 0 0"
    ascent="1638"
    descent="-410"
    x-height="1024"
    cap-height="1434"
    bbox="-139 -516 2587 1919"
    underline-thickness="102"
    underline-position="-358"
    unicode-range="U+000D-2215"
  />
<missing-glyph horiz-adv-x="512" 
 />
    <glyph glyph-name="f_f" unicode="ff" horiz-adv-x="1630" 
d="M418 1024h655q0 211 127.5 325.5t358.5 114.5v-135q-159 0 -240.5 -76.5t-81.5 -228.5h322v-154h-322v-870h-164v870h-655v-870h-164v870h-219v154h219q0 211 127 325.5t358 114.5v-135q-321 0 -321 -305z" />
    <glyph glyph-name="fi" unicode="fi" horiz-adv-x="1300" 
d="M418 1024h719v-1024h-164v870h-555v-870h-164v870h-219v154h219q0 211 127 325.5t358 114.5v-135q-321 0 -321 -305zM969 1376q0 40 24 64t62 24q40 0 64 -24t24 -64q0 -38 -24 -62t-64 -24q-38 0 -62 24t-24 62z" />
    <glyph glyph-name="fl" unicode="fl" horiz-adv-x="1333" 
d="M418 1024h596v410h164v-1434h-164v870h-596v-870h-164v870h-219v154h219q0 211 127 325.5t358 114.5v-135q-321 0 -321 -305z" />
    <glyph glyph-name="f_f_i" unicode="ffi" horiz-adv-x="2125" 
d="M418 1024h659q0 211 127.5 325.5t358.5 114.5v-135q-159 0 -240.5 -76.5t-81.5 -228.5h719v-1024h-164v870h-555v-870h-164v870h-659v-870h-164v870h-219v154h219q0 211 127 325.5t358 114.5v-135q-321 0 -321 -305zM1792 1376q0 40 24 64t62 24q40 0 64 -24t24 -64
q0 -38 -24 -62t-64 -24q-38 0 -62 24t-24 62z" />
    <glyph glyph-name="f_f_l" unicode="ffl" horiz-adv-x="2201" 
d="M418 1024h678q0 211 127 325.5t358 114.5v-135q-321 0 -321 -305h622v410h164v-1434h-164v870h-622v-870h-164v870h-678v-870h-164v870h-219v154h219q0 211 127 325.5t358 114.5v-135q-321 0 -321 -305z" />
    <glyph glyph-name="longs_t" unicode="&#x17f;t" horiz-adv-x="1302" 
d="M895 870v-391q0 -186 74.5 -270t236.5 -84v-156q-248 0 -361.5 126t-113.5 384v391h-215v70l219 221h-80q-173 0 -253 -83.5t-80 -262.5v-815h-164v815q0 253 124.5 381.5t370.5 128.5h242v-301h311v-154h-311z" />
    <glyph glyph-name="f_t" unicode="ft" horiz-adv-x="1726" 
d="M455 1024h567l227 229h68v-229h311v-154h-311v-391q0 -186 74.5 -270t236.5 -84v-156q-248 0 -361.5 126t-113.5 384v391h-698v-870h-164v870h-219v154h219q0 211 127 325.5t358 114.5v-135q-321 0 -321 -305z" />
    <glyph glyph-name=".notdef" horiz-adv-x="512" 
 />
    <glyph glyph-name="uni0000" horiz-adv-x="0" 
 />
    <glyph glyph-name="uni000D" horiz-adv-x="512" 
 />
    <glyph glyph-name="uni000D" horiz-adv-x="512" 
 />
    <glyph glyph-name="CR" unicode="&#xd;" horiz-adv-x="512" 
 />
    <glyph glyph-name="space" unicode=" " horiz-adv-x="512" 
 />
    <glyph glyph-name="exclam" unicode="!" horiz-adv-x="528" 
d="M346 829l-22 -446h-119l-23 446v605h164v-605zM160 74q0 44 29 72t75 28t75.5 -28t29.5 -72q0 -49 -29 -77t-76 -28t-75.5 28t-28.5 77z" />
    <glyph glyph-name="quotedbl" unicode="&#x22;" horiz-adv-x="911" 
d="M158 905v529h151v-529h-151zM606 905v529h148v-529h-148z" />
    <glyph glyph-name="numbersign" unicode="#" horiz-adv-x="1785" 
d="M231 926v145h338l52 365h151l-51 -365h412l51 365h157l-51 -365h338v-145h-358l-58 -391h351v-150h-371l-55 -385h-156l55 385h-411l-54 -385h-151l53 385h-317v150h340l53 391h-318zM647 535h410l55 391h-412z" />
    <glyph glyph-name="dollar" unicode="$" horiz-adv-x="1335" 
d="M1247 367q0 -162 -139.5 -274t-364.5 -122v-274h-151v278q-213 25 -352 142t-156 293h170q25 -136 145 -216.5t295 -80.5q169 0 279 73.5t110 186.5q0 74 -33.5 126t-89.5 80.5t-129.5 47t-154 31.5t-161 28.5t-154 43t-129.5 68.5t-89.5 112.5t-33.5 168.5
q0 157 134 261t347 122v281h153v-283q201 -20 334.5 -129.5t155.5 -273.5h-168q-25 117 -137.5 191.5t-265.5 74.5q-168 0 -279 -70t-111 -180q0 -66 33.5 -111.5t90 -70.5t129.5 -41t154 -29t161.5 -29t153.5 -46.5t129.5 -75.5t90 -122t33.5 -181z" />
    <glyph glyph-name="percent" unicode="%" horiz-adv-x="1822" 
d="M88 1094q0 161 97.5 265.5t248.5 104.5q155 0 252.5 -103.5t97.5 -266.5t-97.5 -264t-252.5 -101q-149 0 -247.5 104t-98.5 261zM494 0l700 1434h135l-700 -1434h-135zM205 1094q0 -106 65.5 -178t163.5 -72q101 0 165.5 71t64.5 179q0 113 -64 183.5t-166 70.5
q-99 0 -164 -71t-65 -183zM1040 336q0 159 98 265t251 106q152 0 249 -103.5t97 -267.5q0 -161 -97 -264t-249 -103t-250.5 104t-98.5 263zM1157 336q0 -109 65.5 -178.5t166.5 -69.5q100 0 163.5 69t63.5 179q0 111 -64 182.5t-163 71.5q-101 0 -166.5 -72.5t-65.5 -181.5z
" />
    <glyph glyph-name="ampersand" unicode="&#x26;" horiz-adv-x="1566" 
d="M1300 762h152q-79 -284 -233 -479l313 -285h-209l-201 180q-222 -206 -506 -209q-144 -3 -264.5 46.5t-192 144.5t-71.5 217q0 138 87.5 255.5t242.5 184.5q-76 82 -106.5 145.5t-30.5 137.5q0 158 132.5 261t336.5 103q200 0 326 -108.5t126 -276.5q0 -138 -78 -254
t-256 -223l240 -217q128 160 192 377zM758 702q157 85 227 173.5t70 193.5q0 111 -84 182.5t-215 71.5q-130 0 -217.5 -69.5t-87.5 -172.5q0 -72 61 -145t246 -234zM1008 281l-400 360q-61 51 -102 90q-120 -59 -187.5 -151.5t-64.5 -196.5q4 -124 114.5 -195.5t278.5 -62.5
q195 9 361 156z" />
    <glyph glyph-name="quotesingle" unicode="'" horiz-adv-x="462" 
d="M158 905v529h151v-529h-151z" />
    <glyph glyph-name="parenleft" unicode="(" horiz-adv-x="636" 
d="M375 -350l-60 137q-178 414 -178 797q0 376 178 788l60 137h160l-58 -137q-182 -427 -182 -788q0 -191 41.5 -373t140.5 -424l58 -137h-160z" />
    <glyph glyph-name="parenright" unicode=")" horiz-adv-x="645" 
d="M270 -350h-161l57 137q99 244 140.5 425.5t41.5 371.5q0 354 -182 788l-57 137h161l58 -137q178 -405 178 -788t-178 -797z" />
    <glyph glyph-name="asterisk" unicode="*" horiz-adv-x="933" 
d="M418 641v309l-275 -172l-55 82l293 180l-289 189l55 76l271 -177v306h102v-308l275 168l55 -75l-291 -183l287 -186l-60 -76l-266 174v-307h-102z" />
    <glyph glyph-name="plus" unicode="+" horiz-adv-x="1253" 
d="M102 639v156h451v446h152v-446h450v-156h-450v-444h-152v444h-451z" />
    <glyph glyph-name="comma" unicode="," horiz-adv-x="403" 
d="M102 -293l50 449h182l-92 -449h-140z" />
    <glyph glyph-name="hyphen" unicode="-" horiz-adv-x="956" 
d="M100 639v156h748v-156h-748z" />
    <glyph glyph-name="period" unicode="." horiz-adv-x="378" 
d="M88 74q0 44 28 72t72 28q49 0 78 -27.5t29 -72.5q0 -49 -28.5 -77t-78.5 -28q-45 0 -72.5 28t-27.5 77z" />
    <glyph glyph-name="slash" unicode="/" horiz-adv-x="874" 
d="M33 -350l639 1859h170l-637 -1859h-172z" />
    <glyph glyph-name="zero" unicode="0" horiz-adv-x="1372" 
d="M88 715q0 213 77 384.5t213.5 268t307.5 96.5q173 0 310 -94t214.5 -265t77.5 -390q0 -216 -77.5 -386.5t-215 -265t-309.5 -94.5q-170 0 -307 97t-214 267.5t-77 381.5zM252 717q0 -256 122.5 -424t313.5 -168q189 0 312.5 166.5t123.5 425.5q0 261 -122 426.5
t-314 165.5q-126 0 -226 -76t-155 -211t-55 -305z" />
    <glyph glyph-name="one" unicode="1" horiz-adv-x="772" 
d="M74 1133v159q225 6 403 142h135v-1434h-163v1223q-153 -84 -375 -90z" />
    <glyph glyph-name="two" unicode="2" horiz-adv-x="1255" 
d="M631 1464q214 0 340.5 -116.5t126.5 -323.5q0 -83 -26 -147.5t-70.5 -106.5t-102.5 -74.5t-122 -58t-128.5 -52t-123.5 -62t-105.5 -81t-75.5 -116.5t-33 -162h805v-164h-979v109q0 117 27.5 209.5t73.5 151.5t105.5 103.5t126 74t132.5 55t125.5 53t105.5 62t73.5 88.5
t27.5 126q0 130 -83 203.5t-220 73.5q-157 0 -243.5 -100.5t-86.5 -288.5h-164q0 253 134 398.5t360 145.5z" />
    <glyph glyph-name="three" unicode="3" horiz-adv-x="1282" 
d="M877 1270h-662v164h889v-138l-414 -446h17q94 0 175 -26t144.5 -76.5t100 -133.5t36.5 -190q0 -195 -139.5 -325t-349.5 -130q-147 0 -270.5 74t-195 203.5t-71.5 285.5h164q0 -174 106 -290.5t263 -116.5q141 0 235 85.5t94 211.5q0 134 -89 216.5t-236 82.5h-105
l-88 100z" />
    <glyph glyph-name="four" unicode="4" horiz-adv-x="1380" 
d="M137 319v136l754 979l16 -2v2h164v-951h199v-164h-199v-319h-164v319h-770zM342 483h565v760z" />
    <glyph glyph-name="five" unicode="5" horiz-adv-x="1298" 
d="M668 -31q-146 0 -267.5 73t-192.5 200.5t-71 281.5h164q0 -173 104 -286t263 -113q146 0 236.5 87.5t90.5 225.5q0 142 -98.5 226t-265.5 84h-352l-76 86l33 600h813v-164h-670l-21 -391h289q234 0 373 -120t139 -321q0 -202 -139 -335.5t-352 -133.5z" />
    <glyph glyph-name="six" unicode="6" horiz-adv-x="1251" 
d="M88 485q0 167 115 332l440 617h195l-310 -439q46 9 99 9q232 0 384 -146t152 -373t-151.5 -371.5t-384.5 -144.5q-234 0 -386.5 146.5t-152.5 369.5zM252 485q0 -155 107 -257.5t268 -102.5q165 0 268.5 99.5t103.5 260.5q0 160 -104.5 261.5t-267.5 101.5t-269 -103
t-106 -260z" />
    <glyph glyph-name="seven" unicode="7" horiz-adv-x="1130" 
d="M844 1270h-742v164h926v-138l-539 -1296h-174z" />
    <glyph glyph-name="eight" unicode="8" horiz-adv-x="1232" 
d="M88 379q0 111 76.5 204t197.5 148q-98 57 -156.5 145.5t-58.5 190.5q0 171 133.5 284t335.5 113q205 0 339.5 -110.5t134.5 -286.5q0 -105 -56.5 -192.5t-152.5 -143.5q120 -54 194 -145.5t74 -206.5q0 -181 -151 -295.5t-382 -114.5q-228 0 -378 117.5t-150 292.5z
M297 1055q0 -107 95 -187t222 -80q135 0 229.5 77.5t94.5 189.5q0 116 -90 189t-234 73q-136 0 -226.5 -74.5t-90.5 -187.5zM252 389q0 -118 103.5 -194t260.5 -76q164 0 266.5 75.5t102.5 194.5q0 114 -109 194.5t-260 80.5q-146 0 -255 -83t-109 -192z" />
    <glyph glyph-name="nine" unicode="9" horiz-adv-x="1251" 
d="M1163 950q0 -163 -131 -348l-428 -602h-192l309 440q-41 -8 -96 -8q-234 0 -385.5 145t-151.5 373q0 227 151 370.5t386 143.5q232 0 385 -146.5t153 -367.5zM999 950q0 155 -107 258t-267 103q-166 0 -269.5 -100t-103.5 -261q0 -160 104 -262t269 -102q160 0 267 103
t107 261z" />
    <glyph glyph-name="colon" unicode=":" horiz-adv-x="378" 
d="M88 954q0 44 28 72.5t72 28.5q49 0 78 -28t29 -73q0 -49 -28.5 -76.5t-78.5 -27.5q-45 0 -72.5 27.5t-27.5 76.5zM88 74q0 44 28 72t72 28q49 0 78 -27.5t29 -72.5q0 -49 -28.5 -77t-78.5 -28q-45 0 -72.5 28t-27.5 77z" />
    <glyph glyph-name="semicolon" unicode=";" horiz-adv-x="409" 
d="M133 954q0 44 28 72.5t72 28.5q49 0 78 -28t29 -73q0 -49 -28.5 -76.5t-78.5 -27.5q-45 0 -72.5 27.5t-27.5 76.5zM94 -293l49 449h183l-90 -449h-142z" />
    <glyph glyph-name="less" unicode="&#x3c;" horiz-adv-x="956" 
d="M88 811l778 463v-182l-643 -357l643 -360v-182l-778 466v152z" />
    <glyph glyph-name="equal" unicode="=" horiz-adv-x="1171" 
d="M102 907v152h965v-152h-965zM102 360v152h965v-152h-965z" />
    <glyph glyph-name="greater" unicode="&#x3e;" horiz-adv-x="956" 
d="M866 811v-152l-778 -466v182l643 360l-643 357v182z" />
    <glyph glyph-name="question" unicode="?" horiz-adv-x="1236" 
d="M631 1464q217 0 342 -106t125 -289q0 -83 -24.5 -146.5t-64 -103t-87.5 -73t-95.5 -65.5t-87 -69t-64 -95t-24.5 -134h-133q0 89 23 159t59.5 113.5t81 78.5t89 64.5t81 61t59.5 78t23 106.5q0 123 -81.5 194t-225.5 71q-153 0 -239.5 -98.5t-86.5 -276.5h-164
q0 249 133 389.5t361 140.5zM481 74q0 44 28.5 72t74.5 28q47 0 75.5 -27.5t28.5 -72.5q0 -49 -28 -77t-76 -28q-46 0 -74.5 28t-28.5 77z" />
    <glyph glyph-name="at" unicode="@" horiz-adv-x="1910" 
d="M956 1511q181 0 342 -67t276.5 -182t183 -276.5t67.5 -342.5q0 -211 -93 -336t-251 -125q-229 0 -303 197q-42 -83 -119 -131.5t-172 -48.5q-145 0 -241.5 105t-96.5 263q0 161 96.5 267t241.5 106q84 0 153.5 -37t114.5 -104l14 121h115v-351q0 -123 52.5 -192.5
t144.5 -69.5q97 0 155 92.5t58 245.5q0 156 -57 293.5t-155 235.5t-235 155t-291 57q-198 0 -369 -108t-271.5 -293t-100.5 -401q0 -164 60.5 -313.5t163 -257.5t244 -172t296.5 -64q125 0 224.5 26t219.5 88l41 -106q-222 -133 -499 -133q-179 0 -341 72.5t-279.5 196.5
t-187 296t-69.5 363q0 190 68.5 362.5t184.5 297t277 198t338 73.5zM1151 569q0 117 -64.5 188.5t-168.5 71.5t-171 -73t-67 -187q0 -113 67 -186.5t171 -73.5q105 0 169 72t64 188z" />
    <glyph glyph-name="A" unicode="A" horiz-adv-x="1443" 
d="M-29 0l662 1434h178l659 -1434h-174l-180 391h-786l-180 -391h-179zM399 541h648l-324 700z" />
    <glyph glyph-name="B" unicode="B" horiz-adv-x="1392" 
d="M158 0v1434h587q223 0 360.5 -102t137.5 -269q0 -112 -73.5 -199.5t-198.5 -132.5q160 -37 249 -127t89 -219q0 -170 -159.5 -277.5t-404.5 -107.5h-587zM1085 1044q0 109 -94 178.5t-246 69.5h-423v-497h423q140 0 240 72.5t100 176.5zM1143 403q0 117 -106.5 184.5
t-291.5 67.5h-423v-512h423q176 0 287 71.5t111 188.5z" />
    <glyph glyph-name="C" unicode="C" horiz-adv-x="1540" 
d="M252 717q0 -168 68.5 -303.5t190.5 -212t273 -76.5q171 0 303 91t195 249h176q-77 -230 -255.5 -363t-414.5 -133q-148 0 -278 57t-222.5 156t-146 237.5t-53.5 295.5q0 213 90.5 384.5t250.5 268t359 96.5q235 0 414 -133t256 -362h-178q-62 157 -194 248.5t-302 91.5
q-231 0 -381.5 -167.5t-150.5 -424.5z" />
    <glyph glyph-name="D" unicode="D" horiz-adv-x="1505" 
d="M158 0v1434h544q152 0 285 -54.5t228.5 -149t150.5 -227.5t55 -284q0 -116 -36.5 -226t-103 -198.5t-155 -155t-198.5 -103t-226 -36.5h-544zM1257 719q0 161 -72 289t-198.5 199t-284.5 71h-380v-1122h380q154 0 281.5 74.5t200.5 204t73 284.5z" />
    <glyph glyph-name="E" unicode="E" horiz-adv-x="1273" 
d="M158 0v1434h960v-154h-796v-483h763v-158h-763v-483h796v-156h-960z" />
    <glyph glyph-name="F" unicode="F" horiz-adv-x="1273" 
d="M158 0v1434h960v-154h-796v-514h763v-152h-763v-614h-164z" />
    <glyph glyph-name="G" unicode="G" horiz-adv-x="1587" 
d="M215 717q0 -258 150 -425t380 -167q210 0 356.5 134.5t180.5 356.5h-526v140h712v-756h-143l-16 299q-96 -157 -248 -243.5t-340 -86.5q-189 0 -342.5 97t-240.5 268t-87 381q0 212 88.5 383t246.5 268t355 98q246 1 427 -144.5t251 -393.5h-166q-57 178 -195 281.5
t-319 103.5q-151 0 -271 -76.5t-186.5 -212t-66.5 -305.5z" />
    <glyph glyph-name="H" unicode="H" horiz-adv-x="1495" 
d="M158 0v1434h164v-637h849v637h164v-1434h-164v639h-849v-639h-164z" />
    <glyph glyph-name="I" unicode="I" 
d="M319 1434v-1434h-163v1434h163z" />
    <glyph glyph-name="J" unicode="J" horiz-adv-x="1359" 
d="M1038 553v881h164v-881q0 -162 -76 -297.5t-202 -211.5t-271 -75q-218 1 -373.5 140t-195.5 368h164q36 -160 145 -256t260 -96q159 0 272 124.5t113 303.5z" />
    <glyph glyph-name="K" unicode="K" horiz-adv-x="1314" 
d="M322 643v-643h-164v1434h164v-643h233l508 643h197l-574 -717l629 -717h-203l-559 643h-231z" />
    <glyph glyph-name="L" unicode="L" horiz-adv-x="1273" 
d="M158 0v1434h164v-1278h796v-156h-960z" />
    <glyph glyph-name="M" unicode="M" horiz-adv-x="1767" 
d="M319 1155v-1155h-163v1434h206l525 -1254l522 1254h205v-1434h-164v1151l-489 -1151h-150z" />
    <glyph glyph-name="N" unicode="N" horiz-adv-x="1542" 
d="M322 1139v-1139h-164v1434h129l936 -1131v1131h163v-1434h-129z" />
    <glyph glyph-name="O" unicode="O" horiz-adv-x="1572" 
d="M88 715q0 213 91 384.5t251 268t358 96.5q203 0 363.5 -94.5t251 -265.5t90.5 -389q0 -216 -90.5 -386.5t-251 -265t-363.5 -94.5q-147 0 -277 57t-223 156t-146.5 237.5t-53.5 295.5zM252 717q0 -168 69 -303.5t192 -212t275 -76.5q239 0 390 165.5t151 426.5
q0 263 -150 427.5t-391 164.5q-115 0 -214.5 -44.5t-170 -123t-111 -188.5t-40.5 -236z" />
    <glyph glyph-name="P" unicode="P" horiz-adv-x="1380" 
d="M158 0v1434h590q229 0 386.5 -139t157.5 -349q0 -133 -75.5 -246t-200.5 -178t-268 -65h-426v-457h-164zM1128 946q0 145 -108 239.5t-272 94.5h-426v-670h426q159 0 269.5 97.5t110.5 238.5z" />
    <glyph glyph-name="Q" unicode="Q" horiz-adv-x="1572" 
d="M88 715q0 213 90 384.5t249 268t357 96.5q204 0 364.5 -94.5t250.5 -265.5t90 -389q0 -241 -112 -423t-304 -265l416 -119v-166l-842 240q-248 50 -403.5 252t-155.5 481zM252 717q0 -168 68.5 -303.5t190.5 -212t273 -76.5q239 0 390 165.5t151 426.5q0 263 -150 427.5
t-391 164.5q-230 0 -381 -168t-151 -424z" />
    <glyph glyph-name="R" unicode="R" horiz-adv-x="1347" 
d="M1157 0l-336 461q-46 -4 -69 -4h-430v-457h-164v1434h594q229 0 386.5 -139t157.5 -349q0 -144 -87.5 -263t-227.5 -179l371 -504h-195zM1133 946q0 145 -108.5 239.5t-272.5 94.5h-430v-670h430q159 0 270 97.5t111 238.5z" />
    <glyph glyph-name="S" unicode="S" horiz-adv-x="1335" 
d="M1247 367q0 -170 -152.5 -284t-394.5 -114q-254 0 -425.5 121.5t-190.5 319.5h170q25 -136 145 -216.5t295 -80.5q169 0 279 73.5t110 186.5q0 74 -33.5 126t-89.5 80.5t-129.5 47t-154 31.5t-161 28.5t-154 43t-129.5 68.5t-89.5 112.5t-33.5 168.5q0 171 157 278
t396 107q232 0 390 -112.5t181 -294.5h-168q-25 117 -137.5 191.5t-265.5 74.5q-168 0 -279 -70t-111 -180q0 -66 33.5 -111.5t90 -70.5t129.5 -41t154 -29t161.5 -29t153.5 -46.5t129.5 -75.5t90 -122t33.5 -181z" />
    <glyph glyph-name="T" unicode="T" horiz-adv-x="1261" 
d="M549 0v1280h-498v154h1157v-154h-495v-1280h-164z" />
    <glyph glyph-name="U" unicode="U" horiz-adv-x="1511" 
d="M758 131q193 0 313.5 139t120.5 357v807h164v-807q0 -187 -75 -335.5t-212 -232.5t-311 -84q-127 0 -238.5 50t-191 136.5t-125 207.5t-45.5 258v807h164v-807q0 -212 125 -354t311 -142z" />
    <glyph glyph-name="V" unicode="V" horiz-adv-x="1443" 
d="M-29 1434h179l573 -1241l573 1241h174l-659 -1434h-178z" />
    <glyph glyph-name="W" unicode="W" horiz-adv-x="1888" 
d="M0 1434h170l344 -1147l344 1147h172l344 -1149l344 1149h170l-430 -1434h-170l-344 1147l-344 -1147h-172z" />
    <glyph glyph-name="X" unicode="X" horiz-adv-x="1331" 
d="M764 729l565 -729h-203l-462 598l-465 -598h-199l563 725l-549 709h201l451 -578l448 578h197z" />
    <glyph glyph-name="Y" unicode="Y" horiz-adv-x="1230" 
d="M532 553l-540 881h188l436 -736l437 736h186l-543 -881v-553h-164v553z" />
    <glyph glyph-name="Z" unicode="Z" horiz-adv-x="1427" 
d="M186 1270v164h1055v-131l-868 -1139h899v-164h-1114v131l850 1139h-822z" />
    <glyph glyph-name="bracketleft" unicode="[" horiz-adv-x="831" 
d="M158 -350v1859h534v-151h-370v-1553h370v-155h-534z" />
    <glyph glyph-name="backslash" unicode="\" horiz-adv-x="874" 
d="M842 -350h-170l-639 1859h172z" />
    <glyph glyph-name="bracketright" unicode="]" horiz-adv-x="825" 
d="M666 -350h-529v155h365v1553h-365v151h529v-1859z" />
    <glyph glyph-name="asciicircum" unicode="^" horiz-adv-x="1083" 
d="M475 1434h139l385 -701h-163l-291 565l-293 -565h-164z" />
    <glyph glyph-name="underscore" unicode="_" horiz-adv-x="999" 
d="M897 -209h-795v154h795v-154z" />
    <glyph glyph-name="grave" unicode="`" horiz-adv-x="319" 
d="M225 1149h-125l-116 285h166z" />
    <glyph glyph-name="a" unicode="a" horiz-adv-x="1300" 
d="M1145 0h-141l-21 211q-62 -114 -167.5 -178t-235.5 -64q-139 0 -252 70.5t-177.5 194.5t-64.5 276q0 234 141.5 389.5t352.5 155.5q130 0 234.5 -63.5t166.5 -178.5l23 211h141v-1024zM250 512q0 -170 106 -281.5t267 -111.5q158 0 258 109t100 284q0 174 -100 284.5
t-258 110.5q-164 0 -268.5 -111t-104.5 -284z" />
    <glyph glyph-name="b" unicode="b" horiz-adv-x="1300" 
d="M322 211l-23 -211h-141v1434h164v-619q62 113 166.5 176.5t234.5 63.5q211 0 352.5 -155.5t141.5 -389.5q0 -152 -64.5 -276t-177.5 -194.5t-252 -70.5q-130 0 -234.5 63.5t-166.5 178.5zM1053 512q0 173 -104.5 284t-268.5 111q-158 0 -258 -110.5t-100 -284.5
q0 -175 99 -284t259 -109q161 0 267 111.5t106 281.5z" />
    <glyph glyph-name="c" unicode="c" horiz-adv-x="1234" 
d="M252 512q0 -170 106 -281.5t267 -111.5q126 0 222 65.5t136 175.5h170q-52 -179 -193 -285t-335 -106q-230 0 -383.5 154.5t-153.5 386.5q0 154 69.5 279t192.5 195.5t275 70.5q193 0 334 -105t192 -284h-170q-42 109 -137 175t-219 66q-161 0 -267 -113t-106 -282z" />
    <glyph glyph-name="d" unicode="d" horiz-adv-x="1300" 
d="M1141 0h-144l-18 207q-63 -113 -170 -175.5t-236 -62.5q-209 0 -348 154.5t-139 386.5q0 155 62.5 279.5t174 195t250.5 70.5q128 0 234.5 -62.5t169.5 -173.5v615h164v-1434zM250 512q0 -170 104.5 -281.5t261.5 -111.5q161 0 261 109t100 284q0 174 -101 284.5
t-260 110.5t-262.5 -111t-103.5 -284z" />
    <glyph glyph-name="e" unicode="e" horiz-adv-x="1230" 
d="M1141 465h-887q14 -159 113.5 -262t244.5 -103q105 0 190.5 51t137.5 140h168q-63 -150 -194 -236t-302 -86q-225 0 -374.5 154.5t-149.5 386.5q0 235 148 390t376 155q234 0 382.5 -151.5t148.5 -393.5q0 -7 -1 -22t-1 -23zM254 559h723q-14 162 -113.5 261.5
t-251.5 99.5q-146 0 -245 -101t-113 -260z" />
    <glyph glyph-name="f" unicode="f" horiz-adv-x="808" 
d="M418 1024h321v-154h-321v-870h-164v870h-219v154h219q0 211 127 325.5t358 114.5v-135q-321 0 -321 -305z" />
    <glyph glyph-name="g" unicode="g" horiz-adv-x="1300" 
d="M977 27v192q-63 -109 -169.5 -171t-234.5 -62q-210 0 -348.5 153t-138.5 381q0 231 138.5 383t348.5 152q130 0 236.5 -61.5t169.5 -172.5l18 203h144v-997q0 -237 -143.5 -390t-368.5 -153q-188 0 -325 107t-183 286h162q41 -113 133 -177.5t213 -64.5q154 0 251 109.5
t97 282.5zM250 520q0 -167 103.5 -275t262.5 -108q161 0 261 107t100 276q0 170 -101.5 278.5t-259.5 108.5q-159 0 -262.5 -109.5t-103.5 -277.5z" />
    <glyph glyph-name="h" unicode="h" horiz-adv-x="1308" 
d="M324 494v-494h-164v1434h164v-613q61 110 160 172t221 62q196 0 320 -156.5t124 -404.5v-494h-164v494q0 185 -90 296t-240 111q-148 0 -239.5 -112.5t-91.5 -294.5z" />
    <glyph glyph-name="i" unicode="i" horiz-adv-x="507" 
d="M168 1376q0 40 24 64t62 24q40 0 64 -24t24 -64q0 -38 -24 -62t-64 -24q-38 0 -62 24t-24 62zM336 0h-164v1024h164v-1024z" />
    <glyph glyph-name="j" unicode="j" horiz-adv-x="501" 
d="M162 1378q0 38 24 62t64 24q37 0 60.5 -24t23.5 -62t-23.5 -63t-60.5 -25q-39 0 -63.5 24.5t-24.5 63.5zM168 0v1024h164v-1024q0 -238 -96.5 -339t-317.5 -101v135q136 0 193 68t57 237z" />
    <glyph glyph-name="k" unicode="k" horiz-adv-x="1071" 
d="M322 434v-434h-164v1434h164v-848h182l334 438h184l-395 -512l444 -512h-192l-371 434h-186z" />
    <glyph glyph-name="l" unicode="l" 
d="M322 1434v-1434h-164v1434h164z" />
    <glyph glyph-name="m" unicode="m" horiz-adv-x="2048" 
d="M322 506v-506h-164v1024h141l20 -197q58 107 152 167.5t209 60.5q135 0 237 -81t150 -222q52 140 156.5 221.5t238.5 81.5q187 0 306.5 -153.5t119.5 -395.5v-506h-164v506q0 178 -86 286.5t-225 108.5q-136 0 -221.5 -109.5t-85.5 -285.5v-506h-164v506q0 179 -85 287
t-226 108q-138 0 -223.5 -109t-85.5 -286z" />
    <glyph glyph-name="n" unicode="n" horiz-adv-x="1308" 
d="M322 506v-506h-164v1024h141l20 -203q61 111 160 172.5t223 61.5q198 0 322.5 -153.5t124.5 -395.5v-506h-164v506q0 179 -90.5 287t-241.5 108q-148 0 -239.5 -109t-91.5 -286z" />
    <glyph glyph-name="o" unicode="o" horiz-adv-x="1251" 
d="M88 510q0 234 154 389.5t385 155.5q156 0 280 -68t194 -193t70 -284q0 -238 -153.5 -389.5t-390.5 -151.5q-151 0 -274.5 70.5t-194 194.5t-70.5 276zM252 512q0 -167 107.5 -277t267.5 -110q170 0 275.5 107t105.5 280t-106 281t-275 108q-161 0 -268 -111t-107 -278z
" />
    <glyph glyph-name="p" unicode="p" horiz-adv-x="1300" 
d="M160 1024h141l21 -203q65 110 170 172t233 62q209 0 348 -154.5t139 -386.5q0 -155 -62.5 -279.5t-174 -195t-250.5 -70.5q-127 0 -232.5 61.5t-168.5 172.5v-613h-164v1434zM1049 512q0 171 -104 283t-263 112q-161 0 -259.5 -109.5t-98.5 -285.5q0 -173 100 -283
t258 -110q159 0 263 111t104 282z" />
    <glyph glyph-name="q" unicode="q" horiz-adv-x="1300" 
d="M979 821l20 203h142v-1434h-164v613q-63 -110 -169 -172t-233 -62q-139 0 -250.5 70.5t-174 195t-62.5 279.5q0 232 139 386.5t348 154.5q128 0 234 -62t170 -172zM252 512q0 -171 103.5 -282t262.5 -111q158 0 258.5 110t100.5 283q0 175 -99 285t-260 110
q-158 0 -262 -111.5t-104 -283.5z" />
    <glyph glyph-name="r" unicode="r" horiz-adv-x="845" 
d="M793 1055v-172q-216 0 -343.5 -159.5t-127.5 -432.5v-291h-164v1024h141l23 -326q65 168 188 262.5t283 94.5z" />
    <glyph glyph-name="s" unicode="s" horiz-adv-x="1040" 
d="M958 272q0 -130 -113 -216.5t-290 -86.5q-199 0 -324 83t-143 237h156q17 -96 96.5 -145.5t216.5 -49.5q104 0 175 51t71 125q0 48 -23.5 82.5t-63 53.5t-90.5 32t-107.5 23t-113 21t-107.5 31t-90.5 48.5t-63 77.5t-23.5 115q0 127 112 214t287 87q189 0 302.5 -86
t125.5 -238h-151q-6 90 -77 145.5t-202 55.5q-99 0 -169 -51.5t-70 -124.5q0 -47 23 -79t62.5 -50t90.5 -29.5t107 -20t112.5 -19.5t107.5 -31.5t90.5 -50.5t62.5 -82t23 -122z" />
    <glyph glyph-name="t" unicode="t" horiz-adv-x="868" 
d="M463 870v-391q0 -186 74.5 -270t236.5 -84v-156q-248 0 -361.5 126t-113.5 384v391h-215v70l311 313h68v-229h311v-154h-311z" />
    <glyph glyph-name="u" unicode="u" horiz-adv-x="1308" 
d="M985 518v506h164v-1024h-141l-21 203q-61 -109 -161.5 -171.5t-223.5 -62.5q-128 0 -229.5 70.5t-158 195.5t-56.5 283v506h164v-506q0 -177 90 -285t239 -108t241.5 109t92.5 284z" />
    <glyph glyph-name="v" unicode="v" horiz-adv-x="1112" 
d="M0 1024h176l379 -831l383 831h174l-469 -1024h-176z" />
    <glyph glyph-name="w" unicode="w" horiz-adv-x="1673" 
d="M0 1024h170l291 -797l291 797h170l290 -797l295 797h166l-377 -1024h-168l-292 795l-293 -795h-166z" />
    <glyph glyph-name="x" unicode="x" horiz-adv-x="1017" 
d="M606 518l412 -518h-195l-313 395l-313 -395h-197l412 518l-404 506h197l305 -383l303 383h195z" />
    <glyph glyph-name="y" unicode="y" horiz-adv-x="1132" 
d="M645 -403h-172l139 403h-264l-348 1024h168l293 -854h209l293 854h165z" />
    <glyph glyph-name="z" unicode="z" horiz-adv-x="1144" 
d="M162 864v160h817v-131l-635 -731h662v-162h-869v131l639 733h-614z" />
    <glyph glyph-name="braceleft" unicode="{" horiz-adv-x="851" 
d="M238 588v-13q116 -9 177.5 -75.5t61.5 -177.5v-185q0 -157 65 -245.5t179 -88.5h41v-153h-47q-217 0 -309.5 125.5t-92.5 380.5v157q0 91 -51.5 145t-159.5 74v97q108 25 159.5 79t51.5 144v160q0 252 92.5 374.5t309.5 122.5h47v-147h-41q-114 0 -179 -89.5t-65 -248.5
v-184q0 -107 -63.5 -175t-175.5 -77z" />
    <glyph glyph-name="bar" unicode="|" 
d="M158 -350v1859h164v-1859h-164z" />
    <glyph glyph-name="braceright" unicode="}" horiz-adv-x="851" 
d="M612 588q-110 9 -174.5 77.5t-64.5 174.5v184q0 159 -63.5 248.5t-176.5 89.5h-45v147h51q216 0 307 -122.5t91 -374.5v-160q0 -90 52 -144t159 -79v-97q-211 -40 -211 -219v-157q0 -255 -91.5 -380.5t-306.5 -125.5h-51v153h45q113 0 176.5 88.5t63.5 245.5v185
q0 111 61.5 177.5t177.5 75.5v13z" />
    <glyph glyph-name="asciitilde" unicode="~" horiz-adv-x="980" 
d="M281 877q39 0 79.5 -16.5t76 -41t70 -48.5t73 -42t73.5 -20q73 -5 111.5 38t38.5 130h102q0 -140 -50.5 -214t-147.5 -75q-44 -2 -85 13.5t-74.5 38.5t-66.5 47t-74 43t-83 22q-67 4 -105 -39t-41 -125h-104q0 135 55 212t152 77z" />
    <glyph glyph-name="exclamdown" unicode="&#xa1;" horiz-adv-x="528" 
d="M160 952q0 47 29 75t75 28t75.5 -28t29.5 -75q0 -45 -29.5 -73.5t-75.5 -28.5t-75 28t-29 74zM205 643h119l22 -448v-605h-164v605z" />
    <glyph glyph-name="cent" unicode="&#xa2;" horiz-adv-x="1234" 
d="M252 717q0 -170 106 -281.5t267 -111.5q126 0 222 65.5t136 175.5h170q-46 -161 -167 -264t-290 -123v-217h-164v221q-196 31 -320 179t-124 354q0 210 123 358t321 180v224h164v-222q168 -19 288.5 -121.5t166.5 -263.5h-170q-42 109 -137 175.5t-219 66.5
q-161 0 -267 -113t-106 -282z" />
    <glyph glyph-name="sterling" unicode="&#xa3;" horiz-adv-x="1464" 
d="M365 463v147h-224v111h224v209q0 156 58.5 278t163 189.5t236.5 66.5q185 -1 309.5 -129t155.5 -346h-166q-15 144 -98 233t-201 89q-134 0 -214.5 -104t-80.5 -277v-209h590v-111h-590v-147q0 -209 -94 -307h889v-156h-1182v156q118 0 171 72t53 235z" />
    <glyph glyph-name="currency" unicode="&#xa4;" horiz-adv-x="1261" 
d="M117 719q0 192 108 332l-137 137l102 102l140 -139q129 90 295 90q173 0 307 -94l143 143l103 -102l-144 -144q99 -140 99 -325q0 -186 -101 -324l146 -145l-103 -103l-145 148q-129 -94 -305 -94q-162 0 -293 88l-142 -142l-102 103l139 139q-110 138 -110 330zM274 721
q0 -160 100.5 -265.5t250.5 -105.5q155 0 252.5 104t97.5 267q0 165 -97.5 269t-252.5 104q-151 0 -251 -106t-100 -267z" />
    <glyph glyph-name="yen" unicode="&#xa5;" horiz-adv-x="1306" 
d="M737 0h-164v178h-397v113h397v272h-397v111h213l-389 760h180l365 -707h221l358 707h183l-387 -760h217v-111h-400v-272h400v-113h-400v-178z" />
    <glyph glyph-name="brokenbar" unicode="&#xa6;" 
d="M158 729v780h164v-780h-164zM158 -350v782h164v-782h-164z" />
    <glyph glyph-name="section" unicode="&#xa7;" horiz-adv-x="1335" 
d="M1249 471q0 -90 -60 -166.5t-163 -124.5q69 -30 116 -71t77 -107.5t30 -153.5q0 -155 -153 -257.5t-398 -102.5q-255 0 -423 120t-187 318h168q23 -135 142.5 -216t297.5 -81q166 0 277.5 65t111.5 163q0 59 -27.5 102t-74.5 67.5t-109.5 43.5t-133 28.5t-145 24t-145 29
t-133 43.5t-109.5 68t-74.5 102.5t-27.5 146.5q0 92 59.5 165.5t166.5 121.5q-226 81 -226 311q0 104 72.5 185t199 125t284.5 44q232 0 389 -112.5t182 -294.5h-170q-25 118 -136 192t-268 74q-171 0 -280 -65t-109 -168q0 -59 33.5 -99t90 -61t130 -33.5t154.5 -22.5
t162.5 -23t155 -39.5t130 -66.5t90 -109.5t33.5 -164.5zM743 252q148 7 245 74t97 161q0 28 -5.5 52t-18.5 43.5t-26.5 35.5t-38 29.5t-43.5 23t-53 18t-55.5 14t-62.5 12t-63.5 9.5l-67.5 9q-168 -11 -274.5 -75.5t-106.5 -159.5q0 -119 133 -173q75 -31 270 -62
q51 -8 70 -11z" />
    <glyph glyph-name="dieresis" unicode="&#xa8;" horiz-adv-x="894" 
d="M139 1376q0 40 24.5 64t65.5 24q40 0 64 -24t24 -64q0 -38 -24 -62t-64 -24q-41 0 -65.5 23.5t-24.5 62.5zM575 1376q0 40 25 64t66 24q40 0 64 -24t24 -64q0 -38 -24 -62t-64 -24q-41 0 -66 24t-25 62z" />
    <glyph glyph-name="copyright" unicode="&#xa9;" horiz-adv-x="1603" 
d="M88 715q0 213 92 384.5t255.5 268t367.5 96.5q206 0 369.5 -94.5t255.5 -265.5t92 -389q0 -216 -92 -386.5t-255.5 -265t-369.5 -94.5q-152 0 -285 57t-227.5 156t-148.5 237t-54 296zM197 717q0 -278 171 -457.5t435 -179.5q266 0 434 177.5t168 459.5q0 285 -167 461
t-435 176q-175 0 -313.5 -81t-215.5 -226.5t-77 -329.5zM588 721q0 -101 60.5 -167.5t152.5 -66.5q70 0 127 39.5t76 102.5h116q-31 -111 -118 -178.5t-203 -67.5q-138 0 -231 96t-93 240q0 147 92.5 243.5t231.5 96.5q117 0 203.5 -65.5t115.5 -174.5h-117q-19 62 -74 98.5
t-126 36.5q-93 0 -153 -65.5t-60 -167.5z" />
    <glyph glyph-name="ordfeminine" unicode="&#xaa;" horiz-adv-x="954" 
d="M819 729h-104l-15 129q-45 -71 -116 -110t-158 -39q-146 0 -242 105.5t-96 264.5q0 161 96 268t242 107q87 0 158 -39t116 -110l15 127h104v-703zM209 1081q0 -112 70.5 -186t177.5 -74q109 0 175 71.5t66 188.5q0 115 -67.5 188.5t-173.5 73.5q-109 0 -178.5 -74
t-69.5 -188z" />
    <glyph glyph-name="guillemotleft" unicode="&#xab;" horiz-adv-x="1396" 
d="M88 717l379 493h199l-381 -493l381 -494h-199zM680 717l379 493h198l-380 -493l380 -494h-198z" />
    <glyph glyph-name="logicalnot" unicode="&#xac;" horiz-adv-x="1204" 
d="M100 870v154h1002v-670h-164v516h-838z" />
    <glyph glyph-name="uni00AD" unicode="&#xad;" horiz-adv-x="1075" 
d="M102 639v156h873v-156h-873z" />
    <glyph glyph-name="registered" unicode="&#xae;" horiz-adv-x="1603" 
d="M88 715q0 213 92 384.5t255.5 268t367.5 96.5q206 0 369.5 -94.5t255.5 -265.5t92 -389q0 -216 -92 -386.5t-255.5 -265t-369.5 -94.5q-152 0 -285 57t-227.5 156t-148.5 237t-54 296zM197 717q0 -278 171 -457.5t435 -179.5q267 0 434.5 177t167.5 460q0 285 -166.5 461
t-435.5 176q-175 0 -313.5 -81t-215.5 -226.5t-77 -329.5zM1114 416h-123l-114 184q-36 -4 -62 -4h-172v-180h-106v618h278q128 0 203.5 -59t75.5 -160q0 -61 -31.5 -109.5t-87.5 -76.5zM985 815q0 57 -46 91t-124 34h-172v-248h172q80 0 125 32.5t45 90.5z" />
    <glyph glyph-name="macron" unicode="&#xaf;" horiz-adv-x="860" 
d="M102 1202v129h658v-129h-658z" />
    <glyph glyph-name="degree" unicode="&#xb0;" horiz-adv-x="841" 
d="M88 1231q0 154 93.5 253t238.5 99q149 0 243.5 -97t94.5 -255q0 -157 -94.5 -251.5t-243.5 -94.5q-143 0 -237.5 97.5t-94.5 248.5zM205 1227q0 -97 61.5 -162.5t153.5 -65.5q97 0 158 64t61 164q0 108 -60 173.5t-159 65.5q-94 0 -154.5 -66t-60.5 -173z" />
    <glyph glyph-name="plusminus" unicode="&#xb1;" horiz-adv-x="1241" 
d="M102 807v147h445v404h145v-404h445v-147h-445v-399h-145v399h-445zM102 68v141h1035v-141h-1035z" />
    <glyph glyph-name="twosuperior" unicode="&#xb2;" horiz-adv-x="913" 
d="M461 1464q140 0 222.5 -73t82.5 -203q0 -58 -17 -103t-45.5 -73.5t-65.5 -50.5t-78.5 -38.5l-83 -33t-79.5 -38.5t-68 -50.5t-49 -73.5t-22 -104h520v-119h-641v82q0 78 17.5 139t47 99.5t68 67.5t81 47.5t85 34t81 32t68 37.5t47 54.5t17.5 78.5q0 84 -51.5 131
t-136.5 47q-97 0 -152 -67.5t-55 -188.5h-117q0 168 88 267t236 99z" />
    <glyph glyph-name="threesuperior" unicode="&#xb3;" horiz-adv-x="921" 
d="M629 1317h-441v117h576v-99l-258 -272q126 -2 211.5 -78.5t85.5 -210.5q0 -131 -90.5 -216t-229.5 -85q-146 0 -246 107.5t-100 263.5h117q0 -109 64.5 -183.5t162.5 -74.5q89 0 148 52.5t59 131.5q0 88 -56 142.5t-151 54.5h-67l-52 71z" />
    <glyph glyph-name="acute" unicode="&#xb4;" horiz-adv-x="319" 
d="M94 1149l74 285h166l-115 -285h-125z" />
    <glyph glyph-name="uni00B5" unicode="&#xb5;" horiz-adv-x="1308" 
d="M985 518v506h164v-1024h-141l-21 203q-61 -109 -161.5 -171.5t-223.5 -62.5q-161 0 -280 113v-485h-164v1427h164v-506q0 -177 90 -285t239 -108t241.5 109t92.5 284z" />
    <glyph glyph-name="paragraph" unicode="&#xb6;" horiz-adv-x="1581" 
d="M1421 -301h-164v1581h-503v-1581h-164v684q-127 0 -242 66.5t-187.5 189t-72.5 270.5q0 116 41 215.5t110 166.5t160.5 105t190.5 38h831v-1735z" />
    <glyph glyph-name="periodcentered" unicode="&#xb7;" horiz-adv-x="401" 
d="M88 717q0 57 31 92t82 35q50 0 81 -35t31 -92t-31 -92t-81 -35q-51 0 -82 35t-31 92z" />
    <glyph glyph-name="cedilla" unicode="&#xb8;" horiz-adv-x="569" 
d="M92 -401q44 -9 80 -9q78 0 127.5 33.5t50.5 91.5q1 53 -46.5 81.5t-125.5 23.5v233l139 -28v-140q84 -17 129.5 -64t45.5 -118q0 -99 -85 -158t-223 -59q-42 0 -92 6v107z" />
    <glyph glyph-name="onesuperior" unicode="&#xb9;" horiz-adv-x="591" 
d="M74 1227v114q79 0 140 22.5t122 70.5h96v-930h-115v778q-96 -55 -243 -55z" />
    <glyph glyph-name="ordmasculine" unicode="&#xba;" horiz-adv-x="845" 
d="M88 1112q0 153 94.5 252.5t239.5 99.5q150 0 245 -96.5t95 -255.5q0 -157 -94.5 -251.5t-245.5 -94.5q-144 0 -239 97.5t-95 248.5zM205 1108q0 -97 62.5 -162t154.5 -65q99 0 160 63.5t61 163.5q0 109 -60 174.5t-161 65.5q-95 0 -156 -67t-61 -173z" />
    <glyph glyph-name="guillemotright" unicode="&#xbb;" horiz-adv-x="1396" 
d="M1309 717l-381 -494h-199l383 494l-383 493h199zM717 717l-381 -494h-199l383 494l-383 493h199z" />
    <glyph glyph-name="onequarter" unicode="&#xbc;" horiz-adv-x="2031" 
d="M580 0l542 1434h115l-543 -1434h-114zM74 1227v114q99 0 175.5 22.5t151.5 70.5h101v-930h-115v790q-137 -67 -313 -67zM1106 205v100l582 625h116v-611h154v-114h-154v-205h-116v205h-582zM1272 319h416v453z" />
    <glyph glyph-name="onehalf" unicode="&#xbd;" horiz-adv-x="2033" 
d="M580 0l542 1434h115l-543 -1434h-114zM74 1227v114q99 0 175.5 22.5t151.5 70.5h101v-930h-115v790q-137 -67 -313 -67zM1593 961q160 0 256.5 -77.5t96.5 -213.5q0 -58 -20 -102t-53.5 -71.5t-77 -48.5t-92 -36.5t-97.5 -31t-93.5 -36.5t-80 -49t-57.5 -72.5t-25 -103.5
h608v-119h-735v82q0 104 33.5 178t86.5 113t117.5 65.5t129 44t117.5 37.5t86.5 57.5t33.5 94.5q0 85 -64 131.5t-170 46.5q-117 0 -183.5 -67.5t-66.5 -188.5h-120q0 168 101 267.5t269 99.5z" />
    <glyph glyph-name="threequarters" unicode="&#xbe;" horiz-adv-x="2203" 
d="M188 1317v117h666v-99l-295 -272q140 -2 237 -79t97 -210q0 -132 -103 -216.5t-260 -84.5q-164 0 -278.5 108t-114.5 263h117q0 -109 79 -183.5t197 -74.5q105 0 175.5 52.5t70.5 131.5q0 89 -59.5 143t-159.5 54h-102l-54 71l283 279h-496zM825 0l543 1434h117
l-543 -1434h-117zM1270 205v100l581 625h117v-611h154v-114h-154v-205h-117v205h-581zM1434 319h417v449z" />
    <glyph glyph-name="questiondown" unicode="&#xbf;" horiz-adv-x="1236" 
d="M754 952q0 -46 -28 -74t-73 -28q-49 0 -77.5 28t-28.5 74q0 47 28.5 75t77.5 28q45 0 73 -28t28 -75zM604 -440q-217 0 -342 106t-125 289q0 73 19 132t50.5 96t72 71t82 58t82 56.5t72 66.5t50.5 87.5t19 120.5h135q0 -89 -23 -159t-60 -113.5t-81.5 -78.5t-89 -64.5
t-81.5 -61.5t-60 -79t-23 -107q0 -123 82.5 -194t226.5 -71q152 0 238 98.5t86 276.5h164q0 -249 -132.5 -389.5t-361.5 -140.5z" />
    <glyph glyph-name="Agrave" unicode="&#xc0;" horiz-adv-x="1460" 
d="M786 1559h-124l-117 284h166zM-20 0l661 1434h178l660 -1434h-174l-181 391h-786l-180 -391h-178zM408 541h647l-324 700z" />
    <glyph glyph-name="Aacute" unicode="&#xc1;" horiz-adv-x="1460" 
d="M678 1559l74 284h166l-115 -284h-125zM-20 0l661 1434h178l660 -1434h-174l-181 391h-786l-180 -391h-178zM408 541h647l-324 700z" />
    <glyph glyph-name="Acircumflex" unicode="&#xc2;" horiz-adv-x="1460" 
d="M674 1843h129l221 -284h-119l-168 206l-174 -206h-121zM-20 0l661 1434h178l660 -1434h-174l-181 391h-786l-180 -391h-178zM408 541h647l-324 700z" />
    <glyph glyph-name="Atilde" unicode="&#xc3;" horiz-adv-x="1460" 
d="M522 1843q40 0 87.5 -24.5t85.5 -54t90 -56t100 -29.5q65 -4 92 34.5t27 129.5h104q0 -287 -180 -287q-49 -2 -99 21.5t-85 53.5t-82 57t-91 30q-53 4 -81.5 -38.5t-30.5 -125.5h-107q0 135 45.5 212t124.5 77zM-20 0l661 1434h178l660 -1434h-174l-181 391h-786
l-180 -391h-178zM408 541h647l-324 700z" />
    <glyph glyph-name="Adieresis" unicode="&#xc4;" horiz-adv-x="1460" 
d="M426 1786q0 40 24.5 64t65.5 24q40 0 64 -24t24 -64q0 -38 -24 -62t-64 -24q-41 0 -65.5 23.5t-24.5 62.5zM862 1786q0 40 24.5 64t65.5 24q40 0 64 -24t24 -64q0 -38 -24 -62t-64 -24q-41 0 -65.5 23.5t-24.5 62.5zM-20 0l661 1434h178l660 -1434h-174l-181 391h-786
l-180 -391h-178zM408 541h647l-324 700z" />
    <glyph glyph-name="Aring" unicode="&#xc5;" horiz-adv-x="1460" 
d="M510 1563q0 78 62 128t159 50q96 0 157.5 -49.5t61.5 -128.5q0 -57 -30 -99.5t-84 -64.5l643 -1399h-174l-181 391h-786l-180 -391h-178l647 1401q-54 24 -85.5 66.5t-31.5 95.5zM606 1565q0 -45 36 -75t89 -30q58 0 90.5 28.5t32.5 76.5q0 44 -33.5 71t-89.5 27
q-53 0 -89 -27t-36 -71zM408 541h647l-324 700z" />
    <glyph glyph-name="AE" unicode="&#xc6;" horiz-adv-x="2308" 
d="M1190 0v391h-690l-322 -391h-207l1178 1434h1001v-154h-796v-483h764v-158h-764v-483h796v-156h-960zM623 541h567v690z" />
    <glyph glyph-name="Ccedilla" unicode="&#xc7;" horiz-adv-x="1540" 
d="M252 717q0 -168 68.5 -303.5t190.5 -212t273 -76.5q171 0 303 91t195 249h176q-72 -219 -237 -350.5t-385 -143.5v-86q84 -17 129 -64t45 -118q0 -99 -85 -158t-223 -59q-42 0 -92 6v107q44 -9 80 -9q78 0 127.5 33.5t50.5 91.5q1 53 -46.5 81.5t-125.5 23.5v155
q-267 34 -437.5 240.5t-170.5 499.5q0 213 90.5 384.5t250.5 268t359 96.5q235 0 414 -133t256 -362h-178q-62 157 -194 248.5t-302 91.5q-231 0 -381.5 -167.5t-150.5 -424.5z" />
    <glyph glyph-name="Egrave" unicode="&#xc8;" horiz-adv-x="1273" 
d="M717 1559h-125l-117 284h166zM158 0v1434h960v-154h-796v-483h763v-158h-763v-483h796v-156h-960z" />
    <glyph glyph-name="Eacute" unicode="&#xc9;" horiz-adv-x="1273" 
d="M563 1559l74 284h166l-115 -284h-125zM158 0v1434h960v-154h-796v-483h763v-158h-763v-483h796v-156h-960z" />
    <glyph glyph-name="Ecircumflex" unicode="&#xca;" horiz-adv-x="1273" 
d="M578 1843h129l221 -284h-119l-168 206l-174 -206h-121zM158 0v1434h960v-154h-796v-483h763v-158h-763v-483h796v-156h-960z" />
    <glyph glyph-name="Edieresis" unicode="&#xcb;" horiz-adv-x="1273" 
d="M326 1786q0 40 24.5 64t65.5 24q40 0 64 -24t24 -64q0 -38 -24 -62t-64 -24q-41 0 -65.5 23.5t-24.5 62.5zM762 1786q0 40 24.5 64t65.5 24q40 0 64 -24t24 -64q0 -38 -24 -62t-64 -24q-41 0 -65.5 23.5t-24.5 62.5zM158 0v1434h960v-154h-796v-483h763v-158h-763v-483
h796v-156h-960z" />
    <glyph glyph-name="Igrave" unicode="&#xcc;" 
d="M297 1559h-125l-117 284h166zM319 1434v-1434h-163v1434h163z" />
    <glyph glyph-name="Iacute" unicode="&#xcd;" 
d="M184 1559l74 284h166l-115 -284h-125zM319 1434v-1434h-163v1434h163z" />
    <glyph glyph-name="Icircumflex" unicode="&#xce;" 
d="M178 1843h129l221 -284h-118l-168 206l-174 -206h-121zM319 1434v-1434h-163v1434h163z" />
    <glyph glyph-name="Idieresis" unicode="&#xcf;" 
d="M-51 1786q0 40 24.5 64t65.5 24q40 0 64 -24t24 -64q0 -38 -24 -62t-64 -24q-41 0 -65.5 23.5t-24.5 62.5zM385 1786q0 40 24.5 64t65.5 24q40 0 64 -24t24 -64q0 -38 -24 -62t-64 -24q-41 0 -65.5 23.5t-24.5 62.5zM319 1434v-1434h-163v1434h163z" />
    <glyph glyph-name="Eth" unicode="&#xd0;" horiz-adv-x="1720" 
d="M262 0v641h-217v156h217v637h545q152 0 285 -54.5t228.5 -149t150.5 -227.5t55 -284q0 -116 -36.5 -226t-103 -198.5t-155 -155t-198.5 -103t-226 -36.5h-545zM1362 719q0 161 -72 289t-198.5 199t-284.5 71h-381v-481h367v-156h-367v-485h381q154 0 281.5 74.5
t200.5 204t73 284.5z" />
    <glyph glyph-name="Ntilde" unicode="&#xd1;" horiz-adv-x="1542" 
d="M565 1843q40 0 87.5 -24.5t85.5 -54t90 -56t100 -29.5q65 -4 92 34.5t27 129.5h104q0 -287 -180 -287q-49 -2 -99 21.5t-85 53.5t-82 57t-91 30q-53 4 -81.5 -38.5t-30.5 -125.5h-107q0 135 45.5 212t124.5 77zM322 1139v-1139h-164v1434h129l936 -1131v1131h163v-1434
h-129z" />
    <glyph glyph-name="Ograve" unicode="&#xd2;" horiz-adv-x="1572" 
d="M848 1559h-125l-117 284h166zM88 715q0 213 91 384.5t251 268t358 96.5q203 0 363.5 -94.5t251 -265.5t90.5 -389q0 -216 -90.5 -386.5t-251 -265t-363.5 -94.5q-147 0 -277 57t-223 156t-146.5 237.5t-53.5 295.5zM252 717q0 -168 69 -303.5t192 -212t275 -76.5
q239 0 390 165.5t151 426.5q0 263 -150 427.5t-391 164.5q-115 0 -214.5 -44.5t-170 -123t-111 -188.5t-40.5 -236z" />
    <glyph glyph-name="Oacute" unicode="&#xd3;" horiz-adv-x="1572" 
d="M735 1559l74 284h166l-115 -284h-125zM88 715q0 213 91 384.5t251 268t358 96.5q203 0 363.5 -94.5t251 -265.5t90.5 -389q0 -216 -90.5 -386.5t-251 -265t-363.5 -94.5q-147 0 -277 57t-223 156t-146.5 237.5t-53.5 295.5zM252 717q0 -168 69 -303.5t192 -212t275 -76.5
q239 0 390 165.5t151 426.5q0 263 -150 427.5t-391 164.5q-115 0 -214.5 -44.5t-170 -123t-111 -188.5t-40.5 -236z" />
    <glyph glyph-name="Ocircumflex" unicode="&#xd4;" horiz-adv-x="1572" 
d="M725 1843h129l221 -284h-119l-168 206l-174 -206h-120zM88 715q0 213 91 384.5t251 268t358 96.5q203 0 363.5 -94.5t251 -265.5t90.5 -389q0 -216 -90.5 -386.5t-251 -265t-363.5 -94.5q-147 0 -277 57t-223 156t-146.5 237.5t-53.5 295.5zM252 717q0 -168 69 -303.5
t192 -212t275 -76.5q239 0 390 165.5t151 426.5q0 263 -150 427.5t-391 164.5q-115 0 -214.5 -44.5t-170 -123t-111 -188.5t-40.5 -236z" />
    <glyph glyph-name="Otilde" unicode="&#xd5;" horiz-adv-x="1572" 
d="M580 1843q33 0 69.5 -16t70 -39t67.5 -46.5t75 -41.5t80 -21q65 -4 92 34.5t27 129.5h104q0 -287 -180 -287q-41 -2 -80 13t-71.5 38.5t-63.5 47.5t-68 42t-73 21q-53 4 -82 -38.5t-31 -125.5h-106q0 135 45.5 212t124.5 77zM88 715q0 213 91 384.5t251 268t358 96.5
q203 0 363.5 -94.5t251 -265.5t90.5 -389q0 -216 -90.5 -386.5t-251 -265t-363.5 -94.5q-147 0 -277 57t-223 156t-146.5 237.5t-53.5 295.5zM252 717q0 -168 69 -303.5t192 -212t275 -76.5q239 0 390 165.5t151 426.5q0 263 -150 427.5t-391 164.5q-115 0 -214.5 -44.5
t-170 -123t-111 -188.5t-40.5 -236z" />
    <glyph glyph-name="Odieresis" unicode="&#xd6;" horiz-adv-x="1572" 
d="M479 1786q0 40 24.5 64t65.5 24q40 0 64 -24t24 -64q0 -38 -24 -62t-64 -24q-41 0 -65.5 23.5t-24.5 62.5zM915 1786q0 40 25 64t66 24q40 0 64 -24t24 -64q0 -38 -24 -62t-64 -24q-41 0 -66 24t-25 62zM88 715q0 213 91 384.5t251 268t358 96.5q203 0 363.5 -94.5
t251 -265.5t90.5 -389q0 -216 -90.5 -386.5t-251 -265t-363.5 -94.5q-147 0 -277 57t-223 156t-146.5 237.5t-53.5 295.5zM252 717q0 -168 69 -303.5t192 -212t275 -76.5q239 0 390 165.5t151 426.5q0 263 -150 427.5t-391 164.5q-115 0 -214.5 -44.5t-170 -123t-111 -188.5
t-40.5 -236z" />
    <glyph glyph-name="multiply" unicode="&#xd7;" horiz-adv-x="1091" 
d="M121 1034l108 109l318 -318l317 318l107 -109l-316 -315l316 -318l-109 -108l-315 317l-318 -317l-106 108l315 316z" />
    <glyph glyph-name="Oslash" unicode="&#xd8;" horiz-adv-x="1572" 
d="M88 715q0 213 91 384.5t251 268t358 96.5q136 0 252 -43l70 162h98l-86 -199q173 -91 272 -266t99 -403q0 -216 -90.5 -386.5t-251 -265t-363.5 -94.5q-135 0 -256 47l-81 -190h-99l99 229q-167 94 -265 268.5t-98 391.5zM252 717q0 -168 70 -304t192 -212l465 1077
q-91 31 -191 31q-115 0 -214.5 -44.5t-170 -123t-111 -188.5t-40.5 -236zM1061 1239l-465 -1077q84 -37 192 -37q239 0 390 165.5t151 426.5q0 178 -71 314.5t-197 207.5z" />
    <glyph glyph-name="Ugrave" unicode="&#xd9;" horiz-adv-x="1511" 
d="M821 1559h-125l-116 284h165zM758 131q193 0 313.5 139t120.5 357v807h164v-807q0 -187 -75 -335.5t-212 -232.5t-311 -84q-127 0 -238.5 50t-191 136.5t-125 207.5t-45.5 258v807h164v-807q0 -212 125 -354t311 -142z" />
    <glyph glyph-name="Uacute" unicode="&#xda;" horiz-adv-x="1511" 
d="M690 1559l74 284h166l-115 -284h-125zM758 131q193 0 313.5 139t120.5 357v807h164v-807q0 -187 -75 -335.5t-212 -232.5t-311 -84q-127 0 -238.5 50t-191 136.5t-125 207.5t-45.5 258v807h164v-807q0 -212 125 -354t311 -142z" />
    <glyph glyph-name="Ucircumflex" unicode="&#xdb;" horiz-adv-x="1511" 
d="M698 1843h129l222 -284h-119l-168 206l-174 -206h-121zM758 131q193 0 313.5 139t120.5 357v807h164v-807q0 -187 -75 -335.5t-212 -232.5t-311 -84q-127 0 -238.5 50t-191 136.5t-125 207.5t-45.5 258v807h164v-807q0 -212 125 -354t311 -142z" />
    <glyph glyph-name="Udieresis" unicode="&#xdc;" horiz-adv-x="1511" 
d="M453 1786q0 40 24.5 64t65.5 24q40 0 64 -24t24 -64q0 -38 -24 -62t-64 -24q-41 0 -65.5 23.5t-24.5 62.5zM889 1786q0 40 24.5 64t65.5 24q40 0 64 -24t24 -64q0 -38 -24 -62t-64 -24q-41 0 -65.5 23.5t-24.5 62.5zM758 131q193 0 313.5 139t120.5 357v807h164v-807
q0 -187 -75 -335.5t-212 -232.5t-311 -84q-127 0 -238.5 50t-191 136.5t-125 207.5t-45.5 258v807h164v-807q0 -212 125 -354t311 -142z" />
    <glyph glyph-name="Yacute" unicode="&#xdd;" horiz-adv-x="1230" 
d="M565 1559l74 284h166l-115 -284h-125zM532 553l-540 881h188l436 -736l437 736h186l-543 -881v-553h-164v553z" />
    <glyph glyph-name="Thorn" unicode="&#xde;" horiz-adv-x="1351" 
d="M158 0v1434h164v-228h413q145 0 266.5 -62t193 -174t71.5 -251q0 -133 -74 -246.5t-196 -178.5t-261 -65h-413v-229h-164zM1102 719q0 144 -105 239t-262 95h-413v-670h413q152 0 259.5 98t107.5 238z" />
    <glyph glyph-name="germandbls" unicode="&#xdf;" horiz-adv-x="1312" 
d="M776 0h-207v156h207q138 0 217.5 63.5t79.5 173.5q0 109 -80 172.5t-217 63.5h-125l-59 114l395 408q-60 77 -141.5 118.5t-173.5 41.5q-154 0 -258.5 -132.5t-104.5 -332.5v-846h-151v846q0 174 68.5 317t185 222.5t254.5 78.5q161 -2 291.5 -84.5t211.5 -236.5
l-383 -381q203 0 321 -99t118 -270q0 -176 -122.5 -284.5t-326.5 -108.5z" />
    <glyph glyph-name="agrave" unicode="&#xe0;" horiz-adv-x="1300" 
d="M739 1149h-125l-116 285h166zM1145 0h-141l-21 211q-62 -114 -167.5 -178t-235.5 -64q-139 0 -252 70.5t-177.5 194.5t-64.5 276q0 234 141.5 389.5t352.5 155.5q130 0 234.5 -63.5t166.5 -178.5l23 211h141v-1024zM250 512q0 -170 106 -281.5t267 -111.5q158 0 258 109
t100 284q0 174 -100 284.5t-258 110.5q-164 0 -268.5 -111t-104.5 -284z" />
    <glyph glyph-name="aacute" unicode="&#xe1;" horiz-adv-x="1300" 
d="M561 1149l74 285h166l-115 -285h-125zM1145 0h-141l-21 211q-62 -114 -167.5 -178t-235.5 -64q-139 0 -252 70.5t-177.5 194.5t-64.5 276q0 234 141.5 389.5t352.5 155.5q130 0 234.5 -63.5t166.5 -178.5l23 211h141v-1024zM250 512q0 -170 106 -281.5t267 -111.5
q158 0 258 109t100 284q0 174 -100 284.5t-258 110.5q-164 0 -268.5 -111t-104.5 -284z" />
    <glyph glyph-name="acircumflex" unicode="&#xe2;" horiz-adv-x="1300" 
d="M594 1434h129l221 -285h-119l-168 207l-174 -207h-121zM1145 0h-141l-21 211q-62 -114 -167.5 -178t-235.5 -64q-139 0 -252 70.5t-177.5 194.5t-64.5 276q0 234 141.5 389.5t352.5 155.5q130 0 234.5 -63.5t166.5 -178.5l23 211h141v-1024zM250 512q0 -170 106 -281.5
t267 -111.5q158 0 258 109t100 284q0 174 -100 284.5t-258 110.5q-164 0 -268.5 -111t-104.5 -284z" />
    <glyph glyph-name="atilde" unicode="&#xe3;" horiz-adv-x="1300" 
d="M442 1434q40 0 87.5 -24.5t85.5 -54t90 -56t100 -29.5q65 -4 92 34.5t27 129.5h104q0 -287 -180 -287q-41 -2 -80 13t-71.5 38.5t-63.5 47.5t-68 42t-73 21q-53 4 -82 -38.5t-31 -125.5h-107q0 135 45.5 212t124.5 77zM1145 0h-141l-21 211q-62 -114 -167.5 -178
t-235.5 -64q-139 0 -252 70.5t-177.5 194.5t-64.5 276q0 234 141.5 389.5t352.5 155.5q130 0 234.5 -63.5t166.5 -178.5l23 211h141v-1024zM250 512q0 -170 106 -281.5t267 -111.5q158 0 258 109t100 284q0 174 -100 284.5t-258 110.5q-164 0 -268.5 -111t-104.5 -284z" />
    <glyph glyph-name="adieresis" unicode="&#xe4;" horiz-adv-x="1300" 
d="M344 1376q0 40 24.5 64t65.5 24q40 0 64 -24t24 -64q0 -38 -24 -62t-64 -24q-41 0 -65.5 23.5t-24.5 62.5zM780 1376q0 40 24.5 64t65.5 24q40 0 64 -24t24 -64q0 -38 -24 -62t-64 -24q-41 0 -65.5 23.5t-24.5 62.5zM1145 0h-141l-21 211q-62 -114 -167.5 -178
t-235.5 -64q-139 0 -252 70.5t-177.5 194.5t-64.5 276q0 234 141.5 389.5t352.5 155.5q130 0 234.5 -63.5t166.5 -178.5l23 211h141v-1024zM250 512q0 -170 106 -281.5t267 -111.5q158 0 258 109t100 284q0 174 -100 284.5t-258 110.5q-164 0 -268.5 -111t-104.5 -284z" />
    <glyph glyph-name="aring" unicode="&#xe5;" horiz-adv-x="1300" 
d="M414 1331q0 78 62 128t159 50q96 0 157.5 -49.5t61.5 -128.5q0 -82 -61.5 -132t-157.5 -50q-93 0 -157 52t-64 130zM510 1333q0 -45 36 -74.5t89 -29.5q58 0 90.5 28t32.5 76q0 44 -34 71.5t-89 27.5q-53 0 -89 -27.5t-36 -71.5zM1145 0h-141l-21 211
q-62 -114 -167.5 -178t-235.5 -64q-139 0 -252 70.5t-177.5 194.5t-64.5 276q0 234 141.5 389.5t352.5 155.5q130 0 234.5 -63.5t166.5 -178.5l23 211h141v-1024zM250 512q0 -170 106 -281.5t267 -111.5q158 0 258 109t100 284q0 174 -100 284.5t-258 110.5
q-164 0 -268.5 -111t-104.5 -284z" />
    <glyph glyph-name="ae" unicode="&#xe6;" horiz-adv-x="2119" 
d="M1145 0h-141l-21 211q-62 -114 -167.5 -178t-235.5 -64q-139 0 -252 70.5t-177.5 194.5t-64.5 276q0 234 141.5 389.5t352.5 155.5q130 0 234.5 -63.5t166.5 -178.5l23 211h141v-109q146 140 360 140q234 0 382.5 -151.5t148.5 -393.5q0 -7 -1 -22t-1 -23h-887
q14 -159 113.5 -262t244.5 -103q105 0 190.5 51t137.5 140h168q-63 -150 -194 -236t-302 -86q-214 0 -360 140v-109zM1147 559h723q-14 162 -113.5 261.5t-251.5 99.5q-146 0 -245 -101t-113 -260zM250 512q0 -170 106 -281.5t267 -111.5q158 0 258 109t100 284
q0 174 -100 284.5t-258 110.5q-164 0 -268.5 -111t-104.5 -284z" />
    <glyph glyph-name="ccedilla" unicode="&#xe7;" horiz-adv-x="1234" 
d="M252 512q0 -170 106 -281.5t267 -111.5q126 0 222 65.5t136 175.5h170q-48 -169 -177.5 -274t-309.5 -115v-86q84 -17 129 -64t45 -118q0 -99 -85 -158t-223 -59q-42 0 -92 6v107q44 -9 80 -9q78 0 127.5 33.5t50.5 91.5q1 53 -46.5 81.5t-125.5 23.5v157
q-193 32 -315.5 180t-122.5 353q0 154 69.5 279t192.5 195.5t275 70.5q193 0 334 -105t192 -284h-170q-42 109 -137 175t-219 66q-161 0 -267 -113t-106 -282z" />
    <glyph glyph-name="egrave" unicode="&#xe8;" horiz-adv-x="1230" 
d="M682 1149h-125l-117 285h166zM1141 465h-887q14 -159 113.5 -262t244.5 -103q105 0 190.5 51t137.5 140h168q-63 -150 -194 -236t-302 -86q-225 0 -374.5 154.5t-149.5 386.5q0 235 148 390t376 155q234 0 382.5 -151.5t148.5 -393.5q0 -7 -1 -22t-1 -23zM254 559h723
q-14 162 -113.5 261.5t-251.5 99.5q-146 0 -245 -101t-113 -260z" />
    <glyph glyph-name="eacute" unicode="&#xe9;" horiz-adv-x="1230" 
d="M545 1149l73 285h166l-114 -285h-125zM1141 465h-887q14 -159 113.5 -262t244.5 -103q105 0 190.5 51t137.5 140h168q-63 -150 -194 -236t-302 -86q-225 0 -374.5 154.5t-149.5 386.5q0 235 148 390t376 155q234 0 382.5 -151.5t148.5 -393.5q0 -7 -1 -22t-1 -23z
M254 559h723q-14 162 -113.5 261.5t-251.5 99.5q-146 0 -245 -101t-113 -260z" />
    <glyph glyph-name="ecircumflex" unicode="&#xea;" horiz-adv-x="1230" 
d="M555 1434h129l221 -285h-119l-168 207l-174 -207h-120zM1141 465h-887q14 -159 113.5 -262t244.5 -103q105 0 190.5 51t137.5 140h168q-63 -150 -194 -236t-302 -86q-225 0 -374.5 154.5t-149.5 386.5q0 235 148 390t376 155q234 0 382.5 -151.5t148.5 -393.5
q0 -7 -1 -22t-1 -23zM254 559h723q-14 162 -113.5 261.5t-251.5 99.5q-146 0 -245 -101t-113 -260z" />
    <glyph glyph-name="edieresis" unicode="&#xeb;" horiz-adv-x="1230" 
d="M309 1376q0 40 24.5 64t65.5 24q40 0 64 -24t24 -64q0 -38 -24 -62t-64 -24q-41 0 -65.5 23.5t-24.5 62.5zM745 1376q0 40 25 64t66 24q40 0 64 -24t24 -64q0 -38 -24 -62t-64 -24q-41 0 -66 24t-25 62zM1141 465h-887q14 -159 113.5 -262t244.5 -103q105 0 190.5 51
t137.5 140h168q-63 -150 -194 -236t-302 -86q-225 0 -374.5 154.5t-149.5 386.5q0 235 148 390t376 155q234 0 382.5 -151.5t148.5 -393.5q0 -7 -1 -22t-1 -23zM254 559h723q-14 162 -113.5 261.5t-251.5 99.5q-146 0 -245 -101t-113 -260z" />
    <glyph glyph-name="igrave" unicode="&#xec;" 
d="M301 1149h-125l-117 285h166zM322 1024v-1024h-164v1024h164z" />
    <glyph glyph-name="iacute" unicode="&#xed;" 
d="M176 1149l74 285h166l-115 -285h-125zM322 1024v-1024h-164v1024h164z" />
    <glyph glyph-name="icircumflex" unicode="&#xee;" 
d="M178 1434h129l221 -285h-118l-168 207l-174 -207h-121zM322 1024v-1024h-164v1024h164z" />
    <glyph glyph-name="idieresis" unicode="&#xef;" 
d="M-33 1376q0 40 24.5 64t65.5 24q40 0 64 -24t24 -64q0 -38 -24 -62t-64 -24q-41 0 -65.5 23.5t-24.5 62.5zM403 1376q0 40 25 64t66 24q40 0 64 -24t24 -64q0 -38 -24 -62t-64 -24q-41 0 -66 24t-25 62zM322 1024v-1024h-164v1024h164z" />
    <glyph glyph-name="eth" unicode="&#xf0;" horiz-adv-x="1251" 
d="M412 1434h192l107 -150l280 76l23 -82l-250 -68l268 -376q131 -144 131 -349q0 -146 -69.5 -264.5t-193 -185t-275.5 -66.5q-234 0 -385.5 144t-151.5 372q0 227 151.5 373t385.5 146q49 0 96 -9l-121 172l-297 -80l-20 82l266 72zM999 485q0 156 -107 259.5t-267 103.5
q-165 0 -269 -101.5t-104 -261.5q0 -161 103.5 -260.5t269.5 -99.5q160 0 267 102.5t107 257.5z" />
    <glyph glyph-name="ntilde" unicode="&#xf1;" horiz-adv-x="1308" 
d="M434 1434q40 0 87.5 -24.5t85.5 -54t90 -56t100 -29.5q65 -4 91.5 34.5t26.5 129.5h105q0 -287 -180 -287q-49 -2 -99 21.5t-85 53.5t-82 57t-91 30q-53 4 -81.5 -38.5t-30.5 -125.5h-107q0 135 45.5 212t124.5 77zM322 506v-506h-164v1024h141l20 -203q61 111 160 172.5
t223 61.5q198 0 322.5 -153.5t124.5 -395.5v-506h-164v506q0 179 -90.5 287t-241.5 108q-148 0 -239.5 -109t-91.5 -286z" />
    <glyph glyph-name="ograve" unicode="&#xf2;" horiz-adv-x="1251" 
d="M690 1149h-125l-116 285h165zM88 510q0 234 154 389.5t385 155.5q156 0 280 -68t194 -193t70 -284q0 -238 -153.5 -389.5t-390.5 -151.5q-151 0 -274.5 70.5t-194 194.5t-70.5 276zM252 512q0 -167 107.5 -277t267.5 -110q170 0 275.5 107t105.5 280t-106 281t-275 108
q-161 0 -268 -111t-107 -278z" />
    <glyph glyph-name="oacute" unicode="&#xf3;" horiz-adv-x="1251" 
d="M565 1149l74 285h166l-115 -285h-125zM88 510q0 234 154 389.5t385 155.5q156 0 280 -68t194 -193t70 -284q0 -238 -153.5 -389.5t-390.5 -151.5q-151 0 -274.5 70.5t-194 194.5t-70.5 276zM252 512q0 -167 107.5 -277t267.5 -110q170 0 275.5 107t105.5 280t-106 281
t-275 108q-161 0 -268 -111t-107 -278z" />
    <glyph glyph-name="ocircumflex" unicode="&#xf4;" horiz-adv-x="1251" 
d="M565 1434h129l221 -285h-118l-168 207l-174 -207h-121zM88 510q0 234 154 389.5t385 155.5q156 0 280 -68t194 -193t70 -284q0 -238 -153.5 -389.5t-390.5 -151.5q-151 0 -274.5 70.5t-194 194.5t-70.5 276zM252 512q0 -167 107.5 -277t267.5 -110q170 0 275.5 107
t105.5 280t-106 281t-275 108q-161 0 -268 -111t-107 -278z" />
    <glyph glyph-name="otilde" unicode="&#xf5;" horiz-adv-x="1251" 
d="M420 1434q33 0 69.5 -16t70 -39t67.5 -46.5t75 -41.5t80 -21q65 -4 92 34.5t27 129.5h105q0 -287 -181 -287q-41 -2 -80 13t-71.5 38.5t-63.5 47.5t-68 42t-73 21q-53 4 -82 -38.5t-31 -125.5h-106q0 135 45.5 212t124.5 77zM88 510q0 234 154 389.5t385 155.5
q156 0 280 -68t194 -193t70 -284q0 -238 -153.5 -389.5t-390.5 -151.5q-151 0 -274.5 70.5t-194 194.5t-70.5 276zM252 512q0 -167 107.5 -277t267.5 -110q170 0 275.5 107t105.5 280t-106 281t-275 108q-161 0 -268 -111t-107 -278z" />
    <glyph glyph-name="odieresis" unicode="&#xf6;" horiz-adv-x="1251" 
d="M319 1376q0 40 25 64t66 24q40 0 64 -24t24 -64q0 -38 -24 -62t-64 -24q-41 0 -66 24t-25 62zM756 1376q0 40 24.5 64t65.5 24q40 0 64 -24t24 -64q0 -38 -24 -62t-64 -24q-41 0 -65.5 23.5t-24.5 62.5zM88 510q0 234 154 389.5t385 155.5q156 0 280 -68t194 -193
t70 -284q0 -238 -153.5 -389.5t-390.5 -151.5q-151 0 -274.5 70.5t-194 194.5t-70.5 276zM252 512q0 -167 107.5 -277t267.5 -110q170 0 275.5 107t105.5 280t-106 281t-275 108q-161 0 -268 -111t-107 -278z" />
    <glyph glyph-name="divide" unicode="&#xf7;" horiz-adv-x="1241" 
d="M516 1165q0 46 29 75.5t78 29.5q44 0 72 -29.5t28 -75.5q0 -45 -27.5 -72.5t-72.5 -27.5q-49 0 -78 27t-29 73zM1139 670h-1037v100h1037v-100zM516 270q0 46 29 75.5t78 29.5q44 0 72 -29.5t28 -75.5q0 -45 -27.5 -72.5t-72.5 -27.5q-49 0 -78 27t-29 73z" />
    <glyph glyph-name="oslash" unicode="&#xf8;" horiz-adv-x="1251" 
d="M88 510q0 234 154 389.5t385 155.5q94 0 186 -29l64 150h63l-74 -170q141 -62 223 -193t82 -303q0 -238 -153.5 -389.5t-390.5 -151.5q-96 0 -193 33l-76 -176h-63l86 199q-134 66 -213.5 194.5t-79.5 290.5zM252 512q0 -114 51.5 -204t140.5 -138l308 713
q-58 18 -125 18q-161 0 -268 -111t-107 -278zM805 862l-307 -715q61 -22 129 -22q170 0 275.5 107t105.5 280q0 122 -54 213.5t-149 136.5z" />
    <glyph glyph-name="ugrave" unicode="&#xf9;" horiz-adv-x="1308" 
d="M719 1149h-125l-117 285h166zM985 518v506h164v-1024h-141l-21 203q-61 -109 -161.5 -171.5t-223.5 -62.5q-128 0 -229.5 70.5t-158 195.5t-56.5 283v506h164v-506q0 -177 90 -285t239 -108t241.5 109t92.5 284z" />
    <glyph glyph-name="uacute" unicode="&#xfa;" horiz-adv-x="1308" 
d="M580 1149l73 285h166l-114 -285h-125zM985 518v506h164v-1024h-141l-21 203q-61 -109 -161.5 -171.5t-223.5 -62.5q-128 0 -229.5 70.5t-158 195.5t-56.5 283v506h164v-506q0 -177 90 -285t239 -108t241.5 109t92.5 284z" />
    <glyph glyph-name="ucircumflex" unicode="&#xfb;" horiz-adv-x="1308" 
d="M594 1434h129l221 -285h-119l-168 207l-174 -207h-121zM985 518v506h164v-1024h-141l-21 203q-61 -109 -161.5 -171.5t-223.5 -62.5q-128 0 -229.5 70.5t-158 195.5t-56.5 283v506h164v-506q0 -177 90 -285t239 -108t241.5 109t92.5 284z" />
    <glyph glyph-name="udieresis" unicode="&#xfc;" horiz-adv-x="1308" 
d="M346 1376q0 40 24.5 64t65.5 24q40 0 64 -24t24 -64q0 -38 -24 -62t-64 -24q-41 0 -65.5 23.5t-24.5 62.5zM782 1376q0 40 24.5 64t65.5 24q40 0 64.5 -24t24.5 -64q0 -38 -24.5 -62t-64.5 -24q-41 0 -65.5 23.5t-24.5 62.5zM985 518v506h164v-1024h-141l-21 203
q-61 -109 -161.5 -171.5t-223.5 -62.5q-128 0 -229.5 70.5t-158 195.5t-56.5 283v506h164v-506q0 -177 90 -285t239 -108t241.5 109t92.5 284z" />
    <glyph glyph-name="yacute" unicode="&#xfd;" horiz-adv-x="1132" 
d="M504 1149l74 285h165l-114 -285h-125zM645 -403h-172l139 403h-264l-348 1024h168l293 -854h209l293 854h165z" />
    <glyph glyph-name="thorn" unicode="&#xfe;" horiz-adv-x="1300" 
d="M158 1434h164v-619q62 113 166.5 176.5t234.5 63.5q139 0 252 -70.5t177.5 -194.5t64.5 -276q0 -234 -141.5 -389.5t-352.5 -155.5q-130 0 -234.5 63.5t-166.5 176.5v-619h-164v1844zM1053 512q0 172 -106 283.5t-267 111.5q-159 0 -258.5 -110t-99.5 -285
q0 -173 100 -283t258 -110q164 0 268.5 110.5t104.5 282.5z" />
    <glyph glyph-name="ydieresis" unicode="&#xff;" horiz-adv-x="1132" 
d="M260 1376q0 40 24.5 64t65.5 24q40 0 64 -24t24 -64q0 -38 -24 -62t-64 -24q-41 0 -65.5 23.5t-24.5 62.5zM696 1376q0 40 24.5 64t65.5 24q40 0 64 -24t24 -64q0 -38 -24 -62t-64 -24q-41 0 -65.5 23.5t-24.5 62.5zM645 -403h-172l139 403h-264l-348 1024h168l293 -854
h209l293 854h165z" />
    <glyph glyph-name="Amacron" unicode="&#x100;" horiz-adv-x="1460" 
d="M403 1612v129h658v-129h-658zM-20 0l661 1434h178l660 -1434h-174l-181 391h-786l-180 -391h-178zM408 541h647l-324 700z" />
    <glyph glyph-name="amacron" unicode="&#x101;" horiz-adv-x="1300" 
d="M315 1202v129h658v-129h-658zM1145 0h-141l-21 211q-62 -114 -167.5 -178t-235.5 -64q-139 0 -252 70.5t-177.5 194.5t-64.5 276q0 234 141.5 389.5t352.5 155.5q130 0 234.5 -63.5t166.5 -178.5l23 211h141v-1024zM250 512q0 -170 106 -281.5t267 -111.5q158 0 258 109
t100 284q0 174 -100 284.5t-258 110.5q-164 0 -268.5 -111t-104.5 -284z" />
    <glyph glyph-name="Abreve" unicode="&#x102;" horiz-adv-x="1460" 
d="M733 1559q-91 0 -170.5 34.5t-129.5 100.5t-50 149h131q0 -71 64 -123.5t155 -52.5q93 0 156 51.5t63 124.5h129q0 -120 -99.5 -202t-248.5 -82zM-20 0l661 1434h178l660 -1434h-174l-181 391h-786l-180 -391h-178zM408 541h647l-324 700z" />
    <glyph glyph-name="abreve" unicode="&#x103;" horiz-adv-x="1300" 
d="M653 1149q-91 0 -170.5 34.5t-129.5 101t-50 149.5h131q0 -71 64 -124t155 -53q93 0 156 52t63 125h129q0 -120 -99.5 -202.5t-248.5 -82.5zM1145 0h-141l-21 211q-62 -114 -167.5 -178t-235.5 -64q-139 0 -252 70.5t-177.5 194.5t-64.5 276q0 234 141.5 389.5
t352.5 155.5q130 0 234.5 -63.5t166.5 -178.5l23 211h141v-1024zM250 512q0 -170 106 -281.5t267 -111.5q158 0 258 109t100 284q0 174 -100 284.5t-258 110.5q-164 0 -268.5 -111t-104.5 -284z" />
    <glyph glyph-name="Aogonek" unicode="&#x104;" horiz-adv-x="1460" 
d="M1526 -264v-117q-68 -47 -164 -47q-88 0 -146.5 55.5t-58.5 134.5q0 75 53 139t144 99h-49l-181 391h-786l-180 -391h-178l661 1434h178l660 -1434h-2q-92 -43 -145.5 -99t-53.5 -110q0 -49 31 -76.5t82 -27.5q77 0 135 49zM408 541h647l-324 700z" />
    <glyph glyph-name="aogonek" unicode="&#x105;" horiz-adv-x="1300" 
d="M1145 0h-4q-92 -43 -145.5 -99t-53.5 -110q0 -49 31 -76.5t82 -27.5q77 0 135 49v-117q-68 -47 -164 -47q-88 0 -146.5 55.5t-58.5 134.5q0 75 53 139t144 99h-14l-21 211q-62 -114 -167.5 -178t-235.5 -64q-139 0 -252 70.5t-177.5 194.5t-64.5 276q0 234 141.5 389.5
t352.5 155.5q130 0 234.5 -63.5t166.5 -178.5l23 211h141v-1024zM250 512q0 -170 106 -281.5t267 -111.5q158 0 258 109t100 284q0 174 -100 284.5t-258 110.5q-164 0 -268.5 -111t-104.5 -284z" />
    <glyph glyph-name="Cacute" unicode="&#x106;" horiz-adv-x="1540" 
d="M717 1559l74 284h165l-114 -284h-125zM252 717q0 -168 68.5 -303.5t190.5 -212t273 -76.5q171 0 303 91t195 249h176q-77 -230 -255.5 -363t-414.5 -133q-148 0 -278 57t-222.5 156t-146 237.5t-53.5 295.5q0 213 90.5 384.5t250.5 268t359 96.5q235 0 414 -133t256 -362
h-178q-62 157 -194 248.5t-302 91.5q-231 0 -381.5 -167.5t-150.5 -424.5z" />
    <glyph glyph-name="cacute" unicode="&#x107;" horiz-adv-x="1234" 
d="M557 1149l74 285h166l-115 -285h-125zM252 512q0 -170 106 -281.5t267 -111.5q126 0 222 65.5t136 175.5h170q-52 -179 -193 -285t-335 -106q-230 0 -383.5 154.5t-153.5 386.5q0 154 69.5 279t192.5 195.5t275 70.5q193 0 334 -105t192 -284h-170q-42 109 -137 175
t-219 66q-161 0 -267 -113t-106 -282z" />
    <glyph glyph-name="Ccircumflex" unicode="&#x108;" horiz-adv-x="1540" 
d="M711 1843h129l221 -284h-119l-168 206l-174 -206h-121zM252 717q0 -168 68.5 -303.5t190.5 -212t273 -76.5q171 0 303 91t195 249h176q-77 -230 -255.5 -363t-414.5 -133q-148 0 -278 57t-222.5 156t-146 237.5t-53.5 295.5q0 213 90.5 384.5t250.5 268t359 96.5
q235 0 414 -133t256 -362h-178q-62 157 -194 248.5t-302 91.5q-231 0 -381.5 -167.5t-150.5 -424.5z" />
    <glyph glyph-name="ccircumflex" unicode="&#x109;" horiz-adv-x="1234" 
d="M559 1434h129l221 -285h-118l-168 207l-174 -207h-121zM252 512q0 -170 106 -281.5t267 -111.5q126 0 222 65.5t136 175.5h170q-52 -179 -193 -285t-335 -106q-230 0 -383.5 154.5t-153.5 386.5q0 154 69.5 279t192.5 195.5t275 70.5q193 0 334 -105t192 -284h-170
q-42 109 -137 175t-219 66q-161 0 -267 -113t-106 -282z" />
    <glyph glyph-name="Cdotaccent" unicode="&#x10a;" horiz-adv-x="1540" 
d="M682 1786q0 40 24 64t64 24q41 0 65.5 -24t24.5 -64q0 -39 -24.5 -62.5t-65.5 -23.5q-40 0 -64 24t-24 62zM252 717q0 -168 68.5 -303.5t190.5 -212t273 -76.5q171 0 303 91t195 249h176q-77 -230 -255.5 -363t-414.5 -133q-148 0 -278 57t-222.5 156t-146 237.5
t-53.5 295.5q0 213 90.5 384.5t250.5 268t359 96.5q235 0 414 -133t256 -362h-178q-62 157 -194 248.5t-302 91.5q-231 0 -381.5 -167.5t-150.5 -424.5z" />
    <glyph glyph-name="cdotaccent" unicode="&#x10b;" horiz-adv-x="1234" 
d="M530 1376q0 40 24 64t64 24q41 0 66 -24t25 -64q0 -38 -25 -62t-66 -24q-40 0 -64 24t-24 62zM252 512q0 -170 106 -281.5t267 -111.5q126 0 222 65.5t136 175.5h170q-52 -179 -193 -285t-335 -106q-230 0 -383.5 154.5t-153.5 386.5q0 154 69.5 279t192.5 195.5
t275 70.5q193 0 334 -105t192 -284h-170q-42 109 -137 175t-219 66q-161 0 -267 -113t-106 -282z" />
    <glyph glyph-name="Ccaron" unicode="&#x10c;" horiz-adv-x="1540" 
d="M709 1559l-230 284h121l158 -186h30l154 186h117l-217 -284h-133zM252 717q0 -168 68.5 -303.5t190.5 -212t273 -76.5q171 0 303 91t195 249h176q-77 -230 -255.5 -363t-414.5 -133q-148 0 -278 57t-222.5 156t-146 237.5t-53.5 295.5q0 213 90.5 384.5t250.5 268
t359 96.5q235 0 414 -133t256 -362h-178q-62 157 -194 248.5t-302 91.5q-231 0 -381.5 -167.5t-150.5 -424.5z" />
    <glyph glyph-name="ccaron" unicode="&#x10d;" horiz-adv-x="1234" 
d="M557 1149l-229 285h121l157 -187h31l154 187h116l-217 -285h-133zM252 512q0 -170 106 -281.5t267 -111.5q126 0 222 65.5t136 175.5h170q-52 -179 -193 -285t-335 -106q-230 0 -383.5 154.5t-153.5 386.5q0 154 69.5 279t192.5 195.5t275 70.5q193 0 334 -105t192 -284
h-170q-42 109 -137 175t-219 66q-161 0 -267 -113t-106 -282z" />
    <glyph glyph-name="Dcaron" unicode="&#x10e;" horiz-adv-x="1505" 
d="M629 1559l-230 284h121l158 -186h31l153 186h117l-217 -284h-133zM158 0v1434h544q152 0 285 -54.5t228.5 -149t150.5 -227.5t55 -284q0 -116 -36.5 -226t-103 -198.5t-155 -155t-198.5 -103t-226 -36.5h-544zM1257 719q0 161 -72 289t-198.5 199t-284.5 71h-380v-1122
h380q154 0 281.5 74.5t200.5 204t73 284.5z" />
    <glyph glyph-name="dcaron" unicode="&#x10f;" horiz-adv-x="1523" 
d="M1141 0h-144l-18 207q-63 -113 -170 -175.5t-236 -62.5q-209 0 -348 154.5t-139 386.5q0 155 62.5 279.5t174 195t250.5 70.5q128 0 234.5 -62.5t169.5 -173.5v615h164v-1434zM1329 1059l41 375h160l-80 -375h-121zM250 512q0 -170 104.5 -281.5t261.5 -111.5
q161 0 261 109t100 284q0 174 -101 284.5t-260 110.5t-262.5 -111t-103.5 -284z" />
    <glyph glyph-name="Dcroat" unicode="&#x110;" horiz-adv-x="1720" 
d="M262 0v641h-217v156h217v637h545q152 0 285 -54.5t228.5 -149t150.5 -227.5t55 -284q0 -116 -36.5 -226t-103 -198.5t-155 -155t-198.5 -103t-226 -36.5h-545zM1362 719q0 161 -72 289t-198.5 199t-284.5 71h-381v-481h367v-156h-367v-485h381q154 0 281.5 74.5
t200.5 204t73 284.5z" />
    <glyph glyph-name="dcroat" unicode="&#x111;" horiz-adv-x="1431" 
d="M1141 0h-144l-18 207q-63 -113 -170 -175.5t-236 -62.5q-209 0 -348 154.5t-139 386.5q0 155 62.5 279.5t174 195t250.5 70.5q128 0 234.5 -62.5t169.5 -173.5v350h-287v97h287v168h164v-168h231v-97h-231v-1169zM250 512q0 -170 104.5 -281.5t261.5 -111.5
q161 0 261 109t100 284q0 174 -101 284.5t-260 110.5t-262.5 -111t-103.5 -284z" />
    <glyph glyph-name="Emacron" unicode="&#x112;" horiz-adv-x="1273" 
d="M311 1612v129h658v-129h-658zM158 0v1434h960v-154h-796v-483h763v-158h-763v-483h796v-156h-960z" />
    <glyph glyph-name="emacron" unicode="&#x113;" horiz-adv-x="1230" 
d="M287 1202v129h657v-129h-657zM1141 465h-887q14 -159 113.5 -262t244.5 -103q105 0 190.5 51t137.5 140h168q-63 -150 -194 -236t-302 -86q-225 0 -374.5 154.5t-149.5 386.5q0 235 148 390t376 155q234 0 382.5 -151.5t148.5 -393.5q0 -7 -1 -22t-1 -23zM254 559h723
q-14 162 -113.5 261.5t-251.5 99.5q-146 0 -245 -101t-113 -260z" />
    <glyph glyph-name="Ebreve" unicode="&#x114;" horiz-adv-x="1273" 
d="M639 1559q-91 0 -170.5 34.5t-129.5 100.5t-50 149h131q0 -71 64 -123.5t155 -52.5q93 0 156 51.5t63 124.5h129q0 -120 -99.5 -202t-248.5 -82zM158 0v1434h960v-154h-796v-483h763v-158h-763v-483h796v-156h-960z" />
    <glyph glyph-name="ebreve" unicode="&#x115;" horiz-adv-x="1230" 
d="M616 1149q-91 0 -170.5 34.5t-129.5 101t-50 149.5h131q0 -71 64 -124t155 -53q93 0 156.5 52t63.5 125h129q0 -120 -100 -202.5t-249 -82.5zM1141 465h-887q14 -159 113.5 -262t244.5 -103q105 0 190.5 51t137.5 140h168q-63 -150 -194 -236t-302 -86
q-225 0 -374.5 154.5t-149.5 386.5q0 235 148 390t376 155q234 0 382.5 -151.5t148.5 -393.5q0 -7 -1 -22t-1 -23zM254 559h723q-14 162 -113.5 261.5t-251.5 99.5q-146 0 -245 -101t-113 -260z" />
    <glyph glyph-name="Edotaccent" unicode="&#x116;" horiz-adv-x="1273" 
d="M551 1786q0 40 24 64t64 24q41 0 65.5 -24t24.5 -64q0 -39 -24.5 -62.5t-65.5 -23.5q-40 0 -64 24t-24 62zM158 0v1434h960v-154h-796v-483h763v-158h-763v-483h796v-156h-960z" />
    <glyph glyph-name="edotaccent" unicode="&#x117;" horiz-adv-x="1230" 
d="M526 1376q0 40 24 64t64 24q41 0 66 -24t25 -64q0 -38 -25 -62t-66 -24q-40 0 -64 24t-24 62zM1141 465h-887q14 -159 113.5 -262t244.5 -103q105 0 190.5 51t137.5 140h168q-63 -150 -194 -236t-302 -86q-225 0 -374.5 154.5t-149.5 386.5q0 235 148 390t376 155
q234 0 382.5 -151.5t148.5 -393.5q0 -7 -1 -22t-1 -23zM254 559h723q-14 162 -113.5 261.5t-251.5 99.5q-146 0 -245 -101t-113 -260z" />
    <glyph glyph-name="Eogonek" unicode="&#x118;" horiz-adv-x="1273" 
d="M158 0v1434h960v-154h-796v-483h763v-158h-763v-483h796v-156h-2q-92 -43 -145 -99t-53 -110q0 -49 31 -76.5t81 -27.5q77 0 135 49v-117q-68 -47 -164 -47q-88 0 -146 55.5t-58 134.5q0 75 52.5 139t143.5 99h-835z" />
    <glyph glyph-name="eogonek" unicode="&#x119;" horiz-adv-x="1230" 
d="M1141 465h-887q14 -159 113.5 -262t244.5 -103q105 0 190.5 51t137.5 140h168q-46 -109 -129 -185t-193 -110q-88 -43 -138 -97.5t-50 -107.5q0 -49 31 -76.5t82 -27.5q77 0 135 49v-117q-68 -47 -164 -47q-88 0 -146.5 55.5t-58.5 134.5q0 61 35 115.5t98 91.5
q-224 2 -373 155.5t-149 385.5q0 235 148 390t376 155q234 0 382.5 -151.5t148.5 -393.5q0 -7 -1 -22t-1 -23zM254 559h723q-14 162 -113.5 261.5t-251.5 99.5q-146 0 -245 -101t-113 -260z" />
    <glyph glyph-name="Ecaron" unicode="&#x11a;" horiz-adv-x="1273" 
d="M575 1559l-229 284h121l158 -186h30l154 186h117l-217 -284h-134zM158 0v1434h960v-154h-796v-483h763v-158h-763v-483h796v-156h-960z" />
    <glyph glyph-name="ecaron" unicode="&#x11b;" horiz-adv-x="1230" 
d="M553 1149l-229 285h120l158 -187h31l153 187h117l-217 -285h-133zM1141 465h-887q14 -159 113.5 -262t244.5 -103q105 0 190.5 51t137.5 140h168q-63 -150 -194 -236t-302 -86q-225 0 -374.5 154.5t-149.5 386.5q0 235 148 390t376 155q234 0 382.5 -151.5t148.5 -393.5
q0 -7 -1 -22t-1 -23zM254 559h723q-14 162 -113.5 261.5t-251.5 99.5q-146 0 -245 -101t-113 -260z" />
    <glyph glyph-name="Gcircumflex" unicode="&#x11c;" horiz-adv-x="1593" 
d="M713 1843h129l221 -284h-119l-168 206l-174 -206h-121zM215 717q0 -258 150 -425t380 -167q210 0 356.5 134.5t180.5 356.5h-526v140h712v-756h-143l-16 299q-96 -157 -248 -243.5t-340 -86.5q-189 0 -342.5 97t-240.5 268t-87 381q0 212 88.5 383t246.5 268t355 98
q246 1 427 -144.5t251 -393.5h-166q-57 178 -195 281.5t-319 103.5q-151 0 -271 -76.5t-186.5 -212t-66.5 -305.5z" />
    <glyph glyph-name="gcircumflex" unicode="&#x11d;" horiz-adv-x="1300" 
d="M578 1434h129l221 -285h-119l-168 207l-174 -207h-121zM977 27v192q-63 -109 -169.5 -171t-234.5 -62q-210 0 -348.5 153t-138.5 381q0 231 138.5 383t348.5 152q130 0 236.5 -61.5t169.5 -172.5l18 203h144v-997q0 -237 -143.5 -390t-368.5 -153q-188 0 -325 107
t-183 286h162q41 -113 133 -177.5t213 -64.5q154 0 251 109.5t97 282.5zM250 520q0 -167 103.5 -275t262.5 -108q161 0 261 107t100 276q0 170 -101.5 278.5t-259.5 108.5q-159 0 -262.5 -109.5t-103.5 -277.5z" />
    <glyph glyph-name="Gbreve" unicode="&#x11e;" horiz-adv-x="1593" 
d="M739 1559q-91 0 -170.5 34.5t-129.5 100.5t-50 149h131q0 -71 64 -123.5t155 -52.5q93 0 156 51.5t63 124.5h129q0 -120 -99.5 -202t-248.5 -82zM215 717q0 -258 150 -425t380 -167q210 0 356.5 134.5t180.5 356.5h-526v140h712v-756h-143l-16 299q-96 -157 -248 -243.5
t-340 -86.5q-189 0 -342.5 97t-240.5 268t-87 381q0 212 88.5 383t246.5 268t355 98q246 1 427 -144.5t251 -393.5h-166q-57 178 -195 281.5t-319 103.5q-151 0 -271 -76.5t-186.5 -212t-66.5 -305.5z" />
    <glyph glyph-name="gbreve" unicode="&#x11f;" horiz-adv-x="1300" 
d="M631 1149q-91 0 -170.5 34.5t-129.5 101t-50 149.5h131q0 -71 64 -124t155 -53q93 0 156 52t63 125h129q0 -120 -99.5 -202.5t-248.5 -82.5zM977 27v192q-63 -109 -169.5 -171t-234.5 -62q-210 0 -348.5 153t-138.5 381q0 231 138.5 383t348.5 152q130 0 236.5 -61.5
t169.5 -172.5l18 203h144v-997q0 -237 -143.5 -390t-368.5 -153q-188 0 -325 107t-183 286h162q41 -113 133 -177.5t213 -64.5q154 0 251 109.5t97 282.5zM250 520q0 -167 103.5 -275t262.5 -108q161 0 261 107t100 276q0 170 -101.5 278.5t-259.5 108.5
q-159 0 -262.5 -109.5t-103.5 -277.5z" />
    <glyph glyph-name="Gdotaccent" unicode="&#x120;" horiz-adv-x="1593" 
d="M680 1786q0 40 24 64t64 24q41 0 65.5 -24t24.5 -64q0 -39 -24.5 -62.5t-65.5 -23.5q-40 0 -64 24t-24 62zM215 717q0 -258 150 -425t380 -167q210 0 356.5 134.5t180.5 356.5h-526v140h712v-756h-143l-16 299q-96 -157 -248 -243.5t-340 -86.5q-189 0 -342.5 97
t-240.5 268t-87 381q0 212 88.5 383t246.5 268t355 98q246 1 427 -144.5t251 -393.5h-166q-57 178 -195 281.5t-319 103.5q-151 0 -271 -76.5t-186.5 -212t-66.5 -305.5z" />
    <glyph glyph-name="gdotaccent" unicode="&#x121;" horiz-adv-x="1300" 
d="M543 1376q0 40 24 64t64 24q41 0 65.5 -24t24.5 -64q0 -39 -24.5 -62.5t-65.5 -23.5q-40 0 -64 24t-24 62zM977 27v192q-63 -109 -169.5 -171t-234.5 -62q-210 0 -348.5 153t-138.5 381q0 231 138.5 383t348.5 152q130 0 236.5 -61.5t169.5 -172.5l18 203h144v-997
q0 -237 -143.5 -390t-368.5 -153q-188 0 -325 107t-183 286h162q41 -113 133 -177.5t213 -64.5q154 0 251 109.5t97 282.5zM250 520q0 -167 103.5 -275t262.5 -108q161 0 261 107t100 276q0 170 -101.5 278.5t-259.5 108.5q-159 0 -262.5 -109.5t-103.5 -277.5z" />
    <glyph glyph-name="uni0122" unicode="&#x122;" horiz-adv-x="1593" 
d="M215 717q0 -258 150 -425t380 -167q210 0 356.5 134.5t180.5 356.5h-526v140h712v-756h-143l-16 299q-96 -157 -248 -243.5t-340 -86.5q-189 0 -342.5 97t-240.5 268t-87 381q0 212 88.5 383t246.5 268t355 98q246 1 427 -144.5t251 -393.5h-166q-57 178 -195 281.5
t-319 103.5q-151 0 -271 -76.5t-186.5 -212t-66.5 -305.5zM621 -475l41 375h159l-80 -375h-120z" />
    <glyph glyph-name="uni0123" unicode="&#x123;" horiz-adv-x="1300" 
d="M739 1532l-41 -375h-159l79 375h121zM977 27v192q-63 -109 -169.5 -171t-234.5 -62q-210 0 -348.5 153t-138.5 381q0 231 138.5 383t348.5 152q130 0 236.5 -61.5t169.5 -172.5l18 203h144v-997q0 -237 -143.5 -390t-368.5 -153q-188 0 -325 107t-183 286h162
q41 -113 133 -177.5t213 -64.5q154 0 251 109.5t97 282.5zM250 520q0 -167 103.5 -275t262.5 -108q161 0 261 107t100 276q0 170 -101.5 278.5t-259.5 108.5q-159 0 -262.5 -109.5t-103.5 -277.5z" />
    <glyph glyph-name="Hcircumflex" unicode="&#x124;" horiz-adv-x="1495" 
d="M688 1843h129l221 -284h-118l-168 206l-174 -206h-121zM158 0v1434h164v-637h849v637h164v-1434h-164v639h-849v-639h-164z" />
    <glyph glyph-name="hcircumflex" unicode="&#x125;" horiz-adv-x="1308" 
d="M176 1808h129l221 -284h-118l-168 207l-174 -207h-121zM324 494v-494h-164v1434h164v-613q61 110 160 172t221 62q196 0 320 -156.5t124 -404.5v-494h-164v494q0 185 -90 296t-240 111q-148 0 -239.5 -112.5t-91.5 -294.5z" />
    <glyph glyph-name="Hbar" unicode="&#x126;" horiz-adv-x="1519" 
d="M172 0v1077h-129v94h129v263h164v-263h850v263h164v-263h131v-94h-131v-1077h-164v639h-850v-639h-164zM336 797h850v280h-850v-280z" />
    <glyph glyph-name="hbar" unicode="&#x127;" horiz-adv-x="1380" 
d="M395 494v-494h-164v1176h-192v96h192v162h164v-162h314v-96h-314v-355q61 110 160 172t221 62q196 0 320.5 -156.5t124.5 -404.5v-494h-164v494q0 185 -90 296t-240 111q-148 0 -240 -113t-92 -294z" />
    <glyph glyph-name="Itilde" unicode="&#x128;" 
d="M31 1843q33 0 69.5 -16t70 -39t67.5 -46.5t75 -41.5t80 -21q65 -4 92 34.5t27 129.5h104q0 -287 -180 -287q-41 -2 -80 13t-71.5 38.5t-63.5 47.5t-68 42t-73 21q-53 4 -82 -38.5t-31 -125.5h-106q0 135 45.5 212t124.5 77zM319 1434v-1434h-163v1434h163z" />
    <glyph glyph-name="itilde" unicode="&#x129;" 
d="M31 1434q33 0 69.5 -16t70 -39t67.5 -46.5t75 -41.5t80 -21q65 -4 92 34.5t27 129.5h104q0 -287 -180 -287q-41 -2 -80 13t-71.5 38.5t-63.5 47.5t-68 42t-73 21q-53 4 -82 -38.5t-31 -125.5h-106q0 135 45.5 212t124.5 77zM322 1024v-1024h-164v1024h164z" />
    <glyph glyph-name="Imacron" unicode="&#x12a;" 
d="M-90 1612v129h657v-129h-657zM319 1434v-1434h-163v1434h163z" />
    <glyph glyph-name="imacron" unicode="&#x12b;" 
d="M-90 1202v129h657v-129h-657zM322 1024v-1024h-164v1024h164z" />
    <glyph glyph-name="Ibreve" unicode="&#x12c;" 
d="M238 1559q-91 0 -170.5 34.5t-130 100.5t-50.5 149h131q0 -71 64.5 -123.5t155.5 -52.5q93 0 156 51.5t63 124.5h129q0 -120 -99.5 -202t-248.5 -82zM319 1434v-1434h-163v1434h163z" />
    <glyph glyph-name="ibreve" unicode="&#x12d;" 
d="M238 1149q-91 0 -170.5 34.5t-130 101t-50.5 149.5h131q0 -71 64.5 -124t155.5 -53q93 0 156 52t63 125h129q0 -120 -99.5 -202.5t-248.5 -82.5zM322 1024v-1024h-164v1024h164z" />
    <glyph glyph-name="Iogonek" unicode="&#x12e;" 
d="M319 1434v-1434h-2q-92 -43 -145 -99t-53 -110q0 -49 31 -76.5t81 -27.5q78 0 136 49v-117q-68 -47 -164 -47q-88 0 -146.5 55.5t-58.5 134.5q0 75 53 139t144 99h-39v1434h163z" />
    <glyph glyph-name="iogonek" unicode="&#x12f;" horiz-adv-x="481" 
d="M154 1376q0 40 24 64t62 24q40 0 64 -24t24 -64q0 -38 -24 -62t-64 -24q-38 0 -62 24t-24 62zM322 0h-5q-92 -43 -145 -99t-53 -110q0 -49 31 -76.5t81 -27.5q78 0 136 49v-117q-68 -47 -164 -47q-88 0 -146.5 55.5t-58.5 134.5q0 75 53 139t144 99h-37v1024h164v-1024z
" />
    <glyph glyph-name="Idotaccent" unicode="&#x130;" horiz-adv-x="614" 
d="M219 1786q0 40 24 64t64 24q41 0 65.5 -24t24.5 -64q0 -39 -24.5 -62.5t-65.5 -23.5q-40 0 -64 24t-24 62zM389 1434v-1434h-164v1434h164z" />
    <glyph glyph-name="dotlessi" unicode="&#x131;" 
d="M322 1024v-1024h-164v1024h164z" />
    <glyph glyph-name="IJ" unicode="&#x132;" horiz-adv-x="1814" 
d="M319 1434v-1434h-163v1434h163zM1493 553v881h164v-881q0 -162 -76 -297.5t-202 -211.5t-271 -75q-218 1 -373.5 140t-195.5 368h163q36 -160 145.5 -256t260.5 -96q159 0 272 124.5t113 303.5z" />
    <glyph glyph-name="ij" unicode="&#x133;" horiz-adv-x="962" 
d="M154 1376q0 40 24 64t62 24q40 0 64 -24t24 -64q0 -38 -24 -62t-64 -24q-38 0 -62 24t-24 62zM623 1378q0 38 24 62t64 24q37 0 60.5 -24t23.5 -62t-23.5 -63t-60.5 -25q-39 0 -63.5 24.5t-24.5 63.5zM322 0h-164v1024h164v-1024zM629 0v1024h164v-1024
q0 -238 -96.5 -339t-317.5 -101v135q136 0 193 68t57 237z" />
    <glyph glyph-name="Jcircumflex" unicode="&#x134;" horiz-adv-x="1359" 
d="M1057 1843h129l221 -284h-119l-168 206l-174 -206h-121zM1038 553v881h164v-881q0 -162 -76 -297.5t-202 -211.5t-271 -75q-218 1 -373.5 140t-195.5 368h164q36 -160 145 -256t260 -96q159 0 272 124.5t113 303.5z" />
    <glyph glyph-name="jcircumflex" unicode="&#x135;" horiz-adv-x="497" 
d="M190 1434h129l222 -285h-119l-168 207l-174 -207h-121zM168 0v1024h164v-1024q0 -238 -96.5 -339t-317.5 -101v135q136 0 193 68t57 237z" />
    <glyph glyph-name="uni0136" unicode="&#x136;" horiz-adv-x="1314" 
d="M322 643v-643h-164v1434h164v-643h233l508 643h197l-574 -717l629 -717h-203l-559 643h-231zM563 -475l41 375h160l-80 -375h-121z" />
    <glyph glyph-name="uni0137" unicode="&#x137;" horiz-adv-x="1071" 
d="M322 434v-434h-164v1434h164v-848h182l334 438h184l-395 -512l444 -512h-192l-371 434h-186zM436 -475l41 375h160l-80 -375h-121z" />
    <glyph glyph-name="kgreenlandic" unicode="&#x138;" horiz-adv-x="1071" 
d="M322 434v-434h-164v1024h164v-438h182l334 438h184l-395 -512l444 -512h-192l-371 434h-186z" />
    <glyph glyph-name="Lacute" unicode="&#x139;" horiz-adv-x="1273" 
d="M180 1559l74 284h166l-115 -284h-125zM158 0v1434h164v-1278h796v-156h-960z" />
    <glyph glyph-name="lacute" unicode="&#x13a;" 
d="M178 1559l74 284h166l-115 -284h-125zM322 1434v-1434h-164v1434h164z" />
    <glyph glyph-name="uni013B" unicode="&#x13b;" horiz-adv-x="1273" 
d="M158 0v1434h164v-1278h796v-156h-960zM537 -475l41 375h159l-80 -375h-120z" />
    <glyph glyph-name="uni013C" unicode="&#x13c;" 
d="M322 1434v-1434h-164v1434h164zM121 -475l41 375h160l-80 -375h-121z" />
    <glyph glyph-name="Lcaron" unicode="&#x13d;" horiz-adv-x="1355" 
d="M158 0v1434h164v-1278h796v-156h-960zM750 1059l41 375h159l-80 -375h-120z" />
    <glyph glyph-name="lcaron" unicode="&#x13e;" horiz-adv-x="692" 
d="M322 1434v-1434h-164v1434h164zM483 1059l41 375h160l-80 -375h-121z" />
    <glyph glyph-name="Ldot" unicode="&#x13f;" horiz-adv-x="1253" 
d="M158 0v1434h164v-1278h796v-156h-960zM666 881q0 57 30.5 92t81.5 35q50 0 81.5 -35t31.5 -92t-31.5 -92t-81.5 -35q-51 0 -81.5 35t-30.5 92z" />
    <glyph glyph-name="ldot" unicode="&#x140;" horiz-adv-x="903" 
d="M322 1434v-1434h-164v1434h164zM567 717q0 57 31 92t82 35q50 0 81.5 -35t31.5 -92t-31.5 -92t-81.5 -35q-51 0 -82 35t-31 92z" />
    <glyph glyph-name="Lslash" unicode="&#x141;" horiz-adv-x="1351" 
d="M236 0v682l-201 -51v157l201 52v594h163v-553l363 92v-154l-363 -94v-569h797v-156h-960z" />
    <glyph glyph-name="lslash" unicode="&#x142;" horiz-adv-x="620" 
d="M391 1434v-598l144 41v-156l-144 -41v-680h-164v633l-141 -41v158l141 41v643h164z" />
    <glyph glyph-name="Nacute" unicode="&#x143;" horiz-adv-x="1542" 
d="M705 1559l73 284h166l-115 -284h-124zM322 1139v-1139h-164v1434h129l936 -1131v1131h163v-1434h-129z" />
    <glyph glyph-name="nacute" unicode="&#x144;" horiz-adv-x="1308" 
d="M573 1149l74 285h166l-115 -285h-125zM322 506v-506h-164v1024h141l20 -203q61 111 160 172.5t223 61.5q198 0 322.5 -153.5t124.5 -395.5v-506h-164v506q0 179 -90.5 287t-241.5 108q-148 0 -239.5 -109t-91.5 -286z" />
    <glyph glyph-name="uni0145" unicode="&#x145;" horiz-adv-x="1542" 
d="M322 1139v-1139h-164v1434h129l936 -1131v1131h163v-1434h-129zM672 -475l41 375h159l-79 -375h-121z" />
    <glyph glyph-name="uni0146" unicode="&#x146;" horiz-adv-x="1308" 
d="M322 506v-506h-164v1024h141l20 -203q61 111 160 172.5t223 61.5q198 0 322.5 -153.5t124.5 -395.5v-506h-164v506q0 179 -90.5 287t-241.5 108q-148 0 -239.5 -109t-91.5 -286zM553 -475l41 375h160l-80 -375h-121z" />
    <glyph glyph-name="Ncaron" unicode="&#x147;" horiz-adv-x="1542" 
d="M711 1559l-230 284h121l158 -186h31l153 186h117l-217 -284h-133zM322 1139v-1139h-164v1434h129l936 -1131v1131h163v-1434h-129z" />
    <glyph glyph-name="ncaron" unicode="&#x148;" horiz-adv-x="1308" 
d="M588 1149l-230 285h121l158 -187h31l153 187h117l-217 -285h-133zM322 506v-506h-164v1024h141l20 -203q61 111 160 172.5t223 61.5q198 0 322.5 -153.5t124.5 -395.5v-506h-164v506q0 179 -90.5 287t-241.5 108q-148 0 -239.5 -109t-91.5 -286z" />
    <glyph glyph-name="napostrophe" unicode="&#x149;" horiz-adv-x="1521" 
d="M541 506v-506h-164v1024h141l21 -203q61 111 160 172.5t223 61.5q198 0 322 -153.5t124 -395.5v-506h-164v506q0 179 -90.5 287t-241.5 108q-148 0 -239.5 -109t-91.5 -286zM49 649l41 375h160l-80 -375h-121z" />
    <glyph glyph-name="Eng" unicode="&#x14a;" horiz-adv-x="1542" 
d="M322 1139v-1139h-164v1434h129l936 -1139v1139h163v-1448q0 -227 -112 -334t-352 -107v140q158 0 229.5 72t71.5 229v57z" />
    <glyph glyph-name="eng" unicode="&#x14b;" horiz-adv-x="1308" 
d="M987 0h-2v506q0 179 -90.5 287t-241.5 108q-148 0 -239.5 -109t-91.5 -286v-506h-164v1024h141l20 -203q61 111 160 172.5t223 61.5q198 0 322.5 -153.5t124.5 -395.5v-506h2q0 -226 -112 -333t-353 -107v139q158 0 229.5 72t71.5 229z" />
    <glyph glyph-name="Omacron" unicode="&#x14c;" horiz-adv-x="1572" 
d="M461 1612v129h657v-129h-657zM88 715q0 213 91 384.5t251 268t358 96.5q203 0 363.5 -94.5t251 -265.5t90.5 -389q0 -216 -90.5 -386.5t-251 -265t-363.5 -94.5q-147 0 -277 57t-223 156t-146.5 237.5t-53.5 295.5zM252 717q0 -168 69 -303.5t192 -212t275 -76.5
q239 0 390 165.5t151 426.5q0 263 -150 427.5t-391 164.5q-115 0 -214.5 -44.5t-170 -123t-111 -188.5t-40.5 -236z" />
    <glyph glyph-name="omacron" unicode="&#x14d;" horiz-adv-x="1251" 
d="M301 1202v129h657v-129h-657zM88 510q0 234 154 389.5t385 155.5q156 0 280 -68t194 -193t70 -284q0 -238 -153.5 -389.5t-390.5 -151.5q-151 0 -274.5 70.5t-194 194.5t-70.5 276zM252 512q0 -167 107.5 -277t267.5 -110q170 0 275.5 107t105.5 280t-106 281t-275 108
q-161 0 -268 -111t-107 -278z" />
    <glyph glyph-name="Obreve" unicode="&#x14e;" horiz-adv-x="1572" 
d="M786 1559q-91 0 -170.5 34.5t-129.5 100.5t-50 149h131q0 -71 64 -123.5t155 -52.5q93 0 156.5 51.5t63.5 124.5h129q0 -119 -99.5 -201.5t-249.5 -82.5zM88 715q0 213 91 384.5t251 268t358 96.5q203 0 363.5 -94.5t251 -265.5t90.5 -389q0 -216 -90.5 -386.5t-251 -265
t-363.5 -94.5q-147 0 -277 57t-223 156t-146.5 237.5t-53.5 295.5zM252 717q0 -168 69 -303.5t192 -212t275 -76.5q239 0 390 165.5t151 426.5q0 263 -150 427.5t-391 164.5q-115 0 -214.5 -44.5t-170 -123t-111 -188.5t-40.5 -236z" />
    <glyph glyph-name="obreve" unicode="&#x14f;" horiz-adv-x="1251" 
d="M627 1149q-91 0 -170.5 34.5t-130 101t-50.5 149.5h132q0 -71 64 -124t155 -53q93 0 156 52t63 125h129q0 -120 -99.5 -202.5t-248.5 -82.5zM88 510q0 234 154 389.5t385 155.5q156 0 280 -68t194 -193t70 -284q0 -238 -153.5 -389.5t-390.5 -151.5q-151 0 -274.5 70.5
t-194 194.5t-70.5 276zM252 512q0 -167 107.5 -277t267.5 -110q170 0 275.5 107t105.5 280t-106 281t-275 108q-161 0 -268 -111t-107 -278z" />
    <glyph glyph-name="Ohungarumlaut" unicode="&#x150;" horiz-adv-x="1572" 
d="M530 1559l74 284h166l-115 -284h-125zM924 1559l73 284h166l-114 -284h-125zM88 715q0 213 91 384.5t251 268t358 96.5q203 0 363.5 -94.5t251 -265.5t90.5 -389q0 -216 -90.5 -386.5t-251 -265t-363.5 -94.5q-147 0 -277 57t-223 156t-146.5 237.5t-53.5 295.5zM252 717
q0 -168 69 -303.5t192 -212t275 -76.5q239 0 390 165.5t151 426.5q0 263 -150 427.5t-391 164.5q-115 0 -214.5 -44.5t-170 -123t-111 -188.5t-40.5 -236z" />
    <glyph glyph-name="ohungarumlaut" unicode="&#x151;" horiz-adv-x="1251" 
d="M365 1149l73 285h166l-115 -285h-124zM758 1149l73 285h166l-114 -285h-125zM88 510q0 234 154 389.5t385 155.5q156 0 280 -68t194 -193t70 -284q0 -238 -153.5 -389.5t-390.5 -151.5q-151 0 -274.5 70.5t-194 194.5t-70.5 276zM252 512q0 -167 107.5 -277t267.5 -110
q170 0 275.5 107t105.5 280t-106 281t-275 108q-161 0 -268 -111t-107 -278z" />
    <glyph glyph-name="OE" unicode="&#x152;" horiz-adv-x="2105" 
d="M774 1464q114 0 213 -30h959v-154h-795v-483h762v-158h-762v-483h795v-156h-959q-102 -31 -213 -31q-193 0 -350 97t-246.5 268t-89.5 381q0 213 89 384.5t246 268t351 96.5zM987 170v1096q-87 43 -199 43q-234 0 -385 -167.5t-151 -424.5q0 -168 68.5 -303.5t191.5 -212
t276 -76.5q107 0 199 45z" />
    <glyph glyph-name="oe" unicode="&#x153;" horiz-adv-x="2146" 
d="M88 510q0 234 154 389.5t385 155.5q151 0 271.5 -63.5t191.5 -178.5q68 114 183.5 178t258.5 64q234 0 382 -151.5t148 -393.5q0 -7 -1 -22t-1 -23h-886q14 -159 113.5 -262t244.5 -103q105 0 190.5 51t137.5 140h168q-63 -150 -194 -236t-302 -86q-140 0 -256 65
t-186 177q-71 -115 -191.5 -178.5t-271.5 -63.5t-274.5 70.5t-194 194.5t-70.5 276zM1174 559h722q-14 162 -113 261.5t-251 99.5q-146 0 -245 -101t-113 -260zM252 512q0 -167 107.5 -277t267.5 -110q170 0 275.5 107t105.5 280t-106 281t-275 108q-161 0 -268 -111
t-107 -278z" />
    <glyph glyph-name="Racute" unicode="&#x154;" horiz-adv-x="1409" 
d="M604 1559l74 284h166l-115 -284h-125zM1157 0l-336 461q-46 -4 -69 -4h-430v-457h-164v1434h594q229 0 386.5 -139t157.5 -349q0 -144 -87.5 -263t-227.5 -179l371 -504h-195zM1133 946q0 145 -108.5 239.5t-272.5 94.5h-430v-670h430q159 0 270 97.5t111 238.5z" />
    <glyph glyph-name="racute" unicode="&#x155;" horiz-adv-x="845" 
d="M389 1149l74 285h166l-115 -285h-125zM793 1055v-172q-216 0 -343.5 -159.5t-127.5 -432.5v-291h-164v1024h141l23 -326q65 168 188 262.5t283 94.5z" />
    <glyph glyph-name="uni0156" unicode="&#x156;" horiz-adv-x="1347" 
d="M1157 0l-336 461q-46 -4 -69 -4h-430v-457h-164v1434h594q229 0 386.5 -139t157.5 -349q0 -144 -87.5 -263t-227.5 -179l371 -504h-195zM1133 946q0 145 -108.5 239.5t-272.5 94.5h-430v-670h430q159 0 270 97.5t111 238.5zM580 -475l41 375h159l-80 -375h-120z" />
    <glyph glyph-name="uni0157" unicode="&#x157;" horiz-adv-x="847" 
d="M793 1055v-172q-216 0 -343.5 -159.5t-127.5 -432.5v-291h-164v1024h141l23 -326q65 168 188 262.5t283 94.5zM119 -475l41 375h159l-79 -375h-121z" />
    <glyph glyph-name="Rcaron" unicode="&#x158;" horiz-adv-x="1359" 
d="M610 1559l-229 284h121l157 -186h31l154 186h117l-218 -284h-133zM1157 0l-336 461q-46 -4 -69 -4h-430v-457h-164v1434h594q229 0 386.5 -139t157.5 -349q0 -144 -87.5 -263t-227.5 -179l371 -504h-195zM1133 946q0 145 -108.5 239.5t-272.5 94.5h-430v-670h430
q159 0 270 97.5t111 238.5z" />
    <glyph glyph-name="rcaron" unicode="&#x159;" horiz-adv-x="845" 
d="M365 1149l-230 285h121l158 -187h30l154 187h117l-217 -285h-133zM793 1055v-172q-216 0 -343.5 -159.5t-127.5 -432.5v-291h-164v1024h141l23 -326q65 168 188 262.5t283 94.5z" />
    <glyph glyph-name="Sacute" unicode="&#x15a;" horiz-adv-x="1335" 
d="M580 1559l73 284h166l-114 -284h-125zM1247 367q0 -170 -152.5 -284t-394.5 -114q-254 0 -425.5 121.5t-190.5 319.5h170q25 -136 145 -216.5t295 -80.5q169 0 279 73.5t110 186.5q0 74 -33.5 126t-89.5 80.5t-129.5 47t-154 31.5t-161 28.5t-154 43t-129.5 68.5
t-89.5 112.5t-33.5 168.5q0 171 157 278t396 107q232 0 390 -112.5t181 -294.5h-168q-25 117 -137.5 191.5t-265.5 74.5q-168 0 -279 -70t-111 -180q0 -66 33.5 -111.5t90 -70.5t129.5 -41t154 -29t161.5 -29t153.5 -46.5t129.5 -75.5t90 -122t33.5 -181z" />
    <glyph glyph-name="sacute" unicode="&#x15b;" horiz-adv-x="1040" 
d="M440 1149l74 285h166l-115 -285h-125zM958 272q0 -130 -113 -216.5t-290 -86.5q-199 0 -324 83t-143 237h156q17 -96 96.5 -145.5t216.5 -49.5q104 0 175 51t71 125q0 48 -23.5 82.5t-63 53.5t-90.5 32t-107.5 23t-113 21t-107.5 31t-90.5 48.5t-63 77.5t-23.5 115
q0 127 112 214t287 87q189 0 302.5 -86t125.5 -238h-151q-6 90 -77 145.5t-202 55.5q-99 0 -169 -51.5t-70 -124.5q0 -47 23 -79t62.5 -50t90.5 -29.5t107 -20t112.5 -19.5t107.5 -31.5t90.5 -50.5t62.5 -82t23 -122z" />
    <glyph glyph-name="Scircumflex" unicode="&#x15c;" horiz-adv-x="1335" 
d="M610 1843h129l222 -284h-119l-168 206l-174 -206h-121zM1247 367q0 -170 -152.5 -284t-394.5 -114q-254 0 -425.5 121.5t-190.5 319.5h170q25 -136 145 -216.5t295 -80.5q169 0 279 73.5t110 186.5q0 74 -33.5 126t-89.5 80.5t-129.5 47t-154 31.5t-161 28.5t-154 43
t-129.5 68.5t-89.5 112.5t-33.5 168.5q0 171 157 278t396 107q232 0 390 -112.5t181 -294.5h-168q-25 117 -137.5 191.5t-265.5 74.5q-168 0 -279 -70t-111 -180q0 -66 33.5 -111.5t90 -70.5t129.5 -41t154 -29t161.5 -29t153.5 -46.5t129.5 -75.5t90 -122t33.5 -181z" />
    <glyph glyph-name="scircumflex" unicode="&#x15d;" horiz-adv-x="1040" 
d="M463 1434h129l221 -285h-119l-168 207l-174 -207h-121zM958 272q0 -130 -113 -216.5t-290 -86.5q-199 0 -324 83t-143 237h156q17 -96 96.5 -145.5t216.5 -49.5q104 0 175 51t71 125q0 48 -23.5 82.5t-63 53.5t-90.5 32t-107.5 23t-113 21t-107.5 31t-90.5 48.5t-63 77.5
t-23.5 115q0 127 112 214t287 87q189 0 302.5 -86t125.5 -238h-151q-6 90 -77 145.5t-202 55.5q-99 0 -169 -51.5t-70 -124.5q0 -47 23 -79t62.5 -50t90.5 -29.5t107 -20t112.5 -19.5t107.5 -31.5t90.5 -50.5t62.5 -82t23 -122z" />
    <glyph glyph-name="Scedilla" unicode="&#x15e;" horiz-adv-x="1351" 
d="M1247 367q0 -163 -142.5 -276t-371.5 -122v-84q84 -17 129 -64t45 -118q0 -99 -84.5 -158t-222.5 -59q-42 0 -92 6v107q44 -9 80 -9q78 0 127.5 33.5t50.5 91.5q1 53 -46.5 81.5t-125.5 23.5v155q-215 25 -354 141.5t-156 293.5h170q25 -136 145 -216.5t295 -80.5
q169 0 279 73.5t110 186.5q0 74 -33.5 126t-89.5 80.5t-129.5 47t-154 31.5t-161 28.5t-154 43t-129.5 68.5t-89.5 112.5t-33.5 168.5q0 171 157 278t396 107q232 0 390 -112.5t181 -294.5h-168q-25 117 -137.5 191.5t-265.5 74.5q-168 0 -279 -70t-111 -180
q0 -66 33.5 -111.5t90 -70.5t129.5 -41t154 -29t161.5 -29t153.5 -46.5t129.5 -75.5t90 -122t33.5 -181z" />
    <glyph glyph-name="scedilla" unicode="&#x15f;" horiz-adv-x="1040" 
d="M958 272q0 -125 -105 -210.5t-271 -92.5v-84q84 -17 129 -64t45 -118q0 -99 -84.5 -158t-222.5 -59q-43 0 -93 6v107q43 -9 80 -9q78 0 127.5 33.5t50.5 91.5q1 53 -46.5 81.5t-125.5 23.5v157q-152 21 -245.5 101t-108.5 211h156q17 -96 96.5 -145.5t216.5 -49.5
q104 0 175 51t71 125q0 48 -23.5 82.5t-63 53.5t-90.5 32t-107.5 23t-113 21t-107.5 31t-90.5 48.5t-63 77.5t-23.5 115q0 127 112 214t287 87q189 0 302.5 -86t125.5 -238h-151q-6 90 -77 145.5t-202 55.5q-99 0 -169 -51.5t-70 -124.5q0 -47 23 -79t62.5 -50t90.5 -29.5
t107 -20t112.5 -19.5t107.5 -31.5t90.5 -50.5t62.5 -82t23 -122z" />
    <glyph glyph-name="Scaron" unicode="&#x160;" horiz-adv-x="1335" 
d="M602 1559l-229 284h121l157 -186h31l154 186h116l-217 -284h-133zM1247 367q0 -170 -152.5 -284t-394.5 -114q-254 0 -425.5 121.5t-190.5 319.5h170q25 -136 145 -216.5t295 -80.5q169 0 279 73.5t110 186.5q0 74 -33.5 126t-89.5 80.5t-129.5 47t-154 31.5t-161 28.5
t-154 43t-129.5 68.5t-89.5 112.5t-33.5 168.5q0 171 157 278t396 107q232 0 390 -112.5t181 -294.5h-168q-25 117 -137.5 191.5t-265.5 74.5q-168 0 -279 -70t-111 -180q0 -66 33.5 -111.5t90 -70.5t129.5 -41t154 -29t161.5 -29t153.5 -46.5t129.5 -75.5t90 -122
t33.5 -181z" />
    <glyph glyph-name="scaron" unicode="&#x161;" horiz-adv-x="1040" 
d="M461 1149l-230 285h121l158 -187h31l153 187h117l-217 -285h-133zM958 272q0 -130 -113 -216.5t-290 -86.5q-199 0 -324 83t-143 237h156q17 -96 96.5 -145.5t216.5 -49.5q104 0 175 51t71 125q0 48 -23.5 82.5t-63 53.5t-90.5 32t-107.5 23t-113 21t-107.5 31
t-90.5 48.5t-63 77.5t-23.5 115q0 127 112 214t287 87q189 0 302.5 -86t125.5 -238h-151q-6 90 -77 145.5t-202 55.5q-99 0 -169 -51.5t-70 -124.5q0 -47 23 -79t62.5 -50t90.5 -29.5t107 -20t112.5 -19.5t107.5 -31.5t90.5 -50.5t62.5 -82t23 -122z" />
    <glyph glyph-name="uni0162" unicode="&#x162;" horiz-adv-x="1261" 
d="M549 0v1280h-498v154h1157v-154h-495v-1280h-19v-115q84 -17 129 -64t45 -118q0 -99 -84.5 -158t-222.5 -59q-43 0 -92 6v107q43 -9 80 -9q78 0 127.5 33.5t50.5 91.5q1 53 -46.5 81.5t-125.5 23.5v180h-6z" />
    <glyph glyph-name="uni0163" unicode="&#x163;" horiz-adv-x="868" 
d="M463 870v-391q0 -186 74.5 -270t236.5 -84v-156q-56 0 -127 11v-93q84 -17 129 -64t45 -118q0 -99 -84.5 -158t-222.5 -59q-42 0 -92 6v107q44 -9 80 -9q78 0 127.5 33.5t50.5 91.5q1 53 -46.5 81.5t-125.5 23.5v201q-209 110 -209 456v391h-215v70l311 313h68v-229h311
v-154h-311z" />
    <glyph glyph-name="Tcaron" unicode="&#x164;" horiz-adv-x="1261" 
d="M569 1559l-229 284h121l157 -186h31l154 186h117l-218 -284h-133zM549 0v1280h-498v154h1157v-154h-495v-1280h-164z" />
    <glyph glyph-name="tcaron" unicode="&#x165;" horiz-adv-x="964" 
d="M625 1141l41 375h159l-80 -375h-120zM463 870v-391q0 -186 74.5 -270t236.5 -84v-156q-248 0 -361.5 126t-113.5 384v391h-215v70l311 313h68v-229h311v-154h-311z" />
    <glyph glyph-name="Tbar" unicode="&#x166;" horiz-adv-x="1261" 
d="M549 0v565h-244v129h244v586h-498v154h1157v-154h-495v-586h250v-129h-250v-565h-164z" />
    <glyph glyph-name="tbar" unicode="&#x167;" horiz-adv-x="868" 
d="M465 870v-323h305v-72h-305q1 -185 75.5 -267.5t235.5 -82.5v-156q-247 0 -360 125t-115 381h-213v72h213v323h-215v70l311 313h68v-229h311v-154h-311z" />
    <glyph glyph-name="Utilde" unicode="&#x168;" horiz-adv-x="1511" 
d="M553 1843q33 0 69.5 -16t70 -39t67.5 -46.5t75 -41.5t80 -21q65 -4 92 34.5t27 129.5h105q0 -287 -181 -287q-41 -2 -80 13t-71.5 38.5t-63.5 47.5t-68 42t-73 21q-53 4 -82 -38.5t-31 -125.5h-106q0 135 45.5 212t124.5 77zM758 131q193 0 313.5 139t120.5 357v807h164
v-807q0 -187 -75 -335.5t-212 -232.5t-311 -84q-127 0 -238.5 50t-191 136.5t-125 207.5t-45.5 258v807h164v-807q0 -212 125 -354t311 -142z" />
    <glyph glyph-name="utilde" unicode="&#x169;" horiz-adv-x="1308" 
d="M449 1434q33 0 69.5 -16t70 -39t67.5 -46.5t75 -41.5t80 -21q65 -4 92 34.5t27 129.5h104q0 -287 -180 -287q-41 -2 -80 13t-71.5 38.5t-63.5 47.5t-68 42t-73 21q-53 4 -82 -38.5t-31 -125.5h-106q0 135 45.5 212t124.5 77zM985 518v506h164v-1024h-141l-21 203
q-61 -109 -161.5 -171.5t-223.5 -62.5q-128 0 -229.5 70.5t-158 195.5t-56.5 283v506h164v-506q0 -177 90 -285t239 -108t241.5 109t92.5 284z" />
    <glyph glyph-name="Umacron" unicode="&#x16a;" horiz-adv-x="1511" 
d="M430 1612v129h657v-129h-657zM758 131q193 0 313.5 139t120.5 357v807h164v-807q0 -187 -75 -335.5t-212 -232.5t-311 -84q-127 0 -238.5 50t-191 136.5t-125 207.5t-45.5 258v807h164v-807q0 -212 125 -354t311 -142z" />
    <glyph glyph-name="umacron" unicode="&#x16b;" horiz-adv-x="1308" 
d="M326 1202v129h657v-129h-657zM985 518v506h164v-1024h-141l-21 203q-61 -109 -161.5 -171.5t-223.5 -62.5q-128 0 -229.5 70.5t-158 195.5t-56.5 283v506h164v-506q0 -177 90 -285t239 -108t241.5 109t92.5 284z" />
    <glyph glyph-name="Ubreve" unicode="&#x16c;" horiz-adv-x="1511" 
d="M760 1559q-91 0 -170.5 34.5t-129.5 100.5t-50 149h131q0 -71 64 -123.5t155 -52.5q93 0 156 51.5t63 124.5h129q0 -120 -99.5 -202t-248.5 -82zM758 131q193 0 313.5 139t120.5 357v807h164v-807q0 -187 -75 -335.5t-212 -232.5t-311 -84q-127 0 -238.5 50t-191 136.5
t-125 207.5t-45.5 258v807h164v-807q0 -212 125 -354t311 -142z" />
    <glyph glyph-name="ubreve" unicode="&#x16d;" horiz-adv-x="1308" 
d="M655 1149q-91 0 -170.5 34.5t-129.5 101t-50 149.5h131q0 -71 64 -124t155 -53q93 0 156 52t63 125h130q0 -120 -100 -202.5t-249 -82.5zM985 518v506h164v-1024h-141l-21 203q-61 -109 -161.5 -171.5t-223.5 -62.5q-128 0 -229.5 70.5t-158 195.5t-56.5 283v506h164
v-506q0 -177 90 -285t239 -108t241.5 109t92.5 284z" />
    <glyph glyph-name="Uring" unicode="&#x16e;" horiz-adv-x="1511" 
d="M537 1741q0 78 62 128t159 50q96 0 157.5 -49.5t61.5 -128.5q0 -82 -61.5 -132t-157.5 -50q-93 0 -157 52t-64 130zM633 1743q0 -45 36 -75t89 -30q58 0 90.5 28.5t32.5 76.5q0 44 -33.5 71t-89.5 27q-53 0 -89 -27t-36 -71zM758 131q193 0 313.5 139t120.5 357v807h164
v-807q0 -187 -75 -335.5t-212 -232.5t-311 -84q-127 0 -238.5 50t-191 136.5t-125 207.5t-45.5 258v807h164v-807q0 -212 125 -354t311 -142z" />
    <glyph glyph-name="uring" unicode="&#x16f;" horiz-adv-x="1308" 
d="M432 1331q0 78 62 128t159 50q96 0 157.5 -49.5t61.5 -128.5q0 -82 -61.5 -132t-157.5 -50q-93 0 -157 52t-64 130zM528 1333q0 -45 36 -74.5t89 -29.5q58 0 90.5 28t32.5 76q0 44 -34 71.5t-89 27.5q-53 0 -89 -27.5t-36 -71.5zM985 518v506h164v-1024h-141l-21 203
q-61 -109 -161.5 -171.5t-223.5 -62.5q-128 0 -229.5 70.5t-158 195.5t-56.5 283v506h164v-506q0 -177 90 -285t239 -108t241.5 109t92.5 284z" />
    <glyph glyph-name="Uhungarumlaut" unicode="&#x170;" horiz-adv-x="1511" 
d="M471 1559l74 284h166l-115 -284h-125zM864 1559l74 284h166l-115 -284h-125zM758 131q193 0 313.5 139t120.5 357v807h164v-807q0 -187 -75 -335.5t-212 -232.5t-311 -84q-127 0 -238.5 50t-191 136.5t-125 207.5t-45.5 258v807h164v-807q0 -212 125 -354t311 -142z" />
    <glyph glyph-name="uhungarumlaut" unicode="&#x171;" horiz-adv-x="1308" 
d="M373 1149l73 285h166l-114 -285h-125zM766 1149l74 285h166l-115 -285h-125zM985 518v506h164v-1024h-141l-21 203q-61 -109 -161.5 -171.5t-223.5 -62.5q-128 0 -229.5 70.5t-158 195.5t-56.5 283v506h164v-506q0 -177 90 -285t239 -108t241.5 109t92.5 284z" />
    <glyph glyph-name="Uogonek" unicode="&#x172;" horiz-adv-x="1511" 
d="M758 131q193 0 313.5 139t120.5 357v807h164v-807q0 -235 -117.5 -405t-314.5 -224q-89 -43 -141 -98.5t-52 -108.5q0 -49 31 -76.5t82 -27.5q77 0 135 49v-117q-68 -47 -164 -47q-88 0 -146.5 55.5t-58.5 134.5q0 62 38.5 119t105.5 94q-168 1 -305 86.5t-214 234.5
t-77 331v807h164v-807q0 -212 125 -354t311 -142z" />
    <glyph glyph-name="uogonek" unicode="&#x173;" horiz-adv-x="1308" 
d="M985 518v506h164v-1024q-92 -43 -145.5 -99t-53.5 -110q0 -49 31 -76.5t82 -27.5q77 0 135 49v-117q-68 -47 -164 -47q-88 0 -146.5 55.5t-58.5 134.5q0 75 53 139t144 99h-18l-21 203q-61 -109 -161.5 -171.5t-223.5 -62.5q-128 0 -229.5 70.5t-158 195.5t-56.5 283v506
h164v-506q0 -177 90 -285t239 -108t241.5 109t92.5 284z" />
    <glyph glyph-name="Wcircumflex" unicode="&#x174;" horiz-adv-x="1888" 
d="M883 1843h129l221 -284h-119l-168 206l-174 -206h-121zM0 1434h170l344 -1147l344 1147h172l344 -1149l344 1149h170l-430 -1434h-170l-344 1147l-344 -1147h-172z" />
    <glyph glyph-name="wcircumflex" unicode="&#x175;" horiz-adv-x="1673" 
d="M778 1434h129l221 -285h-118l-168 207l-174 -207h-121zM0 1024h170l291 -797l291 797h170l290 -797l295 797h166l-377 -1024h-168l-292 795l-293 -795h-166z" />
    <glyph glyph-name="Ycircumflex" unicode="&#x176;" horiz-adv-x="1230" 
d="M559 1843h129l221 -284h-118l-168 206l-174 -206h-121zM532 553l-540 881h188l436 -736l437 736h186l-543 -881v-553h-164v553z" />
    <glyph glyph-name="ycircumflex" unicode="&#x177;" horiz-adv-x="1132" 
d="M506 1434h129l221 -285h-119l-168 207l-174 -207h-121zM645 -403h-172l139 403h-264l-348 1024h168l293 -854h209l293 854h165z" />
    <glyph glyph-name="Ydieresis" unicode="&#x178;" horiz-adv-x="1218" 
d="M307 1786q0 40 24.5 64t65.5 24q40 0 64 -24t24 -64q0 -38 -24 -62t-64 -24q-41 0 -65.5 23.5t-24.5 62.5zM743 1786q0 40 25 64t66 24q40 0 64 -24t24 -64q0 -38 -24 -62t-64 -24q-41 0 -66 24t-25 62zM532 553l-540 881h188l436 -736l437 736h186l-543 -881v-553h-164
v553z" />
    <glyph glyph-name="Zacute" unicode="&#x179;" horiz-adv-x="1427" 
d="M645 1559l74 284h166l-115 -284h-125zM186 1270v164h1055v-131l-868 -1139h899v-164h-1114v131l850 1139h-822z" />
    <glyph glyph-name="zacute" unicode="&#x17a;" horiz-adv-x="1177" 
d="M520 1149l74 285h166l-115 -285h-125zM182 864v160h817v-131l-634 -731h661v-162h-868v131l639 733h-615z" />
    <glyph glyph-name="Zdotaccent" unicode="&#x17b;" horiz-adv-x="1427" 
d="M625 1786q0 40 24 64t64 24q41 0 65.5 -24t24.5 -64q0 -39 -24.5 -62.5t-65.5 -23.5q-40 0 -64 24t-24 62zM186 1270v164h1055v-131l-868 -1139h899v-164h-1114v131l850 1139h-822z" />
    <glyph glyph-name="zdotaccent" unicode="&#x17c;" horiz-adv-x="1153" 
d="M487 1376q0 40 24 64t64 24q41 0 66 -24t25 -64q0 -38 -25 -62t-66 -24q-40 0 -64 24t-24 62zM170 864v160h817v-131l-635 -731h662v-162h-869v131l639 733h-614z" />
    <glyph glyph-name="Zcaron" unicode="&#x17d;" horiz-adv-x="1427" 
d="M653 1559l-229 284h121l157 -186h31l154 186h117l-218 -284h-133zM186 1270v164h1055v-131l-868 -1139h899v-164h-1114v131l850 1139h-822z" />
    <glyph glyph-name="zcaron" unicode="&#x17e;" horiz-adv-x="1153" 
d="M514 1149l-229 285h121l157 -187h31l154 187h116l-217 -285h-133zM170 864v160h817v-131l-635 -731h662v-162h-869v131l639 733h-614z" />
    <glyph glyph-name="longs" unicode="&#x17f;" horiz-adv-x="706" 
d="M322 1024v-1024h-164v1024q0 212 125 326t356 114v-135q-317 0 -317 -305z" />
    <glyph glyph-name="florin" unicode="&#x192;" horiz-adv-x="804" 
d="M420 1024h315v-154h-315v-870q0 -214 -113 -327t-325 -113v135q138 0 206 75t68 230v870h-229v154h229q0 212 124.5 326t354.5 114v-135q-315 0 -315 -305z" />
    <glyph glyph-name="AEacute" unicode="&#x1fc;" horiz-adv-x="2308" 
d="M1556 1559l74 284h166l-115 -284h-125zM1190 0v391h-690l-322 -391h-207l1178 1434h1001v-154h-796v-483h764v-158h-764v-483h796v-156h-960zM623 541h567v690z" />
    <glyph glyph-name="aeacute" unicode="&#x1fd;" horiz-adv-x="2119" 
d="M1008 1149l73 285h166l-114 -285h-125zM1145 0h-141l-21 211q-62 -114 -167.5 -178t-235.5 -64q-139 0 -252 70.5t-177.5 194.5t-64.5 276q0 234 141.5 389.5t352.5 155.5q130 0 234.5 -63.5t166.5 -178.5l23 211h141v-109q146 140 360 140q234 0 382.5 -151.5
t148.5 -393.5q0 -7 -1 -22t-1 -23h-887q14 -159 113.5 -262t244.5 -103q105 0 190.5 51t137.5 140h168q-63 -150 -194 -236t-302 -86q-214 0 -360 140v-109zM1147 559h723q-14 162 -113.5 261.5t-251.5 99.5q-146 0 -245 -101t-113 -260zM250 512q0 -170 106 -281.5
t267 -111.5q158 0 258 109t100 284q0 174 -100 284.5t-258 110.5q-164 0 -268.5 -111t-104.5 -284z" />
    <glyph glyph-name="Oslashacute" unicode="&#x1fe;" horiz-adv-x="1572" 
d="M797 1559l73 284h166l-114 -284h-125zM88 715q0 213 91 384.5t251 268t358 96.5q158 0 283 -55l84 174h94l-100 -211q161 -95 252.5 -266.5t91.5 -390.5q0 -216 -90.5 -386.5t-251 -265t-363.5 -94.5q-148 0 -280 58l-96 -201h-101l117 244q-157 95 -248.5 265.5
t-91.5 379.5zM252 717q0 -163 65.5 -295t180.5 -209l506 1055q-96 41 -216 41q-115 0 -214.5 -44.5t-170 -123t-111 -188.5t-40.5 -236zM1079 1229l-504 -1059q98 -45 213 -45q239 0 390 165.5t151 426.5q0 170 -66 303t-184 209z" />
    <glyph glyph-name="uni0218" unicode="&#x218;" horiz-adv-x="1335" 
d="M1247 367q0 -170 -152.5 -284t-394.5 -114q-254 0 -425.5 121.5t-190.5 319.5h170q25 -136 145 -216.5t295 -80.5q169 0 279 73.5t110 186.5q0 74 -33.5 126t-89.5 80.5t-129.5 47t-154 31.5t-161 28.5t-154 43t-129.5 68.5t-89.5 112.5t-33.5 168.5q0 171 157 278
t396 107q232 0 390 -112.5t181 -294.5h-168q-25 117 -137.5 191.5t-265.5 74.5q-168 0 -279 -70t-111 -180q0 -66 33.5 -111.5t90 -70.5t129.5 -41t154 -29t161.5 -29t153.5 -46.5t129.5 -75.5t90 -122t33.5 -181zM586 -475l41 375h159l-79 -375h-121z" />
    <glyph glyph-name="uni0219" unicode="&#x219;" horiz-adv-x="1040" 
d="M958 272q0 -130 -113 -216.5t-290 -86.5q-199 0 -324 83t-143 237h156q17 -96 96.5 -145.5t216.5 -49.5q104 0 175 51t71 125q0 48 -23.5 82.5t-63 53.5t-90.5 32t-107.5 23t-113 21t-107.5 31t-90.5 48.5t-63 77.5t-23.5 115q0 127 112 214t287 87q189 0 302.5 -86
t125.5 -238h-151q-6 90 -77 145.5t-202 55.5q-99 0 -169 -51.5t-70 -124.5q0 -47 23 -79t62.5 -50t90.5 -29.5t107 -20t112.5 -19.5t107.5 -31.5t90.5 -50.5t62.5 -82t23 -122zM432 -475l41 375h160l-80 -375h-121z" />
    <glyph glyph-name="uni021A" unicode="&#x21a;" horiz-adv-x="1261" 
d="M549 0v1280h-498v154h1157v-154h-495v-1280h-164zM512 -475l41 375h160l-80 -375h-121z" />
    <glyph glyph-name="uni021B" unicode="&#x21b;" horiz-adv-x="868" 
d="M463 870v-391q0 -186 74.5 -270t236.5 -84v-156q-248 0 -361.5 126t-113.5 384v391h-215v70l311 313h68v-229h311v-154h-311zM457 -475l41 375h159l-79 -375h-121z" />
    <glyph glyph-name="uni0233" unicode="&#x233;" horiz-adv-x="1132" 
d="M240 1202v129h657v-129h-657zM645 -403h-172l139 403h-264l-348 1024h168l293 -854h209l293 854h165z" />
    <glyph glyph-name="uni0237" unicode="&#x237;" horiz-adv-x="497" 
d="M168 0v1024h164v-1024q0 -238 -96.5 -339t-317.5 -101v135q136 0 193 68t57 237z" />
    <glyph glyph-name="circumflex" unicode="&#x2c6;" horiz-adv-x="620" 
d="M252 1434h129l221 -285h-119l-168 207l-174 -207h-121z" />
    <glyph glyph-name="ring" unicode="&#x2da;" horiz-adv-x="612" 
d="M84 1331q0 78 62 128t159 50q96 0 157.5 -49.5t61.5 -128.5q0 -82 -61.5 -132t-157.5 -50q-93 0 -157 52t-64 130zM180 1333q0 -45 36 -74.5t89 -29.5q58 0 90.5 28t32.5 76q0 44 -34 71.5t-89 27.5q-53 0 -89 -27.5t-36 -71.5z" />
    <glyph glyph-name="tilde" unicode="&#x2dc;" horiz-adv-x="915" 
d="M256 1434q33 0 69.5 -16t70 -39t67.5 -46.5t75 -41.5t80 -21q65 -4 92 34.5t27 129.5h105q0 -287 -180 -287q-49 -2 -99 21.5t-85 53.5t-82 57t-91 30q-53 4 -81.5 -38.5t-30.5 -125.5h-107q0 135 45.5 212t124.5 77z" />
    <glyph glyph-name="uni0400" unicode="&#x400;" horiz-adv-x="1273" 
d="M762 1559h-125l-117 284h166zM158 0v1434h960v-154h-796v-483h763v-158h-763v-483h796v-156h-960z" />
    <glyph glyph-name="uni0401" unicode="&#x401;" horiz-adv-x="1273" 
d="M334 1786q0 40 24.5 64t65.5 24q40 0 64 -24t24 -64q0 -38 -24 -62t-64 -24q-41 0 -65.5 23.5t-24.5 62.5zM770 1786q0 40 24.5 64t65.5 24q40 0 64 -24t24 -64q0 -38 -24 -62t-64 -24q-41 0 -65.5 23.5t-24.5 62.5zM158 0v1434h960v-154h-796v-483h763v-158h-763v-483
h796v-156h-960z" />
    <glyph glyph-name="uni0402" unicode="&#x402;" horiz-adv-x="1626" 
d="M1376 412q0 325 -348 325h-317v-737h-164v1280h-494v154h1157v-154h-499v-395h317q248 0 380 -123.5t132 -347.5q0 -225 -133 -335t-406 -110v137q375 0 375 306z" />
    <glyph glyph-name="uni0403" unicode="&#x403;" horiz-adv-x="1130" 
d="M530 1559l74 284h166l-115 -284h-125zM158 1434h884v-148h-720v-1286h-164v1434z" />
    <glyph glyph-name="uni0404" unicode="&#x404;" horiz-adv-x="1540" 
d="M1032 797v-158h-776q23 -226 169 -370t359 -144q168 0 301.5 91.5t196.5 248.5h172q-75 -230 -254 -363t-416 -133q-148 0 -277.5 57t-221 156t-144.5 237t-53 296q0 213 89.5 384.5t248.5 268t358 96.5q236 0 415 -132.5t257 -362.5h-176q-65 157 -197 248.5t-299 91.5
q-215 0 -360 -142t-168 -370h776z" />
    <glyph glyph-name="uni0405" unicode="&#x405;" horiz-adv-x="1335" 
d="M1247 367q0 -170 -152.5 -284t-394.5 -114q-254 0 -425.5 121.5t-190.5 319.5h170q25 -136 145 -216.5t295 -80.5q169 0 279 73.5t110 186.5q0 74 -33.5 126t-89.5 80.5t-129.5 47t-154 31.5t-161 28.5t-154 43t-129.5 68.5t-89.5 112.5t-33.5 168.5q0 171 157 278
t396 107q232 0 390 -112.5t181 -294.5h-168q-25 117 -137.5 191.5t-265.5 74.5q-168 0 -279 -70t-111 -180q0 -66 33.5 -111.5t90 -70.5t129.5 -41t154 -29t161.5 -29t153.5 -46.5t129.5 -75.5t90 -122t33.5 -181z" />
    <glyph glyph-name="uni0406" unicode="&#x406;" 
d="M319 1434v-1434h-163v1434h163z" />
    <glyph glyph-name="uni0407" unicode="&#x407;" 
d="M-76 1786q0 40 24.5 64t65.5 24q40 0 64 -24t24 -64q0 -38 -24 -62t-64 -24q-41 0 -65.5 23.5t-24.5 62.5zM360 1786q0 40 25 64t66 24q40 0 64 -24t24 -64q0 -38 -24 -62t-64 -24q-41 0 -66 24t-25 62zM319 1434v-1434h-163v1434h163z" />
    <glyph glyph-name="uni0408" unicode="&#x408;" horiz-adv-x="1359" 
d="M1038 553v881h164v-881q0 -162 -76 -297.5t-202 -211.5t-271 -75q-218 1 -373.5 140t-195.5 368h164q36 -160 145 -256t260 -96q159 0 272 124.5t113 303.5z" />
    <glyph glyph-name="uni0409" unicode="&#x409;" horiz-adv-x="2457" 
d="M303 328l111 1106h991v-457h424q151 0 276.5 -64.5t197 -177t71.5 -248.5q0 -213 -152 -350t-393 -137h-588v1280h-676l-98 -969q-19 -182 -107 -262t-272 -80v150q105 0 155.5 48.5t59.5 160.5zM2210 487q0 149 -108.5 246.5t-272.5 97.5h-424v-681h424
q170 0 275.5 93.5t105.5 243.5z" />
    <glyph glyph-name="uni040A" unicode="&#x40a;" horiz-adv-x="2390" 
d="M158 0v1434h164v-555h849v555h164v-543h426q155 0 279.5 -56.5t195 -158t70.5 -227.5q0 -203 -149.5 -326t-395.5 -123h-590v723h-849v-723h-164zM2142 449q0 132 -105.5 214t-275.5 82h-426v-595h426q177 0 279 80.5t102 218.5z" />
    <glyph glyph-name="uni040B" unicode="&#x40b;" horiz-adv-x="1693" 
d="M1370 0v399q0 167 -91.5 252.5t-262.5 85.5h-305v-737h-164v1280h-494v154h1157v-154h-499v-395h305q245 0 381.5 -126t136.5 -360v-399h-164z" />
    <glyph glyph-name="uni040C" unicode="&#x40c;" horiz-adv-x="1314" 
d="M588 1559l74 284h165l-114 -284h-125zM322 643v-643h-164v1434h164v-643h233l508 643h197l-574 -717l629 -717h-203l-559 643h-231z" />
    <glyph glyph-name="uni040D" unicode="&#x40d;" horiz-adv-x="1542" 
d="M856 1559h-125l-117 284h166zM1386 0h-163v1139l-936 -1139h-129v1434h164v-1137l935 1137h129v-1434z" />
    <glyph glyph-name="uni040E" unicode="&#x40e;" horiz-adv-x="1132" 
d="M567 1559q-91 0 -170.5 34.5t-129.5 100.5t-50 149h131q0 -71 64 -123.5t155 -52.5q93 0 156 51.5t63 124.5h129q0 -120 -99.5 -202t-248.5 -82zM643 0h-168l139 408h-262l-352 1026h170l291 -854h213l291 854h168z" />
    <glyph glyph-name="uni040F" unicode="&#x40f;" horiz-adv-x="1538" 
d="M158 0v1434h164v-1278h899v1278h163v-1434h-536v-340h-152v340h-538z" />
    <glyph glyph-name="uni0410" unicode="&#x410;" horiz-adv-x="1443" 
d="M-29 0l662 1434h178l659 -1434h-174l-180 391h-786l-180 -391h-179zM399 541h648l-324 700z" />
    <glyph glyph-name="uni0411" unicode="&#x411;" horiz-adv-x="1376" 
d="M158 1434h999v-148h-835v-379h438q144 0 266 -58.5t194 -163.5t72 -232q0 -202 -150.5 -327.5t-381.5 -125.5h-602v1434zM1128 453q0 129 -105 218t-263 89h-438v-610h438q165 0 266.5 84.5t101.5 218.5z" />
    <glyph glyph-name="uni0412" unicode="&#x412;" horiz-adv-x="1392" 
d="M158 0v1434h587q223 0 360.5 -102t137.5 -269q0 -112 -73.5 -199.5t-198.5 -132.5q160 -37 249 -127t89 -219q0 -170 -159.5 -277.5t-404.5 -107.5h-587zM1085 1044q0 109 -94 178.5t-246 69.5h-423v-497h423q140 0 240 72.5t100 176.5zM1143 403q0 117 -106.5 184.5
t-291.5 67.5h-423v-512h423q176 0 287 71.5t111 188.5z" />
    <glyph glyph-name="uni0413" unicode="&#x413;" horiz-adv-x="1130" 
d="M158 1434h884v-148h-720v-1286h-164v1434z" />
    <glyph glyph-name="uni0414" unicode="&#x414;" horiz-adv-x="1513" 
d="M53 156h164q189 337 189 727v551h866v-1278h190v-496h-164v340h-1081v-340h-164v496zM385 156h723v1124h-539v-397q0 -405 -184 -727z" />
    <glyph glyph-name="uni0415" unicode="&#x415;" horiz-adv-x="1273" 
d="M158 0v1434h960v-154h-796v-483h763v-158h-763v-483h796v-156h-960z" />
    <glyph glyph-name="uni0416" unicode="&#x416;" horiz-adv-x="2463" 
d="M1317 643v-643h-166v643h-231l-560 -643h-202l628 717l-573 717h197l508 -643h233v643h166v-643h233l508 643h197l-574 -717l629 -717h-203l-559 643h-231z" />
    <glyph glyph-name="uni0417" unicode="&#x417;" horiz-adv-x="1400" 
d="M715 -31q-249 0 -413.5 147.5t-164.5 372.5h164q0 -163 117 -266.5t303 -103.5q185 0 293 76t108 204q0 133 -104 204t-301 71h-135v131h135q193 0 279.5 61.5t86.5 196.5q0 117 -99.5 185.5t-270.5 68.5q-158 0 -264.5 -95t-106.5 -233h-164q0 132 70.5 241t193 171.5
t269.5 62.5q254 0 400 -102.5t146 -282.5q0 -253 -235 -336q134 -46 205 -138.5t71 -223.5q0 -186 -159.5 -299t-423.5 -113z" />
    <glyph glyph-name="uni0418" unicode="&#x418;" horiz-adv-x="1542" 
d="M1386 0h-163v1139l-936 -1139h-129v1434h164v-1137l935 1137h129v-1434z" />
    <glyph glyph-name="uni0419" unicode="&#x419;" horiz-adv-x="1542" 
d="M772 1559q-91 0 -170.5 34.5t-129.5 100.5t-50 149h131q0 -71 64 -123.5t155 -52.5q93 0 156 51.5t63 124.5h129q0 -120 -99.5 -202t-248.5 -82zM1386 0h-163v1139l-936 -1139h-129v1434h164v-1137l935 1137h129v-1434z" />
    <glyph glyph-name="uni041A" unicode="&#x41a;" horiz-adv-x="1314" 
d="M322 643v-643h-164v1434h164v-643h233l508 643h197l-574 -717l629 -717h-203l-559 643h-231z" />
    <glyph glyph-name="uni041B" unicode="&#x41b;" horiz-adv-x="1585" 
d="M313 463l101 971h1011v-1434h-163v1280h-697l-82 -807q-28 -276 -116 -390t-279 -114v150q107 0 157.5 77.5t67.5 266.5z" />
    <glyph glyph-name="uni041C" unicode="&#x41c;" horiz-adv-x="1767" 
d="M319 1155v-1155h-163v1434h206l525 -1254l522 1254h205v-1434h-164v1151l-489 -1151h-150z" />
    <glyph glyph-name="uni041D" unicode="&#x41d;" horiz-adv-x="1495" 
d="M158 0v1434h164v-637h849v637h164v-1434h-164v639h-849v-639h-164z" />
    <glyph glyph-name="uni041E" unicode="&#x41e;" horiz-adv-x="1572" 
d="M88 715q0 213 91 384.5t251 268t358 96.5q203 0 363.5 -94.5t251 -265.5t90.5 -389q0 -216 -90.5 -386.5t-251 -265t-363.5 -94.5q-147 0 -277 57t-223 156t-146.5 237.5t-53.5 295.5zM252 717q0 -168 69 -303.5t192 -212t275 -76.5q239 0 390 165.5t151 426.5
q0 263 -150 427.5t-391 164.5q-115 0 -214.5 -44.5t-170 -123t-111 -188.5t-40.5 -236z" />
    <glyph glyph-name="uni041F" unicode="&#x41f;" horiz-adv-x="1544" 
d="M158 1434h1228v-1434h-163v1280h-901v-1280h-164v1434z" />
    <glyph glyph-name="uni0420" unicode="&#x420;" horiz-adv-x="1380" 
d="M158 0v1434h590q229 0 386.5 -139t157.5 -349q0 -133 -75.5 -246t-200.5 -178t-268 -65h-426v-457h-164zM1128 946q0 145 -108 239.5t-272 94.5h-426v-670h426q159 0 269.5 97.5t110.5 238.5z" />
    <glyph glyph-name="uni0421" unicode="&#x421;" horiz-adv-x="1540" 
d="M252 717q0 -168 68.5 -303.5t190.5 -212t273 -76.5q171 0 303 91t195 249h176q-77 -230 -255.5 -363t-414.5 -133q-148 0 -278 57t-222.5 156t-146 237.5t-53.5 295.5q0 213 90.5 384.5t250.5 268t359 96.5q235 0 414 -133t256 -362h-178q-62 157 -194 248.5t-302 91.5
q-231 0 -381.5 -167.5t-150.5 -424.5z" />
    <glyph glyph-name="uni0422" unicode="&#x422;" horiz-adv-x="1261" 
d="M549 0v1280h-498v154h1157v-154h-495v-1280h-164z" />
    <glyph glyph-name="uni0423" unicode="&#x423;" horiz-adv-x="1132" 
d="M643 0h-168l139 408h-262l-352 1026h170l291 -854h213l291 854h168z" />
    <glyph glyph-name="uni0424" unicode="&#x424;" horiz-adv-x="1427" 
d="M88 715q0 242 161.5 406.5t414.5 181.5v161h102v-161q255 -15 414 -177t159 -411q0 -244 -159.5 -406.5t-413.5 -177.5v-162h-102v162q-251 17 -413.5 181t-162.5 403zM766 1151v-864q184 15 297 132.5t113 297.5q0 181 -113 300t-297 134zM252 717q0 -173 115 -293
t297 -137v864q-182 -17 -297 -137.5t-115 -296.5z" />
    <glyph glyph-name="uni0425" unicode="&#x425;" horiz-adv-x="1331" 
d="M764 729l565 -729h-203l-462 598l-465 -598h-199l563 725l-549 709h201l451 -578l448 578h197z" />
    <glyph glyph-name="uni0426" unicode="&#x426;" horiz-adv-x="1654" 
d="M158 0v1434h164v-1278h870v1278h164v-1278h211v-496h-154v340h-1255z" />
    <glyph glyph-name="uni0427" unicode="&#x427;" horiz-adv-x="1339" 
d="M1016 928v506h164v-1434h-164v610q-62 -104 -162 -161.5t-225 -57.5q-212 0 -341.5 147t-129.5 390v506h164v-506q0 -172 96 -278.5t250 -106.5q153 0 250.5 108t97.5 277z" />
    <glyph glyph-name="uni0428" unicode="&#x428;" horiz-adv-x="2332" 
d="M158 0v1434h164v-1278h763v1278h164v-1278h764v1278h164v-1434h-2019z" />
    <glyph glyph-name="uni0429" unicode="&#x429;" horiz-adv-x="2473" 
d="M158 0v1434h164v-1278h763v1278h164v-1278h764v1278h164v-1278h209v-496h-152v340h-2076z" />
    <glyph glyph-name="uni042A" unicode="&#x42a;" horiz-adv-x="1572" 
d="M53 1280v154h465v-457h426q150 0 275.5 -64.5t197.5 -177t72 -248.5q0 -213 -153 -350t-392 -137h-590v1280h-301zM1325 487q0 149 -108.5 246.5t-272.5 97.5h-426v-681h426q170 0 275.5 93.5t105.5 243.5z" />
    <glyph glyph-name="uni042B" unicode="&#x42b;" horiz-adv-x="1845" 
d="M158 1434h164v-457h426q149 0 274 -64.5t197.5 -177t72.5 -248.5q0 -212 -153 -349.5t-391 -137.5h-590v1434zM1528 1434h164v-1434h-164v1434zM1128 487q0 148 -109 246t-271 98h-426v-681h426q169 0 274.5 94t105.5 243z" />
    <glyph glyph-name="uni042C" unicode="&#x42c;" horiz-adv-x="1376" 
d="M158 1434h164v-457h426q149 0 274 -64.5t197.5 -177t72.5 -248.5q0 -212 -153 -349.5t-391 -137.5h-590v1434zM1128 487q0 148 -109 246t-271 98h-426v-681h426q169 0 274.5 94t105.5 243z" />
    <glyph glyph-name="uni042D" unicode="&#x42d;" horiz-adv-x="1540" 
d="M506 797h782q-25 227 -171 369.5t-357 142.5q-171 0 -304.5 -92t-193.5 -248h-174q72 230 251 362.5t421 132.5q148 0 277 -56.5t221 -155.5t145 -238t53 -299q0 -157 -53.5 -295.5t-145.5 -237.5t-221 -156t-276 -57q-242 0 -421 133t-251 363h174q64 -158 195 -249
t303 -91q210 0 357.5 144.5t170.5 369.5h-782v158z" />
    <glyph glyph-name="uni042E" unicode="&#x42e;" horiz-adv-x="2142" 
d="M158 0l2 1434h164v-639h333q17 194 111 346t247 237.5t339 85.5q203 0 363.5 -94.5t250.5 -265.5t90 -389q0 -216 -90 -386.5t-250.5 -265t-363.5 -94.5q-280 0 -476 189.5t-221 480.5h-333l-2 -639h-164zM817 717q0 -168 69.5 -303.5t192.5 -212t275 -76.5
q239 0 389.5 165.5t150.5 426.5q0 263 -149.5 427.5t-390.5 164.5q-153 0 -276 -76t-192 -211.5t-69 -304.5z" />
    <glyph glyph-name="uni042F" unicode="&#x42f;" horiz-adv-x="1347" 
d="M193 0h-193l371 504q-142 62 -230 180.5t-88 261.5q0 140 73 252t198 174t276 62h594v-1434h-164v457h-430q-26 0 -72 4zM217 946q0 -139 111.5 -236.5t271.5 -97.5h430v670h-430q-166 0 -274.5 -95t-108.5 -241z" />
    <glyph glyph-name="uni0430" unicode="&#x430;" horiz-adv-x="1300" 
d="M1145 0h-141l-21 211q-62 -114 -167.5 -178t-235.5 -64q-139 0 -252 70.5t-177.5 194.5t-64.5 276q0 234 141.5 389.5t352.5 155.5q130 0 234.5 -63.5t166.5 -178.5l23 211h141v-1024zM250 512q0 -170 106 -281.5t267 -111.5q158 0 258 109t100 284q0 174 -100 284.5
t-258 110.5q-164 0 -268.5 -111t-104.5 -284z" />
    <glyph glyph-name="uni0431" unicode="&#x431;" horiz-adv-x="1204" 
d="M88 498q0 212 19 353t56 228.5t101 157.5q53 59 120.5 91t135.5 44t138 23t150.5 42t149.5 87l74 -117q-72 -60 -150 -94t-141.5 -44.5t-124 -20t-117.5 -35t-102 -74.5q-109 -123 -133 -373q62 97 161.5 154t217.5 57q205 0 341 -139t136 -340q0 -237 -138.5 -383
t-379.5 -146q-155 0 -273.5 71t-179.5 190.5t-61 267.5zM602 125q168 0 261 104.5t93 268.5q0 144 -100 244t-254 100q-151 0 -250.5 -102.5t-99.5 -241.5q0 -164 92 -268.5t258 -104.5z" />
    <glyph glyph-name="uni0432" unicode="&#x432;" horiz-adv-x="1161" 
d="M158 0v1024h487q172 0 277.5 -72.5t105.5 -189.5q0 -79 -56 -143t-151 -97q120 -27 187 -91t67 -155q0 -123 -119 -199.5t-311 -76.5h-487zM881 743q0 75 -65 119.5t-171 44.5h-336v-334h336q99 0 167.5 49t68.5 121zM924 289q0 79 -75.5 126.5t-203.5 47.5h-336v-344
h336q126 0 202.5 46t76.5 124z" />
    <glyph glyph-name="uni0433" unicode="&#x433;" horiz-adv-x="1024" 
d="M158 1024h782v-147h-618v-877h-164v1024z" />
    <glyph glyph-name="uni0434" unicode="&#x434;" horiz-adv-x="1431" 
d="M88 143h154q116 219 116 496v385h795v-881h193v-409h-156v266h-950v-266h-152v409zM401 143h598v740h-487v-244q0 -279 -111 -496z" />
    <glyph glyph-name="uni0435" unicode="&#x435;" horiz-adv-x="1230" 
d="M1141 465h-887q14 -159 113.5 -262t244.5 -103q105 0 190.5 51t137.5 140h168q-63 -150 -194 -236t-302 -86q-225 0 -374.5 154.5t-149.5 386.5q0 235 148 390t376 155q234 0 382.5 -151.5t148.5 -393.5q0 -7 -1 -22t-1 -23zM254 559h723q-14 162 -113.5 261.5
t-251.5 99.5q-146 0 -245 -101t-113 -260z" />
    <glyph glyph-name="uni0436" unicode="&#x436;" horiz-adv-x="1660" 
d="M1219 512l442 -512h-193l-370 434h-187v-434h-163v434h-185l-373 -434h-190l442 512l-395 512h186l332 -438h183v438h163v-438h183l333 438h189z" />
    <glyph glyph-name="uni0437" unicode="&#x437;" horiz-adv-x="1140" 
d="M586 -31q-192 0 -320.5 104.5t-128.5 270.5h152q0 -113 84.5 -181.5t212.5 -68.5q131 0 212 52.5t81 138.5t-85 138t-223 52h-106v103h106q142 0 210.5 42.5t68.5 133.5q0 82 -71.5 128t-196.5 46q-113 0 -189 -64t-76 -159h-151q0 146 120 245t294 99q195 0 311.5 -77
t116.5 -202q0 -180 -183 -242q102 -36 156.5 -101.5t54.5 -158.5q0 -134 -124.5 -216.5t-325.5 -82.5z" />
    <glyph glyph-name="uni0438" unicode="&#x438;" horiz-adv-x="1333" 
d="M1178 0h-164v772l-719 -772h-137v1024h164v-768l720 768h136v-1024z" />
    <glyph glyph-name="uni0439" unicode="&#x439;" horiz-adv-x="1333" 
d="M672 1149q-91 0 -170.5 34.5t-129.5 101t-50 149.5h131q0 -71 64 -124t155 -53q93 0 156 52t63 125h129q0 -120 -99.5 -202.5t-248.5 -82.5zM1178 0h-164v772l-719 -772h-137v1024h164v-768l720 768h136v-1024z" />
    <glyph glyph-name="uni043A" unicode="&#x43a;" horiz-adv-x="1071" 
d="M322 434v-434h-164v1024h164v-438h182l334 438h184l-395 -512l444 -512h-192l-371 434h-186z" />
    <glyph glyph-name="uni043B" unicode="&#x43b;" horiz-adv-x="1421" 
d="M315 428l80 596h867v-1024h-164v870h-559l-60 -454q-28 -244 -117 -345.5t-274 -101.5v150q104 0 154.5 69t72.5 240z" />
    <glyph glyph-name="uni043C" unicode="&#x43c;" horiz-adv-x="1439" 
d="M309 778v-778h-151v1024h170l391 -799l393 799h168v-1024h-152v770l-362 -770h-94z" />
    <glyph glyph-name="uni043D" unicode="&#x43d;" horiz-adv-x="1343" 
d="M158 0v1024h164v-432h704v432h164v-1024h-164v434h-704v-434h-164z" />
    <glyph glyph-name="uni043E" unicode="&#x43e;" horiz-adv-x="1251" 
d="M88 510q0 234 154 389.5t385 155.5q156 0 280 -68t194 -193t70 -284q0 -238 -153.5 -389.5t-390.5 -151.5q-151 0 -274.5 70.5t-194 194.5t-70.5 276zM252 512q0 -167 107.5 -277t267.5 -110q170 0 275.5 107t105.5 280t-106 281t-275 108q-161 0 -268 -111t-107 -278z
" />
    <glyph glyph-name="uni043F" unicode="&#x43f;" horiz-adv-x="1280" 
d="M158 1024h995v-1024h-164v870h-667v-870h-164v1024z" />
    <glyph glyph-name="uni0440" unicode="&#x440;" horiz-adv-x="1300" 
d="M160 1024h141l21 -203q65 110 170 172t233 62q209 0 348 -154.5t139 -386.5q0 -155 -62.5 -279.5t-174 -195t-250.5 -70.5q-127 0 -232.5 61.5t-168.5 172.5v-613h-164v1434zM1049 512q0 171 -104 283t-263 112q-161 0 -259.5 -109.5t-98.5 -285.5q0 -173 100 -283
t258 -110q159 0 263 111t104 282z" />
    <glyph glyph-name="uni0441" unicode="&#x441;" horiz-adv-x="1234" 
d="M252 512q0 -170 106 -281.5t267 -111.5q126 0 222 65.5t136 175.5h170q-52 -179 -193 -285t-335 -106q-230 0 -383.5 154.5t-153.5 386.5q0 154 69.5 279t192.5 195.5t275 70.5q193 0 334 -105t192 -284h-170q-42 109 -137 175t-219 66q-161 0 -267 -113t-106 -282z" />
    <glyph glyph-name="uni0442" unicode="&#x442;" horiz-adv-x="1114" 
d="M475 0v870h-422v154h1010v-154h-424v-870h-164z" />
    <glyph glyph-name="uni0443" unicode="&#x443;" horiz-adv-x="1132" 
d="M645 -403h-172l139 403h-264l-348 1024h168l293 -854h209l293 854h165z" />
    <glyph glyph-name="uni0444" unicode="&#x444;" horiz-adv-x="1372" 
d="M88 535q0 239 156 400t401 175v324h84v-324q246 -14 401.5 -173t155.5 -402q0 -241 -156 -400.5t-401 -173.5v-323h-84v323q-161 9 -288 85.5t-198 204.5t-71 284zM252 537q0 -170 110.5 -287t282.5 -131v833q-172 -14 -282.5 -129.5t-110.5 -285.5zM729 952v-833
q177 13 285 128t108 290t-108 289t-285 126z" />
    <glyph glyph-name="uni0445" unicode="&#x445;" horiz-adv-x="1017" 
d="M606 518l412 -518h-195l-313 395l-313 -395h-197l412 518l-404 506h197l305 -383l303 383h195z" />
    <glyph glyph-name="uni0446" unicode="&#x446;" horiz-adv-x="1484" 
d="M158 0v1024h164v-868h720v868h164v-868h195v-496h-152v340h-1091z" />
    <glyph glyph-name="uni0447" unicode="&#x447;" horiz-adv-x="1273" 
d="M950 778v246h164v-1024h-164v451q-58 -100 -149 -155.5t-203 -55.5q-197 0 -318.5 147.5t-121.5 390.5v246h164v-246q0 -172 87 -278.5t228 -106.5q138 0 225.5 108t87.5 277z" />
    <glyph glyph-name="uni0448" unicode="&#x448;" horiz-adv-x="2015" 
d="M158 0v1024h164v-868h604v868h164v-868h608v868h164v-1024h-1704z" />
    <glyph glyph-name="uni0449" unicode="&#x449;" horiz-adv-x="2138" 
d="M158 0v1024h164v-868h604v868h164v-868h608v868h164v-868h192v-496h-151v340h-1745z" />
    <glyph glyph-name="uni044A" unicode="&#x44a;" horiz-adv-x="1447" 
d="M53 870v154h465v-274h340q234 0 368 -101t134 -274q0 -181 -128.5 -278t-373.5 -97h-504v870h-301zM1196 375q0 113 -90 177t-248 64h-340v-485h340q164 0 251 63.5t87 180.5z" />
    <glyph glyph-name="uni044B" unicode="&#x44b;" horiz-adv-x="1705" 
d="M158 1024h164v-274h342q231 0 366 -101.5t135 -273.5q0 -180 -130 -277.5t-371 -97.5h-506v1024zM1384 1024h164v-1024h-164v1024zM1001 375q0 112 -90.5 176.5t-246.5 64.5h-342v-485h342q161 0 249 63.5t88 180.5z" />
    <glyph glyph-name="uni044C" unicode="&#x44c;" horiz-adv-x="1249" 
d="M158 1024h164v-274h342q231 0 366 -101.5t135 -273.5q0 -180 -130 -277.5t-371 -97.5h-506v1024zM1001 375q0 112 -90.5 176.5t-246.5 64.5h-342v-485h342q161 0 249 63.5t88 180.5z" />
    <glyph glyph-name="uni044D" unicode="&#x44d;" horiz-adv-x="1234" 
d="M426 553h557q-12 155 -114 254.5t-253 99.5q-124 0 -219 -66t-139 -175h-170q50 178 191.5 283.5t334.5 105.5q233 0 384 -155t151 -390q0 -232 -152 -386.5t-383 -154.5q-194 0 -337 106.5t-189 284.5h168q42 -110 137.5 -175.5t220.5 -65.5q151 0 253 97.5t116 250.5
h-557v86z" />
    <glyph glyph-name="uni044E" unicode="&#x44e;" horiz-adv-x="1802" 
d="M158 0l2 1024h164v-434h307q26 205 174.5 335t361.5 130q242 0 394.5 -151.5t152.5 -393.5q0 -239 -152.5 -390t-394.5 -151q-211 0 -361.5 131t-176.5 334h-307v-434h-164zM788 512q0 -167 108.5 -277t270.5 -110q172 0 277.5 107t105.5 280q0 174 -106 281.5
t-277 107.5q-163 0 -271 -111t-108 -278z" />
    <glyph glyph-name="uni044F" unicode="&#x44f;" horiz-adv-x="1105" 
d="M188 0h-188l297 340q-121 41 -190.5 125.5t-69.5 202.5q0 162 132 259t341 97h436v-1024h-151v307h-285q-24 0 -70 4zM195 668q0 -107 84 -167.5t231 -60.5h285v449h-285q-145 0 -230 -59.5t-85 -161.5z" />
    <glyph glyph-name="uni0450" unicode="&#x450;" horiz-adv-x="1230" 
d="M682 1149h-125l-117 285h166zM1141 465h-887q14 -159 113.5 -262t244.5 -103q105 0 190.5 51t137.5 140h168q-63 -150 -194 -236t-302 -86q-225 0 -374.5 154.5t-149.5 386.5q0 235 148 390t376 155q234 0 382.5 -151.5t148.5 -393.5q0 -7 -1 -22t-1 -23zM254 559h723
q-14 162 -113.5 261.5t-251.5 99.5q-146 0 -245 -101t-113 -260z" />
    <glyph glyph-name="uni0451" unicode="&#x451;" horiz-adv-x="1230" 
d="M309 1376q0 40 24.5 64t65.5 24q40 0 64 -24t24 -64q0 -38 -24 -62t-64 -24q-41 0 -65.5 23.5t-24.5 62.5zM745 1376q0 40 25 64t66 24q40 0 64 -24t24 -64q0 -38 -24 -62t-64 -24q-41 0 -66 24t-25 62zM1141 465h-887q14 -159 113.5 -262t244.5 -103q105 0 190.5 51
t137.5 140h168q-63 -150 -194 -236t-302 -86q-225 0 -374.5 154.5t-149.5 386.5q0 235 148 390t376 155q234 0 382.5 -151.5t148.5 -393.5q0 -7 -1 -22t-1 -23zM254 559h723q-14 162 -113.5 261.5t-251.5 99.5q-146 0 -245 -101t-113 -260z" />
    <glyph glyph-name="uni0452" unicode="&#x452;" horiz-adv-x="1380" 
d="M1059 0h-2v494q0 185 -90 296t-240 111q-148 0 -240 -113t-92 -294v-494h-164v1176h-192v96h192v162h164v-162h314v-96h-314v-355q61 110 160 172t221 62q196 0 320.5 -156.5t124.5 -404.5v-494h2q0 -226 -112 -333t-353 -107v139q158 0 229.5 72t71.5 229z" />
    <glyph glyph-name="uni0453" unicode="&#x453;" horiz-adv-x="1024" 
d="M479 1149l74 285h166l-115 -285h-125zM158 1024h782v-147h-618v-877h-164v1024z" />
    <glyph glyph-name="uni0454" unicode="&#x454;" horiz-adv-x="1234" 
d="M811 553v-86h-557q14 -153 116 -250.5t253 -97.5q125 0 220.5 65.5t137.5 175.5h168q-47 -178 -189.5 -284.5t-336.5 -106.5q-231 0 -383 154.5t-152 386.5q0 235 151 390t384 155q192 0 333 -105.5t191 -283.5h-168q-44 109 -139 175t-219 66q-150 0 -252.5 -99.5
t-114.5 -254.5h557z" />
    <glyph glyph-name="uni0455" unicode="&#x455;" horiz-adv-x="1040" 
d="M958 272q0 -130 -113 -216.5t-290 -86.5q-199 0 -324 83t-143 237h156q17 -96 96.5 -145.5t216.5 -49.5q104 0 175 51t71 125q0 48 -23.5 82.5t-63 53.5t-90.5 32t-107.5 23t-113 21t-107.5 31t-90.5 48.5t-63 77.5t-23.5 115q0 127 112 214t287 87q189 0 302.5 -86
t125.5 -238h-151q-6 90 -77 145.5t-202 55.5q-99 0 -169 -51.5t-70 -124.5q0 -47 23 -79t62.5 -50t90.5 -29.5t107 -20t112.5 -19.5t107.5 -31.5t90.5 -50.5t62.5 -82t23 -122z" />
    <glyph glyph-name="uni0456" unicode="&#x456;" horiz-adv-x="481" 
d="M154 1376q0 40 24 64t62 24q40 0 64 -24t24 -64q0 -38 -24 -62t-64 -24q-38 0 -62 24t-24 62zM322 0h-164v1024h164v-1024z" />
    <glyph glyph-name="uni0457" unicode="&#x457;" 
d="M-70 1376q0 40 24.5 64t65.5 24q40 0 64.5 -24t24.5 -64q0 -38 -24.5 -62t-64.5 -24q-41 0 -65.5 23.5t-24.5 62.5zM367 1376q0 40 24.5 64t65.5 24q40 0 64 -24t24 -64q0 -38 -24 -62t-64 -24q-41 0 -65.5 23.5t-24.5 62.5zM322 1024v-1024h-164v1024h164z" />
    <glyph glyph-name="uni0458" unicode="&#x458;" horiz-adv-x="501" 
d="M162 1378q0 38 24 62t64 24q37 0 60.5 -24t23.5 -62t-23.5 -63t-60.5 -25q-39 0 -63.5 24.5t-24.5 63.5zM168 0v1024h164v-1024q0 -238 -96.5 -339t-317.5 -101v135q136 0 193 68t57 237z" />
    <glyph glyph-name="uni0459" unicode="&#x459;" horiz-adv-x="2074" 
d="M315 428l80 596h785v-274h309q231 0 366.5 -101.5t135.5 -273.5q0 -180 -129.5 -277.5t-372.5 -97.5h-473v870h-477l-60 -454q-28 -244 -117 -345.5t-274 -101.5v150q104 0 154.5 69t72.5 240zM1827 375q0 112 -91 176.5t-247 64.5h-309v-485h309q163 0 250.5 63.5
t87.5 180.5z" />
    <glyph glyph-name="uni045A" unicode="&#x45a;" horiz-adv-x="2086" 
d="M158 0v1024h164v-356h692v356h164v-348h338q231 0 359 -87.5t128 -248.5q0 -169 -122.5 -254.5t-364.5 -85.5h-502v510h-692v-510h-164zM1839 340q0 97 -84.5 152t-238.5 55h-338v-416h338q323 0 323 209z" />
    <glyph glyph-name="uni045B" unicode="&#x45b;" horiz-adv-x="1380" 
d="M39 1176v96h192v162h164v-162h314v-96h-314v-355q61 110 160 172t221 62q196 0 320.5 -156.5t124.5 -404.5v-494h-164v494q0 185 -90 296t-240 111q-148 0 -240 -113t-92 -294v-494h-164v1176h-192z" />
    <glyph glyph-name="uni045C" unicode="&#x45c;" horiz-adv-x="1071" 
d="M489 1149l74 285h166l-115 -285h-125zM322 434v-434h-164v1024h164v-438h182l334 438h184l-395 -512l444 -512h-192l-371 434h-186z" />
    <glyph glyph-name="uni045D" unicode="&#x45d;" horiz-adv-x="1333" 
d="M752 1149h-125l-117 285h166zM1178 0h-164v772l-719 -772h-137v1024h164v-768l720 768h136v-1024z" />
    <glyph glyph-name="uni045E" unicode="&#x45e;" horiz-adv-x="1132" 
d="M565 1149q-91 0 -170.5 34.5t-129.5 101t-50 149.5h131q0 -71 64 -124t155 -53q93 0 156 52t63 125h129q0 -120 -99.5 -202.5t-248.5 -82.5zM645 -403h-172l139 403h-264l-348 1024h168l293 -854h209l293 854h165z" />
    <glyph glyph-name="uni045F" unicode="&#x45f;" horiz-adv-x="1353" 
d="M158 0v1024h164v-868h712v868h164v-1024h-444v-340h-152v340h-444z" />
    <glyph glyph-name="uni0490" unicode="&#x490;" horiz-adv-x="1130" 
d="M158 1434h731v319h153v-467h-720v-1286h-164v1434z" />
    <glyph glyph-name="uni0491" unicode="&#x491;" horiz-adv-x="1024" 
d="M158 1024h630v319h152v-466h-618v-877h-164v1024z" />
    <glyph glyph-name="uni04D4" unicode="&#x4d4;" horiz-adv-x="2308" 
d="M1190 0v391h-690l-322 -391h-207l1178 1434h1001v-154h-796v-483h764v-158h-764v-483h796v-156h-960zM623 541h567v690z" />
    <glyph glyph-name="uni04D5" unicode="&#x4d5;" horiz-adv-x="2123" 
d="M1145 0h-141l-21 211q-62 -114 -167.5 -178t-235.5 -64q-139 0 -252 70.5t-177.5 194.5t-64.5 276q0 234 141.5 389.5t352.5 155.5q130 0 234.5 -63.5t166.5 -178.5l23 211h141v-106q145 139 360 139q234 0 382.5 -151.5t148.5 -393.5q0 -7 -1 -22t-1 -23h-887
q14 -159 113.5 -262t244.5 -103q105 0 190.5 51t137.5 140h168q-63 -150 -194 -236t-302 -86q-214 0 -360 140v-111zM1147 561h723q-14 162 -113.5 261.5t-251.5 99.5q-146 0 -245 -101t-113 -260zM250 512q0 -170 106 -281.5t267 -111.5q158 0 258 109t100 284
q0 174 -100 284.5t-258 110.5q-164 0 -268.5 -111t-104.5 -284z" />
    <glyph glyph-name="Wgrave" unicode="&#x1e80;" horiz-adv-x="1888" 
d="M1004 1559h-125l-117 284h166zM0 1434h170l344 -1147l344 1147h172l344 -1149l344 1149h170l-430 -1434h-170l-344 1147l-344 -1147h-172z" />
    <glyph glyph-name="wgrave" unicode="&#x1e81;" horiz-adv-x="1673" 
d="M899 1149h-125l-117 285h166zM0 1024h170l291 -797l291 797h170l290 -797l295 797h166l-377 -1024h-168l-292 795l-293 -795h-166z" />
    <glyph glyph-name="Wacute" unicode="&#x1e82;" horiz-adv-x="1888" 
d="M889 1559l74 284h165l-114 -284h-125zM0 1434h170l344 -1147l344 1147h172l344 -1149l344 1149h170l-430 -1434h-170l-344 1147l-344 -1147h-172z" />
    <glyph glyph-name="wacute" unicode="&#x1e83;" horiz-adv-x="1673" 
d="M786 1149l74 285h166l-115 -285h-125zM0 1024h170l291 -797l291 797h170l290 -797l295 797h166l-377 -1024h-168l-292 795l-293 -795h-166z" />
    <glyph glyph-name="Wdieresis" unicode="&#x1e84;" horiz-adv-x="1888" 
d="M637 1786q0 40 24.5 64t65.5 24q40 0 64 -24t24 -64q0 -38 -24 -62t-64 -24q-41 0 -65.5 23.5t-24.5 62.5zM1073 1786q0 40 24.5 64t65.5 24q40 0 64 -24t24 -64q0 -38 -24 -62t-64 -24q-41 0 -65.5 23.5t-24.5 62.5zM0 1434h170l344 -1147l344 1147h172l344 -1149
l344 1149h170l-430 -1434h-170l-344 1147l-344 -1147h-172z" />
    <glyph glyph-name="wdieresis" unicode="&#x1e85;" horiz-adv-x="1673" 
d="M532 1376q0 40 25 64t66 24q40 0 64 -24t24 -64q0 -38 -24 -62t-64 -24q-41 0 -66 24t-25 62zM969 1376q0 40 24.5 64t65.5 24q40 0 64 -24t24 -64q0 -38 -24 -62t-64 -24q-41 0 -65.5 23.5t-24.5 62.5zM0 1024h170l291 -797l291 797h170l290 -797l295 797h166
l-377 -1024h-168l-292 795l-293 -795h-166z" />
    <glyph glyph-name="Germandbls" unicode="&#x1e9e;" horiz-adv-x="1312" 
d="M776 0h-207v156h207q138 0 217.5 63.5t79.5 173.5q0 109 -80 172.5t-217 63.5h-125l-59 114l395 408q-60 77 -141.5 118.5t-173.5 41.5q-154 0 -258.5 -132.5t-104.5 -332.5v-846h-151v846q0 174 68.5 317t185 222.5t254.5 78.5q161 -2 291.5 -84.5t211.5 -236.5
l-383 -381q203 0 321 -99t118 -270q0 -176 -122.5 -284.5t-326.5 -108.5z" />
    <glyph glyph-name="Ygrave" unicode="&#x1ef2;" horiz-adv-x="1230" 
d="M674 1559h-125l-117 284h166zM532 553l-540 881h188l436 -736l437 736h186l-543 -881v-553h-164v553z" />
    <glyph glyph-name="ygrave" unicode="&#x1ef3;" horiz-adv-x="1132" 
d="M637 1149h-125l-117 285h166zM645 -403h-172l139 403h-264l-348 1024h168l293 -854h209l293 854h165z" />
    <glyph glyph-name="endash" unicode="&#x2013;" horiz-adv-x="1271" 
d="M102 639v156h1067v-156h-1067z" />
    <glyph glyph-name="emdash" unicode="&#x2014;" horiz-adv-x="1875" 
d="M102 639v156h1672v-156h-1672z" />
    <glyph glyph-name="quoteleft" unicode="&#x2018;" horiz-adv-x="403" 
d="M266 1434l-41 -447h-157l77 447h121z" />
    <glyph glyph-name="quoteright" unicode="&#x2019;" horiz-adv-x="403" 
d="M137 987l41 447h160l-80 -447h-121z" />
    <glyph glyph-name="quotesinglbase" unicode="&#x201a;" horiz-adv-x="421" 
d="M137 -293l41 449h154l-76 -449h-119z" />
    <glyph glyph-name="quotedblleft" unicode="&#x201c;" horiz-adv-x="768" 
d="M270 1434l-43 -447h-159l82 447h120zM633 1434l-43 -447h-158l80 447h121z" />
    <glyph glyph-name="quotedblright" unicode="&#x201d;" horiz-adv-x="768" 
d="M500 987l43 447h159l-81 -447h-121zM137 987l41 447h158l-78 -447h-121z" />
    <glyph glyph-name="quotedblbase" unicode="&#x201e;" horiz-adv-x="765" 
d="M500 -293l43 449h153l-78 -449h-118zM137 -293l41 449h156l-78 -449h-119z" />
    <glyph glyph-name="dagger" unicode="&#x2020;" horiz-adv-x="927" 
d="M526 852l21 -1284h-164l20 1284h-309v152h307l-18 430h164l-19 -430h303v-152h-305z" />
    <glyph glyph-name="daggerdbl" unicode="&#x2021;" horiz-adv-x="958" 
d="M528 80l19 -512h-164l20 512h-309v151h312v621h-312v152h307l-18 430h164l-19 -430h303v-152h-307v-621h307v-151h-303z" />
    <glyph glyph-name="bullet" unicode="&#x2022;" horiz-adv-x="571" 
d="M88 717q0 103 55 165t144 62q88 0 144 -62.5t56 -164.5q0 -103 -55.5 -164t-144.5 -61q-90 0 -144.5 61t-54.5 164z" />
    <glyph glyph-name="ellipsis" unicode="&#x2026;" horiz-adv-x="1134" 
d="M88 74q0 44 28 72t72 28q49 0 78 -27.5t29 -72.5q0 -49 -28.5 -77t-78.5 -28q-45 0 -72.5 28t-27.5 77zM467 74q0 44 28 72t72 28q49 0 78 -27.5t29 -72.5q0 -49 -28.5 -77t-78.5 -28q-45 0 -72.5 28t-27.5 77zM846 74q0 44 28 72t72 28q49 0 78 -27.5t29 -72.5
q0 -49 -28.5 -77t-78.5 -28q-45 0 -72.5 28t-27.5 77z" />
    <glyph glyph-name="perthousand" unicode="&#x2030;" horiz-adv-x="2670" 
d="M88 1094q0 161 97.5 265.5t248.5 104.5q155 0 252.5 -103.5t97.5 -266.5t-97.5 -264t-252.5 -101q-149 0 -247.5 104t-98.5 261zM494 0l700 1434h135l-700 -1434h-135zM205 1094q0 -106 65.5 -178t163.5 -72q101 0 165.5 71t64.5 179q0 113 -64 183.5t-166 70.5
q-99 0 -164 -71t-65 -183zM1040 336q0 159 98 265t251 106q152 0 249 -103.5t97 -267.5q0 -161 -97 -264t-249 -103t-250.5 104t-98.5 263zM1888 336q0 159 98.5 265t249.5 106q155 0 253 -103.5t98 -267.5q0 -162 -98 -264.5t-253 -102.5q-151 0 -249.5 104.5t-98.5 262.5z
M1157 336q0 -109 65.5 -178.5t166.5 -69.5q100 0 163.5 69t63.5 179q0 111 -64 182.5t-163 71.5q-101 0 -166.5 -72.5t-65.5 -181.5zM2009 336q0 -108 64 -178t163 -70q100 0 165 69t65 179t-65 182t-165 72q-99 0 -163 -72.5t-64 -181.5z" />
    <glyph glyph-name="minute" unicode="&#x2032;" horiz-adv-x="438" 
d="M137 987l49 447h183l-93 -447h-139z" />
    <glyph glyph-name="second" unicode="&#x2033;" horiz-adv-x="860" 
d="M559 987l49 447h183l-93 -447h-139zM137 987l49 447h183l-93 -447h-139z" />
    <glyph glyph-name="guilsinglleft" unicode="&#x2039;" horiz-adv-x="804" 
d="M86 717l381 493h199l-383 -493l383 -494h-199z" />
    <glyph glyph-name="guilsinglright" unicode="&#x203a;" horiz-adv-x="804" 
d="M717 717l-381 -494h-199l383 494l-383 493h199z" />
    <glyph glyph-name="fraction" unicode="&#x2044;" horiz-adv-x="874" 
d="M33 -350l639 1859h170l-637 -1859h-172z" />
    <glyph glyph-name="uni2074" unicode="&#x2074;" horiz-adv-x="1099" 
d="M137 1165v101l582 624h115v-610h155v-115h-155v-204h-115v204h-582zM301 1280h418v453z" />
    <glyph glyph-name="franc" unicode="&#x20a3;" horiz-adv-x="1337" 
d="M221 0v272h-231v97h231v1065h961v-154h-797v-514h764v-152h-764v-245h442v-97h-442v-272h-164z" />
    <glyph glyph-name="lira" unicode="&#x20a4;" horiz-adv-x="1464" 
d="M141 772v90h224v68q0 156 58.5 278t163 189.5t236.5 66.5q185 -1 309.5 -129t155.5 -346h-166q-15 144 -98 233t-201 89q-134 0 -214.5 -104t-80.5 -277v-68h602v-90h-602v-260h602v-92h-602q-9 -176 -94 -264h889v-156h-1182v156q110 0 163.5 62t60.5 202h-224v92h224
v260h-224z" />
    <glyph glyph-name="peseta" unicode="&#x20a7;" horiz-adv-x="2301" 
d="M158 0v1434h590q229 0 386.5 -139t157.5 -349q0 -133 -75.5 -246t-200.5 -178t-268 -65h-426v-457h-164zM1128 946q0 145 -108 239.5t-272 94.5h-426v-670h426q159 0 269.5 97.5t110.5 238.5zM1851 870v-391q0 -186 75 -270t237 -84v-156q-248 0 -361.5 126t-113.5 384
v391h-215v70l311 313h67v-229h312v-154h-312z" />
    <glyph glyph-name="Euro" unicode="&#x20ac;" horiz-adv-x="1574" 
d="M487 717q0 -56 11 -135h475l-21 -97h-434q46 -165 152.5 -262.5t247.5 -97.5q138 0 243.5 89.5t163.5 248.5h162q-60 -227 -212.5 -360.5t-356.5 -133.5q-203 0 -357.5 142.5t-210.5 373.5h-282l24 97h240q-8 86 -8 133q0 66 10 141h-234l25 94h225q56 233 209.5 373.5
t358.5 140.5q204 0 355.5 -133t213.5 -362h-164q-59 159 -162.5 249.5t-242.5 90.5q-140 0 -247 -97.5t-153 -261.5h510l-22 -94h-508q-11 -82 -11 -139z" />
    <glyph glyph-name="uni20B4" unicode="&#x20b4;" horiz-adv-x="1400" 
d="M121 367q0 112 39 192h-127v70h172q36 44 87.5 76.5t119 53.5t120.5 32.5t134 25.5h-633v70h932q133 58 133 186q0 110 -110.5 180t-278.5 70q-156 0 -267.5 -74t-136.5 -192h-170q25 182 182.5 294.5t391.5 112.5q239 0 396 -107t157 -278q0 -113 -45 -192h149v-70h-205
q-50 -46 -131 -78.5t-150.5 -46.5t-174 -32t-158.5 -31h819v-70h-989q-92 -66 -92 -186q0 -113 110.5 -186.5t280.5 -73.5q174 0 293.5 80.5t144.5 216.5h168q-19 -198 -189 -319.5t-423 -121.5q-242 0 -395.5 114t-153.5 284z" />
    <glyph glyph-name="uni20BA" unicode="&#x20ba;" horiz-adv-x="1359" 
d="M1118 670h158q-50 -318 -262 -494t-549 -176h-131v578l-246 -74v117l246 73v234l-246 -72v117l246 71v390h164v-340l360 104v-117l-360 -104v-236l360 107v-117l-360 -106v-469q253 10 416.5 146t203.5 368z" />
    <glyph glyph-name="uni20BD" unicode="&#x20bd;" horiz-adv-x="1435" 
d="M217 0v211h-217v108h217v207h-217v144h217v764h590q244 0 394.5 -125.5t150.5 -329.5q0 -195 -155 -324t-390 -129h-426v-207h340v-108h-340v-211h-164zM1188 975q0 138 -104.5 221.5t-276.5 83.5h-426v-610h426q167 0 274 85.5t107 219.5z" />
    <glyph glyph-name="uni2113" unicode="&#x2113;" horiz-adv-x="1017" 
d="M727 119v-150q-246 0 -358.5 125.5t-118.5 380.5q-74 -9 -150 -6v137q87 0 150 8v402q0 201 95 324.5t247 123.5q154 0 248 -108.5t94 -290.5q0 -192 -149.5 -345t-383.5 -216q2 -191 78 -288t248 -97zM401 1004v-357q175 55 281 164.5t106 247.5q0 117 -52.5 183.5
t-143.5 66.5q-88 0 -139.5 -81.5t-51.5 -223.5z" />
    <glyph glyph-name="uni2116" unicode="&#x2116;" horiz-adv-x="2355" 
d="M1550 1114q0 151 98.5 249.5t247.5 98.5q150 0 244 -95.5t94 -252.5q0 -152 -94 -247t-244 -95q-149 0 -247.5 97.5t-98.5 244.5zM322 1139v-1139h-164v1434h129l936 -1131v1131h163v-1434h-129zM1671 1116q0 -101 65 -166t160 -65q98 0 158 65t60 166q0 102 -60.5 169
t-157.5 67t-161 -66t-64 -170zM1575 539v108h637v-108h-637z" />
    <glyph glyph-name="trademark" unicode="&#x2122;" horiz-adv-x="1665" 
d="M862 1264v-619h-86v789h113l282 -674l279 674h113v-789h-86v621l-258 -621h-97zM59 1335v99h633v-99h-272v-690h-86v690h-275z" />
    <glyph glyph-name="minus" unicode="&#x2212;" horiz-adv-x="1075" 
d="M102 639v156h873v-156h-873z" />
    <glyph glyph-name="uni2215" unicode="&#x2215;" horiz-adv-x="874" 
d="M33 -350l639 1859h170l-637 -1859h-172z" />
    <glyph glyph-name="eight.dnom" horiz-adv-x="974" 
d="M88 242q0 73 57 134.5t148 98.5q-74 36 -120 95t-46 126q0 113 102 189t256 76q158 0 262.5 -74t104.5 -191q0 -68 -44.5 -126.5t-119.5 -94.5q91 -36 147 -96.5t56 -136.5q0 -123 -115 -198t-291 -75q-172 0 -284.5 77.5t-112.5 195.5zM236 690q0 -69 74 -118.5
t175 -49.5q108 0 183 48t75 120q0 73 -71.5 119.5t-186.5 46.5q-106 0 -177.5 -48t-71.5 -118zM203 250q0 -75 80 -124.5t202 -49.5q128 0 206.5 48t78.5 126q0 69 -83.5 118.5t-201.5 49.5q-112 0 -197 -51t-85 -117z" />
    <glyph glyph-name="eight.numr" horiz-adv-x="974" 
d="M88 745q0 73 57 135t148 99q-74 36 -120 95t-46 126q0 113 101.5 188.5t256.5 75.5q159 0 263 -73.5t104 -190.5q0 -68 -44.5 -126.5t-119.5 -94.5q91 -36 147 -97t56 -137q0 -123 -115 -197.5t-291 -74.5q-172 0 -284.5 77t-112.5 195zM236 1194q0 -69 74 -118.5
t175 -49.5q108 0 183 48t75 120q0 73 -71.5 119.5t-186.5 46.5q-106 0 -177.5 -48t-71.5 -118zM203 754q0 -75 80 -124.5t202 -49.5q128 0 206.5 48t78.5 126q0 69 -83.5 118.5t-201.5 49.5q-112 0 -197 -51t-85 -117z" />
    <glyph glyph-name="five.dnom" horiz-adv-x="1030" 
d="M530 -31q-165 0 -279 105t-114 260h117q0 -109 78 -180.5t196 -71.5q110 0 179 54t69 140q0 93 -68.5 147t-181.5 54h-295l-51 60l23 393h618v-117h-514l-12 -240h227q169 0 270 -81t101 -211q0 -135 -102.5 -223.5t-260.5 -88.5z" />
    <glyph glyph-name="five.numr" horiz-adv-x="1030" 
d="M530 473q-165 0 -279 105t-114 260h117q0 -109 78 -180.5t196 -71.5q110 0 179 54t69 140q0 93 -68.5 147t-181.5 54h-295l-51 59l23 394h618v-117h-514l-12 -240h227q169 0 270 -81.5t101 -211.5q0 -135 -102.5 -223t-260.5 -88z" />
    <glyph glyph-name="four.dnom" horiz-adv-x="1099" 
d="M137 205v100l582 625h115v-611h155v-114h-155v-205h-115v205h-582zM301 319h418v453z" />
    <glyph glyph-name="four.numr" horiz-adv-x="1099" 
d="M137 709v100l582 625h115v-611h155v-114h-155v-205h-115v205h-582zM301 823h418v453z" />
    <glyph glyph-name="nine.dnom" horiz-adv-x="958" 
d="M870 625q0 -118 -71 -205l-334 -420h-139l225 289q-46 -4 -72 -4q-171 0 -281 95t-110 245q0 149 110 242.5t281 93.5q170 0 280.5 -95.5t110.5 -240.5zM750 623q0 99 -76 162t-195 63q-122 0 -197 -62.5t-75 -162.5q0 -101 75 -164.5t197 -63.5q119 0 195 64.5t76 163.5
z" />
    <glyph glyph-name="nine.numr" horiz-adv-x="958" 
d="M870 1128q0 -117 -71 -204l-334 -420h-139l227 291q-44 -7 -74 -7q-171 0 -281 95t-110 245q0 149 110 242.5t281 93.5q170 0 280.5 -95.5t110.5 -240.5zM754 1126q0 100 -77.5 164t-197.5 64q-123 0 -199.5 -63.5t-76.5 -164.5q0 -100 76.5 -163.5t199.5 -63.5
q121 0 198 64t77 163z" />
    <glyph glyph-name="one.dnom" horiz-adv-x="655" 
d="M74 723v115q100 0 176 22t151 70h101v-930h-115v791q-139 -68 -313 -68z" />
    <glyph glyph-name="one.numr" horiz-adv-x="655" 
d="M74 1227v114q99 0 175.5 22.5t151.5 70.5h101v-930h-115v790q-137 -67 -313 -67z" />
    <glyph glyph-name="seven.dnom" horiz-adv-x="880" 
d="M645 813h-543v117h676v-99l-411 -831h-119z" />
    <glyph glyph-name="seven.numr" horiz-adv-x="880" 
d="M645 1317h-543v117h676v-99l-411 -831h-119z" />
    <glyph glyph-name="six.dnom" horiz-adv-x="958" 
d="M88 307q0 117 72 205h-2l334 418h141l-227 -289q50 4 73 4q171 0 281 -94t110 -244q0 -149 -110 -243.5t-281 -94.5q-170 0 -280.5 96.5t-110.5 241.5zM207 309q0 -100 76 -163.5t196 -63.5q122 0 196.5 62.5t74.5 164.5q0 101 -74.5 164.5t-196.5 63.5q-120 0 -196 -65
t-76 -163z" />
    <glyph glyph-name="six.numr" horiz-adv-x="958" 
d="M88 811q0 117 72 205h-2l334 418h141l-227 -289q50 4 73 4q171 0 281 -94t110 -244q0 -149 -110 -243.5t-281 -94.5q-170 0 -280.5 96.5t-110.5 241.5zM203 813q0 -101 77 -164t199 -63q123 0 199 63t76 164q0 100 -76.5 163.5t-198.5 63.5q-121 0 -198.5 -65t-77.5 -162
z" />
    <glyph glyph-name="three.dnom" horiz-adv-x="942" 
d="M641 813h-496v117h670v-99l-295 -272q140 -3 237 -80t97 -209t-102.5 -216.5t-259.5 -84.5q-166 0 -282 108t-116 263h121q0 -109 79.5 -183.5t197.5 -74.5q103 0 172 52.5t69 131.5q0 89 -59.5 143t-159.5 54h-98l-54 72z" />
    <glyph glyph-name="three.numr" horiz-adv-x="942" 
d="M641 1317h-496v117h670v-99l-295 -272q140 -3 237 -80t97 -209t-102.5 -216.5t-259.5 -84.5q-166 0 -282 108t-116 263h121q0 -109 79.5 -183.5t197.5 -74.5q103 0 172 52.5t69 131.5q0 89 -59.5 143t-159.5 54h-98l-54 71z" />
    <glyph glyph-name="two.dnom" horiz-adv-x="1005" 
d="M508 961q160 0 254 -77t94 -214q0 -73 -32 -124.5t-83.5 -79.5t-114 -49t-125.5 -42t-116 -49t-88 -80.5t-39 -126.5h610v-119h-731v82q0 82 20.5 145t55.5 102.5t80 69t95 47t100 32t95 29.5t80 35t55.5 52.5t20.5 77.5q0 85 -63 131.5t-168 46.5q-119 0 -186.5 -67.5
t-67.5 -188.5h-117q0 168 101 267.5t270 99.5z" />
    <glyph glyph-name="two.numr" horiz-adv-x="1005" 
d="M508 1464q160 0 254 -76.5t94 -213.5q0 -73 -32 -124.5t-83.5 -79.5t-114 -49t-125.5 -42t-116 -49t-88 -80.5t-39 -126.5h610v-119h-731v82q0 82 20.5 145t55.5 102.5t80 69t95 47t100 32t95 29.5t80 35t55.5 52.5t20.5 77.5q0 85 -63 131.5t-168 46.5
q-119 0 -186.5 -67.5t-67.5 -188.5h-117q0 168 101 267t270 99z" />
    <glyph glyph-name="zero.dnom" horiz-adv-x="1079" 
d="M88 465q0 214 128 355t325 141q199 0 326.5 -138t127.5 -358q0 -219 -127.5 -357.5t-326.5 -138.5q-196 0 -324.5 141.5t-128.5 354.5zM203 467q0 -166 96 -275.5t242 -109.5t239.5 108t93.5 277q0 168 -93 275.5t-240 107.5q-149 0 -243.5 -108t-94.5 -275z" />
    <glyph glyph-name="zero.numr" horiz-adv-x="1079" 
d="M88 969q0 214 128 354.5t325 140.5q199 0 326.5 -137.5t127.5 -357.5q0 -219 -127.5 -357.5t-326.5 -138.5q-196 0 -324.5 141.5t-128.5 354.5zM203 971q0 -166 96 -275.5t242 -109.5t239.5 108t93.5 277q0 168 -93 275.5t-240 107.5q-149 0 -243.5 -108t-94.5 -275z" />
    </font>
</defs>
</svg>
