<svg width="125" height="22" viewBox="0 0 125 22" fill="none" xmlns="http://www.w3.org/2000/svg">
<g clip-path="url(#clip0_0_1387)">
<path fill-rule="evenodd" clip-rule="evenodd" d="M58.4902 0.304688L54.1118 21.5491H59.0845L63.4629 0.304688H58.4902Z" fill="#0097B3"/>
<path fill-rule="evenodd" clip-rule="evenodd" d="M9.35109 0.304688H4.37842L0 21.5491H4.97268L9.35109 0.304688Z" fill="#0097B3"/>
<path fill-rule="evenodd" clip-rule="evenodd" d="M56.8782 0.304688H51.9055L42.6501 15.0495L39.7266 0.304688H34.7539L38.9616 21.5491H43.5381L56.8782 0.304688Z" fill="#0097B3"/>
<path fill-rule="evenodd" clip-rule="evenodd" d="M82.056 0.304688H65.8265L64.9658 4.7678H70.6147L67.1516 21.5491H72.1243L75.5806 4.7678H81.2022L82.056 0.304688Z" fill="#0097B3"/>
<path fill-rule="evenodd" clip-rule="evenodd" d="M28.5724 0.304688L25.6762 14.3618L18.067 0.304688H13.7705L9.39893 21.5491H14.1872L17.0902 7.45889L24.679 21.5491H28.9891L33.3607 0.304688H28.5724Z" fill="#0097B3"/>
<path fill-rule="evenodd" clip-rule="evenodd" d="M93.8796 0.304688H84.7607L80.3823 21.5491H85.3823L88.7976 4.7678H93.0941C93.9583 4.72876 94.8017 5.03194 95.4301 5.60753C95.9116 6.11052 96.1456 6.79008 96.0722 7.47212C95.8605 9.6078 94.1255 10.593 91.8782 10.593H88.2512L92.9233 21.5491H97.896L94.7881 14.2759C98.3819 13.8284 101.078 10.8738 101.093 7.36633C101.298 3.24704 98.1692 0.304688 93.8591 0.304688" fill="#0097B3"/>
<path d="M102.035 10.9302C102.414 4.74826 107.735 -0.0596271 114.132 0.000558907C120.751 0.000558907 125.218 4.86039 124.856 10.9236C124.478 17.1056 119.157 21.9135 112.759 21.8533C106.141 21.8533 101.673 16.9935 102.042 10.9302M120.232 10.9302C120.395 9.20613 119.788 7.49702 118.565 6.23368C117.342 4.97035 115.62 4.27329 113.832 4.31821C109.997 4.30397 106.835 7.22212 106.667 10.9302C106.504 12.6543 107.111 14.3634 108.334 15.6268C109.556 16.8901 111.279 17.5872 113.067 17.5423C116.904 17.56 120.07 14.6409 120.239 10.9302" fill="#0097B3"/>
</g>
<defs>
<clipPath id="clip0_0_1387">
<rect width="125" height="22" fill="white"/>
</clipPath>
</defs>
</svg>
