<svg width="1733" height="241" viewBox="0 0 1733 241" fill="#ffffff" xmlns="http://www.w3.org/2000/svg">
    <path d="M0.740002 190V7.99999H28.3L108.12 140.86H93.3L171.82 7.99999H199.38L199.9 190H167.66L167.4 58.18H174.16L107.6 169.2H92.52L24.92 58.18H32.72V190H0.740002ZM227.692 190L309.592 7.99999H342.872L425.032 190H389.672L319.212 25.94H332.732L262.532 190H227.692ZM265.392 147.88L274.492 121.36H372.772L381.872 147.88H265.392ZM542.962 178.3C520.082 178.3 500.582 175.18 484.462 168.94C468.515 162.7 456.295 153.687 447.802 141.9C439.309 129.94 435.062 115.553 435.062 98.74C435.062 81.58 439.309 67.1067 447.802 55.32C456.295 43.5333 468.515 34.52 484.462 28.28C500.582 22.04 520.082 18.92 542.962 18.92C543.309 18.92 544.089 18.92 545.302 18.92C546.689 18.92 547.989 18.92 549.202 18.92C550.589 18.92 551.369 18.92 551.542 18.92C574.249 18.92 593.575 22.04 609.522 28.28C625.469 34.52 637.602 43.62 645.922 55.58C654.242 67.3667 658.402 81.7533 658.402 98.74C658.402 115.38 654.242 129.68 645.922 141.64C637.775 153.6 625.815 162.7 610.042 168.94C594.442 175.18 575.375 178.3 552.842 178.3C552.495 178.3 551.542 178.3 549.982 178.3C548.595 178.3 547.122 178.3 545.562 178.3C544.175 178.3 543.309 178.3 542.962 178.3ZM546.342 152.04C546.689 152.04 547.209 152.04 547.902 152.04C548.595 152.04 549.029 152.04 549.202 152.04C566.015 151.867 580.055 149.787 591.322 145.8C602.762 141.813 611.342 135.92 617.062 128.12C622.955 120.147 625.902 110.267 625.902 98.48C625.902 86.6933 622.955 76.9 617.062 69.1C611.169 61.3 602.589 55.4067 591.322 51.42C580.055 47.4333 566.189 45.44 549.722 45.44C549.549 45.44 549.029 45.44 548.162 45.44C547.295 45.44 546.689 45.44 546.342 45.44C529.182 45.44 514.709 47.4333 502.922 51.42C491.309 55.2333 482.555 61.1267 476.662 69.1C470.942 76.9 468.082 86.78 468.082 98.74C468.082 110.7 471.115 120.667 477.182 128.64C483.422 136.44 492.349 142.333 503.962 146.32C515.575 150.133 529.702 152.04 546.342 152.04ZM531.262 197.28V0.719988H562.462V197.28H531.262ZM762.113 190V51.16H796.173L852.073 149.7H838.553L897.313 51.16H927.733L927.993 190H898.613V86L903.813 89.38L851.813 175.44H837.773L785.513 87.04L791.753 85.48V190H762.113ZM1055.83 190V161.92L1054.01 155.94V106.8C1054.01 97.2667 1051.15 89.9 1045.43 84.7C1039.71 79.3267 1031.04 76.64 1019.43 76.64C1011.63 76.64 1003.91 77.8533 996.286 80.28C988.833 82.7067 982.506 86.0867 977.306 90.42L964.566 66.76C972.019 61.04 980.859 56.7933 991.086 54.02C1001.49 51.0733 1012.23 49.6 1023.33 49.6C1043.43 49.6 1058.95 54.4533 1069.87 64.16C1080.96 73.6933 1086.51 88.5133 1086.51 108.62V190H1055.83ZM1012.15 191.82C1001.75 191.82 992.646 190.087 984.846 186.62C977.046 182.98 970.979 178.04 966.646 171.8C962.486 165.387 960.406 158.193 960.406 150.22C960.406 142.42 962.226 135.4 965.866 129.16C969.679 122.92 975.833 117.98 984.326 114.34C992.819 110.7 1004.09 108.88 1018.13 108.88H1058.43V130.46H1020.47C1009.37 130.46 1001.92 132.28 998.106 135.92C994.293 139.387 992.386 143.72 992.386 148.92C992.386 154.813 994.726 159.493 999.406 162.96C1004.09 166.427 1010.59 168.16 1018.91 168.16C1026.88 168.16 1033.99 166.34 1040.23 162.7C1046.64 159.06 1051.23 153.687 1054.01 146.58L1059.47 166.08C1056.35 174.227 1050.71 180.553 1042.57 185.06C1034.59 189.567 1024.45 191.82 1012.15 191.82ZM1203.68 191.82C1192.42 191.82 1182.1 189.22 1172.74 184.02C1163.56 178.82 1156.19 171.02 1150.64 160.62C1145.27 150.047 1142.58 136.7 1142.58 120.58C1142.58 104.287 1145.18 90.94 1150.38 80.54C1155.76 70.14 1163.04 62.4267 1172.22 57.4C1181.41 52.2 1191.9 49.6 1203.68 49.6C1217.38 49.6 1229.42 52.5467 1239.82 58.44C1250.4 64.3333 1258.72 72.5667 1264.78 83.14C1271.02 93.7133 1274.14 106.193 1274.14 120.58C1274.14 134.967 1271.02 147.533 1264.78 158.28C1258.72 168.853 1250.4 177.087 1239.82 182.98C1229.42 188.873 1217.38 191.82 1203.68 191.82ZM1126.72 240.44V51.16H1157.66V83.92L1156.62 120.84L1159.22 157.76V240.44H1126.72ZM1200.04 164C1207.84 164 1214.78 162.267 1220.84 158.8C1227.08 155.333 1232.02 150.307 1235.66 143.72C1239.3 137.133 1241.12 129.42 1241.12 120.58C1241.12 111.567 1239.3 103.853 1235.66 97.44C1232.02 90.8533 1227.08 85.8267 1220.84 82.36C1214.78 78.8933 1207.84 77.16 1200.04 77.16C1192.24 77.16 1185.22 78.8933 1178.98 82.36C1172.74 85.8267 1167.8 90.8533 1164.16 97.44C1160.52 103.853 1158.7 111.567 1158.7 120.58C1158.7 129.42 1160.52 137.133 1164.16 143.72C1167.8 150.307 1172.74 155.333 1178.98 158.8C1185.22 162.267 1192.24 164 1200.04 164ZM1406.07 190L1355.89 123.44L1382.41 107.06L1444.29 190H1406.07ZM1306.49 190V51.16H1338.99V190H1306.49ZM1329.37 134.36V107.32H1376.43V134.36H1329.37ZM1385.53 124.48L1355.11 120.84L1406.07 51.16H1440.91L1385.53 124.48ZM1527.38 191.82C1511.95 191.82 1498.43 188.787 1486.82 182.72C1475.38 176.48 1466.45 167.987 1460.04 157.24C1453.8 146.493 1450.68 134.273 1450.68 120.58C1450.68 106.713 1453.71 94.4933 1459.78 83.92C1466.02 73.1733 1474.51 64.7667 1485.26 58.7C1496.18 52.6333 1508.57 49.6 1522.44 49.6C1535.96 49.6 1548.01 52.5467 1558.58 58.44C1569.15 64.3333 1577.47 72.6533 1583.54 83.4C1589.61 94.1467 1592.64 106.8 1592.64 121.36C1592.64 122.747 1592.55 124.307 1592.38 126.04C1592.38 127.773 1592.29 129.42 1592.12 130.98H1476.42V109.4H1574.96L1562.22 116.16C1562.39 108.187 1560.75 101.167 1557.28 95.1C1553.81 89.0333 1549.05 84.2667 1542.98 80.8C1537.09 77.3333 1530.24 75.6 1522.44 75.6C1514.47 75.6 1507.45 77.3333 1501.38 80.8C1495.49 84.2667 1490.81 89.12 1487.34 95.36C1484.05 101.427 1482.4 108.62 1482.4 116.94V122.14C1482.4 130.46 1484.31 137.827 1488.12 144.24C1491.93 150.653 1497.31 155.593 1504.24 159.06C1511.17 162.527 1519.15 164.26 1528.16 164.26C1535.96 164.26 1542.98 163.047 1549.22 160.62C1555.46 158.193 1561.01 154.38 1565.86 149.18L1583.28 169.2C1577.04 176.48 1569.15 182.113 1559.62 186.1C1550.26 189.913 1539.51 191.82 1527.38 191.82ZM1651.72 190V70.92L1659.26 78.72H1602.84V51.16H1732.84V78.72H1676.68L1684.22 70.92V190H1651.72Z"/>
</svg>