<svg width="240" height="50" viewBox="0 0 240 50" fill="none" xmlns="http://www.w3.org/2000/svg">
<path d="M152.91 30.1432V22.0128L148.872 28.8256H147.218L143.276 21.9808V30.1432H139.746V16.5498H143.848L148.141 24.423L152.72 16.5498H156.376L156.44 30.1432H152.91Z" fill="#111111"/>
<path d="M167.822 27.219C168.33 26.8976 168.712 26.4477 168.935 25.8371V24.4553H166.263C164.674 24.4553 163.847 25.0016 163.847 26.0621C163.847 26.5763 164.038 26.9619 164.451 27.2511C164.833 27.5403 165.373 27.7011 166.073 27.7011C166.709 27.7011 167.313 27.5403 167.822 27.219ZM171.16 17.8354C172.273 18.8316 172.846 20.342 172.846 22.3665V30.1433H169.189V28.4401C168.458 29.6934 167.09 30.3361 165.087 30.3361C164.069 30.3361 163.147 30.1434 162.384 29.7899C161.621 29.4364 161.049 28.9544 160.635 28.3117C160.222 27.7011 160.031 26.9619 160.031 26.1907C160.031 24.9374 160.508 23.9411 161.43 23.202C162.384 22.4629 163.847 22.1094 165.787 22.1094H168.903C168.903 21.2417 168.648 20.599 168.14 20.117C167.631 19.6671 166.836 19.41 165.818 19.41C165.119 19.41 164.387 19.5386 163.72 19.7635C163.02 19.9885 162.448 20.3098 161.971 20.6954L160.572 17.9318C161.303 17.4176 162.193 16.9998 163.211 16.7106C164.229 16.4214 165.278 16.2607 166.391 16.2607C168.426 16.325 170.047 16.8392 171.16 17.8354Z" fill="#111111"/>
<path d="M186.93 26.095C187.566 25.4202 187.884 24.4882 187.884 23.3313C187.884 22.1744 187.566 21.2746 186.93 20.5997C186.294 19.9249 185.468 19.5715 184.45 19.5715C183.433 19.5715 182.638 19.9249 181.97 20.5997C181.334 21.2746 181.016 22.2065 181.016 23.3313C181.016 24.456 181.334 25.388 181.97 26.095C182.606 26.7699 183.433 27.1233 184.45 27.1233C185.468 27.1233 186.262 26.7699 186.93 26.095ZM188.552 17.2255C189.569 17.804 190.396 18.6395 190.969 19.6679C191.541 20.7283 191.859 21.9494 191.859 23.3313C191.859 24.7453 191.573 25.9664 190.969 27.0269C190.396 28.0874 189.569 28.8908 188.552 29.4692C187.534 30.0477 186.39 30.3369 185.118 30.3369C183.401 30.3369 182.033 29.7906 181.048 28.698V35.0608H177.137V16.5507H180.857V18.1253C181.811 16.9363 183.242 16.3579 185.086 16.3579C186.39 16.3257 187.503 16.6149 188.552 17.2255Z" fill="#111111"/>
<path d="M201.462 25.0015H199.427V30.1432H195.516V16.5498H199.427V21.82H201.525L205.182 16.5498H209.348L204.642 23.0734L209.666 30.1432H205.055L201.462 25.0015Z" fill="#111111"/>
<path d="M215.995 20.0851C215.391 20.5993 215.041 21.2741 214.882 22.1739H221.528C221.401 21.3063 221.019 20.6314 220.415 20.1172C219.811 19.603 219.079 19.346 218.221 19.346C217.331 19.3138 216.599 19.571 215.995 20.0851ZM225.153 24.4555H214.977C215.168 25.2911 215.582 25.9659 216.281 26.4479C216.981 26.93 217.808 27.1871 218.825 27.1871C219.525 27.1871 220.161 27.0907 220.701 26.8657C221.242 26.6408 221.75 26.3194 222.227 25.8695L224.326 28.1511C223.054 29.6294 221.21 30.3685 218.761 30.3685C217.235 30.3685 215.9 30.0793 214.723 29.4687C213.547 28.8581 212.656 28.0547 212.02 26.9621C211.384 25.9016 211.066 24.6805 211.066 23.3308C211.066 22.0132 211.384 20.7921 211.988 19.7316C212.624 18.6711 213.483 17.8356 214.564 17.225C215.645 16.6144 216.885 16.3252 218.221 16.3252C219.525 16.3252 220.733 16.6144 221.814 17.1928C222.895 17.7713 223.722 18.5747 224.326 19.6673C224.93 20.7278 225.248 21.9811 225.248 23.3951C225.216 23.4594 225.185 23.8128 225.153 24.4555Z" fill="#111111"/>
<path d="M240.001 19.7634H235.454V30.1432H231.574V19.7634H227.027V16.5498H240.001V19.7634Z" fill="#111111"/>
<path d="M20.891 0.609375L0 12.8209V37.212L20.891 49.3914L41.7821 37.212V12.8209L20.891 0.609375Z" fill="#1421B0"/>
<path d="M43.3867 12.8209L64.2778 0.609375L85.1686 12.8209V37.212L64.2778 49.3914L43.3867 37.212V12.8209Z" fill="#1421B0"/>
<path d="M86.7695 12.8209L107.661 0.609375L128.552 12.8209V37.212L107.661 49.3914L86.7695 37.212V12.8209Z" fill="#1421B0"/>
<path d="M26.6802 33.3137L26.6484 23.1908L21.7198 31.5461H20.0028L15.0742 23.4158V33.3457H11.4492V16.4424H14.6608L20.9248 26.9507L27.0936 16.4424H30.3052L30.337 33.3457H26.6802V33.3137Z" fill="white"/>
<path fill-rule="evenodd" clip-rule="evenodd" d="M68.0597 29.7145L69.5543 33.3458H73.5925L66.1201 16.4424H62.3044L54.832 33.3458H58.8067L60.3011 29.7145H68.0597ZM66.8504 26.7257H61.5403L64.2114 20.2665L66.8504 26.7257Z" fill="white"/>
<path fill-rule="evenodd" clip-rule="evenodd" d="M116.441 30.2299C114.947 31.5153 112.753 32.2222 109.955 32.3829V34.2147H106.393V32.3508C103.563 32.1902 101.369 31.451 99.8749 30.1977C98.3804 28.9123 97.6172 27.1769 97.6172 24.9596C97.6172 22.7422 98.3804 20.9748 99.8749 19.7215C101.369 18.4682 103.563 17.729 106.393 17.5684V15.833H109.955V17.5362C112.785 17.6969 114.947 18.4361 116.441 19.7215C117.936 21.0069 118.699 22.7743 118.699 24.9596C118.699 27.2091 117.936 28.9444 116.441 30.2299ZM101.371 24.9596C101.371 27.4984 103.057 28.9445 106.396 29.298V20.6214C104.678 20.7821 103.438 21.2319 102.612 21.9068C101.785 22.6138 101.371 23.6421 101.371 24.9596ZM109.957 29.298V20.6214C113.296 20.9106 114.981 22.3567 114.981 24.9276C114.981 26.2451 114.568 27.2734 113.741 27.9804C112.915 28.6874 111.643 29.1373 109.957 29.298Z" fill="white"/>
</svg>
