<?xml version="1.0" encoding="UTF-8"?><!DOCTYPE svg PUBLIC "-//W3C//DTD SVG 1.1//EN" "http://www.w3.org/Graphics/SVG/1.1/DTD/svg11.dtd"><svg xmlns="http://www.w3.org/2000/svg" xmlns:xlink="http://www.w3.org/1999/xlink"><defs>
<linearGradient id="paint0_linear_367_3686" x1="0" y1="25" x2="44" y2="25" gradientUnits="userSpaceOnUse">
<stop stop-color="#FC5565"/>
<stop offset="1" stop-color="#F6771E"/>
</linearGradient>
</defs><symbol id="arrowBottom" viewBox="0 0 20 24">
<path d="M19.7,14c0.2,0.1,0.2,0.4,0.1,0.5c-1.5,2.2-8.3,9.1-10,9.1c-1.2,0-7.6-6.2-9.5-8.4c-0.2-0.2-0.1-0.5,0.1-0.6 c2.1-1.2,5-1.5,5-1.5C5.2,12.1,5,3.6,5,3.6c-0.2-1.3,2.9-3.1,5.9-3.1c2,0,3.3,1.8,3.6,2.5c0.6,1.7-0.5,7.8-0.6,9.7 c0,0.2,0.1,0.4,0.4,0.4C15.3,13.2,18.7,13.4,19.7,14z"/>
</symbol><symbol id="arrowLeft" viewBox="0 0 24 20">
<path d="M10,19.7c-0.1,0.2-0.4,0.2-0.5,0.1c-2.2-1.5-9.1-8.3-9.1-10c0-1.2,6.2-7.6,8.4-9.5C9,0.1,9.3,0.2,9.4,0.4 c1.2,2.1,1.5,5,1.5,5c1-0.2,9.5-0.4,9.5-0.4c1.3-0.2,3.1,2.9,3.1,5.9c0,2-1.8,3.3-2.5,3.6c-1.7,0.6-7.8-0.5-9.7-0.6 c-0.2,0-0.4,0.1-0.4,0.4C10.8,15.3,10.6,18.7,10,19.7z"/>
</symbol><symbol id="arrowRight" viewBox="0 0 24 20">
<path d="M14,19.7c0.1,0.2,0.4,0.2,0.5,0.1c2.2-1.5,9.1-8.3,9.1-10c0-1.2-6.2-7.6-8.4-9.5c-0.2-0.2-0.5-0.1-0.6,0.1 c-1.2,2.1-1.5,5-1.5,5C12.1,5.2,3.6,5,3.6,5c-1.3-0.2-3.1,2.9-3.1,5.9c0,2,1.8,3.3,2.5,3.6c1.7,0.6,7.8-0.5,9.7-0.6 c0.2,0,0.4,0.1,0.4,0.4C13.2,15.3,13.4,18.7,14,19.7z"/>
</symbol><symbol id="arrowTop" viewBox="0 0 20 24">
<path d="M19.7,10c0.2-0.1,0.2-0.4,0.1-0.5c-1.5-2.2-8.3-9.1-10-9.1c-1.2,0-7.6,6.2-9.5,8.4C0.1,9,0.2,9.3,0.4,9.4 c2.1,1.2,5,1.5,5,1.5c-0.1,1-0.4,9.5-0.4,9.5c-0.2,1.3,2.9,3.1,5.9,3.1c2,0,3.3-1.8,3.6-2.5c0.6-1.7-0.5-7.8-0.6-9.7 c0-0.2,0.1-0.4,0.4-0.4C15.3,10.8,18.7,10.6,19.7,10z"/>
</symbol><symbol id="burger" viewBox="0 0 21 17">
    <path d="M2.63,3C1.31,3,0,2.29,0,1.59,0,.08,2.1.4,3.21.19h9.94c1.31,0,5.26-.71,7.23.7C22,2,20.16,2.76,19.06,3H2.63Z"/>
    <path d="M2.63,10C1.31,10,0,9.29,0,8.59,0,7.08,2.1,7.4,3.21,7.19h9.94c1.31,0,5.88-.26,7.23.7C22,9,20.16,9.76,19.06,10H2.63Z"/>
    <path d="M2.63,14C1.31,14,0,14.71,0,15.41c0,1.51,2.1,1.19,3.21,1.4h9.94c1.31,0,5.26.71,7.23-.7C22,15,20.16,14.24,19.06,14H2.63Z"/>
</symbol><symbol id="checked" viewBox="0 0 14 11">
<polygon points="5.1,10.7 0.3,5.7 1.7,4.3 5.1,7.8 12.3,0.3 13.7,1.7 "/>
</symbol><symbol id="close-simple" viewBox="0 0 26 26">
	<path d="M0.6,0.6c-0.8,0.8,0,3.1,1.6,4.7L9.9,13c-2.4,2.4-5.2,5.2-7,7c-0.3,0.4-0.6,0.7-1,1.2c-1.2,1.4-2.6,2.9-1.3,4.2 c0.8,0.8,3.1,0,4.7-1.6l7.7-7.7l0.1,0.1l8.6,8.6c1.6,1,4.5,2.3,3.9-0.8s-4.2-6.2-6.5-8.2c-0.6-0.5-1.1-0.9-1.4-1.2s-0.9-0.9-1.7-1.7 l0.1-0.1l8.6-8.6c1-1.6,2.3-4.5-0.8-3.9s-6.2,4.2-8.2,6.5c-0.5,0.6-0.9,1.1-1.2,1.4c-0.3,0.3-0.9,0.9-1.7,1.7c-2.4-2.4-5.2-5.2-7-7 c-0.4-0.3-0.7-0.6-1.2-1C3.5,0.7,1.9-0.7,0.6,0.6z"/>
</symbol><symbol id="close" viewBox="0 0 26 26">
<linearGradient id="closeGradient" gradientUnits="userSpaceOnUse" x1="0.1181" y1="829.6189" x2="26.1181" y2="829.6189" gradientTransform="matrix(1 0 0 1 0 -816.6189)">
	<stop offset="0" style="stop-color:#FC5565"/>
	<stop offset="1" style="stop-color:#F6771E"/>
</linearGradient>
<path fill-rule="evenodd" clip-rule="evenodd" fill="url(#closeGradient)" d="M0.6,0.6c-0.8,0.8,0,3.1,1.6,4.7L9.9,13c-2.4,2.4-5.2,5.2-7,7c-0.3,0.4-0.6,0.7-1,1.2c-1.2,1.4-2.6,2.9-1.3,4.2 c0.8,0.8,3.1,0,4.7-1.6l7.7-7.7l0.1,0.1l8.6,8.6c1.6,1,4.5,2.3,3.9-0.8s-4.2-6.2-6.5-8.2c-0.6-0.5-1.1-0.9-1.4-1.2s-0.9-0.9-1.7-1.7 l0.1-0.1l8.6-8.6c1-1.6,2.3-4.5-0.8-3.9s-6.2,4.2-8.2,6.5c-0.5,0.6-0.9,1.1-1.2,1.4c-0.3,0.3-0.9,0.9-1.7,1.7c-2.4-2.4-5.2-5.2-7-7 c-0.4-0.3-0.7-0.6-1.2-1C3.5,0.7,1.9-0.7,0.6,0.6z"/>
</symbol><symbol id="collapseArrow" viewBox="0 0 18 9">
<path d="M7.6,8.1l-6-4.8c-1.5-1.2-2-3-0.7-3c1.3,0,2,0.6,5.3,3.6c3.3,3,3.7,2,4.7,1.2c2-1.8,3.2-4.8,5.9-4.8 c2.3,0-0.1,3.2-1.8,4.7l-2.8,2.5C10.2,9.4,8.3,8.7,7.6,8.1z"/>
</symbol><symbol id="day" viewBox="0 0 64 64">
<path fill="#FFE600" d="M32,15c-9.4,0-17,7.6-17,17c0,9.4,7.6,17,17,17s17-7.6,17-17C49,22.6,41.4,15,32,15z"/>
<path fill="#FFE600" d="M32,11.6c1.2,0,2.2-1,2.2-2.2V2.2C34.3,1,33.2,0,32,0c-1.2,0-2.2,1-2.2,2.2v7.1C29.8,10.6,30.8,11.6,32,11.6z"/>
<path fill="#FFE600" d="M14.5,17.5c0.4,0.4,1,0.7,1.5,0.7c0.5,0,1.1-0.2,1.5-0.7c0.9-0.9,0.9-2.2,0-3.1l-5-5c-0.9-0.9-2.2-0.9-3.1,0 c-0.9,0.9-0.9,2.2,0,3.1L14.5,17.5z"/>
<path fill="#FFE600" d="M11.6,32c0-1.2-1-2.2-2.2-2.2H2.2C1,29.8,0,30.8,0,32c0,1.2,1,2.2,2.2,2.2h7.1C10.6,34.2,11.6,33.2,11.6,32z"/>
<path fill="#FFE600" d="M14.5,46.5l-5,5c-0.9,0.9-0.9,2.2,0,3.1c0.4,0.4,1,0.7,1.5,0.7c0.5,0,1.1-0.2,1.5-0.7l5-5 c0.9-0.9,0.9-2.2,0-3.1C16.8,45.6,15.3,45.6,14.5,46.5z"/>
<path fill="#FFE600" d="M32,52.4c-1.2,0-2.2,1-2.2,2.2v7.1c0,1.2,1,2.2,2.2,2.2c1.2,0,2.2-1,2.2-2.2v-7.1C34.3,53.4,33.2,52.4,32,52.4z"/>
<path fill="#FFE600" d="M49.6,46.5c-0.9-0.9-2.2-0.9-3.1,0s-0.9,2.2,0,3.1l5,5c0.4,0.4,1,0.7,1.5,0.7c0.5,0,1.1-0.2,1.5-0.7 c0.9-0.9,0.9-2.2,0-3.1L49.6,46.5z"/>
<path fill="#FFE600" d="M61.8,29.8h-7.1c-1.2,0-2.2,1-2.2,2.2c0,1.2,1,2.2,2.2,2.2h7.1c1.2,0,2.2-1,2.2-2.2C64,30.8,63,29.8,61.8,29.8z"/>
<path fill="#FFE600" d="M48.1,18.2c0.5,0,1.1-0.2,1.5-0.7l5-5c0.9-0.9,0.9-2.2,0-3.1c-0.9-0.9-2.2-0.9-3.1,0l-5,5 c-0.9,0.9-0.9,2.2,0,3.1C46.9,18,47.4,18.2,48.1,18.2z"/>
</symbol><symbol id="dzen" viewBox="0 0 56 56">
	<path fill="#2c3036" d="M28,0h0A28,28,0,0,1,56,28h0A28,28,0,0,1,28,56h0A28,28,0,0,1,0,28H0A28,28,0,0,1,28,0Z"/>
	<path fill="#ffffff" d="M43.79,28.17v-.34c-7-.22-10.19-.38-12.75-2.81s-2.66-5.64-2.87-12.48h-.34c-.22,6.84-.39,10-2.87,12.48s-5.75,2.6-12.75,2.81v.34c7,.22,10.19.38,12.75,2.81s2.66,5.64,2.87,12.48h.34c.22-6.84.39-10,2.87-12.48S36.79,28.38,43.79,28.17Z"/>
</symbol><symbol id="evening" viewBox="0 0 64 64">
<path fill="#EA741F" d="M32,13.7c1.1,0,2-0.9,2-1.9V5.9c0-1-0.9-1.9-2-1.9c-1.1,0-2,0.9-2,1.9v5.9C30,12.9,30.9,13.7,32,13.7z"/>
<path fill="#EA741F" d="M19.9,15.5c0.3,0.6,1,0.9,1.7,0.9c0.3,0,0.7-0.1,0.9-0.3c0.9-0.5,1.2-1.7,0.7-2.6l-3-5.1 c-0.5-0.9-1.7-1.2-2.6-0.7c-0.9,0.5-1.2,1.7-0.7,2.6L19.9,15.5z"/>
<path fill="#EA741F" d="M7.9,20.8l5.2,3c0.3,0.2,0.6,0.3,0.9,0.3c0.7,0,1.3-0.3,1.7-0.9c0.5-0.9,0.2-2.1-0.7-2.6l-5.2-3 c-0.9-0.5-2.1-0.2-2.6,0.7C6.6,19.2,6.9,20.3,7.9,20.8z"/>
<path fill="#EA741F" d="M5.2,34.4h6c1.1,0,2-0.9,2-1.9c0-1.1-0.9-1.9-2-1.9h-6c-1.1,0-2,0.9-2,1.9C3.3,33.5,4.2,34.4,5.2,34.4z"/>
<path fill="#EA741F" d="M50.8,32.4c0,1.1,0.9,1.9,2,1.9h6c1.1,0,2-0.9,2-1.9c0-1.1-0.9-1.9-2-1.9h-6C51.6,30.5,50.8,31.4,50.8,32.4z"/>
<path fill="#EA741F" d="M49.9,24.1c0.3,0,0.7-0.1,0.9-0.3l5.2-3c0.9-0.5,1.2-1.7,0.7-2.6c-0.5-0.9-1.7-1.2-2.6-0.7l-5.2,3 c-0.9,0.5-1.2,1.7-0.7,2.6C48.6,23.7,49.3,24.1,49.9,24.1z"/>
<path fill="#EA741F" d="M41.4,16.3c0.3,0.2,0.6,0.3,0.9,0.3c0.7,0,1.3-0.3,1.7-0.9l3-5.1c0.5-0.9,0.2-2.1-0.7-2.6 c-0.9-0.5-2.1-0.2-2.6,0.7l-3,5.1C40.1,14.6,40.4,15.7,41.4,16.3z"/>
<path fill="#EA741F" d="M62,40.1H44.7c1.4-2.2,2.2-4.9,2.2-7.7c0-8.1-6.7-14.8-14.9-14.8c-8.2,0-14.9,6.6-14.9,14.8 c0,2.8,0.8,5.4,2.2,7.7H2c-1.1,0-2,0.9-2,1.9C0,43.1,0.9,44,2,44h19.7c0.2-0.3,0.4-0.5,0.7-0.8l5.4-5.3c2.4-2.3,6.2-2.3,8.5,0 l5.4,5.3c0.3,0.3,0.5,0.5,0.7,0.8H62c1.1,0,2-0.9,2-1.9C63.9,41,63.1,40.1,62,40.1z"/>
<path fill="#EA741F" d="M33.3,59.4c-0.7,0.7-2,0.7-2.7,0l-5.4-5.3c-0.7-0.7-0.7-1.9,0-2.7c0.7-0.7,2-0.7,2.7,0l2.2,2.1V42 c0-1.1,0.9-1.9,2-1.9c1.1,0,2,0.9,2,1.9v11.4l2-2.1c0.4-0.4,0.9-0.5,1.3-0.5s1,0.2,1.3,0.5c0.7,0.7,0.7,1.9,0,2.7L33.3,59.4z"/>
</symbol><symbol id="favorite" viewBox="0 0 24 24">

<path d="M14.8,6c0.7,1.5,1.5,1.9,3.4,2.1c0.5,0.1,2.2,0.4,4.5,0.6c2.9,0.4-3,4.6-3.9,5.5c-0.9,0.9,0.5,5.8,0.6,7.6
	c0.1,1.8-5.7-1.4-6.8-2c-1.1-0.7-3.9,1.5-6.8,2.5c-2.9,1.1-0.5-4.6-0.4-6.5s-3-3.3-4.7-5.4C-0.9,8.4,5.8,8,7.1,7.9
	c1.3-0.1,2.5-3.4,3.7-5.7C12.1-0.2,14.1,4.5,14.8,6z"/>
</symbol><symbol id="live" viewBox="0 0 32 26">

<path d="M16.1,9.9c-1.6-0.4-2.8,1.3-3.2,2.2c-0.4,1.5,0.4,3.8,2.7,4.2c2.3,0.4,3.2-2,3.4-3.1
	C19.2,12.1,18.1,10.4,16.1,9.9z"/>
<path d="M9.5,6.6C8.4,6,7.7,7.8,7.5,7.8C7.3,8.2,6.9,9.2,6.4,11c-0.5,2.2,0.2,6,1.4,7.7c1.3,1.6,2.3,0.7,2.9,0
	c0.5-0.7-0.4-2-1.1-4.2c-0.7-2.2,0.7-5.1,1.1-5.9l0,0C11.1,7.8,10.6,7.1,9.5,6.6z"/>
<path d="M6.1,0.1C5.2-0.4,4,0.9,3.6,1.6c-1.6,1.3-3,5.5-3.4,8.1c-0.4,2.7,0.2,7,1.4,11c1.3,4,4,5.9,4.9,4.9
	s0.7-1.8-0.9-3.8S3.2,15.4,3,12.2C2.8,9.1,5.2,4.9,6.1,3.4C7,2,7.2,0.9,6.1,0.1z"/>
<path d="M21.9,6.4c-0.9,0-1.1,1.8-0.5,2.6c0.3,0.9,0.9,3.1,0.9,5.3c0,2.7-2.5,2.9-0.9,4.6c1.6,1.6,2.9,0,3.6-2.2
	c0.7-2.2,0.4-5.3-0.2-7.7C24.2,6.6,22.8,6.4,21.9,6.4z"/>
<path d="M25,1.1c-0.5,0.9,0.5,2.2,0.7,2.4c0.9,1.3,2.8,5,3.1,8.8c0.4,4.8-2,8.8-2.9,10.1s-2,2.9-0.4,3.5
	c1.6,0.5,1.6,0,3.8-2.7c2.2-2.7,2.9-9,2.7-11.9c-0.2-2.9-2.3-7.1-3.6-9.5C27.1-0.8,25.5,0.1,25,1.1z"/>
</symbol><symbol id="morning" viewBox="0 0 64 64">
<path fill="#FFCC47" d="M32,13.7c1.1,0,2-0.9,2-1.9V5.9c0-1-0.9-1.9-2-1.9c-1.1,0-2,0.9-2,1.9v5.9C30,12.9,30.9,13.7,32,13.7z"/>
<path fill="#FFCC47" d="M19.9,15.5c0.3,0.6,1,0.9,1.7,0.9c0.3,0,0.7-0.1,0.9-0.3c0.9-0.5,1.2-1.7,0.7-2.6l-3-5.1 c-0.5-0.9-1.7-1.2-2.6-0.7c-0.9,0.5-1.2,1.7-0.7,2.6L19.9,15.5z"/>
<path fill="#FFCC47" d="M7.9,20.8l5.2,3c0.3,0.2,0.6,0.3,0.9,0.3c0.7,0,1.3-0.3,1.7-0.9c0.5-0.9,0.2-2.1-0.7-2.6l-5.2-3 c-0.9-0.5-2.1-0.2-2.6,0.7C6.6,19.2,6.9,20.3,7.9,20.8z"/>
<path fill="#FFCC47" d="M5.2,34.4h6c1.1,0,2-0.9,2-1.9c0-1.1-0.9-1.9-2-1.9h-6c-1.1,0-2,0.9-2,1.9C3.3,33.5,4.2,34.4,5.2,34.4z"/>
<path fill="#FFCC47" d="M50.8,32.4c0,1.1,0.9,1.9,2,1.9h6c1.1,0,2-0.9,2-1.9c0-1.1-0.9-1.9-2-1.9h-6C51.6,30.5,50.8,31.4,50.8,32.4z"/>
<path fill="#FFCC47" d="M49.9,24.1c0.3,0,0.7-0.1,0.9-0.3l5.2-3c0.9-0.5,1.2-1.7,0.7-2.6c-0.5-0.9-1.7-1.2-2.6-0.7l-5.2,3 c-0.9,0.5-1.2,1.7-0.7,2.6C48.6,23.7,49.3,24.1,49.9,24.1z"/>
<path fill="#FFCC47" d="M41.4,16.3c0.3,0.2,0.6,0.3,0.9,0.3c0.7,0,1.3-0.3,1.7-0.9l3-5.1c0.5-0.9,0.2-2.1-0.7-2.6 c-0.9-0.5-2.1-0.2-2.6,0.7l-3,5.1C40.1,14.6,40.4,15.7,41.4,16.3z"/>
<path fill="#FFCC47" d="M62,40.1H44.7c1.4-2.2,2.2-4.9,2.2-7.7c0-8.1-6.7-14.8-14.9-14.8c-8.2,0-14.9,6.6-14.9,14.8 c0,2.8,0.8,5.4,2.2,7.7H2c-1.1,0-2,0.9-2,1.9C0,43.1,0.9,44,2,44h19.7c0.2-0.3,0.4-0.5,0.7-0.8l5.4-5.3c2.4-2.3,6.2-2.3,8.5,0 l5.4,5.3c0.3,0.3,0.5,0.5,0.7,0.8H62c1.1,0,2-0.9,2-1.9C63.9,41,63.1,40.1,62,40.1z"/>
<path fill="#FFCC47" d="M33.3,40.6c-0.7-0.7-2-0.7-2.7,0L25.2,46c-0.7,0.7-0.7,1.9,0,2.7c0.7,0.7,2,0.7,2.7,0l2.2-2.1v11.5 c0,1.1,0.9,1.9,2,1.9c1.1,0,2-0.9,2-1.9V46.7l2,2.1c0.4,0.4,0.9,0.5,1.3,0.5s1-0.2,1.3-0.5c0.7-0.7,0.7-1.9,0-2.7L33.3,40.6z"/>
</symbol><symbol id="night" viewBox="0 0 64 64"><g fill="none">
<path d="M23.1359 6.77652C22.8266 6.41382 22.3146 6.29651 21.8772 6.49918C12.4799 10.8832 6.3999 20.4192 6.3999 30.7979C6.3999 45.5712 18.4213 57.6032 33.2052 57.6032C43.5732 57.6032 53.1092 51.5232 57.5039 42.1259C57.7065 41.6885 57.5892 41.1765 57.2266 40.8565C56.8639 40.5472 56.3412 40.5152 55.9359 40.7819C52.0639 43.3739 47.5412 44.7392 42.8586 44.7392C29.8452 44.7392 19.2532 34.1578 19.2532 21.1445C19.2532 16.4619 20.6293 11.9392 23.2213 8.05653C23.4879 7.66187 23.4559 7.13921 23.1359 6.77652Z" fill="#692BB8"/>
<path d="M50.0789 19.4807C49.9509 19.1074 49.6202 18.8301 49.2255 18.7661L45.3642 18.1794L43.6362 14.4781C43.4548 14.1048 43.0815 13.8701 42.6655 13.8701C42.2495 13.8701 41.8762 14.1048 41.6949 14.4781L39.9668 18.1794L36.1055 18.7661C35.7108 18.8301 35.3802 19.1074 35.2522 19.4807C35.1242 19.8648 35.2202 20.2807 35.4976 20.5688L38.3242 23.4594L37.6629 27.5661C37.5882 27.9607 37.7589 28.3661 38.1002 28.6114C38.4309 28.8354 38.8682 28.8674 39.2309 28.6648L42.6655 26.7661L46.1002 28.6648C46.2709 28.7607 46.4415 28.8035 46.6229 28.8035C46.8362 28.8035 47.0495 28.7395 47.2309 28.6114C47.5722 28.3661 47.7429 27.9607 47.6682 27.5661L47.0069 23.4594L49.8335 20.5688C50.1108 20.2807 50.2069 19.8648 50.0789 19.4807Z" fill="#692BB8"/>
</g></symbol><symbol id="ok" viewBox="0 0 56 56">
<path fill="#F7931E" d="M28,0L28,0c15.5,0,28,12.5,28,28l0,0c0,15.5-12.5,28-28,28l0,0C12.5,56,0,43.5,0,28l0,0C0,12.5,12.5,0,28,0z"/>
<path fill="#FFFFFF" d="M28.2,16.7c-3.2,0-5.9,2.6-5.9,5.9c0,3.3,2.6,5.9,5.9,5.9c3.2,0,5.9-2.6,5.9-5.9C34,19.4,31.4,16.7,28.2,16.7z M28.2,25.1c-1.3,0-2.4-1.1-2.4-2.4c0-1.3,1.1-2.4,2.4-2.4c1.3,0,2.4,1.1,2.4,2.4C30.6,24,29.5,25.1,28.2,25.1z"/>
<path fill="#FFFFFF" d="M30.2,33.2c2.3-0.5,3.8-1.6,3.8-1.7c0.7-0.6,0.8-1.6,0.2-2.3c-0.6-0.7-1.6-0.8-2.2-0.2c0,0-1.5,1.2-4,1.2 c-2.5,0-4-1.2-4-1.2c-0.7-0.6-1.7-0.4-2.2,0.2c-0.6,0.7-0.4,1.7,0.2,2.3c0.1,0.1,1.5,1.2,4,1.7l-3.4,3.5c-0.6,0.6-0.6,1.7,0,2.3 c0.3,0.3,0.7,0.4,1.1,0.4c0.4,0,0.8-0.2,1.1-0.5l3.1-3.3l3.4,3.4c0.6,0.6,1.6,0.6,2.3,0c0.6-0.6,0.6-1.6,0-2.3L30.2,33.2z"/>
</symbol><symbol id="play" viewBox="0 0 44 50">
<path d="M0.996029 8.85798C0.749775 -1.99003 4.89505 -0.639112 6.99847 1.39235C14.4887 5.4044 31.9317 15.0435 41.7818 21.5036C54.0945 29.5786 11.4618 47.2523 4.22813 49.8425C-3.00558 52.4326 1.30385 22.418 0.996029 8.85798Z"/>

</symbol><symbol id="rutube" viewBox="0 0 56 56">
<path fill="#07151E" d="M28,0L28,0c15.5,0,28,12.5,28,28l0,0c0,15.5-12.5,28-28,28l0,0C12.5,56,0,43.5,0,28l0,0C0,12.5,12.5,0,28,0z"/>
<path fill="#FFFFFF" d="M32.4,20.7H18.3v15.6h3.9v-5.1h7.5l3.4,5.1h4.4l-3.8-5.1c1.2-0.2,2-0.6,2.5-1.3c0.5-0.7,0.8-1.8,0.8-3.3v-1.2 c0-0.9-0.1-1.6-0.3-2.1c-0.2-0.5-0.4-1-0.8-1.4c-0.4-0.4-0.9-0.7-1.5-0.9C34,20.8,33.3,20.7,32.4,20.7z M31.8,27.8h-9.5v-3.7h9.5 c0.5,0,0.9,0.1,1.1,0.3c0.2,0.2,0.3,0.5,0.3,0.9v1.3c0,0.5-0.1,0.8-0.3,0.9C32.7,27.8,32.3,27.8,31.8,27.8z"/>
<circle fill="#F41240" cx="38.3" cy="18.9" r="2"/>
</symbol><symbol id="sber" viewBox="0 0 60 60">
<style type="text/css">
	.sberIconColor1{fill:#FFFFFF;}
	.sberIconColor2{fill:#21A038;}
	.sberIconColor3{fill:url(#sberIconGrad1);}
	.sberIconColor4{fill:url(#sberIconGrad2);}
	.sberIconColor5{fill:url(#sberIconGrad3);}
	.sberIconColor6{fill:url(#sberIconGrad4);}
	.sberIconColor7{fill:url(#sberIconGrad5);}
	.sberIconColor8{fill:url(#sberIconGrad6);}
</style>
<circle class="sberIconColor1" cx="30" cy="30" r="30"/>
<path class="sberIconColor2" d="M42.9,20.4c0.8,1,1.4,2.1,1.9,3.3l-14.7,11L24,30.7V26l6.1,3.9L42.9,20.4z"/>
<linearGradient id="sberIconGrad1" gradientUnits="userSpaceOnUse" x1="19.5147" y1="18.4558" x2="15.3434" y2="30.3539" gradientTransform="matrix(1 0 0 -1 0 59.8898)">
	<stop offset="0.14" style="stop-color:#F1E813"/>
	<stop offset="0.3" style="stop-color:#E6E418"/>
	<stop offset="0.58" style="stop-color:#C9DA26"/>
	<stop offset="0.89" style="stop-color:#A2CC39"/>
</linearGradient>
<path class="sberIconColor3" d="M17.7,30.4c0-0.2,0-0.4,0-0.6L14,29.5c0,0.3,0,0.5,0,0.8c0,2.1,0.4,4.3,1.2,6.3c0.8,2,2,3.8,3.5,5.3l2.6-2.7
	c-1.2-1.2-2.1-2.6-2.7-4.1C18,33.6,17.7,32,17.7,30.4z"/>
<linearGradient id="sberIconGrad2" gradientUnits="userSpaceOnUse" x1="19.7816" y1="40.4569" x2="30.3084" y2="44.4152" gradientTransform="matrix(1 0 0 -1 0 59.8898)">
	<stop offset="6.000000e-02" style="stop-color:#0FA7DF"/>
	<stop offset="0.54" style="stop-color:#0098F8"/>
	<stop offset="0.92" style="stop-color:#0290EA"/>
</linearGradient>
<path class="sberIconColor4" d="M30.1,17.8c0.2,0,0.4,0,0.6,0l0.2-3.8c-0.3,0-0.5,0-0.8,0c-2.1,0-4.2,0.4-6.2,1.2c-2,0.8-3.7,2-5.2,3.5l2.6,2.7
	c1.1-1.2,2.5-2.1,4-2.7S28.5,17.8,30.1,17.8z"/>
<linearGradient id="sberIconGrad3" gradientUnits="userSpaceOnUse" x1="29.0761" y1="15.5028" x2="40.9553" y2="18.1508" gradientTransform="matrix(1 0 0 -1 0 59.8898)">
	<stop offset="0.12" style="stop-color:#A2CC39"/>
	<stop offset="0.28" style="stop-color:#86C239"/>
	<stop offset="0.87" style="stop-color:#219F38"/>
</linearGradient>
<path class="sberIconColor5" d="M30.1,42.9c-0.2,0-0.4,0-0.6,0l-0.2,3.8c0.3,0,0.5,0,0.8,0c2.1,0,4.2-0.4,6.2-1.2c2-0.8,3.7-2,5.2-3.5l-2.6-2.7
	c-1.2,1.2-2.5,2.1-4,2.7C33.4,42.6,31.8,42.9,30.1,42.9z"/>
<linearGradient id="sberIconGrad4" gradientUnits="userSpaceOnUse" x1="29.3426" y1="44.5741" x2="39.509" y2="41.4785" gradientTransform="matrix(1 0 0 -1 0 59.8898)">
	<stop offset="6.000000e-02" style="stop-color:#0290EA"/>
	<stop offset="0.79" style="stop-color:#0C89CA"/>
</linearGradient>
<path class="sberIconColor6" d="M37.1,20l3.1-2.3c-2.9-2.4-6.4-3.6-10.1-3.6v3.8C32.6,17.8,35.1,18.5,37.1,20z"/>
<path class="sberIconColor2" d="M46.3,30.4c0-1-0.1-2-0.3-2.9L42.5,30c0,0.1,0,0.2,0,0.3c0,1.8-0.4,3.5-1.1,5.1c-0.7,1.6-1.7,3-3,4.2l2.5,2.8 c1.7-1.5,3-3.4,3.9-5.5C45.8,34.9,46.3,32.6,46.3,30.4z"/>
<linearGradient id="sberIconGrad5" gradientUnits="userSpaceOnUse" x1="19.0951" y1="18.9907" x2="30.1713" y2="14.9061" gradientTransform="matrix(1 0 0 -1 0 59.8898)">
	<stop offset="0.13" style="stop-color:#F1E813"/>
	<stop offset="0.3" style="stop-color:#EAE616"/>
	<stop offset="0.53" style="stop-color:#D8DF1F"/>
	<stop offset="0.8" style="stop-color:#BAD52D"/>
	<stop offset="0.98" style="stop-color:#A2CC39"/>
</linearGradient>
<path class="sberIconColor7" d="M30.1,42.9c-1.7,0-3.4-0.4-5-1.1c-1.6-0.7-3-1.8-4.2-3.1l-2.8,2.5c1.5,1.7,3.4,3.1,5.4,4 c2.1,0.9,4.3,1.4,6.5,1.4V42.9z"/>
<linearGradient id="sberIconGrad6" gradientUnits="userSpaceOnUse" x1="15.3172" y1="29.1062" x2="19.8531" y2="40.7489" gradientTransform="matrix(1 0 0 -1 0 59.8898)">
	<stop offset="7.000000e-02" style="stop-color:#A2CC39"/>
	<stop offset="0.26" style="stop-color:#81C45E"/>
	<stop offset="0.92" style="stop-color:#0FA7DF"/>
</linearGradient>
<path class="sberIconColor8" d="M21.8,21l-2.5-2.8c-1.7,1.5-3,3.4-3.9,5.5c-0.9,2.1-1.4,4.4-1.4,6.6h3.7c0-1.8,0.4-3.5,1.1-5.1 C19.5,23.6,20.5,22.2,21.8,21z"/>
</symbol><symbol id="search" viewBox="0 0 32 32">

<path d="M19.2,21.1c0.4,0.2,0.8,0.6,1,1.2c0.7,2.9,6.3,8.5,8.7,8.7c1.1,0.1,2.6-1,2.6-1.8c0-0.8-0.3-2.2-1.6-3.5
	c-0.2-0.2-0.3-0.4-0.5-0.6c-1.5-1.6-4.2-4.5-5.4-4.9c-0.7-0.3-1.1-0.3-1.4-0.3c-0.2,0-0.4,0-0.7-0.2c-0.3-0.2-0.6-0.5-0.8-0.7
	c-0.1-0.1-0.2-0.2-0.3-0.3c0.7-1.1,2.2-3.8,2.1-6.1c-0.1-2.9-0.8-7.3-4.4-9.5C15,1,10.3,0.2,7,1.9C3.7,3.6,0.7,6.8,0.5,11
	c-0.2,4.2,1.6,9.3,6.3,11c4.7,1.7,7.6,1.2,9.1,0.5c1.2-0.6,2.5-1.3,3-1.6C19,21,19.1,21,19.2,21.1z M5.4,8c0.8-1.1,2.8-3.8,6-3.5
	c3.9,0.3,7.7,1.9,8,5.7c0.3,3.8,0.1,5.9-2.5,7.8s-6,1.8-9,0.6c-3-1.2-3.8-5.4-3.8-6.9c0-1.2,0.7-2.7,1-3.3C5.1,8.4,5.2,8.3,5.4,8z"/>
</symbol><symbol id="souzmultfilm" viewBox="0 0 56 56">
<path fill="#FFFFFF" d="M28,0L28,0c15.5,0,28,12.5,28,28l0,0c0,15.5-12.5,28-28,28l0,0C12.5,56,0,43.5,0,28l0,0C0,12.5,12.5,0,28,0z"/>
<path fill="#0AC2E0" d="M32.3,17c-1.3,0-2.3,0.7-2.7,1.8l-0.4,0l0.1-1.8L27,16.9l-0.1,6.4l2,0.1l0.1-1.6l0.5,0c0.4,1.2,1.3,1.9,2.8,1.9 c1.9,0,3.1-1.4,3.1-3.6C35.3,17.6,33.6,17,32.3,17z M32.4,21.9c-0.6,0-1.1-0.2-1.1-0.7c0-0.4,0.3-0.7,0.9-0.7c0.6,0,1.1,0.2,1.1,0.7 C33.3,21.6,33,21.9,32.4,21.9z M17.1,25l-0.4,2.1l-0.7-2l-3,0.2l0.8,6.2l1.7-0.2l-0.1-2.6l0.8,2l1.4-0.1l0.4-2.2l0.2,2.7l1.8-0.2 v-6.2L17.1,25z"/>
<path fill="#FFC726" d="M23.3,25l-2.7-0.1c0,0,1.5,4.5,1.6,4.7c-0.2,0-0.4,0-0.7-0.1c-0.4-0.1-0.6-0.2-0.6-0.2s-0.2,1.2-0.3,1.5 c0.4,0.3,1.2,0.5,1.9,0.5c1.6,0,2.7-1.2,3.4-3.3c0.7-2.2,1-2.9,1-2.9l-2.7,0l-0.5,2.8L23.3,25z"/>
<path fill="#5CCF54" d="M31.9,31.3L30.3,25l-2.9,0L26,31.4l1.8,0l1.1-2.2l1.2,2.2L31.9,31.3z"/>
<path fill="#0AC2E0" d="M27,33.1l-1.5,6.1l1.8,0l0.9-1.9l0.9,1.9l1.8,0L29.5,33L27,33.1z"/>
<path fill="#F7822B" d="M19.7,20.4c0-0.3,0.4-3.2,0.4-3.2s-0.8-0.3-2-0.3c-1.5,0-3.3,0.7-3.3,3.3c0,2.3,1.3,3.3,3,3.3 c0.8,0,1.6-0.3,2.3-0.6c-0.1-0.4-0.3-1.1-0.5-1.6c-0.3,0.1-0.9,0.3-1.4,0.3c-0.5,0-0.9-0.2-0.9-0.7c0-0.5,0.4-0.7,1.1-0.7 C18.9,20.3,19.3,20.4,19.7,20.4z"/>
<path fill="#736EE3" d="M23.4,17c-1.5,0-3.2,0.9-3.2,3.2c0,2.5,1.6,3.3,3.2,3.3c1.5,0,3.3-0.8,3.3-3.5C26.6,17.9,25.1,17,23.4,17z M23.4,21.7c-0.6,0-1-0.3-1-0.7c0-0.4,0.4-0.7,1-0.7c0.5,0,1,0.2,1,0.6C24.4,21.4,24,21.7,23.4,21.7z"/>
<path fill="#FACF1A" d="M35.4,17.3l0.3,2.7c0,0,0.9-0.3,1.9-0.3c1,0,1.2,0.2,1.2,0.3c0,0.1-0.1,0.2-0.3,0.2c-0.2,0-1.7-0.1-1.7-0.1 l-0.1,1.1c0,0,1.7,0.1,1.9,0.2c0.2,0,0.2,0.1,0.2,0.2c0,0.1-0.1,0.3-0.4,0.3c-1.2,0-2-0.3-2.7-0.6c0,0.2-0.4,1.3-0.5,1.5 c0.6,0.3,1.8,0.8,3.4,0.8c1.9,0,2.2-0.9,2.2-1.6c0-0.6-0.3-1-0.7-1.2c0.5-0.3,0.8-0.8,0.8-1.7c0-1.2-1-2.2-2.8-2.2 C37.1,17,36,17.1,35.4,17.3z"/>
<path fill="#F7822B" d="M34.6,26.6c0-0.5,0.1-1.5,0.1-1.5l-2.3-0.1c0,0-0.2,6.1-0.2,6.3c0.6,0.1,1.7,0.3,2.9,0.3c1.6,0,2.4-1.2,2.4-2.6 C37.6,27.7,36.8,26.5,34.6,26.6z M35.2,29.9c-0.4,0-0.6,0-0.8-0.1c0-0.1,0-0.6,0-0.7c0.2,0,0.5,0,0.7,0c0.3,0,0.7,0.1,0.7,0.4 C35.8,29.8,35.5,29.9,35.2,29.9z"/>
<path fill="#FACF1A" d="M33,32.9L30.8,33l0.4,6.1c0,0,1.3,0.3,2.7,0.1C35.4,39,36,38,36,36.8c0-1.5-0.7-2.7-3-2.4L33,32.9z M33.8,37.5 c-0.3,0-0.6,0-0.8,0v-0.7c0.2,0,0.4-0.1,0.6-0.1c0.4,0,0.7,0.1,0.7,0.4C34.2,37.4,34.1,37.5,33.8,37.5z"/>
<path fill="#F7822B" d="M20.6,39l1.7,0l1.1-2.1l0,2.1l1.7,0l0.5-6l-2.3-0.1L22.6,35l0-1.9L20.3,33L20.6,39z"/>
<path fill="#5CCF54" d="M36.3,39L38,39l0.1-2.4l0.5,1.9l1.3,0.1l0.6-2l0,2.5l1.6,0.1l0.6-6.1L40,33l-0.6,1.6L39,32.9l-2.8-0.2L36.3,39z"/>
<path fill="#7D6EEB" d="M17.6,33.2c0-0.4,0-0.5,0-0.5l-2.1,0.1c0,0,0,0.2,0,0.5c-1.2,0.2-2.3,1.2-2.3,2.9c0.1,2.1,1.6,2.7,2.6,2.7 c0,0.3,0,0.5,0,0.5l1.8-0.1c0,0,0-0.2,0-0.5c1.2-0.2,2.5-1,2.4-2.9C20.1,33.8,18.5,33.3,17.6,33.2z M15.2,36.8 c0-0.5,0.5-0.6,0.7-0.6c0,0.1,0,0.9,0.1,1.2C15.6,37.4,15.2,37.3,15.2,36.8z M17.5,37.4c0-0.2,0-1,0-1.2c0.4,0,0.8,0.2,0.8,0.6 C18.3,37.1,17.9,37.3,17.5,37.4z"/>
<path fill="#736EE3" d="M37.6,27.8l1.6,0.1v3.3l1.8,0.1l0.4-3.3l1.6,0.1l0.4-3l-5.8-0.4L37.6,27.8z"/>
</symbol><symbol id="souzmultpark" viewBox="0 0 56 56"><g fill="none">
<rect width="56" height="56" rx="28" fill="white"/>
<path d="M19.4686 20.353C19.5072 20.0141 19.8378 17.1562 19.8378 17.1562C19.8378 17.1562 19.0556 16.8207 17.8315 16.8207C16.2845 16.8207 14.4397 17.5738 14.4397 20.1349C14.4397 22.392 15.7656 23.4492 17.5591 23.4492C18.3836 23.4492 19.2056 23.1917 19.9248 22.8782C19.7961 22.4413 19.5692 21.7461 19.4503 21.3266C19.1645 21.4367 18.5245 21.6075 17.9636 21.6075C17.4506 21.6075 17.0071 21.3993 17.0071 20.9461C17.0071 20.4395 17.46 20.2273 18.1703 20.2273C18.6127 20.2273 19.018 20.2941 19.4686 20.353Z" fill="#F5822A"/>
<path d="M23.2552 21.6683C22.6595 21.6683 22.2657 21.3842 22.2657 20.9906C22.2657 20.5972 22.6575 20.3132 23.2815 20.3132C23.839 20.3132 24.316 20.481 24.316 20.9488C24.316 21.373 23.9282 21.6683 23.2552 21.6683ZM23.2085 16.907C21.6395 16.907 19.9038 17.8133 19.9038 20.1353C19.9038 22.6633 21.5983 23.4922 23.1363 23.4922C24.7106 23.4922 26.5403 22.6895 26.5403 19.9967C26.5403 17.7869 25.0422 16.907 23.2085 16.907Z" fill="#6C6AB0"/>
<path d="M32.4988 21.8013C31.9036 21.8013 31.3427 21.5811 31.3427 21.0924C31.3427 20.6823 31.6787 20.4459 32.223 20.4459C32.8749 20.4459 33.3889 20.6594 33.3889 21.1243C33.3889 21.4941 33.1045 21.8013 32.4988 21.8013ZM32.3855 16.9465C30.9994 16.9465 30.0441 17.5917 29.6086 18.7551L29.1936 18.7339L29.3243 16.8876L26.967 16.7544L26.8497 23.1828L28.8444 23.2772L28.9702 21.6394L29.5273 21.6679C29.918 22.8617 30.911 23.5879 32.3855 23.5879C34.3511 23.5879 35.5256 22.1988 35.5256 19.9283C35.5256 17.5545 33.7358 16.9465 32.3855 16.9465Z" fill="#00BFE0"/>
<path d="M35.5939 17.2439C35.6503 17.6992 35.935 20.001 35.935 20.001C35.935 20.001 36.893 19.7296 37.888 19.7296C38.9499 19.7296 39.1282 19.8838 39.1282 20.0798C39.1282 20.2291 39.0331 20.2813 38.7864 20.2736C38.5399 20.2656 37.0014 20.1411 37.0014 20.1411L36.9298 21.2732C36.9298 21.2732 38.6459 21.4137 38.9067 21.4355C39.0626 21.4487 39.1583 21.5299 39.1583 21.6533C39.1583 21.7891 39.0318 21.9176 38.7881 21.9176C37.583 21.9176 36.6831 21.5918 36.0387 21.3558C35.9832 21.5146 35.5908 22.6372 35.5305 22.812C36.1069 23.1123 37.3561 23.5938 38.9751 23.5938C40.9453 23.5938 41.234 22.6646 41.234 22.0077C41.234 21.4392 40.8873 21.0233 40.4669 20.7841C40.9835 20.4634 41.3219 19.9513 41.3219 19.1212C41.3219 17.9194 40.2542 16.8904 38.4294 16.8904C37.3088 16.8904 36.1634 17.0531 35.5939 17.2439Z" fill="#FFD100"/>
<path d="M16.8252 25.0032L16.3916 27.1497L15.6436 25.0954L12.5637 25.3359L13.4256 31.5908L15.2066 31.4294L15.0915 28.8206L15.9389 30.877L17.3708 30.7342L17.809 28.4922L18.0415 31.1721L19.8759 31.0056V24.7649L16.8252 25.0032Z" fill="#00BFE0"/>
<path d="M23.1672 24.9556L20.4151 24.8943C20.4151 24.8943 21.9988 29.4341 22.0434 29.5627C21.8344 29.5569 21.5863 29.5477 21.2822 29.4793C20.9023 29.3938 20.6269 29.2606 20.6269 29.2606C20.6269 29.2606 20.4035 30.4533 20.342 30.7922C20.8032 31.0942 21.5613 31.292 22.2997 31.292C23.9948 31.292 25.0735 30.1306 25.8334 27.9743C26.5931 25.818 26.8204 25.0372 26.8204 25.0372L24.0711 24.9759L23.5813 27.7934L23.1672 24.9556Z" fill="#FFD100"/>
<path d="M32.0402 31.2647L30.3846 24.9716L27.3796 25.0108L25.9005 31.3447L27.7671 31.3204L28.9056 29.1007L30.1681 31.2892L32.0402 31.2647Z" fill="#70BF54"/>
<path d="M35.4113 29.8543C35.0231 29.8543 34.7625 29.812 34.5479 29.7595C34.5563 29.6307 34.5871 29.1575 34.5962 29.0343C34.8481 29.0116 35.0436 29.0085 35.3024 29.0199C35.654 29.0351 35.9694 29.1572 35.9694 29.4394C35.9694 29.7462 35.6821 29.8543 35.4113 29.8543ZM34.777 26.5332C34.8118 25.9864 34.8896 24.9884 34.8896 24.9884L32.5628 24.8575C32.5628 24.8575 32.3907 30.9923 32.3907 31.1333C32.998 31.263 34.1432 31.4814 35.4085 31.4814C37.0838 31.4814 37.8323 30.2833 37.8323 28.9276C37.8323 27.6908 37.0682 26.4513 34.777 26.5332Z" fill="#F5822A"/>
<path d="M37.884 27.7918L39.4807 27.893L39.486 31.1741L41.3395 31.2949L41.792 28.0395L43.4126 28.1426L43.8177 25.1282L37.8674 24.7407L37.884 27.7918Z" fill="#6C6AB0"/>
<path d="M20.7308 32.973L20.944 38.8448L18.906 38.9155L18.8133 36.3635L16.9792 36.4273L17.0719 38.9791L15.0337 39.0498L14.8206 33.1781L20.7308 32.973Z" fill="#636DB3"/>
<path d="M24.0984 37.0481L25.0717 37.0618L24.7345 35.8105L24.4816 35.7998L24.0984 37.0481ZM25.6197 38.3351L23.4805 38.3042L23.2895 38.9569L21.3441 38.9194L23.0776 33.0732L26.2103 33.1271L27.7354 39.0322L25.7899 38.9946L25.6197 38.3351Z" fill="#1CC0DA"/>
<path d="M30.2415 35.8157L30.3134 37.011C30.578 37.015 30.8809 36.9976 31.154 36.9819C32.0025 36.9332 32.393 36.6726 32.3681 36.2583C32.3437 35.8529 31.937 35.668 31.0475 35.7193C30.845 35.7309 30.5227 35.7697 30.2415 35.8157ZM30.7931 32.8413C32.7633 32.7279 33.9728 33.6003 34.0739 35.2799C34.1846 37.117 32.9337 38.0808 31.1652 38.1826C30.9125 38.1972 30.7102 38.2089 30.385 38.1977L30.4391 39.097L28.3068 39.2197L27.9438 33.1934C28.8864 33.0205 29.934 32.8908 30.7931 32.8413Z" fill="#F6863B"/>
<path d="M41.5616 32.9205L38.796 32.9498L37.6687 34.7423H37.4583L37.4282 32.9646L34.5725 33.0528L35.2337 39.0762L37.4583 39.0908L37.4433 37.2985H37.6386L38.6156 39.0466L40.8252 39.0319L39.6677 35.844L41.5616 32.9205Z" fill="#69BF63"/>
</g></symbol><symbol id="star" viewBox="0 0 24 24">
<path d="M14.8,6c0.7,1.5,1.5,1.9,3.4,2.1c0.5,0.1,2.2,0.4,4.5,0.6c2.9,0.4-3,4.6-3.9,5.5c-0.9,0.9,0.5,5.8,0.6,7.6 c0.1,1.8-5.7-1.4-6.8-2c-1.1-0.7-3.9,1.5-6.8,2.5c-2.9,1.1-0.5-4.6-0.4-6.5s-3-3.3-4.7-5.4C-0.9,8.4,5.8,8,7.1,7.9 c1.3-0.1,2.5-3.4,3.7-5.7C12.1-0.2,14.1,4.5,14.8,6z"/>
</symbol><symbol id="telegram" viewBox="0 0 56 56">
<path fill="#2AABEE" d="M28,56c15.5,0,28-12.5,28-28C56,12.5,43.5,0,28,0C12.5,0,0,12.5,0,28C0,43.5,12.5,56,28,56z"/>
<path fill-rule="evenodd" clip-rule="evenodd" fill="#FFFFFF" d="M12.7,27.7c8.2-3.5,13.6-5.9,16.3-7c7.8-3.2,9.4-3.8,10.4-3.8c0.2,0,0.7,0,1.1,0.3c0.3,0.2,0.3,0.5,0.4,0.8 c0,0.2,0.1,0.7,0,1.1c-0.4,4.4-2.2,15.2-3.2,20.1c-0.4,2.1-1.2,2.8-1.9,2.9c-1.6,0.1-2.9-1.1-4.4-2.1c-2.5-1.6-3.8-2.6-6.3-4.2 c-2.8-1.8-1-2.8,0.6-4.5c0.4-0.4,7.6-7,7.7-7.5c0-0.1,0-0.3-0.1-0.5c-0.2-0.1-0.4-0.1-0.6,0c-0.3,0-4.2,2.7-11.8,7.8 c-1.1,0.8-2.1,1.1-3,1.1c-1,0-2.9-0.6-4.4-1c-1.7-0.6-3.1-0.9-3-1.8C10.7,28.8,11.4,28.2,12.7,27.7z"/>
</symbol><symbol id="vk" viewBox="0 0 56 56"><g fill="none">
<rect width="56" height="56" rx="28" fill="white"/>
<path d="M29.5276 37.0551C20.0191 37.0551 14.5956 30.5364 14.3697 19.6895H19.1326C19.289 27.6509 22.8004 31.0232 25.5817 31.7185V19.6895H30.0665V26.5557C32.813 26.2602 35.6986 23.1313 36.672 19.6895H41.1569C40.79 21.4745 40.0588 23.1646 39.009 24.6542C37.9591 26.1437 36.6132 27.4006 35.0554 28.3462C36.7943 29.2102 38.3302 30.4332 39.5617 31.9344C40.7932 33.4356 41.6924 35.1809 42.1998 37.0551H37.2631C36.8075 35.4272 35.8816 33.97 34.6014 32.866C33.3212 31.7621 31.7437 31.0606 30.0665 30.8493V37.0551H29.5276Z" fill="#0077FF"/>
</g></symbol><symbol id="yandex" viewBox="0 0 60 60">
<circle fill="#FC3F1D" cx="30" cy="30" r="30"/>
<path fill="#FFFFFF" d="M32.4,22.1h-1.7c-3.1,0-4.7,1.6-4.7,3.9c0,2.6,1.1,3.9,3.4,5.4l1.9,1.3l-5.5,8.2h-4.1l4.9-7.4 c-2.8-2-4.4-4-4.4-7.4c0-4.2,2.9-7.1,8.5-7.1h5.5v21.8h-3.8V22.1z"/>
</symbol><symbol id="youtube" viewBox="0 0 56 56">
<circle fill="#FF0000" cx="28" cy="28" r="28"/>
<path fill="#FFFFFF" d="M23.8,34.1l10.3-6l-10.3-6V34.1z"/>
</symbol></svg>