<svg width="9" height="18" viewBox="0 0 9 18" fill="none" xmlns="http://www.w3.org/2000/svg">
<path opacity="0.5" fill-rule="evenodd" clip-rule="evenodd" d="M8.66964 17.6224C8.77436 17.503 8.85744 17.3611 8.91413 17.2049C8.97082 17.0488 9 16.8813 9 16.7123C9 16.5432 8.97082 16.3758 8.91413 16.2196C8.85744 16.0634 8.77436 15.9216 8.66964 15.8022L2.71655 8.99966L8.66964 2.19715C8.88079 1.95577 8.99941 1.62841 8.99941 1.28706C8.99941 0.945709 8.88079 0.61834 8.66964 0.37697C8.45849 0.135599 8.17211 -4.01056e-08 7.87349 -5.45712e-08C7.57488 -6.90369e-08 7.2885 0.135599 7.07735 0.37697L0.330364 8.08957C0.225643 8.20898 0.142559 8.35083 0.0858702 8.507C0.0291809 8.66317 3.61661e-07 8.83058 3.54992e-07 8.99966C3.48323e-07 9.16874 0.0291809 9.33616 0.0858701 9.49233C0.142559 9.6485 0.225643 9.79034 0.330364 9.90975L7.07735 17.6224C7.1818 17.7421 7.3059 17.837 7.44251 17.9018C7.57913 17.9666 7.72558 18 7.87349 18C8.0214 18 8.16786 17.9666 8.30448 17.9018C8.44109 17.837 8.56518 17.7421 8.66964 17.6224Z" fill="#F7FAF7"/>
</svg>
