<svg xmlns="http://www.w3.org/2000/svg" width="68" height="64" viewBox="0 0 68 64"><path d="M34,63.85c-14.7,0-22.08,0-26.73-3.39A17.73,17.73,0,0,1,.06,48c-.6-5.72,3.09-12.11,10.44-24.85S21.54,4,26.8,1.68a17.71,17.71,0,0,1,14.4,0C46.46,4,50.15,10.41,57.5,23.14S68.54,42.26,67.94,48a17.73,17.73,0,0,1-7.21,12.47C56.08,63.85,48.7,63.85,34,63.85Zm0-59.7a13.75,13.75,0,0,0-5.58,1.19C24.35,7.15,20.88,13.16,14,25.14S3.58,43.14,4,47.57a13.74,13.74,0,0,0,5.58,9.66c3.6,2.62,10.54,2.62,24.38,2.62s20.78,0,24.38-2.62A13.74,13.74,0,0,0,64,47.57c.46-4.43-3-10.44-9.93-22.43s-10.38-18-14.45-19.8A13.75,13.75,0,0,0,34,4.15Zm0,34.56a2,2,0,0,1-2-2V17.86a2,2,0,0,1,4,0V36.71A2,2,0,0,1,34,38.71Z" fill="#ffffff"/><path d="M34,43a3.14,3.14,0,1,0,3.14,3.14A3.15,3.15,0,0,0,34,43Z" fill="#ffffff"/></svg>