<svg xmlns="http://www.w3.org/2000/svg" viewBox="0 0 600 600" width="600" height="600"><path d="M314.91,320.33c12.95-20.35,23.9-40.45,37.71-58.34,10-13,23.08-24.11,36.21-34.2,15.81-12.15,33.67-9.58,50.67-1.64,26.54,12.39,45,33.62,61.35,57.17,24.68,35.5,40.88,74.81,51,116.43,11,45.1,14.78,90.77,1.47,136.27-8.24,28.19-24.55,50.5-53.63,58.71-37.55,10.6-66.8,1.86-90.32-32.43-7.6-11.09-14-23-21.05-34.47-1.31-2.12-3.32-3.8-5-5.68-1.47,2.11-3.53,4-4.3,6.36-7.55,22.7-19.44,42.15-38.75,57.09-25,19.36-55.18,12.16-75-7.15-16.35-15.94-26.18-35.68-32.87-57.19a15,15,0,0,0-5-7.62c-2.57,5.93-5.23,11.82-7.7,17.8C210.2,554.52,198,575.35,175.6,588.7c-39,23.24-95.49,10.39-118.28-36.26C38.73,514.38,34.51,473.68,41.13,432,44.52,410.6,47,388.85,53,368.19c8.27-28.48,18.69-56.41,29.62-84a309.07,309.07,0,0,1,66.83-103.4c16.78-17.15,36.17-30.55,60.5-34.25,18.28-2.78,32.74,6.18,45,18.32,15.45,15.25,25.61,34.26,32.65,54.42,8.47,24.22,15.2,49.06,22.18,73.78C312.25,301.73,313.18,310.83,314.91,320.33Z" style="fill:#90fd64"/><path d="M489.33,65.69c-.9,42.57-32.84,85.29-71.13,84.24-41.95-1.15-79-34.47-79.09-78.19C339,31.36,374.4-.89,415.54,0,453.49.86,493.15,31.46,489.33,65.69Z" style="fill:#fe7653"/></svg>