<?xml version="1.0" encoding="UTF-8" standalone="no"?><svg xmlns:svg="http://www.w3.org/2000/svg" xmlns="http://www.w3.org/2000/svg" xmlns:xlink="http://www.w3.org/1999/xlink" version="1.0" width="28px" height="28px" viewBox="0 0 128 128" xml:space="preserve"><rect x="0" y="0" width="100%" height="100%" fill="#FFF0" /><g><path d="M59.6 0h8v40h-8V0z" fill="#1d9dd8"/><path d="M59.6 0h8v40h-8V0z" fill="#d2ebf7" transform="rotate(30 64 64)"/><path d="M59.6 0h8v40h-8V0z" fill="#d2ebf7" transform="rotate(60 64 64)"/><path d="M59.6 0h8v40h-8V0z" fill="#d2ebf7" transform="rotate(90 64 64)"/><path d="M59.6 0h8v40h-8V0z" fill="#d2ebf7" transform="rotate(120 64 64)"/><path d="M59.6 0h8v40h-8V0z" fill="#bbe1f3" transform="rotate(150 64 64)"/><path d="M59.6 0h8v40h-8V0z" fill="#a5d8ef" transform="rotate(180 64 64)"/><path d="M59.6 0h8v40h-8V0z" fill="#8eceeb" transform="rotate(210 64 64)"/><path d="M59.6 0h8v40h-8V0z" fill="#77c4e8" transform="rotate(240 64 64)"/><path d="M59.6 0h8v40h-8V0z" fill="#60bae4" transform="rotate(270 64 64)"/><path d="M59.6 0h8v40h-8V0z" fill="#4ab1e0" transform="rotate(300 64 64)"/><path d="M59.6 0h8v40h-8V0z" fill="#33a7dc" transform="rotate(330 64 64)"/><animateTransform attributeName="transform" type="rotate" values="0 64 64;30 64 64;60 64 64;90 64 64;120 64 64;150 64 64;180 64 64;210 64 64;240 64 64;270 64 64;300 64 64;330 64 64" calcMode="discrete" dur="960ms" repeatCount="indefinite"></animateTransform></g></svg>