<svg width="34" height="35" viewBox="0 0 34 35" fill="none" xmlns="http://www.w3.org/2000/svg">
                                                                <path d="M10.4115 14.6966C10.4115 14.4068 10.1769 14.1739 9.88888 14.1739C9.59911 14.1757 9.36622 14.4104 9.36622 14.6984C9.36622 14.9881 9.60089 15.221 9.88888 15.221C10.1769 15.221 10.4115 14.9864 10.4115 14.6966" stroke="#E31513" stroke-width="2" stroke-linecap="round" stroke-linejoin="round"></path>
                                                                <path d="M9.88867 14.175V5.44442C9.88867 2.98932 11.878 1 14.3331 1V1C16.7882 1 18.7775 2.98932 18.7775 5.44442V6.4613" stroke="#E31513" stroke-width="2" stroke-linecap="round" stroke-linejoin="round"></path>
                                                                <path d="M13.7324 22.6591C15.1671 23.6511 16.9022 24.2396 18.7777 24.2396C19.9546 24.2396 21.071 23.9996 22.0986 23.5836L27.4479 28.9258C27.7821 29.2582 28.2337 29.4449 28.703 29.4449H31.2221C32.2034 29.4449 32.9999 28.6484 32.9999 27.6671V25.1569C32.9999 24.684 32.8114 24.2325 32.4772 23.8983L27.0657 18.4938C27.439 17.5143 27.6666 16.4619 27.6666 15.3507C27.6666 10.4423 23.6861 6.46191 18.7777 6.46191C17.384 6.46191 16.0826 6.81036 14.9093 7.3828" stroke="#E31513" stroke-width="2" stroke-linecap="round" stroke-linejoin="round"></path>
                                                                <path fill-rule="evenodd" clip-rule="evenodd" d="M6.33997 22.8099C5.34975 22.3779 4.41465 21.7753 3.60398 20.9646C0.132005 17.4926 0.132005 11.866 3.60398 8.39402C7.07596 4.92204 12.7026 4.92204 16.1746 8.39402C19.6466 11.866 19.6466 17.4926 16.1746 20.9646C15.3675 21.7717 14.4359 22.3708 13.451 22.8028L13.4564 30.3352C13.4564 30.8081 13.2697 31.2597 12.9355 31.5939L11.1613 33.3681C10.4662 34.0632 9.34084 34.0632 8.64751 33.3681L6.86619 31.5868C6.53374 31.2543 6.3453 30.8028 6.3453 30.3317L6.33997 22.8099Z" stroke="#E31513" stroke-width="2" stroke-linecap="round" stroke-linejoin="round"></path>
                                                            </svg>