<svg width="34" height="35" viewBox="0 0 34 35" fill="none" xmlns="http://www.w3.org/2000/svg">
                                                                <path d="M33.0009 5.44423V3.66645C33.0009 2.59978 32.2898 1.88867 31.2231 1.88867H29.4453" stroke="#E31513" stroke-width="2" stroke-linecap="round" stroke-linejoin="round"></path>
                                                                <path d="M33.0009 23.2227V25.0004C33.0009 26.0671 32.2898 26.7782 31.2231 26.7782H29.4453" stroke="#E31513" stroke-width="2" stroke-linecap="round" stroke-linejoin="round"></path>
                                                                <path d="M8.11133 5.44423V3.66645C8.11133 2.59978 8.82244 1.88867 9.88911 1.88867H11.6669" stroke="#E31513" stroke-width="2" stroke-linecap="round" stroke-linejoin="round"></path>
                                                                <path d="M18.7773 1.88889H22.3329" stroke="#E31513" stroke-width="2" stroke-linecap="round" stroke-linejoin="round"></path>
                                                                <path d="M33 16.1112V12.5557" stroke="#E31513" stroke-width="2" stroke-linecap="round" stroke-linejoin="round"></path>
                                                                <path fill-rule="evenodd" clip-rule="evenodd" d="M20.5556 33.8885H4.55556C2.6 33.8885 1 32.2885 1 30.3329V14.3329C1 12.3773 2.6 10.7773 4.55556 10.7773H20.5556C22.5111 10.7773 24.1111 12.3773 24.1111 14.3329V30.3329C24.1111 32.2885 22.5111 33.8885 20.5556 33.8885Z" stroke="#E31513" stroke-width="2" stroke-linecap="round" stroke-linejoin="round"></path>
                                                                <path d="M12.5569 17.8887V26.7776" stroke="#E31513" stroke-width="2" stroke-linecap="round" stroke-linejoin="round"></path>
                                                                <path d="M17.0002 22.3332H8.11133" stroke="#E31513" stroke-width="2" stroke-linecap="round" stroke-linejoin="round"></path>
                                                            </svg>