<?xml version="1.0" encoding="UTF-8"?><!DOCTYPE svg PUBLIC "-//W3C//DTD SVG 1.1//EN" "http://www.w3.org/Graphics/SVG/1.1/DTD/svg11.dtd"><svg xmlns="http://www.w3.org/2000/svg" xmlns:xlink="http://www.w3.org/1999/xlink"><defs>
<clipPath id="clip0_904_20851">
<rect width="18" height="18"/>
</clipPath>
</defs><symbol id="arrow-accordion" viewBox="0 0 19 11">
<path d="M18 1.81641L9.457 8.81641L1 1.81641" stroke="#4C5F7E" stroke-width="2.2"/>
</symbol><symbol id="arrow-right" viewBox="0 0 16 16">
<path d="M4.90776 15.7193L12.6751 8.71929C12.8831 8.53176 13 8.27745 13 8.01229C13 7.74712 12.8831 7.49282 12.6751 7.30529L4.90776 0.305286C4.8054 0.209776 4.68296 0.133595 4.54758 0.0811863C4.4122 0.0287781 4.2666 0.00119019 4.11926 3.62396e-05C3.97193 -0.00111771 3.82582 0.0241842 3.68945 0.0744648C3.55308 0.124745 3.42919 0.198999 3.325 0.292892C3.22082 0.386786 3.13842 0.498439 3.08263 0.621335C3.02684 0.744231 2.99876 0.87591 3.00004 1.00869C3.00132 1.14147 3.03193 1.27269 3.09009 1.39469C3.14824 1.5167 3.23278 1.62704 3.33876 1.71929L9.21199 7.01229L10.2607 8.01229L9.21199 9.01229L3.33876 14.3053C3.13663 14.4939 3.02479 14.7465 3.02731 15.0087C3.02984 15.2709 3.14654 15.5217 3.35227 15.7071C3.558 15.8925 3.83631 15.9977 4.12725 16C4.41819 16.0022 4.69848 15.9014 4.90776 15.7193Z"/>
</symbol><symbol id="btn-arrow" viewBox="0 0 15 12"><path d="M14.64,5.6,10,.93A.63.63,0,0,0,9.5.75.66.66,0,0,0,9,.94a.63.63,0,0,0-.2.47A.7.7,0,0,0,9,1.88L12.56,5.4H.83a.67.67,0,0,0,0,1.34H12.56L9,10.27a.51.51,0,0,0-.15.21.76.76,0,0,0-.06.26.75.75,0,0,0,0,.26,1.07,1.07,0,0,0,.15.22.64.64,0,0,0,.22.14.58.58,0,0,0,.26.05.7.7,0,0,0,.25-.05.71.71,0,0,0,.22-.15l4.67-4.67a.68.68,0,0,0,0-.94Z"/></symbol><symbol id="call" viewBox="0 0 14 14"><path d="M13.18,10.44A12.44,12.44,0,0,0,10,8.67c-.19,0-.33.19-.71.64a4.84,4.84,0,0,1-.57.63,5.39,5.39,0,0,1-1.1-.41A6.83,6.83,0,0,1,4.51,6.4a5.36,5.36,0,0,1-.4-1.1,4.76,4.76,0,0,1,.62-.57c.45-.38.61-.52.64-.71A12.44,12.44,0,0,0,3.6.86.59.59,0,0,0,3.17.58C2.69.58.54,3.25.54,3.59c0,0,0,2.8,3.55,6.37s6.33,3.55,6.36,3.55c.35,0,3-2.16,3-2.64A.59.59,0,0,0,13.18,10.44Z"/><path d="M10.23,6.58h.92A3.69,3.69,0,0,0,7.46,2.89v.92a2.77,2.77,0,0,1,2,.82A2.74,2.74,0,0,1,10.23,6.58Z"/><path d="M12.54,6.58h.92a6,6,0,0,0-6-6v.93a5.07,5.07,0,0,1,5.08,5.07Z"/></symbol><symbol id="check" viewBox="0 0 12 12"><path d="M4.6,7.4L1.8,4.6L0.3,6l4.2,4.2l7.1-7.1l-1.4-1.4L4.6,7.4z"/></symbol><symbol id="cross" viewBox="0 0 18 18">
<path d="M10.4,9l7.3-7.3c0.4-0.4,0.4-1,0-1.4s-1-0.4-1.4,0L9,7.6L1.7,0.3c-0.4-0.4-1-0.4-1.4,0s-0.4,1,0,1.4L7.6,9 l-7.3,7.3c-0.4,0.4-0.4,1,0,1.4C0.5,17.9,0.7,18,1,18s0.5-0.1,0.7-0.3L9,10.4l7.3,7.3c0.2,0.2,0.5,0.3,0.7,0.3s0.5-0.1,0.7-0.3 c0.4-0.4,0.4-1,0-1.4L10.4,9z"/>
</symbol><symbol id="list-arrow" viewBox="0 0 10 10"><path d="M9,5,1,9.5V.5Z"/></symbol><symbol id="mark-red" viewBox="0 0 18 18">
<path d="M9 1.125C5.27197 1.125 2.25 4.14697 2.25 7.875C2.25 9.73834 3.00499 11.4255 4.22606 12.6469C5.44748 13.869 8.325 15.6375 8.49375 17.4937C8.51905 17.7721 8.72055 18 9 18C9.27945 18 9.48095 17.7721 9.50625 17.4937C9.675 15.6375 12.5525 13.869 13.7739 12.6469C14.995 11.4255 15.75 9.73834 15.75 7.875C15.75 4.14697 12.728 1.125 9 1.125Z"/>
<path d="M9.00002 10.2377C10.3048 10.2377 11.3625 9.17993 11.3625 7.87517C11.3625 6.57039 10.3048 5.51267 9.00002 5.51267C7.69526 5.51267 6.63752 6.57039 6.63752 7.87517C6.63752 9.17993 7.69526 10.2377 9.00002 10.2377Z"/>
</symbol><symbol id="mark-stroke" viewBox="0 0 34 46">
	<path d="M17,1.8c-4.1,0-7.9,1.6-10.8,4.5S1.8,13,1.8,17c0,3.4,2.7,9.2,7.5,16.3c3.1,4.6,6.3,8.4,7.8,10.2 c1.5-1.6,4.6-5.5,7.9-10.4c2.1-3.2,3.8-6.2,5.1-8.9c1.4-3,2.1-5.5,2.1-7.3c0-4.1-1.6-7.9-4.5-10.8C24.9,3.4,21.1,1.8,17,1.8z M17,0 c9.4,0,17,7.6,17,17c0,9.3-15.7,29-17,29c0,0,0,0,0,0C16.1,45.5,0,26.4,0,17C0,7.6,7.6,0,17,0z"/>
	<path d="M17.7,25c-4.1,0-7.5-3.1-7.5-7s3.4-7,7.5-7c4.1,0,7.5,3.1,7.5,7S21.8,25,17.7,25z M17.7,12.8 c-3.1,0-5.7,2.3-5.7,5.2s2.6,5.2,5.7,5.2s5.7-2.3,5.7-5.2S20.8,12.8,17.7,12.8z"/>
</symbol><symbol id="mark" viewBox="0 0 18 23">
<path d="M8.83203 0C11.0864 0 13.2484 0.895533 14.8424 2.48959C16.4365 4.08365 17.332 6.24566 17.332 8.5C17.332 13.194 9.27603 23.211 8.83203 22.955C8.38803 22.699 0.332031 13.194 0.332031 8.5C0.332031 6.24566 1.22756 4.08365 2.82162 2.48959C4.41568 0.895533 6.57769 0 8.83203 0Z"/>
<path d="M8.83203 12.5859C11.0412 12.5859 12.832 10.7951 12.832 8.58594C12.832 6.3768 11.0412 4.58594 8.83203 4.58594C6.62289 4.58594 4.83203 6.3768 4.83203 8.58594C4.83203 10.7951 6.62289 12.5859 8.83203 12.5859Z"/>
</symbol><symbol id="metro-contact" viewBox="0 0 20 14">
<path d="M18.618 12.1252L13.935 0.992188L9.986 7.50119L6.037 0.992188L1.353 12.1282H0V13.8022H7.052V12.1282H6.008L7.024 9.36319L9.986 13.9332L12.948 9.36319L13.964 12.1282H12.919V13.8022H20V12.1282L18.618 12.1252Z"/>
</symbol><symbol id="metro-mobile" viewBox="0 0 18 22">
<path d="M8.9959 5.25098C8.25442 5.25236 7.53 5.47359 6.91425 5.88669C6.29851 6.29979 5.81908 6.8862 5.53661 7.57177C5.25413 8.25734 5.1813 9.01127 5.32732 9.73824C5.47333 10.4652 5.83163 11.1325 6.35692 11.6559C6.8822 12.1792 7.55088 12.535 8.27838 12.6783C9.00589 12.8216 9.75954 12.7459 10.444 12.4609C11.1286 12.1759 11.7132 11.6943 12.124 11.077C12.5348 10.4597 12.7533 9.73446 12.7519 8.99298C12.749 7.99901 12.3519 7.04679 11.6477 6.34526C10.9436 5.64373 9.98988 5.25018 8.9959 5.25098ZM8.9959 11.285C8.54457 11.2836 8.10376 11.1486 7.72907 10.897C7.35437 10.6454 7.06259 10.2884 6.89051 9.87119C6.71843 9.45394 6.67377 8.99508 6.76216 8.55249C6.85055 8.1099 7.06803 7.7034 7.38717 7.38426C7.70631 7.06511 8.11282 6.84763 8.55541 6.75924C8.99801 6.67085 9.45686 6.71551 9.8741 6.88759C10.2913 7.05967 10.6483 7.35145 10.8999 7.72614C11.1515 8.10084 11.2865 8.54165 11.2879 8.99298C11.2858 9.60021 11.0436 10.182 10.6143 10.6113C10.1849 11.0407 9.60313 11.2829 8.9959 11.285Z"/>
<path d="M13.499 13.5088L13.513 13.4948C14.4018 12.6025 15.0064 11.4669 15.2503 10.2314C15.4943 8.99579 15.3666 7.71565 14.8836 6.55256C14.4005 5.38946 13.5836 4.39557 12.5361 3.69638C11.4886 2.99718 10.2574 2.62402 8.998 2.62402C7.73858 2.62402 6.50739 2.99718 5.45989 3.69638C4.41238 4.39557 3.59553 5.38946 3.11245 6.55256C2.62938 7.71565 2.50175 8.99579 2.74568 10.2314C2.98961 11.4669 3.59416 12.6025 4.483 13.4948C4.6237 13.6342 4.81391 13.7123 5.012 13.7118C5.10824 13.7122 5.20361 13.6935 5.29259 13.6569C5.38158 13.6202 5.46244 13.5663 5.53049 13.4983C5.59854 13.4302 5.65244 13.3494 5.68909 13.2604C5.72574 13.1714 5.7444 13.076 5.744 12.9798C5.73946 12.78 5.65649 12.5899 5.513 12.4508C4.83012 11.7622 4.36656 10.8867 4.18082 9.93483C3.99509 8.98297 4.09551 7.99744 4.46941 7.10261C4.84332 6.20778 5.47393 5.44378 6.28167 4.90705C7.08941 4.37032 8.03805 4.08492 9.00785 4.08687C9.97765 4.08882 10.9251 4.37804 11.7307 4.91802C12.5363 5.458 13.1638 6.22453 13.5341 7.12085C13.9044 8.01718 14.0009 9.00312 13.8113 9.95421C13.6217 10.9053 13.1547 11.7789 12.469 12.4648L6.096 18.8378L7.14 19.8688L13.499 13.5088Z"/>
<path d="M18 8.9909C17.9985 7.51194 17.6326 6.05615 16.9345 4.75229C16.2365 3.44842 15.2279 2.33666 13.998 1.51535C12.7681 0.694039 11.3547 0.188486 9.88285 0.0434086C8.41103 -0.101669 6.92614 0.1182 5.55952 0.683567C4.1929 1.24894 2.98666 2.14238 2.0475 3.28487C1.10835 4.42736 0.465212 5.78368 0.174989 7.23388C-0.115234 8.68408 -0.0436022 10.1834 0.383548 11.5994C0.810698 13.0153 1.5802 14.3041 2.624 15.3519C2.69286 15.422 2.77526 15.4774 2.8662 15.5147C2.95714 15.5521 3.05472 15.5705 3.153 15.5689C3.34665 15.5673 3.53193 15.4897 3.66886 15.3528C3.8058 15.2158 3.88343 15.0306 3.885 14.8369C3.88046 14.6371 3.79748 14.4471 3.654 14.3079C2.78009 13.4298 2.13609 12.3498 1.77897 11.1635C1.42185 9.97721 1.36262 8.72119 1.60652 7.50656C1.85042 6.29193 2.38994 5.15614 3.17733 4.19967C3.96472 3.2432 4.97571 2.49555 6.12087 2.02285C7.26602 1.55016 8.51002 1.367 9.74282 1.48957C10.9756 1.61215 12.1592 2.03669 13.1889 2.72562C14.2185 3.41456 15.0625 4.34665 15.6461 5.43944C16.2297 6.53223 16.535 7.75202 16.535 8.9909C16.5386 9.98135 16.345 10.9626 15.9656 11.8775C15.5862 12.7924 15.0285 13.6227 14.325 14.3199L7.952 20.6909L8.994 21.7249L15.367 15.3519C16.2025 14.5173 16.8649 13.526 17.3163 12.4347C17.7676 11.3435 17.9989 10.1738 17.997 8.9929L18 8.9909Z"/>
</symbol><symbol id="metro" viewBox="0 0 16 10"><path d="M14.66,8.6,11,0,8,5l-3-5L1.32,8.6h-1V9.9H5.72V8.6h-.8L5.7,6.47,8,10l2.28-3.53.79,2.13h-.8V9.9h5.47V8.6Z"/></symbol><symbol id="navigation" viewBox="0 0 18 18">
<linearGradient id="navGrad" gradientUnits="userSpaceOnUse" x1="1.336068e-03" y1="-9.631134e-04" x2="18.0021" y2="17.9998" gradientTransform="matrix(1 0 0 -1 0 18)">
	<stop offset="0"/>
	<stop offset="1"/>
</linearGradient>
	<path d="M18,0L0,7.3l7.9,2.8l2.8,7.9L18,0z"/>
	<path d="M18,0L7.6,10.4l3.1,7.6L18,0z"/>
	<path d="M7.3,10.7l3.4,7.3L9.6,8.4L0,7.3L7.3,10.7z"/>
</symbol><symbol id="parking" viewBox="0 0 18 18">
<g clip-path="url(#clip0_904_20851)">
<path d="M16.0069 0H1.99311C0.892346 0 0 0.892346 0 1.99311V16.0069C0 17.1077 0.892346 18 1.99311 18H16.0069C17.1077 18 18 17.1077 18 16.0069V1.99311C18 0.892346 17.1077 0 16.0069 0Z"/>
<path d="M3.30762 1.61884H9.62585C11.5045 1.61885 12.9448 2.03743 13.9468 2.87457C14.9553 3.70515 15.4596 4.89167 15.4596 6.43414C15.4596 7.98322 14.9553 9.17634 13.9468 10.0135C12.9448 10.8441 11.5045 11.2593 9.62585 11.2593H7.11438V16.3812H3.30762V1.61884ZM7.11438 4.3775V8.50067H9.22046C9.95873 8.50068 10.5289 8.3227 10.931 7.96674C11.3331 7.6042 11.5342 7.09333 11.5342 6.43414C11.5342 5.77497 11.3331 5.26741 10.931 4.91144C10.5289 4.55549 9.95873 4.37751 9.22046 4.3775H7.11438Z"/>
</g>

</symbol><symbol id="phone" viewBox="0 0 33 33">
<rect x="0.5" y="0.5" width="32" height="32" rx="16"/>
<path d="M24.742 21.0274C24.2041 20.5764 21.0497 18.5788 20.5254 18.6705C20.2792 18.7142 20.0909 18.924 19.5869 19.5253C19.3538 19.8212 19.0979 20.0984 18.8214 20.3542C18.3148 20.2318 17.8244 20.05 17.3605 19.8127C15.5409 18.9268 14.071 17.4564 13.1857 15.6367C12.9483 15.1727 12.7665 14.6823 12.6442 14.1757C12.9 13.8992 13.1771 13.6433 13.4731 13.4102C14.0737 12.9062 14.2842 12.7191 14.3278 12.4717C14.4195 11.9462 12.4202 8.79297 11.9709 8.25512C11.7826 8.03235 11.6115 7.88281 11.3925 7.88281C10.7574 7.88281 7.88477 11.4348 7.88477 11.8951C7.88477 11.9327 7.9463 15.6305 12.6165 20.3819C17.3678 25.052 21.0657 25.1136 21.1032 25.1136C21.5635 25.1136 25.1155 22.241 25.1155 21.6059C25.1155 21.3868 24.966 21.2157 24.742 21.0274Z"/>
<path d="M20.8075 15.884H22.0383C22.0368 14.5788 21.5177 13.3274 20.5948 12.4045C19.6718 11.4816 18.4205 10.9624 17.1152 10.9609V12.1917C18.0942 12.1927 19.0328 12.582 19.725 13.2742C20.4172 13.9665 20.8066 14.9051 20.8075 15.884Z"/>
<path d="M23.8845 15.8828H25.1152C25.1128 13.7618 24.2692 11.7284 22.7694 10.2287C21.2696 8.72889 19.2362 7.88526 17.1152 7.88281V9.11358C18.9099 9.1157 20.6304 9.82956 21.8995 11.0986C23.1685 12.3676 23.8823 14.0882 23.8845 15.8828Z"/>
</symbol><symbol id="quote-services" viewBox="0 0 80 68">
<path d="M0.00100708 19.0277C-0.00864721 16.6638 0.483894 14.3249 1.44601 12.1657C2.38635 10.0315 3.68965 8.07657 5.298 6.38772C6.84628 4.74196 8.68422 3.39517 10.72 2.4147C12.6306 1.47363 14.7302 0.979492 16.86 0.969694C19.4148 0.911168 21.9538 1.38398 24.3162 2.35812C26.6787 3.33226 28.813 4.78648 30.584 6.62869C34.274 10.4014 36.12 15.3367 36.122 21.4347C36.122 30.2654 34.7173 37.5694 31.908 43.3467C29.5702 48.4032 26.5306 53.1046 22.879 57.3117C19.0644 61.3385 14.5845 64.678 9.63599 67.1837L2.41299 57.5527C5.16588 55.8882 7.7454 53.9526 10.113 51.7747C12.1618 49.867 13.9798 47.7257 15.53 45.3947C17.2031 42.9493 18.0858 40.0495 18.059 37.0867C13.3061 36.9713 8.77981 35.0318 5.41785 31.6703C2.05588 28.3087 0.115953 23.7826 0 19.0297L0.00100708 19.0277ZM43.259 19.0277C43.2496 16.6639 43.7421 14.325 44.704 12.1657C45.645 10.0316 46.9486 8.07676 48.557 6.38772C50.1038 4.74245 51.94 3.39569 53.974 2.4147C55.8846 1.47363 57.9842 0.979492 60.114 0.969694C62.6688 0.911107 65.2078 1.38386 67.5703 2.358C69.9327 3.33214 72.067 4.78643 73.838 6.62869C77.528 10.4014 79.374 15.3367 79.376 21.4347C79.376 30.2654 77.9714 37.5694 75.162 43.3467C72.8244 48.4033 69.7847 53.1047 66.133 57.3117C62.3187 61.3384 57.8392 64.6779 52.891 67.1837L45.667 57.5527C48.4214 55.8882 51.0026 53.9526 53.372 51.7747C55.4206 49.8668 57.2386 47.7255 58.789 45.3947C60.4615 42.949 61.3438 40.0494 61.317 37.0867C56.5641 36.9713 52.0378 35.0318 48.6758 31.6703C45.3139 28.3087 43.3739 23.7826 43.258 19.0297L43.259 19.0277Z"/>
</symbol><symbol id="quote" viewBox="0 0 35 29">
<path d="M5.79907e-05 7.73506C-0.00401935 6.72262 0.206956 5.72083 0.619046 4.79604C1.02186 3.88187 1.58012 3.0445 2.26904 2.32106C2.93167 1.61702 3.71808 1.04077 4.58905 0.621051C5.40744 0.217979 6.30679 0.0063501 7.21905 0.00209304C8.31329 -0.0230992 9.40082 0.17936 10.4127 0.596636C11.4245 1.01391 12.3386 1.63685 13.097 2.42604C13.897 3.27042 14.5192 4.26691 14.9266 5.35634C15.3341 6.44578 15.5186 7.606 15.4691 8.76808C15.5822 11.992 14.9669 15.1998 13.6691 18.1531C12.6678 20.3187 11.366 22.3322 9.80206 24.1341C8.16824 25.8587 6.24951 27.2889 4.13006 28.3621L1.03604 24.2371C2.21584 23.5242 3.32136 22.695 4.33606 21.762C5.21344 20.9447 5.99209 20.0275 6.65606 19.0291C7.37266 17.9818 7.75065 16.74 7.73904 15.4711C5.70333 15.4216 3.76469 14.5909 2.3247 13.1511C0.884722 11.7113 0.0537849 9.77278 0.00405579 7.73708L5.79907e-05 7.73506ZM18.528 7.73506C18.5241 6.72263 18.7351 5.72087 19.1471 4.79604C19.5501 3.88197 20.1083 3.04462 20.7971 2.32106C21.4597 1.61702 22.2461 1.04077 23.1171 0.621051C23.9354 0.217946 24.8348 0.00631517 25.7471 0.00209304C26.8413 -0.0230992 27.9288 0.17936 28.9407 0.596636C29.9525 1.01391 30.8667 1.63685 31.6251 2.42604C32.4251 3.27039 33.0472 4.2669 33.4547 5.35634C33.8622 6.44578 34.0466 7.60599 33.9971 8.76808C34.1101 11.9919 33.4949 15.1998 32.197 18.1531C31.1959 20.3188 29.894 22.3322 28.33 24.1341C26.6962 25.8587 24.7775 27.289 22.658 28.3621L19.5641 24.2371C20.7438 23.5241 21.8492 22.6949 22.864 21.762C23.7414 20.9447 24.52 20.0275 25.184 19.0291C25.9006 17.9818 26.2787 16.74 26.2671 15.4711C24.2313 15.4216 22.2927 14.5909 20.8527 13.1511C19.4127 11.7113 18.5818 9.77278 18.532 7.73708L18.528 7.73506Z"/>
</symbol><symbol id="right-arrow" viewBox="0 0 30 30">
<polygon points="17.2,7.9 15.2,9.5 18.5,13.6 7.5,13.6 7.5,16.2 18.5,16.2 15.2,20.3 17.2,22 22.9,14.8 "/>
<path d="M15,30C6.7,30,0,23.3,0,15C0,6.7,6.7,0,15,0c8.3,0,15,6.7,15,15C30,23.3,23.3,30,15,30z M15,1.7 C7.7,1.7,1.7,7.7,1.7,15c0,7.3,6,13.3,13.3,13.3c7.3,0,13.3-6,13.3-13.3C28.3,7.7,22.3,1.7,15,1.7z"/>
</symbol><symbol id="search" viewBox="0 0 24 24"><path d="M23.77,22.69,17.58,16.6A9.84,9.84,0,0,0,20.2,9.94,10,10,0,0,0,10.1,0,10,10,0,0,0,0,9.94a10,10,0,0,0,10.1,9.93,10.1,10.1,0,0,0,6.35-2.22l6.22,6.13a.8.8,0,0,0,1.1,0A.76.76,0,0,0,23.77,22.69ZM10.1,18.34a8.48,8.48,0,0,1-8.55-8.4A8.48,8.48,0,0,1,10.1,1.53a8.47,8.47,0,0,1,8.54,8.41A8.47,8.47,0,0,1,10.1,18.34Z"/></symbol><symbol id="slider-arrow" viewBox="0 0 14 30"><polygon points="2.81 29.38 0.78 27.92 10.13 14.94 0.79 2.09 2.81 0.62 13.22 14.93 2.81 29.38"/></symbol><symbol id="star" viewBox="0 0 10 10"><path d="M5,0,6.43,3.47,10,3.82,7.31,6.32,8.09,10,5,8.08,1.91,10l.78-3.68L0,3.82l3.58-.35Z" opacity="0.88"/></symbol><symbol id="telegram" viewBox="0 0 40 40"><path d="M20,0h0A20,20,0,0,1,40,20h0A20,20,0,0,1,20,40h0A20,20,0,0,1,0,20H0A20,20,0,0,1,20,0Z"/><path d="M8.2,18.81l13.31-5.48c1.31-.57,5.77-2.4,5.77-2.4s2-.8,1.88,1.14c-.06.8-.51,3.6-1,6.63l-1.43,9S26.65,29,25.67,29.2s-2.57-.8-2.85-1-4.29-2.75-5.77-4a1.29,1.29,0,0,1-.36-.41,1,1,0,0,1-.11-.52,1,1,0,0,1,.15-.52,1,1,0,0,1,.38-.38c2.05-1.89,4.51-4.23,6-5.71.68-.69,1.37-2.29-1.49-.35l-8,5.43a3.34,3.34,0,0,1-2.63.06c-1.71-.52-3.71-1.2-3.71-1.2s-1.37-.86,1-1.77Z" fill="#fff"/></symbol><symbol id="thumbs-up" viewBox="0 0 30 30">
<path d="M20.8,19.5c0.1,0.1,0.2,0.3,0.2,0.4c0.1,0.1,0.1,0.3,0.1,0.5c0,0.2,0,0.3-0.1,0.5c-0.1,0.1-0.2,0.3-0.3,0.3 c-0.1,0.1-0.3,0.1-0.5,0.1h-4.3c-1.5,0-2.9-0.2-4.3-0.5c-0.7-0.1-1.3-0.3-1.3-0.7v-5.7c0-0.4-0.1-0.6,0.5-0.6c0.3,0,0.5,0,0.8-0.2 c0.2-0.1,0.4-0.3,0.5-0.6c0.3-0.6,0.5-1.1,0.9-1.7c0.4-0.6,0.8-1.1,1.2-1.5c0.6-0.6,0.9-1.3,1.1-2.1c0.1-0.4,0.2-0.9,0.3-1.3 c0-0.1,0.1-0.2,0.1-0.3C15.8,6.1,15.9,6.1,16,6C16.1,6,16.2,6,16.3,6c0.1,0,0.2,0,0.3,0.1c0.3,0.1,0.6,0.4,0.8,0.7 c0.2,0.3,0.3,0.7,0.3,1c0,0.8-0.2,1.6-0.5,2.3c-0.1,0.4-0.3,0.9-0.5,1.3c-0.1,0.4,0,0.6,0.5,0.6h3c0.3,0,0.6,0,1,0.1 c0.3,0,0.5,0.1,0.7,0.3c0.2,0.2,0.3,0.4,0.4,0.6c0.1,0.3,0.1,0.5,0,0.8c-0.1,0.3-0.3,0.5-0.5,0.6c-0.3,0.2-0.3,0.2,0,0.4 c0.2,0.1,0.3,0.3,0.4,0.5c0.1,0.2,0.1,0.4,0.1,0.6c0,0.2-0.1,0.4-0.1,0.6c-0.1,0.2-0.2,0.3-0.4,0.5c-0.1,0.1-0.3,0.1-0.1,0.3 c0.2,0.1,0.4,0.3,0.5,0.6c0.1,0.2,0.1,0.5,0,0.8c-0.1,0.3-0.2,0.5-0.4,0.7c-0.2,0.2-0.5,0.3-0.7,0.3h-0.1L20.8,19.5z"/>
<path d="M6.5,13.6h2.7v7.6H6.5V13.6z"/>
<path d="M15,30C6.7,30,0,23.3,0,15S6.7,0,15,0c8.3,0,15,6.7,15,15S23.3,30,15,30z M15,1.7C7.7,1.7,1.7,7.7,1.7,15 s6,13.3,13.3,13.3c7.3,0,13.3-6,13.3-13.3S22.3,1.7,15,1.7z"/>
</symbol><symbol id="time" viewBox="0 0 16 16">
<path d="M8 16C12.4107 16 16 12.4107 16 8C16 3.58934 12.4107 0 8 0C3.5893 0 0 3.58934 0 8C0 12.4107 3.58934 16 8 16ZM8 1.06665C11.824 1.06665 14.9334 4.17597 14.9334 8C14.9334 11.824 11.824 14.9334 8 14.9334C4.17597 14.9334 1.06665 11.824 1.06665 8C1.06665 4.17597 4.17602 1.06665 8 1.06665Z"/>
<path d="M10.3333 10.5494C10.432 10.6293 10.5493 10.6667 10.6667 10.6667C10.824 10.6667 10.9787 10.5974 11.0826 10.4667C11.2667 10.2374 11.2293 9.90137 11 9.71736L8.53332 7.74403V3.73336C8.53332 3.44002 8.29334 3.20004 8 3.20004C7.70666 3.20004 7.46668 3.44002 7.46668 3.73336V8.00004C7.46668 8.16272 7.54136 8.31471 7.66667 8.41603L10.3333 10.5494Z"/>
</symbol><symbol id="vk" viewBox="0 0 40 40"><path d="M20,0L20,0c11,0,20,9,20,20l0,0c0,11-9,20-20,20l0,0C9,40,0,31,0,20l0,0C0,9,9,0,20,0z"/><path fill="#ffffff" d="M30.2,15.6c0.2-0.5,0-0.8-0.8-0.8h-2.5c-0.2,0-0.5,0-0.7,0.1c-0.2,0.1-0.4,0.3-0.4,0.5 c-0.8,1.7-1.8,3.3-3.1,4.7c-0.6,0.5-0.8,0.7-1.2,0.7c-0.2,0-0.4-0.2-0.4-0.7v-4.5c0-0.6-0.2-0.8-0.7-0.8h-4c-0.2,0-0.3,0-0.4,0.1 c-0.1,0.1-0.2,0.2-0.2,0.4c0,0.6,0.9,0.7,1,2.2v3.4c0,0.7-0.1,0.9-0.5,0.9c-0.8,0-2.9-2.8-4.2-6.1c-0.3-0.6-0.5-0.9-1.1-0.9H8.6 c-0.7,0-0.9,0.3-0.9,0.7c0,0.6,0.8,3.6,4,7.6c0.9,1.2,2,2.2,3.4,3c1.3,0.7,2.8,1.1,4.3,1.2c1.6,0,1.8-0.3,1.8-0.9v-2.1 c0-0.7,0.1-0.8,0.7-0.8c0.4,0,1,0.2,2.5,1.5c1.7,1.5,2,2.3,2.9,2.3h2.5c0.7,0,1.1-0.3,0.9-1c-0.6-1-1.3-1.9-2.1-2.7 c-0.6-0.6-1.5-1.3-1.7-1.6c-0.4-0.4-0.3-0.6,0-1C26.8,20.9,29.9,17,30.2,15.6L30.2,15.6z"/></symbol><symbol id="whatsapp" viewBox="0 0 40 40"><path d="M3.54,31.39l-.48-.76A20,20,0,1,1,40,20,20.25,20.25,0,0,1,29,37.86,19.35,19.35,0,0,1,20,40,19.93,19.93,0,0,1,9.84,37.21l-.73-.43L.24,40Z"/><path d="M14.55,10.73c-.42-.91-.86-.93-1.26-1H12.21a2.05,2.05,0,0,0-.82.19,2.1,2.1,0,0,0-.68.5,6,6,0,0,0-2,4.59A10.63,10.63,0,0,0,11,20.74c.28.36,3.89,6.1,9.61,8.3,4.75,1.83,5.72,1.46,6.75,1.37a5.71,5.71,0,0,0,2.17-.91,5.51,5.51,0,0,0,1.62-1.71,4.49,4.49,0,0,0,.33-2.61c-.14-.23-.51-.37-1.08-.64s-3.32-1.61-3.85-1.8-.89-.27-1.26.28-1.46,1.79-1.78,2.15-.66.41-1.22.14a15.25,15.25,0,0,1-4.52-2.73,16.16,16.16,0,0,1-3.13-3.81c-.33-.55,0-.85.24-1.12s.56-.64.85-1a3.78,3.78,0,0,0,.56-.92,1,1,0,0,0,.1-.49,1,1,0,0,0-.15-.47c-.15-.28-1.23-3-1.73-4.08" fill="#fff"/></symbol></svg>