<svg xmlns="http://www.w3.org/2000/svg" width="22" height="22" viewBox="0 0 22 22"><path d="M11,21.75A10.75,10.75,0,1,1,21.75,11,10.76,10.76,0,0,1,11,21.75Zm0-20A9.25,9.25,0,1,0,20.25,11,9.26,9.26,0,0,0,11,1.75Zm5,12a.76.76,0,0,1-.33-.08.73.73,0,0,1-.34-1l.05-.11a1.26,1.26,0,0,0,.11-.81H14a2.73,2.73,0,0,1-.28,1.48l-.05.1a.75.75,0,0,1-1.34-.66l.05-.11a1.26,1.26,0,0,0,.11-.81H10.65a2.75,2.75,0,1,1,0-1.5h5.23a.93.93,0,0,1,.84.52,2.73,2.73,0,0,1,0,2.46l0,.1A.74.74,0,0,1,16,13.75Zm-8-4A1.25,1.25,0,1,0,9.25,11,1.25,1.25,0,0,0,8,9.75Zm7.88,2h0Z" fill="#eb5d40"/></svg>