<svg class="social-icon" xmlns="http://www.w3.org/2000/svg" viewBox="0 0 28 28" width="28" height="28px">
<path fill="#4285F4" d="M24.8,14.2c0-0.8-0.1-1.5-0.2-2.3H14.2v4.3h5.9c-0.3,1.4-1,2.5-2.2,3.3v2.8h3.6C23.6,20.4,24.8,17.6,24.8,14.2z"/>
<path fill="#34A853" d="M14.2,25c3,0,5.5-1,7.3-2.7l-3.6-2.8c-1,0.7-2.2,1.1-3.7,1.1c-2.9,0-5.3-1.9-6.2-4.5H4.4v2.8 C6.2,22.5,9.9,25,14.2,25z"/>
<path fill="#FBBC05" d="M8.1,16.1c-0.2-0.7-0.4-1.4-0.4-2.1c0-0.7,0.1-1.4,0.4-2.1V9.1H4.4c-0.8,1.5-1.2,3.1-1.2,4.9s0.4,3.4,1.2,4.9 l2.8-2.2L8.1,16.1z"/>
<path fill="#EA4335" d="M14.2,7.4c1.6,0,3.1,0.6,4.2,1.6l3.2-3.2C19.7,4.1,17.2,3,14.2,3c-4.3,0-8,2.5-9.8,6.1l3.7,2.8 C8.9,9.3,11.4,7.4,14.2,7.4z"/>
</svg>