<svg xmlns="http://www.w3.org/2000/svg" width="36" height="36" viewBox="0 0 36 36"><path d="M34.92,27.74a13.57,13.57,0,0,0-.87-1.64l-2.66-4.61a21.3,21.3,0,0,0-1.24-2,13.1,13.1,0,1,0-25-5.38,12.91,12.91,0,0,0,1,5.05l0,.05a14,14,0,0,0-1.47,2.28L2,26.1a13.57,13.57,0,0,0-.87,1.64,1.8,1.8,0,0,0,.08,1.79,1.77,1.77,0,0,0,1.66.68,12.92,12.92,0,0,0,1.82-.29l1.12-.22a12,12,0,0,1,1.37-.22c.28,0,.34,0,.35,0s.08,0,.2.28a11.57,11.57,0,0,1,.48,1.3l.37,1.08a15.38,15.38,0,0,0,.66,1.72A1.8,1.8,0,0,0,10.62,35a1.83,1.83,0,0,0,1.59-.83,13.3,13.3,0,0,0,1-1.57L15.86,28l.51-.9a12.46,12.46,0,0,0,1.84.15,13.93,13.93,0,0,0,1.45-.09l.48.84,2.66,4.61a13.3,13.3,0,0,0,1,1.57,1.83,1.83,0,0,0,1.59.83,1.8,1.8,0,0,0,1.43-1.1,15.38,15.38,0,0,0,.66-1.72l.37-1.08a11.57,11.57,0,0,1,.48-1.3c.12-.25.19-.28.2-.28s.07-.05.35,0a12,12,0,0,1,1.37.22l1.12.22a12.92,12.92,0,0,0,1.82.29,1.77,1.77,0,0,0,1.66-.68A1.8,1.8,0,0,0,34.92,27.74ZM11.46,31.59c-.27.48-.47.81-.63,1.06-.11-.27-.23-.62-.41-1.13l-.36-1.08a15.51,15.51,0,0,0-.59-1.53,2.56,2.56,0,0,0-1-1.14A2.58,2.58,0,0,0,7,27.48a13.92,13.92,0,0,0-1.61.26L4.26,28h0c-.52.11-.9.18-1.18.22.13-.27.32-.61.6-1.08l2.66-4.61c.35-.61.6-1,.8-1.35a13.16,13.16,0,0,0,7.19,5.49l-.21.35ZM16.05,25a11.13,11.13,0,0,1-7.8-6,11.11,11.11,0,1,1,21.07-4.93,11.11,11.11,0,0,1-9.25,11,11.39,11.39,0,0,1-1.86.16A11.8,11.8,0,0,1,16.05,25Zm14.57,2.72A13.92,13.92,0,0,0,29,27.48a2.32,2.32,0,0,0-2.48,1.43,15.51,15.51,0,0,0-.59,1.53l-.36,1.08c-.18.51-.3.86-.41,1.13-.16-.25-.36-.58-.63-1.06L21.88,27l-.15-.24a13.16,13.16,0,0,0,7.33-5.27c.17.27.36.6.6,1l2.66,4.61c.28.47.47.81.6,1.08-.28,0-.66-.11-1.18-.22Z"/></svg>