<svg xmlns="http://www.w3.org/2000/svg" width="24" height="24" viewBox="0 0 24 24"><path d="M12,17.4a5.38,5.38,0,0,1-5.36-5l-3.93-3a12.11,12.11,0,0,0-1.38,2.08,1.25,1.25,0,0,0,0,1.1A12,12,0,0,0,12,19.2a11.75,11.75,0,0,0,2.92-.39L13,17.3A5.23,5.23,0,0,1,12,17.4Zm11.77,2.18-4.15-3.21a12.41,12.41,0,0,0,3.05-3.82,1.25,1.25,0,0,0,0-1.1A12,12,0,0,0,12,4.8,11.56,11.56,0,0,0,6.48,6.21L1.7,2.53a.59.59,0,0,0-.84.1h0l-.73,1a.59.59,0,0,0,.1.84l22.07,17a.59.59,0,0,0,.84-.1h0l.73-.95A.59.59,0,0,0,23.77,19.58Zm-6.89-5.33L15.4,13.11A3.46,3.46,0,0,0,15.6,12a3.55,3.55,0,0,0-3.51-3.6,3.67,3.67,0,0,0-1,.14A1.77,1.77,0,0,1,11.4,9.6a2.5,2.5,0,0,1-.06.38L8.58,7.84A5.38,5.38,0,0,1,17.4,12h0a5.27,5.27,0,0,1-.52,2.25Z"/></svg>