<svg xmlns="http://www.w3.org/2000/svg" width="36" height="36" viewBox="0 0 36 36"><path d="M18,22.2a7.4,7.4,0,0,0,7.4-7.4V8.4a7.4,7.4,0,1,0-14.8,0v6.4A7.4,7.4,0,0,0,18,22.2ZM12.6,8.4a5.4,5.4,0,1,1,10.8,0v6.4a5.4,5.4,0,0,1-10.8,0Z"/><path d="M19,28.55A13.79,13.79,0,0,0,31.8,14.8a1,1,0,0,0-2,0,11.8,11.8,0,0,1-23.6,0,1,1,0,0,0-2,0A13.79,13.79,0,0,0,17,28.55v4a9.38,9.38,0,0,0-1.18.2L14.56,33A1,1,0,1,0,15,35l1.26-.31a7,7,0,0,1,3.4,0L21,35A1,1,0,1,0,21.44,33l-1.26-.32a9.38,9.38,0,0,0-1.18-.2v-4Z"/></svg>