<svg xmlns="http://www.w3.org/2000/svg" viewBox="0 0 24 24" width="24" height="24px">
	<path d="M12.1,2C9.2,2,6.9,4.3,6.9,7.2c0,2.9,2.3,5.2,5.2,5.2s5.2-2.3,5.2-5.2C17.3,4.3,14.9,2,12.1,2z M12.1,9.3
	c-1.2,0-2.1-1-2.1-2.1s1-2.1,2.1-2.1s2.1,1,2.1,2.1S13.3,9.3,12.1,9.3z"/>
	<path d="M13.9,16.5c2.1-0.4,3.3-1.4,3.4-1.5c0.6-0.5,0.7-1.4,0.2-2c-0.5-0.6-1.4-0.7-2-0.2c0,0-1.3,1-3.5,1
	c-2.2,0-3.5-1-3.5-1c-0.6-0.5-1.5-0.4-2,0.2c-0.5,0.6-0.4,1.5,0.2,2c0.1,0.1,1.4,1.1,3.5,1.5l-3,3.1c-0.5,0.6-0.5,1.5,0,2
	c0.3,0.3,0.6,0.4,1,0.4c0.4,0,0.7-0.1,1-0.4l2.8-2.9l3,3c0.6,0.6,1.4,0.5,2,0c0.5-0.6,0.5-1.4,0-2L13.9,16.5z"/>
</svg>