<svg xmlns="http://www.w3.org/2000/svg" width="20" height="20" viewBox="0 0 20 20"><path d="M10,19.75A9.75,9.75,0,1,1,19.75,10,9.76,9.76,0,0,1,10,19.75Zm0-18A8.25,8.25,0,1,0,18.25,10,8.26,8.26,0,0,0,10,1.75Zm0,11.7a.76.76,0,0,1-.75-.75v-.28a4.79,4.79,0,0,1,1.18-3.15l.83-.95A1.73,1.73,0,0,0,9.68,5.47,1.7,1.7,0,0,0,8.31,6.63L8,7.54a.75.75,0,0,1-1.42-.48l.3-.9a3.23,3.23,0,0,1,5.65-.92,3.25,3.25,0,0,1-.15,4.07l-.83.94a3.31,3.31,0,0,0-.81,2.17v.28A.76.76,0,0,1,10,13.45Z"/><path d="M10.9,15.4a.9.9,0,1,1-.9-.9A.9.9,0,0,1,10.9,15.4Z"/></svg>