<?xml version="1.0" standalone="no"?>
<!DOCTYPE svg PUBLIC "-//W3C//DTD SVG 20010904//EN"
 "http://www.w3.org/TR/2001/REC-SVG-20010904/DTD/svg10.dtd">
<svg version="1.0" xmlns="http://www.w3.org/2000/svg"
 width="700.000000pt" height="700.000000pt" viewBox="0 0 700.000000 700.000000"
 preserveAspectRatio="xMidYMid meet">
<metadata>
Created by potrace 1.14, written by Peter Selinger 2001-2017
</metadata>
<g transform="translate(0.000000,700.000000) scale(0.100000,-0.100000)"
fill="#000000" stroke="none">
<path d="M1750 6994 c-80 -30 -120 -64 -151 -129 -24 -51 -24 -97 1 -214 95
-451 323 -864 670 -1211 131 -132 154 -153 265 -237 237 -180 513 -318 775
-388 47 -13 88 -21 91 -19 12 7 -2 229 -22 354 -21 128 -98 400 -120 425 -5 5
-9 15 -9 23 0 27 -126 277 -195 387 -278 442 -662 779 -1120 980 -58 25 -154
40 -185 29z"/>
<path d="M5104 6981 c-132 -48 -369 -183 -518 -295 -113 -84 -135 -104 -272
-241 -203 -202 -346 -397 -470 -640 -160 -313 -240 -615 -248 -937 l-2 -77 26
5 c100 23 279 80 295 95 5 5 15 9 23 9 30 0 280 134 400 214 526 352 903 881
1045 1467 38 153 43 220 23 273 -18 47 -79 110 -124 127 -50 20 -124 20 -178
0z"/>
<path d="M2447 4744 c-1 -1 -37 -4 -80 -7 -279 -22 -494 -196 -562 -457 -25
-92 -26 -244 -4 -360 10 -52 21 -113 25 -135 3 -22 7 -42 9 -46 2 -3 7 -21 10
-40 3 -19 11 -54 16 -79 6 -25 13 -54 15 -65 2 -11 6 -29 8 -40 2 -11 21 -87
41 -170 20 -82 38 -157 40 -165 2 -8 29 -105 60 -215 148 -521 395 -1196 650
-1775 125 -285 339 -703 439 -860 13 -19 46 -72 75 -117 92 -143 177 -203 298
-209 73 -3 139 16 198 57 56 39 73 59 150 178 239 368 553 1009 735 1501 15
41 41 112 58 158 l31 82 -64 29 c-152 69 -321 211 -409 344 -108 164 -170 371
-167 560 6 433 268 795 673 931 125 42 235 50 467 33 41 -3 40 -5 47 159 6
155 -12 248 -72 369 -45 93 -87 146 -164 207 -70 56 -172 100 -258 114 -21 3
-40 8 -44 11 -11 6 -278 5 -368 -2 -64 -5 -264 -34 -337 -49 -12 -3 -66 -16
-120 -31 -195 -53 -260 -63 -371 -60 -110 3 -177 14 -342 56 -119 31 -229 54
-315 65 -27 3 -52 8 -55 9 -8 5 -308 23 -313 19z"/>
</g>
</svg>
