<svg xmlns="http://www.w3.org/2000/svg" fill="none" viewBox="0 0 80 80"><path fill="#FF5400" d="m11.513 25.873-6.958-6.959V1.561h67.082l6.958 6.958v67.084H61.243l-6.959-6.958V45.098L21.355 78.032 2.128 58.799l32.93-32.926H11.513Z"/><path fill="#000" fill-rule="evenodd" d="M3.666.672h68.34l7.478 7.479v68.34h-18.61l-7.478-7.478v-21.77l-32.04 32.045-6.958-6.959-.001.002L.87 58.799 32.91 26.76H11.146l-7.479-7.479V.672Zm-.282 58.127 40.777-40.773H5.443V2.449h65.305v65.307H55.173v-38.72l-40.775 40.78L3.384 58.799Zm12.27 12.274 5.701 5.702 32.04-32.045V33.328l-37.74 37.745Zm40.776-1.54 5.18 5.181h14.84l-5.181-5.18h-14.84Zm16.096-1.256 5.18 5.18V8.888l-5.18-5.181v64.57ZM6.7 19.803l5.181 5.18H34.69l5.181-5.18H6.7Z" clip-rule="evenodd"/></svg>