<svg xmlns="http://www.w3.org/2000/svg" fill="none" viewBox="0 0 405 285"><path fill="#FF5400" d="M201.938 256.236a124.095 124.095 0 0 1-19.06-19.031c-.076-.093-.148-.189-.223-.282a124.012 124.012 0 0 1-3.707-4.882c-.184-.254-.363-.511-.546-.766a123.097 123.097 0 0 1-3.151-4.661c-.206-.32-.413-.638-.617-.96a124.127 124.127 0 0 1-2.868-4.789c-.175-.307-.355-.61-.529-.919a123.052 123.052 0 0 1-2.851-5.422c-.068-.135-.141-.267-.208-.403a122.692 122.692 0 0 1-5.247-12.388c-.126-.348-.235-.704-.357-1.054a123.708 123.708 0 0 1-1.68-5.136c-.192-.639-.365-1.286-.547-1.929a122.31 122.31 0 0 1-1.172-4.415c-.184-.76-.356-1.524-.527-2.289a120.533 120.533 0 0 1-.868-4.232c-.151-.807-.299-1.616-.434-2.43a125.844 125.844 0 0 1-.626-4.297c-.104-.804-.217-1.604-.306-2.412a123.954 123.954 0 0 1-.411-4.712c-.049-.687-.118-1.369-.155-2.059-.126-2.274-.2-4.561-.2-6.867 0-26.849 3.778-53.436 11.113-79.012H83.104c-6.786-23.685-16.593-46.513-29.322-67.87l-5.844-9.804-5.843 9.804v.002l-.003.004c-.587.984-1.133 1.988-1.708 2.978-1.045 1.803-2.103 3.599-3.108 5.421-.275.5-.527 1.01-.8 1.512A286.88 286.88 0 0 0 1.645 159.9c0 2.306.074 4.594.199 6.868.038.69.107 1.372.156 2.059.113 1.577.238 3.151.41 4.712.09.808.203 1.608.307 2.412.187 1.44.39 2.874.625 4.297.136.814.284 1.623.435 2.43.265 1.42.554 2.83.867 4.232.171.765.343 1.529.528 2.289a122.3 122.3 0 0 0 1.171 4.415c.182.643.356 1.29.548 1.929.52 1.73 1.086 3.439 1.68 5.136.122.35.231.706.357 1.054a122.61 122.61 0 0 0 5.247 12.388c.067.136.14.268.207.403a123.385 123.385 0 0 0 2.852 5.422c.173.309.354.612.529.919a123.873 123.873 0 0 0 2.868 4.789c.203.322.41.64.616.96a123.242 123.242 0 0 0 3.152 4.661c.182.255.362.512.545.766a124.134 124.134 0 0 0 3.708 4.882c.074.093.147.189.222.282a124.146 124.146 0 0 0 19.06 19.031c.002 0 .003.002.004.003 21.138 16.952 47.955 27.116 77.161 27.116 29.131 0 55.885-10.117 76.999-26.995-.051-.041-.105-.079-.156-.121l-.004-.003Z"/><path fill="#009CFF" d="m362.103 13.019-5.843-9.804-5.847 9.81c-12.727 21.355-22.531 44.181-29.317 67.864h-83.674c7.328 25.58 11.129 52.162 11.129 79.012 0 .028-.003.056-.003.085a124.99 124.99 0 0 1-.194 6.755c-.04.738-.114 1.466-.168 2.2a124.647 124.647 0 0 1-.397 4.566c-.093.842-.21 1.675-.319 2.511a127.726 127.726 0 0 1-.61 4.192c-.141.844-.293 1.68-.45 2.516a122.58 122.58 0 0 1-.848 4.136c-.176.794-.355 1.586-.547 2.373a119.228 119.228 0 0 1-1.144 4.312c-.191.675-.372 1.354-.575 2.025a125.18 125.18 0 0 1-1.637 5.009c-.136.389-.258.785-.398 1.173a122.313 122.313 0 0 1-5.231 12.347c-.083.169-.174.334-.257.502a122.826 122.826 0 0 1-2.799 5.32c-.186.332-.379.657-.568.987a123.96 123.96 0 0 1-2.827 4.722c-.214.337-.431.673-.648 1.009a125.144 125.144 0 0 1-3.115 4.607c-.193.27-.384.543-.578.812a126.277 126.277 0 0 1-3.67 4.833c-.087.108-.17.218-.257.325a124.08 124.08 0 0 1-19.05 19.018l-.005.003c-.051.042-.104.08-.158.121 21.116 16.878 47.869 26.995 77.003 26.995 29.203 0 56.021-10.164 77.159-27.116l.004-.003a124.08 124.08 0 0 0 19.05-19.018c.087-.107.17-.217.257-.325a125.251 125.251 0 0 0 3.67-4.833c.195-.269.386-.542.578-.812a125.144 125.144 0 0 0 3.115-4.607c.218-.336.435-.672.649-1.009a126.65 126.65 0 0 0 2.828-4.722c.188-.33.381-.655.567-.987a125.082 125.082 0 0 0 2.799-5.32c.083-.168.174-.333.257-.502 1.958-4 3.707-8.119 5.23-12.347.14-.388.262-.784.398-1.173a123.591 123.591 0 0 0 1.637-5.009c.203-.671.384-1.35.575-2.025.405-1.428.792-2.863 1.145-4.312.192-.787.37-1.579.547-2.373a127.742 127.742 0 0 0 1.297-6.652c.23-1.389.427-2.787.61-4.192.109-.836.226-1.669.319-2.511.166-1.513.286-3.037.397-4.566.054-.734.128-1.462.168-2.2.122-2.237.194-4.488.195-6.755 0-.029.003-.057.003-.085a286.882 286.882 0 0 0-40.452-146.882Z"/><path fill="#0041A0" d="M202.261 256.236a124.08 124.08 0 0 0 19.05-19.018c.087-.107.17-.217.257-.325a126.277 126.277 0 0 0 3.67-4.833c.194-.269.385-.542.578-.812a125.144 125.144 0 0 0 3.115-4.607c.217-.336.434-.672.648-1.009a123.96 123.96 0 0 0 2.827-4.722c.189-.33.382-.655.568-.987a122.826 122.826 0 0 0 2.799-5.32c.083-.168.174-.333.257-.502 1.959-4 3.708-8.119 5.231-12.347.14-.388.262-.784.398-1.173a125.18 125.18 0 0 0 1.637-5.009c.203-.671.384-1.35.575-2.025.405-1.428.791-2.863 1.144-4.312.192-.787.371-1.579.547-2.373.306-1.37.588-2.749.848-4.136.157-.836.309-1.672.45-2.516.229-1.389.426-2.787.61-4.192.109-.836.226-1.669.319-2.511.166-1.513.286-3.037.397-4.566.054-.734.128-1.462.168-2.2.122-2.237.193-4.488.194-6.755 0-.029.003-.057.003-.085 0-26.85-3.801-53.432-11.129-79.012h-.314c-6.787-23.685-16.594-46.513-29.323-67.87l-5.687-9.539-5.688 9.545c-12.727 21.355-22.531 44.181-29.317 67.864h-.332a286.593 286.593 0 0 0-11.113 79.012c0 2.306.074 4.593.2 6.867.037.69.106 1.372.155 2.059.113 1.577.239 3.151.411 4.712.089.808.202 1.608.306 2.412.188 1.44.39 2.874.626 4.297.135.814.283 1.623.434 2.43.265 1.42.554 2.83.868 4.232.171.765.343 1.529.527 2.289a122.31 122.31 0 0 0 1.172 4.415c.182.643.355 1.29.547 1.929.521 1.73 1.087 3.439 1.68 5.136.122.35.231.706.357 1.054a122.692 122.692 0 0 0 5.247 12.388c.067.136.14.268.208.403a123.052 123.052 0 0 0 2.851 5.422c.174.309.354.612.529.919a124.127 124.127 0 0 0 2.868 4.789c.204.322.411.64.617.96a123.097 123.097 0 0 0 3.151 4.661c.183.255.362.512.546.766a124.012 124.012 0 0 0 3.707 4.882c.075.093.147.189.223.282a124.095 124.095 0 0 0 19.06 19.031l.004.003c.051.042.105.08.156.121.054-.041.107-.079.158-.121l.005-.003Z"/><path fill="#FF5400" d="M110.537 161.494c-6.926-7.74-16.02-13.489-26.327-16.292a54.456 54.456 0 0 0-14.357-1.917c-16.165 0-30.702 7.034-40.701 18.209 9.999 11.156 24.536 18.189 40.701 18.189 4.973 0 9.782-.669 14.357-1.917 10.306-2.802 19.401-8.552 26.327-16.272Z"/><path fill="#FF5400" d="M110.537 161.494c-6.926-7.74-16.02-13.489-26.327-16.292-5.967 2.983-10.071 9.167-10.071 16.291 0 7.124 4.104 13.29 10.07 16.273 10.307-2.802 19.402-8.552 26.328-16.272Z"/><path fill="#000" d="m356.26 6.43 1.538 2.582 2.827-1.683-4.365-7.33-4.365 7.33 2.827 1.683 1.538-2.583Zm-25.034 49.577-3.064-1.194a291.628 291.628 0 0 0-3.682 9.973l3.103 1.08a283.37 283.37 0 0 1 3.643-9.859Zm18.12-37.893-2.853-1.637a291.779 291.779 0 0 0-5.113 9.324l2.909 1.53a286.93 286.93 0 0 1 5.057-9.216Zm-9.76 18.615-2.968-1.42a290.63 290.63 0 0 0-4.41 9.675l3.02 1.31a282.334 282.334 0 0 1 4.358-9.565ZM322.678 81.34a293.01 293.01 0 0 1 1.628-5.48l-3.141-.969a276.4 276.4 0 0 0-1.304 4.352h-4.532v3.29h7.008l.341-1.192Zm-27.957 1.193h10.304v-3.29h-10.304v3.29Zm-10.308-3.289h-10.304v3.289h10.304v-3.29Zm-20.612 0h-10.304v3.289h10.304v-3.29Zm-29.248 134.135-.254.491c-.413.832-.835 1.658-1.265 2.479l-.098.193c-.456.865-.919 1.724-1.392 2.576l-.566.98c-.445.781-.898 1.558-1.359 2.328-.126.21-.257.416-.384.625-.345.569-.69 1.137-1.045 1.698l-.639 1.002a134.402 134.402 0 0 1-3.267 4.818l-.379.527a115.288 115.288 0 0 1-2.356 3.154l-1.517 1.934c-.264.325-.534.649-.801.974-.268.326-.536.652-.807.975-.35.416-.704.831-1.061 1.244-.235.273-.473.544-.71.814-.361.411-.723.823-1.09 1.23-.405.448-.815.892-1.227 1.335-.132.143-.262.288-.395.43a123.525 123.525 0 0 1-9.136 8.782c-.179.156-.36.31-.54.465a121.32 121.32 0 0 1-1.914 1.606l-.244.201a87.738 87.738 0 0 1-.814-.67c-.437-.364-.874-.727-1.307-1.097-.383-.328-.762-.662-1.141-.995-.438-.384-.876-.767-1.309-1.158-.384-.347-.763-.701-1.143-1.054-.415-.384-.831-.767-1.242-1.158-.405-.387-.805-.782-1.207-1.176-.375-.367-.752-.731-1.122-1.103-.448-.451-.889-.911-1.331-1.37-.317-.328-.636-.651-.949-.983-.511-.541-1.013-1.094-1.516-1.647-.24-.263-.484-.522-.722-.789a126.952 126.952 0 0 1-1.759-2.017c-.146-.171-.295-.337-.441-.509-.729-.86-1.451-1.733-2.163-2.619-1.26-1.574-2.48-3.18-3.669-4.825l-.529-.745a123.22 123.22 0 0 1-3.116-4.613l-.604-.931a127.502 127.502 0 0 1-2.83-4.735l-.521-.899a122 122 0 0 1-2.812-5.351l-.203-.398a121.708 121.708 0 0 1-5.178-12.216l-.353-1.047a122.492 122.492 0 0 1-1.658-5.069l-.539-1.901c-.411-1.439-.8-2.891-1.157-4.359-.183-.748-.35-1.5-.517-2.255a120.144 120.144 0 0 1-.861-4.176c-.147-.796-.292-1.592-.427-2.392-.231-1.407-.43-2.824-.616-4.24l-.302-2.387c-.171-1.538-.296-3.09-.405-4.645l-.154-2.033c-.123-2.245-.196-4.5-.196-6.777 0-1.648.015-3.295.043-4.942.009-.527.028-1.054.041-1.582.025-1.118.049-2.237.088-3.355.022-.638.056-1.275.082-1.913.042-1.006.08-2.013.132-3.018.036-.682.083-1.363.123-2.045.057-.961.11-1.923.177-2.883.048-.701.109-1.4.163-2.101.072-.939.14-1.879.222-2.817.063-.723.137-1.444.205-2.166.087-.914.169-1.829.264-2.742.078-.741.167-1.481.25-2.221.1-.893.196-1.786.305-2.677.092-.753.195-1.505.293-2.256.113-.878.224-1.757.346-2.634.107-.762.224-1.523.337-2.283.127-.864.251-1.728.387-2.591.121-.775.254-1.549.383-2.323.14-.846.277-1.693.425-2.538.138-.79.286-1.577.431-2.365.152-.826.3-1.653.459-2.478.156-.808.323-1.614.485-2.42.162-.802.321-1.605.49-2.405.175-.829.359-1.656.542-2.484.17-.774.337-1.549.514-2.322.195-.853.401-1.703.604-2.554.177-.744.352-1.488.535-2.231.218-.878.444-1.755.67-2.632.183-.71.363-1.422.551-2.132.241-.906.492-1.811.742-2.716.216-.783.428-1.568.651-2.35l.109-.381c6.8-23.727 16.938-46.43 29.48-67.478l4.275-7.173 4.275 7.166c12.485 20.952 22.897 44.701 29.693 68.298.298 1.05.584 2.104.869 3.157a285.738 285.738 0 0 1 4.192 17.639c.16.784.318 1.569.472 2.354.212 1.089.417 2.181.617 3.273a285.816 285.816 0 0 1 2.428 15.662c.09.717.182 1.434.268 2.151a307.157 307.157 0 0 1 .571 5.235c.532 5.32.911 10.655 1.142 16.002.044 1.009.09 2.018.123 3.028.028.863.046 1.728.067 2.593a276.25 276.25 0 0 1 .088 6.737c0 2.235-.071 4.455-.19 6.658l-.17 2.181c-.106 1.507-.228 3.01-.388 4.5l-.315 2.48c-.077.593-.159 1.185-.243 1.777l-.091.625c-.061.409-.123.816-.189 1.222-.037.236-.075.474-.117.725a124.564 124.564 0 0 1-1.242 6.351c-.174.78-.35 1.563-.54 2.341a119.07 119.07 0 0 1-1.053 3.975l-.463 1.639-.18.633a119.041 119.041 0 0 1-1.619 4.947l-.392 1.157a120.63 120.63 0 0 1-5.158 12.18ZM125.1 281.711c-27.987 0-54.313-9.25-76.139-26.762-6.925-5.551-13.253-11.872-19.025-19.054a120.144 120.144 0 0 1-3.665-4.825l-.533-.745a124.495 124.495 0 0 1-3.113-4.613l-.603-.938c-.98-1.548-1.92-3.125-2.827-4.715l-.527-.912c-.98-1.76-1.917-3.54-2.81-5.351l-1.475.729 1.27-1.127a121.453 121.453 0 0 1-5.178-12.216l-.354-1.047a121.95 121.95 0 0 1-1.658-5.069l-.536-1.901c-.41-1.442-.8-2.894-1.156-4.353-.183-.748-.353-1.503-.52-2.261a112.7 112.7 0 0 1-.858-4.176l-.43-2.392a122.22 122.22 0 0 1-.614-4.247l-.074-.542c-.08-.611-.164-1.221-.23-1.834a122.138 122.138 0 0 1-.402-4.655l-.158-2.027c-.122-2.245-.196-4.5-.196-6.777 0-47.394 11.975-94.485 34.633-136.178l.793-1.506c.832-1.503 1.696-2.99 2.563-4.478l1.24-2.155c.324-.575.648-1.153.989-1.722l4.43-7.436 4.432 7.433c12.546 21.048 22.356 43.754 29.156 67.485l.34 1.192h82.72c-.144.516-.278 1.035-.418 1.553-.191.7-.381 1.4-.567 2.1a297.48 297.48 0 0 0-.689 2.666 264 264 0 0 0-1.175 4.791 246.21 246.21 0 0 0-.526 2.257c-.194.851-.381 1.705-.568 2.558-.168.77-.336 1.539-.498 2.31-.176.841-.345 1.683-.514 2.525-.157.785-.315 1.57-.466 2.356-.159.833-.311 1.667-.463 2.501-.146.795-.292 1.59-.431 2.387-.144.832-.28 1.663-.417 2.496a244.44 244.44 0 0 0-.391 2.399c-.13.835-.252 1.671-.375 2.506-.118.801-.238 1.601-.349 2.402-.116.838-.223 1.677-.332 2.516-.103.8-.21 1.601-.307 2.402-.103.847-.195 1.694-.29 2.541-.089.794-.182 1.589-.265 2.385-.089.862-.167 1.725-.249 2.588-.074.782-.152 1.562-.22 2.345-.076.885-.14 1.77-.209 2.656-.059.762-.122 1.524-.175 2.287-.064.914-.114 1.828-.168 2.743-.044.737-.094 1.472-.132 2.208-.051.972-.087 1.945-.127 2.918-.029.678-.064 1.357-.087 2.036-.038 1.094-.061 2.188-.086 3.282-.013.561-.033 1.122-.043 1.683a283.727 283.727 0 0 0-.043 4.968c0 2.335.074 4.654.202 6.951.022.44.058.877.093 1.31l.062.781c.115 1.599.24 3.196.417 4.779l.308 2.445c.193 1.455.398 2.91.636 4.352.134.822.286 1.644.44 2.46.269 1.44.562 2.869.88 4.289.174.777.347 1.554.533 2.319a125.33 125.33 0 0 0 1.188 4.477l.556 1.95a117.717 117.717 0 0 0 1.703 5.207l.36 1.073a125.6 125.6 0 0 0 5.319 12.549l.208.411a127.393 127.393 0 0 0 2.895 5.499l.533.925a135.377 135.377 0 0 0 2.909 4.863l.621.964a125.953 125.953 0 0 0 3.19 4.715l.555.784a132.974 132.974 0 0 0 3.983 5.229c.685.852 1.383 1.696 2.092 2.53.284.335.577.663.865.995.432.498.861.998 1.301 1.488.325.364.658.721.988 1.081.417.456.834.913 1.259 1.363.328.349.663.691.996 1.036.444.459.887.919 1.338 1.372.314.314.632.625.949.937.489.482.98.961 1.477 1.434.288.274.579.546.871.818a122.836 122.836 0 0 0 4.955 4.396c.26.218.516.443.778.66-21.479 16.599-47.15 25.368-74.365 25.368ZM250.186 157.27c-.004-.39-.018-.78-.024-1.171a278.436 278.436 0 0 0-.071-3.541c-.016-.614-.029-1.227-.049-1.84-.052-1.636-.12-3.271-.2-4.905-.009-.183-.012-.366-.022-.55l-.002.001a289.153 289.153 0 0 0-.87-11.986l.014-.002c-.059-.627-.133-1.252-.196-1.878a271.58 271.58 0 0 0-.987-8.575c-.064-.494-.118-.989-.185-1.483l-.011.002a287.424 287.424 0 0 0-1.854-11.87h.002c-.042-.236-.091-.471-.134-.708a275.191 275.191 0 0 0-.864-4.578c-.131-.667-.27-1.333-.406-1.998-.236-1.156-.478-2.31-.728-3.462-.075-.346-.143-.694-.22-1.04l-.011.003a288.343 288.343 0 0 0-2.833-11.673l.005-.001c-.039-.15-.081-.298-.121-.448l-.216-.798c-.202-.746-.401-1.492-.607-2.236h3.594v-3.29h-4.567c-6.857-23.56-16.938-46.115-29.423-67.067L202.098.27l-7.101 11.913c-12.476 20.94-22.617 43.494-29.477 67.065H84.342c-6.864-23.574-16.668-46.132-29.146-67.07L47.936.001l-7.258 12.183c-.347.582-.678 1.17-1.012 1.76l-1.23 2.14c-.878 1.51-1.758 3.016-2.6 4.545l-.805 1.522C12.113 64.326 0 111.961 0 159.901c0 2.335.074 4.654.202 6.961l.158 2.081c.115 1.599.24 3.192.414 4.779.07.64.158 1.276.241 1.909l.07.532c.19 1.459.396 2.911.634 4.362.14.823.289 1.638.443 2.451.266 1.443.559 2.872.877 4.292.173.774.35 1.548.536 2.322a125.56 125.56 0 0 0 1.185 4.468l.556 1.956a117.554 117.554 0 0 0 1.702 5.207l.36 1.073a125.656 125.656 0 0 0 5.32 12.549l.211.411a127.092 127.092 0 0 0 2.891 5.499l.533.925a123.082 123.082 0 0 0 2.907 4.85l.623.97a124.149 124.149 0 0 0 3.354 4.953l.395.553a129.87 129.87 0 0 0 3.98 5.229 126.018 126.018 0 0 0 19.317 19.292c22.413 17.974 49.452 27.476 78.191 27.476 28.22 0 54.813-9.178 77.001-26.552 1.19.931 2.392 1.849 3.614 2.737l1.933-2.659a147.288 147.288 0 0 1-2.913-2.184c.26-.214.51-.439.768-.655.481-.405.959-.813 1.434-1.225.223-.193.452-.379.673-.574l-.007-.009a125.966 125.966 0 0 0 8.737-8.449l.004.003c.565-.602 1.123-1.211 1.677-1.825.265-.294.526-.593.788-.89a120.318 120.318 0 0 0 1.982-2.289c.611-.723 1.215-1.448 1.803-2.177l1.587-2.024-.008-.007a122.666 122.666 0 0 0 2.395-3.199l.591-.822a138.736 138.736 0 0 0 3.164-4.677l.649-1.015c.044-.07.086-.142.13-.213l.002.001c.381-.608.753-1.221 1.124-1.836.068-.113.139-.224.207-.337.475-.794.941-1.592 1.399-2.398l.578-1.002c.487-.873.962-1.754 1.429-2.641.058-.109.113-.221.17-.331.347-.665.693-1.33 1.032-2.003l-.006-.003c.069-.138.142-.274.211-.412l.26-.51a124.697 124.697 0 0 0 4.412-10.153l.008.002c.298-.783.59-1.57.877-2.357l.404-1.192a118.04 118.04 0 0 0 1.66-5.078l.585-2.053c.046-.16.088-.322.133-.482l.099-.349-.003-.001c.325-1.173.64-2.348.928-3.532a129.413 129.413 0 0 0 1.416-6.598c.106-.56.203-1.122.301-1.685l.008.002.148-.871c.231-1.407.433-2.823.619-4.246l.077-.585c.087-.652.171-1.3.244-1.959.161-1.439.277-2.891.383-4.343h-.003c.007-.093.016-.186.022-.279l.17-2.236c.126-2.264.196-4.548.199-6.928 0-.877-.014-1.754-.023-2.631h.014Zm143.922 42.772-.392 1.153a119.054 119.054 0 0 1-2.637 6.684l3.026 1.298a125.854 125.854 0 0 0 2.704-6.861l.405-1.192c.35-1.002.687-2.001 1.012-3.006l-3.135-1.003c-.312.981-.643 1.954-.983 2.927Zm5.734-24.235a115.31 115.31 0 0 1-.601 4.131 126.486 126.486 0 0 1-1.173 6.08l3.213.7a133.096 133.096 0 0 0 1.204-6.237c.235-1.407.434-2.827.62-4.253l.148-1.121-3.273-.321-.138 1.021ZM259.758 283.51c3.858.597 7.806 1.022 11.73 1.265l.2-3.289a122.893 122.893 0 0 1-11.422-1.226l-.508 3.25ZM372.186 27.806a281.251 281.251 0 0 0-5.576-10.308l-2.859 1.626a287.294 287.294 0 0 1 5.512 10.185l2.923-1.503Zm-156.61 239.849a125.505 125.505 0 0 0 10.43 5.525l1.401-2.981a121.496 121.496 0 0 1-10.154-5.37l-1.677 2.826Zm188.505-116.08-3.289.096c.08 2.74.119 5.483.116 8.317 0 1.083-.017 2.161-.049 3.238l3.289.096c.033-1.108.049-2.22.052-3.421 0-2.778-.039-5.554-.119-8.326Zm-26.746-113.25-2.981 1.388a283.188 283.188 0 0 1 4.664 10.6l3.038-1.265c-1.5-3.601-3.073-7.18-4.721-10.723Zm-11.856 207.424 2.332 2.313a125.36 125.36 0 0 0 7.914-8.743l-2.537-2.095a125.563 125.563 0 0 1-7.709 8.525Zm-128.568 31.948a125.258 125.258 0 0 0 11.286 3.449l.81-3.186c-3.7-.944-7.398-2.075-10.985-3.36l-1.111 3.097ZM383.252 61.093a281.398 281.398 0 0 1 3.79 10.94l3.128-1.016a280.558 280.558 0 0 0-3.835-11.068l-3.083 1.144Zm-28.019 193.862a123.643 123.643 0 0 1-7.387 5.486l1.856 2.711a124.967 124.967 0 0 0 7.59-5.634c.61-.488 1.214-.983 1.818-1.484l-2.107-2.531-1.77 1.452Zm-27.467 16.626 1.317 3.019a124.52 124.52 0 0 0 10.58-5.236l-1.6-2.878a120.248 120.248 0 0 1-10.297 5.095Zm69.914-154.5 3.25-.495a289.743 289.743 0 0 0-1.995-11.543l-3.231.623c.736 3.79 1.394 7.596 1.976 11.415Zm-12.697 103.017a120.05 120.05 0 0 1-2.798 4.664l-.639.996a85.741 85.741 0 0 1-1.484 2.254l2.724 1.85c.52-.771 1.034-1.548 1.715-2.614l.472-.739c.99-1.574 1.947-3.167 2.872-4.793l1.089-1.933-2.885-1.574-1.066 1.889Zm15.241-79.993 3.283-.232a288.19 288.19 0 0 0-1.051-11.666l-3.269.36c.423 3.835.77 7.68 1.037 11.538ZM283.18 281.64l.109 3.289c3.909-.128 7.87-.449 11.766-.944l-.418-3.263c-3.794.488-7.648.797-11.457.918ZM396.475 93.585a280.317 280.317 0 0 0-2.926-11.342l-3.167.887a286.139 286.139 0 0 1 2.894 11.213l3.199-.758ZM305.95 278.73l.726 3.212a124.495 124.495 0 0 0 11.374-3.141l-1.022-3.122a122.107 122.107 0 0 1-11.078 3.051Z"/><path fill="#000" d="M107.039 162.779c-.189.187-.384.366-.576.549-.24.231-.479.464-.724.69-.227.209-.46.412-.691.617-.215.191-.427.386-.645.574-.243.209-.492.412-.739.617-.212.176-.421.355-.636.528-.25.201-.506.395-.76.592-.217.168-.431.339-.65.504-.257.193-.519.379-.779.567-.222.16-.441.323-.666.48-.26.183-.527.359-.792.537-.228.154-.456.31-.687.46-.263.172-.531.337-.798.504-.237.148-.473.299-.713.444-.265.16-.535.313-.804.469-.245.142-.489.287-.737.425-.268.15-.54.294-.812.439-.252.136-.504.272-.759.403-.272.14-.546.274-.82.41-.26.127-.518.256-.78.38-.275.13-.554.255-.833.381-.263.118-.525.238-.79.352-.282.122-.566.238-.85.355-.267.11-.532.22-.8.325-.287.112-.576.22-.866.327-.269.1-.537.201-.808.297-.294.103-.59.202-.885.301-.27.09-.538.18-.81.265-.302.097-.606.187-.911.277-.176.052-.353.104-.53.154-5.327-2.911-8.607-8.414-8.607-14.508 0-6.106 3.284-11.616 8.609-14.527a50.847 50.847 0 0 1 1.483.444c.23.072.456.148.684.224.337.112.675.225 1.01.343.23.082.458.168.686.252.328.121.655.243.98.371.235.093.467.189.7.285.315.128.63.258.942.392.24.104.478.213.716.32.301.136.603.271.901.413.246.115.488.237.733.357.286.141.573.281.857.427.253.131.503.267.754.402.27.144.54.288.809.437.26.145.517.297.775.447.254.148.507.292.759.444.268.162.533.331.8.499.234.147.471.293.704.445.278.181.552.368.826.555.216.146.435.29.648.44.289.202.573.412.858.62.195.142.392.281.584.425.301.227.596.461.893.693.172.136.347.267.518.405.312.251.618.511.925.77.15.126.302.249.451.378.326.281.646.571.966.861.124.112.252.222.375.336a50 50 0 0 1 1.027.981c.093.089.188.176.279.266.429.424.851.856 1.267 1.295-.414.437-.835.865-1.261 1.285Zm-75.651-1.285c9.986-10.545 23.92-16.565 38.464-16.565 3.429 0 6.838.335 10.178.988-4.725 3.718-7.538 9.39-7.538 15.577 0 6.176 2.812 11.841 7.536 15.557a53.03 53.03 0 0 1-10.176.989c-14.54 0-28.472-6.014-38.464-16.546Zm77.549-4.035a55.974 55.974 0 0 0-24.293-13.843l-.054-.013-.553-.151-.012.006a56.192 56.192 0 0 0-14.173-1.817 56.328 56.328 0 0 0-41.927 18.758l-.98 1.095.983 1.099c10.674 11.907 25.954 18.735 41.924 18.735 4.791 0 9.554-.616 14.171-1.817l.014.006.603-.164c10.455-2.842 19.835-8.64 27.12-16.76l.983-1.095-.98-1.099a56.516 56.516 0 0 0-2.826-2.94Zm221.248 2.182 2.326-2.325-8.156-8.156-2.326 2.325 8.156 8.156Zm6.116-2.429 2.325 2.326 8.155-8.156-2.325-2.325-8.155 8.155Zm-28.542-19.998 8.155 8.155 2.326-2.325-8.156-8.155-2.325 2.325Zm42.81 5.727 2.325 2.326 8.053-8.053-2.326-2.325-8.052 8.052Zm-42.81 42.813 2.325 2.326 8.052-8.053-2.325-2.325-8.052 8.052Zm22.323-22.323-8.159 8.159 2.325 2.325 8.159-8.158-2.325-2.326Zm20.384 16.493 8.154 8.156 2.327-2.326-8.156-8.155-2.325 2.325Zm-14.271-14.274 8.155 8.159 2.326-2.326-8.155-8.158-2.326 2.325Z"/></svg>