<svg xmlns="http://www.w3.org/2000/svg" fill="none" viewBox="0 0 471 349"><path fill="#FF5400" d="M226.473 198.304h9.868v-39.562h29.505v39.562h9.8v-48.145h-49.173v48.145Zm111.442-39.561h19.687v39.56h9.801v-39.56h19.687v-8.582h-49.175v8.582Zm65.138 31.943v-16.6h15.621c5.315 0 9.261 3.283 9.261 8.298 0 5.017-3.946 8.302-9.261 8.302h-15.621Zm26.146 5.628c2.784-1.326 4.932-3.188 6.451-5.583 1.522-2.396 2.28-5.18 2.28-8.347s-.758-5.949-2.28-8.345c-1.519-2.395-3.667-4.259-6.451-5.585-2.783-1.325-6.095-1.988-9.949-1.988h-16.197v-16.307h-9.864v48.145h26.061c3.854 0 7.166-.663 9.949-1.99ZM166.343 275.45c-2.313 3.744-3.469 8.121-3.469 13.126 0 5.009 1.156 9.384 3.469 13.13 2.309 3.745 5.531 6.667 9.661 8.763 4.128 2.095 8.932 3.146 14.41 3.146 4.965 0 9.384-.856 13.259-2.568 3.872-1.711 6.997-4.121 9.371-7.222 2.375-3.104 3.796-6.689 4.27-10.754h-9.932c-1.464 7.895-8.33 12.089-17.031 12.089-11.755 0-17.482-7.831-17.482-16.584 0-8.748 5.727-16.58 17.482-16.58 8.832 0 15.548 4.24 17.031 12.086h9.932c-.474-4.109-1.895-7.702-4.27-10.783-2.374-3.079-5.499-5.475-9.371-7.191-3.875-1.711-8.294-2.566-13.259-2.566-5.478 0-10.282 1.047-14.41 3.143-4.13 2.1-7.352 5.019-9.661 8.765Zm67.963-2.364h29.502v39.565h9.803v-48.146H224.44v48.146h9.866v-39.565Zm108.012 39.565 15.008-19.094 14.947 19.094h12.371l-20.399-25.058 18.922-23.088h-12.244l-13.284 17.023-13.457-17.023h-12.498l19.047 23.061-20.526 25.085h12.113Zm56.742.067h10.523l31.672-48.146h-10.523l-16.806 25.545-17.923-25.615h-10.96l23.735 33.441-9.718 14.775Zm-105.146-.067h33.468V304.3h-33.468v-11.749h31.478v-8.002h-31.478v-11.458h33.147v-8.586h-43.012v48.148h9.865v-.002ZM89.156 264.505h-10.57L62.61 284.706H49.787v-20.201h-9.803v48.146h9.803v-20.244h12.87l15.8 20.244h11.407L70.3 287.418l18.857-22.913Z"/><path fill="#FF5400" d="M356.654 114.346V5.426h108.921v108.92H356.654Zm108.923 114.348H191.996V119.773h273.581v108.921Zm-.002 114.346H5.423V234.117h460.152V343.04ZM351.231 0v114.346h-164.66v114.348H0v119.769h471V0H351.231Z"/><path fill="#FF5400" d="M387.041 35.813v9.223h32.401l-33.398 33.398 6.524 6.524 33.396-33.398v32.399h9.223V35.813h-48.146ZM154.625 264.572l-16.738 25.445-17.852-25.515h-10.958l23.661 33.339-9.783 14.877h10.662l31.67-48.146h-10.662Zm154.187-88.808-17.919-25.607h-10.956l23.729 33.43-9.726 14.786h10.535l31.672-48.144h-10.538l-16.797 25.535Z"/></svg>