<svg xmlns="http://www.w3.org/2000/svg" fill="none" viewBox="0 0 179 275"><path fill="#009CFF" d="M32.32 155.729h.008l-.061-.856h-.013a15.016 15.016 0 0 0-7.89-11.837l-.004-.002-.007-.004-.013-.008-.021-.011-.136-.075-.168.047c-.13.037-.258.076-.386.116l-.234.071-.004.001-.155.046a35.04 35.04 0 0 0-.552.166c-.25.079-.498.162-.746.245l-.26.087c-.174.058-.347.115-.52.176-.239.084-.476.173-.713.263l-.267.099c-.174.064-.349.13-.522.197-.235.092-.468.189-.7.285l-.287.119c-.165.068-.33.135-.492.205a39.2 39.2 0 0 0-.691.31l-.305.138c-.154.07-.308.139-.46.211-.226.107-.45.219-.673.33l-.318.158c-.147.073-.294.145-.44.22-.22.115-.44.233-.658.352l-.328.177-.264.144v-.006l-.165.096-.021.012a34.36 34.36 0 0 0-.295.169l-.375.22-.093.054-.116.069v-.013l-.652.4-.136.086-.069.042c-.07.046-.143.091-.213.136l-.036.023v-.01l-.713.464-.056.037-.056.037v.001c-.18.12-.361.242-.54.365l-.322.22c-.117.078-.233.157-.348.238-.221.156-.439.317-.657.478l-.025.018-.296.218c-.105.076-.21.152-.313.231-.225.17-.447.347-.669.523l-.295.233a20.089 20.089 0 0 0-1.002.826l-.258.219c-.089.074-.178.148-.265.224-.237.207-.47.419-.702.632l-.262.237c-.078.07-.156.14-.232.211-.289.27-.571.548-.853.826l-.129.124c-.06.057-.12.114-.178.173-.38.381-.756.769-1.125 1.165l-.272.292.272.292c.37.395.745.783 1.126 1.164.066.066.134.13.2.194l.197.19c.253.248.505.495.764.736.092.086.185.17.28.253l.3.272c.203.186.406.371.613.551.112.098.226.192.34.287l.349.295c.178.152.357.303.538.451.122.099.246.195.37.292l.366.287c.174.138.347.275.524.409.138.104.277.206.416.307l.339.247.016.012c.172.127.344.254.519.377.148.104.298.206.448.307l.374.254c.131.09.263.178.394.267v.012l.175.104.026.016.657.493v-.077l.097.061.119.076v.004l.197.12.007.004.095.058.075.046.005.003.01.006.467.284v-.009l.037.022.173.1v.02l.22.11.162.094c.088.052.178.103.268.154l.035.02.003.002.044.024.124.072v-.005l.375.204.347.187c.17.093.342.185.515.275.186.096.375.189.564.282l.337.167c.175.087.35.175.529.259.192.091.387.179.581.266l.325.147c.181.083.364.166.548.246.202.087.406.171.61.254l.312.129c.185.076.37.153.556.226.205.08.412.157.62.234l.304.113a30.06 30.06 0 0 0 1.216.429l.262.087c.207.069.415.139.623.204.22.069.44.135.66.2l.122.035.22.067c.115.035.23.071.347.104l.158.039.014.004.146-.079.985-.492-.091-.026a14.999 14.999 0 0 0 7.026-11.319h.013l.029-.397.032-.459h-.007c.01-.219.016-.433.016-.644 0-.209-.007-.423-.016-.64Zm93.351.64c0-.209-.006-.423-.016-.64h.007l-.06-.856h-.013a15.018 15.018 0 0 0-7.89-11.837l-.004-.002-.007-.004-.013-.008-.023-.012-.134-.074-.168.048c-.128.036-.255.075-.383.114l-.24.073-.156.046a27.01 27.01 0 0 0-1.26.399l-.279.093c-.181.06-.361.12-.541.183-.228.081-.454.165-.68.25l-.282.105c-.182.068-.364.135-.544.206l-.196.08c-.144.058-.289.116-.433.176l-.095.039-.215.089a32.59 32.59 0 0 0-.543.226c-.196.085-.392.174-.587.263l-.335.152c-.18.081-.359.162-.537.246-.191.091-.381.185-.57.28l-.321.159a22.92 22.92 0 0 0-1.057.547l-.045.024v-.006l-.85.466-.222.129v-.005l-.841.496a21.93 21.93 0 0 0-.29.171v-.002l-.107.067-.03.018-.282.178-.055.035-.041.026-.317.2c-.183.114-.366.229-.545.347-.14.092-.277.186-.415.28l-.367.25a28.52 28.52 0 0 0-.539.37c-.131.091-.259.186-.387.28l-.364.267c-.181.131-.362.262-.54.398-.122.092-.242.187-.361.282l-.367.288c-.178.138-.356.277-.531.42-.116.094-.231.192-.345.289l-.354.298a27.23 27.23 0 0 0-.526.446l-.005.004-.001.001-.004.004a19 19 0 0 0-.33.296l-.353.319a20.773 20.773 0 0 0-.869.81l-.368.356c-.14.134-.28.268-.417.405-.38.379-.753.766-1.12 1.16l-.272.293.272.291c.37.395.745.783 1.126 1.164l.203.197.184.177c.255.251.512.502.773.746.093.087.187.171.282.255l.302.274c.203.184.404.368.61.548.111.097.224.191.337.285l.35.295c.179.152.358.304.541.452.122.1.246.196.37.293l.376.296c.17.134.34.269.513.4.134.102.271.201.408.3l.368.269a21.32 21.32 0 0 0 .952.674l.372.253c.169.115.338.231.509.343.159.105.321.206.482.307l.098.061v.004l.174.106.027.017.186.117.226.142.155.097.064.037.014.009c.078.047.156.092.235.138l.834.492v-.005c.075.043.15.088.226.13v.003l.138.074.708.388v-.006l.024.013.025.014.187.099c.108.058.216.117.325.174.182.094.365.184.548.274l.358.177a25.352 25.352 0 0 0 1.119.529l.319.145c.18.082.359.163.541.242.202.087.407.171.612.255l.322.133a31.391 31.391 0 0 0 1.173.459l.28.104c.197.073.394.147.592.217.213.075.428.147.643.218l.272.091c.202.067.405.135.608.199.22.069.441.134.661.199l.127.038.223.067c.113.034.226.069.34.102l.165.041.007.002.145-.078.987-.493-.091-.026a15 15 0 0 0 7.025-11.318h.013l.028-.398.033-.459h-.007c.009-.218.016-.433.016-.644Z"/><path fill="#fff" d="M65.879 151.496a47.08 47.08 0 0 0-7.193-4.745 46.83 46.83 0 0 0-21.992-5.518 46.73 46.73 0 0 0-9.759 1.033l-.949.203.79.564a16.28 16.28 0 0 1 6.808 12.295c.025.397.037.728.037 1.041 0 .315-.012.648-.037 1.046a16.276 16.276 0 0 1-6.807 12.277l-.79.564.95.203a46.85 46.85 0 0 0 9.756 1.032 46.865 46.865 0 0 0 24.155-6.745 46.731 46.731 0 0 0 9.977-8.085l.273-.292-.273-.292a46.762 46.762 0 0 0-4.947-4.581Zm93.714.305a48.711 48.711 0 0 0-1.715-1.34 46.814 46.814 0 0 0-27.851-9.228 46.75 46.75 0 0 0-9.757 1.033l-.95.203.791.564a16.286 16.286 0 0 1 6.808 12.295c.024.396.036.727.036 1.041 0 .315-.012.648-.036 1.046a16.278 16.278 0 0 1-6.808 12.276l-.79.565.95.202a46.85 46.85 0 0 0 9.756 1.033 46.83 46.83 0 0 0 34.134-14.829l.273-.293-.273-.292a46.761 46.761 0 0 0-4.568-4.276Zm-17.14-56.351 28.92-44.212h-17.027V5.746l-28.919 44.208h17.026V95.45ZM60.339 5.748l-28.92 44.209h17.026v45.496l28.92-44.212H60.339V5.748Z"/><path fill="#FF5400" d="M175.509 86.5h-25.666l-8.674 13.26V86.5h-10.842l-22.216 22.216h45.182l22.216-22.217Zm-21.297 60.006.21.124a48.448 48.448 0 0 1 4.47 2.99l.297.224 17.235-17.235-.006-45.201-22.208 22.207.002 36.891Zm-36.795-4.873.231-.063.007.004.16-.042a47.913 47.913 0 0 1 12.212-1.584 48.148 48.148 0 0 1 22.273 5.5l.627.329-.002-35.777h-45.723l-.008 35.723.627-.328a47.768 47.768 0 0 1 9.596-3.762ZM81.51 86.5H55.837l-8.675 13.262V86.5H36.305l-22.216 22.217h45.19L81.509 86.5Zm94.914 47.925-16.219 16.218.364.3a47.93 47.93 0 0 1 5.207 4.999l.384.428-.383.428a47.95 47.95 0 0 1-11.355 9.298l-.21.125v37.159a70.941 70.941 0 0 1-10.173 36.627l-1.811 3.004 13.737-13.737c13.197-13.197 20.465-30.742 20.465-49.403l-.006-45.446Z"/><path fill="#FF5400" d="m152.927 166.949-.626.328a48.17 48.17 0 0 1-22.273 5.498c-4.115 0-8.223-.532-12.213-1.581l-.4-.102a47.742 47.742 0 0 1-9.583-3.756l-.627-.327-.001 36.401-.002.061.001.551-.025.41a24.088 24.088 0 0 1-24.12 23.095c-13.315 0-24.147-10.833-24.147-24.147l.002-36.068-.62.313a48.213 48.213 0 0 1-21.6 5.15 48.03 48.03 0 0 1-12.212-1.581l-.4-.102a47.81 47.81 0 0 1-10.26-4.124l-.633-.344.003 36.748c0 1.005.023 2.03.071 3.132l.014.38c.009.171.02.34.03.51l.033.531c.016.261.031.521.051.78l.025.292c1.266 15.836 8.026 30.93 19.035 42.502 10.97 11.531 25.64 19.035 41.309 21.128l.208.029c.103.015.205.029.308.041.14.018.28.033.421.049l.226.025c2.699.311 5.429.469 8.138.469h.046c2.17 0 4.386-.105 6.585-.309l.398-.036c.125-.012.25-.027.376-.041l.245-.027c16.984-1.859 32.685-9.914 44.211-22.68 11.612-12.862 18.006-29.471 18.006-46.767v-36.431ZM24.082 141.633l.232-.063.006.004.161-.043a47.928 47.928 0 0 1 12.212-1.583c7.45 0 14.918 1.782 21.597 5.151l.621.314L58.903 110H13.18l.003 36.104.633-.344a47.745 47.745 0 0 1 10.265-4.127Zm36.106-32.009.007 36.491.216.123a48.258 48.258 0 0 1 4.76 3.094l.297.219 16.945-16.945.005-45.199-22.105 22.091-.125.126Z"/><path fill="#FF5400" d="m82.412 134.422-15.917 15.917.37.3a47.979 47.979 0 0 1 5.576 5.303l.382.427-.384.429a47.917 47.917 0 0 1-12.025 9.689l-.217.123v36.77a22.711 22.711 0 0 0 6.694 16.165 22.702 22.702 0 0 0 16.166 6.698c12.243 0 22.273-9.575 22.836-21.799l.02-.429-.429-.019a24.043 24.043 0 0 1-16.01-7.044c-4.557-4.555-7.067-10.621-7.067-17.08l.005-45.45Z"/><path fill="#000" d="M83.058 225.815a22.28 22.28 0 0 1-15.864-6.572 22.292 22.292 0 0 1-6.568-15.863v-36.521a48.434 48.434 0 0 0 12.133-9.775l.64-.715-.638-.713a48.338 48.338 0 0 0-5.626-5.351l14.85-14.849-.006 44.415c0 6.572 2.555 12.747 7.194 17.384a24.39 24.39 0 0 0 16.293 7.169c-.547 11.888-10.387 21.391-22.408 21.391Zm92.938-93.383-16.847 16.846a48.632 48.632 0 0 0-4.509-3.017l-.002-36.469 21.352-21.351.006 43.991Zm-48.65 22.869a16.72 16.72 0 0 0-6.987-12.617 46.31 46.31 0 0 1 9.669-1.023 46.264 46.264 0 0 1 22.471 5.838 46.583 46.583 0 0 1 5.124 3.305 47.015 47.015 0 0 1 6.225 5.565 46.3 46.3 0 0 1-11.349 8.858 46.289 46.289 0 0 1-22.471 5.835c-3.26 0-6.5-.347-9.668-1.022a16.71 16.71 0 0 0 6.986-12.598c.022-.356.037-.713.037-1.073 0-.359-.015-.714-.037-1.068Zm-93.335 0a16.718 16.718 0 0 0-6.987-12.617 46.291 46.291 0 0 1 9.669-1.023 46.252 46.252 0 0 1 27.2 8.858 46.149 46.149 0 0 1 6.618 5.85 46.305 46.305 0 0 1-12.026 9.228 46.275 46.275 0 0 1-21.792 5.465 46.38 46.38 0 0 1-9.668-1.022 16.71 16.71 0 0 0 6.986-12.598c.022-.356.037-.713.037-1.073 0-.359-.015-.714-.037-1.068Zm26.605-45.5L81.99 88.44l-.005 43.988-16.56 16.56a48.364 48.364 0 0 0-4.802-3.122l-.007-36.065Zm22.49 163.01h-.069c-2.716 0-5.407-.159-8.066-.465-.214-.025-.429-.047-.643-.074-.172-.021-.342-.047-.514-.069-32.122-4.292-57.365-30.624-59.972-63.241-.008-.097-.018-.192-.025-.289-.026-.343-.045-.688-.066-1.033-.015-.258-.034-.517-.047-.776-.006-.126-.009-.252-.014-.378a71.142 71.142 0 0 1-.071-3.115l-.002-36.027a48.12 48.12 0 0 0 10.351 4.162l.034.008.362.098.008-.004a48.431 48.431 0 0 0 12.32 1.595c7.642 0 15.099-1.82 21.793-5.196l-.002 35.373c0 13.55 11.025 24.575 24.575 24.575 13.19 0 23.985-10.449 24.548-23.505h.025l-.001-.979.003-.091v-35.665a48.147 48.147 0 0 0 9.67 3.791l.034.008.361.098.008-.004a48.457 48.457 0 0 0 12.322 1.595c7.9 0 15.603-1.947 22.471-5.547v35.724c0 35.718-27.111 65.221-61.836 69.021-.205.022-.41.048-.617.068-.131.014-.263.023-.395.035a70.366 70.366 0 0 1-6.545.307Zm61.299-32.584a71.138 71.138 0 0 0 10.235-36.847v-36.915a48.471 48.471 0 0 0 11.455-9.381l.64-.715-.64-.713a48.245 48.245 0 0 0-5.254-5.043l15.155-15.155.006 44.413c0 18.546-7.225 35.985-20.34 49.1l-11.257 11.256Zm-1.524-190.7h-16.662l27.7-42.345v44.485h16.662l-27.7 42.347V49.526Zm-2.14 37.4v14.27l9.334-14.27h24.401l-21.36 21.36h-43.972l21.36-21.36h10.237Zm-33.11 23.501h44.866l.002 34.641a48.397 48.397 0 0 0-22.471-5.549c-4.174 0-8.317.542-12.322 1.597l-.008-.004-.393.107a48.111 48.111 0 0 0-9.682 3.795l.008-34.587Zm-9.704 44.214c.183-.177.363-.357.549-.531.22-.205.444-.403.666-.603.173-.155.341-.312.515-.464.228-.199.461-.391.693-.585.174-.146.345-.295.521-.439.233-.189.471-.372.707-.557.18-.141.358-.285.54-.423.235-.179.474-.35.712-.524.189-.138.376-.278.566-.412.236-.167.477-.327.716-.49.198-.134.394-.271.593-.402.237-.155.476-.303.715-.454l.062-.038c.187-.118.373-.239.563-.354.167-.102.337-.197.506-.297l.208-.123c.217-.126.433-.255.653-.379.069-.039.14-.075.21-.114.166-.092.333-.181.5-.271.228-.123.454-.248.685-.367.233-.12.469-.235.704-.351.238-.119.476-.239.717-.353.232-.11.467-.214.701-.32.247-.112.494-.226.744-.335.232-.1.467-.195.701-.292.255-.105.51-.212.768-.313.232-.091.467-.177.701-.264.263-.098.526-.197.791-.291.232-.082.467-.159.701-.237.27-.09.54-.181.812-.267.233-.073.467-.141.702-.211.206-.061.41-.127.617-.185l.007.004a14.612 14.612 0 0 1 7.73 11.901c.025.353.04.709.04 1.068 0 .36-.015.718-.041 1.073-.361 5.028-3.242 9.485-7.73 11.884l-.006.003c-.187-.052-.372-.112-.558-.167-.26-.077-.521-.153-.78-.234-.247-.078-.491-.161-.736-.242-.258-.086-.517-.171-.773-.262-.242-.085-.482-.176-.722-.265-.256-.096-.512-.189-.766-.289-.238-.093-.474-.192-.71-.289-.252-.104-.504-.206-.754-.314-.235-.102-.467-.209-.701-.315-.247-.112-.495-.222-.741-.338-.231-.11-.46-.226-.69-.34-.242-.119-.486-.238-.726-.362-.229-.118-.455-.243-.682-.365-.165-.089-.33-.177-.494-.268l-.011-.006c-.067-.037-.136-.072-.204-.11-.228-.128-.452-.262-.678-.394l-.189-.111c-.165-.097-.332-.192-.496-.291-.189-.115-.375-.235-.563-.353l-.01-.006-.104-.066c-.22-.139-.442-.275-.659-.418-.229-.149-.453-.305-.678-.459-.21-.143-.422-.283-.63-.43-.23-.162-.457-.331-.684-.498-.198-.145-.398-.287-.594-.436-.233-.176-.461-.36-.691-.541-.185-.146-.373-.289-.557-.438-.236-.192-.467-.392-.7-.589-.172-.145-.346-.287-.516-.434-.249-.218-.492-.441-.736-.664-.148-.135-.3-.266-.446-.403a42.85 42.85 0 0 1-.813-.784c-.112-.109-.226-.216-.337-.326a48.56 48.56 0 0 1-1.115-1.153c.363-.39.733-.773 1.11-1.15.195-.196.396-.385.595-.577ZM48.874 49.528H32.21l27.7-42.343v44.484h16.662l-27.7 42.347V49.528Zm-2.14 37.4v14.271l9.334-14.272h24.407l-21.373 21.36h-43.98l21.36-21.36h10.251Zm-33.126 23.5h44.867l.008 34.29a48.38 48.38 0 0 0-21.79-5.198 48.36 48.36 0 0 0-12.321 1.597l-.008-.004-.393.107a48.065 48.065 0 0 0-10.359 4.165l-.004-34.957ZM4.305 154.92c.28-.275.56-.551.846-.818.127-.119.258-.233.386-.35.265-.242.529-.485.799-.72.14-.123.284-.24.426-.361.263-.223.524-.447.79-.665.154-.124.31-.243.465-.365.26-.207.52-.415.785-.616.163-.124.33-.242.494-.363.26-.192.52-.386.785-.573.175-.123.354-.241.53-.361.259-.178.517-.357.78-.529.026-.018.054-.035.081-.052.157-.102.315-.2.473-.3.2-.127.4-.258.602-.382l.182-.111c.192-.116.387-.227.58-.34l.303-.179c.16-.092.32-.187.482-.278.2-.112.403-.218.604-.327.262-.142.524-.286.79-.423.205-.106.415-.207.622-.311.265-.132.528-.264.795-.391.213-.101.43-.196.645-.294.265-.121.53-.243.797-.358.22-.095.442-.185.664-.277.267-.11.533-.222.801-.327.226-.088.454-.172.682-.257.269-.1.537-.202.808-.297.23-.081.461-.157.692-.234.273-.091.545-.183.819-.269.232-.073.466-.141.7-.21.206-.061.41-.128.619-.186l.006.004a14.611 14.611 0 0 1 7.73 11.901c.025.353.04.709.04 1.068 0 .36-.015.718-.04 1.073-.36 5.028-3.243 9.485-7.73 11.884l-.006.003c-.189-.053-.374-.113-.562-.168-.259-.076-.518-.152-.775-.233-.248-.078-.494-.161-.74-.243-.257-.086-.514-.17-.77-.261-.242-.085-.483-.176-.724-.266-.255-.095-.51-.188-.763-.288-.24-.093-.475-.193-.713-.29-.25-.103-.503-.205-.751-.313-.236-.102-.47-.21-.703-.316-.247-.111-.494-.221-.739-.337-.232-.11-.461-.226-.691-.34-.243-.12-.486-.238-.726-.362-.229-.118-.455-.243-.682-.365-.237-.127-.474-.253-.708-.384-.158-.088-.313-.18-.468-.27l-.003-.001-.209-.124c-.228-.133-.458-.264-.684-.401l-.172-.105c-.17-.104-.337-.214-.505-.32-.19-.12-.38-.238-.568-.36l-.002-.001-.09-.057c-.227-.149-.45-.305-.676-.458-.21-.143-.423-.284-.631-.431-.23-.162-.456-.331-.682-.497-.2-.145-.4-.288-.596-.437-.232-.176-.46-.359-.69-.54-.186-.146-.374-.289-.558-.439-.236-.192-.467-.391-.7-.588-.171-.145-.346-.287-.516-.435-.248-.217-.492-.441-.735-.663-.15-.135-.3-.266-.448-.404-.274-.256-.543-.52-.812-.783-.112-.11-.227-.216-.338-.327-.378-.378-.75-.762-1.115-1.153.365-.392.737-.777 1.114-1.155.1-.1.204-.195.304-.294Zm88.582 119.362c15.384-2.094 29.605-9.114 40.788-20.297l23.501-23.501c13.52-13.516 20.966-31.494 20.966-50.613l-.012-95.084h-26.655l23.065-35.26h-18.481V0l-33.8 51.667h18.482v33.12h-11.123l-24.128 24.128-.008 37.299a48.528 48.528 0 0 0-11.51 9.442l-.638.713.64.715a48.49 48.49 0 0 0 11.508 9.428l.008 35.772a22.259 22.259 0 0 1-14.804-6.542c-4.235-4.231-6.566-9.867-6.566-15.871l.01-95.084H57.47l23.064-35.259H62.05V.002l-33.8 51.667h18.482v33.118H35.595l-24.127 24.128.004 37.7a48.548 48.548 0 0 0-10.835 9.041l-.637.713.64.715a48.89 48.89 0 0 0 2.433 2.525 48.513 48.513 0 0 0 8.4 6.503l.003 37.268c0 1.07.028 2.133.075 3.192.006.133.008.267.015.4.013.266.032.53.048.796.022.356.042.714.068 1.069l.026.297c1.338 16.95 8.577 32.702 20.73 44.859 11.273 11.271 25.638 18.313 41.18 20.344.14.018.279.039.419.057.26.032.523.06.785.09 2.703.31 5.45.476 8.236.476a72.12 72.12 0 0 0 6.801-.325c.133-.013.267-.022.4-.036.222-.021.443-.049.665-.074a73.433 73.433 0 0 0 1.963-.243Z"/></svg>