<svg xmlns="http://www.w3.org/2000/svg" fill="none" viewBox="0 0 175 164"><path fill="#FFE82C" d="M145.701 71.142h26.078l-7.531-24.488-14.573-14.61H49.801c-10.112 0-18.858 1.69-26.229 5.068-.55.25-1.09.516-1.623.783-6.581 3.325-11.69 7.896-15.327 13.685C2.684 57.84.723 65.265.723 73.854c0 3.237.346 6.438 1.056 9.604.7 3.165 1.747 5.949 3.158 8.34l14.569 14.608 24.641-6.546a27.751 27.751 0 0 1-1.896-5.594 25.83 25.83 0 0 1-.632-5.596c0-5.49 1.65-9.782 4.95-12.88 2.389-2.242 5.658-3.661 9.781-4.28l9.132 29.581-18.608 35.546 14.565 14.61 24.649 11.791 23.548-47.338-13.66-44.558h9.953l23.611 76.279 14.573 14.61h29.697l-28.109-90.889Z"/><path fill="#fff" d="M144.573 11.746a32.937 32.937 0 0 0-15.895-9.86 32.808 32.808 0 0 0-8.667-1.16c-9.76 0-18.537 4.256-24.574 11.02 6.037 6.753 14.814 11.01 24.574 11.01 3.002 0 5.906-.405 8.667-1.16 6.223-1.697 11.714-5.177 15.895-9.85Z"/><path fill="#009CFF" d="M144.573 11.746a32.937 32.937 0 0 0-15.895-9.86 11.03 11.03 0 0 0-6.08 9.86c0 4.312 2.478 8.044 6.08 9.85 6.223-1.697 11.714-5.177 15.895-9.85Z"/><path fill="#fff" d="M79.546 11.746a32.94 32.94 0 0 0-15.895-9.86 32.818 32.818 0 0 0-8.667-1.16c-9.76 0-18.537 4.256-24.574 11.02 6.037 6.753 14.814 11.01 24.574 11.01 3.002 0 5.905-.405 8.667-1.16 6.223-1.697 11.714-5.177 15.895-9.85Z"/><path fill="#009CFF" d="M79.546 11.746a32.94 32.94 0 0 0-15.895-9.86 11.03 11.03 0 0 0-6.08 9.86c0 4.312 2.478 8.044 6.08 9.85 6.223-1.697 11.714-5.177 15.895-9.85Z"/><path fill="#000" d="m96.275 70.417-13.12-13.152h17.742l4.068 13.152h-8.69Zm11.812 42.7-12.382-12.413-12.75-41.586 12.383 12.411 12.749 41.588Zm-57.717 26 20.724 9.916 11.501 11.53-20.732-9.918-11.493-11.528Zm-4.297-63.856c-3.436 3.224-5.177 7.736-5.177 13.408 0 1.876.218 3.812.647 5.755.184.828.41 1.653.673 2.472L30.184 84.835a26.973 26.973 0 0 1-1.795-5.333 25.249 25.249 0 0 1-.616-5.44c0-5.253 1.589-9.408 4.72-12.348 3.146-2.951 7.976-4.449 14.354-4.449h4.34l4.22 13.666c-3.881.705-7.02 2.157-9.334 4.33ZM6.338 92.177l23.023-6.115L42.746 99.48l-23.022 6.116-13.386-13.42Zm88.927 10.139 13.491 13.525-22.867 45.971-13.494-13.526 22.87-45.97ZM2.486 83.298a43.127 43.127 0 0 1-1.038-9.443c0-8.422 1.947-15.785 5.787-21.888 3.556-5.66 8.616-10.177 15.038-13.424a45.4 45.4 0 0 1 1.601-.77c7.24-3.32 15.962-5.003 25.926-5.003h73.794v.001h25.546l7.088 23.043h-26.084l28.11 90.883h-28.18l-28.108-90.883H80.427l13.86 45.211-23.102 46.441-23.32-11.158 18.397-35.145L56.857 70.7h-.004l-4.598-14.886h-5.408c-6.759 0-11.92 1.627-15.344 4.84-3.435 3.225-5.177 7.736-5.177 13.409 0 1.874.218 3.81.648 5.755a28.393 28.393 0 0 0 1.597 4.952L5.294 90.953c-1.222-2.196-2.169-4.764-2.808-7.655Zm167.74-14.737-12.375-12.406-6.623-21.528 12.381 12.412 6.617 21.522Zm-24.231 1.856-13.12-13.152h24.035l13.119 13.152h-24.034Zm26.254 89.023-12.371-12.402-27.191-87.909 12.377 12.407 27.185 87.904Zm-40.961-11.292h27.65l13.123 13.156h-27.648l-13.125-13.156Zm43.504 14.608-28.107-90.888h26.075l-7.82-25.429-14.965-15.12H49.8c-10.173 0-19.098 1.726-26.524 5.131-.56.253-1.109.524-1.654.796-6.662 3.368-11.914 8.061-15.614 13.946C2.021 57.53 0 65.155 0 73.855c0 3.306.36 6.59 1.071 9.76.72 3.248 1.81 6.125 3.242 8.553l14.975 15.048 25.879-6.876-.362-.786a27.012 27.012 0 0 1-1.847-5.445 25.236 25.236 0 0 1-.615-5.44c0-5.254 1.588-9.409 4.72-12.349 2.14-2.008 5.092-3.35 8.776-3.992l8.86 28.689-18.47 35.282.003.001-.015.024c-.002.005-.002.009-.005.013l-.228.436.343.344.01.01 14.59 14.632L86.417 164l23.997-48.236-13.456-43.896h8.437l23.452 75.77c.072.233.251.4.467.47l14.499 14.648h30.979ZM120.011 1.451a32.2 32.2 0 0 1 6.786.725 11.681 11.681 0 0 0-4.924 9.57 11.67 11.67 0 0 0 4.924 9.558 32.206 32.206 0 0 1-6.786.726c-8.939 0-17.5-3.74-23.593-10.285A32.253 32.253 0 0 1 120.01 1.451Zm22.802 11.102c-.082.082-.167.16-.249.242-.183.18-.366.36-.553.535-.101.094-.205.185-.306.278-.173.158-.345.316-.521.47-.109.096-.221.187-.331.28-.172.147-.343.295-.518.437-.116.095-.235.185-.352.278-.173.137-.345.276-.521.41-.12.09-.242.178-.363.267-.177.13-.352.261-.531.387-.123.088-.249.17-.373.256-.18.124-.36.248-.542.368-.126.083-.254.162-.381.243-.184.117-.368.235-.554.348-.129.08-.261.154-.392.231-.187.11-.373.221-.562.328-.133.074-.267.145-.401.217-.19.104-.38.209-.573.308-.134.07-.27.135-.405.203-.195.097-.389.195-.586.289-.136.064-.275.125-.412.188-.198.09-.396.182-.596.269-.139.06-.28.117-.42.175-.201.084-.402.168-.604.247-.142.056-.284.108-.427.161-.204.077-.408.154-.614.227-.144.05-.288.097-.432.146-.207.07-.414.14-.622.205-.147.046-.294.089-.441.133-.159.047-.318.094-.477.139a10.236 10.236 0 0 1-5.433-9.073c0-3.83 2.076-7.285 5.434-9.082.144.04.288.083.432.126.167.05.335.098.501.15.186.059.371.122.556.184.167.056.334.11.5.17.181.063.361.132.541.2.167.061.334.122.499.187.177.07.353.144.529.217.165.069.331.136.495.207.174.075.345.155.517.233.164.074.328.147.491.225.17.08.338.166.506.25.161.08.324.159.484.242.167.086.331.177.497.267.158.085.317.17.474.258.165.093.327.19.49.285.155.091.31.18.464.274.162.099.322.202.483.304.15.096.301.189.449.286.163.107.322.218.482.328.144.099.289.195.431.296.161.114.319.232.478.35.138.101.278.201.415.305.161.123.319.25.478.376.131.104.263.205.392.31.166.136.329.277.493.417.118.1.238.198.355.3.172.152.341.308.51.463.105.096.212.189.316.286.19.179.376.363.563.546.078.078.16.153.238.232.263.265.522.534.777.808a32.23 32.23 0 0 1-.778.808ZM120.011 23.48c2.908 0 5.794-.377 8.584-1.115l.008.003.265-.073c6.263-1.707 11.88-5.187 16.244-10.066l.434-.485-.433-.484a34.044 34.044 0 0 0-2.581-2.597 33.502 33.502 0 0 0-13.662-7.48l-.021-.004-.246-.068-.008.003A33.555 33.555 0 0 0 120.011 0a33.703 33.703 0 0 0-25.114 11.261l-.433.484.434.485a33.725 33.725 0 0 0 25.113 11.25ZM54.983 1.451c2.29 0 4.566.247 6.788.726a11.68 11.68 0 0 0-4.924 9.569 11.67 11.67 0 0 0 4.923 9.559 32.205 32.205 0 0 1-6.787.725 32.277 32.277 0 0 1-23.592-10.284A32.25 32.25 0 0 1 54.983 1.45Zm22.804 11.102c-.081.081-.166.16-.248.24-.184.181-.367.362-.554.537-.102.095-.206.186-.308.28-.173.157-.344.315-.519.468-.109.096-.221.187-.332.281-.172.147-.343.294-.518.437-.115.094-.233.183-.349.276-.174.137-.346.276-.523.41-.12.092-.244.18-.365.27-.176.129-.35.26-.528.385-.125.088-.252.172-.378.259-.178.122-.356.246-.537.365-.128.084-.258.163-.386.245-.183.116-.365.233-.55.346-.13.079-.261.154-.392.231-.187.11-.373.221-.562.327-.132.075-.266.145-.4.217-.19.104-.38.209-.574.309-.134.07-.27.135-.406.203-.195.097-.389.195-.585.288-.137.065-.275.126-.413.19-.198.09-.396.18-.596.267-.138.06-.277.117-.416.175-.203.083-.405.168-.609.248-.14.055-.28.106-.42.16-.207.077-.413.155-.62.228-.142.05-.285.096-.427.144a27.22 27.22 0 0 1-.629.208c-.143.045-.288.087-.432.13-.16.048-.322.096-.484.141a10.236 10.236 0 0 1-5.432-9.072c0-3.831 2.074-7.286 5.433-9.083.145.04.29.084.435.127.166.049.332.097.496.149.191.06.38.125.57.188.162.054.323.107.483.164.19.067.38.139.568.21.157.058.315.116.47.177.191.075.379.154.567.232.153.063.306.125.457.19.19.082.376.169.564.255.147.067.296.133.443.203.188.09.375.183.561.277.143.07.287.14.428.214.188.097.373.2.559.3.138.075.276.148.413.225.187.105.37.215.555.324.133.078.267.154.399.235.185.112.368.23.55.347.128.081.257.16.384.244.184.121.365.247.547.372.122.084.246.166.367.252.181.128.36.261.538.393.119.088.239.174.356.263.18.137.356.279.533.419.112.09.227.177.339.268.18.148.357.3.535.452.104.09.21.176.314.266.182.16.36.325.54.49.095.087.192.171.286.26.195.182.385.37.575.557.075.074.152.146.227.221.264.265.523.534.778.809-.255.274-.515.543-.778.807ZM54.983 23.481c2.91 0 5.796-.377 8.586-1.115l.007.003.265-.073c6.264-1.707 11.88-5.188 16.244-10.065l.435-.485-.433-.485a34.174 34.174 0 0 0-2.58-2.597 33.492 33.492 0 0 0-13.664-7.479l-.02-.005-.247-.068-.007.003A33.57 33.57 0 0 0 54.983 0 33.702 33.702 0 0 0 29.87 11.261l-.432.485.434.485a33.725 33.725 0 0 0 25.111 11.25Z"/></svg>