<svg xmlns="http://www.w3.org/2000/svg" fill="none" viewBox="0 0 314 306"><path fill="#009CFF" d="M295.387 271.985h-131.48l-60.813-89.744h131.48l60.813 89.744Z"/><path fill="#000" fill-rule="evenodd" d="M163.436 272.873h133.627l-62.018-91.521H101.418l62.018 91.521Zm.942-1.777-59.609-87.967h129.333l59.609 87.967H164.378Z" clip-rule="evenodd"/><path fill="#009CFF" d="M261.347 296.191H129.88L96.387 182.24h131.466l33.494 113.951Z"/><path fill="#000" fill-rule="evenodd" d="M129.215 297.08h133.319l-34.016-115.728H95.199l34.016 115.728Zm1.33-1.778-32.97-112.173h129.613l32.971 112.173H130.545Z" clip-rule="evenodd"/><path fill="#009CFF" d="M222.707 304.74H91.24v-122.5h131.467v122.5Z"/><path fill="#000" fill-rule="evenodd" d="M90.351 305.629h133.244V181.352H90.351v124.277Zm1.778-1.777V183.129h129.689v120.723H92.128Z" clip-rule="evenodd"/><path fill="#009CFF" d="M184.08 296.191H52.6L86.093 182.24h131.48L184.08 296.191Z"/><path fill="#000" fill-rule="evenodd" d="M51.412 297.08h133.333l34.015-115.728H85.428L51.412 297.08Zm2.375-1.778 32.971-112.173h129.627l-32.971 112.173H53.787Z" clip-rule="evenodd"/><path fill="#009CFF" d="M150.093 271.911H18.613l60.774-89.67h131.466l-60.76 89.67Z"/><path fill="#000" fill-rule="evenodd" d="M16.938 272.8h133.627l61.964-91.448H78.916L16.938 272.8Zm3.351-1.777 59.569-87.894h129.32l-59.556 87.894H20.289Z" clip-rule="evenodd"/><path fill="#fff" d="M79.4 153c5.574-6.213 12.88-10.84 21.16-13.093 3.68-1 7.534-1.534 11.534-1.534 12.986 0 24.666 5.654 32.706 14.627-8.04 8.96-19.72 14.613-32.706 14.613-4 0-7.854-.533-11.534-1.533-8.28-2.253-15.586-6.88-21.16-13.08Z"/><path fill="#000" fill-rule="evenodd" d="M100.327 166.938a44.757 44.757 0 0 0 11.767 1.564c13.25 0 25.167-5.769 33.368-14.908l.532-.593-.532-.594c-8.201-9.153-20.118-14.922-33.368-14.922-4.08 0-8.012.544-11.767 1.564-8.45 2.3-15.904 7.021-21.588 13.358l-.533.594.534.593c5.684 6.323 13.137 11.044 21.587 13.344Zm.467-1.715c-7.844-2.135-14.799-6.445-20.19-12.223 5.39-5.791 12.346-10.101 20.189-12.236m.001 24.459a42.987 42.987 0 0 0 11.3 1.502c12.434 0 23.646-5.289 31.503-13.725-7.857-8.449-19.069-13.738-31.503-13.738-3.92 0-7.696.523-11.301 1.502" clip-rule="evenodd"/><path fill="#FF5400" d="M79.4 153c5.574-6.213 12.88-10.84 21.16-13.093 4.787 2.4 8.094 7.373 8.094 13.093s-3.307 10.68-8.094 13.08c-8.28-2.253-15.586-6.88-21.16-13.08Z"/><path fill="#000" fill-rule="evenodd" d="m100.655 167.027.304-.152c5.074-2.544 8.583-7.804 8.583-13.875 0-6.07-3.508-11.343-8.583-13.887l-.304-.153-.328.089c-8.45 2.3-15.904 7.021-21.588 13.358l-.533.594.534.593c5.684 6.323 13.137 11.044 21.587 13.344l.328.089ZM80.605 153c5.314-5.709 12.148-9.979 19.857-12.144 4.336 2.31 7.303 6.894 7.303 12.144 0 5.249-2.966 9.821-7.303 12.131-7.708-2.165-14.543-6.435-19.857-12.131Z" clip-rule="evenodd"/><path fill="#fff" d="M169.2 153c5.573-6.213 12.88-10.84 21.16-13.093 3.667-1 7.533-1.534 11.533-1.534 12.987 0 24.667 5.654 32.707 14.627-8.04 8.96-19.72 14.613-32.707 14.613-4 0-7.866-.533-11.533-1.533-8.28-2.253-15.587-6.88-21.16-13.08Z"/><path fill="#000" fill-rule="evenodd" d="M190.127 166.938a44.683 44.683 0 0 0 11.766 1.564c13.251 0 25.167-5.769 33.368-14.908l.533-.593-.532-.594c-8.201-9.153-20.118-14.922-33.369-14.922-4.079 0-8.024.544-11.766 1.564-8.45 2.3-15.904 7.021-21.588 13.358l-.533.594.533.593c5.684 6.323 13.138 11.044 21.588 13.344Zm11.766-.213a42.9 42.9 0 0 1-11.299-1.502c-7.844-2.135-14.799-6.445-20.19-12.223 5.391-5.791 12.345-10.101 20.189-12.236a42.908 42.908 0 0 1 11.3-1.502c12.435 0 23.646 5.289 31.503 13.738-7.857 8.436-19.068 13.725-31.503 13.725Z" clip-rule="evenodd"/><path fill="#FF5400" d="M169.2 153c5.573-6.213 12.88-10.84 21.16-13.093 4.787 2.4 8.093 7.373 8.093 13.093s-3.306 10.68-8.093 13.08c-8.28-2.253-15.587-6.88-21.16-13.08Z"/><path fill="#000" fill-rule="evenodd" d="m190.455 167.027.303-.152c5.074-2.544 8.584-7.804 8.584-13.875 0-6.07-3.509-11.343-8.584-13.887l-.303-.153-.328.089c-8.45 2.3-15.904 7.021-21.588 13.358l-.533.594.533.593c5.684 6.323 13.138 11.044 21.588 13.344l.328.089ZM170.404 153c5.314-5.709 12.149-9.979 19.857-12.144 4.337 2.31 7.304 6.894 7.304 12.144 0 5.249-2.967 9.821-7.304 12.131-7.708-2.165-14.542-6.435-19.857-12.131Z" clip-rule="evenodd"/><path fill="#FF5400" d="M18.613 34h131.48l60.814 89.747H79.427L18.613 34.001Z"/><path fill="#000" fill-rule="evenodd" d="M78.955 124.636h133.627l-62.017-91.524H16.938l62.017 91.524Zm.943-1.777-59.61-87.97h129.334l59.609 87.97H79.898Z" clip-rule="evenodd"/><path fill="#FF5400" d="M52.653 9.8H184.12l33.493 113.947H86.147L52.653 9.801Z"/><path fill="#000" fill-rule="evenodd" d="M85.482 124.636H218.8L184.785 8.912H51.466l34.016 115.724Zm1.33-1.777L53.84 10.689h129.614l32.971 112.17H86.812Z" clip-rule="evenodd"/><path fill="#FF5400" d="M91.293 1.254H222.76v122.493H91.293V1.254Z"/><path fill="#000" fill-rule="evenodd" d="M90.404 124.636h133.244V.366H90.404v124.27Zm1.778-1.777V2.143H221.87v120.716H92.181Z" clip-rule="evenodd"/><path fill="#FF5400" d="M129.92 9.8H261.4l-33.493 113.947H96.427L129.92 9.801Z"/><path fill="#000" fill-rule="evenodd" d="M95.24 124.636h133.332L262.588 8.912H129.255L95.239 124.636Zm2.374-1.777 32.971-112.17h129.628l-32.971 112.17H97.614Z" clip-rule="evenodd"/><path fill="#FF5400" d="M163.907 34.08h131.48l-60.774 89.667H103.147l60.76-89.666Z"/><path fill="#000" fill-rule="evenodd" d="M101.471 124.636h133.614l61.978-91.444H163.435l-61.964 91.444Zm3.351-1.777 59.556-87.89h129.333l-59.569 87.89h-129.32Z" clip-rule="evenodd"/><path fill="#fff" d="m297.76 138.374-14.626-14.627v58.493h-60.427v29.247h60.427l29.253-29.247v-58.493l-14.627 14.627Z"/><path fill="#000" fill-rule="evenodd" d="M221.818 212.376h61.684l29.774-29.767v-61.007l-15.516 15.515-15.515-15.515v59.75h-60.427v31.024Zm1.778-1.778v-27.469h60.426v-57.237l13.738 13.738 13.738-13.738v55.98l-28.732 28.726h-59.17Z" clip-rule="evenodd"/><path fill="#000" fill-rule="evenodd" d="M312.386 181.352h-29.253v1.777h29.253v-1.777Z" clip-rule="evenodd"/><path fill="#fff" d="m16.24 167.614 14.627 14.626v-58.493h60.426v-29.24H30.867l-29.254 29.24v58.493l14.627-14.626Z"/><path fill="#000" fill-rule="evenodd" d="M.725 184.386 16.24 168.87l15.515 15.516v-59.75h60.427V93.618H30.499L.725 123.38v61.007Zm1.777-4.291v-55.98l28.733-28.72h59.17v27.463H29.978v57.237L16.24 166.357 2.502 180.095Z" clip-rule="evenodd"/><path fill="#FF5400" d="M30.867 123.747H1.613Z"/><path fill="#000" fill-rule="evenodd" d="M1.613 124.636h29.254v-1.777H1.613v1.777Z" clip-rule="evenodd"/></svg>