<?xml version="1.0" encoding="utf-8"?>
<!-- Generator: Adobe Illustrator 26.3.1, SVG Export Plug-In . SVG Version: 6.00 Build 0)  -->
<svg version="1.1" id="Ebene_1" xmlns="http://www.w3.org/2000/svg" xmlns:xlink="http://www.w3.org/1999/xlink" x="0px" y="0px"
	 viewBox="0 0 283.5 283.5" style="enable-background:new 0 0 283.5 283.5;" xml:space="preserve">
<style type="text/css">
	.st0{clip-path:url(#SVGID_00000140730747925695820740000005893929009062526619_);fill:#CD1719;}
	.st1{clip-path:url(#SVGID_00000140730747925695820740000005893929009062526619_);fill:#FFFFFF;}
</style>
<g>
	<defs>
		<rect id="SVGID_1_" x="3" y="2.9" width="278" height="278"/>
	</defs>
	<clipPath id="SVGID_00000110470347416536937290000014372302921711012242_">
		<use xlink:href="#SVGID_1_"  style="overflow:visible;"/>
	</clipPath>
	<path style="clip-path:url(#SVGID_00000110470347416536937290000014372302921711012242_);fill:#CD1719;" d="M142,280.9
		c76.8,0,139-62.2,139-139c0-76.8-62.2-139-139-139C65.2,2.9,3,65.1,3,141.9C3,218.7,65.2,280.9,142,280.9"/>
	<path style="clip-path:url(#SVGID_00000110470347416536937290000014372302921711012242_);fill:#FFFFFF;" d="M153.1,144
		c-0.2-0.4-0.5-1.5-1.2-1.9c-0.7-0.4-2.4-0.6-2.7-0.2c-0.8,1.2-1.3,2.6-1.5,4c-0.2,1.6,0.1,3.3,0.2,4.9c0,2.3-0.4,2.7-2.6,3.1
		c-0.5,0.1-1.3,0.5-1.3,0.8c0,0.5,0.3,1.3,0.7,1.6c2.2,1.3,3,3.4,2.8,5.8c-0.3,3.5-0.7,7.1-1.2,10.6c-0.1,1.1-0.3,2.1,1.3,2.3
		c1.7,0.2,2.7-0.3,2.8-1.8c0.4-3.7,0.8-7.4,1.1-11.1c0.3-3.3,0.3-6.5,0.6-9.8C152.2,149.7,152.7,147.1,153.1,144 M155,170.2
		c0,0,0.4,0.8,0.5,0.8c0.6-0.1,1.3-0.4,1.7-0.9c2.2-3.2,4.3-6.5,6.5-9.8c1.6-2.4,3.3-4.8,4.8-7.3c0.5-0.8,1.4-1.8-0.1-2.6
		c-3.1-1.6-6.2-3.3-9.3-4.9c-1.1-0.6-1.8-0.3-1.8,1.1c-0.1,2.2-0.1,4.3-0.3,6.5C156.3,158.6,155.6,164.2,155,170.2 M109.4,121.3
		c0-1.4-0.1-2.6,0-3.8c0.1-1.5-0.4-2.3-2-2.5c-2.2-0.2-4.4-0.7-6.6-0.8c-3.8-0.2-7.5-1.1-11.3,0c-1.4,0.4-2.8,1.1-4.2,1.2
		c-3,0.2-5.1,1.8-7,3.8c-0.8,0.9-0.7,1.6,0.2,2.2c3.4,1.9,6.8,3.8,10.3,5.6c0.5,0.3,1.4-0.1,2-0.3c0.4-0.1,0.7-0.7,1.1-0.8
		c2.6-0.8,5.2-1.1,7.7-2.5c2-1.1,4.6-1.2,6.9-1.6C107.5,121.5,108.6,121.4,109.4,121.3 M76.4,145.4c0.1,0,0.3,0,0.4,0
		c0,6.3-0.1,12.5,0.1,18.8c0,0.9,0.8,2.5,1.3,2.5c1.1,0,2.2-0.7,3.2-1.2c0.6-0.3,1.1-0.8,1.7-1c1.2-0.3,2.4-0.4,3.6-0.5
		c2.2-0.3,2.1-0.4,2-2.6c-0.3-5.3-0.2-10.5,3.1-15c0.7-0.9,0.6-1.7-0.4-2.4c-1.4-0.8-2.3-1.9-2.5-3.6c-0.1-0.8-0.5-1.7-0.9-2.4
		c-1.6-2.3-1.5-2.2-0.1-4.4c0.3-0.5,0.3-1.9-0.1-2.1c-3.5-2.1-7-4-10.5-5.9c-1.1-0.6-1.5,0-1.4,1.1C76,132.9,76.2,139.1,76.4,145.4
		 M146.5,122.2c0-0.1,0.1-0.3,0.1-0.4c1.2,0.4,2.4,0.8,3.6,1.3c2.9,1.3,5.9,2.5,8.7,4c0.8,0.4,1.5,1.7,1.5,2.6
		c-0.2,3-0.8,5.9-1.3,8.8c-0.2,1.2-0.8,2.6,1.4,2.4c0.2,0,0.5,0.1,0.6,0.3c0.5,1.2,1.3,0.9,2.3,0.6c1.1-0.4,2,0,1.9,1.4
		c-0.1,1.1,0.3,1.7,1.4,2.1c1.3,0.5,2.6,1.3,3.8,2c1,0.5,1.6,0.4,2.1-0.6c1.2-2.1,2.3-4.4,3.8-6.3c0.7-1,1.4-1.8,1-3.1
		c-0.3-1,0.1-1.6,1.3-1.4c0.5,0,1.4-0.1,1.6-0.5c1.5-2.5,4-4.5,4.6-7.6c0.1-0.5,0.6-0.9,1-1.3c0.4-0.5,1-0.8,1.4-1.3
		c1.9-2.6,3.7-5.2,5.6-7.8c5.7-8,11.3-16,17-24c5.1-7.2,10.3-14.3,15.4-21.5c2-2.8,0.9-6-2.3-6.9c-3.5-1-7.1-1.8-10.7-2.7
		c-4.8-1.2-9.6-2.5-14.4-3.6c-6-1.4-9-0.7-12.9,4.3c-1.2,1.6-2.6,3.1-3.6,4.8c-0.8,1.3-1.3,2.8-1.6,4.3c-0.2,1-0.5,1.7-1.5,2.1
		c-0.8,0.3-1.7,0.9-2.2,1.6c-3.1,4.4-6.2,8.8-9.3,13.3c-2.1,3.1-4.1,6.2-6.2,9.2c-2.1,3-4.3,5.9-6.3,9c-1.2,1.8-1.8,3.9-3,5.6
		c-1.7,2.5-3.8,4.8-5.7,7.3c-0.3,0.5-0.5,1.1-0.7,1.6C145.3,121.9,145.9,122,146.5,122.2 M230.1,72.8c-1.1,1.5-2.2,2.9-3.3,4.4
		c-4.2,5.9-8.4,11.8-12.6,17.7c-6.1,8.5-12.2,17-18.3,25.4c-0.6,0.8-0.6,1.3,0.4,1.7c1.5,0.6,1.8,1.7,1.2,3
		c-1.2,2.4-1.9,2.6-4.5,1.5c-0.5-0.2-1.6,0.1-1.8,0.6c-1,1.6-1.7,3.2-3.4,4.3c-0.9,0.6-1.2,2.2-1.9,3.3c-2.4,3.7-4.9,7.2-7.2,10.9
		c-0.4,0.7-0.1,1.9,0.1,2.9c0.1,0.7,0.8,1.3,0.9,2.1c0.4,2.2-1,3.7-3.2,3.2c-3.1-0.6-3-0.6-4.8,2.1c-3.2,4.8-6.6,9.5-9.5,14.5
		c-1.3,2.2-1.7,5-2.3,7.6c-0.4,1.6-0.4,3.2-0.6,4.9c0,0.6,0.2,1.1,0.3,1.7c0.1,0.6,0.4,1.4,0.1,1.7c-1.8,1.8,0,4-0.8,5.9
		c-0.1,0.2,0.1,0.8,0.2,0.8c1.6,0.2,2.1,1.6,3.1,2.5c1.6,1.3,2.7,4.2,1.6,5.9c-1,1.4-1.3,3.4-3.5,3.8c-0.4,0.1-0.9,0.5-1.1,0.9
		c-1.2,3-4,3.7-6.5,5c-3.7,1.9-7.3,4-11,6c-0.8,0.4-1.6,0.7-2.4,1.1c-4.4,2-8.7,4-13.1,6c-3.3,1.5-6.5,3.5-9.9,4.6
		c-5.3,1.8-10.6,4.2-16.3,4.5c-2.7,0.1-5.1-0.6-7.2-2.5c-4.7-4.4-9.5-8.8-14.3-13.2c-3.4-3.2-6.9-6.3-10.3-9.4
		c-3.5-3.2-7.1-6.3-10.7-9.5c-0.4-0.3-0.8-0.8-1-1.2c-0.2-0.5-0.3-1.3,0-1.6c0.2-0.3,1-0.4,1.5-0.4c1.1-0.2,2.3-0.2,3.4-0.4
		c0.5-0.1,0.9-0.4,1.3-0.3c2.9,0.5,4.2-1.8,5.9-3.4c0.9-0.9,0.4-3.1-0.7-3.8c-1.3-0.8-2.6-1.5-4-2.2c-1.2-0.6-1.2-1.3-0.4-2.4
		c1-1.3,2-2.6,2.8-4c1-1.9,1.9-3.7,3.9-5c0.7-0.4,1.1-1.6,1.1-2.5c0.6-8.3,1-16.7,0.6-25.1c-0.3-6.3-0.6-12.6-0.5-19
		c0-5.4,2-10.1,6.6-13.3c1.4-1,3.4-1.3,5.2-1.8c2.9-0.9,5.9-1.6,8.8-2.4c0.4-0.1,0.8-0.3,1.2-0.4c3.3-0.7,6.6-1.2,9.9-2
		c3.4-0.8,6.5,0.4,8.7,3.4c0,0,0.1,0.1,0.1,0.1c2.8,1.7,5.4,3.6,8.3,5.1c0.9,0.5,2.4,0.2,3.4-0.2c4.2-1.6,7.7,0,11,2.4
		c0.3,0.2,0.7,0.5,1.1,0.5c1.2,0.2,1.9,0.9,2.3,2.1c0.4,1.3,1.3,1.4,2,0.3c2.2-3.3,4.4-6.6,6.6-9.9c0.2-0.3,0.5-0.7,0.8-0.9
		c1-0.9,1.3-1.7,0.1-2.7c-1.1-1-0.8-2.1,0.1-3.1c0.8-0.8,1.6-2.1,3-1c1,0.7,1.5,0.2,2-0.5c5.2-7.5,10.5-14.9,15.6-22.4
		c0.9-1.3,1-3.2,1.5-4.8c0.5-1.6,0.9-3.2,1.6-4.8c0.3-0.7,1.2-1.7,1.8-1.7c2.8,0,3-2.4,3.9-4.1c0.4-0.6,0.4-1.5,0.6-2.2
		c0.3-1.2,0.8-1.7,2.1-1.3c0.6,0.2,1.7-0.1,2.1-0.6c2-2.5,4.3-4.6,7.4-5.7c0.3-0.1,0.5-0.6,0.7-0.9h7.7c0.3,0.3,0.5,0.8,0.9,0.9
		c1.8,0.5,3.7,1,5.6,1.4c4.4,1,8.8,2,13.1,3c1.6,0.4,3.2,0.7,4.7,1.1c2.4,0.7,4.7,1.4,6.1,3.8c0.4,0.7,1.3,1.2,1.9,1.7V72.8z"/>
</g>
</svg>
