<?xml version="1.0" encoding="utf-8"?>
<!-- Generator: Adobe Illustrator 26.1.0, SVG Export Plug-In . SVG Version: 6.00 Build 0)  -->
<svg version="1.1" id="Ebene_1" xmlns="http://www.w3.org/2000/svg" xmlns:xlink="http://www.w3.org/1999/xlink" x="0px" y="0px"
	 viewBox="0 0 283.5 283.5" style="enable-background:new 0 0 283.5 283.5;" xml:space="preserve">
<style type="text/css">
	.st0{clip-path:url(#SVGID_00000156563264690667452160000008660456794935001262_);fill:#85D0F5;}
	.st1{clip-path:url(#SVGID_00000156563264690667452160000008660456794935001262_);fill:#FFFFFF;}
</style>
<g>
	<defs>
		<rect id="SVGID_1_" x="1.4" y="1.4" width="280.6" height="280.6"/>
	</defs>
	<clipPath id="SVGID_00000062175527898075049690000011298909306159205299_">
		<use xlink:href="#SVGID_1_"  style="overflow:visible;"/>
	</clipPath>
	<path style="clip-path:url(#SVGID_00000062175527898075049690000011298909306159205299_);fill:#85D0F5;" d="M141.8,282.1
		c77.5,0,140.3-62.8,140.3-140.3c0-77.5-62.8-140.3-140.3-140.3S1.4,64.2,1.4,141.8C1.4,219.2,64.3,282.1,141.8,282.1"/>
	<path style="clip-path:url(#SVGID_00000062175527898075049690000011298909306159205299_);fill:#FFFFFF;" d="M208.8,112.7
		L208.8,112.7l-42.1-68.6l-23.9,39l39.8,69c0.1,0.3,0.3,0.5,0.4,0.8c2.2,4.3,4,8.8,5.1,13.5c0.6,2.2,1,4.4,1.3,6.7
		c14.8-7.6,24.9-22.4,24.9-39.4C214.3,126.1,212.3,119,208.8,112.7"/>
	<path style="clip-path:url(#SVGID_00000062175527898075049690000011298909306159205299_);fill:#FFFFFF;" d="M177.5,155l-50.8-88
		l-50.8,88h0c-4.3,8-6.7,17.2-6.7,26.9c0,31.7,25.7,57.5,57.5,57.5s57.5-25.7,57.5-57.5C184.2,172.2,181.7,163.1,177.5,155
		L177.5,155z M128.7,224.5c-24.6,0-44.6-20-44.6-44.6c0-7.5,1.9-14.6,5.2-20.9h0l4.9-8.5c-0.4,2.6-0.6,5.3-0.6,8
		c0,31,25.1,56.1,56.1,56.1c2.5,0,5-0.2,7.4-0.5C149.4,220.7,139.5,224.5,128.7,224.5"/>
</g>
</svg>
