<?xml version="1.0" encoding="utf-8"?>
<!-- Generator: Adobe Illustrator 26.0.3, SVG Export Plug-In . SVG Version: 6.00 Build 0)  -->
<svg version="1.1" id="Ebene_1" xmlns="http://www.w3.org/2000/svg" xmlns:xlink="http://www.w3.org/1999/xlink" x="0px" y="0px"
	 viewBox="0 0 275.7 280.8" style="enable-background:new 0 0 275.7 280.8;" xml:space="preserve">
<style type="text/css">
	.st0{clip-path:url(#SVGID_00000025427910484254121730000008441980533736194471_);fill:#FFFFFF;}
	.st1{clip-path:url(#SVGID_00000025427910484254121730000008441980533736194471_);fill:none;stroke:#8A8A89;}
	.st2{clip-path:url(#SVGID_00000025427910484254121730000008441980533736194471_);fill:#8A8A89;}
	.st3{clip-path:url(#SVGID_00000025427910484254121730000008441980533736194471_);fill:#00A0E4;}
</style>
<g>
	<defs>
		<rect id="SVGID_1_" x="1.6" y="1.6" width="272.5" height="277.6"/>
	</defs>
	<clipPath id="SVGID_00000055675458229957750400000015427708789012161454_">
		<use xlink:href="#SVGID_1_"  style="overflow:visible;"/>
	</clipPath>
	<path style="clip-path:url(#SVGID_00000055675458229957750400000015427708789012161454_);fill:#FFFFFF;" d="M273.4,140.4
		c0,76.3-60.7,138.1-135.6,138.1S2.3,216.7,2.3,140.4S63,2.3,137.9,2.3S273.4,64.1,273.4,140.4"/>
	
		<ellipse style="clip-path:url(#SVGID_00000055675458229957750400000015427708789012161454_);fill:none;stroke:#8A8A89;" cx="137.9" cy="140.4" rx="135.6" ry="138.1"/>
	<path style="clip-path:url(#SVGID_00000055675458229957750400000015427708789012161454_);fill:#8A8A89;" d="M165.3,88.8h98.1
		c-1-2.4-2-4.8-3.1-7.1h-99.3C162.5,84.1,163.9,86.5,165.3,88.8 M266.8,98.2c-0.7-2.3-1.5-4.6-2.4-6.9h-97.8c1.5,2.4,3,4.6,4.5,6.9
		H266.8z M201.7,168.2h69c0.3-1.7,0.6-3.3,0.9-5h-69.9v3.4C201.7,167.2,201.7,167.7,201.7,168.2 M201.3,176.8h67.4
		c0.4-1.5,0.8-3,1.1-4.6h-68.2c-0.1,1.2-0.2,2.4-0.3,3.5V176.8z M201.3,159.6h70.9c0.2-1.7,0.5-3.4,0.6-5.1h-72.2
		C200.6,154.4,201.2,158.7,201.3,159.6 M200,151.4h73c0.1-1.8,0.2-3.5,0.3-5.3h-74.7C198.6,146.1,199.8,150.5,200,151.4
		 M199.5,185.6h66.6c0.5-1.4,1-2.8,1.4-4.3h-67C200.3,182.2,199.5,185.6,199.5,185.6 M196.6,194.2h66.3c0.5-1.3,1-2.7,1.5-4h-66.2
		C197.9,191.2,196.6,194.2,196.6,194.2 M195.5,137.5c0.8,1.9,1.6,3.9,2.2,5.9h75.6c0-0.9,0.1-1.7,0.1-2.6c0-1.1-0.1-2.2-0.1-3.3
		H195.5z M194.2,134.5h79c-0.1-2.1-0.2-4.1-0.4-6.1H191C192.2,130.4,193.2,132.4,194.2,134.5 M189.6,125.8h83
		c-0.2-2.1-0.5-4.2-0.8-6.3h-86.2C187,121.6,188.3,123.7,189.6,125.8 M184.2,116.8h87.1c-0.4-2.2-0.8-4.4-1.3-6.6h-90.4
		C181.2,112.5,182.7,114.7,184.2,116.8 M177.9,107.7l91.6,0c-0.5-2.3-1.1-4.5-1.8-6.7l-94.4,0C174.8,103.3,176.3,105.5,177.9,107.7
		 M259.4,201.9c0.5-1,0.9-2,1.4-3h-66c-0.5,1-1.1,2-1.7,3H259.4z M187.7,209.7h67.5c0.4-0.8,0.9-1.5,1.3-2.3h-67.1
		C188.9,208.2,188.3,209,187.7,209.7 M78.3,198.9H14.9c0.5,1,0.9,2,1.4,3h63.8C80.1,201.9,78.7,199.5,78.3,198.9 M11.3,190.2
		c0.5,1.3,1,2.7,1.5,4h63.3c-0.6-1.3-1.1-2.6-1.5-4H11.3z M8.2,181.3c0.4,1.4,0.9,2.9,1.4,4.3h63.5c-0.4-1.4-0.7-2.8-1-4.3H8.2z
		 M5.9,172.2c0.4,1.5,0.7,3.1,1.1,4.6h64.4c-0.2-1.5-0.3-3-0.4-4.6H5.9z M4.1,163.2c0.3,1.7,0.5,3.3,0.9,5h65.9c0-1.7,0.1-3.4,0.2-5
		H4.1z M3,154.4c0.2,1.7,0.4,3.4,0.6,5.1h67.8c0.2-1.8,0.5-3.5,0.8-5.1H3z M2.4,146.1c0.1,1.8,0.2,3.5,0.3,5.3h70.2
		c0.5-1.8,1-3.6,1.6-5.3H2.4z M2.3,140.7c0,0.9,0,1.7,0.1,2.6h73.2c0.8-2,1.7-3.9,2.7-5.9H2.4C2.4,138.6,2.3,139.6,2.3,140.7
		 M2.9,128.4c-0.2,2-0.3,4.1-0.4,6.1h77.3c1.1-2.1,2.4-4.1,3.7-6.1H2.9z M3.9,119.6c-0.3,2.1-0.6,4.2-0.8,6.3h82
		c1.4-2.1,2.8-4.2,4.3-6.3H3.9z M95.8,110.3H5.7c-0.5,2.2-0.9,4.4-1.3,6.6h86.8C92.6,114.7,94.2,112.5,95.8,110.3 M8,101
		c-0.7,2.2-1.2,4.5-1.8,6.7l91.3,0.1c1.2-1.8,2.5-3.9,4.3-6.6L8,101z M108.5,91.4H11.3c-0.9,2.3-1.6,4.5-2.4,6.9l95.4,0.1
		C105.4,96.5,106.9,94.2,108.5,91.4 M113.6,81.7H15.3c-1.1,2.3-2.1,4.7-3.1,7.1h97.5C111.1,86.5,112.4,84.2,113.6,81.7 M19.2,207.5
		c0.4,0.8,0.9,1.5,1.3,2.3h65c-0.6-0.7-1.2-1.5-1.8-2.3H19.2z M118.1,72.1H20.3c-1.3,2.3-2.6,4.7-3.8,7.1h98
		C115.4,77.3,118.1,72.1,118.1,72.1 M259.2,79.2c-1.2-2.4-2.4-4.8-3.8-7.1h-98.9c1.2,2.5,2.4,4.9,3.7,7.1H259.2z"/>
	<path style="clip-path:url(#SVGID_00000055675458229957750400000015427708789012161454_);fill:#00A0E4;" d="M185.6,204.9H86.9
		c0,0,4.2,5.2,6,7.1h86.8C181.6,210.1,185.6,204.9,185.6,204.9"/>
	<path style="clip-path:url(#SVGID_00000055675458229957750400000015427708789012161454_);fill:#00A0E4;" d="M94.7,214.4
		c2.7,2.7,5.7,5,9,7.1H169c3.2-2,6.1-4.4,8.8-7v-0.2H94.7z"/>
	<path style="clip-path:url(#SVGID_00000055675458229957750400000015427708789012161454_);fill:#00A0E4;" d="M106.3,223.9
		L106.3,223.9c8.8,5.1,19,8.1,30,8.1c10.7,0,20.8-2.8,29.5-7.7v-0.3H106.3z"/>
	<path style="clip-path:url(#SVGID_00000055675458229957750400000015427708789012161454_);fill:#00A0E4;" d="M190.6,195.6H82.1
		c1.2,2.5,2.5,4.9,4,7.1h100.6C188,200.6,190.6,195.6,190.6,195.6"/>
	<path style="clip-path:url(#SVGID_00000055675458229957750400000015427708789012161454_);fill:#00A0E4;" d="M193.7,186.5H78.9
		c0.7,2.3,1.5,4.6,2.5,6.9h109.9C192.2,191.1,193,188.8,193.7,186.5"/>
	<path style="clip-path:url(#SVGID_00000055675458229957750400000015427708789012161454_);fill:#00A0E4;" d="M195.5,177.4H77.1
		c0.3,2.3,0.7,4.5,1.3,6.7h115.9C194.8,181.9,195.2,179.7,195.5,177.4"/>
	<path style="clip-path:url(#SVGID_00000055675458229957750400000015427708789012161454_);fill:#00A0E4;" d="M195.4,159.2H77.2
		c-0.3,2.1-0.5,4.3-0.6,6.6H196C195.9,163.5,195.7,161.3,195.4,159.2"/>
	<path style="clip-path:url(#SVGID_00000055675458229957750400000015427708789012161454_);fill:#00A0E4;" d="M196,169
		c0-0.2,0-0.4,0-0.6H76.6c0,0.2,0,0.4,0,0.6c0,2,0.1,4,0.3,6h118.9C195.9,173.1,196,171.1,196,169"/>
	<path style="clip-path:url(#SVGID_00000055675458229957750400000015427708789012161454_);fill:#00A0E4;" d="M193.9,150.2H78.9
		c-0.6,2-1.1,4.1-1.5,6.3h117.6C194.8,154.3,194.4,152.2,193.9,150.2"/>
	<path style="clip-path:url(#SVGID_00000055675458229957750400000015427708789012161454_);fill:#00A0E4;" d="M191.1,141.5h-109
		c-0.9,2-1.7,4-2.4,6.1h113.5C192.6,145.6,191.9,143.5,191.1,141.5"/>
	<path style="clip-path:url(#SVGID_00000055675458229957750400000015427708789012161454_);fill:#00A0E4;" d="M187.2,133.1H86.6
		c-1.1,1.9-2.2,3.9-3.2,5.9H190C189.2,137,188.2,135,187.2,133.1"/>
	<path style="clip-path:url(#SVGID_00000055675458229957750400000015427708789012161454_);fill:#00A0E4;" d="M182.3,124.6H92.1
		c-1.2,1.8-2.4,3.5-3.5,5.3h96.9C184.5,128.2,183.4,126.4,182.3,124.6"/>
	<path style="clip-path:url(#SVGID_00000055675458229957750400000015427708789012161454_);fill:#00A0E4;" d="M174.5,112.9
		c-1.2-1.7-2.3-3.4-3.5-5.1h-67c-1,1.5-3.4,5.1-3.4,5.1H174.5z"/>
	<path style="clip-path:url(#SVGID_00000055675458229957750400000015427708789012161454_);fill:#00A0E4;" d="M176.6,116L176.6,116
		H98.2c-1.2,1.7-2.5,3.5-3.7,5.1H180C178.9,119.4,177.8,117.7,176.6,116"/>
	<path style="clip-path:url(#SVGID_00000055675458229957750400000015427708789012161454_);fill:#00A0E4;" d="M165.4,99.3h-55.9
		c-1.1,1.7-2.1,3.4-3.2,5h62.3C167.6,102.7,166.5,101,165.4,99.3"/>
	<path style="clip-path:url(#SVGID_00000055675458229957750400000015427708789012161454_);fill:#00A0E4;" d="M160.4,90.9h-46.1
		c-0.9,1.6-1.7,3.1-2.6,4.6h51.3C162.2,94,161.3,92.5,160.4,90.9"/>
	<path style="clip-path:url(#SVGID_00000055675458229957750400000015427708789012161454_);fill:#00A0E4;" d="M152,74.1h-29.7
		c-0.6,1.5-1.2,2.9-1.8,4.3h33.5C153.3,77,152.6,75.6,152,74.1"/>
	<path style="clip-path:url(#SVGID_00000055675458229957750400000015427708789012161454_);fill:#00A0E4;" d="M158.1,87.2
		c0,0-1.6-3.3-2-4.3h-37.6c-0.6,1.2-2.2,4.3-2.2,4.3H158.1z"/>
	<path style="clip-path:url(#SVGID_00000055675458229957750400000015427708789012161454_);fill:#00A0E4;" d="M148.5,65.4h-23
		c-0.5,1.4-0.9,2.7-1.4,4H150C149.5,68,149,66.7,148.5,65.4"/>
	<path style="clip-path:url(#SVGID_00000055675458229957750400000015427708789012161454_);fill:#00A0E4;" d="M145.5,56.4h-17.2
		c-0.3,1.2-0.7,2.3-1,3.4h19.3C146.2,58.7,145.9,57.5,145.5,56.4"/>
	<path style="clip-path:url(#SVGID_00000055675458229957750400000015427708789012161454_);fill:#00A0E4;" d="M143.1,47.7h-12.6
		c-0.2,1-0.5,2-0.7,3h14.1C143.6,49.7,143.3,48.7,143.1,47.7"/>
	<path style="clip-path:url(#SVGID_00000055675458229957750400000015427708789012161454_);fill:#00A0E4;" d="M141.2,39.8h-9.1
		c-0.1,0.8-0.3,1.5-0.5,2.3h10.1C141.6,41.3,141.4,40.6,141.2,39.8"/>
	<path style="clip-path:url(#SVGID_00000055675458229957750400000015427708789012161454_);fill:#00A0E4;" d="M139.7,32.1h-6.3
		c-0.1,0.8-0.2,1.5-0.4,2.3h7.1C140,33.7,139.9,32.9,139.7,32.1"/>
	<path style="clip-path:url(#SVGID_00000055675458229957750400000015427708789012161454_);fill:#00A0E4;" d="M134.6,26h4.1
		c-0.1-0.6-0.2-1.2-0.3-1.9h-3.9V26z"/>
	<path style="clip-path:url(#SVGID_00000055675458229957750400000015427708789012161454_);fill:#00A0E4;" d="M137.4,15.8h-2
		c0,0.5-0.1,1-0.1,1.4h2.3C137.5,16.8,137.5,16.3,137.4,15.8"/>
</g>
</svg>
