<?xml version="1.0" encoding="utf-8"?>
<!-- Generator: Adobe Illustrator 26.1.0, SVG Export Plug-In . SVG Version: 6.00 Build 0)  -->
<svg version="1.1" id="Ebene_1" xmlns="http://www.w3.org/2000/svg" xmlns:xlink="http://www.w3.org/1999/xlink" x="0px" y="0px"
	 viewBox="0 0 283.5 283.5" style="enable-background:new 0 0 283.5 283.5;" xml:space="preserve">
<style type="text/css">
	.st0{clip-path:url(#SVGID_00000158004607795462981150000004916934059938581131_);fill:#85D0F5;}
	.st1{clip-path:url(#SVGID_00000158004607795462981150000004916934059938581131_);fill:#FFFFFF;}
</style>
<g>
	<defs>
		<rect id="SVGID_1_" x="1.4" y="1.4" width="280.6" height="280.6"/>
	</defs>
	<clipPath id="SVGID_00000148649024163959044050000009408170683214739856_">
		<use xlink:href="#SVGID_1_"  style="overflow:visible;"/>
	</clipPath>
	<path style="clip-path:url(#SVGID_00000148649024163959044050000009408170683214739856_);fill:#85D0F5;" d="M141.8,282.1
		c77.5,0,140.3-62.8,140.3-140.3c0-77.5-62.8-140.3-140.3-140.3S1.4,64.3,1.4,141.8C1.4,219.2,64.3,282.1,141.8,282.1"/>
	<path style="clip-path:url(#SVGID_00000148649024163959044050000009408170683214739856_);fill:#FFFFFF;" d="M162.3,116.6
		c0.2-0.7,14-40.3,25-72.4c4.4-13-5.4-14.3-9.3-3.2c-10.8,30.5-25.6,71.4-26.1,72.5c-4.5,10.2-10.4,13.3-14.8,16
		c6.3,0,19.8,5.7,25.1,9.7C159.9,134.4,158.2,128.4,162.3,116.6"/>
	<path style="clip-path:url(#SVGID_00000148649024163959044050000009408170683214739856_);fill:#FFFFFF;" d="M160.9,164.1
		c0.4-5.7,0.6-11.2-1.3-15.2c-3.5-7.2-20.2-12.3-26.1-10.2c-4.1,1.5-8.1,6.1-12.5,10.6c-0.6,0.7-1.3,1.3-1.9,2
		c11.1,10,26,14.9,41.6,17.2C160.7,167,160.8,165.5,160.9,164.1"/>
	<path style="clip-path:url(#SVGID_00000148649024163959044050000009408170683214739856_);fill:#FFFFFF;" d="M159.5,179.9
		c0.2-2,0.4-4.1,0.6-6.1c-16.8-2.3-32.9-7.6-44.2-19.4c-1.1,1.1-2.2,2.2-3.4,3.3C125,171.5,141.9,177.1,159.5,179.9"/>
	<path style="clip-path:url(#SVGID_00000148649024163959044050000009408170683214739856_);fill:#FFFFFF;" d="M108.4,161.3
		c-17.8,15.8-42.1,31.5-71.5,30.5c0.7,2.1,1.4,4.2,2.4,6.2c17.5-1.2,37.2-4.2,51.6-14.3c-12.2,13.4-31.2,17.2-48.8,19.5
		c1.8,3,3.8,5.8,6.1,8.6c15.2-2.5,33.2-8.9,45.4-18.5c-10.2,12.9-26.5,19.7-41.3,23c1.9,1.9,3.9,3.8,6,5.6
		c20-6.9,39.3-16.1,49.9-34.3c-8,18.6-23.7,32.8-43.6,39.5c2.6,2,5.3,3.8,8.1,5.6c13-4.9,24.9-15.6,33.3-26.8
		c-6.5,13.1-18.2,21.7-29.6,29.1c1.9,1.2,3.9,2.3,5.8,3.3c19.8-12.2,33.5-31.4,41.4-51.8c-3.9,22.3-20.8,38.7-38.4,53.3
		c2.6,1.3,5.2,2.5,7.7,3.7c15.8-9.8,25.6-25.1,33.2-41.9c-2.9,16.7-14.8,32.2-29.1,43.7c1.8,0.8,3.6,1.5,5.4,2.1
		c20.7-15,31.2-39.8,37.4-63.1c-1.4,24.8-13.6,48.5-31.6,65.2c2.1,0.7,4.1,1.3,6.1,1.9c16.7-8.5,28-29.5,32.5-47.8
		c-1.4,19.6-11.8,38.1-27.5,49.2c1.8,0.4,3.6,0.8,5.2,1.1c19-3.9,29.5-30.5,34.3-67.8C139.4,183.2,120.9,176.3,108.4,161.3"/>
	<path style="clip-path:url(#SVGID_00000148649024163959044050000009408170683214739856_);fill:#FFFFFF;" d="M159.6,237.1
		c-2.2,0-4.1,1.8-4.1,4.1c0,2.2,1.8,4.1,4.1,4.1s4.1-1.8,4.1-4.1C163.7,238.9,161.9,237.1,159.6,237.1"/>
	<path style="clip-path:url(#SVGID_00000148649024163959044050000009408170683214739856_);fill:#FFFFFF;" d="M169.6,221.9
		c-1.4,0-2.5,1.1-2.5,2.5c0,1.4,1.1,2.5,2.5,2.5c1.4,0,2.5-1.1,2.5-2.5C172.1,223,171,221.9,169.6,221.9"/>
	<path style="clip-path:url(#SVGID_00000148649024163959044050000009408170683214739856_);fill:#FFFFFF;" d="M178.9,204.9
		c0-3.1-2.5-5.6-5.6-5.6c-3.1,0-5.6,2.5-5.6,5.6s2.5,5.6,5.6,5.6C176.4,210.4,178.9,207.9,178.9,204.9"/>
	<path style="clip-path:url(#SVGID_00000148649024163959044050000009408170683214739856_);fill:#FFFFFF;" d="M181.6,236.9
		c-4.6,0-8.3,3.7-8.3,8.3c0,4.6,3.7,8.3,8.3,8.3s8.3-3.7,8.3-8.3C189.9,240.6,186.2,236.9,181.6,236.9"/>
	<path style="clip-path:url(#SVGID_00000148649024163959044050000009408170683214739856_);fill:#FFFFFF;" d="M198.1,215.1
		c-3.7,0-6.7,3-6.7,6.8c0,3.7,3,6.7,6.7,6.7c3.7,0,6.8-3,6.8-6.7C204.9,218.1,201.9,215.1,198.1,215.1"/>
	<path style="clip-path:url(#SVGID_00000148649024163959044050000009408170683214739856_);fill:#FFFFFF;" d="M207.4,233
		c-2.2,0-4.1,1.8-4.1,4.1s1.8,4.1,4.1,4.1c2.2,0,4.1-1.8,4.1-4.1S209.7,233,207.4,233"/>
</g>
</svg>
