<?xml version="1.0" encoding="utf-8"?>
<!-- Generator: Adobe Illustrator 25.1.0, SVG Export Plug-In . SVG Version: 6.00 Build 0)  -->
<svg version="1.1" id="Ebene_1" xmlns="http://www.w3.org/2000/svg" xmlns:xlink="http://www.w3.org/1999/xlink" x="0px" y="0px"
	 viewBox="0 0 594.4 113.4" style="enable-background:new 0 0 594.4 113.4;" xml:space="preserve">
<style type="text/css">
	.st0{fill:#B2B2B2;}
	.st1{fill:#646363;}
	.st2{fill:#E4032E;}
	.st3{fill:none;}
	.st4{enable-background:new    ;}
</style>
<g>
	<path class="st0" d="M83.5,63.6C75.7,78.1,60.9,87.2,45,87.2c-24.4,0-44-19.2-44-43c0-24.8,19.1-44,44.1-44c15.7,0,32.7,10.3,38,23
		h-9.3C67.4,13.7,56.3,7.8,44.6,7.8C25.8,7.8,9.4,24.5,9.4,43.9C9.4,63,26,79.6,45,79.6c11.2,0,21.3-5.5,29.2-16H83.5z"/>
	<polygon class="st0" points="93.6,24 99.7,24 99.7,80.1 125.2,80.1 125.2,85.7 93.6,85.7 	"/>
	<polygon class="st0" points="133.6,24 167.3,24 167.3,29.6 139.7,29.6 139.7,51.8 166.4,51.8 166.4,57.3 139.7,57.3 139.7,80.1 
		167.3,80.1 167.3,85.7 133.6,85.7 	"/>
	<path class="st0" d="M198.4,24h6.9l26.4,61.6H225l-8.9-20.8h-28.6l-9.1,20.8H172L198.4,24z M213.7,59.3L201.9,31l-12.1,28.3H213.7z
		"/>
	<polygon class="st0" points="238.9,24 247.2,24 281.7,75.2 281.7,24 287.9,24 287.9,85.7 281.7,85.7 245.1,31.4 245.1,85.7 
		238.9,85.7 	"/>
	<polygon class="st1" points="315.3,9.3 287.9,9.3 287.9,1.7 351.2,1.7 351.2,9.3 323.8,9.3 323.8,85.7 315.3,85.7 	"/>
	<path class="st1" d="M402.9,55.2c0,17.2-14.9,31.6-32.6,31.6s-32.6-14.4-32.6-31.6c0-17.8,14.5-32.2,32.6-32.2
		C388.4,22.9,402.9,37.2,402.9,55.2 M343.9,55.2c0,14.1,12.1,26.1,26.4,26.1s26.4-11.9,26.4-26.1c0-14.8-11.8-26.7-26.4-26.7
		C355.7,28.5,343.9,40.4,343.9,55.2"/>
	<path class="st1" d="M412.9,24h17.2c7.7,0,12,1,16,3.6c4.9,3.1,7.7,8.7,7.7,15c0,11.4-8.3,18.2-22.1,18.2h-12.6v24.9h-6.2V24z
		 M430.6,55.3c5.5,0,8.8-0.6,11.5-2.4c3.3-2.1,5.4-6.1,5.4-10.3c0-5.1-2.7-9.2-7.2-11.4c-3.1-1.4-4.7-1.6-12.3-1.6h-9v25.7H430.6z"
		/>
	<path class="st2" d="M52.5,106h-2.9v6.3h-2.8V95.8h4.5c2.5,0,3.4,0.2,4.3,0.8c1.5,0.9,2.3,2.3,2.3,4.2C58,104,55.6,106,52.5,106
		 M49.7,98v5.8h2.2c2.1,0,3-1,3-2.9c0-0.9-0.2-1.6-0.7-2.1S53,98,51.9,98H49.7z"/>
	<path class="st2" d="M101.5,112.3l-1.5-2.6c-1.2-2-2-3.2-2.9-4.1c-0.3-0.3-0.6-0.5-1.1-0.5v7.2h-2.8V95.8h5.2
		c3.8,0,5.5,2.2,5.5,4.7c0,2.6-1.7,4.5-4.2,4.5c0.6,0.3,1.7,1.9,2.6,3.3l2.5,4H101.5z M96.1,98v5.2h1.4c1.5,0,2.3-0.2,2.8-0.7
		s0.8-1.2,0.8-2c0-1.7-0.9-2.5-3.4-2.5H96.1z"/>
	<path class="st2" d="M138.6,104.1c0-5.5,2.8-8.5,7.1-8.5c4.8,0,7.1,3.7,7.1,8.5c0,5.2-2.5,8.5-6.9,8.5
		C141,112.6,138.6,109,138.6,104.1 M149.5,104.2c0-4-0.9-6.6-3.9-6.6c-2.8,0-3.9,2.2-3.9,6.2c0,4.3,1.1,6.6,4,6.6
		C148.2,110.5,149.5,108.7,149.5,104.2"/>
	<polygon class="st2" points="197.3,98.1 193.1,98.1 193.1,112.3 190.3,112.3 190.3,98.1 186,98.1 186,95.8 197.7,95.8 	"/>
	<polygon class="st2" points="232.5,112.3 232.5,95.8 241.9,95.8 241.5,98 235.3,98 235.3,102.5 240.5,102.5 240.5,104.8 
		235.3,104.8 235.3,110 242.1,110 242.1,112.3 	"/>
	<path class="st2" d="M283.9,112.6c-2.2,0-4-0.8-5.4-2.4c-1.3-1.5-1.9-3.5-1.9-5.9c0-2,0.4-3.6,1.1-5c1.3-2.4,3.6-3.8,6.2-3.8
		c1.6,0,3.2,0.5,4.2,1.3l-1.3,1.8c-0.9-0.6-1.8-0.9-2.9-0.9c-1.4,0-2.6,0.7-3.4,2c-0.6,1-0.9,2.4-0.9,4.3c0,2,0.2,3.2,0.7,4.1
		c0.7,1.6,2.1,2.3,3.8,2.3c1.2,0,2.1-0.3,3-1.1l1.3,1.7C287.2,112.1,285.7,112.6,283.9,112.6"/>
	<polygon class="st2" points="333.1,98.1 328.8,98.1 328.8,112.3 326,112.3 326,98.1 321.7,98.1 321.7,95.8 333.4,95.8 	"/>
	<polygon class="st2" points="368.2,112.3 368.2,95.8 377.6,95.8 377.2,98 371,98 371,102.5 376.2,102.5 376.2,104.8 371.1,104.8 
		371.1,110 377.8,110 377.8,112.3 	"/>
	<path class="st2" d="M423.1,110c-1.4,1.8-2.9,2.3-6,2.3h-4.2V95.8h3.5c3.2,0,5.1,0.6,6.7,2.3c1.2,1.4,1.8,3.4,1.8,6
		C424.9,106.6,424.2,108.6,423.1,110 M420.7,99.4c-0.8-1.1-1.7-1.4-3.2-1.4h-1.8v12.1h1.9c3,0,4.2-1.9,4.2-5.7
		C421.7,102.3,421.5,100.6,420.7,99.4"/>
	<path class="st1" d="M470.9,30.5c0,3.3-2.8,6.1-6.2,6.1c-3.4,0-6.2-2.8-6.2-6.1c0-3.5,2.8-6.3,6.2-6.3
		C468.1,24.2,470.9,27,470.9,30.5 M459.1,30.5c0,3,2.6,5.6,5.6,5.6s5.6-2.6,5.6-5.6c0-3.1-2.5-5.7-5.6-5.7S459.1,27.3,459.1,30.5
		 M466,33.9l-2.4-3.1v3.1h-1.2v-7.2h2.4c1.8,0,2.8,0.8,2.8,2.3c0,1.2-0.8,2-2.1,2.2l2.1,2.6H466V33.9z M464.3,30.4
		c1.3,0,2-0.5,2-1.3s-0.6-1.3-1.6-1.3h-1.1v2.6C463.6,30.4,464.3,30.4,464.3,30.4z"/>
	<line class="st3" x1="323.7" y1="28.4" x2="323.7" y2="13.2"/>
	<g class="st4">
		<path class="st1" d="M485.9,85.6c-4.1,0-7.4-1.7-9.8-4.7c-2.2-2.9-3.4-6.7-3.4-11.3c0-3.7,0.7-6.8,2.1-9.4
			c2.3-4.5,6.5-7.2,11.4-7.2c3,0,5.8,0.9,7.8,2.5l-2.2,2.9c-1.7-1.3-3.5-1.8-5.6-1.8c-3.1,0-5.5,1.6-7,4.5c-1,2-1.5,4.7-1.5,8.5
			c0,3.5,0.4,5.6,1.1,7.4c1.5,3.5,4.4,5.1,7.7,5.1c2.4,0,4.1-0.6,5.8-2l2.2,2.9C492,84.7,489.2,85.6,485.9,85.6z"/>
		<path class="st1" d="M516.1,57.2h-11.4v9.6h9.4v3.6h-9.4v14.8h-4.4V53.6h16.5L516.1,57.2z"/>
	</g>
	<g class="st4">
		<path class="st1" d="M535.6,85.1V60.1c0,0-1.5,1.1-3.3,2c-1.5,0.8-3.7,1.6-3.7,1.6l-1-2.3l9-6.3h3.2v30.1H535.6z"/>
		<path class="st1" d="M564.7,85.1h-18.1v-2.6c1.8-1.4,4.4-3.9,7.1-6.9c4.8-5.3,6.6-8.9,6.6-12c0-3.3-2.2-5.5-5.1-5.5
			c-2.7,0-4.7,1.5-6.9,2.9l-2-2.3c3.4-2.9,6.7-4.4,10.3-4.4c5,0,8.6,3.7,8.6,8.5c0,2.8-1.3,5.9-3.5,8.7c-1.2,1.5-2.7,3.2-4.4,5
			c-2.4,2.5-4.7,4.8-5.4,5.1c0.8-0.1,2.5-0.2,4.1-0.2h9.6L564.7,85.1z"/>
		<path class="st1" d="M581.1,85.8c-7.9,0-10.5-9.6-10.5-16c0-8.6,4.7-15.4,10.6-15.4c8.1,0,10.6,9.1,10.6,15.6
			C591.8,79.5,587.5,85.8,581.1,85.8z M586.3,62.8c-1-3.4-2.8-5-5-5c-1.8,0-3.4,1.4-4.5,3.9c-0.9,2.1-1.3,4.7-1.3,8.2
			c0,3.2,0.3,5.8,0.8,7.6c1,3.4,2.9,5.2,5,5.2c2,0,3.8-1.7,4.8-4.4c0.8-2.1,1.1-4.9,1.1-8.1C587.1,67,586.9,65,586.3,62.8z"/>
	</g>
</g>
</svg>
