<?xml version="1.0" encoding="utf-8"?>
<!-- Generator: Adobe Illustrator 21.1.0, SVG Export Plug-In . SVG Version: 6.00 Build 0)  -->
<svg version="1.1" id="Ebene_1" xmlns="http://www.w3.org/2000/svg" xmlns:xlink="http://www.w3.org/1999/xlink" x="0px" y="0px"
	 viewBox="0 0 1170 401.3" style="enable-background:new 0 0 1170 401.3;" xml:space="preserve">
<style type="text/css">
	.st0{fill:#2E8529;}
	.st1{fill:#95C11F;}
	.st2{fill:#FFFFFF;}
</style>
<g>
	<path class="st0" d="M0,162.1c0-37,30-66.9,66.9-66.9h1036.2c37,0,66.9,30,66.9,66.9v172.3c0,37-30,66.9-66.9,66.9H66.9
		c-37,0-66.9-30-66.9-66.9V162.1L0,162.1z"/>
	<path class="st1" d="M66.9,119.6c-23.5,0-42.5,19-42.5,42.5v172.3c0,23.5,19,42.5,42.5,42.5h1036.2c23.5,0,42.5-19,42.5-42.5V162.1
		c0-23.5-19-42.5-42.5-42.5H66.9L66.9,119.6z"/>
	<path class="st0" d="M0,66.9C0,30,30,0,66.9,0h267.5c37,0,66.9,30,66.9,66.9v267.5c0,37-30,66.9-66.9,66.9H66.9
		c-37,0-66.9-30-66.9-66.9V66.9L0,66.9z"/>
	<path class="st2" d="M66.9,24.4c-23.5,0-42.5,19-42.5,42.5v267.5c0,23.5,19,42.5,42.5,42.5h267.5c23.5,0,42.5-19,42.5-42.5V66.9
		c0-23.5-19-42.5-42.5-42.5H66.9L66.9,24.4z"/>
	<path class="st0" d="M258.3,355.8l-9.6,10.3c-9.5-14.1-25.4-23.2-43.6-23.2c-16.4,0-31.1,7.5-40.7,19.2l-8.7-8.8
		c4.6-6.3,10.7-11.3,17.6-15.1c10.4-5.9,17.5-17.2,17.5-30v-42.7c14.3-8.2,24.4-20.1,29.1-31.7c2.5,3,5.8,5.8,9.6,8.3v49.4
		c0,9.7,4.1,18.5,10.5,24.8c9.5,9.8,20.4,12.3,32.4,24.3l-8.4,9c-8.7-8.7-19.7-13.6-32.3-14.6C242.6,338.8,252,346.5,258.3,355.8
		L258.3,355.8z"/>
	<path class="st0" d="M87.3,126.2c0-33.9,27.5-61.4,61.4-61.4c8.5,0,16.6,1.7,23.9,4.8c8.3-14.2,23.8-23.7,41.4-23.7
		c22.1,0,40.7,14.9,46.3,35.3c19.3,9.2,32.6,28.9,32.6,51.7c0,3.7-0.3,7.3-1,10.8c14.6,9.8,24.1,26.3,24.1,45.2
		c0,30-24.3,54.4-54.4,54.4c-18,0-34-8.8-43.9-22.2c-8.1,27.3-35.9,47.4-68.9,47.4c-39.4,0-71.4-28.7-71.4-64
		c0-17.2,7.5-32.8,19.8-44.3C91,150.3,87.3,138.7,87.3,126.2L87.3,126.2z"/>
	<g>
		<path class="st2" d="M506.7,187c-1.7-10.6-7.7-16.4-17.1-16.4c-13.6,0-22.1,12.5-22.1,32.6c0,20.1,8.5,32.3,22.3,32.3
			c10.7,0,16.5-6.7,17.6-20.6H523c-1.1,23.7-12.1,35.8-32.6,35.8c-10.9,0-20.5-3.7-27.8-10.5c-8.9-8.5-13.5-20.9-13.5-36.9
			c0-16.8,5.1-29.9,14.6-38.5c7-6.2,16-9.5,25.9-9.5c19.5,0,31.1,11.3,32.3,31.6H506.7z"/>
		<path class="st2" d="M614.4,203c0,15.7-4.5,28.3-13.3,36.7c-7.2,7-17.2,11-27.9,11c-11,0-21.1-3.9-28.3-11
			c-8.8-8.5-13.2-21.1-13.2-37.4c0-14.7,4.8-27.8,13.2-35.9c7.4-7.2,17.3-11,28.2-11C598,155.4,614.4,174.2,614.4,203z M549.9,202.6
			c0,20.8,8.5,33,23.1,33c14.4,0,23.1-12.2,23.1-32.6c0-20.2-8.7-32.5-23.1-32.5C558.7,170.5,549.9,182.8,549.9,202.6z"/>
		<path class="st2" d="M630.9,184.7c-0.1-16.8,10.9-27.4,28.3-27.4c16.8,0,27.7,9.5,27.7,24.1c0,8.3-2.8,13.8-13.5,27.1
			c-6.3,7.7-15.1,17.7-21.9,24.8h35.9v15.7h-58.1v-13.8l27.2-31.4c9.6-11.4,12.8-16.9,12.8-22c0-5.5-4.5-9.5-11-9.5
			c-7.4,0-12.2,4.5-13.2,12.4H630.9z"/>
	</g>
	<g>
		<path class="st2" d="M490.2,280.7v8.6l-29.3,44.6h28.3v10.4h-42.8v-9.5l29.1-43.9h-26.2v-10.2H490.2z"/>
		<path class="st2" d="M544.7,306.2v10.4h-25.3v17.4h28.8v10.4h-41v-63.6h40v10.4h-27.8v15.1H544.7z"/>
		<path class="st2" d="M581.9,280.7c11.3,0,15.5,0.7,19.9,3.1c5.7,3.1,9.1,9.2,9.1,16.5c0,8.3-3.8,14.3-11.3,17.6l14.6,26.4h-14.2
			l-13-24.3h-8.8v24.3h-12.2v-63.6H581.9z M582.7,309.6c6,0,8-0.2,10.4-1c3.3-1.2,5.3-4.4,5.3-8.4c0-3.2-1.4-5.9-4.1-7.4
			c-2.5-1.4-4.2-1.6-12.5-1.6h-3.5v18.5H582.7z"/>
		<path class="st2" d="M669.3,280.7v10.4h-16.8v53.2h-12.2v-53.2h-16.8v-10.4H669.3z"/>
		<path class="st2" d="M685.6,344.3v-63.6h12.2v63.6H685.6z"/>
		<path class="st2" d="M758.2,306.2v10.4h-25.3v27.8h-12.2v-63.6h40v10.4h-27.8v15.1H758.2z"/>
		<path class="st2" d="M777.8,344.3v-63.6H790v63.6H777.8z"/>
		<path class="st2" d="M851.2,280.7v8.6l-29.3,44.6h28.3v10.4h-42.8v-9.5l29.1-43.9h-26.2v-10.2H851.2z"/>
		<path class="st2" d="M868.3,344.3v-63.6h12.2v63.6H868.3z"/>
		<path class="st2" d="M940.9,306.2v10.4h-25.3v17.4h28.8v10.4h-41v-63.6h40v10.4h-27.8v15.1H940.9z"/>
		<path class="st2" d="M978.1,280.7c11.3,0,15.5,0.7,19.9,3.1c5.7,3.1,9.1,9.2,9.1,16.5c0,8.3-3.8,14.3-11.3,17.6l14.6,26.4h-14.2
			l-13-24.3h-8.8v24.3h-12.2v-63.6H978.1z M978.9,309.6c6,0,8-0.2,10.4-1c3.3-1.2,5.3-4.4,5.3-8.4c0-3.2-1.4-5.9-4.1-7.4
			c-2.5-1.4-4.2-1.6-12.5-1.6h-3.5v18.5H978.9z"/>
	</g>
	<g>
		<path class="st2" d="M1066,280.7v10.4h-16.8v53.2h-12.2v-53.2h-16.8v-10.4H1066z"/>
	</g>
	<g>
		<path class="st0" d="M461.7,17.6v56.1h-10.8V17.6H461.7z M494.9,17.6l-21,26l22.3,30.1h-13.7l-20.6-29.8l20.5-26.3H494.9z"/>
		<path class="st0" d="M521.1,17.6v46.9h24.3v9.2h-35.3V17.6H521.1z"/>
		<path class="st0" d="M560.2,73.7V17.6h10.8v56.1H560.2z"/>
		<path class="st0" d="M606.2,17.6l12.1,44.6l12.3-44.6h14.9v56.1h-9.8V29.9l-11.9,43.8h-11.1l-11.8-43.8v43.8h-9.8V17.6H606.2z"/>
		<path class="st0" d="M689.7,17.6l19.1,56.1h-11.2L694.1,62h-19.8l-3.5,11.7h-11l18.9-56.1H689.7z M684.2,29.9l-7.2,22.9h14.4
			L684.2,29.9z"/>
		<path class="st0" d="M749,34c-0.4-5.2-3.8-8.2-9.2-8.2c-4.6,0-8.2,2.6-8.2,6.1c0,1.8,1,3.3,2.9,4.3c1.6,0.8,1.6,0.8,9.3,3.9
			c9.7,4,10.9,4.6,13.3,7.1c2.5,2.5,3.9,6.1,3.9,10.3c0,10.7-7.7,17.3-20,17.3c-13.8,0-21.4-7-21.9-20.2h10.4
			c0.7,7.2,4.5,10.9,11.5,10.9c5.3,0,8.9-2.4,8.9-6c0-2.2-1.3-4-3.9-5.4c-1.5-0.8-1.5-0.8-9.7-4.2c-6.3-2.7-9.5-4.5-11.5-6.7
			c-2.6-2.7-4-6.2-4-10.2c0-9.7,7.9-16.5,19.2-16.5c7,0,12.9,2.7,16.2,7.5c1.9,2.7,2.8,5.5,3,10.1H749z"/>
		<path class="st0" d="M808.8,35.8c-1-6.5-4.7-10-10.4-10c-8.3,0-13.5,7.7-13.5,19.9s5.2,19.8,13.6,19.8c6.6,0,10.1-4.1,10.8-12.6
			h9.6c-0.7,14.5-7.4,21.9-19.9,21.9c-6.6,0-12.5-2.3-17-6.4c-5.5-5.2-8.2-12.8-8.2-22.5c0-10.3,3.1-18.3,8.9-23.6
			c4.3-3.8,9.8-5.8,15.8-5.8c11.9,0,19,6.9,19.8,19.4H808.8z"/>
		<path class="st0" d="M867.6,39.9V17.6h10.8v56.1h-10.8V48.9h-22.3v24.8h-10.8V17.6h10.8v22.4H867.6z"/>
		<path class="st0" d="M908.7,17.6v32.2c0,5.4,0.2,7.2,0.9,9.3c1.4,4,5.2,6.3,10.5,6.3c5.8,0,9.6-2.6,10.9-7.4
			c0.5-1.9,0.6-3.5,0.6-8.2V17.6h10.8v32.4c0,8.1-0.4,10.9-2.2,14.4c-3.2,6.6-10.6,10.4-20,10.4c-9.4,0-16.8-3.8-20-10.4
			c-1.8-3.5-2.2-6.3-2.2-14.4V17.6H908.7z"/>
		<path class="st0" d="M996.7,17.6v9.2h-14.8v46.9h-10.8V26.7h-14.8v-9.2H996.7z"/>
		<path class="st0" d="M1045,17.6v7.6l-25.8,39.4h25v9.2h-37.8v-8.4l25.7-38.7h-23.1v-9H1045z"/>
	</g>
</g>
</svg>
