<?xml version="1.0" encoding="utf-8"?>
<!-- Generator: Adobe Illustrator 21.1.0, SVG Export Plug-In . SVG Version: 6.00 Build 0)  -->
<svg version="1.1" id="Ebene_1" xmlns="http://www.w3.org/2000/svg" xmlns:xlink="http://www.w3.org/1999/xlink" x="0px" y="0px"
	 viewBox="0 0 176.9 283.5" style="enable-background:new 0 0 176.9 283.5;" xml:space="preserve">
<style type="text/css">
	.st0{clip-path:url(#SVGID_2_);fill:#8B783D;}
	.st1{clip-path:url(#SVGID_2_);fill:#FFFFFF;}
	.st2{clip-path:url(#SVGID_2_);fill:#1D1D1B;}
</style>
<g>
	<defs>
		<rect id="SVGID_1_" y="0.2" width="176.9" height="283.5"/>
	</defs>
	<clipPath id="SVGID_2_">
		<use xlink:href="#SVGID_1_"  style="overflow:visible;"/>
	</clipPath>
	<path class="st0" d="M18.2,151.5h-2v14.7h1.9c2.3,0,3.6-0.6,4.4-2.1c0.7-1.2,1-2.9,1-4.9c0-2.6-0.2-4.6-1.4-6.1
		C21.1,152,20.1,151.5,18.2,151.5 M35.7,118.7c6.6,5.6,14.9,8.8,23.6,8.8c19.9,0,36.2-16.2,36.2-36.2c0-19.9-16.2-36.2-36.2-36.2
		c-8.7,0-17,3.1-23.6,8.8C29.3,69.4,25,77.1,23.6,85.5v0.2h16.3v-0.1c2.5-8.5,10.4-14.5,19.3-14.6v10.9c-5.1,0-9.3,4.2-9.3,9.3
		c0,5.1,4.1,9.3,9.3,9.3v10.9c-8.9,0-16.9-6-19.3-14.6v-0.1H23.6v0.2C25,105.4,29.3,113.1,35.7,118.7 M30.7,220.7
		c0,4.1,1,5.7,3.6,5.7c2.3,0,3.5-1.7,3.5-5.1c0-4.1-1-5.7-3.6-5.7C31.8,215.6,30.7,217.3,30.7,220.7 M37.7,188.2
		c-0.3-0.4-0.9-0.9-1.9-0.9c-1.7,0-2.6,1.3-2.7,3.7h5.4C38.5,189.8,38.2,188.8,37.7,188.2 M37.8,157.2c-0.3-0.4-0.9-0.9-1.9-0.9
		c-1.7,0-2.6,1.3-2.7,3.7h5.4C38.6,158.8,38.3,157.8,37.8,157.2 M73.8,158.8c0-1.7-0.7-2.4-2.4-2.4c-1.6,0-2.3,0.8-2.3,2.5
		c0,1.6,0.8,2.4,2.4,2.4C73,161.3,73.8,160.4,73.8,158.8 M18.2,182.6h-2v14.7h1.9c2.3,0,3.6-0.6,4.4-2.1c0.7-1.2,1-2.9,1-4.9
		c0-2.6-0.2-4.6-1.4-6.1C21.1,183,20.1,182.6,18.2,182.6 M100.3,158.2v7.1c0.9,0.9,1.9,1.4,2.8,1.4c2.1,0,3.1-1.6,3.1-5
		c0-3.5-0.8-5.1-2.7-5.1C102.3,156.6,101.2,157.1,100.3,158.2 M175.2,241.7H1.7V282h173.5V241.7z M27.1,158.9c0-2.8-0.6-5.1-1.8-6.7
		c-1.7-2.4-3.9-3.4-7.6-3.4h-4.8V169H18c3.2,0,5.3-0.8,6.8-2.7C26.3,164.5,27.1,162,27.1,158.9 M24.9,197.3c1.5-1.8,2.2-4.3,2.2-7.3
		c0-2.8-0.6-5.1-1.8-6.7c-1.8-2.4-3.9-3.4-7.6-3.4h-4.8v20.2H18C21.3,200.1,23.3,199.2,24.9,197.3 M20.9,217.9
		c0,1.9-1.5,3.1-4.2,5.1l-3.7,2.7v2.4h11.1c0.1-0.1,0.6-2.2,0.6-2.2v-0.1H19c0,0-2.2,0.1-2.7,0.1c0.4-0.3,3.1-2.2,3.1-2.2
		c1.1-0.8,4.6-3.2,4.6-6.2c0-2.6-2.1-4.3-5.3-4.3c-2.3,0-4.2,0.8-6.3,2.7l-0.1,0.1l1.4,1.6h0.1c0,0,2.1-1.8,4.2-1.8
		C19.9,215.7,20.9,216.5,20.9,217.9 M33.2,162.5L33.2,162.5c0.4-0.1,8.7-0.1,8.7-0.1v-0.7c0-3.3-0.5-5-1.8-6.3
		c-1.1-1.1-2.4-1.6-4.1-1.6c-1.8,0-3.3,0.7-4.5,2.1c-1.3,1.5-1.8,3.1-1.8,5.7c0,4.8,2.5,7.8,6.6,7.8c2,0,3.7-0.6,5.1-1.9l0.2-0.2
		l-1.3-2l-0.2,0.2c-1,0.9-2.1,1.3-3.3,1.3c-1.3,0-2.4-0.5-3.1-1.6C33.4,164.6,33.2,163.7,33.2,162.5 M34.2,213.4
		c-3.9,0-6.5,3-6.5,7.6c0,4.7,2.5,7.6,6.5,7.6c3.9,0,6.5-3,6.5-7.6C40.7,216.3,38.2,213.4,34.2,213.4 M33.1,193.6
		C33.1,193.6,33.1,193.5,33.1,193.6c0.4-0.1,8.7-0.1,8.7-0.1v-0.7c0-3.3-0.5-5-1.8-6.3c-1-1.1-2.4-1.6-4.1-1.6
		c-1.9,0-3.3,0.7-4.5,2.1c-1.3,1.5-1.8,3.1-1.8,5.7c0,4.8,2.5,7.8,6.6,7.8c2,0,3.7-0.6,5.1-1.9l0.2-0.2l-1.3-2l-0.2,0.2
		c-1,0.9-2.1,1.3-3.3,1.3c-1.3,0-2.4-0.5-3.1-1.6C33.3,195.7,33.1,194.8,33.1,193.6 M77.8,195.9c0,1.2-1,2.1-2.4,2.1
		c-1.3,0-2.8-0.5-4.5-1.4l-0.2-0.2l-1.2,2.4l0.2,0.1c1.7,1,3.7,1.5,5.5,1.5c3.5,0,5.9-2,5.9-5c0-1.5-0.7-3.5-3.9-4.2l-1.9-0.4
		c-1.5-0.3-1.8-0.9-1.8-1.7c0-1.1,0.9-1.9,2.2-1.9c1,0,2,0.3,3.4,1l0.2,0.1l1.1-2.3l-0.2-0.1c-1.3-0.8-3-1.2-4.6-1.2
		c-3.2,0-5.4,1.9-5.4,4.7c0,2.2,1.3,3.7,3.7,4.2l1.7,0.3C77.2,194.2,77.8,194.8,77.8,195.9 M72,174.4c3.9,0,6.3-1.8,6.3-4.9
		c0-2.7-2-4.2-5.4-4.2h-2.2c-0.3,0-0.8-0.1-0.8-0.5c0-0.4,0.9-1,2.1-1.3c3.9,0,5.3-2.5,5.3-4.7c0-0.8-0.3-1.5-0.8-2.3
		c0.3,0.1,0.4,0.1,0.7,0.1c0.9,0,1.7-0.3,2.5-0.9l0.2-0.2l-1.7-2l-0.2,0.1c-0.8,0.5-1.4,0.8-2.2,0.8c-0.6,0-1.4-0.2-2.1-0.4
		c-0.9-0.3-1.5-0.3-2.3-0.3c-3.4,0-5.7,2-5.7,5c0,1.9,1.1,3.3,3,4.1c-1.3,0.5-2.4,1.2-2.4,2.5c0,1.2,0.8,2,2.2,2.2l2.7,0.1
		c2.5,0,3.7,0.6,3.7,1.9c0,1.9-2,2.2-3.3,2.2c-1.2,0-3.2-0.3-3.2-2c0-0.3,0.1-0.6,0.1-0.6h-3c-0.1,0.2-0.2,0.8-0.2,1.1
		C65.4,172.9,67.8,174.4,72,174.4 M62.4,150.1c0-1-0.8-1.9-1.9-1.9c-1,0-1.8,0.8-1.8,1.9c0,1,0.8,1.9,1.8,1.9
		C61.6,152,62.4,151.2,62.4,150.1 M62.2,169v-15.2l-3.2,0.5V169H62.2z M64.1,185.3c0-1.4,0.1-3,0.2-4l0.1-0.4l-3.3,0.8v0.2
		c-0.1,0.8-0.2,2-0.2,3.4h-1.7v2.4h1.7v9c0,2.1,0.5,2.5,1.1,3c0.7,0.6,1.9,0.8,2.7,0.8c1,0,1.9-0.2,2.7-0.6l0.2-0.1l-0.4-2.1
		l-0.3,0.1c-0.4,0.2-0.8,0.3-1.2,0.3c-1.2,0-1.6-0.3-1.6-2.1v-8.4h2.7l0.9-2.4C67.7,185.3,64.5,185.3,64.1,185.3 M53.7,198.7
		c0.3,0.8,0.6,1.3,1.3,1.8l0.2,0.1l2.2-1.8l-0.2-0.2c-0.5-0.4-0.8-1.4-0.8-2.8v-11.1l-3.1,0.6v10.5c-0.5,1.1-1.9,2-3,2
		c-0.6,0-1.2-0.3-1.5-0.6c-0.4-0.4-0.6-0.9-0.6-2.3v-10.3l-3.1,0.6v10.4c0,1.2,0.1,1.9,0.4,2.5c0.7,1.4,2.2,2.3,4.1,2.3
		C51.2,200.6,52.5,199.9,53.7,198.7 M52.5,164.9c0,1.2-1,2.1-2.4,2.1c-1.3,0-2.8-0.5-4.5-1.4l-0.2-0.1l-1.2,2.3l0.2,0.1
		c1.7,1,3.7,1.5,5.5,1.5c3.5,0,5.9-2,5.9-5c0-1.5-0.7-3.5-3.9-4.2l-1.9-0.4c-1.5-0.3-1.8-0.9-1.8-1.7c0-1.1,0.9-1.9,2.2-1.9
		c1,0,2,0.3,3.4,1H54l1.1-2.3l-0.2-0.1c-1.3-0.8-3-1.2-4.6-1.2c-3.2,0-5.4,1.9-5.4,4.7c0,2.2,1.3,3.7,3.7,4.2l1.7,0.3
		C51.8,163.2,52.5,163.8,52.5,164.9 M48,216.7v9.2h-2.8v2.3h8v-2.3h-2.5v-12.5h-2l-5.1,3.6c0,0.1,0.6,1.5,0.6,1.5v0.1h0.1
		C45.8,218,46.9,217.4,48,216.7 M83.5,192.8c0,2.2,0.5,3.9,1.4,5.3c1,1.5,2.7,2.2,4.8,2.2c1.9,0,3.1-0.5,4.6-1.9l0.2-0.2l-1.6-2
		l-0.2,0.2c-0.8,0.9-1.8,1.4-2.8,1.4c-0.7,0-1.4-0.3-1.9-0.8c-0.7-0.8-1.1-2.1-1.1-3.9c0-2,0.2-3.4,0.7-4.3c0.4-0.9,1.3-1.4,2.3-1.4
		c0.9,0,1.4,0.3,2.3,1.1l0.2,0.2l1.7-2.2l-0.2-0.2c-1.1-1.1-2.5-1.6-4.1-1.6c-1.4,0-2.7,0.5-3.9,1.5
		C84.3,187.8,83.5,189.9,83.5,192.8 M82.2,158.1V169h3.1v-10.7c0.9-0.9,2.4-1.7,3.3-1.7c0.6,0,1,0.2,1.3,0.5c0.3,0.4,0.4,0.9,0.4,2
		v9.9h3.1v-11.1c0-0.7-0.1-1.4-0.4-1.9c-0.6-1.3-2-2.2-3.6-2.2c-1,0-2,0.3-2.8,0.7c-0.7,0.4-1,0.7-1.5,1.1c0-0.7-0.2-1.2-0.5-1.8
		l-0.1-0.2l-3,0.8l0.1,0.3C82.1,155.8,82.2,156.5,82.2,158.1 M12.2,91.3c0,26,21.2,47.1,47.1,47.1s47.1-21.2,47.1-47.1
		c0-23.8-17.8-44-41.5-46.8h-0.1V31.3h0.1c8.6-2.5,14.6-10.5,14.6-19.4v-0.3H68.6v0.3c0,5.1-4.2,9.3-9.3,9.3S50,17,50,11.9v-0.3
		H39.1v0.3c0,8.9,6,16.9,14.6,19.4h0.1v13.1h-0.1C30,47.3,12.2,67.4,12.2,91.3 M105.7,190v10.1h3.1v-10.4c0-1.4-0.1-1.7-0.3-2.4
		c-0.5-1.4-2-2.3-3.8-2.3c-1.2,0-2.2,0.3-3.2,1c0,0-0.7,0.5-1.1,0.8c0-0.5,0.1-1.4,0.1-1.4v-3.2c0-1.3-0.1-2.4-0.3-3.4l-0.1-0.2
		l-3.1,0.6l0.1,0.3c0.2,0.9,0.3,1.8,0.3,2.9V200h3.2v-10.4c1.1-1.2,2.4-1.9,3.5-1.9c0.6,0,1.2,0.2,1.4,0.5
		C105.6,188.5,105.7,189.1,105.7,190 M103.9,153.8c-1.4,0-2.7,0.6-3.8,1.7c0-0.8-0.1-1.2-0.2-1.5l-0.1-0.2l-3,0.5l0.1,0.3
		c0.2,0.9,0.3,1.8,0.3,3.5v17l3.1-0.7v-5.1v-1.1c1,0.8,2.2,1.3,3.4,1.3c3.6,0,5.8-3,5.8-7.9C109.5,156.8,107.3,153.8,103.9,153.8
		 M112.4,179.3v0.3c0.2,1.1,0.3,2.1,0.3,4.1v13c0,1.4,0.1,2,0.6,2.6c0.6,0.8,1.3,1.2,2.4,1.2c0.7,0,1.2-0.1,1.7-0.3l0.2-0.1l-0.6-2
		h-0.2c-0.2,0-0.5,0-0.6-0.1c-0.3-0.2-0.4-0.7-0.4-1.6v-13.3c0-1.8,0-3.2-0.3-4.1l-0.1-0.2L112.4,179.3z M112.4,154.5l0.1,0.3
		c0.3,0.8,0.5,1.7,0.5,3.5V169h3.1v-9.5c0-1.4,1.3-2.7,2.7-2.7c0.5,0,0.9,0.2,0.9,0.2l1.1-3.1c0,0-0.3-0.2-1.2-0.2
		c-1.4,0-2.6,0.7-3.7,2.1c-0.1-0.7-0.2-1.4-0.5-1.9l-0.1-0.2L112.4,154.5z M128.4,190.1v0.7h-0.7c-4.9,0-7.5,1.9-7.5,5.3
		c0,2.8,1.8,4.4,4.9,4.4c1.6,0,3-0.6,4-1.7c0.4,0.9,1,1.6,1.9,1.9l0.2,0.1l1.6-2.2l-0.2-0.1c-1-0.6-1.1-1.3-1.1-3.2l0.1-3.5V190
		c0-1.4-0.1-1.9-0.3-2.6c-0.6-1.6-2.1-2.4-4.4-2.4c-2.8,0-4.6,1.1-6,1.9l-0.3,0.2l1.5,2.3l0.2-0.2c1.3-1,2.9-1.6,4.2-1.6
		C128.3,187.5,128.4,188.5,128.4,190.1 M122,161.5c0,4.8,2.5,7.8,6.6,7.8c2,0,3.7-0.6,5.1-1.9l0.2-0.1l-1.3-2l-0.2,0.2
		c-1,0.9-2.1,1.3-3.3,1.3c-1.3,0-2.4-0.5-3.1-1.6c-0.4-0.6-0.6-1.5-0.6-2.7v-0.1h8.7v-0.7c0-3.3-0.5-5-1.8-6.3
		c-1-1.1-2.4-1.6-4.1-1.6c-1.8,0-3.3,0.7-4.5,2.1C122.5,157.3,122,158.9,122,161.5 M135.1,185.6l0.1,0.3c0.4,1,0.5,1.6,0.5,3.3v10.9
		h3.1v-10.7c0.9-0.9,2.4-1.7,3.3-1.7c0.6,0,1,0.2,1.3,0.5c0.3,0.4,0.4,0.9,0.4,2v9.9h3.1V189c0-0.7-0.1-1.4-0.4-1.9
		c-0.6-1.3-2-2.2-3.6-2.2c-1,0-2,0.3-2.8,0.7c-0.8,0.5-1,0.7-1.5,1.1c0-0.7-0.2-1.3-0.5-1.8l-0.1-0.2L135.1,185.6z M137.6,154.3V169
		h3.2v-15.2L137.6,154.3z M137.4,150.1c0,1,0.8,1.9,1.8,1.9s1.9-0.8,1.9-1.9s-0.8-1.9-1.9-1.9C138.2,148.3,137.4,149.1,137.4,150.1
		 M152.2,164.9c0,1.2-1,2.1-2.4,2.1c-1.3,0-2.8-0.5-4.5-1.4l-0.2-0.1l-1.2,2.3l0.2,0.1c1.7,1,3.7,1.5,5.5,1.5c3.5,0,5.9-2,5.9-5
		c0-1.5-0.7-3.5-3.9-4.2l-1.9-0.4c-1.5-0.3-1.8-0.9-1.8-1.7c0-1.1,0.9-1.9,2.2-1.9c1,0,2,0.3,3.4,1l0.2,0.1l1.1-2.3l-0.2-0.1
		c-1.3-0.8-3-1.2-4.6-1.2c-3.2,0-5.4,1.9-5.4,4.7c0,2.2,1.3,3.7,3.7,4.2l1.7,0.3C151.5,163.2,152.2,163.8,152.2,164.9 M158.9,186.4
		c-0.9-0.9-1.9-1.4-3.2-1.4c-1.1,0-2,0.3-2.9,0.9c-2,1.3-3.1,3.8-3.1,6.9c0,4.7,2.3,7.5,6,7.5c1.4,0,2.5-0.5,3.5-1.4
		c0.1,0.4,0.2,1.1,0.2,1.1h0.2h2.9l-0.1-0.3c-0.3-0.8-0.4-2.1-0.4-4.7v-16l-3.1-0.5v5.9C158.8,184.4,158.9,186.3,158.9,186.4
		 M176.9,283.7H0V0.2h176.9V283.7z M153.8,189c-0.5,0.9-0.7,1.9-0.7,3.8c0,2.7,0.3,3.4,1,4.2c0.4,0.5,1,0.7,1.9,0.7
		c1.2,0,2.3-0.6,2.8-1.4V189c-0.7-0.8-1.6-1.2-2.8-1.2C155.1,187.6,154.3,188.1,153.8,189 M130.1,157.2c-0.3-0.4-0.9-0.9-1.9-0.9
		c-1.7,0-2.6,1.3-2.7,3.7h5.4C130.9,158.8,130.6,157.8,130.1,157.2 M128.2,193L128.2,193c0.1,0.3,0,3.4,0,3.4
		c-0.6,1-1.7,1.6-2.7,1.6c-1.3,0-2-0.8-2-2.2c0-0.9,0.2-1.3,0.7-1.9c0.5-0.6,1.7-0.9,3.5-0.9H128.2z"/>
	<path class="st1" d="M62.2,213.4c-3.9,0-6.5,3-6.5,7.6c0,4.7,2.5,7.6,6.5,7.6c3.9,0,6.5-3,6.5-7.6
		C68.7,216.3,66.2,213.4,62.2,213.4"/>
	<path class="st0" d="M58.7,220.7c0,4.1,1,5.7,3.6,5.7c2.3,0,3.5-1.7,3.5-5.1c0-4.1-1-5.7-3.6-5.7C59.8,215.6,58.7,217.3,58.7,220.7
		"/>
	<path class="st2" d="M141.9,253.5h-13v2.6h4.7v16.1h3.1v-16.1h4.7L141.9,253.5z M124.3,258.9c0,1-0.3,1.8-0.8,2.3
		c-0.6,0.6-1.4,0.8-3.1,0.8h-1.6V256h1.7C123.3,256,124.3,257,124.3,258.9 M128.5,272.2l-2.8-4.5c-1-1.6-2.2-3.4-2.9-3.7
		c2.9,0,4.7-2.5,4.7-5.1c0-2.9-1.9-5.4-6.1-5.4h-5.7v18.7h3.1v-8.1c0.6,0,0.9,0.2,1.2,0.6c1,1,1.9,2.3,3.2,4.6l1.6,2.9H128.5z
		 M112.9,272.2v-2.7h-7.5v-5.8h5.7v-2.6h-5.8V256h6.9l0.4-2.5h-10.4v18.7H112.9z M97.9,253.5h-3.2v18.7h3.2V253.5z M90.4,272.2
		v-18.7h-2.9l0.1,8.6c0,1.7,0.2,4.4,0.3,5.3l-0.1,0.1c-0.2-0.9-1.1-3.1-1.9-4.8l-4.5-9.1h-3.5v18.7h3.1l-0.1-9.1
		c0-1.7-0.1-3.6-0.2-5.2l0.1-0.1c0.4,1.1,1.4,3.5,2.4,5.5l4.2,8.8H90.4z M73.4,253.5h-3.2v18.7h3.2V253.5z M66.4,272.2l-1.7-18.7
		h-4.1l-3,10.7c-0.4,1.3-0.6,2.6-0.7,3.1c-0.1-0.6-0.3-1.6-0.7-3.2l-2.9-10.6h-4.1l-1.7,18.7h3.1l0.8-11.3c0.1-1.2,0.2-3,0.2-3.6
		c0.1,0.6,0.5,2.3,0.8,3.5l3.1,11.3h2.7l3.4-11.9c0.4-1.2,0.6-2.4,0.7-3c0,0.6,0.1,2.1,0.1,3.2l0.9,11.6H66.4z M41,263.1
		c0,5-1.4,7.1-4.2,7.1c-3.2,0-4.4-2.7-4.4-7.5c0-4.5,1.2-7,4.3-7C40.1,255.6,41,258.5,41,263.1 M44.6,262.9c0-5.5-2.5-9.7-7.8-9.7
		c-4.7,0-7.8,3.5-7.8,9.6c0,5.5,2.6,9.7,8,9.7C41.7,272.5,44.6,268.7,44.6,262.9 M25.4,272.2v-18.7h-3l0.1,8.6
		c0,1.7,0.2,4.4,0.3,5.3l-0.1,0.1c-0.2-0.9-1.1-3.1-1.9-4.8l-4.5-9.1h-3.5v18.7h3.1l-0.1-9.1c0-1.7-0.1-3.6-0.2-5.2l0.1-0.1
		c0.4,1.1,1.4,3.5,2.4,5.5l4.2,8.8H25.4z"/>
</g>
</svg>
