<?xml version="1.0" encoding="utf-8"?>
<!-- Generator: Adobe Illustrator 26.1.0, SVG Export Plug-In . SVG Version: 6.00 Build 0)  -->
<svg version="1.1" id="Ebene_1" xmlns="http://www.w3.org/2000/svg" xmlns:xlink="http://www.w3.org/1999/xlink" x="0px" y="0px"
	 viewBox="0 0 283.5 283.5" style="enable-background:new 0 0 283.5 283.5;" xml:space="preserve">
<style type="text/css">
	.st0{clip-path:url(#SVGID_00000116204187488704348620000012685739683861306549_);fill:#85D0F5;}
	.st1{clip-path:url(#SVGID_00000116204187488704348620000012685739683861306549_);fill:#FFFFFF;}
	.st2{fill:#FFFFFF;}
</style>
<g>
	<defs>
		<rect id="SVGID_1_" x="1.4" y="1.4" width="280.6" height="280.6"/>
	</defs>
	<clipPath id="SVGID_00000140002105946681002660000002428827481680476059_">
		<use xlink:href="#SVGID_1_"  style="overflow:visible;"/>
	</clipPath>
	<path style="clip-path:url(#SVGID_00000140002105946681002660000002428827481680476059_);fill:#85D0F5;" d="M141.8,282.1
		c77.5,0,140.3-62.8,140.3-140.3c0-77.5-62.8-140.3-140.3-140.3S1.4,64.3,1.4,141.8C1.4,219.3,64.3,282.1,141.8,282.1"/>
	<path style="clip-path:url(#SVGID_00000140002105946681002660000002428827481680476059_);fill:#FFFFFF;" d="M66.5,93.3
		c0-3.1,2.5-5.6,5.6-5.6h139.4c3.1,0,5.6,2.5,5.6,5.6v96.8c0,3.1-2.5,5.6-5.6,5.6H72c-3.1,0-5.6-2.5-5.6-5.6V93.3z M53,171.2
		c0,4.9,2,9.3,5.1,12.6c-3.1,2.7-5.1,6.7-5.1,11.1c0,8.2,6.7,14.9,14.9,14.9c5,0,9.3-2.4,12-6.1c3.4,4,8.5,6.5,14.2,6.5
		c6.3,0,11.9-3.1,15.3-7.9c3.4,4.8,9,7.9,15.3,7.9c6.3,0,11.9-3.1,15.3-7.9c3.4,4.8,9,7.9,15.3,7.9c6.3,0,11.9-3.1,15.3-7.9
		c3.4,4.8,9,7.9,15.3,7.9c6.1,0,11.6-3,15-7.5c2.6,4.3,7.3,7.1,12.7,7.1c8.2,0,14.9-6.7,14.9-14.9c0-4-1.6-7.7-4.2-10.4
		c3.7-3.3,6.1-8.1,6.1-13.5c0-6.1-3-11.4-7.6-14.7c4.6-3.3,7.6-8.6,7.6-14.7c0-6.1-3-11.4-7.6-14.7c4.6-3.3,7.6-8.6,7.6-14.7
		c0-5.1-2.1-9.7-5.5-13c2.8-2.7,4.6-6.5,4.6-10.7c0-8.2-6.7-14.9-14.9-14.9c-4.8,0-9,2.3-11.7,5.8c-3.4-3.8-8.4-6.2-13.9-6.2
		c-6.3,0-11.9,3.1-15.3,7.9c-3.4-4.8-9-7.9-15.3-7.9c-6.3,0-11.9,3.1-15.3,7.9c-3.4-4.8-9-7.9-15.3-7.9c-6.3,0-11.9,3.1-15.3,7.9
		c-3.4-4.8-9-7.9-15.3-7.9c-6.1,0-11.6,2.9-15,7.5c-2.6-4.2-7.3-7.1-12.7-7.1c-8.2,0-14.9,6.7-14.9,14.9c0,4.1,1.7,7.8,4.4,10.6
		c-3.6,3.3-5.9,8-5.9,13.3c0,6.1,3,11.4,7.6,14.7c-4.6,3.3-7.6,8.6-7.6,14.7c0,6.1,3,11.4,7.6,14.7C56,159.8,53,165.2,53,171.2"/>
</g>
<rect x="93.8" y="112.2" class="st2" width="95.8" height="7.6"/>
<rect x="111.8" y="134.1" class="st2" width="59.9" height="7.6"/>
<polygon class="st2" points="185.5,151.3 182,149.3 179.5,152.5 175.5,151.9 174.5,155.9 170.5,156.9 171.1,160.9 167.8,163.4 
	169.9,166.9 167.8,170.5 171.1,172.9 170.5,177 174.5,178 175.5,181.9 179.5,181.4 182,184.6 185.5,182.6 189,184.6 191.5,181.4 
	195.5,181.9 196.6,178 200.5,177 200,172.9 203.2,170.5 201.2,166.9 203.2,163.4 200,160.9 200.5,156.9 196.6,155.9 195.5,151.9 
	191.5,152.5 189,149.3 "/>
</svg>
