<svg width="114" height="114" viewBox="0 0 114 114" fill="none" xmlns="http://www.w3.org/2000/svg">
<path d="M62.2758 91.051V84.0388H6V91.0793C6 97.4552 11.1522 102.724 17.5289 102.724H67.9475C67.4641 102.284 66.9978 101.899 66.5573 101.458C63.8034 98.6951 62.2629 94.9512 62.2758 91.051Z" fill="white"/>
<path d="M45.8454 48.5419L54.0117 54.1484L62.2097 48.5419C64.4518 47.0126 66.2327 43.5614 66.2327 40.848V29.2624L54.0323 23.2283L41.8319 29.2469V40.848C41.8319 43.5606 43.6025 47.0126 45.8454 48.5419ZM47.6839 37.5918C48.2876 36.9941 49.2622 36.9984 49.8599 37.6029L52.3123 40.0794L58.215 34.1776C58.8161 33.5765 59.7907 33.5765 60.3918 34.1784C60.9929 34.7795 60.9921 35.7541 60.391 36.3552L53.3951 43.3545C53.1066 43.6439 52.7159 43.8088 52.3072 43.8105H52.3037C51.8933 43.8079 51.5008 43.6422 51.214 43.3485L47.6727 39.7711C47.0751 39.1658 47.0802 38.1911 47.6839 37.5918Z" fill="white"/>
<path d="M99.8431 11.2759H99.7942C95.2731 11.2759 91.5129 15.0533 91.5129 19.5769V33.6983H108V19.5495C108.021 15.0172 104.375 11.3197 99.8431 11.2759Z" fill="white"/>
<path d="M29.6246 11.2759C25.3491 11.2759 21.8696 14.709 21.8696 18.92L21.4154 80.9612H63.8146C64.6776 80.9955 65.3585 81.7074 65.3534 82.5721V91.0509C65.3379 97.4611 70.5056 102.678 76.9149 102.724H76.9536C83.3397 102.678 88.4791 97.4637 88.4353 91.0775V19.5795C88.4353 16.3448 89.8908 13.4742 92.0779 11.2759L29.6246 11.2759ZM38.7543 28.2867C38.7345 27.708 39.0514 27.1696 39.5675 26.9051L53.3479 20.1325C53.7712 19.923 54.2676 19.923 54.6909 20.1325L68.4962 26.924C69.0123 27.1885 69.3292 27.726 69.3103 28.3056V40.8478C69.3103 44.5806 67.0321 48.9814 63.9468 51.0844L54.9064 57.2833C54.6531 57.4577 54.3526 57.5513 54.0452 57.5513C53.7386 57.5513 53.4398 57.4585 53.1882 57.2833L44.1212 51.0844C41.0376 48.9806 38.7543 44.5797 38.7543 40.8478V28.2867ZM75.9051 73.9267H33.6982C32.8481 73.9267 32.1595 73.238 32.1595 72.3879C32.1595 71.5378 32.8481 70.8491 33.6982 70.8491H75.9051C76.7552 70.8491 77.4439 71.5378 77.4439 72.3879C77.4439 73.238 76.7552 73.9267 75.9051 73.9267ZM75.9051 65.7931H33.6982C32.8481 65.7931 32.1595 65.1044 32.1595 64.2543C32.1595 63.4042 32.8481 62.7155 33.6982 62.7155H75.9051C76.7552 62.7155 77.4439 63.4042 77.4439 64.2543C77.4439 65.1044 76.7552 65.7931 75.9051 65.7931Z" fill="white"/>
</svg>
