<svg xmlns="http://www.w3.org/2000/svg" width="800" height="460" viewBox="0 0 20 11.5">
  <path d="m 17.802,8.048 c 0,0 1.617,1.597 2.017,2.336 a 0.127,0.127 0 0 1 0.018,0.035 c 0.163,0.273 0.203,0.487 0.123,0.645 -0.135,0.261 -0.592,0.392 -0.747,0.403 h -2.858 c -0.199,0 -0.613,-0.052 -1.117,-0.4 C 14.853,10.798 14.47,10.355 14.099,9.922 13.545,9.279 13.066,8.721 12.581,8.721 a 0.548,0.548 0 0 0 -0.18,0.03 c -0.367,0.116 -0.833,0.639 -0.833,2.032 0,0.436 -0.344,0.684 -0.585,0.684 H 9.674 C 9.228,11.467 6.906,11.311 4.847,9.14 2.324,6.482 0.058,1.15 0.036,1.103 -0.105,0.758 0.191,0.57 0.511,0.57 h 2.886 c 0.387,0 0.513,0.234 0.601,0.444 0.102,0.241 0.48,1.205 1.1,2.288 1.004,1.762 1.621,2.479 2.114,2.479 A 0.527,0.527 0 0 0 7.476,5.711 C 8.12,5.357 8,3.057 7.97,2.583 7.97,2.491 7.969,1.556 7.639,1.104 7.403,0.78 7.001,0.654 6.758,0.608 6.823,0.514 6.961,0.37 7.138,0.285 7.579,0.065 8.376,0.033 9.167,0.033 h 0.439 c 0.858,0.012 1.08,0.067 1.392,0.146 0.628,0.15 0.64,0.557 0.585,1.943 -0.016,0.396 -0.033,0.842 -0.033,1.367 0,0.112 -0.005,0.237 -0.005,0.364 -0.019,0.711 -0.044,1.512 0.458,1.841 a 0.41,0.41 0 0 0 0.217,0.062 c 0.174,0 0.695,0 2.108,-2.425 0.62,-1.071 1.1,-2.334 1.133,-2.429 C 15.489,0.849 15.573,0.7 15.675,0.64 a 0.479,0.479 0 0 1 0.236,-0.056 h 3.395 c 0.37,0 0.621,0.056 0.67,0.196 0.082,0.227 -0.016,0.92 -1.566,3.016 -0.261,0.349 -0.49,0.651 -0.691,0.915 -1.405,1.844 -1.405,1.937 0.083,3.337 z"/>
</svg>
