<svg xmlns="http://www.w3.org/2000/svg" viewBox="0 0 800 800">
<g>
	<path class="st0" d="M708.3,701.8H567.7c-8.2,0-15.9-4-20.5-10.8L444.8,543.4H242.3v133.4c0,13.8-11.2,25-25,25H91.7
		c-13.8,0-25-11.2-25-25V189.9c0-13.8,11.2-25,25-25h451.2c0.2,0,0.3,0,0.5,0c28.7,0,53.8,3.1,74.8,9c0.3,0.1,0.6,0.2,0.9,0.3
		c21.3,6.9,39.6,17.5,55.8,32.4c0.4,0.3,0.7,0.7,1,1c15.8,16.2,26.6,34.1,33,54.5c6.2,19.9,9.4,44.8,9.4,73.9v36.5
		c0,52.5-10,92.5-29.9,118.7c-13.9,18.4-33.5,32.3-58.4,41.4l98.2,129.1c5.8,7.6,6.7,17.7,2.5,26.2S717.8,701.8,708.3,701.8z
		 M580.8,651.8h77.1l-90.5-119c-5.3-7-6.6-16.3-3.3-24.5c3.3-8.2,10.6-14,19.4-15.4c30.8-4.8,52.7-15.5,65.1-32
		c12.9-17.1,19.8-47.7,19.8-88.6v-36.5c0-24-2.4-43.9-7.1-58.9c-3.9-12.6-10.7-23.7-20.6-34.1c-10.7-9.7-22.3-16.4-36.5-21
		c-16.5-4.6-37.1-7-61.2-7c-0.2,0-0.3,0-0.5,0H116.7v436.8h75.6V518.4c0-13.8,11.2-25,25-25h240.6c8.2,0,15.9,4,20.5,10.8
		L580.8,651.8z M522.6,436.1H217.3c-13.8,0-25-11.2-25-25V297.2c0-13.8,11.2-25,25-25h305.3c23.6,0,40.5,4.6,51.5,14
		c8.5,7.2,18.6,21.3,18.6,47.5v40.9c0,26.8-10.1,41-18.6,48.2c-10.7,9.1-26.4,13.2-50.9,13.2C523,436.1,522.8,436.1,522.6,436.1z
		 M242.3,386.1H522c0.2,0,0.4,0,0.6,0c11.1,0,16.6-1.1,18.9-1.7c0.5-1.4,1.2-4.4,1.2-9.8v-40.9c0-4.9-0.7-7.9-1.2-9.3
		c-2.1-0.7-7.6-2.2-18.9-2.2H242.3V386.1z M541.1,385.4C541.1,385.4,541.1,385.4,541.1,385.4C541.1,385.4,541.1,385.4,541.1,385.4z
		 M542.9,383.9C542.9,383.9,542.9,383.9,542.9,383.9C542.9,383.9,542.9,383.9,542.9,383.9z M542.5,324.8L542.5,324.8L542.5,324.8z
		 M541.1,323.6C541.1,323.6,541.1,323.6,541.1,323.6L541.1,323.6z"/>
</g>
<g>
	<path d="M683,181.6c23,0,41.7-18.7,41.7-41.7S706,98.2,683,98.2c-23,0-41.7,18.7-41.7,41.7S660,181.6,683,181.6z"/>
</g>
</svg>
