<svg xmlns="http://www.w3.org/2000/svg" width="460" height="460" viewBox="0 0 460 460">
  <g transform="translate(-170,170)">
    <path d="m 398.67231,-170 c 0.0995,32.21083 6.69453,62.87517 18.65127,90.73072 h 20.72364 24.60932 c 14.55628,0 27.44678,1.54184 38.59775,4.7923 l 0.45327,0.13263 0.45326,0.19894 c 11.71134,3.91031 21.79401,9.90557 30.69687,18.32766 l 0.45327,0.45426 0.51826,0.51726 c 8.35909,8.81931 14.56384,19.05248 18.19793,30.9558 3.36552,11.03824 4.92188,24.08153 4.92188,38.85665 v 17.35613 c 0,5.68987 -0.21221,11.3204 -0.71223,16.83786 C 579.40519,57.008 604.19928,61.25619 630,61.33543 V -59.31524 c 0,-61.31311 -49.36399,-110.67713 -110.67716,-110.67713 z"/>
    <path d="M 453.23505,50.79523 H 316.09169 v -54.2694 h 137.14336 c 8.01093,0 13.58144,1.39595 16.37664,3.83305 2.79521,2.44041 4.52604,6.96314 4.52604,13.56818 V 33.4139 c 0,6.95983 -1.73083,11.48255 -4.52604,13.92297 -2.7952,2.43709 -8.36571,3.47825 -16.37664,3.47825 z m 9.41019,-105.43422 H 257.92958 v 232.0838 h 58.16211 v -75.50697 h 107.18859 l 50.85745,75.50697 h 65.13189 l -56.07649,-75.86176 c 20.6739,-3.06378 29.95808,-9.39692 37.61422,-19.83832 7.65282,-10.4414 11.49581,-27.13636 11.49581,-49.41509 V 14.92842 c 0,-13.21339 -1.39926,-23.65512 -3.84299,-31.65775 -2.44041,-8.00297 -6.60835,-14.96379 -12.53697,-21.21637 -6.25687,-5.91866 -13.22333,-10.08693 -21.58905,-12.87948 -8.36571,-2.4381 -18.81705,-3.8347 -31.68891,-3.8347 z"/>
    <path d="M 279.72237,-170 C 219.14603,-170 170,-120.85404 170,-60.27768 V 180.27768 C 170,240.85237 219.14604,290 279.72237,290 H 520.27764 C 580.85231,290 630,240.85237 630,180.27768 V -60.27768 C 630,-120.85404 580.85231,-170 520.27764,-170 Z m 2.34563,4.69105 h 235.92916 c 59.39451,0 107.5071,48.03475 107.5071,107.31174 v 235.473 c 0,59.27533 -48.11259,107.31174 -107.5071,107.31174 H 282.06799 c -59.39616,0 -107.57224,-48.03641 -107.57224,-107.31174 v -235.473 c 0,-59.27699 48.17609,-107.31174 107.57225,-107.31174 z"/>
  </g>
</svg>
