<svg xmlns="http://www.w3.org/2000/svg" viewBox="0 0 460 460" width="460" height="460">
  <g transform="matrix(0.70769231,0,0,0.70769231,-53.076922,-53.076923)">
    <g transform="matrix(0.8125,0,0,0.8125,-243.75,-6024.1875)">
      <g transform="translate(148.30769,67.692308)">
        <path d="m 876.8,8003.8 c -9.6,27.3 -48,49.9 -78.5,56.5 -20.9,4.4 -48.2,8 -140.1,-30.1 C 555,7987.4 411.6,7835 411.6,7733.6 c 0,-51.6 29.8,-111.7 81.8,-111.7 25,0 30.6,0.5 38.8,20.3 9.6,23.3 33.2,80.7 36,86.5 11.6,24.1 -11.8,38.2 -28.7,59.3 -5.4,6.3 -11.5,13.2 -4.7,24.9 6.8,11.5 30.3,49.9 64.9,80.6 44.6,39.8 80.8,52.5 93.8,57.9 9.6,4 21.2,3.1 28.2,-4.5 8.9,-9.6 20,-25.6 31.3,-41.4 8,-11.3 18.1,-12.7 28.7,-8.7 7.2,2.5 98.2,44.7 102,51.5 2.8,5 2.8,28.3 -6.9,55.5 M 644.1,7439 h -0.2 v 0 c -220.5,0 -399.9,179.4 -399.9,400 0,87.5 28.2,168.6 76.2,234.4 l -49.8,148.6 153.7,-49.1 c 63.2,41.9 138.7,66.1 220,66.1 220.5,0 399.9,-179.4 399.9,-400 0,-220.6 -179.4,-400 -399.9,-400"/>
      </g>
    </g>
  </g>
</svg>
