<svg width="114" height="114" viewBox="0 0 114 114" fill="none" xmlns="http://www.w3.org/2000/svg">
<path d="M79.2855 30.0612C80.4408 29.5233 80.9589 28.1641 80.4547 26.9936L78.7811 23.1088C78.161 21.6693 76.5087 20.9839 75.0517 21.5618L71.07 23.1411C69.7499 23.6647 68.2557 23.1459 67.4402 21.9832C65.2501 18.8606 62.5507 16.1277 59.4551 13.8991C58.3079 13.0732 57.8065 11.5822 58.3366 10.2717L59.8689 6.48396C60.4683 5.00222 59.7546 3.31495 58.2739 2.71309L54.5859 1.21407C53.1007 0.610394 51.4076 1.32752 50.8078 2.8143L49.3213 6.49903C48.7767 7.84904 47.3167 8.57147 45.8839 8.314C44.0218 7.97938 42.133 7.80344 40.238 7.78886C38.3098 7.78886 36.4141 7.98695 34.5704 8.32372C33.1483 8.58348 31.7035 7.86182 31.1613 6.52171L29.6605 2.81167C29.0595 1.32608 27.3667 0.610456 25.8824 1.21444L22.2008 2.71248C20.7206 3.31474 20.0075 5.0016 20.6068 6.48294L22.1303 10.2489C22.6645 11.5694 22.1511 13.0714 20.9879 13.8936C17.8512 16.1108 15.1147 18.846 12.896 21.9815C12.0736 23.1438 10.5723 23.6565 9.25243 23.1226L5.48475 21.5988C4.00313 20.9996 2.31609 21.7132 1.71418 23.1937L0.214117 26.8834C-0.389334 28.3677 0.326479 30.06 1.81189 30.6608L5.502 32.1533C6.85136 32.699 7.57243 34.1593 7.31457 35.5918C6.9794 37.4538 6.8038 39.3425 6.79047 41.2375C6.79047 43.1631 6.98808 45.0608 7.32411 46.9018C7.58389 48.325 6.86213 49.7716 5.52094 50.314L1.81291 51.8137C0.327102 52.4147 -0.388626 54.1077 0.215549 55.5921L1.71358 59.2729C2.31589 60.7528 4.00251 61.4658 5.48373 60.8668L9.272 59.3346C10.5833 58.8043 12.0751 59.3067 12.901 60.4551C15.1272 63.5508 17.8597 66.2492 20.9832 68.4366C22.1475 69.252 22.6675 70.7475 22.1433 72.0687L20.5865 75.993C20 77.4713 20.7146 79.146 22.1877 79.7454L25.8717 81.2444C27.3621 81.8508 29.0612 81.1267 29.656 79.6316L31.1793 75.8026C31.7139 74.4589 33.1552 73.7286 34.5779 73.9879C36.4222 74.324 38.3186 74.529 40.2429 74.529C42.1642 74.529 44.0578 74.3277 45.8965 73.9903C47.3268 73.7278 48.7793 74.4596 49.3148 75.8116L50.8279 79.6318C51.4209 81.129 53.1209 81.8554 54.6128 81.249L58.2991 79.7507C59.7738 79.1513 60.4888 77.4745 59.9004 75.9954L58.3339 72.0578C57.8111 70.7437 58.3219 69.2549 59.4746 68.4353C62.5578 66.2432 65.2518 63.5495 67.4441 60.4666C68.2637 59.3142 69.7522 58.8034 71.0662 59.3261L75.0055 60.8929C76.4845 61.4812 78.1611 60.7663 78.7605 59.2918L80.259 55.6061C80.8655 54.1142 80.1391 52.414 78.6418 51.8209L74.8499 50.319C73.4918 49.7811 72.7603 48.318 73.0167 46.8798C73.3482 45.0201 73.523 43.1344 73.5383 41.2424C73.5383 39.2819 73.3311 37.3551 72.9841 35.4823C72.7283 34.1019 73.4009 32.6947 74.6823 32.1212L79.2855 30.0612ZM63.7132 41.2326C63.7132 54.3067 53.3038 64.7001 40.2331 64.7001C27.1575 64.7099 16.6058 54.3066 16.6058 41.2326C16.6019 38.1291 17.2104 35.0552 18.3964 32.1872C19.5824 29.3192 21.3226 26.7133 23.5174 24.5188C25.7122 22.3243 28.3184 20.5842 31.1867 19.3983C34.0551 18.2125 37.1293 17.604 40.2331 17.6079C53.3087 17.6079 63.7132 28.1634 63.7132 41.2326Z" fill="white"/>
<path d="M113.09 85.5187C113.09 84.3044 112.106 83.32 110.891 83.32H109.705C108.634 83.32 107.732 82.5449 107.458 81.5097C106.979 79.6963 106.26 77.9549 105.319 76.3322C104.796 75.4316 104.868 74.2826 105.581 73.524L106.462 72.5876C107.295 71.7013 107.25 70.3069 106.361 69.4759L104.099 67.3596C103.213 66.5307 101.823 66.5765 100.993 67.4619L100.295 68.2067C99.5526 68.9992 98.3484 69.1192 97.4016 68.5874C95.8684 67.7261 94.2334 67.06 92.5347 66.6047C91.504 66.3285 90.7338 65.4275 90.7338 64.3603V63.1664C90.7338 61.9521 89.7496 60.9678 88.5354 60.9678H85.4815C84.2673 60.9678 83.2831 61.9521 83.2831 63.1664V64.36C83.2831 65.4273 82.5124 66.328 81.4822 66.6064C79.7074 67.0859 78.0351 67.7938 76.4795 68.6939C75.5454 69.2343 74.3489 69.1303 73.5979 68.3553L72.6179 67.3438C71.7636 66.4621 70.3528 66.451 69.4847 67.3191L67.2795 69.5243C66.411 70.3928 66.4225 71.8046 67.305 72.6589L68.3168 73.6384C69.0925 74.3893 69.1969 75.5867 68.6562 76.5214C67.7565 78.0767 67.0488 79.7485 66.5695 81.5227C66.2911 82.5531 65.3905 83.3237 64.3233 83.3237H63.1329C61.9188 83.3237 60.9345 84.3081 60.9345 85.5224V88.5758C60.9345 89.7901 61.9188 90.7745 63.1329 90.7745H64.3266C65.394 90.7745 66.295 91.5452 66.571 92.5763C67.0255 94.2742 67.6905 95.9085 68.5506 97.4411C69.0823 98.3885 68.9617 99.5933 68.1686 100.336L67.4276 101.029C66.541 101.859 66.495 103.251 67.3249 104.137L69.4415 106.398C70.273 107.287 71.6678 107.331 72.5535 106.496L73.4819 105.622C74.241 104.907 75.3919 104.835 76.2944 105.357C77.9037 106.289 79.6465 107.007 81.4865 107.493C82.5176 107.765 83.2868 108.666 83.2868 109.733V110.924C83.2868 112.139 84.271 113.123 85.4852 113.123H88.5392C89.7533 113.123 90.7375 112.139 90.7375 110.924V109.727C90.7375 108.662 91.5059 107.761 92.5347 107.483C94.2946 107.007 95.9848 106.303 97.562 105.389C98.4871 104.852 99.6719 104.943 100.428 105.699L101.059 106.33C101.918 107.189 103.31 107.189 104.168 106.33L106.297 104.199C107.156 103.34 107.155 101.948 106.296 101.089L105.668 100.462C104.911 99.7054 104.819 98.5197 105.356 97.5939C106.27 96.0171 106.974 94.3275 107.45 92.568C107.728 91.5392 108.628 90.7708 109.694 90.7708H110.891C112.106 90.7708 113.09 89.7864 113.09 88.5721V85.5187ZM100.749 87.0454V87.0454C100.748 87.0466 100.748 87.0482 100.748 87.0499C100.759 88.8556 100.412 90.6457 99.7263 92.3163C99.0403 93.9883 98.0291 95.5075 96.7513 96.7856C95.4735 98.0637 93.9546 99.0754 92.2828 99.7619C90.611 100.448 88.8194 100.796 87.0122 100.785C79.3565 100.785 73.273 94.701 73.273 87.0454C73.273 79.3898 79.3565 73.3062 87.0122 73.3062C94.6663 73.3062 100.749 79.3874 100.751 87.0409C100.751 87.0426 100.751 87.0442 100.749 87.0454V87.0454Z" fill="white"/>
</svg>
