<svg xmlns="http://www.w3.org/2000/svg" viewBox="0 0 649.37433 460" width="649.37433" height="460">
  <g transform="matrix(0.81171696,0,0,0.81171696,0.0811717,-94.646198)">
    <g transform="translate(-200,-368)">
      <path d="M 517.4,872.5 V 646.1 L 733.6,759.7 Z M 992,606.9 c 0,0 -7.8,-55.5 -31.8,-80 -30.4,-32.1 -64.5,-32.3 -80.2,-34.1 -111.9,-8.2 -279.9,-8.2 -279.9,-8.2 h -0.3 c 0,0 -167.9,0 -279.9,8.2 -15.7,1.9 -49.7,2 -80.2,34.1 -24,24.4 -31.8,80 -31.8,80 0,0 -8,65.2 -8,130.4 v 61.1 c 0,65.2 8,130.4 8,130.4 0,0 7.8,55.5 31.8,80 30.4,32.1 70.4,31.1 88.2,34.4 64,6.2 272,8.1 272,8.1 0,0 168.1,-0.3 280,-8.4 15.6,-1.9 49.7,-2 80.2,-34.1 24,-24.4 31.8,-80 31.8,-80 0,0 8,-65.2 8,-130.4 V 737.3 C 1000,672.1 992,606.9 992,606.9 Z"/>
    </g>
  </g>
</svg>
