<svg width="114" height="114" viewBox="0 0 114 114" fill="none" xmlns="http://www.w3.org/2000/svg">
<g clip-path="url(#clip0_1_139)">
<path d="M25.4524 30.5901C27.2945 34.604 29.0305 38.3961 33.1601 40.8236C35.592 42.0508 38.4308 42.1847 40.967 41.1932C41.7524 40.921 42.5143 40.5835 43.244 40.1843C40.0868 34.5161 36.0312 29.3977 31.2354 25.028L34.1221 21.8517C39.1179 26.4048 43.3649 31.7182 46.7048 37.5959C47.4606 36.8497 48.0685 35.9669 48.4964 34.9936C50.229 30.7014 48.3416 22.3605 41.3401 18.531C31.6128 13.2142 22.8318 18.0074 19.018 20.761C21.8577 23.526 24.0547 26.8815 25.4524 30.5901Z" fill="white"/>
<path d="M66.8656 30.1969C70.2002 24.3148 74.4411 18.9954 79.4326 14.4336L82.3193 17.6108C77.5288 21.983 73.4783 27.1032 70.3255 32.7723C71.0517 33.1697 71.8101 33.5046 72.592 33.7751C75.1256 34.764 77.9593 34.6292 80.3876 33.4054C84.5181 30.978 86.2541 27.1815 88.0954 23.1719C89.4922 19.4581 91.6909 16.0974 94.535 13.3307C90.7403 10.5397 82.0149 5.74909 72.1998 11.1128C65.1974 14.9406 63.3109 23.2815 65.0435 27.5764C65.4784 28.5583 66.0967 29.4472 66.8656 30.1969Z" fill="white"/>
<path d="M57.6549 94.7497C57.0966 95.0002 56.4582 95.0002 55.8998 94.7497L11.2885 74.7603L-0.222656 79.9118L56.7774 105.454L113.777 79.9118L102.264 74.7603L57.6549 94.7497Z" fill="white"/>
<path d="M57.6549 79.7248C57.0966 79.9753 56.4582 79.9753 55.8998 79.7248L11.2885 59.7354L-0.222656 64.8869L56.7774 90.4297L113.777 64.8869L102.266 59.7354L57.6549 79.7248Z" fill="white"/>
<path d="M113.777 49.8621L83.6701 36.3679C83.3091 36.6166 82.9638 36.8741 82.5707 37.1063C80.6833 38.1952 78.5377 38.7579 76.3589 38.7336C74.6046 38.7205 72.8634 38.4179 71.2074 37.8386C70.2315 37.4994 69.2852 37.0811 68.379 36.587C65.9271 41.7647 64.2311 47.2667 63.3414 52.9253L63.1004 54.4813L58.8595 53.8377L59.0979 52.2817C60.0902 45.9847 62.0133 39.8703 64.8052 34.1396C63.1944 32.7967 61.9167 31.0998 61.0704 29.182C60.6573 28.1218 60.3886 27.0102 60.272 25.8787L56.7774 24.3201L52.566 26.2092C53.6984 29.5847 53.6697 33.242 52.4843 36.6001C51.6423 38.504 50.3742 40.1887 48.7774 41.5255C50.4795 45.0245 51.8607 48.6705 52.9026 52.4191L48.7669 53.5559C47.852 50.2726 46.6587 47.0736 45.2018 43.9921C44.2877 44.4905 43.3345 44.914 42.3517 45.2558C40.6948 45.8342 38.9544 46.1369 37.2001 46.1508C35.0205 46.1752 32.8757 45.6133 30.9884 44.5244C28.5174 43.0562 26.4196 41.0367 24.8584 38.624L-0.222656 49.8621L56.7774 75.4049L113.777 49.8621ZM67.5092 52.0086H71.8023V56.3017H67.5092V52.0086ZM43.8989 56.3017H39.6059V52.0086H43.8989V56.3017Z" fill="white"/>
</g>
<defs>
<clipPath id="clip0_1_139">
<rect width="114" height="114" fill="white"/>
</clipPath>
</defs>
</svg>
