<?xml version="1.0" encoding="utf-8"?>
<!-- Generator: Adobe Illustrator 26.1.0, SVG Export Plug-In . SVG Version: 6.00 Build 0)  -->
<svg version="1.1" id="Ebene_1" xmlns="http://www.w3.org/2000/svg" xmlns:xlink="http://www.w3.org/1999/xlink" x="0px" y="0px"
	 viewBox="0 0 283.5 283.5" style="enable-background:new 0 0 283.5 283.5;" xml:space="preserve">
<style type="text/css">
	.st0{clip-path:url(#SVGID_00000069358326590073410070000012346425201447652005_);fill:#BDA86F;}
	.st1{clip-path:url(#SVGID_00000069358326590073410070000012346425201447652005_);fill:#FFFFFF;}
</style>
<g>
	<defs>
		<rect id="SVGID_1_" x="1.4" y="1.4" width="280.6" height="280.6"/>
	</defs>
	<clipPath id="SVGID_00000038385865984243817610000000224181373336555437_">
		<use xlink:href="#SVGID_1_"  style="overflow:visible;"/>
	</clipPath>
	<path style="clip-path:url(#SVGID_00000038385865984243817610000000224181373336555437_);fill:#BDA86F;" d="M141.7,282.1
		c77.5,0,140.3-62.8,140.3-140.3c0-77.5-62.8-140.3-140.3-140.3S1.4,64.2,1.4,141.7C1.4,219.2,64.2,282.1,141.7,282.1"/>
	<path style="clip-path:url(#SVGID_00000038385865984243817610000000224181373336555437_);fill:#FFFFFF;" d="M110,74.6L110,74.6
		c-1.2,0.7-2.7,0.3-3.3-0.9L98.2,59c-0.7-1.2-0.3-2.7,0.9-3.3c1.2-0.7,2.7-0.3,3.3,0.9l8.5,14.7C111.5,72.4,111.1,73.9,110,74.6
		 M86.7,97.9L86.7,97.9c-0.7,1.2-2.2,1.6-3.3,0.9l-14.7-8.5c-1.2-0.7-1.6-2.2-0.9-3.3c0.7-1.2,2.2-1.6,3.3-0.9l14.7,8.5
		C87,95.2,87.4,96.7,86.7,97.9 M78.2,129.6L78.2,129.6c0,1.3-1.1,2.4-2.4,2.4H58.8c-1.4,0-2.4-1.1-2.4-2.4c0-1.4,1.1-2.4,2.4-2.4
		h16.9C77.1,127.2,78.2,128.3,78.2,129.6 M86.7,161.4L86.7,161.4c0.7,1.2,0.3,2.7-0.9,3.3l-14.7,8.5c-1.2,0.7-2.7,0.3-3.3-0.9
		c-0.7-1.2-0.3-2.7,0.9-3.3l14.7-8.5C84.5,159.8,86,160.2,86.7,161.4 M196.7,161.4L196.7,161.4c0.7-1.2,2.2-1.6,3.3-0.9l14.7,8.5
		c1.2,0.7,1.6,2.2,0.9,3.3c-0.7,1.2-2.2,1.6-3.3,0.9l-14.7-8.5C196.5,164.1,196.1,162.6,196.7,161.4 M205.2,129.6L205.2,129.6
		c0-1.4,1.1-2.4,2.4-2.4h16.9c1.4,0,2.4,1.1,2.4,2.4c0,1.3-1.1,2.4-2.4,2.4h-16.9C206.4,132.1,205.2,131,205.2,129.6 M196.7,97.9
		L196.7,97.9c-0.7-1.2-0.3-2.7,0.9-3.3l14.7-8.5c1.2-0.7,2.7-0.3,3.3,0.9c0.7,1.2,0.3,2.7-0.9,3.3l-14.7,8.5
		C198.9,99.4,197.4,99,196.7,97.9 M173.5,74.6L173.5,74.6c-1.2-0.7-1.6-2.2-0.9-3.3l8.5-14.7c0.7-1.2,2.2-1.6,3.3-0.9
		c1.2,0.7,1.6,2.2,0.9,3.3l-8.5,14.7C176.2,74.9,174.7,75.3,173.5,74.6 M141.7,66.1L141.7,66.1c-1.3,0-2.4-1.1-2.4-2.4V46.7
		c0-1.4,1.1-2.5,2.4-2.5c1.4,0,2.4,1.1,2.4,2.5v16.9C144.2,65,143.1,66.1,141.7,66.1"/>
	<path style="clip-path:url(#SVGID_00000038385865984243817610000000224181373336555437_);fill:#FFFFFF;" d="M161,196.9
		c-0.1,0.5-0.8,1.4-1.2,1.5h-36c-0.4-0.1-1.1-1-1.3-1.5c0-17-5.4-25.5-14.2-39c-5.7-8.7-8.8-15.6-8.8-26.2
		c0-23.4,18.9-42.3,42.3-42.3c23.4,0,42.3,18.9,42.3,42.3c0,10.6-3.1,17.5-8.8,26.2C166.4,171.4,161,179.9,161,196.9 M127,225.7
		l29.5-1.5l-0.2,3.2c-0.4,0.2-1,0.3-1.3,0.3h-26.7c-0.3,0-0.9-0.1-1.3-0.3L127,225.7z M126.6,218.4l30.3-1.5l-0.2,2.6l-30,1.5
		L126.6,218.4z M157.6,205l-31.7,1.5l-0.2-3.4h32.1L157.6,205z M126.2,211.1l31.2-1.5l-0.2,2.6l-30.9,1.5L126.2,211.1z M141.7,84.7
		c-25.9,0-47,21-47,47c0,29.3,23,33.5,23,65.4c0,1.6,1.3,3.9,3.2,5.1l0.3,4.6c-0.9,0.3-1.6,1.2-1.6,2.2c0,1.1,0.8,2.1,1.8,2.3
		l0.2,2.8c-0.9,0.3-1.5,1.2-1.5,2.2c0,1.1,0.8,2,1.8,2.3l0.2,2.8c-0.9,0.4-1.5,1.2-1.5,2.2c0,1.1,0.7,2,1.7,2.3l0.1,2.4
		c0.1,2.3,2.7,4.1,5.9,4.1h26.7c3.2,0,5.8-1.9,5.9-4.1l0.3-4.3c0.9-0.3,1.6-1.2,1.6-2.2c0-1-0.6-1.8-1.4-2.1l0.2-2.9
		c1-0.3,1.7-1.2,1.7-2.3c0-1-0.6-1.8-1.4-2.1l0.2-2.8c1-0.3,1.7-1.2,1.7-2.3c0-1-0.6-1.8-1.5-2.2l0.2-2.8c1.9-1.3,3.2-3.5,3.2-5.1
		c0-31.9,23-36.1,23-65.4C188.7,105.7,167.7,84.7,141.7,84.7 M138,239.2c-2.6,0-4.7-2.1-4.7-4.7h16.9c0,2.6-2.1,4.7-4.7,4.7H138z"/>
</g>
</svg>
