<?xml version="1.0" encoding="utf-8"?>
<!-- Generator: Adobe Illustrator 24.1.2, SVG Export Plug-In . SVG Version: 6.00 Build 0)  -->
<svg version="1.1" id="Слой_1" xmlns="http://www.w3.org/2000/svg" xmlns:xlink="http://www.w3.org/1999/xlink" x="0px" y="0px"
	 viewBox="0 0 560.8 61.8" style="enable-background:new 0 0 560.8 61.8;" xml:space="preserve" width="560.8" height="61.8">
<style type="text/css">
	.st0{fill:#FFFFFF;}
</style>
<path class="st0" d="M8.6,31.4c0.8-0.2,7.7-2.3,21.3-4.3c2.1-0.3,1.8-2.8,1.7-3.9c-0.4-2.6-0.8-3.5-1.4-5.1
	c-1.1-3.5-4.6-4.7-10.7-5.6c-6.9-1-12.5-1.4-16.3-0.2c-3.6,1.1-4,3.4-2,9.4C3.2,28.1,4.2,32.6,8.6,31.4"/>
<path class="st0" d="M92.2,31.1c-0.8-0.2-10.7-1.8-20.6-4.1c-2.1-0.5-1.8-2.8-1.7-3.9c0.4-2.6,0.8-3.5,1.3-5.1
	c1.1-3.5,4.6-4.7,10.7-5.6c6.9-1,12.5-1.4,16.3-0.2c3.6,1.1,4,3.4,2,9.4C98.3,28.1,96.6,32.4,92.2,31.1"/>
<path class="st0" d="M36.5,21.4c1,2.4,2.5,3.9,4.2,3.9c2.7,0.1,6.2,0.1,10.1,0.1c3.8,0,7.3,0,10.1-0.1c1.7-0.1,3.3-1.5,4.3-3.9
	c1.4-3.6,2.7-6.4,3.6-10.8c1.9-9.5-5.5-10.2-7-10.3c-3-0.2-7-0.2-10.9-0.3l0,0l0,0C47,0.1,43,0.1,40,0.3c-1.5,0.1-9.5,1-7,10.3
	C34.2,15.5,35.5,19,36.5,21.4"/>
<path class="st0" d="M90.7,34c-13.8-4-26.9-4.6-39.9-4.7l0,0l0,0c-13,0.1-26.1,0.7-39.9,4.7c-3.3,1-3.6,1.7-2.6,5
	c0.4,1.3,1.7,5.6,2.9,8.4c1.3,3.1,4.2,1.7,5.3,1.5c9.2-2.1,17.7-2.5,34.1-3c0.1,0,0.2,0,0.3,0s0.2,0,0.3,0c16.4,0.5,24.9,0.9,34.1,3
	c1.1,0.3,3.9,1.6,5.3-1.5c1.2-2.8,2.5-7.1,2.9-8.4C94.3,35.6,94,34.9,90.7,34"/>
<path class="st0" d="M80.9,51.3c-9.4-1.9-19.8-1.8-30.1-2l0,0l0,0c-10.3,0.2-20.7,0.1-30.1,2c-5.3,1.1-5.3,2.3-5.1,4.2
	c0,0.3,1.3,4,3.1,5.7c0.9,0.8,2.1,0.5,3.1,0.5c19.8-0.3,28.2,0.1,54.2,0c1,0,6,0.3,6.9-0.5c1.8-1.7,3.1-5.4,3.1-5.7
	C86.2,53.6,86.1,52.3,80.9,51.3"/>
<path class="st0" d="M148.7,41c-2.7-6.3-7.4-6.7-7.4-6.7s1.3-0.4,3-2.7c0.6-0.8,11.6-16.7,11.6-16.7h-9.3L139,25.8c0,0-4,6.2-6,6.2
	c-1.1,0-2,0-2.7,0V15h-10v45.8h10V40.3h3.7c1.9,0.2,4.3,0.4,6,3.8c0.5,1.1,6.8,16.7,6.8,16.7h10.1C151.1,46.7,151.1,46.7,148.7,41"
	/>
<polygon class="st0" points="245.2,60.7 238.9,24.9 234.6,24.9 229.7,24.9 226.8,24.9 219.6,49.5 212.4,24.9 210.3,24.9 204.6,24.9 
	201.2,24.9 194.9,60.7 204,60.7 208.1,37.2 214.9,60.7 216.4,60.7 222.8,60.7 224.3,60.7 231.6,35.3 236,60.7 "/>
<rect x="392.5" y="25" class="st0" width="9.1" height="36"/>
<path class="st0" d="M271.5,24.9h-15.7c-8,0-7.9,6.2-7.9,6.2l0,0c0,0-0.1,18.9,0,21.3c0.1,2.4,0.9,4.4,2.8,6.1
	c2.6,2.2,6.4,2.2,6.4,2.2h13.8l1.7-0.2c2-0.5,5.7-1.7,5.7-1.7V54c0,0-18.4,0.2-19.5,0c-1.6-0.3-1.7-2.2-1.7-2.2v-7.1h16.2l5.4-1.3
	v-0.1V31.2C278.5,31.2,278.5,24.9,271.5,24.9 M256.9,33.4L256.9,33.4L256.9,33.4v-0.3c0-0.1,0-0.3,0-0.5c0.1-0.6,0.4-1.4,1.5-1.4
	c0.2,0,9.4,0,9.4,0c1.8,0,1.5,2.4,1.5,2.4v5.2h-12.4V33.4z"/>
<path class="st0" d="M519.6,25.9c-2.1-1.2-5.1-1-5.1-1h-12.1c-7.6,0-9.8,3.2-9.8,7.8c0,5.7-0.1,17.4,0,19.8s0.9,4.4,2.8,6.1
	c2.6,2.2,6.4,2.2,6.4,2.2h13.8l1.7-0.2c2-0.5,5.7-1.7,5.7-1.7v-4.7c0,0-18.4,0.2-19.5,0c-1.6-0.3-1.7-2.2-1.7-2.2v-7.1H518l5.4-1.3
	v-0.1V31.8C523.3,31.8,523.5,28,519.6,25.9 M501.7,33.6L501.7,33.6L501.7,33.6v-0.3c0-0.1,0-0.3,0.1-0.5c0.1-0.6,0.4-1.3,1.5-1.3
	c0.2,0,9.4,0,9.4,0c1.8,0,1.5,2.2,1.5,2.3l0,0V39h-12.4v-5.4H501.7z"/>
<path class="st0" d="M185.4,25.8C182,24.6,168,25,168,25l-6.8,1v5.6h17c0,0,1.7-0.2,1.7,1.8v6.3h-13c0,0-5.6,0-7.3,4.6
	c-1.4,3.9-1,8.7-0.7,10.6s2.4,6.3,7.9,6.6c5.4,0.3,7.7,0.1,10-1.2c2.4-1.3,3.9-3.2,3.9-3.2h0.2v3.5h9.2V31.4
	C189.9,31.4,189.8,27.4,185.4,25.8 M177.1,54.9c-2.1,0.4-7.3,0.1-7.3,0.1s-2.1-0.1-2.1-2.2v-5.4c0,0-0.1-1.6,1.8-1.8h5.2h5.2v6.9
	C179.9,52.5,179.5,54.5,177.1,54.9z"/>
<path class="st0" d="M342.3,24.9v13.6c-3.2,0-8.6,0.1-12.4,0.1V24.9h-9.1v35.8h9.1V45.2h8.2c0,0,2.2,0.1,4.2,0v15.5h9.1V24.9H342.3z
	"/>
<path class="st0" d="M305.7,24.9v13.7c-3.2,0-8.6,0.1-12.4,0.1V24.9h-9.1v35.8h9.1V45.2h12.4v15.5h9.1V24.9H305.7z"/>
<path class="st0" d="M414.9,21c1.6,1.3,4.3,1.5,4.3,1.5h2.7c0,0,0.1,0,0.4,0c0.2,0,0.4,0,0.4,0h2.7c0,0,2.5,0.1,4.5-1.6
	c1.2-1.1,1.6-2.4,1.7-4s0-2.1,0-2.1h-5.1v0.1v1.5c0,0-0.1,2.7-1.7,2.6c-0.2,0-1.1,0.1-2.6,0.1c-1.4,0-2.3-0.1-2.5-0.1
	c-1.6,0-1.7-2.6-1.7-2.6v-1.5v-0.1h-5.1c0,0-0.1,0.5,0,2.1C413,18.4,413.6,19.9,414.9,21"/>
<path class="st0" d="M554.8,46.8c-1.2-2.7-2-4-3.4-5c-1.9-1.5-4-1.7-4-1.7s0.8-0.3,3-3.5c0.6-0.8,8.1-11.7,8.1-11.7h-9.2L544,33
	c0,0-3.3,4.8-4.7,4.8c-0.7,0-1.3,0-1.8,0V24.9h-9.1v35.7h9.1V46h2.8c1.9,0.2,4.5,0.1,6.4,3.9c0.5,1.1,3.8,10.8,3.8,10.8h10.2
	C558,54.1,557.2,52.4,554.8,46.8"/>
<path class="st0" d="M488.2,47.9c0-4.1-2.6-6.4-7.2-6.9c4.6-0.6,4.6-4.6,4.6-4.8c0-2.2,0-3.9,0-4.3c0-4.8-1.6-7.2-9.1-7.2
	c-0.6,0-14,0-14,0h-5v4.2v31.7h6.8c0,0,9.1,0,12.9,0c0.2,0,1.8,0,1.8,0s3.8,0,6.4-2.2c1.9-1.7,2.7-3.7,2.8-6.1
	C488.3,51.8,488.2,48.4,488.2,47.9 M466.7,30c0,0,8,0,8.6,0c1.1,0,2.7,0.9,2.7,2.3c0,0.4,0,3.3,0,3.3s0.2,1.4-0.9,2.4
	c-0.5,0.5-1.1,0.5-1.5,0.6c-2.5,0-6.6,0-8.9,0L466.7,30z M466.7,51.8v-7.7h8.4c3.8-0.1,4.2,0.6,4.3,3.2c0,0.6,0,4.5,0,4.5
	c0,0.6,0.2,1.5-0.8,2.3c-0.4,0.4-0.9,0.8-2.1,0.8l-9.8-0.1V51.8z"/>
<path class="st0" d="M388.2,48.4v-5.2l-0.1-1.1c0-6.1-8.1-5.8-8.1-5.8h-6.7c-3.8,0-5.3,1.5-6.9,3V24.9h-9.1v17.2l0.2,18.6h6.8
	c0,0,4.6,0,8.7,0.1l0,0c1.3,0,6.4,0,6.4,0s3.6,0.2,6.2-2c1.9-1.7,2.6-3.4,2.7-5.8l0,0v-0.3C388.2,51.9,388.2,50.1,388.2,48.4
	 M366.4,55V44.7c1.4-1.1,3.4-1.9,3.4-1.9h5.9c0,0,1.2-0.1,2,0.3c1.5,0.7,1.4,1.8,1.4,2v3.3v3.7v0.4c0,0.9-0.3,1.4-0.7,1.8
	c-0.6,0.5-1,0.6-2.2,0.7c-1.6,0.1-6.9,0-6.9,0C366.7,54.9,366.4,55,366.4,55z"/>
<path class="st0" d="M428.1,24.9v28.2c-0.8,0.3-1.7,0.7-2.3,0.7c-2.5,0.1-6.3,0-7.1,0c-2.4,0-2.3-2.1-2.3-2.9c0-0.8,0-25.9,0-25.9
	h-9.1v26.1c0,0.1,0,0.2,0,0.3c0,0.5,0,0.9,0,1.2c0.1,2.4,0.9,4.4,2.8,6.1c2.6,2.2,6.4,2.2,6.4,2.2h0.5c0.1,0,0.2,0,0.3,0
	c2.6,0,3.3,0,3.3,0s2.1,0,4.5-1.2c1.1-0.6,2.2-1.3,3-1.9v3.1h9.1v-36H428.1z"/>
</svg>
