<?xml version="1.0" encoding="utf-8"?>
<!-- Generator: Adobe Illustrator 24.1.2, SVG Export Plug-In . SVG Version: 6.00 Build 0)  -->
<svg version="1.1" id="Слой_1" xmlns="http://www.w3.org/2000/svg" xmlns:xlink="http://www.w3.org/1999/xlink" x="0px" y="0px"
	 viewBox="0 0 233.3 142" style="enable-background:new 0 0 233.3 142;" xml:space="preserve" width="233.3" height="142">
<style type="text/css">
	.st0{fill:#2F3639;}
	.st1{fill:#DD0029;}
</style>
<path class="st0" d="M19.7,72.1c1.9-0.6,17.7-5.2,48.9-9.9c4.9-0.7,4.2-6.4,3.8-8.9c-1-5.9-1.9-8-3.1-11.8
	c-2.6-8-10.6-10.9-24.6-12.9C29,26.3,16,25.5,7.3,28.2c-8.2,2.6-9.1,7.7-4.7,21.5C7.4,64.5,9.7,75,19.7,72.1"/>
<path class="st0" d="M212.1,71.5c-1.9-0.5-24.6-4.1-47.3-9.3c-4.9-1.1-4.2-6.4-3.8-8.9c1-5.9,1.9-8,3.1-11.8
	c2.6-8,10.6-10.9,24.6-12.9c15.8-2.2,28.7-3.1,37.4-0.4c8.3,2.6,9.1,7.7,4.7,21.5C225.9,64.5,222.1,74.4,212.1,71.5"/>
<path class="st0" d="M83.9,49.3c2.3,5.4,5.8,8.9,9.8,9c6.3,0.2,14.3,0.2,23.2,0.2c8.8,0,16.9,0,23.2-0.2c4-0.1,7.6-3.5,9.8-9
	c3.3-8.2,6.2-14.8,8.3-24.9C162.6,2.5,145.6,0.8,142,0.7C135.2,0.3,125.9,0.1,117,0h-0.1h-0.1c-9,0.1-18.2,0.3-25.1,0.7
	c-3.5,0.2-21.9,2.2-16.1,23.7C78.6,35.6,81.6,43.6,83.9,49.3"/>
<path class="st1" d="M208.6,78.1c-31.7-9.1-62-10.6-91.8-10.7h-0.1h-0.1C86.7,67.6,56.5,69,24.8,78.1c-7.6,2.2-8.2,3.8-6,11.6
	c0.8,3,3.9,12.9,6.7,19.4c3.1,7.1,9.7,4,12.1,3.4c21.2-4.9,40.7-5.7,78.4-7c0.2,0,0.4,0,0.6,0c0.2,0,0.4,0,0.6,0
	c37.7,1.2,57.2,2,78.4,7c2.5,0.6,9.1,3.8,12.1-3.4c2.7-6.4,5.9-16.4,6.7-19.4C216.7,81.9,216.2,80.3,208.6,78.1"/>
<path class="st0" d="M185.9,117.9c-21.5-4.3-45.5-4-69.2-4.5h-0.1h-0.1c-23.7,0.5-47.7,0.2-69.2,4.5c-12.2,2.4-12.2,5.4-11.6,9.7
	c0.1,0.7,2.9,9.2,7.1,13c2.1,1.9,4.8,1.2,7,1.2c45.6-0.8,64.9,0.2,124.6,0c2.2,0,13.8,0.7,15.9-1.2c4.2-3.9,7-12.3,7.1-13
	C198.1,123.3,198.1,120.3,185.9,117.9"/>
</svg>
