<?xml version="1.0" encoding="utf-8"?>
<!-- Generator: Adobe Illustrator 26.0.2, SVG Export Plug-In . SVG Version: 6.00 Build 0)  -->
<svg version="1.1" id="Ebene_1" xmlns="http://www.w3.org/2000/svg" xmlns:xlink="http://www.w3.org/1999/xlink" x="0px" y="0px"
	 viewBox="0 0 128 128" style="enable-background:new 0 0 128 128;" xml:space="preserve">
<style type="text/css">
	.st0{clip-path:url(#SVGID_00000145051784844663383330000015075082612184655257_);fill:#FFFFFF;}
</style>
<g>
	<defs>
		<rect id="SVGID_1_" x="4" y="3.1" width="120.9" height="121"/>
	</defs>
	<clipPath id="SVGID_00000093856447781380014270000013145755352991688373_">
		<use xlink:href="#SVGID_1_"  style="overflow:visible;"/>
	</clipPath>
	<path style="clip-path:url(#SVGID_00000093856447781380014270000013145755352991688373_);fill:#FFFFFF;" d="M64.2,8.5
		C34,8.5,9.5,33.7,9.5,63.9s24.5,54.7,55.3,54.7c30.2,0,54.7-24.5,54.7-54.7C119.5,33.6,95,8.5,64.2,8.5 M64.7,124.1
		C31,124.1,4,97.1,4,63.9S31,3.1,64.2,3.1c33.9,0,60.7,27.5,60.7,60.8C124.9,97.1,97.9,124.1,64.7,124.1 M47.2,37.3l48.2,26.2
		L47.2,89.8V37.3z"/>
</g>
</svg>
