<?xml version="1.0" encoding="utf-8"?>
<!-- Generator: Adobe Illustrator 21.1.0, SVG Export Plug-In . SVG Version: 6.00 Build 0)  -->
<svg version="1.1" id="Ebene_1" xmlns="http://www.w3.org/2000/svg" xmlns:xlink="http://www.w3.org/1999/xlink" x="0px" y="0px"
	 viewBox="0 0 153.1 99.3" style="enable-background:new 0 0 153.1 99.3;" xml:space="preserve">
<style type="text/css">
	.st0{clip-path:url(#SVGID_2_);fill:#E30613;}
	.st1{clip-path:url(#SVGID_2_);fill:#E5261D;}
	.st2{clip-path:url(#SVGID_2_);fill:#E73826;}
	.st3{clip-path:url(#SVGID_2_);fill:#E94930;}
	.st4{clip-path:url(#SVGID_2_);fill:#EB593D;}
	.st5{clip-path:url(#SVGID_2_);fill:#ED6849;}
	.st6{clip-path:url(#SVGID_2_);fill:#EF7657;}
	.st7{clip-path:url(#SVGID_2_);fill:#F08565;}
	.st8{clip-path:url(#SVGID_2_);fill:#F29274;}
	.st9{clip-path:url(#SVGID_2_);fill:#F4A082;}
	.st10{clip-path:url(#SVGID_2_);fill:#F6AD92;}
	.st11{clip-path:url(#SVGID_2_);fill:#F8B9A1;}
	.st12{clip-path:url(#SVGID_2_);fill:#F9C6B1;}
	.st13{clip-path:url(#SVGID_2_);fill:#FBD2C1;}
	.st14{clip-path:url(#SVGID_2_);fill:#FCDED0;}
	.st15{clip-path:url(#SVGID_2_);fill:#FDE9E0;}
	.st16{clip-path:url(#SVGID_2_);fill:#FEF4F0;}
	.st17{clip-path:url(#SVGID_2_);fill:#FFFFFF;}
	.st18{clip-path:url(#SVGID_4_);fill:#E30613;}
	.st19{clip-path:url(#SVGID_4_);fill:#E5261D;}
	.st20{clip-path:url(#SVGID_4_);fill:#E73826;}
	.st21{clip-path:url(#SVGID_4_);fill:#E94930;}
	.st22{clip-path:url(#SVGID_4_);fill:#EB593D;}
	.st23{clip-path:url(#SVGID_4_);fill:#ED6849;}
	.st24{clip-path:url(#SVGID_4_);fill:#EF7657;}
	.st25{clip-path:url(#SVGID_4_);fill:#F08565;}
	.st26{clip-path:url(#SVGID_4_);fill:#F29274;}
	.st27{clip-path:url(#SVGID_4_);fill:#F4A082;}
	.st28{clip-path:url(#SVGID_4_);fill:#F6AD92;}
	.st29{clip-path:url(#SVGID_4_);fill:#F8B9A1;}
	.st30{clip-path:url(#SVGID_4_);fill:#F9C6B1;}
	.st31{clip-path:url(#SVGID_4_);fill:#FBD2C1;}
	.st32{clip-path:url(#SVGID_4_);fill:#FCDED0;}
	.st33{clip-path:url(#SVGID_4_);fill:#FDE9E0;}
	.st34{clip-path:url(#SVGID_4_);fill:#FEF4F0;}
	.st35{clip-path:url(#SVGID_4_);fill:#FFFFFF;}
	.st36{clip-path:url(#SVGID_6_);fill:#E30613;}
	.st37{clip-path:url(#SVGID_6_);fill:#E41818;}
	.st38{clip-path:url(#SVGID_6_);fill:#E5241B;}
	.st39{clip-path:url(#SVGID_6_);fill:#E52C1F;}
	.st40{clip-path:url(#SVGID_6_);fill:#E63423;}
	.st41{clip-path:url(#SVGID_6_);fill:#E73B28;}
	.st42{clip-path:url(#SVGID_6_);fill:#E8422C;}
	.st43{clip-path:url(#SVGID_6_);fill:#E94931;}
	.st44{clip-path:url(#SVGID_6_);fill:#EA5036;}
	.st45{clip-path:url(#SVGID_6_);fill:#EA573C;}
	.st46{clip-path:url(#SVGID_6_);fill:#EB5E41;}
	.st47{clip-path:url(#SVGID_6_);fill:#EC6547;}
	.st48{clip-path:url(#SVGID_6_);fill:#ED6B4C;}
	.st49{clip-path:url(#SVGID_6_);fill:#EE7252;}
	.st50{clip-path:url(#SVGID_6_);fill:#EF7858;}
	.st51{clip-path:url(#SVGID_6_);fill:#EF7E5E;}
	.st52{clip-path:url(#SVGID_6_);fill:#F08464;}
	.st53{clip-path:url(#SVGID_6_);fill:#F18A6B;}
	.st54{clip-path:url(#SVGID_6_);fill:#F29071;}
	.st55{clip-path:url(#SVGID_6_);fill:#F39678;}
	.st56{clip-path:url(#SVGID_6_);fill:#F49C7E;}
	.st57{clip-path:url(#SVGID_6_);fill:#F4A285;}
	.st58{clip-path:url(#SVGID_6_);fill:#F5A78B;}
	.st59{clip-path:url(#SVGID_6_);fill:#F6AD92;}
	.st60{clip-path:url(#SVGID_6_);fill:#F7B399;}
	.st61{clip-path:url(#SVGID_6_);fill:#F7B8A0;}
	.st62{clip-path:url(#SVGID_6_);fill:#F8BEA7;}
	.st63{clip-path:url(#SVGID_6_);fill:#F9C3AD;}
	.st64{clip-path:url(#SVGID_6_);fill:#FAC8B4;}
	.st65{clip-path:url(#SVGID_6_);fill:#FACEBB;}
	.st66{clip-path:url(#SVGID_6_);fill:#FBD3C2;}
	.st67{clip-path:url(#SVGID_6_);fill:#FBD8C9;}
	.st68{clip-path:url(#SVGID_6_);fill:#FCDDD0;}
	.st69{clip-path:url(#SVGID_6_);fill:#FCE2D6;}
	.st70{clip-path:url(#SVGID_6_);fill:#FDE7DD;}
	.st71{clip-path:url(#SVGID_6_);fill:#FDECE4;}
	.st72{clip-path:url(#SVGID_6_);fill:#FEF1EB;}
	.st73{clip-path:url(#SVGID_6_);fill:#FEF6F2;}
	.st74{clip-path:url(#SVGID_6_);fill:#FFFAF9;}
	.st75{clip-path:url(#SVGID_6_);fill:#FFFFFF;}
	.st76{clip-path:url(#SVGID_8_);fill:#E30613;}
	.st77{clip-path:url(#SVGID_8_);fill:#E41717;}
	.st78{clip-path:url(#SVGID_8_);fill:#E5221B;}
	.st79{clip-path:url(#SVGID_8_);fill:#E52B1F;}
	.st80{clip-path:url(#SVGID_8_);fill:#E63222;}
	.st81{clip-path:url(#SVGID_8_);fill:#E73826;}
	.st82{clip-path:url(#SVGID_8_);fill:#E73F2A;}
	.st83{clip-path:url(#SVGID_8_);fill:#E8462F;}
	.st84{clip-path:url(#SVGID_8_);fill:#E94C33;}
	.st85{clip-path:url(#SVGID_8_);fill:#EA5338;}
	.st86{clip-path:url(#SVGID_8_);fill:#EB593D;}
	.st87{clip-path:url(#SVGID_8_);fill:#EC6042;}
	.st88{clip-path:url(#SVGID_8_);fill:#EC6648;}
	.st89{clip-path:url(#SVGID_8_);fill:#ED6B4D;}
	.st90{clip-path:url(#SVGID_8_);fill:#EE7252;}
	.st91{clip-path:url(#SVGID_8_);fill:#EF7758;}
	.st92{clip-path:url(#SVGID_8_);fill:#EF7D5D;}
	.st93{clip-path:url(#SVGID_8_);fill:#F08363;}
	.st94{clip-path:url(#SVGID_8_);fill:#F18869;}
	.st95{clip-path:url(#SVGID_8_);fill:#F28E6F;}
	.st96{clip-path:url(#SVGID_8_);fill:#F29375;}
	.st97{clip-path:url(#SVGID_8_);fill:#F3997B;}
	.st98{clip-path:url(#SVGID_8_);fill:#F49E81;}
	.st99{clip-path:url(#SVGID_8_);fill:#F5A487;}
	.st100{clip-path:url(#SVGID_8_);fill:#F5A98D;}
	.st101{clip-path:url(#SVGID_8_);fill:#F6AE94;}
	.st102{clip-path:url(#SVGID_8_);fill:#F7B39A;}
	.st103{clip-path:url(#SVGID_8_);fill:#F7B9A0;}
	.st104{clip-path:url(#SVGID_8_);fill:#F8BEA7;}
	.st105{clip-path:url(#SVGID_8_);fill:#F9C3AD;}
	.st106{clip-path:url(#SVGID_8_);fill:#FAC8B3;}
	.st107{clip-path:url(#SVGID_8_);fill:#FACCB9;}
	.st108{clip-path:url(#SVGID_8_);fill:#FBD1C0;}
	.st109{clip-path:url(#SVGID_8_);fill:#FBD6C6;}
	.st110{clip-path:url(#SVGID_8_);fill:#FCDBCD;}
	.st111{clip-path:url(#SVGID_8_);fill:#FCE0D3;}
	.st112{clip-path:url(#SVGID_8_);fill:#FDE4D9;}
	.st113{clip-path:url(#SVGID_8_);fill:#FDE9E0;}
	.st114{clip-path:url(#SVGID_8_);fill:#FEEDE6;}
	.st115{clip-path:url(#SVGID_8_);fill:#FEF2EC;}
	.st116{clip-path:url(#SVGID_8_);fill:#FFF6F3;}
	.st117{clip-path:url(#SVGID_8_);fill:#FFFBF9;}
	.st118{clip-path:url(#SVGID_8_);fill:#FFFFFF;}
	.st119{clip-path:url(#SVGID_10_);fill:#E30613;}
	.st120{clip-path:url(#SVGID_10_);fill:#E41918;}
	.st121{clip-path:url(#SVGID_10_);fill:#E5251C;}
	.st122{clip-path:url(#SVGID_10_);fill:#E62E20;}
	.st123{clip-path:url(#SVGID_10_);fill:#E63625;}
	.st124{clip-path:url(#SVGID_10_);fill:#E73E2A;}
	.st125{clip-path:url(#SVGID_10_);fill:#E8462F;}
	.st126{clip-path:url(#SVGID_10_);fill:#E94E34;}
	.st127{clip-path:url(#SVGID_10_);fill:#EA553A;}
	.st128{clip-path:url(#SVGID_10_);fill:#EB5D40;}
	.st129{clip-path:url(#SVGID_10_);fill:#EC6446;}
	.st130{clip-path:url(#SVGID_10_);fill:#ED6A4C;}
	.st131{clip-path:url(#SVGID_10_);fill:#EE7252;}
	.st132{clip-path:url(#SVGID_10_);fill:#EF7859;}
	.st133{clip-path:url(#SVGID_10_);fill:#F07F5F;}
	.st134{clip-path:url(#SVGID_10_);fill:#F18666;}
	.st135{clip-path:url(#SVGID_10_);fill:#F18C6D;}
	.st136{clip-path:url(#SVGID_10_);fill:#F29374;}
	.st137{clip-path:url(#SVGID_10_);fill:#F3997B;}
	.st138{clip-path:url(#SVGID_10_);fill:#F49F82;}
	.st139{clip-path:url(#SVGID_10_);fill:#F5A589;}
	.st140{clip-path:url(#SVGID_10_);fill:#F6AC90;}
	.st141{clip-path:url(#SVGID_10_);fill:#F7B298;}
	.st142{clip-path:url(#SVGID_10_);fill:#F7B89F;}
	.st143{clip-path:url(#SVGID_10_);fill:#F8BEA7;}
	.st144{clip-path:url(#SVGID_10_);fill:#F9C3AE;}
	.st145{clip-path:url(#SVGID_10_);fill:#FAC9B5;}
	.st146{clip-path:url(#SVGID_10_);fill:#FACFBD;}
	.st147{clip-path:url(#SVGID_10_);fill:#FBD5C4;}
	.st148{clip-path:url(#SVGID_10_);fill:#FCDACC;}
	.st149{clip-path:url(#SVGID_10_);fill:#FCE0D3;}
	.st150{clip-path:url(#SVGID_10_);fill:#FDE5DA;}
	.st151{clip-path:url(#SVGID_10_);fill:#FDEAE2;}
	.st152{clip-path:url(#SVGID_10_);fill:#FEEFE9;}
	.st153{clip-path:url(#SVGID_10_);fill:#FEF5F1;}
	.st154{clip-path:url(#SVGID_10_);fill:#FFFAF8;}
	.st155{clip-path:url(#SVGID_10_);fill:#FFFFFF;}
	.st156{fill:#E30613;}
	.st157{fill-rule:evenodd;clip-rule:evenodd;}
	.st158{fill-rule:evenodd;clip-rule:evenodd;fill:#E30613;}
</style>
<g>
	<g>
		<defs>
			<path id="SVGID_1_" d="M45.7,35c0.1,0.9-0.2,1.7-0.8,2.9c-0.5,1-1.3,1.7-2.1,2.7c-0.8,1-1.8,1.9-2.9,2.8
				c-1.1,0.8-2.1,1.7-3.4,2.2c-1.3,0.6-2.4,1.2-3.5,1.3c-1.1,0.1-2,0.1-2.8-0.2c-0.8-0.3-1.4-0.7-1.8-1.3c-0.4-0.6-0.6-1.4-0.6-2.3
				c0-0.9,0.3-1.8,0.8-2.8c0.5-1,1.1-1.9,1.9-2.8c0.8-0.9,1.7-1.8,2.7-2.6c1-0.8,2.1-1.5,3.3-2c1.2-0.6,2.3-0.9,3.3-1.1
				c1-0.2,2-0.2,2.8,0c0.8,0.2,1.6,0.5,2.1,1C45.1,33.4,45.6,34.1,45.7,35L45.7,35z M41.7,38.5c0-0.4-0.2-0.8-0.4-1
				c-0.2-0.3-0.6-0.5-1-0.6c-0.4-0.1-0.9-0.1-1.4,0c-0.5,0.1-1.1,0.2-1.6,0.5c-0.6,0.3-1.1,0.6-1.6,1c-0.5,0.4-0.9,0.8-1.3,1.3
				c-0.4,0.4-0.7,0.9-0.9,1.4c-0.2,0.5-0.3,0.9-0.3,1.4c0,0.4,0.1,0.8,0.3,1.1c0.2,0.3,0.5,0.5,0.9,0.6c0.4,0.1,0.8,0.1,1.4,0.1
				c0.5-0.1,1.1-0.2,1.7-0.5c0.6-0.3,1.2-0.6,1.7-1c0.5-0.4,1-0.8,1.4-1.3c0.4-0.5,0.7-1,0.9-1.4C41.6,39.4,41.7,38.9,41.7,38.5
				L41.7,38.5z"/>
		</defs>
		<clipPath id="SVGID_2_">
			<use xlink:href="#SVGID_1_"  style="overflow:visible;"/>
		</clipPath>
		<path class="st0" d="M57.7,31.7c0-10.1-8.2-18.3-18.3-18.3c-10.1,0-18.3,8.2-18.3,18.3S29.3,50,39.4,50
			C49.5,50,57.7,41.8,57.7,31.7 M56.5,31.7L56.5,31.7c0,9.5-7.7,17.2-17.2,17.2c-9.5,0-17.2-7.7-17.2-17.2c0-9.5,7.7-17.2,17.2-17.2
			C48.8,14.5,56.5,22.2,56.5,31.7"/>
		<path class="st1" d="M56.5,31.7c0-9.5-7.7-17.2-17.2-17.2c-9.5,0-17.2,7.7-17.2,17.2s7.7,17.2,17.2,17.2
			C48.8,48.9,56.5,41.2,56.5,31.7 M55.5,31.7L55.5,31.7c0,8.9-7.2,16.2-16.2,16.2s-16.2-7.3-16.2-16.2c0-8.9,7.2-16.2,16.2-16.2
			S55.5,22.8,55.5,31.7"/>
		<path class="st2" d="M55.5,31.7c0-8.9-7.2-16.2-16.2-16.2c-8.9,0-16.2,7.2-16.2,16.2c0,8.9,7.2,16.2,16.2,16.2
			C48.2,47.9,55.5,40.7,55.5,31.7 M54.4,31.7L54.4,31.7c0,8.4-6.8,15.1-15.1,15.1c-8.4,0-15.1-6.8-15.1-15.1
			c0-8.4,6.8-15.1,15.1-15.1C47.7,16.6,54.4,23.4,54.4,31.7"/>
		<path class="st3" d="M54.5,31.7c0-8.4-6.8-15.1-15.1-15.1c-8.4,0-15.1,6.8-15.1,15.1S31,46.9,39.4,46.9
			C47.7,46.9,54.5,40.1,54.5,31.7 M53.4,31.7L53.4,31.7c0,7.8-6.3,14.1-14.1,14.1c-7.8,0-14.1-6.3-14.1-14.1
			c0-7.8,6.3-14.1,14.1-14.1C47.1,17.6,53.4,23.9,53.4,31.7"/>
		<path class="st4" d="M53.4,31.7c0-7.8-6.3-14.1-14.1-14.1c-7.8,0-14.1,6.3-14.1,14.1s6.3,14.1,14.1,14.1
			C47.1,45.8,53.4,39.5,53.4,31.7 M52.3,31.7L52.3,31.7c0,7.2-5.8,13.1-13,13.1s-13-5.8-13-13.1c0-7.2,5.8-13.1,13-13.1
			S52.3,24.5,52.3,31.7"/>
		<path class="st5" d="M52.3,31.7c0-7.2-5.8-13.1-13-13.1s-13,5.8-13,13.1c0,7.2,5.8,13.1,13,13.1S52.3,38.9,52.3,31.7 M51.3,31.7
			L51.3,31.7c0,6.6-5.4,12-12,12c-6.6,0-12-5.4-12-12c0-6.6,5.4-12,12-12C45.9,19.7,51.3,25.1,51.3,31.7"/>
		<path class="st6" d="M51.4,31.7c0-6.6-5.4-12-12-12c-6.6,0-12,5.4-12,12s5.4,12,12,12C46,43.7,51.4,38.3,51.4,31.7 M50.3,31.7
			L50.3,31.7c0,6.1-4.9,11-11,11c-6,0-11-4.9-11-11c0-6.1,4.9-11,11-11C45.4,20.8,50.3,25.7,50.3,31.7"/>
		<path class="st7" d="M50.2,31.7c0-6.1-4.9-11-11-11c-6,0-11,4.9-11,11s4.9,11,11,11C45.3,42.7,50.2,37.8,50.2,31.7 M49.2,31.7
			L49.2,31.7c0,5.5-4.4,9.9-9.9,9.9c-5.5,0-9.9-4.4-9.9-9.9c0-5.5,4.4-9.9,9.9-9.9C44.8,21.8,49.2,26.3,49.2,31.7"/>
		<path class="st8" d="M49.2,31.7c0-5.5-4.4-9.9-9.9-9.9c-5.5,0-9.9,4.4-9.9,9.9c0,5.5,4.4,9.9,9.9,9.9
			C44.7,41.6,49.2,37.2,49.2,31.7 M48.2,31.7L48.2,31.7c0,4.9-4,8.9-8.9,8.9c-4.9,0-8.9-4-8.9-8.9c0-4.9,4-8.9,8.9-8.9
			C44.2,22.9,48.2,26.8,48.2,31.7"/>
		<path class="st9" d="M48.3,31.7c0-4.9-4-8.9-8.9-8.9c-4.9,0-8.9,4-8.9,8.9s4,8.9,8.9,8.9C44.3,40.6,48.3,36.6,48.3,31.7
			 M47.1,31.7L47.1,31.7c0,4.3-3.5,7.8-7.8,7.8c-4.3,0-7.8-3.5-7.8-7.8c0-4.3,3.5-7.8,7.8-7.8C43.6,23.9,47.1,27.4,47.1,31.7"/>
		<path class="st10" d="M47.1,31.7c0-4.3-3.5-7.8-7.8-7.8c-4.3,0-7.8,3.5-7.8,7.8s3.5,7.8,7.8,7.8C43.6,39.6,47.1,36,47.1,31.7
			 M46.1,31.7L46.1,31.7c0,3.7-3,6.8-6.8,6.8c-3.7,0-6.8-3-6.8-6.8c0-3.7,3-6.8,6.8-6.8C43,24.9,46.1,28,46.1,31.7"/>
		<path class="st11" d="M46.1,31.7c0-3.7-3-6.8-6.8-6.8c-3.7,0-6.8,3-6.8,6.8s3,6.8,6.8,6.8C43,38.5,46.1,35.5,46.1,31.7 M45,31.7
			L45,31.7c0,3.2-2.6,5.7-5.7,5.7c-3.2,0-5.7-2.6-5.7-5.7s2.6-5.7,5.7-5.7C42.5,26,45,28.6,45,31.7"/>
		<path class="st12" d="M45.1,31.7c0-3.2-2.6-5.7-5.7-5.7c-3.2,0-5.7,2.6-5.7,5.7s2.6,5.7,5.7,5.7C42.6,37.5,45.1,34.9,45.1,31.7
			 M44,31.7L44,31.7c0,2.6-2.1,4.7-4.7,4.7c-2.6,0-4.7-2.1-4.7-4.7c0-2.6,2.1-4.7,4.7-4.7C41.9,27,44,29.1,44,31.7"/>
		<path class="st13" d="M44,31.7c0-2.6-2.1-4.7-4.7-4.7c-2.6,0-4.7,2.1-4.7,4.7c0,2.6,2.1,4.7,4.7,4.7C41.9,36.4,44,34.3,44,31.7
			 M43,31.7L43,31.7c0,2-1.6,3.7-3.7,3.7c-2,0-3.7-1.6-3.7-3.7c0-2,1.6-3.7,3.7-3.7C41.3,28.1,43,29.7,43,31.7"/>
		<path class="st14" d="M42.9,31.7c0-2-1.6-3.7-3.7-3.7c-2,0-3.7,1.6-3.7,3.7s1.6,3.7,3.7,3.7C41.3,35.4,42.9,33.7,42.9,31.7
			 M41.9,31.7L41.9,31.7c0,1.4-1.2,2.6-2.6,2.6c-1.4,0-2.6-1.2-2.6-2.6c0-1.4,1.2-2.6,2.6-2.6C40.7,29.1,41.9,30.3,41.9,31.7"/>
		<path class="st15" d="M41.9,31.7c0-1.4-1.2-2.6-2.6-2.6c-1.4,0-2.6,1.2-2.6,2.6s1.2,2.6,2.6,2.6C40.7,34.3,41.9,33.2,41.9,31.7
			 M40.9,31.7L40.9,31.7c0,0.9-0.7,1.6-1.6,1.6c-0.9,0-1.6-0.7-1.6-1.6c0-0.9,0.7-1.6,1.6-1.6C40.2,30.2,40.9,30.9,40.9,31.7"/>
		<path class="st16" d="M40.8,31.8c0-0.9-0.7-1.6-1.6-1.6c-0.9,0-1.6,0.7-1.6,1.6c0,0.9,0.7,1.6,1.6,1.6
			C40.1,33.4,40.8,32.7,40.8,31.8 M39.8,31.7L39.8,31.7c0,0.3-0.2,0.5-0.5,0.5c-0.3,0-0.5-0.2-0.5-0.5c0-0.3,0.2-0.5,0.5-0.5
			C39.6,31.2,39.8,31.4,39.8,31.7"/>
		<path class="st17" d="M39.8,31.7c0-0.3-0.2-0.5-0.5-0.5c-0.3,0-0.5,0.2-0.5,0.5c0,0.3,0.2,0.5,0.5,0.5
			C39.6,32.2,39.8,32,39.8,31.7"/>
	</g>
	<g>
		<defs>
			<path id="SVGID_3_" d="M13.2,4.1c-3.3,2-5.2,3.1-7.6,6.1c-1,1.2-1.5,1.9-2.2,3.2c-0.3,0.7-0.7,1.8-0.7,1.8l-0.2,1.3l-0.3,1.7
				l-0.1,1.5l0,0.5c0-0.1,0-0.3,0-0.4c0-0.1,0-0.3,0.1-0.4c0-0.1,0-0.3,0.1-0.4c0-0.1,0.1-0.3,0.1-0.4c0.4-1.5,1.1-3.1,2.1-4.9
				c1.2-2,2.1-3,3.7-4.5c1.6-1.6,2.7-2.7,4.6-4.2c1.2-0.9,4.1-2.7,5.8-2.9C19.2,2,17,2.1,16.1,2.5C15,3.1,14.3,3.4,13.2,4.1
				L13.2,4.1z"/>
		</defs>
		<clipPath id="SVGID_4_">
			<use xlink:href="#SVGID_3_"  style="overflow:visible;"/>
		</clipPath>
		<rect x="2.1" y="2.1" class="st18" width="16.6" height="1"/>
		<rect x="2.1" y="3.1" class="st19" width="16.6" height="1"/>
		<rect x="2.1" y="4.1" class="st20" width="16.6" height="1"/>
		<rect x="2.1" y="5.1" class="st21" width="16.6" height="1"/>
		<rect x="2.1" y="6.1" class="st22" width="16.6" height="1"/>
		<rect x="2.1" y="7.1" class="st23" width="16.6" height="1"/>
		<rect x="2.1" y="8.2" class="st24" width="16.6" height="1"/>
		<rect x="2.1" y="9.2" class="st25" width="16.6" height="1"/>
		<rect x="2.1" y="10.2" class="st26" width="16.6" height="1"/>
		<rect x="2.1" y="11.2" class="st27" width="16.6" height="1"/>
		<rect x="2.1" y="12.2" class="st28" width="16.6" height="1"/>
		<rect x="2.1" y="13.2" class="st29" width="16.6" height="1"/>
		<rect x="2.1" y="14.2" class="st30" width="16.6" height="1"/>
		<rect x="2.1" y="15.2" class="st31" width="16.6" height="1"/>
		<rect x="2.1" y="16.2" class="st32" width="16.6" height="1"/>
		<rect x="2.1" y="17.3" class="st33" width="16.6" height="1"/>
		<rect x="2.1" y="18.3" class="st34" width="16.6" height="1"/>
		<rect x="2.1" y="19.3" class="st35" width="16.6" height="1"/>
	</g>
	<g>
		<defs>
			<path id="SVGID_5_" d="M37.1,5.4l-1.2-1.3L34.5,3l-0.7-0.5l-1.5-0.6c-0.8-0.3-1.8-0.6-2.9-0.8c-1-0.1-2.7-0.4-4-0.1
				c-1.3,0.3-2.1,0.6-3.6,1.2c-1.4,0.6-2.9,1.4-4.5,2.3c-2.1,1.3-4.2,2.9-6.1,4.5c-1.9,1.7-3.6,3.4-5.1,5.3
				c-1.5,1.8-2.8,3.7-3.8,5.6c-1,1.9-1.4,3.7-1.7,5.5c-0.1,0.3,0,0.7,0,1c0,0.3,0.3,2.3,0.6,3.7c0.1,0.6,0.2,1,0.4,1.6
				c0.2,0.7,0.7,1.7,0.7,1.7l0.3,0.4l0.6,0.9C3,34.4,2.9,34,2.7,33.6c-0.1-0.4-0.2-0.8-0.3-1.2c-0.1-0.4-0.1-0.9-0.1-1.4
				c0-0.5,0-1,0.1-1.5c0.3-1.8,1-3.8,2-5.8c1-2,2.4-4,4-5.9c1.6-1.9,3.4-3.8,5.4-5.5c2-1.7,4.1-3.3,6.4-4.7c1.8-1.1,3.6-2,5.3-2.6
				c1.7-0.7,3.3-1.1,4.8-1.3c1.5-0.2,2.8-0.1,4,0.1C35.4,4.1,36.4,4.6,37.1,5.4"/>
		</defs>
		<clipPath id="SVGID_6_">
			<use xlink:href="#SVGID_5_"  style="overflow:visible;"/>
		</clipPath>
		<path class="st36" d="M66.8,1.1c0-22.6-18.3-41-40.9-41s-40.9,18.3-40.9,41c0,22.6,18.3,41,40.9,41S66.8,23.7,66.8,1.1 M65.6,1.1
			L65.6,1.1c0,22-17.9,39.9-39.9,39.9S-14.1,23.1-14.1,1.1c0-22,17.9-39.9,39.9-39.9S65.6-20.9,65.6,1.1"/>
		<path class="st37" d="M65.6,1.1c0-22-17.9-39.9-39.9-39.9S-14.2-20.9-14.2,1.1c0,22,17.9,39.9,39.9,39.9S65.6,23.2,65.6,1.1
			 M64.6,1.1L64.6,1.1C64.6,22.6,47.2,40,25.7,40S-13.1,22.6-13.1,1.1c0-21.5,17.4-38.9,38.9-38.9S64.6-20.4,64.6,1.1"/>
		<path class="st38" d="M64.6,1c0-21.5-17.4-38.9-38.9-38.9S-13.1-20.5-13.1,1c0,21.5,17.4,38.9,38.9,38.9S64.6,22.5,64.6,1
			 M63.6,1.1L63.6,1.1c0,20.9-16.9,37.8-37.8,37.8c-20.9,0-37.8-17-37.8-37.8c0-20.9,16.9-37.8,37.8-37.8
			C46.6-36.7,63.6-19.8,63.6,1.1"/>
		<path class="st39" d="M63.7,1.1c0-20.9-16.9-37.8-37.8-37.8S-12-19.8-12,1.1C-12,22,5,39,25.8,39S63.7,22,63.7,1.1 M62.5,1.1
			L62.5,1.1c0,20.3-16.5,36.8-36.8,36.8S-11,21.4-11,1.1S5.4-35.7,25.7-35.7S62.5-19.2,62.5,1.1"/>
		<path class="st40" d="M62.5,1.1c0-20.3-16.5-36.8-36.8-36.8S-11.1-19.2-11.1,1.1c0,20.3,16.5,36.8,36.8,36.8S62.5,21.4,62.5,1.1
			 M61.5,1.1L61.5,1.1c0,19.7-16,35.8-35.7,35.8S-10,20.8-10,1.1S6-34.7,25.7-34.7S61.5-18.6,61.5,1.1"/>
		<path class="st41" d="M61.5,1c0-19.7-16-35.8-35.7-35.8S-10-18.7-10,1c0,19.7,16,35.8,35.7,35.8S61.5,20.7,61.5,1 M60.5,1.1
			L60.5,1.1c0,19.2-15.6,34.7-34.7,34.7C6.6,35.8-9,20.3-9,1.1S6.6-33.6,25.7-33.6C44.9-33.6,60.5-18.1,60.5,1.1"/>
		<path class="st42" d="M60.4,1.1c0-19.2-15.6-34.7-34.7-34.7S-9-18.1-9,1.1S6.6,35.9,25.7,35.9S60.4,20.3,60.4,1.1 M59.4,1.1
			L59.4,1.1c0,18.6-15.1,33.7-33.7,33.7C7.2,34.8-7.9,19.7-7.9,1.1S7.2-32.6,25.7-32.6C44.3-32.6,59.4-17.5,59.4,1.1"/>
		<path class="st43" d="M59.4,1.1c0-18.6-15.1-33.7-33.7-33.7C7.1-32.6-8-17.5-8,1.1S7.1,34.8,25.7,34.8
			C44.3,34.8,59.4,19.7,59.4,1.1 M58.4,1.1L58.4,1.1c0,18-14.6,32.7-32.6,32.7S-6.9,19.1-6.9,1.1S7.7-31.6,25.7-31.6
			S58.4-16.9,58.4,1.1"/>
		<path class="st44" d="M58.4,1.1c0-18-14.6-32.7-32.6-32.7S-6.9-16.9-6.9,1.1S7.7,33.8,25.7,33.8S58.4,19.1,58.4,1.1 M57.4,1.1
			L57.4,1.1c0,17.5-14.2,31.6-31.6,31.6S-5.9,18.6-5.9,1.1S8.3-30.5,25.7-30.5S57.4-16.4,57.4,1.1"/>
		<path class="st45" d="M57.3,1.1c0-17.5-14.2-31.6-31.6-31.6S-5.9-16.3-5.9,1.1S8.3,32.7,25.7,32.7S57.3,18.6,57.3,1.1 M56.3,1.1
			L56.3,1.1c0,16.9-13.7,30.6-30.6,30.6S-4.8,18-4.8,1.1S8.9-29.5,25.7-29.5S56.3-15.8,56.3,1.1"/>
		<path class="st46" d="M56.4,1.1c0-16.9-13.7-30.6-30.6-30.6S-4.7-15.8-4.7,1.1C-4.7,18,9,31.7,25.8,31.7S56.4,18,56.4,1.1
			 M55.3,1.1L55.3,1.1c0,16.3-13.2,29.5-29.5,29.5C9.4,30.7-3.8,17.4-3.8,1.1S9.4-28.4,25.7-28.4C42.1-28.4,55.3-15.2,55.3,1.1"/>
		<path class="st47" d="M55.2,1.1c0-16.3-13.2-29.5-29.5-29.5C9.4-28.4-3.8-15.2-3.8,1.1c0,16.3,13.2,29.5,29.5,29.5
			C42,30.7,55.2,17.4,55.2,1.1 M54.2,1.1L54.2,1.1c0,15.7-12.8,28.5-28.5,28.5S-2.7,16.8-2.7,1.1c0-15.7,12.8-28.5,28.5-28.5
			S54.2-14.6,54.2,1.1"/>
		<path class="st48" d="M54.2,1.1c0-15.7-12.8-28.5-28.5-28.5S-2.8-14.6-2.8,1.1c0,15.7,12.8,28.5,28.5,28.5S54.2,16.9,54.2,1.1
			 M53.2,1.1L53.2,1.1c0,15.2-12.3,27.5-27.5,27.5S-1.7,16.3-1.7,1.1s12.3-27.5,27.5-27.5S53.2-14.1,53.2,1.1"/>
		<path class="st49" d="M53.3,1.1C53.3-14,41-26.4,25.8-26.4C10.7-26.4-1.6-14-1.6,1.1c0,15.2,12.3,27.5,27.5,27.5
			C41,28.6,53.3,16.3,53.3,1.1 M52.2,1.1L52.2,1.1c0,14.6-11.8,26.4-26.4,26.4C11.2,27.5-0.7,15.7-0.7,1.1
			c0-14.6,11.8-26.4,26.4-26.4C40.3-25.3,52.2-13.5,52.2,1.1"/>
		<path class="st50" d="M52.1,1.1c0-14.6-11.8-26.4-26.4-26.4C11.1-25.3-0.7-13.5-0.7,1.1c0,14.6,11.8,26.4,26.4,26.4
			C40.3,27.6,52.1,15.7,52.1,1.1 M51.1,1.1L51.1,1.1c0,14-11.4,25.4-25.4,25.4S0.4,15.1,0.4,1.1s11.4-25.4,25.4-25.4
			S51.1-12.9,51.1,1.1"/>
		<path class="st51" d="M51.1,1.1c0-14-11.4-25.4-25.4-25.4S0.3-12.9,0.3,1.1c0,14,11.4,25.4,25.4,25.4S51.1,15.1,51.1,1.1
			 M50.1,1.1L50.1,1.1c0,13.4-10.9,24.4-24.4,24.4C12.3,25.5,1.4,14.6,1.4,1.1s10.9-24.4,24.4-24.4C39.2-23.3,50.1-12.3,50.1,1.1"/>
		<path class="st52" d="M50.2,1.1c0-13.4-10.9-24.4-24.4-24.4C12.4-23.2,1.5-12.3,1.5,1.1c0,13.4,10.9,24.4,24.4,24.4
			C39.3,25.5,50.2,14.6,50.2,1.1 M49.1,1.1L49.1,1.1c0,12.9-10.4,23.3-23.3,23.3S2.4,14,2.4,1.1c0-12.9,10.4-23.3,23.3-23.3
			S49.1-11.8,49.1,1.1"/>
		<path class="st53" d="M49,1.1c0-12.9-10.4-23.3-23.3-23.3S2.4-11.8,2.4,1.1s10.4,23.3,23.3,23.3S49,14,49,1.1 M48,1.1L48,1.1
			c0,12.3-10,22.3-22.3,22.3c-12.3,0-22.3-10-22.3-22.3s10-22.3,22.3-22.3C38-21.2,48-11.2,48,1.1"/>
		<path class="st54" d="M48,1.1c0-12.3-10-22.3-22.3-22.3c-12.3,0-22.3,10-22.3,22.3s10,22.3,22.3,22.3C38,23.4,48,13.4,48,1.1
			 M47,1.1L47,1.1c0,11.7-9.5,21.3-21.2,21.3S4.5,12.8,4.5,1.1S14-20.2,25.7-20.2S47-10.6,47,1.1"/>
		<path class="st55" d="M47.1,1.1c0-11.7-9.5-21.3-21.2-21.3S4.6-10.6,4.6,1.1s9.5,21.3,21.2,21.3S47.1,12.9,47.1,1.1 M46,1.1
			L46,1.1c0,11.2-9.1,20.2-20.2,20.2S5.5,12.3,5.5,1.1c0-11.2,9.1-20.2,20.2-20.2S46-10.1,46,1.1"/>
		<path class="st56" d="M45.9,1.1c0-11.2-9.1-20.2-20.2-20.2S5.5-10,5.5,1.1c0,11.2,9.1,20.2,20.2,20.2S45.9,12.3,45.9,1.1
			 M44.9,1.1L44.9,1.1c0,10.6-8.6,19.2-19.2,19.2c-10.6,0-19.2-8.6-19.2-19.2s8.6-19.2,19.2-19.2C36.3-18.1,44.9-9.5,44.9,1.1"/>
		<path class="st57" d="M44.9,1.1c0-10.6-8.6-19.2-19.2-19.2C15.1-18.1,6.5-9.5,6.5,1.1c0,10.6,8.6,19.2,19.2,19.2
			C36.3,20.3,44.9,11.7,44.9,1.1 M43.9,1.1L43.9,1.1c0,10-8.1,18.1-18.1,18.1S7.6,11.1,7.6,1.1S15.7-17,25.7-17S43.9-8.9,43.9,1.1"
			/>
		<path class="st58" d="M44,1.1C44-8.9,35.8-17,25.8-17C15.8-17,7.7-8.9,7.7,1.1c0,10,8.1,18.1,18.1,18.1C35.8,19.3,44,11.1,44,1.1
			 M42.8,1.1L42.8,1.1c0,9.4-7.7,17.1-17.1,17.1c-9.4,0-17.1-7.7-17.1-17.1C8.7-8.3,16.3-16,25.7-16C35.2-16,42.8-8.3,42.8,1.1"/>
		<path class="st59" d="M42.8,1.1c0-9.4-7.7-17.1-17.1-17.1C16.3-16,8.6-8.3,8.6,1.1c0,9.4,7.7,17.1,17.1,17.1
			C35.2,18.2,42.8,10.6,42.8,1.1 M41.8,1.1L41.8,1.1c0,8.9-7.2,16.1-16.1,16.1S9.7,10,9.7,1.1S16.9-15,25.7-15S41.8-7.8,41.8,1.1"/>
		<path class="st60" d="M41.8,1c0-8.9-7.2-16.1-16.1-16.1S9.7-7.9,9.7,1c0,8.9,7.2,16.1,16.1,16.1S41.8,9.9,41.8,1 M40.8,1.1
			L40.8,1.1c0,8.3-6.7,15-15,15c-8.3,0-15-6.7-15-15c0-8.3,6.7-15,15-15C34-13.9,40.8-7.2,40.8,1.1"/>
		<path class="st61" d="M40.9,1.1c0-8.3-6.7-15-15-15c-8.3,0-15,6.7-15,15c0,8.3,6.7,15,15,15C34.1,16.2,40.9,9.4,40.9,1.1
			 M39.7,1.1L39.7,1.1c0,7.7-6.3,14-14,14s-14-6.3-14-14s6.3-14,14-14S39.7-6.6,39.7,1.1"/>
		<path class="st62" d="M39.7,1.1c0-7.7-6.3-14-14-14s-14,6.3-14,14c0,7.7,6.3,14,14,14S39.7,8.8,39.7,1.1 M38.7,1.1L38.7,1.1
			c0,7.2-5.8,13-13,13s-13-5.8-13-13c0-7.2,5.8-13,13-13S38.7-6,38.7,1.1"/>
		<path class="st63" d="M38.7,1c0-7.2-5.8-13-13-13s-13,5.8-13,13c0,7.2,5.8,13,13,13S38.7,8.2,38.7,1 M37.7,1.1L37.7,1.1
			c0,6.6-5.3,11.9-11.9,11.9S13.8,7.7,13.8,1.1c0-6.6,5.3-11.9,11.9-11.9S37.7-5.5,37.7,1.1"/>
		<path class="st64" d="M37.6,1.1c0-6.6-5.3-11.9-11.9-11.9c-6.6,0-11.9,5.3-11.9,11.9S19.1,13,25.7,13C32.3,13,37.6,7.7,37.6,1.1
			 M36.6,1.1L36.6,1.1c0,6-4.9,10.9-10.9,10.9c-6,0-10.9-4.9-10.9-10.9S19.7-9.8,25.7-9.8C31.8-9.8,36.6-4.9,36.6,1.1"/>
		<path class="st65" d="M36.6,1.1c0-6-4.9-10.9-10.9-10.9c-6,0-10.9,4.9-10.9,10.9c0,6,4.9,10.9,10.9,10.9
			C31.7,12,36.6,7.1,36.6,1.1 M35.6,1.1L35.6,1.1c0,5.4-4.4,9.8-9.8,9.8c-5.4,0-9.8-4.4-9.8-9.8s4.4-9.8,9.8-9.8
			C31.2-8.7,35.6-4.3,35.6,1.1"/>
		<path class="st66" d="M35.6,1c0-5.4-4.4-9.8-9.8-9.8c-5.4,0-9.8,4.4-9.8,9.8c0,5.4,4.4,9.8,9.8,9.8C31.2,10.9,35.6,6.4,35.6,1
			 M34.6,1.1L34.6,1.1c0,4.9-3.9,8.8-8.8,8.8c-4.9,0-8.8-3.9-8.8-8.8c0-4.9,3.9-8.8,8.8-8.8C30.6-7.7,34.6-3.8,34.6,1.1"/>
		<path class="st67" d="M34.5,1.1c0-4.9-3.9-8.8-8.8-8.8s-8.8,3.9-8.8,8.8c0,4.9,3.9,8.8,8.8,8.8S34.5,6,34.5,1.1 M33.5,1.1
			L33.5,1.1c0,4.3-3.5,7.8-7.8,7.8c-4.3,0-7.8-3.5-7.8-7.8s3.5-7.8,7.8-7.8C30-6.7,33.5-3.2,33.5,1.1"/>
		<path class="st68" d="M33.6,1.1c0-4.3-3.5-7.8-7.8-7.8c-4.3,0-7.8,3.5-7.8,7.8c0,4.3,3.5,7.8,7.8,7.8C30.1,8.9,33.6,5.4,33.6,1.1
			 M32.5,1.1L32.5,1.1c0,3.7-3,6.7-6.7,6.7c-3.7,0-6.7-3-6.7-6.7c0-3.7,3-6.7,6.7-6.7C29.5-5.6,32.5-2.6,32.5,1.1"/>
		<path class="st69" d="M32.5,1.1c0-3.7-3-6.7-6.7-6.7S19-2.6,19,1.1c0,3.7,3,6.7,6.7,6.7S32.5,4.8,32.5,1.1 M31.4,1.1L31.4,1.1
			c0,3.1-2.6,5.7-5.7,5.7S20,4.3,20,1.1c0-3.1,2.6-5.7,5.7-5.7S31.4-2,31.4,1.1"/>
		<path class="st70" d="M31.4,1.1c0-3.1-2.6-5.7-5.7-5.7S20-2,20,1.1c0,3.1,2.6,5.7,5.7,5.7S31.4,4.3,31.4,1.1 M30.4,1.1L30.4,1.1
			c0,2.6-2.1,4.7-4.7,4.7c-2.6,0-4.7-2.1-4.7-4.7c0-2.6,2.1-4.7,4.7-4.7C28.3-3.6,30.4-1.5,30.4,1.1"/>
		<path class="st71" d="M30.5,1.1c0-2.6-2.1-4.7-4.7-4.7c-2.6,0-4.7,2.1-4.7,4.7c0,2.6,2.1,4.7,4.7,4.7C28.4,5.8,30.5,3.7,30.5,1.1
			 M29.4,1.1L29.4,1.1c0,2-1.6,3.6-3.6,3.6c-2,0-3.6-1.6-3.6-3.6s1.6-3.6,3.6-3.6C27.8-2.5,29.4-0.9,29.4,1.1"/>
		<path class="st72" d="M29.3,1.1c0-2-1.6-3.6-3.6-3.6c-2,0-3.6,1.6-3.6,3.6c0,2,1.6,3.6,3.6,3.6C27.7,4.8,29.3,3.1,29.3,1.1
			 M28.3,1.1L28.3,1.1c0,1.4-1.2,2.6-2.6,2.6c-1.4,0-2.6-1.2-2.6-2.6s1.2-2.6,2.6-2.6C27.2-1.5,28.3-0.3,28.3,1.1"/>
		<path class="st73" d="M28.3,1.1c0-1.4-1.2-2.6-2.6-2.6c-1.4,0-2.6,1.2-2.6,2.6c0,1.4,1.2,2.6,2.6,2.6C27.1,3.7,28.3,2.6,28.3,1.1
			 M27.3,1.1L27.3,1.1c0,0.9-0.7,1.6-1.6,1.6S24.2,2,24.2,1.1s0.7-1.6,1.6-1.6S27.3,0.2,27.3,1.1"/>
		<path class="st74" d="M27.4,1.1c0-0.9-0.7-1.6-1.6-1.6s-1.6,0.7-1.6,1.6s0.7,1.6,1.6,1.6S27.4,2,27.4,1.1 M26.3,1.1L26.3,1.1
			c0,0.3-0.2,0.5-0.5,0.5s-0.5-0.2-0.5-0.5s0.2-0.5,0.5-0.5S26.3,0.8,26.3,1.1"/>
		<path class="st75" d="M26.2,1.1c0-0.3-0.2-0.5-0.5-0.5s-0.5,0.2-0.5,0.5s0.2,0.5,0.5,0.5S26.2,1.4,26.2,1.1"/>
	</g>
	<g>
		<defs>
			<path id="SVGID_7_" d="M45.2,15.4l-2.1-5.4l-0.5-1.2c-0.7-1.2-1.9-2-3.2-2.5C38,5.8,35.7,5.8,33.9,6c-1.7,0.2-3.6,0.7-5.6,1.5
				c-2,0.8-4.1,1.9-6.2,3.3c-2.4,1.5-4.6,3.3-6.6,5.2c-2,1.9-3.8,4-5.4,6.1c-1.6,2.1-2.9,4.3-3.8,6.4c-1,2.2-1.5,4.3-1.7,6.2
				c0,0.7,0,1.4,0.1,2.1C4.8,37.4,5,38,5.2,38.5C5.4,39,5.7,39.5,6,40c0.4,0.4,0.8,0.8,1.2,1.1l1.6,1l1.5,0.8l1.7,0.8l1.5,0.5
				c-0.7-0.2-1.4-0.6-2-1c-0.6-0.4-1-0.9-1.4-1.5c-0.4-0.6-0.7-1.3-0.8-2c-0.2-0.7-0.3-1.6-0.2-2.5c0.1-1.8,0.6-3.8,1.4-5.9
				c0.8-2,2-4,3.5-6c1.4-2,3.1-3.9,5-5.7c1.9-1.8,4-3.4,6.2-4.9c2.2-1.4,4.4-2.5,6.4-3.2c2.1-0.7,4.8-1.2,6.5-1.2
				c1.8,0,3.3,0.4,4.5,1.2c1.2,0.8,1.5,2.2,1.9,3.8L45.2,15.4L45.2,15.4z"/>
		</defs>
		<clipPath id="SVGID_8_">
			<use xlink:href="#SVGID_7_"  style="overflow:visible;"/>
		</clipPath>
		<path class="st76" d="M76.2,6c0-24.1-19.6-43.7-43.7-43.7C8.5-37.6-11.1-18.1-11.1,6c0,24.1,19.6,43.7,43.7,43.7
			C56.7,49.7,76.2,30.2,76.2,6 M75.2,6.2L75.2,6.2c0,23.5-19.1,42.7-42.6,42.7C9,48.8-10.1,29.7-10.1,6.2
			c0-23.5,19.1-42.7,42.6-42.7C56.1-36.5,75.2-17.4,75.2,6.2"/>
		<path class="st77" d="M75.2,6.2c0-23.5-19.1-42.7-42.6-42.7C9-36.5-10.1-17.4-10.1,6.2c0,23.5,19.1,42.7,42.6,42.7
			C56.1,48.8,75.2,29.7,75.2,6.2 M74.1,6.2L74.1,6.2c0,23-18.6,41.6-41.6,41.6S-9.1,29.1-9.1,6.2c0-23,18.6-41.6,41.6-41.6
			S74.1-16.8,74.1,6.2"/>
		<path class="st78" d="M74.2,6.2c0-23-18.6-41.6-41.6-41.6S-9-16.8-9,6.2c0,23,18.6,41.6,41.6,41.6S74.2,29.1,74.2,6.2 M73.1,6.2
			L73.1,6.2c0,22.4-18.2,40.6-40.6,40.6S-8,28.6-8,6.2c0-22.4,18.2-40.6,40.6-40.6S73.1-16.2,73.1,6.2"/>
		<path class="st79" d="M73.1,6.2c0-22.4-18.2-40.6-40.6-40.6S-8-16.2-8,6.2c0,22.4,18.2,40.6,40.6,40.6S73.1,28.6,73.1,6.2
			 M72.1,6.2L72.1,6.2c0,21.8-17.7,39.6-39.5,39.6S-7,28-7,6.2c0-21.8,17.7-39.6,39.5-39.6S72.1-15.7,72.1,6.2"/>
		<path class="st80" d="M72.1,6.2c0-21.8-17.7-39.6-39.5-39.6S-7-15.7-7,6.2C-7,28,10.7,45.7,32.6,45.7S72.1,28,72.1,6.2 M71.1,6.2
			L71.1,6.2c0,21.3-17.3,38.5-38.5,38.5C11.3,44.7-6,27.4-6,6.2c0-21.3,17.3-38.5,38.5-38.5C53.8-32.4,71.1-15.1,71.1,6.2"/>
		<path class="st81" d="M71.1,6.2c0-21.3-17.3-38.5-38.5-38.5C11.3-32.4-6-15.1-6,6.2c0,21.3,17.3,38.5,38.5,38.5
			C53.8,44.7,71.1,27.4,71.1,6.2 M70,6.2L70,6.2c0,20.7-16.8,37.5-37.5,37.5C11.9,43.7-4.9,26.9-4.9,6.2c0-20.7,16.8-37.5,37.5-37.5
			C53.2-31.4,70-14.5,70,6.2"/>
		<path class="st82" d="M70,6.2c0-20.7-16.8-37.5-37.5-37.5C11.9-31.4-4.9-14.5-4.9,6.2c0,20.7,16.8,37.5,37.5,37.5
			C53.3,43.7,70,26.9,70,6.2 M69,6.2L69,6.2c0,20.1-16.3,36.5-36.5,36.5C12.4,42.6-3.9,26.3-3.9,6.2c0-20.1,16.3-36.5,36.5-36.5
			C52.7-30.3,69-14,69,6.2"/>
		<path class="st83" d="M69,6.2C69-14,52.7-30.3,32.6-30.3C12.4-30.3-3.9-14-3.9,6.2c0,20.1,16.3,36.5,36.5,36.5
			C52.7,42.6,69,26.3,69,6.2 M68,6.2L68,6.2c0,19.6-15.9,35.5-35.4,35.5C13,41.6-2.9,25.7-2.9,6.2S13-29.3,32.5-29.3
			C52.1-29.3,68-13.4,68,6.2"/>
		<path class="st84" d="M68,6.2c0-19.6-15.9-35.5-35.4-35.5C13-29.3-2.9-13.4-2.9,6.2c0,19.6,15.9,35.5,35.4,35.5
			C52.1,41.6,68,25.7,68,6.2 M67,6.2L67,6.2c0,19-15.4,34.4-34.4,34.4c-19,0-34.4-15.4-34.4-34.4c0-19,15.4-34.4,34.4-34.4
			C51.5-28.3,67-12.8,67,6.2"/>
		<path class="st85" d="M67,6.2c0-19-15.4-34.4-34.4-34.4c-19,0-34.4,15.4-34.4,34.4c0,19,15.4,34.4,34.4,34.4
			C51.6,40.6,67,25.2,67,6.2 M65.9,6.2L65.9,6.2c0,18.4-15,33.4-33.4,33.4c-18.4,0-33.4-15-33.4-33.4c0-18.4,15-33.4,33.4-33.4
			C51-27.2,65.9-12.3,65.9,6.2"/>
		<path class="st86" d="M65.9,6.2c0-18.4-15-33.4-33.4-33.4c-18.4,0-33.4,15-33.4,33.4c0,18.4,15,33.4,33.4,33.4
			C51,39.6,65.9,24.6,65.9,6.2 M64.9,6.2L64.9,6.2c0,17.9-14.5,32.4-32.4,32.4C14.7,38.5,0.2,24,0.2,6.2c0-17.9,14.5-32.4,32.4-32.4
			C50.4-26.2,64.9-11.7,64.9,6.2"/>
		<path class="st87" d="M64.9,6.2c0-17.9-14.5-32.4-32.4-32.4C14.7-26.2,0.2-11.7,0.2,6.2c0,17.9,14.5,32.4,32.4,32.4
			C50.4,38.5,64.9,24,64.9,6.2 M63.9,6.2L63.9,6.2c0,17.3-14,31.3-31.3,31.3c-17.3,0-31.3-14-31.3-31.3c0-17.3,14-31.3,31.3-31.3
			C49.8-25.2,63.9-11.1,63.9,6.2"/>
		<path class="st88" d="M63.9,6.2c0-17.3-14-31.3-31.3-31.3c-17.3,0-31.3,14-31.3,31.3c0,17.3,14,31.3,31.3,31.3
			C49.9,37.5,63.9,23.5,63.9,6.2 M62.8,6.2L62.8,6.2c0,16.7-13.6,30.3-30.3,30.3C15.8,36.5,2.2,22.9,2.2,6.2
			c0-16.7,13.6-30.3,30.3-30.3C49.3-24.2,62.8-10.6,62.8,6.2"/>
		<path class="st89" d="M62.9,6.2c0-16.7-13.6-30.3-30.3-30.3C15.8-24.2,2.3-10.6,2.3,6.2c0,16.7,13.6,30.3,30.3,30.3
			C49.3,36.5,62.9,22.9,62.9,6.2 M61.8,6.2L61.8,6.2c0,16.2-13.1,29.3-29.3,29.3C16.4,35.5,3.3,22.3,3.3,6.2
			c0-16.2,13.1-29.3,29.3-29.3C48.7-23.1,61.8-10,61.8,6.2"/>
		<path class="st90" d="M61.7,6.2c0-16.2-13.1-29.3-29.3-29.3C16.3-23.1,3.2-10,3.2,6.2c0,16.2,13.1,29.3,29.3,29.3
			C48.6,35.5,61.7,22.3,61.7,6.2 M60.8,6.2L60.8,6.2c0,15.6-12.7,28.3-28.2,28.3C17,34.4,4.3,21.8,4.3,6.2S17-22.1,32.5-22.1
			C48.1-22.1,60.8-9.4,60.8,6.2"/>
		<path class="st91" d="M60.8,6.2c0-15.6-12.7-28.3-28.2-28.3S4.3-9.4,4.3,6.2c0,15.6,12.7,28.3,28.2,28.3S60.8,21.8,60.8,6.2
			 M59.8,6.2L59.8,6.2c0,15-12.2,27.2-27.2,27.2c-15,0-27.2-12.2-27.2-27.2c0-15,12.2-27.2,27.2-27.2C47.6-21.1,59.8-8.9,59.8,6.2"
			/>
		<path class="st92" d="M59.8,6.2c0-15-12.2-27.2-27.2-27.2c-15,0-27.2,12.2-27.2,27.2s12.2,27.2,27.2,27.2
			C47.6,33.4,59.8,21.2,59.8,6.2 M58.7,6.2L58.7,6.2c0,14.5-11.7,26.2-26.2,26.2C18.1,32.4,6.4,20.6,6.4,6.2
			C6.4-8.3,18.1-20,32.5-20C47-20,58.7-8.3,58.7,6.2"/>
		<path class="st93" d="M58.7,6.2C58.7-8.3,47-20,32.6-20C18.1-20,6.4-8.3,6.4,6.2c0,14.5,11.7,26.2,26.2,26.2
			C47,32.4,58.7,20.6,58.7,6.2 M57.7,6.2L57.7,6.2c0,13.9-11.3,25.2-25.2,25.2S7.4,20.1,7.4,6.2C7.4-7.7,18.7-19,32.5-19
			S57.7-7.7,57.7,6.2"/>
		<path class="st94" d="M57.7,6.2C57.7-7.7,46.4-19,32.6-19S7.4-7.7,7.4,6.2c0,13.9,11.3,25.2,25.2,25.2S57.7,20.1,57.7,6.2
			 M56.7,6.2L56.7,6.2c0,13.3-10.8,24.2-24.1,24.2C19.2,30.3,8.4,19.5,8.4,6.2C8.4-7.2,19.2-18,32.5-18C45.9-18,56.7-7.2,56.7,6.2"
			/>
		<path class="st95" d="M56.7,6.2C56.7-7.2,45.9-18,32.6-18S8.4-7.2,8.4,6.2c0,13.3,10.8,24.2,24.1,24.2S56.7,19.5,56.7,6.2
			 M55.7,6.2L55.7,6.2c0,12.8-10.4,23.1-23.1,23.1C19.8,29.3,9.4,18.9,9.4,6.2C9.4-6.6,19.8-17,32.5-17C45.3-17,55.7-6.6,55.7,6.2"
			/>
		<path class="st96" d="M55.7,6.2C55.7-6.6,45.3-17,32.6-17C19.8-17,9.4-6.6,9.4,6.2c0,12.8,10.4,23.1,23.1,23.1
			C45.3,29.3,55.7,18.9,55.7,6.2 M54.6,6.2L54.6,6.2c0,12.2-9.9,22.1-22.1,22.1c-12.2,0-22.1-9.9-22.1-22.1
			c0-12.2,9.9-22.1,22.1-22.1C44.7-15.9,54.6-6,54.6,6.2"/>
		<path class="st97" d="M54.5,6.2c0-12.2-9.9-22.1-22.1-22.1C20.2-15.9,10.4-6,10.4,6.2c0,12.2,9.9,22.1,22.1,22.1
			C44.6,28.3,54.5,18.4,54.5,6.2 M53.6,6.2L53.6,6.2c0,11.6-9.4,21.1-21.1,21.1c-11.6,0-21.1-9.4-21.1-21.1s9.4-21.1,21.1-21.1
			C44.2-14.9,53.6-5.5,53.6,6.2"/>
		<path class="st98" d="M53.6,6.2c0-11.6-9.4-21.1-21.1-21.1c-11.6,0-21.1,9.4-21.1,21.1c0,11.6,9.4,21.1,21.1,21.1
			C44.2,27.2,53.6,17.8,53.6,6.2 M52.6,6.2L52.6,6.2c0,11.1-9,20-20,20c-11.1,0-20-9-20-20c0-11.1,9-20,20-20
			C43.6-13.9,52.6-4.9,52.6,6.2"/>
		<path class="st99" d="M52.6,6.2c0-11.1-9-20-20-20c-11.1,0-20,9-20,20s9,20,20,20C43.6,26.2,52.6,17.2,52.6,6.2 M51.5,6.2
			L51.5,6.2c0,10.5-8.5,19-19,19c-10.5,0-19-8.5-19-19c0-10.5,8.5-19,19-19C43-12.9,51.5-4.3,51.5,6.2"/>
		<path class="st100" d="M51.6,6.2c0-10.5-8.5-19-19-19c-10.5,0-19,8.5-19,19c0,10.5,8.5,19,19,19C43,25.2,51.6,16.7,51.6,6.2
			 M50.5,6.2L50.5,6.2c0,9.9-8.1,18-18,18c-9.9,0-18-8.1-18-18c0-9.9,8.1-18,18-18C42.5-11.8,50.5-3.8,50.5,6.2"/>
		<path class="st101" d="M50.5,6.2c0-9.9-8.1-18-18-18c-9.9,0-18,8.1-18,18c0,9.9,8.1,18,18,18C42.5,24.1,50.5,16.1,50.5,6.2
			 M49.5,6.2L49.5,6.2c0,9.4-7.6,17-16.9,17c-9.4,0-16.9-7.6-16.9-17c0-9.4,7.6-17,16.9-17C41.9-10.8,49.5-3.2,49.5,6.2"/>
		<path class="st102" d="M49.5,6.2c0-9.4-7.6-17-16.9-17c-9.4,0-16.9,7.6-16.9,17c0,9.4,7.6,17,16.9,17
			C41.9,23.1,49.5,15.5,49.5,6.2 M48.5,6.2L48.5,6.2c0,8.8-7.1,15.9-15.9,15.9c-8.8,0-15.9-7.1-15.9-15.9c0-8.8,7.1-15.9,15.9-15.9
			C41.3-9.8,48.5-2.6,48.5,6.2"/>
		<path class="st103" d="M48.5,6.2c0-8.8-7.1-15.9-15.9-15.9c-8.8,0-15.9,7.1-15.9,15.9c0,8.8,7.1,15.9,15.9,15.9
			C41.3,22.1,48.5,15,48.5,6.2 M47.4,6.2L47.4,6.2c0,8.2-6.7,14.9-14.9,14.9S17.7,14.4,17.7,6.2S24.3-8.7,32.5-8.7
			S47.4-2.1,47.4,6.2"/>
		<path class="st104" d="M47.5,6.2c0-8.2-6.7-14.9-14.9-14.9S17.7-2.1,17.7,6.2c0,8.2,6.7,14.9,14.9,14.9S47.5,14.4,47.5,6.2
			 M46.4,6.2L46.4,6.2c0,7.7-6.2,13.9-13.9,13.9c-7.7,0-13.9-6.2-13.9-13.9S24.9-7.7,32.5-7.7C40.2-7.7,46.4-1.5,46.4,6.2"/>
		<path class="st105" d="M46.4,6.2c0-7.7-6.2-13.9-13.9-13.9S18.7-1.5,18.7,6.2c0,7.7,6.2,13.9,13.9,13.9S46.4,13.8,46.4,6.2
			 M45.4,6.2L45.4,6.2c0,7.1-5.8,12.8-12.8,12.8S19.7,13.3,19.7,6.2c0-7.1,5.8-12.8,12.8-12.8S45.4-0.9,45.4,6.2"/>
		<path class="st106" d="M45.4,6.2c0-7.1-5.8-12.8-12.8-12.8S19.7-0.9,19.7,6.2c0,7.1,5.8,12.8,12.8,12.8S45.4,13.3,45.4,6.2
			 M44.4,6.2L44.4,6.2c0,6.5-5.3,11.8-11.8,11.8C26,18,20.7,12.7,20.7,6.2c0-6.5,5.3-11.8,11.8-11.8C39.1-5.7,44.4-0.4,44.4,6.2"/>
		<path class="st107" d="M44.4,6.2c0-6.5-5.3-11.8-11.8-11.8C26-5.7,20.7-0.4,20.7,6.2C20.7,12.7,26,18,32.6,18
			C39.1,18,44.4,12.7,44.4,6.2 M43.3,6.2L43.3,6.2c0,6-4.8,10.8-10.8,10.8c-6,0-10.8-4.8-10.8-10.8c0-6,4.8-10.8,10.8-10.8
			C38.5-4.6,43.3,0.2,43.3,6.2"/>
		<path class="st108" d="M43.3,6.2c0-6-4.8-10.8-10.8-10.8c-6,0-10.8,4.8-10.8,10.8c0,6,4.8,10.8,10.8,10.8
			C38.5,17,43.3,12.1,43.3,6.2 M42.3,6.2L42.3,6.2c0,5.4-4.4,9.8-9.8,9.8c-5.4,0-9.8-4.4-9.8-9.8c0-5.4,4.4-9.8,9.8-9.8
			C37.9-3.6,42.3,0.8,42.3,6.2"/>
		<path class="st109" d="M42.3,6.2c0-5.4-4.4-9.8-9.8-9.8c-5.4,0-9.8,4.4-9.8,9.8c0,5.4,4.4,9.8,9.8,9.8
			C37.9,15.9,42.3,11.6,42.3,6.2 M41.3,6.2L41.3,6.2c0,4.8-3.9,8.7-8.7,8.7c-4.8,0-8.7-3.9-8.7-8.7c0-4.8,3.9-8.7,8.7-8.7
			C37.4-2.6,41.3,1.3,41.3,6.2"/>
		<path class="st110" d="M41.3,6.2c0-4.8-3.9-8.7-8.7-8.7c-4.8,0-8.7,3.9-8.7,8.7c0,4.8,3.9,8.7,8.7,8.7C37.4,14.9,41.3,11,41.3,6.2
			 M40.3,6.2L40.3,6.2c0,4.3-3.5,7.7-7.7,7.7c-4.3,0-7.7-3.5-7.7-7.7c0-4.3,3.5-7.7,7.7-7.7C36.8-1.5,40.3,1.9,40.3,6.2"/>
		<path class="st111" d="M40.3,6.2c0-4.3-3.5-7.7-7.7-7.7c-4.3,0-7.7,3.5-7.7,7.7c0,4.3,3.5,7.7,7.7,7.7
			C36.8,13.9,40.3,10.4,40.3,6.2 M39.2,6.2L39.2,6.2c0,3.7-3,6.7-6.7,6.7c-3.7,0-6.7-3-6.7-6.7c0-3.7,3-6.7,6.7-6.7
			C36.2-0.5,39.2,2.5,39.2,6.2"/>
		<path class="st112" d="M39.2,6.2c0-3.7-3-6.7-6.7-6.7c-3.7,0-6.7,3-6.7,6.7s3,6.7,6.7,6.7C36.2,12.8,39.2,9.8,39.2,6.2 M38.2,6.2
			L38.2,6.2c0,3.1-2.5,5.7-5.6,5.7c-3.1,0-5.6-2.5-5.6-5.7c0-3.1,2.5-5.7,5.6-5.7C35.7,0.5,38.2,3,38.2,6.2"/>
		<path class="st113" d="M38.2,6.2c0-3.1-2.5-5.7-5.6-5.7c-3.1,0-5.6,2.5-5.6,5.7c0,3.1,2.5,5.7,5.6,5.7
			C35.7,11.8,38.2,9.3,38.2,6.2 M37.2,6.2L37.2,6.2c0,2.6-2.1,4.6-4.6,4.6c-2.6,0-4.6-2.1-4.6-4.6c0-2.6,2.1-4.6,4.6-4.6
			C35.1,1.5,37.2,3.6,37.2,6.2"/>
		<path class="st114" d="M37.2,6.2c0-2.6-2.1-4.6-4.6-4.6c-2.6,0-4.6,2.1-4.6,4.6c0,2.6,2.1,4.6,4.6,4.6
			C35.1,10.8,37.2,8.7,37.2,6.2 M36.1,6.2L36.1,6.2c0,2-1.6,3.6-3.6,3.6c-2,0-3.6-1.6-3.6-3.6c0-2,1.6-3.6,3.6-3.6
			C34.5,2.6,36.1,4.2,36.1,6.2"/>
		<path class="st115" d="M36,6.2c0-2-1.6-3.6-3.6-3.6c-2,0-3.6,1.6-3.6,3.6c0,2,1.6,3.6,3.6,3.6C34.4,9.8,36,8.1,36,6.2 M35.1,6.2
			L35.1,6.2c0,1.4-1.2,2.6-2.6,2.6c-1.4,0-2.6-1.2-2.6-2.6c0-1.4,1.2-2.6,2.6-2.6C34,3.6,35.1,4.7,35.1,6.2"/>
		<path class="st116" d="M35.1,6.2c0-1.4-1.2-2.6-2.6-2.6S30,4.7,30,6.2c0,1.4,1.2,2.6,2.6,2.6S35.1,7.6,35.1,6.2 M34.1,6.2
			L34.1,6.2c0,0.9-0.7,1.5-1.5,1.5C31.7,7.7,31,7,31,6.2c0-0.9,0.7-1.5,1.5-1.5C33.4,4.6,34.1,5.3,34.1,6.2"/>
		<path class="st117" d="M34.1,6.2c0-0.9-0.7-1.5-1.5-1.5c-0.9,0-1.5,0.7-1.5,1.5c0,0.9,0.7,1.5,1.5,1.5C33.4,7.7,34.1,7,34.1,6.2
			 M33.1,6.2L33.1,6.2c0,0.3-0.2,0.5-0.5,0.5c-0.3,0-0.5-0.2-0.5-0.5s0.2-0.5,0.5-0.5C32.8,5.6,33.1,5.9,33.1,6.2"/>
		<path class="st118" d="M33.1,6.2c0-0.3-0.2-0.5-0.5-0.5c-0.3,0-0.5,0.2-0.5,0.5c0,0.3,0.2,0.5,0.5,0.5C32.8,6.7,33.1,6.4,33.1,6.2
			"/>
	</g>
	<g>
		<defs>
			<path id="SVGID_9_" d="M46.8,26.6c0.1-0.4,1-0.7,1.1-1.1c0.1-0.4,0.2-0.8,0.3-1.2c0.1-0.4,0.3-2.7,0.3-3.1
				c-0.1-0.2-0.1-0.5-0.2-0.7c-0.6-1.2-1.2-1.6-2.3-2.3c-1.2-0.8-3.4-1.3-5.1-1.3c-1.7,0-3.6,0.3-5.6,1c-2,0.7-4.1,1.7-6.3,3
				c-2.2,1.3-4.2,2.9-6,4.6c-1.8,1.7-3.4,3.5-4.8,5.4c-1.4,1.9-2.4,3.8-3.2,5.7c-0.8,1.9-1.2,3.8-1.2,5.5c0,1.1,0.2,2,0.5,2.8
				c0.3,0.8,0.8,1.5,1.5,2.1c0.6,0.6,1.4,1,2.4,1.2c1,0.2,1.9,0.4,3.1,0.4l0.3,0l1.8-0.1l1.8-0.2l0.9-0.2l1.6-0.4l1.6-0.4l0.4-0.1
				l1.4-0.5l0.3-0.1c-1.6,0.7-3.2,1.1-4.6,1.2c-1.4,0.1-2.6,0-3.6-0.4c-1-0.4-1.8-1-2.4-1.8c-0.6-0.8-0.9-1.8-1-3
				c-0.1-1.4,0.2-2.8,0.8-4.4c0.6-1.5,1.4-3.1,2.5-4.6c1.1-1.5,2.4-3,3.8-4.3c1.4-1.4,3.1-2.6,4.8-3.7c1.7-1.1,3.5-1.8,5.1-2.3
				c1.6-0.5,3.1-0.7,4.5-0.7c1.4,0.1,2.5,0.4,3.5,1.1C45.8,24.3,46.5,25.3,46.8,26.6"/>
		</defs>
		<clipPath id="SVGID_10_">
			<use xlink:href="#SVGID_9_"  style="overflow:visible;"/>
		</clipPath>
		<path class="st119" d="M75.2,17.1c0-20.6-16.7-37.4-37.4-37.4S0.5-3.6,0.5,17.1c0,20.6,16.7,37.4,37.4,37.4S75.2,37.7,75.2,17.1
			 M74.2,17.2L74.2,17.2c0,20.1-16.3,36.4-36.4,36.4c-20.1,0-36.4-16.3-36.4-36.4c0-20.1,16.3-36.4,36.4-36.4
			C57.9-19.2,74.2-2.9,74.2,17.2"/>
		<path class="st120" d="M74.2,17.2c0-20.1-16.3-36.4-36.4-36.4S1.5-2.9,1.5,17.2c0,20.1,16.3,36.4,36.4,36.4S74.2,37.3,74.2,17.2
			 M73.1,17.2L73.1,17.2c0,19.5-15.8,35.4-35.3,35.4c-19.5,0-35.3-15.8-35.3-35.4s15.8-35.4,35.3-35.4C57.3-18.2,73.1-2.4,73.1,17.2
			"/>
		<path class="st121" d="M73.2,17.2c0-19.5-15.8-35.4-35.3-35.4C18.3-18.2,2.5-2.3,2.5,17.2s15.8,35.4,35.3,35.4
			C57.3,52.6,73.2,36.7,73.2,17.2 M72.1,17.2L72.1,17.2c0,19-15.4,34.3-34.3,34.3S3.5,36.1,3.5,17.2c0-19,15.4-34.3,34.3-34.3
			S72.1-1.8,72.1,17.2"/>
		<path class="st122" d="M72,17.1c0-19-15.4-34.3-34.3-34.3S3.4-1.9,3.4,17.1c0,19,15.4,34.3,34.3,34.3S72,36,72,17.1 M71.1,17.2
			L71.1,17.2c0,18.4-14.9,33.3-33.3,33.3S4.5,35.5,4.5,17.2c0-18.4,14.9-33.3,33.3-33.3S71.1-1.2,71.1,17.2"/>
		<path class="st123" d="M71.1,17.2c0-18.4-14.9-33.3-33.3-33.3S4.5-1.2,4.5,17.2c0,18.4,14.9,33.3,33.3,33.3S71.1,35.6,71.1,17.2
			 M70.1,17.2L70.1,17.2c0,17.8-14.5,32.3-32.3,32.3C20,49.4,5.5,35,5.5,17.2C5.5-0.7,20-15.1,37.8-15.1
			C55.6-15.1,70.1-0.7,70.1,17.2"/>
		<path class="st124" d="M70.1,17.2c0-17.8-14.5-32.3-32.3-32.3C20-15.1,5.6-0.6,5.6,17.2S20,49.5,37.8,49.5
			C55.6,49.5,70.1,35,70.1,17.2 M69,17.2L69,17.2c0,17.3-14,31.3-31.2,31.3c-17.2,0-31.2-14-31.2-31.3c0-17.3,14-31.3,31.2-31.3
			C55-14.1,69-0.1,69,17.2"/>
		<path class="st125" d="M69.1,17.2c0-17.3-14-31.3-31.2-31.3c-17.2,0-31.2,14-31.2,31.3c0,17.3,14,31.3,31.2,31.3
			C55.1,48.5,69.1,34.5,69.1,17.2 M68,17.2L68,17.2c0,16.7-13.5,30.2-30.2,30.2S7.6,33.8,7.6,17.2c0-16.7,13.5-30.2,30.2-30.2
			S68,0.5,68,17.2"/>
		<path class="st126" d="M67.9,17.1c0-16.7-13.5-30.2-30.2-30.2S7.5,0.4,7.5,17.1c0,16.7,13.5,30.2,30.2,30.2S67.9,33.8,67.9,17.1
			 M67,17.2L67,17.2c0,16.1-13.1,29.2-29.2,29.2c-16.1,0-29.2-13.1-29.2-29.2C8.6,1,21.7-12.1,37.8-12.1C53.9-12.1,67,1,67,17.2"/>
		<path class="st127" d="M67,17.2C67,1.1,54-12,37.8-12C21.7-12,8.6,1.1,8.6,17.2c0,16.1,13.1,29.2,29.2,29.2
			C54,46.4,67,33.3,67,17.2 M66,17.2L66,17.2c0,15.6-12.6,28.2-28.2,28.2c-15.5,0-28.2-12.6-28.2-28.2C9.6,1.6,22.2-11,37.8-11
			C53.3-11,66,1.6,66,17.2"/>
		<path class="st128" d="M66,17.2C66,1.6,53.4-11,37.8-11C22.3-11,9.7,1.6,9.7,17.2c0,15.6,12.6,28.2,28.2,28.2
			C53.4,45.4,66,32.8,66,17.2 M64.9,17.2L64.9,17.2c0,15-12.2,27.2-27.1,27.2c-15,0-27.1-12.2-27.1-27.2c0-15,12.2-27.2,27.1-27.2
			C52.8-10,64.9,2.2,64.9,17.2"/>
		<path class="st129" d="M64.9,17.1c0-15-12.2-27.2-27.1-27.2c-15,0-27.1,12.2-27.1,27.2s12.2,27.2,27.1,27.2
			C52.7,44.2,64.9,32.1,64.9,17.1 M63.9,17.2L63.9,17.2c0,14.4-11.7,26.1-26.1,26.1c-14.4,0-26.1-11.7-26.1-26.1
			C11.7,2.7,23.4-9,37.8-9C52.2-9,63.9,2.7,63.9,17.2"/>
		<path class="st130" d="M64,17.1C64,2.7,52.3-9.1,37.8-9.1c-14.4,0-26.1,11.7-26.1,26.1c0,14.4,11.7,26.1,26.1,26.1
			C52.3,43.2,64,31.5,64,17.1 M62.9,17.2L62.9,17.2c0,13.9-11.2,25.1-25.1,25.1c-13.9,0-25.1-11.2-25.1-25.1C12.7,3.3,23.9-8,37.8-8
			C51.7-8,62.9,3.3,62.9,17.2"/>
		<path class="st131" d="M62.9,17.2c0-13.9-11.2-25.1-25.1-25.1C24-7.9,12.7,3.3,12.7,17.2c0,13.9,11.2,25.1,25.1,25.1
			C51.7,42.3,62.9,31.1,62.9,17.2 M61.9,17.2L61.9,17.2c0,13.3-10.8,24.1-24.1,24.1S13.7,30.4,13.7,17.2c0-13.3,10.8-24.1,24.1-24.1
			S61.9,3.9,61.9,17.2"/>
		<path class="st132" d="M61.9,17.2c0-13.3-10.8-24.1-24.1-24.1c-13.3,0-24.1,10.8-24.1,24.1c0,13.3,10.8,24.1,24.1,24.1
			C51.1,41.3,61.9,30.5,61.9,17.2 M60.8,17.2L60.8,17.2c0,12.7-10.3,23.1-23,23.1s-23-10.3-23-23.1c0-12.7,10.3-23.1,23-23.1
			S60.8,4.4,60.8,17.2"/>
		<path class="st133" d="M60.8,17.1C60.8,4.4,50.4-6,37.7-6s-23,10.3-23,23.1c0,12.7,10.3,23.1,23,23.1S60.8,29.8,60.8,17.1
			 M59.8,17.2L59.8,17.2c0,12.2-9.9,22-22,22c-12.2,0-22-9.9-22-22c0-12.2,9.9-22,22-22C50-4.9,59.8,5,59.8,17.2"/>
		<path class="st134" d="M59.9,17.1c0-12.2-9.9-22-22-22c-12.2,0-22,9.9-22,22c0,12.2,9.9,22,22,22C50,39.1,59.9,29.2,59.9,17.1
			 M58.8,17.2L58.8,17.2c0,11.6-9.4,21-21,21s-21-9.4-21-21c0-11.6,9.4-21,21-21S58.8,5.6,58.8,17.2"/>
		<path class="st135" d="M58.8,17.2c0-11.6-9.4-21-21-21c-11.6,0-21,9.4-21,21c0,11.6,9.4,21,21,21C49.4,38.2,58.8,28.8,58.8,17.2
			 M57.8,17.2L57.8,17.2c0,11-8.9,20-20,20s-20-9-20-20c0-11,8.9-20,20-20S57.8,6.1,57.8,17.2"/>
		<path class="st136" d="M57.8,17.2c0-11-8.9-20-20-20c-11,0-20,9-20,20c0,11,8.9,20,20,20C48.9,37.2,57.8,28.2,57.8,17.2
			 M56.7,17.2L56.7,17.2c0,10.5-8.5,19-18.9,19c-10.5,0-18.9-8.5-18.9-19c0-10.5,8.5-19,18.9-19C48.3-1.8,56.7,6.7,56.7,17.2"/>
		<path class="st137" d="M56.7,17.1c0-10.5-8.5-19-18.9-19c-10.5,0-18.9,8.5-18.9,19c0,10.5,8.5,19,18.9,19
			C48.2,36,56.7,27.5,56.7,17.1 M55.7,17.2L55.7,17.2c0,9.9-8,17.9-17.9,17.9c-9.9,0-17.9-8-17.9-17.9c0-9.9,8-17.9,17.9-17.9
			C47.7-0.8,55.7,7.3,55.7,17.2"/>
		<path class="st138" d="M55.8,17.2c0-9.9-8-17.9-17.9-17.9s-17.9,8-17.9,17.9c0,9.9,8,17.9,17.9,17.9S55.8,27.1,55.8,17.2
			 M54.7,17.2L54.7,17.2c0,9.3-7.6,16.9-16.9,16.9s-16.9-7.6-16.9-16.9c0-9.3,7.6-16.9,16.9-16.9S54.7,7.8,54.7,17.2"/>
		<path class="st139" d="M54.7,17.2c0-9.3-7.6-16.9-16.9-16.9S20.9,7.9,20.9,17.2s7.6,16.9,16.9,16.9S54.7,26.5,54.7,17.2
			 M53.7,17.2L53.7,17.2c0,8.8-7.1,15.9-15.9,15.9c-8.8,0-15.9-7.1-15.9-15.9c0-8.8,7.1-15.9,15.9-15.9C46.6,1.3,53.7,8.4,53.7,17.2
			"/>
		<path class="st140" d="M53.6,17.1c0-8.8-7.1-15.9-15.9-15.9S21.8,8.3,21.8,17.1C21.8,25.9,29,33,37.7,33S53.6,25.9,53.6,17.1
			 M52.7,17.2L52.7,17.2C52.7,25.4,46,32,37.8,32c-8.2,0-14.9-6.7-14.9-14.9c0-8.2,6.7-14.9,14.9-14.9C46,2.3,52.7,9,52.7,17.2"/>
		<path class="st141" d="M52.6,17.1c0-8.2-6.7-14.9-14.9-14.9c-8.2,0-14.9,6.7-14.9,14.9c0,8.2,6.7,14.9,14.9,14.9
			C45.9,31.9,52.6,25.3,52.6,17.1 M51.6,17.2L51.6,17.2c0,7.6-6.2,13.8-13.8,13.8S24,24.8,24,17.2c0-7.6,6.2-13.8,13.8-13.8
			S51.6,9.5,51.6,17.2"/>
		<path class="st142" d="M51.7,17.2c0-7.6-6.2-13.8-13.8-13.8C30.2,3.4,24,9.6,24,17.2S30.2,31,37.8,31C45.5,31,51.7,24.8,51.7,17.2
			 M50.6,17.2L50.6,17.2c0,7.1-5.7,12.8-12.8,12.8S25,24.2,25,17.2c0-7.1,5.7-12.8,12.8-12.8S50.6,10.1,50.6,17.2"/>
		<path class="st143" d="M50.6,17.2c0-7.1-5.7-12.8-12.8-12.8C30.8,4.4,25,10.1,25,17.2C25,24.3,30.8,30,37.8,30
			C44.9,30,50.6,24.3,50.6,17.2 M49.6,17.2L49.6,17.2c0,6.5-5.3,11.8-11.8,11.8c-6.5,0-11.8-5.3-11.8-11.8c0-6.5,5.3-11.8,11.8-11.8
			C44.3,5.4,49.6,10.6,49.6,17.2"/>
		<path class="st144" d="M49.5,17.1c0-6.5-5.3-11.8-11.8-11.8c-6.5,0-11.8,5.3-11.8,11.8c0,6.5,5.3,11.8,11.8,11.8
			C44.2,28.9,49.5,23.6,49.5,17.1 M48.6,17.2L48.6,17.2c0,5.9-4.8,10.8-10.8,10.8c-5.9,0-10.8-4.8-10.8-10.8
			c0-5.9,4.8-10.8,10.8-10.8C43.7,6.4,48.6,11.2,48.6,17.2"/>
		<path class="st145" d="M48.6,17.1c0-5.9-4.8-10.8-10.8-10.8c-5.9,0-10.8,4.8-10.8,10.8c0,5.9,4.8,10.8,10.8,10.8
			C43.8,27.8,48.6,23,48.6,17.1 M47.5,17.2L47.5,17.2c0,5.4-4.4,9.7-9.7,9.7c-5.4,0-9.7-4.4-9.7-9.7c0-5.4,4.4-9.7,9.7-9.7
			C43.2,7.4,47.5,11.8,47.5,17.2"/>
		<path class="st146" d="M47.6,17.2c0-5.4-4.4-9.7-9.7-9.7c-5.4,0-9.7,4.4-9.7,9.7s4.4,9.7,9.7,9.7C43.2,26.9,47.6,22.6,47.6,17.2
			 M46.5,17.2L46.5,17.2c0,4.8-3.9,8.7-8.7,8.7c-4.8,0-8.7-3.9-8.7-8.7c0-4.8,3.9-8.7,8.7-8.7C42.6,8.4,46.5,12.3,46.5,17.2"/>
		<path class="st147" d="M46.5,17.2c0-4.8-3.9-8.7-8.7-8.7c-4.8,0-8.7,3.9-8.7,8.7c0,4.8,3.9,8.7,8.7,8.7
			C42.6,25.9,46.5,22,46.5,17.2 M45.5,17.2L45.5,17.2c0,4.2-3.4,7.7-7.7,7.7c-4.2,0-7.7-3.4-7.7-7.7c0-4.2,3.4-7.7,7.7-7.7
			C42,9.5,45.5,12.9,45.5,17.2"/>
		<path class="st148" d="M45.4,17.1c0-4.2-3.4-7.7-7.7-7.7S30,12.8,30,17.1c0,4.2,3.4,7.7,7.7,7.7S45.4,21.3,45.4,17.1 M44.5,17.2
			L44.5,17.2c0,3.7-3,6.7-6.7,6.7s-6.7-3-6.7-6.7c0-3.7,3-6.7,6.7-6.7S44.5,13.5,44.5,17.2"/>
		<path class="st149" d="M44.5,17.2c0-3.7-3-6.7-6.7-6.7c-3.7,0-6.7,3-6.7,6.7c0,3.7,3,6.7,6.7,6.7C41.5,23.9,44.5,20.9,44.5,17.2
			 M43.4,17.2L43.4,17.2c0,3.1-2.5,5.6-5.6,5.6c-3.1,0-5.6-2.5-5.6-5.6c0-3.1,2.5-5.6,5.6-5.6C40.9,11.5,43.4,14,43.4,17.2"/>
		<path class="st150" d="M43.5,17.2c0-3.1-2.5-5.6-5.6-5.6c-3.1,0-5.6,2.5-5.6,5.6c0,3.1,2.5,5.6,5.6,5.6
			C40.9,22.8,43.5,20.3,43.5,17.2 M42.4,17.2L42.4,17.2c0,2.5-2.1,4.6-4.6,4.6c-2.5,0-4.6-2.1-4.6-4.6c0-2.5,2.1-4.6,4.6-4.6
			C40.3,12.5,42.4,14.6,42.4,17.2"/>
		<path class="st151" d="M42.4,17.2c0-2.5-2.1-4.6-4.6-4.6c-2.5,0-4.6,2.1-4.6,4.6c0,2.5,2.1,4.6,4.6,4.6
			C40.4,21.8,42.4,19.7,42.4,17.2 M41.4,17.2L41.4,17.2c0,2-1.6,3.6-3.6,3.6s-3.6-1.6-3.6-3.6c0-2,1.6-3.6,3.6-3.6
			S41.4,15.2,41.4,17.2"/>
		<path class="st152" d="M41.3,17.1c0-2-1.6-3.6-3.6-3.6s-3.6,1.6-3.6,3.6c0,2,1.6,3.6,3.6,3.6S41.3,19.1,41.3,17.1 M40.4,17.2
			L40.4,17.2c0,1.4-1.1,2.6-2.6,2.6c-1.4,0-2.6-1.1-2.6-2.6c0-1.4,1.1-2.6,2.6-2.6C39.2,14.6,40.4,15.7,40.4,17.2"/>
		<path class="st153" d="M40.4,17.2c0-1.4-1.1-2.6-2.6-2.6s-2.6,1.1-2.6,2.6c0,1.4,1.1,2.6,2.6,2.6S40.4,18.6,40.4,17.2 M39.3,17.2
			L39.3,17.2c0,0.8-0.7,1.5-1.5,1.5c-0.8,0-1.5-0.7-1.5-1.5c0-0.8,0.7-1.5,1.5-1.5C38.6,15.6,39.3,16.3,39.3,17.2"/>
		<path class="st154" d="M39.4,17.2c0-0.8-0.7-1.5-1.5-1.5s-1.5,0.7-1.5,1.5c0,0.8,0.7,1.5,1.5,1.5S39.4,18,39.4,17.2 M38.3,17.2
			L38.3,17.2c0,0.3-0.2,0.5-0.5,0.5s-0.5-0.2-0.5-0.5c0-0.3,0.2-0.5,0.5-0.5S38.3,16.9,38.3,17.2"/>
		<path class="st155" d="M38.2,17.1c0-0.3-0.2-0.5-0.5-0.5s-0.5,0.2-0.5,0.5c0,0.3,0.2,0.5,0.5,0.5S38.2,17.4,38.2,17.1"/>
	</g>
	<path class="st156" d="M26.9,3.8c-0.2,0.8-0.8,1.6-1.5,2.4c-0.8,0.8-1.8,1.7-2.9,2.5c-1.2,0.8-2.5,1.6-3.9,2.3
		c-1.4,0.7-2.9,1.2-4.4,1.7c-1.5,0.4-2.8,0.6-4,0.7c-1.1,0-2.1-0.1-2.8-0.4c-0.7-0.3-1.2-0.7-1.4-1.3c-0.2-0.5-0.1-1.2,0.2-2
		C6.3,9.5,6.4,9.3,6.6,9c0.2-0.2,0.3-0.5,0.5-0.7c0.2-0.2,0.4-0.5,0.6-0.7C8,7.4,8.2,7.1,8.5,6.9l0.7-0.6l0.7-0.6l0.7-0.5l0.7-0.5
		l0.7-0.4l0.6-0.4l0.6-0.4c0,0-1.3,1-1.9,1.8c-0.4,0.4-0.6,0.8-0.8,1.2c-0.2,0.4-0.2,0.7-0.1,1c0.1,0.3,0.4,0.5,0.7,0.6
		c0.4,0.1,0.8,0.2,1.4,0.1c0.6,0,1.2-0.2,2-0.4c0.7-0.2,1.5-0.5,2.1-0.8c0.7-0.3,1.3-0.7,1.9-1.1c0.6-0.4,1.1-0.8,1.5-1.2
		c0.4-0.4,0.7-0.8,0.8-1.2c0.1-0.4,0.1-0.7,0-0.9c-0.1-0.2-0.4-0.4-0.8-0.5c-0.4-0.1-0.8-0.1-1.4,0c-0.5,0.1-1.2,0.1-1.9,0.4
		c-0.5,0.1-0.7,0.2-1.1,0.4c1.3-0.7,2.1-1,3.5-1.5c0.9-0.3,1.6-0.5,2.4-0.6c1-0.2,1.8-0.2,2.6-0.1c0.8,0.1,1.4,0.2,1.9,0.5
		c0.5,0.3,0.9,0.6,1,1C27.1,2.6,27.1,3.2,26.9,3.8L26.9,3.8z"/>
	<path class="st156" d="M45.4,36.7c0,0-0.3,0.9-0.6,1.4c-0.3,0.5-0.8,1.2-0.8,1.2s-0.2,0.2-0.3,0.4c-0.3,0.4-0.9,1.1-0.9,1.1
		L42,41.5c-0.8,0.8-1.6,1.5-2.6,2.3c-1,0.7-2,1.4-3.1,2c-1.1,0.6-2.3,1.1-3.5,1.6c-1.2,0.5-2.4,0.8-3.7,1.1
		c-0.2,0.1-0.5,0.1-0.7,0.1c-0.2,0-0.5,0.1-0.7,0.1c-0.2,0-0.5,0.1-0.7,0.1c-0.2,0-0.5,0-0.7,0.1L25,48.9l-0.3,0l-1.5,0l-1.5-0.1
		c0,0-0.3,0-0.4-0.1c-0.6-0.1-1-0.1-1.6-0.3c-0.6-0.1-1.6-0.4-1.6-0.4l-0.8-0.3l-0.2-0.1c0.6,0.2,1.3,0.4,2,0.5
		c0.7,0.1,1.5,0.2,2.3,0.2c0.8,0,1.7,0,2.6-0.1c0.9-0.1,1.9-0.2,2.9-0.5c2.3-0.5,4.5-1.2,6.6-2.2c2.1-0.9,4.1-2.1,5.9-3.4
		c1.8-1.3,3.3-2.6,4.6-4.1C44.7,37.7,45,37.2,45.4,36.7C45.4,36.7,45.4,36.7,45.4,36.7L45.4,36.7z"/>
	<path class="st156" d="M32.4,1.9L34,2.5l1.6,0.7l0.6,0.3c0.4,0.2,0.8,0.5,1.1,0.8c0.3,0.3,0.6,0.7,0.8,1c0.2,0.4,0.3,0.8,0.4,1.3
		c0.1,0.5,0,1-0.1,1.5c-0.3,1.4-1.1,3-2.4,4.5c-1.3,1.6-3.1,3.2-5.1,4.7c-2.1,1.5-4.5,3-7.1,4.2c-2.6,1.2-5.3,2.3-8.1,3
		c-2.5,0.6-4.7,1-6.6,1c-1.9,0-3.5-0.2-4.8-0.6c-1.2-0.5-2.2-1.1-2.7-2C1,22,0.8,21,1.1,19.8l0.1-0.5l0.5-1.7L2.2,16l0.6-1.4
		l0.5-1.1l-0.1,0.2c0,0,0,0,0,0c-0.5,1.1-0.6,2.1-0.3,2.9c0.3,0.8,0.9,1.5,1.9,1.9c1,0.4,2.4,0.7,4,0.6c1.7,0,3.6-0.3,5.8-0.9
		c2.2-0.6,4.4-1.4,6.4-2.4c2.1-1,4-2.1,5.7-3.3c1.7-1.2,3.1-2.5,4.2-3.7c1.1-1.2,1.8-2.4,2.1-3.6C33,4.8,33,4.2,32.9,3.8
		c-0.1-0.5-0.3-0.9-0.6-1.2c-0.3-0.4-0.7-0.7-1.2-0.9c-0.3-0.2-0.7-0.3-1.1-0.4l-0.6-0.2c0.3,0,0.4,0.1,0.6,0.1c0,0,0.6,0.1,0.9,0.2
		C31.6,1.6,32.4,1.9,32.4,1.9L32.4,1.9z"/>
	<path class="st156" d="M42.9,8.9l1.2,1.5l1.1,1.6l0.5,0.8c0.1,0.3,0.3,0.5,0.4,0.8c0.1,0.3,0.2,0.6,0.2,0.9
		c0.1,0.3,0.1,0.6,0.1,0.9c0,0.3,0,0.7-0.1,1c-0.2,1.8-1.1,3.8-2.6,5.8c-1.5,2-3.5,4-6,5.9c-2.5,1.9-5.4,3.7-8.5,5.2
		c-3.1,1.5-6.4,2.7-9.8,3.5c-2.4,0.6-4.6,0.9-6.6,0.9c-2,0.1-3.7-0.1-5.2-0.4c-1.5-0.3-2.7-0.9-3.6-1.6c-0.9-0.7-1.6-1.5-2-2.5
		l-0.4-1.1l-0.5-1.8l-0.4-1.9l-0.1-0.5l-0.1-1c0-0.1,0,0,0,0c0.1,1,0.5,1.9,1.2,2.6c0.8,0.8,1.9,1.4,3.3,1.9
		c1.4,0.4,3.2,0.6,5.2,0.6c2-0.1,4.3-0.4,6.8-1c3.1-0.8,6.3-1.9,9.2-3.3c3-1.4,5.7-3.1,8.1-4.8c2.3-1.8,4.3-3.6,5.7-5.5
		c1.4-1.8,2.3-3.6,2.6-5.3c0.1-0.5,0.1-0.9,0.1-1.3c0-0.4-0.1-0.8-0.2-1.2c-0.1-0.4-0.3-0.7-0.5-1c-0.1-0.2-0.3-0.4-0.4-0.6
		c0,0,0,0,0,0l1,1L42.9,8.9L42.9,8.9z"/>
	<path class="st156" d="M48.8,22.8c0.1,1.5,0.2,2.4-0.1,3.9c-0.4,2.3-1,3.7-2.3,5.5c-1.3,1.9-3.1,3.8-5.3,5.6
		c-2.2,1.8-4.8,3.4-7.6,4.7c-2.8,1.3-5.8,2.4-8.8,3.1c-1.6,0.3-3.1,0.6-4.5,0.7c-1.4,0.1-2.7,0.1-3.9,0c-1.2-0.1-2.2-0.4-3.2-0.7
		c-0.9-0.3-1.8-0.7-2.5-1.2l-1.5-1.1l-1.2-1.1c0,0-0.8-0.8-1.3-1.4c-0.3-0.4-0.8-1.1-0.8-1.1c-0.1-0.1,0,0,0,0
		c0.6,0.6,1.3,1.2,2.1,1.7c1,0.5,2.2,0.9,3.6,1.2c1.4,0.2,3,0.3,4.8,0.3c1.8-0.1,3.7-0.4,5.7-0.8c3.3-0.7,6.6-1.9,9.6-3.4
		c3.1-1.5,5.9-3.2,8.3-5.1c2.4-1.9,4.4-3.9,5.8-5.9c1.4-2,2.3-4,2.5-5.8c0-0.2,0-0.4,0-0.6c0-0.2,0-0.4,0-0.6c0-0.2,0.2,0.8,0.2,0.8
		S48.7,22.2,48.8,22.8L48.8,22.8z"/>
	<polygon points="2,98.7 3.5,98.7 5,93.4 5.1,93.4 6.7,98.7 8.2,98.7 9.9,91.1 8.5,91.1 7.3,96.6 7.3,96.6 5.6,91.1 4.5,91.1 
		2.8,96.6 2.8,96.6 1.6,91.1 0.2,91.1 2,98.7 	"/>
	<path class="st157" d="M12.2,98.7h1.4v-7.6h-1.4V98.7L12.2,98.7z M12,89.3h1.7v-1.6H12V89.3L12,89.3z"/>
	<path d="M16.5,98.7h1.4v-3.2c0-1.5,0.8-3.1,2-3.1c1,0,1,0.8,1,2.2v4.2h1.4v-5.3c0-0.9-0.3-2.5-2-2.5c-1.6,0-2.2,1.2-2.4,1.8h0v-1.6
		h-1.4V98.7L16.5,98.7z"/>
	<path d="M25.1,98.7h1.4v-3.2c0-1.5,0.8-3.1,2-3.1c1,0,1,0.8,1,2.2v4.2H31v-5.3c0-0.9-0.3-2.5-2-2.5c-1.6,0-2.2,1.2-2.4,1.8h0v-1.6
		h-1.4V98.7L25.1,98.7z"/>
	<path class="st157" d="M38.8,97.5c-0.3,0.1-0.8,0.3-1.4,0.3c-2.1,0-2.8-2-2.8-3.4H39V94c0-1.8-0.9-3.1-2.8-3.1
		c-1,0-3.1,0.4-3.1,3.6c0,3,1.5,4.4,3.8,4.4c0.8,0,1.3-0.1,1.9-0.3V97.5L38.8,97.5z M34.6,93.4c0-0.3,0.3-1.3,1.5-1.3
		c1.1,0,1.4,0.9,1.4,1.3H34.6L34.6,93.4z"/>
	<path d="M41.1,98.7h1.4v-3.2c0-2.3,1.1-3,2.4-3v-1.6c-1.5,0-2.1,1.1-2.4,1.7h0v-1.5h-1.4V98.7L41.1,98.7z"/>
	<path d="M51.1,98.7h6.5v-1.1H53c1.7-1.5,4.5-3.6,4.5-6.4c0-1.8-1.4-2.8-3.1-2.8c-2.6,0-3.2,1.4-3.3,2.5h1.8c0-0.7,0.4-1.4,1.5-1.4
		c1.1,0,1.6,0.7,1.6,1.5c0,2.1-3.5,5.4-4.8,6.5V98.7L51.1,98.7z"/>
	<path class="st157" d="M62.8,98.9c2.9,0,3.7-2.6,3.7-5.2c0-2.7-0.8-5.2-3.7-5.2c-2.9,0-3.7,2.6-3.7,5.2
		C59.1,96.3,59.9,98.9,62.8,98.9L62.8,98.9z M60.7,93.6c0-1.9,0.3-4.1,2.1-4.1c1.9,0,2.1,2.3,2.1,4.1c0,1.9-0.3,4.1-2.1,4.1
		C61,97.8,60.7,95.5,60.7,93.6L60.7,93.6z"/>
	<path class="st157" d="M71.5,98.9c2.9,0,3.7-2.6,3.7-5.2c0-2.7-0.8-5.2-3.7-5.2c-2.9,0-3.7,2.6-3.7,5.2
		C67.8,96.3,68.6,98.9,71.5,98.9L71.5,98.9z M69.4,93.6c0-1.9,0.3-4.1,2.1-4.1c1.9,0,2.1,2.3,2.1,4.1c0,1.9-0.3,4.1-2.1,4.1
		C69.7,97.8,69.4,95.5,69.4,93.6L69.4,93.6z"/>
	<path class="st157" d="M81.7,94.2c0,2.8-0.8,3.5-2,3.5c-1.1,0-1.3-0.9-1.3-1.2h-1.8c0.1,0.9,0.6,2.4,3.1,2.4c3,0,3.6-2.4,3.6-5.1
		c0-3.1-0.5-5.4-3.6-5.4c-2,0-3.3,1.1-3.3,3.1c0,1.8,0.9,3.2,2.8,3.2c1.4,0,2-0.5,2.4-1V94.2L81.7,94.2z M78,91.5c0-1.1,0.4-2,1.8-2
		c1.2,0,1.7,1,1.7,2c0,1.2-0.6,2-1.8,2C78.4,93.6,78,92.7,78,91.5L78,91.5z"/>
	<path d="M1,81.7h1.7v-3.9c0-2.8,1.3-3.6,2.9-3.6v-1.9c-1.8,0-2.6,1.3-2.8,2h0v-1.8H1V81.7L1,81.7z"/>
	<path class="st157" d="M13.5,80.3c-0.4,0.1-0.9,0.3-1.7,0.3c-2.5,0-3.4-2.4-3.4-4.1h5.3V76c0-2.1-1.1-3.7-3.3-3.7
		c-1.2,0-3.7,0.4-3.7,4.3c0,3.6,1.8,5.2,4.5,5.2c1,0,1.5-0.1,2.3-0.3V80.3L13.5,80.3z M8.5,75.3c0-0.4,0.4-1.6,1.8-1.6
		c1.3,0,1.7,1,1.7,1.6H8.5L8.5,75.3z"/>
	<path class="st157" d="M20.9,81.7h1.7V68.5h-1.7v5.4h0c-0.2-0.5-0.9-1.5-2.4-1.5c-2.1,0-3.2,1.9-3.2,4.9c0,2.6,0.9,4.6,3.1,4.6
		c1.6,0,2.3-1.1,2.5-1.6h0V81.7L20.9,81.7z M17.1,77.2c0-1.9,0.4-3.4,1.8-3.4c1.5,0,2,1.8,2,3.4c0,1.5-0.6,3.4-2,3.4
		C17.3,80.6,17.1,78.5,17.1,77.2L17.1,77.2z"/>
	<path class="st158" d="M30.4,81.7h1.7V68.5h-1.7v5.4h0c-0.2-0.5-0.9-1.5-2.4-1.5c-2.1,0-3.2,1.9-3.2,4.9c0,2.6,0.9,4.6,3.1,4.6
		c1.6,0,2.3-1.1,2.5-1.6h0V81.7L30.4,81.7z M26.6,77.2c0-1.9,0.4-3.4,1.8-3.4c1.5,0,2,1.8,2,3.4c0,1.5-0.6,3.4-2,3.4
		C26.8,80.6,26.6,78.5,26.6,77.2L26.6,77.2z"/>
	<path class="st158" d="M38.3,81.9c2.7,0,4-1.9,4-4.8c0-2.9-1.3-4.8-4-4.8c-2.8,0-4,1.9-4,4.8C34.3,80,35.6,81.9,38.3,81.9
		L38.3,81.9z M36.2,77.2c0-1.5,0.2-3.4,2.1-3.4c1.9,0,2.1,2,2.1,3.4c0,1.5-0.2,3.4-2.1,3.4C36.4,80.6,36.2,78.6,36.2,77.2L36.2,77.2
		z"/>
	<path class="st156" d="M49.3,80.4c-0.2,0.1-0.6,0.1-0.9,0.1c-1.3,0-1.5-1-1.5-1.8v-4.9h2.5v-1.3H47v-3.2l-1.7,1.1v2.1h-1.6v1.3h1.6
		v5.8c0,1.2,0.5,2.2,2.7,2.2c0.5,0,0.9,0,1.4-0.1V80.4L49.3,80.4z"/>
	<path class="st157" d="M60.9,81.7h1.7V68.5h-1.7v5.4h0c-0.2-0.5-0.9-1.5-2.4-1.5c-2.1,0-3.2,1.9-3.2,4.9c0,2.6,0.9,4.6,3.1,4.6
		c1.6,0,2.3-1.1,2.5-1.6h0V81.7L60.9,81.7z M57.1,77.2c0-1.9,0.4-3.4,1.8-3.4c1.5,0,2,1.8,2,3.4c0,1.5-0.6,3.4-2,3.4
		C57.3,80.6,57.1,78.5,57.1,77.2L57.1,77.2z"/>
	<path class="st157" d="M71.5,80.3c-0.4,0.1-0.9,0.3-1.7,0.3c-2.5,0-3.4-2.4-3.4-4.1h5.3V76c0-2.1-1.1-3.7-3.3-3.7
		c-1.2,0-3.7,0.4-3.7,4.3c0,3.6,1.8,5.2,4.5,5.2c1,0,1.5-0.1,2.3-0.3V80.3L71.5,80.3z M66.5,75.3c0-0.4,0.4-1.6,1.8-1.6
		c1.3,0,1.7,1,1.7,1.6H66.5L66.5,75.3z"/>
	<path d="M76.2,76c-0.6-0.4-1.3-0.7-1.3-1.3c0-0.6,0.7-1,1.5-1c1,0,1.8,0.4,2.1,0.5v-1.6c-0.4-0.1-1.1-0.3-2.1-0.3
		c-1.9,0-3.2,0.9-3.2,2.5c0,1.3,1,2,1.8,2.5l0.9,0.5c0.6,0.4,1.5,0.8,1.5,1.5c0,0.9-1,1.2-1.9,1.2c-1,0-2.1-0.5-2.3-0.5v1.5
		c0.4,0.1,1.2,0.4,2.5,0.4c2,0,3.4-0.8,3.4-2.8c0-1.5-1.1-2.1-2.1-2.7L76.2,76L76.2,76z"/>
	<path class="st157" d="M81.1,81.7h1.7v-9.1h-1.7V81.7L81.1,81.7z M81,70.4H83v-2H81V70.4L81,70.4z"/>
	<path class="st157" d="M92.6,72.6h-1.7v1.3h0c-0.2-0.5-0.9-1.5-2.4-1.5c-2.3,0-3.3,2.2-3.3,4.8c0,2.3,0.7,4.6,3.1,4.6
		c1.6,0,2.3-1.1,2.5-1.6h0v1.4c0,1,0,2.9-2.7,2.9c-1.1,0-2.1-0.5-2.6-0.7v1.7c0.4,0.1,1.4,0.3,2.8,0.3c2.7,0,4.2-1.1,4.2-3.7V72.6
		L92.6,72.6z M87.1,77.1c0-1.4,0.3-3.4,1.8-3.4c1.5,0,2,1.8,2,3.2c0,1.5-0.5,3.4-2,3.4C87.4,80.4,87.1,78.3,87.1,77.1L87.1,77.1z"/>
	<path d="M95.4,81.7h1.7v-3.9c0-1.8,1-3.7,2.4-3.7c1.2,0,1.2,0.9,1.2,2.6v5h1.7v-6.3c0-1.1-0.3-3-2.5-3c-1.9,0-2.6,1.4-2.9,2.2h0v-2
		h-1.7V81.7L95.4,81.7z"/>
	<path class="st157" d="M114.3,81.7h1.7v-6.3c0-0.8,0-3.1-3-3.1c-2.5,0-3.4,1.3-3.4,2.7h1.8c0-0.7,0.4-1.4,1.5-1.4
		c0.7,0,1.2,0.3,1.4,1.2v1.6c-2.3,0-5,0.6-5,3c0,1.4,0.9,2.5,2.6,2.5c1.4,0,2.1-0.8,2.4-1.3h0V81.7L114.3,81.7z M114.3,77.6v0.5
		c0,1.1-0.9,2.4-2.1,2.4c-0.5,0-1-0.5-1-1.2c0-1.2,1.4-1.8,2.7-1.8H114.3L114.3,77.6z"/>
	<polygon points="120.1,81.7 121.9,81.7 123.7,75.4 123.8,75.4 125.7,81.7 127.5,81.7 129.5,72.6 127.9,72.6 126.4,79.2 126.4,79.2 
		124.4,72.6 123.1,72.6 121.1,79.2 121.1,79.2 119.6,72.6 118,72.6 120.1,81.7 	"/>
	<path class="st157" d="M135.9,81.7h1.7v-6.3c0-0.8,0-3.1-3-3.1c-2.5,0-3.4,1.3-3.4,2.7h1.8c0-0.7,0.4-1.4,1.5-1.4
		c0.7,0,1.2,0.3,1.4,1.2v1.6c-2.3,0-5,0.6-5,3c0,1.4,0.9,2.5,2.6,2.5c1.4,0,2.1-0.8,2.4-1.3h0V81.7L135.9,81.7z M135.9,77.6v0.5
		c0,1.1-0.9,2.4-2.1,2.4c-0.5,0-1-0.5-1-1.2c0-1.2,1.4-1.8,2.7-1.8H135.9L135.9,77.6z"/>
	<path d="M140.2,81.7h1.7v-3.9c0-2.8,1.3-3.6,2.9-3.6v-1.9c-1.8,0-2.6,1.3-2.8,2h0v-1.8h-1.7V81.7L140.2,81.7z"/>
	<path class="st157" d="M151.4,81.7h1.7V68.5h-1.7v5.4h0c-0.2-0.5-0.9-1.5-2.4-1.5c-2.1,0-3.2,1.9-3.2,4.9c0,2.6,0.9,4.6,3.1,4.6
		c1.6,0,2.3-1.1,2.5-1.6h0V81.7L151.4,81.7z M147.6,77.2c0-1.9,0.4-3.4,1.8-3.4c1.5,0,2,1.8,2,3.4c0,1.5-0.6,3.4-2,3.4
		C147.8,80.6,147.6,78.5,147.6,77.2L147.6,77.2z"/>
</g>
</svg>
