<svg width="7" height="10" viewBox="0 0 7 10" fill="none" xmlns="http://www.w3.org/2000/svg">
  <path
    d="M4.66667 10C4.02889 10 3.42611 9.86875 2.85833 9.60625C2.29056 9.34375 1.79472 8.98542 1.37083 8.53125C0.946944 8.07708 0.6125 7.54583 0.3675 6.9375C0.1225 6.32917 0 5.68333 0 5C0 4.30833 0.1225 3.66042 0.3675 3.05625C0.6125 2.45208 0.946944 1.92292 1.37083 1.46875C1.79472 1.01458 2.29056 0.65625 2.85833 0.39375C3.42611 0.13125 4.02889 0 4.66667 0C5.08667 0 5.495 0.0583334 5.89167 0.175C6.28833 0.291667 6.65778 0.458333 7 0.675C6.29222 1.11667 5.72639 1.71458 5.3025 2.46875C4.87861 3.22292 4.66667 4.06667 4.66667 5C4.66667 5.93333 4.87861 6.77708 5.3025 7.53125C5.72639 8.28542 6.29222 8.88333 7 9.325C6.65778 9.54167 6.28833 9.70833 5.89167 9.825C5.495 9.94167 5.08667 10 4.66667 10ZM4.66667 9H4.91167C4.98944 9 5.06333 8.99167 5.13333 8.975C4.69 8.425 4.34583 7.81042 4.10083 7.13125C3.85583 6.45208 3.73333 5.74167 3.73333 5C3.73333 4.25833 3.85583 3.54792 4.10083 2.86875C4.34583 2.18958 4.69 1.575 5.13333 1.025C5.06333 1.00833 4.98944 1 4.91167 1H4.66667C3.63222 1 2.75139 1.38958 2.02417 2.16875C1.29694 2.94792 0.933333 3.89167 0.933333 5C0.933333 6.10833 1.29694 7.05208 2.02417 7.83125C2.75139 8.61042 3.63222 9 4.66667 9Z"
    fill="currentColor" />
</svg>