<svg width="24" height="24" viewBox="0 0 24 24" fill="none" xmlns="http://www.w3.org/2000/svg">
	<mask id="mask0_2058_6632" style="mask-type:luminance" maskUnits="userSpaceOnUse" x="1" y="1"
		width="22" height="22">
		<path
			d="M17.4306 1.5H6.61239C3.80076 1.5 1.52148 3.77928 1.52148 6.59091V17.4091C1.52148 20.2207 3.80076 22.5 6.61239 22.5H17.4306C20.2422 22.5 22.5215 20.2207 22.5215 17.4091V6.59091C22.5215 3.77928 20.2422 1.5 17.4306 1.5Z"
			fill="white" />
	</mask>
	<g mask="url(#mask0_2058_6632)">
		<path
			d="M14.4935 11.5206H8.28934V9.06552H14.4935C14.8559 9.06552 15.1079 9.1287 15.2343 9.23899C15.3608 9.34931 15.4391 9.5539 15.4391 9.85277V10.7343C15.4391 11.0492 15.3608 11.2538 15.2343 11.3641C15.1079 11.4744 14.8559 11.5215 14.4935 11.5215V11.5206ZM14.9191 6.75094H5.6582V17.25H8.28934V13.8342H13.1383L15.4391 17.25H18.3855L15.8487 13.8182C16.784 13.6796 17.2039 13.393 17.5502 12.9206C17.8966 12.4483 18.0703 11.6931 18.0703 10.6853V9.89803C18.0703 9.30028 18.007 8.82793 17.8966 8.46591C17.7862 8.10386 17.5975 7.78898 17.3294 7.50613C17.0463 7.23838 16.7311 7.04981 16.3527 6.92347C15.9742 6.81318 15.5014 6.75 14.9191 6.75V6.75094Z"
			fill="url(#paint0_linear_2058_6632)" />
		<path
			d="M33.0215 1.50001C33.0215 7.29899 28.3205 12 22.5215 12C21.3425 12 20.2089 11.8057 19.151 11.4473C19.1736 11.1978 19.1836 10.9427 19.1836 10.6853V9.89803C19.1836 9.22959 19.1138 8.64038 18.9615 8.14103C18.7972 7.60254 18.5156 7.13911 18.1374 6.74014L18.1164 6.71799L18.0943 6.69702C17.6915 6.31602 17.2348 6.04403 16.7049 5.86714L16.6846 5.86035L16.6639 5.85434C16.1596 5.70732 15.5773 5.63636 14.9188 5.63636H13.8051V5.6373H12.868C12.3232 4.36773 12.0215 2.9691 12.0215 1.50001C12.0215 -4.29899 16.7225 -9 22.5215 -9C28.3205 -9 33.0215 -4.29899 33.0215 1.50001Z"
			fill="url(#paint1_linear_2058_6632)" />
	</g>
	<path
		d="M17.4307 1.6582H6.61248C3.88871 1.6582 1.68066 3.86625 1.68066 6.59002V17.4082C1.68066 20.132 3.88871 22.34 6.61248 22.34H17.4307C20.1544 22.34 22.3625 20.132 22.3625 17.4082V6.59002C22.3625 3.86625 20.1544 1.6582 17.4307 1.6582Z"
		stroke="url(#paint2_linear_2058_6632)" stroke-width="2" />
	<defs>
		<linearGradient id="paint0_linear_2058_6632" x1="12.0218" y1="6.75" x2="12.0218" y2="17.25"
			gradientUnits="userSpaceOnUse">
			<stop stop-color="#FFEAA6" />
			<stop offset="0.35" stop-color="#EEDC7A" />
			<stop offset="0.69" stop-color="#DAAF41" />
			<stop offset="1" stop-color="#FFC737" />
		</linearGradient>
		<linearGradient id="paint1_linear_2058_6632" x1="22.5215" y1="-9" x2="22.5215" y2="12"
			gradientUnits="userSpaceOnUse">
			<stop stop-color="#FFEAA6" />
			<stop offset="0.35" stop-color="#EEDC7A" />
			<stop offset="0.69" stop-color="#DAAF41" />
			<stop offset="1" stop-color="#FFC737" />
		</linearGradient>
		<linearGradient id="paint2_linear_2058_6632" x1="12.0216" y1="1.6582" x2="12.0216" y2="22.34"
			gradientUnits="userSpaceOnUse">
			<stop stop-color="#FFEAA6" />
			<stop offset="0.35" stop-color="#EEDC7A" />
			<stop offset="0.69" stop-color="#DAAF41" />
			<stop offset="1" stop-color="#FFC737" />
		</linearGradient>
	</defs>
</svg>