<svg width="10" height="10" viewBox="0 0 10 10" fill="none" xmlns="http://www.w3.org/2000/svg">
  <path
    d="M5 6.36364C5.37879 6.36364 5.70076 6.23106 5.96591 5.96591C6.23106 5.70076 6.36364 5.37879 6.36364 5C6.36364 4.62121 6.23106 4.29924 5.96591 4.03409C5.70076 3.76894 5.37879 3.63636 5 3.63636C4.62121 3.63636 4.29924 3.76894 4.03409 4.03409C3.76894 4.29924 3.63636 4.62121 3.63636 5C3.63636 5.37879 3.76894 5.70076 4.03409 5.96591C4.29924 6.23106 4.62121 6.36364 5 6.36364ZM5 7.27273C4.37121 7.27273 3.83523 7.05114 3.39205 6.60795C2.94886 6.16477 2.72727 5.62879 2.72727 5C2.72727 4.37121 2.94886 3.83523 3.39205 3.39205C3.83523 2.94886 4.37121 2.72727 5 2.72727C5.62879 2.72727 6.16477 2.94886 6.60795 3.39205C7.05114 3.83523 7.27273 4.37121 7.27273 5C7.27273 5.62879 7.05114 6.16477 6.60795 6.60795C6.16477 7.05114 5.62879 7.27273 5 7.27273ZM0.454545 5.45455C0.325758 5.45455 0.217803 5.41098 0.130682 5.32386C0.0435606 5.23674 0 5.12879 0 5C0 4.87121 0.0435606 4.76326 0.130682 4.67614C0.217803 4.58902 0.325758 4.54545 0.454545 4.54545H1.36364C1.49242 4.54545 1.60038 4.58902 1.6875 4.67614C1.77462 4.76326 1.81818 4.87121 1.81818 5C1.81818 5.12879 1.77462 5.23674 1.6875 5.32386C1.60038 5.41098 1.49242 5.45455 1.36364 5.45455H0.454545ZM8.63636 5.45455C8.50758 5.45455 8.39962 5.41098 8.3125 5.32386C8.22538 5.23674 8.18182 5.12879 8.18182 5C8.18182 4.87121 8.22538 4.76326 8.3125 4.67614C8.39962 4.58902 8.50758 4.54545 8.63636 4.54545H9.54545C9.67424 4.54545 9.7822 4.58902 9.86932 4.67614C9.95644 4.76326 10 4.87121 10 5C10 5.12879 9.95644 5.23674 9.86932 5.32386C9.7822 5.41098 9.67424 5.45455 9.54545 5.45455H8.63636ZM5 1.81818C4.87121 1.81818 4.76326 1.77462 4.67614 1.6875C4.58902 1.60038 4.54545 1.49242 4.54545 1.36364V0.454545C4.54545 0.325758 4.58902 0.217803 4.67614 0.130682C4.76326 0.0435606 4.87121 0 5 0C5.12879 0 5.23674 0.0435606 5.32386 0.130682C5.41098 0.217803 5.45455 0.325758 5.45455 0.454545V1.36364C5.45455 1.49242 5.41098 1.60038 5.32386 1.6875C5.23674 1.77462 5.12879 1.81818 5 1.81818ZM5 10C4.87121 10 4.76326 9.95644 4.67614 9.86932C4.58902 9.7822 4.54545 9.67424 4.54545 9.54545V8.63636C4.54545 8.50758 4.58902 8.39962 4.67614 8.3125C4.76326 8.22538 4.87121 8.18182 5 8.18182C5.12879 8.18182 5.23674 8.22538 5.32386 8.3125C5.41098 8.39962 5.45455 8.50758 5.45455 8.63636V9.54545C5.45455 9.67424 5.41098 9.7822 5.32386 9.86932C5.23674 9.95644 5.12879 10 5 10ZM2.11364 2.75L1.625 2.27273C1.53409 2.18939 1.49053 2.08333 1.49432 1.95455C1.49811 1.82576 1.54167 1.71591 1.625 1.625C1.71591 1.53409 1.82576 1.48864 1.95455 1.48864C2.08333 1.48864 2.18939 1.53409 2.27273 1.625L2.75 2.11364C2.83333 2.20455 2.875 2.31061 2.875 2.43182C2.875 2.55303 2.83333 2.65909 2.75 2.75C2.66667 2.84091 2.5625 2.88447 2.4375 2.88068C2.3125 2.87689 2.20455 2.83333 2.11364 2.75ZM7.72727 8.375L7.25 7.88636C7.16667 7.79545 7.125 7.6875 7.125 7.5625C7.125 7.4375 7.16667 7.33333 7.25 7.25C7.33333 7.15909 7.4375 7.11553 7.5625 7.11932C7.6875 7.12311 7.79545 7.16667 7.88636 7.25L8.375 7.72727C8.46591 7.81061 8.50947 7.91667 8.50568 8.04545C8.50189 8.17424 8.45833 8.28409 8.375 8.375C8.28409 8.46591 8.17424 8.51136 8.04545 8.51136C7.91667 8.51136 7.81061 8.46591 7.72727 8.375ZM7.25 2.75C7.15909 2.66667 7.11553 2.5625 7.11932 2.4375C7.12311 2.3125 7.16667 2.20455 7.25 2.11364L7.72727 1.625C7.81061 1.53409 7.91667 1.49053 8.04545 1.49432C8.17424 1.49811 8.28409 1.54167 8.375 1.625C8.46591 1.71591 8.51136 1.82576 8.51136 1.95455C8.51136 2.08333 8.46591 2.18939 8.375 2.27273L7.88636 2.75C7.79545 2.83333 7.68939 2.875 7.56818 2.875C7.44697 2.875 7.34091 2.83333 7.25 2.75ZM1.625 8.375C1.53409 8.28409 1.48864 8.17424 1.48864 8.04545C1.48864 7.91667 1.53409 7.81061 1.625 7.72727L2.11364 7.25C2.20455 7.16667 2.3125 7.125 2.4375 7.125C2.5625 7.125 2.66667 7.16667 2.75 7.25C2.84091 7.33333 2.88447 7.4375 2.88068 7.5625C2.87689 7.6875 2.83333 7.79545 2.75 7.88636L2.27273 8.375C2.18939 8.46591 2.08333 8.50947 1.95455 8.50568C1.82576 8.50189 1.71591 8.45833 1.625 8.375Z"
    fill="currentColor" />
</svg>