<svg width="25" height="20" viewBox="0 0 25 20" fill="none" xmlns="http://www.w3.org/2000/svg">
	<path fill-rule="evenodd" clip-rule="evenodd"
		d="M23.2628 0.0467681H23.0292V0.0934628H22.8423V0.140157H22.7488V0.186926H22.6087V0.23362H22.4684V0.280388H22.375V0.327083H22.2348V0.373851H22.1413V0.420546H22.0011V0.467314H21.861V0.514008H21.7675V0.560777H21.6273V0.607471H21.5339V0.654166H21.3936V0.700934H21.2535V0.747702H21.16V0.794397H21.0199V0.841091H20.9264V0.887859H20.7862V0.934554H20.646V0.981322H20.5526V1.02802H20.4124V1.07478H20.2722V1.12148H20.1787V1.16825H20.0385V1.21494H19.9451V1.26171H19.8049V1.3084H19.6647V1.3551H19.5712V1.40187H19.4311V1.44856H19.3376V1.49533H19.1975V1.54203H19.0572V1.58879H18.9638V1.63549H18.8236V1.68226H18.7301V1.72895H18.5899V1.77572H18.4498V1.82241H18.3563V1.86918H18.2161V1.91588H18.0759V1.96264H17.9824V2.00934H17.8423V2.05603H17.7488V2.1028H17.6087V2.1495H17.4684V2.19626H17.375V2.24296H17.2348V2.28973H17.1413V2.33642H17.0012V2.38319H16.861V2.42988H16.7675V2.47665H16.6273V2.52335H16.4871V2.57012H16.3937V2.61681H16.2535V2.66358H16.16V2.71027H16.0199V2.75697H15.8796V2.80374H15.7862V2.85043H15.646V2.8972H15.5526V2.94389H15.4124V2.99066H15.2722V3.03736H15.1787V3.08412H15.0385V3.13082H14.9451V3.17759H14.8049V3.22428H14.6647V3.27105H14.5712V3.31774H14.4311V3.36451H14.2909V3.41121H14.1975V3.4579H14.0572V3.50467H13.9638V3.55136H13.8236V3.59813H13.6834V3.64483H13.59V3.69159H13.4498V3.73829H13.3563V3.78506H13.2161V3.83175H13.0759V3.87852H12.9824V3.92522H12.8423V3.97198H12.7021V4.01868H12.6087V4.06545H12.4684V4.11214H12.375V4.15883H12.2348V4.2056H12.0947V4.2523H12.0012V4.29907H11.861V4.34576H11.7675V4.39253H11.6273V4.43922H11.4872V4.48599H11.3937V4.53269H11.2535V4.57945H11.16V4.62615H11.0199V4.67292H10.8796V4.71961H10.7862V4.76638H10.646V4.81307H10.5526V4.85977H10.4124V4.90654H10.2722V4.95323H10.1787V5H10.0385V5.04669H9.89839V5.09346H9.80493V5.14016H9.66469V5.18693H9.57123V5.23362H9.43108V5.28039H9.29092V5.32708H9.19745V5.37385H9.05722V5.42055H8.96376V5.46731H8.8236V5.51401H8.68345V5.5607H8.58998V5.60747H8.44975V5.65417H8.3096V5.70093H8.21613V5.74763H8.07597V5.7944H7.98251V5.84109H7.84228V5.88786H7.70212V5.93455H7.60866V5.98132H7.46843V6.02802H7.37504V6.07478H7.23481V6.12148H7.09465V6.16825H7.00119V6.21494H6.86096V6.26164H6.7675V6.3084H6.62734V6.3551H6.48718V6.40187H6.39372V6.44856H6.25349V6.49533H6.11333V6.54203H6.01987V6.58879H5.87971V6.63549H5.78625V6.68226H5.64602V6.72895H5.50586V6.77572H5.4124V6.82241H5.27224V6.86918H5.17878V6.91588H5.03855V6.96257H4.89839V7.00934H4.80493V7.05603H4.66469V7.1028H4.57131V7.1495H4.43107V7.19626H4.29092V7.24296H4.19745V7.28973H4.05722V7.33642H3.91707V7.38319H3.8236V7.42988H3.68345V7.47665H3.58998V7.52335H3.44975V7.57004H3.3096V7.61681H3.21613V7.66351H3.07597V7.71027H2.98251V7.75697H2.84228V7.80374H2.70212V7.85043H2.60866V7.8972H2.4685V7.94389H2.37504V7.99066H2.23481V8.03736H2.09465V8.08412H2.00119V8.13082H1.86096V8.17759H1.7208V8.22428H1.62734V8.27098H1.48718V8.31774H1.39372V8.36444H1.30026V8.41121H1.20679V8.4579H1.11333V8.50467H1.06664V8.55136H0.973173V8.59813H0.926405V8.64483H0.832942V8.6916H0.786248V8.73829H0.73948V8.78506H0.692785V8.83175H0.646017V8.87852H0.599322V8.97191H0.552628V9.06537H0.505859V9.43922H0.552628V9.53269H0.599322V9.57945H0.646017V9.62615H0.692785V9.67284H0.73948V9.71961H0.786248V9.76631H0.87971V9.81307H0.926405V9.85977H1.06664V9.90654H1.16003V9.95323H1.25356V10H1.39372V10.0467H1.58064V10.0935H1.7208V10.1402H1.86096V10.1869H2.00119V10.2336H2.14135V10.2804H2.32827V10.3271H2.4685V10.3738H2.60866V10.4205H2.74882V10.4672H2.88905V10.514H3.07597V10.5607H3.21613V10.6075H3.35636V10.6542H3.49652V10.7009H3.68345V10.7476H3.8236V10.7944H3.96376V10.8411H4.10399V10.8879H4.24415V10.9346H4.43107V10.9813H4.57131V11.028H4.71146V11.0747H4.85162V11.1215H5.03855V11.1682H5.17878V11.2149H5.31893V11.2616H5.45909V11.3084H5.59932V11.3551H5.78625V11.4019H5.92641V11.4486H6.06656V11.4953H6.20679V11.542H6.34695V11.5888H6.53388V11.6355H6.67411V11.6823H6.86096V11.6355H6.95442V11.5888H7.00119V11.542H7.09465V11.4953H7.14135V11.4486H7.23481V11.4019H7.32827V11.3551H7.37504V11.3084H7.46843V11.2616H7.5152V11.2149H7.60866V11.1682H7.70212V11.1215H7.74882V11.0747H7.84228V11.028H7.88905V10.9813H7.98251V10.9346H8.07597V10.8879H8.12267V10.8411H8.21613V10.7944H8.26283V10.7476H8.35629V10.7009H8.44975V10.6542H8.49652V10.6075H8.58998V10.5607H8.63668V10.514H8.73014V10.4672H8.8236V10.4205H8.8703V10.3738H8.96376V10.3271H9.01053V10.2804H9.10399V10.2336H9.19745V10.1869H9.24415V10.1402H9.33761V10.0935H9.38438V10.0467H9.47784V10H9.57123V9.95323H9.618V9.90654H9.71146V9.85977H9.75816V9.81307H9.85162V9.76631H9.94508V9.71961H9.99185V9.67284H10.0853V9.62615H10.132V9.57945H10.2255V9.53269H10.3189V9.48599H10.3656V9.43922H10.4591V9.39253H10.5059V9.34576H10.5993V9.29907H10.6928V9.2523H10.7395V9.2056H10.8329V9.15884H10.8796V9.11214H10.9731V9.06537H11.0666V9.01868H11.1133V8.97191H11.2068V8.92521H11.2535V8.87852H11.347V8.83175H11.4404V8.78506H11.4872V8.73829H11.5806V8.6916H11.6273V8.64483H11.7208V8.59813H11.8143V8.55136H11.861V8.50467H11.9544V8.4579H12.0012V8.41121H12.0947V8.36444H12.1881V8.31774H12.2348V8.27098H12.3283V8.22428H12.375V8.17759H12.4684V8.13082H12.5619V8.08412H12.6087V8.03736H12.7021V7.99066H12.7488V7.94389H12.8423V7.8972H12.9357V7.85043H12.9824V7.80374H13.0759V7.75697H13.1227V7.71027H13.2161V7.66351H13.3096V7.61681H13.3563V7.57004H13.4498V7.52335H13.4965V7.47665H13.59V7.42988H13.6834V7.38319H13.7301V7.33642H13.8236V7.28973H13.8703V7.24296H13.9638V7.19626H14.0572V7.1495H14.104V7.1028H14.1975V7.05603H14.2442V7.00934H14.3376V6.96257H14.3843V6.91588H14.4778V6.86918H14.5712V6.82241H14.618V6.77572H14.7115V6.72895H14.7582V6.68226H14.8516V6.63549H14.9451V6.58879H14.9919V6.54203H15.0852V6.49533H15.132V6.44856H15.2255V6.40187H15.3189V6.3551H15.3656V6.3084H15.4591V6.26164H15.5059V6.21494H15.5993V6.16825H15.6928V6.12148H15.7395V6.07478H15.8329V6.02802H15.8796V5.98132H15.9731V5.93455H16.0666V5.88786H16.1133V5.84109H16.2068V5.7944H16.2535V5.74763H16.347V5.70093H16.4404V5.65417H16.4871V5.60747H16.5806V5.5607H16.6273V5.51401H16.7208V5.46731H16.8143V5.42055H16.861V5.37385H16.9544V5.32708H17.0012V5.28039H17.0947V5.23362H17.188V5.18693H17.2348V5.14016H17.3283V5.09346H17.375V5.04669H17.4684V5H17.5619V4.95323H17.6087V4.90654H17.7021V4.85977H17.7488V4.81307H17.8423V4.76638H17.9357V4.71961H17.9824V4.67292H18.0759V4.62615H18.1227V4.57945H18.2161V4.53269H18.3096V4.48599H18.3563V4.43922H18.4498V4.39253H18.4965V4.34576H18.5899V4.29907H18.6834V4.2523H18.7301V4.2056H18.8236V4.15883H18.8703V4.11214H18.9638V4.06545H19.0572V4.01868H19.104V3.97198H19.1975V3.92522H19.2442V3.87852H19.3376V3.83175H19.4311V3.78506H19.4778V3.73829H19.5712V3.69159H19.6647V3.64483H19.8516V3.59813H20.0852V3.64483H20.1787V3.69159H20.2255V3.87852H20.1787V3.92522H20.132V3.97198H20.0852V4.01868H20.0385V4.06545H19.9918V4.11214H19.9451V4.15883H19.8984V4.2056H19.8516V4.2523H19.8049V4.29907H19.7115V4.34576H19.6647V4.39253H19.618V4.43922H19.5712V4.48599H19.5245V4.53269H19.4778V4.57945H19.4311V4.62615H19.3843V4.67292H19.2908V4.71961H19.2442V4.76638H19.1975V4.81307H19.1507V4.85977H19.104V4.90654H19.0572V4.95323H19.0105V5H18.9638V5.04669H18.9171V5.09346H18.8236V5.14016H18.7768V5.18693H18.7301V5.23362H18.6834V5.28039H18.6367V5.32708H18.5899V5.37385H18.5432V5.42055H18.4965V5.46731H18.4498V5.51401H18.3563V5.5607H18.3096V5.60747H18.2628V5.65417H18.2161V5.70093H18.1694V5.74763H18.1227V5.7944H18.0759V5.84109H18.0292V5.88786H17.9824V5.93455H17.889V5.98132H17.8423V6.02802H17.7956V6.07478H17.7488V6.12148H17.7021V6.16825H17.6554V6.21494H17.6087V6.26164H17.5619V6.3084H17.5152V6.3551H17.4217V6.40187H17.375V6.44856H17.3283V6.49533H17.2815V6.54203H17.2348V6.58879H17.188V6.63549H17.1413V6.68226H17.0947V6.72895H17.0012V6.77572H16.9544V6.82241H16.9077V6.86918H16.861V6.91588H16.8143V6.96257H16.7675V7.00934H16.7208V7.05603H16.674V7.1028H16.6273V7.1495H16.5339V7.19626H16.4871V7.24296H16.4404V7.28973H16.3937V7.33642H16.347V7.38319H16.3003V7.42988H16.2535V7.47665H16.2068V7.52335H16.16V7.57004H16.0666V7.61681H16.0199V7.66351H15.9731V7.71027H15.9264V7.75697H15.8796V7.80374H15.8329V7.85043H15.7862V7.8972H15.7395V7.94389H15.6928V7.99066H15.5993V8.03736H15.5526V8.08412H15.5059V8.13082H15.4591V8.17759H15.4124V8.22428H15.3656V8.27098H15.3189V8.31774H15.2722V8.36444H15.1787V8.41121H15.132V8.4579H15.0852V8.50467H15.0385V8.55136H14.9919V8.59813H14.9451V8.64483H14.8984V8.6916H14.8516V8.73829H14.8049V8.78506H14.7115V8.83175H14.6647V8.87852H14.618V8.92521H14.5712V8.97191H14.5245V9.01868H14.4778V9.06537H14.4311V9.11214H14.3843V9.15884H14.3376V9.2056H14.2442V9.2523H14.1975V9.29907H14.1507V9.34576H14.104V9.39253H14.0572V9.43922H14.0105V9.48599H13.9638V9.53269H13.9171V9.57945H13.8703V9.62615H13.7768V9.67284H13.7301V9.71961H13.6834V9.76631H13.6367V9.81307H13.59V9.85977H13.5432V9.90654H13.4965V9.95323H13.4498V10H13.4031V10.0467H13.3096V10.0935H13.2628V10.1402H13.2161V10.1869H13.1694V10.2336H13.1227V10.2804H13.0759V10.3271H13.0292V10.3738H12.9824V10.4205H12.9357V10.4672H12.8423V10.514H12.7956V10.5607H12.7488V10.6075H12.7021V10.6542H12.6554V10.7009H12.6087V10.7476H12.5619V10.7944H12.5152V10.8411H12.4217V10.8879H12.375V10.9346H12.3283V10.9813H12.2815V11.028H12.2348V11.0747H12.1881V11.1215H12.1413V11.1682H12.0947V11.2149H12.0479V11.2616H11.9544V11.3084H11.9077V11.3551H11.861V11.4019H11.8143V11.4486H11.7675V11.4953H11.7208V11.542H11.674V11.5888H11.6273V11.6355H11.5806V11.6823H11.4872V11.729H11.4404V11.7756H11.3937V11.8224H11.347V11.8691H11.3003V11.9159H11.2535V11.9626H11.2068V12.0093H11.16V12.056H11.1133V12.1028H11.0199V12.1495H10.9731V12.1963H10.9264V12.243H10.8796V12.2897H10.8329V12.3364H10.7862V12.3832H10.7395V12.4299H10.6928V12.4766H10.5993V12.5233H10.5526V12.57H10.5059V12.6168H10.4591V12.6635H10.4124V12.7103H10.3656V12.757H10.3189V12.8037H10.2722V12.8504H10.2255V12.8972H10.132V12.9439H10.0853V12.9907H10.0385V13.0374H9.99185V13.0841H9.94508V13.1308H9.89839V13.2243H9.85162V13.8784H9.80493V14.5327H9.75816V15.1869H9.71146V15.8411H9.66469V16.4953H9.618V17.1495H9.57123V17.8504H9.52454V18.5047H9.47784V18.7383H9.85162V18.6916H9.99185V18.6448H10.0853V18.5981H10.1787V18.5514H10.2722V18.5047H10.3189V18.4579H10.3656V18.4112H10.4124V18.3644H10.4591V18.3177H10.5059V18.271H10.5526V18.2243H10.646V18.1775H10.6928V18.1308H10.7395V18.0841H10.7862V18.0374H10.8329V17.9907H10.8796V17.9439H10.9264V17.8972H10.9731V17.8504H11.0199V17.8037H11.0666V17.757H11.1133V17.7103H11.16V17.6635H11.2068V17.6168H11.2535V17.57H11.3003V17.5233H11.347V17.4766H11.3937V17.4299H11.4404V17.3831H11.4872V17.3364H11.5339V17.2897H11.5806V17.243H11.6273V17.1963H11.7208V17.1495H11.7675V17.1028H11.8143V17.056H11.861V17.0093H11.9077V16.9626H11.9544V16.9159H12.0012V16.8691H12.0479V16.8224H12.0947V16.7756H12.1413V16.729H12.1881V16.6822H12.2348V16.6355H12.2815V16.5888H12.3283V16.542H12.375V16.4953H12.4217V16.4486H12.4684V16.4019H12.5152V16.3551H12.5619V16.3084H12.6087V16.2616H12.6554V16.2149H12.7488V16.1682H12.7956V16.1215H12.8423V16.0747H12.889V16.028H12.9357V15.9812H12.9824V15.9346H13.0292V15.8879H13.0759V15.8411H13.1227V15.7944H13.1694V15.7476H13.2161V15.7009H13.3096V15.7476H13.4031V15.7944H13.4498V15.8411H13.4965V15.8879H13.59V15.9346H13.6367V15.9812H13.6834V16.028H13.7768V16.0747H13.8236V16.1215H13.8703V16.1682H13.9638V16.2149H14.0105V16.2616H14.104V16.3084H14.1507V16.3551H14.1975V16.4019H14.2909V16.4486H14.3376V16.4953H14.3843V16.542H14.4778V16.5888H14.5245V16.6355H14.5712V16.6822H14.6647V16.729H14.7115V16.7756H14.8049V16.8224H14.8516V16.8691H14.8984V16.9159H14.9919V16.9626H15.0385V17.0093H15.0852V17.056H15.1787V17.1028H15.2255V17.1495H15.2722V17.1963H15.3656V17.243H15.4124V17.2897H15.5059V17.3364H15.5526V17.3831H15.5993V17.4299H15.6928V17.4766H15.7395V17.5233H15.7862V17.57H15.8796V17.6168H15.9264V17.6635H16.0199V17.7103H16.0666V17.757H16.1133V17.8037H16.2068V17.8504H16.2535V17.8972H16.3003V17.9439H16.3937V17.9907H16.4404V18.0374H16.4871V18.0841H16.5806V18.1308H16.6273V18.1775H16.7208V18.2243H16.7675V18.271H16.8143V18.3177H16.9077V18.3644H16.9544V18.4112H17.0012V18.4579H17.0947V18.5047H17.1413V18.5514H17.188V18.5981H17.2815V18.6448H17.3283V18.6916H17.4217V18.7383H17.4684V18.785H17.5152V18.8318H17.6087V18.8784H17.6554V18.9252H17.7021V18.9719H17.7956V19.0187H17.8423V19.0654H17.889V19.1121H17.9824V19.1588H18.0292V19.2056H18.1227V19.2523H18.1694V19.2991H18.2161V19.3458H18.3096V19.3925H18.3563V19.4392H18.4031V19.4859H18.4965V19.5327H18.5432V19.5794H18.6367V19.6261H18.6834V19.6728H18.7301V19.7196H18.8236V19.7663H18.9171V19.8131H19.0105V19.8598H19.1507V19.9065H19.2908V19.9532H19.5712V20H19.7582V19.9532H19.9451V19.9065H20.0852V19.8598H20.132V19.8131H20.2255V19.7663H20.2722V19.7196H20.3189V19.6728H20.3656V19.6261H20.4124V19.5794H20.4591V19.4859H20.5059V19.3925H20.5526V19.2991H20.5993V19.2056H20.646V19.1121H20.6927V18.9719H20.7395V18.785H20.7862V18.5514H20.8329V18.3177H20.8796V18.1308H20.9264V17.8972H20.9731V17.6635H21.0199V17.4766H21.0666V17.243H21.1133V17.0093H21.16V16.8224H21.2068V16.5888H21.2535V16.3551H21.3003V16.1682H21.347V15.9346H21.3936V15.7009H21.4404V15.4672H21.4871V15.2803H21.5339V15.0467H21.5806V14.8131H21.6273V14.6261H21.674V14.3925H21.7208V14.1588H21.7675V13.9719H21.8143V13.7383H21.861V13.5047H21.9077V13.3177H21.9544V13.0841H22.0011V12.8504H22.0479V12.6635H22.0946V12.4299H22.1413V12.1963H22.188V12.0093H22.2348V11.7756H22.2815V11.542H22.3283V11.3084H22.375V11.1215H22.4217V10.8879H22.4684V10.6542H22.5152V10.4672H22.5619V10.2336H22.6087V10H22.6554V9.81307H22.7021V9.57945H22.7488V9.34576H22.7955V9.15884H22.8423V8.92521H22.889V8.6916H22.9357V8.50467H22.9824V8.27098H23.0292V8.03736H23.0759V7.80374H23.1227V7.61681H23.1694V7.38319H23.2161V7.1495H23.2628V6.96257H23.3096V6.72895H23.3563V6.49533H23.403V6.3084H23.4498V6.07478H23.4964V5.84109H23.5432V5.65417H23.5899V5.42055H23.6367V5.18693H23.6834V5H23.7301V4.76638H23.7768V4.53269H23.8236V4.34576H23.8703V4.11214H23.9171V3.87852H23.9638V3.64483H24.0105V3.4579H24.0572V3.22428H24.1039V2.99066H24.1507V2.80374H24.1974V2.57012H24.2442V2.33642H24.2908V2.1495H24.3376V1.91588H24.3843V1.68226H24.4311V0.887859H24.3843V0.700934H24.3376V0.607471H24.2908V0.514008H24.2442V0.420546H24.1974V0.373851H24.1507V0.327083H24.1039V0.280388H24.0572V0.23362H24.0105V0.186926H23.9171V0.140157H23.8703V0.0934628H23.7301V0.0467681H23.4964V0H23.2628V0.0467681Z"
		fill="url(#paint0_linear_2058_6630)" />
	<defs>
		<linearGradient id="paint0_linear_2058_6630" x1="12.4685" y1="0" x2="12.4685" y2="20"
			gradientUnits="userSpaceOnUse">
			<stop stop-color="#FFEAA6" />
			<stop offset="0.35" stop-color="#EEDC7A" />
			<stop offset="0.685" stop-color="#DAAF41" />
			<stop offset="1" stop-color="#FFC737" />
		</linearGradient>
	</defs>
</svg>