<svg width="36" height="20" viewBox="0 0 36 20" fill="none" xmlns="http://www.w3.org/2000/svg">
	<path fill-rule="evenodd" clip-rule="evenodd"
		d="M12.1256 1.31266C12.1256 1.42827 12.2735 1.42827 12.3824 1.44296C12.5755 1.46893 12.5293 1.47672 12.6847 1.52776C12.7813 1.55947 12.8892 1.57361 12.9716 1.62788C13.0862 1.70347 13.1963 1.71564 13.3462 1.83385C13.3572 1.84254 13.3574 1.84335 13.3686 1.85293L13.3908 1.87227C13.4734 1.94051 13.589 2.01063 13.6541 2.10663C13.7995 2.32102 13.8325 2.34941 13.9401 2.60848C13.9632 2.66409 13.9858 2.68791 14.004 2.73806C14.0593 2.89048 14.0818 3.04675 14.1219 3.20078C14.1744 3.40201 14.1697 3.68338 14.2092 3.88765C14.2475 4.0861 14.2303 4.05619 14.2404 4.24344C14.244 4.30971 14.255 4.33872 14.2545 4.4229C14.2541 4.48093 14.2501 4.55884 14.2564 4.61463L14.2825 6.89813L14.1691 8.12553C14.1538 8.27213 14.1387 8.45195 14.0975 8.59309C14.0349 8.80712 14.0576 8.90777 13.9509 9.10998C13.9204 9.16792 13.9072 9.25345 13.877 9.31255L13.7253 9.56169C13.6927 9.59992 13.6245 9.67219 13.5911 9.70398C13.5052 9.78575 13.294 9.85578 13.1485 9.85578C12.9506 9.85578 12.7681 9.75789 12.6314 9.65401C12.5796 9.6147 12.5348 9.59652 12.4809 9.55569L12.1498 9.27861C12.1284 9.25273 12.1172 9.23374 12.0946 9.2093L11.3216 8.28198C11.2866 8.23147 11.2652 8.17497 11.2236 8.13109C11.1666 8.07091 11.1275 7.98646 11.0716 7.92359C11.0489 7.89798 11.0371 7.8781 11.0194 7.85133C10.9904 7.80727 10.9426 7.74789 10.9209 7.70106C10.9078 7.67294 10.9045 7.65592 10.8836 7.6278L10.1309 6.43138C10.1083 6.39386 10.0988 6.38804 10.0801 6.35777L9.94193 6.13649C9.92384 6.10085 9.92608 6.08741 9.90226 6.05177C9.86447 5.99508 9.83402 5.9718 9.80044 5.90473L9.50098 5.34717C9.47796 5.31449 9.47339 5.3152 9.45235 5.27141C9.37489 5.11004 9.34712 5.10207 9.31981 5.04457C9.30181 5.00678 9.30817 4.99451 9.28632 4.95368C9.25247 4.89054 9.22471 4.8849 9.1965 4.80852C9.163 4.71762 9.17832 4.71108 9.11527 4.64096C9.07023 4.5909 9.06459 4.53896 9.03736 4.4701C9.01327 4.40938 8.97978 4.37141 8.9505 4.30819C8.92023 4.2429 8.91718 4.20475 8.87975 4.14395L8.7165 3.82335C8.68802 3.75189 8.68345 3.70971 8.64647 3.64451C8.6093 3.57905 8.59883 3.56374 8.569 3.48699C8.52987 3.38633 8.47748 3.33538 8.44524 3.23759C8.41291 3.13944 8.35336 3.09395 8.31844 2.99114C8.25906 2.81624 8.19396 2.63741 8.11166 2.47908C8.06697 2.39302 8.06859 2.33857 7.96506 2.14182C7.93453 2.08379 7.93533 2.01896 7.90032 1.95779C7.86056 1.88848 7.84166 1.87111 7.82303 1.7863C7.80351 1.698 7.78023 1.69245 7.73554 1.62502C7.6682 1.52338 7.69453 1.52767 7.59709 1.404C7.25912 0.975225 7.03336 1.01884 6.74634 0.900091C6.6807 0.872957 6.63172 0.856748 6.54082 0.856748H1.61956C1.52947 0.856748 1.38225 0.858807 1.3081 0.877076L0.83553 0.998957L0.695918 1.09433C0.522724 1.19615 0.430664 1.40436 0.430664 1.60326L0.478395 1.83197C0.48941 1.86538 0.504007 1.90469 0.513769 1.93478C0.548067 2.04 0.560157 2.15123 0.614515 2.24875C0.654097 2.31985 0.673799 2.37896 0.705142 2.44845L0.965023 3.0318C1.0158 3.11786 1.0235 3.12627 1.05753 3.22962C1.08162 3.30296 1.12111 3.34272 1.15138 3.41221C1.18434 3.4878 1.18622 3.53087 1.23511 3.60493C1.26314 3.64747 1.26404 3.64129 1.28284 3.69547C1.34347 3.86947 1.39434 3.92042 1.41762 3.9892C1.45273 4.09299 1.50664 4.17341 1.5429 4.27872C1.56735 4.34965 1.61625 4.40275 1.64464 4.46732C1.66049 4.50341 1.66568 4.52875 1.68234 4.5678C1.71771 4.65063 1.75487 4.6689 1.7838 4.75666C1.81514 4.85177 1.83019 4.86538 1.8729 4.94401C1.90926 5.0109 1.91401 5.06678 1.95682 5.13663L2.04771 5.32219C2.07565 5.38765 2.13279 5.42419 2.15849 5.50165C2.17308 5.54562 2.17317 5.55968 2.19494 5.60347C2.21562 5.64529 2.22655 5.65335 2.24634 5.69034C2.28502 5.76269 2.28144 5.8347 2.33455 5.89237C2.40753 5.97162 2.40735 6.07917 2.47452 6.16711C2.51517 6.22031 2.53595 6.29947 2.57356 6.35831C2.59864 6.39762 2.60535 6.39028 2.63141 6.43873C2.66186 6.49532 2.68067 6.56983 2.72132 6.62535C2.77515 6.69888 2.7704 6.74258 2.80756 6.81556C2.84535 6.88971 2.87303 6.91013 2.91073 7.00264L3.20607 7.55052C3.27637 7.65395 3.40944 7.95386 3.44992 8.01171C3.54512 8.14774 3.62186 8.3161 3.70604 8.46055L3.80043 8.64261C3.86974 8.7447 3.88004 8.82288 3.95553 8.91601L3.96762 8.93151C3.97739 8.94485 3.97658 8.94413 3.98419 8.9564C4.039 9.04488 4.0038 9.01577 4.11539 9.18467C4.17682 9.27763 4.25518 9.46246 4.30658 9.54637C4.32673 9.57924 4.34294 9.59634 4.36094 9.63019C4.38145 9.6687 4.38252 9.69064 4.40177 9.72763L4.46482 9.80285C4.50073 9.84163 4.50118 9.84082 4.52688 9.89285L4.78174 10.343C4.8044 10.379 4.82213 10.3927 4.84157 10.4214C4.87846 10.4759 4.90416 10.5543 4.9476 10.6057L5.3213 11.1996C5.34512 11.2361 5.353 11.2585 5.37467 11.2983C5.41103 11.3648 5.44918 11.3954 5.48527 11.4641C5.54115 11.5706 5.62998 11.7189 5.70691 11.8093C5.72957 11.836 5.74398 11.8618 5.76342 11.891L5.93796 12.145C5.959 12.175 5.9744 12.1972 5.99196 12.2293C6.01085 12.2638 6.01882 12.2896 6.04058 12.3189C6.06414 12.3506 6.07649 12.3574 6.10085 12.3968C6.18458 12.5319 6.34184 12.7921 6.44025 12.9007L7.90569 14.8221C7.93506 14.8534 7.94133 14.8698 7.96399 14.902L8.28548 15.2855C8.48447 15.5093 8.67987 15.7373 8.8939 15.9488L9.23223 16.3017C9.26635 16.3344 9.28202 16.3393 9.3156 16.3704L9.90763 16.9118C9.95008 16.9481 9.9319 16.9479 9.97408 16.9836L10.5405 17.4264C10.5673 17.4487 10.5458 17.4307 10.5616 17.4467C10.6598 17.5458 10.7955 17.609 10.9024 17.7004C10.9076 17.7049 10.9243 17.7195 10.9245 17.7197L11.6026 18.1614C11.638 18.1835 11.6526 18.1993 11.6825 18.2198C11.7895 18.2933 11.9439 18.3376 12.0523 18.4167L12.2343 18.5251C12.2943 18.5529 12.3506 18.5907 12.4158 18.62C12.4608 18.6402 12.4637 18.639 12.5067 18.6673C12.5864 18.7198 12.7869 18.8059 12.8876 18.8532C12.9207 18.8688 12.9534 18.8826 12.9842 18.8947C13.0551 18.9228 13.1043 18.958 13.1718 18.9836C13.2483 19.0127 13.3091 19.0304 13.375 19.0707C13.456 19.1202 13.5498 19.134 13.6638 19.1966C13.7085 19.2212 13.7215 19.2228 13.7746 19.2379C13.8522 19.26 13.9208 19.2685 13.9867 19.3022L14.2025 19.3768C14.3445 19.4069 14.3029 19.4486 14.6258 19.5065C14.699 19.5196 14.7562 19.5542 14.8291 19.5796C14.912 19.6087 14.9762 19.6122 15.0644 19.6346C15.2598 19.6842 15.309 19.7173 15.52 19.7459L16.0019 19.8308C16.0917 19.8466 16.1433 19.8728 16.2221 19.887L16.4856 19.9139C16.6443 19.9371 16.8244 19.9761 16.9908 19.9755C17.2299 19.9745 18.8041 20.0147 19.0194 19.9851C19.3097 19.9454 19.4929 19.9925 19.7832 19.9748C19.8963 19.9679 19.9979 19.9297 20.0866 19.8773C20.2258 19.7952 20.4242 19.7718 20.5403 19.6536C20.6306 19.5616 20.7248 19.493 20.7827 19.3569C20.8129 19.2861 20.8138 19.2172 20.8508 19.1484C20.9156 19.0276 20.9318 18.8354 20.9312 18.6898C20.9304 18.5064 20.944 18.3569 20.9442 18.1636C20.9442 18.1066 20.95 18.0849 20.9546 18.0497C20.9608 18.0036 20.9558 17.9629 20.9604 17.9173L21.0608 17.2021C21.0759 17.0979 21.1326 16.9427 21.1712 16.7733C21.2225 16.548 21.2412 16.6038 21.2785 16.4798C21.34 16.2753 21.2982 16.3829 21.3983 16.1987C21.4346 16.1318 21.4379 16.0717 21.4808 16.0046C21.4997 15.9751 21.5116 15.9615 21.5296 15.9289C21.5488 15.8941 21.5605 15.8688 21.5801 15.8412C21.6386 15.7587 21.8629 15.5642 21.9339 15.5176C21.9522 15.5056 21.9562 15.5018 21.973 15.4876C21.9752 15.4858 21.9782 15.4831 21.9804 15.4812C22.1036 15.3758 22.3103 15.3164 22.4791 15.3164C22.6876 15.3164 23.0264 15.4582 23.1726 15.5767L23.3996 15.7368C23.4248 15.7558 23.4273 15.7617 23.4525 15.7806C23.6395 15.9206 23.7349 16.0495 23.8594 16.1477C23.988 16.2491 24.2068 16.5241 24.3223 16.6387L25.1848 17.6147C25.2474 17.6769 25.3228 17.7431 25.378 17.8087L26.0368 18.5321C26.0505 18.5479 26.0477 18.5462 26.0628 18.5614L26.2312 18.7248C26.3284 18.807 26.4113 18.9055 26.5181 18.977L26.7309 19.1513C26.8411 19.2369 27.0703 19.4029 27.1883 19.468C27.2372 19.495 27.2771 19.5034 27.3178 19.532C27.3694 19.5683 27.3599 19.5799 27.4335 19.6098C27.6752 19.7079 27.5658 19.6886 27.8429 19.7672C27.8992 19.7831 27.9252 19.8018 27.9728 19.8308C28.0841 19.8987 28.1572 19.8763 28.2712 19.9195C28.427 19.9785 28.4437 19.9584 28.597 19.9807C28.862 20.0191 29.4008 19.987 29.7227 19.9889C29.8029 19.9893 29.8455 19.9747 29.9023 19.9747C29.9583 19.9747 30.0024 19.9887 30.082 19.9887H33.6208C33.6781 19.9887 33.7444 19.9918 33.8007 19.9888C33.8655 19.9853 33.8853 19.9742 33.9665 19.9749C34.19 19.9767 34.3445 19.8956 34.555 19.8445L34.6815 19.7914C34.723 19.7716 34.7673 19.7608 34.8181 19.7484C34.9373 19.7193 34.9632 19.6756 35.0586 19.6294C35.1371 19.5913 35.1969 19.5333 35.2554 19.4669C35.276 19.4435 35.2745 19.4411 35.2915 19.4201C35.3857 19.303 35.4053 19.2747 35.4664 19.1388C35.5484 18.9567 35.5147 18.7584 35.5147 18.565C35.5147 18.5588 35.4653 18.4556 35.4554 18.4308C35.4183 18.3379 35.4051 18.2197 35.3519 18.1334L34.5669 16.9001C34.5303 16.8473 34.528 16.8254 34.4815 16.7781C34.4151 16.7106 34.3519 16.6282 34.2942 16.5507C34.2644 16.5107 34.2425 16.479 34.2109 16.4405L34.0505 16.2553C34.0492 16.2539 34.0282 16.2288 34.0254 16.2251C33.9918 16.1812 33.9576 16.151 33.9309 16.1123C33.9006 16.0682 33.8865 16.0385 33.8518 15.9978L33.755 15.8872C33.6899 15.8086 33.6057 15.7669 33.5438 15.6837L33.1646 15.261C33.1225 15.2051 33.1141 15.2112 33.0644 15.1677L32.8879 14.9847C32.8716 14.9693 32.8759 14.9746 32.8581 14.9592L32.7069 14.8062C32.705 14.8041 32.7024 14.8009 32.7005 14.7989L32.6601 14.7563C32.5881 14.6891 32.5346 14.6137 32.4625 14.5532L32.1521 14.2552C32.0823 14.1904 32.0006 14.1311 31.94 14.0526C31.8091 13.8829 31.5204 13.6898 31.3194 13.4705L31.101 13.2742C30.9753 13.1532 30.6201 12.8343 30.4944 12.6781C30.3961 12.556 30.2764 12.4443 30.2101 12.3541C30.1714 12.3014 30.1495 12.2882 30.1132 12.2437C30.0751 12.1972 29.9762 12.0395 29.9602 11.9819C29.9279 11.8655 29.8537 11.8331 29.8269 11.7143C29.7477 11.3625 29.7397 11.3538 29.8331 10.9622C29.8408 10.9298 29.8417 10.9054 29.8503 10.8688C29.8666 10.7996 29.9274 10.6932 29.9553 10.6143C29.9828 10.5363 30.006 10.5246 30.0418 10.4658C30.0834 10.3975 30.143 10.2627 30.2083 10.1624L30.5068 9.74213C30.5352 9.70981 30.5311 9.72225 30.5563 9.68106L30.7007 9.46604C30.7409 9.40488 30.7729 9.39019 30.8084 9.33879C30.8446 9.28649 30.8612 9.24458 30.899 9.19434L31.2133 8.78983C31.2984 8.68219 31.3947 8.57571 31.4644 8.46037C31.4729 8.44622 31.4727 8.44425 31.4864 8.42715L31.6158 8.25234C31.6803 8.1627 31.7704 8.08953 31.8232 7.98986C31.8621 7.91652 31.8917 7.91168 31.9341 7.85186C31.9964 7.7641 32.0606 7.66246 32.1317 7.57944C32.1568 7.55016 32.1619 7.5507 32.1821 7.51927L32.3367 7.31455C32.4742 7.13231 32.6015 6.94541 32.7463 6.77034L33.3402 5.95416C33.3978 5.89613 33.399 5.88753 33.4414 5.82037L33.6378 5.53299C33.6703 5.49753 33.6592 5.51159 33.6851 5.46968C33.7605 5.34834 33.8604 5.24455 33.9288 5.11899C33.9601 5.06168 33.9854 5.02729 34.0185 4.97374L34.5683 4.09971C34.5901 4.0681 34.5984 4.06317 34.6151 4.03595C34.6316 4.00908 34.6412 3.98087 34.6576 3.95401C34.6869 3.9061 34.729 3.86974 34.754 3.81547C34.7843 3.74983 34.7919 3.72251 34.831 3.65741L35.2231 2.86075C35.2536 2.80281 35.2593 2.75221 35.2847 2.68738C35.3352 2.55878 35.3828 2.49878 35.4076 2.34018C35.4232 2.24042 35.5142 2.03597 35.5142 1.96299C35.5142 1.35045 35.542 1.64006 35.4271 1.37275C35.3875 1.28069 35.4051 1.28391 35.3267 1.22436C35.2129 1.13794 35.2388 1.13561 35.1019 1.07588C34.9981 1.03057 34.9766 0.987942 34.8392 0.965375L34.4272 0.879673C34.3617 0.863643 34.2635 0.857016 34.1872 0.857016H28.1463C27.9734 0.857016 27.9207 0.928927 27.7814 0.962151C27.6978 0.982031 27.6761 0.98633 27.6287 1.04445C27.496 1.20752 27.5173 1.11761 27.3694 1.36576C27.3501 1.39827 27.3356 1.40758 27.3146 1.43526L27.1705 1.77493C27.1444 1.83932 27.1386 1.89421 27.1101 1.94956C27.0797 2.00848 27.0521 2.02845 27.0326 2.10699C27.0138 2.18257 27.0032 2.2243 26.9708 2.28027C26.9143 2.37815 26.8849 2.51275 26.8283 2.62156C26.7744 2.72526 26.7467 2.84418 26.6867 2.94994C26.6538 3.0078 26.6475 3.06878 26.6203 3.13236C26.593 3.19586 26.5668 3.20696 26.5366 3.28371C26.4862 3.41203 26.436 3.48081 26.3959 3.61308C26.3727 3.68965 26.3518 3.70872 26.3135 3.76568C26.2765 3.82084 26.2797 3.86992 26.2436 3.93072C26.1986 4.00657 26.1909 3.97523 26.1573 4.07938L25.86 4.73589C25.762 4.89717 25.599 5.1841 25.528 5.35774C25.4934 5.44219 25.4423 5.50219 25.4005 5.58959C25.3793 5.63383 25.3751 5.63249 25.3519 5.66553C25.3157 5.71702 25.3032 5.76681 25.2736 5.82207C25.2435 5.87813 25.2015 5.8972 25.1695 5.95299L24.7348 6.69332C24.696 6.751 24.6762 6.78404 24.6399 6.84726L24.2563 7.41753C24.2103 7.47816 24.2004 7.48434 24.1608 7.55697C24.1293 7.61482 24.0985 7.6321 24.0639 7.69506C23.982 7.84443 23.9101 7.91061 23.8154 8.041C23.7157 8.1781 23.6216 8.32595 23.5114 8.45589C23.4345 8.54661 23.1948 8.8527 23.1282 8.90213C23.1112 8.91476 22.8823 9.18485 22.7787 9.27145C22.7005 9.33691 22.5952 9.4424 22.5175 9.49407C22.4595 9.53267 22.4395 9.56795 22.3867 9.59822C22.1371 9.74106 21.9665 9.85318 21.6687 9.76766C21.5591 9.73613 21.4448 9.61076 21.3506 9.53285C21.304 9.49425 21.3106 9.47536 21.2809 9.42288C21.2511 9.3704 21.2244 9.36736 21.1984 9.32563C21.1625 9.26778 21.1593 9.19022 21.1179 9.12969C21.0647 9.05204 21.0714 9.01837 21.0464 8.9247C21.0074 8.77846 20.9651 8.81509 20.9326 8.48562C20.8806 7.95897 20.8752 7.82509 20.8752 7.28509C20.8752 6.74141 20.9167 6.20616 20.9167 5.66768C20.9167 5.48338 20.9167 5.29908 20.9167 5.11469C20.9167 4.57084 20.9611 4.04069 20.9579 3.49711C20.957 3.32015 20.9858 3.16424 20.9858 2.97197V2.08729L20.9314 1.50582C20.9166 1.3989 20.9036 1.34096 20.8654 1.254C20.8298 1.17314 20.8181 1.0869 20.7864 1.0012C20.7617 0.934389 20.6993 0.86821 20.6598 0.809733C20.6364 0.774897 20.6198 0.756359 20.5947 0.722777C20.4239 0.493792 20.4274 0.554508 20.2347 0.433075C20.1122 0.355881 20.0152 0.350777 19.8915 0.292568C19.749 0.225582 19.5186 0.237403 19.3685 0.179642C19.1481 0.0947464 18.752 0.0758509 18.5117 0.0548956C18.3259 0.0386866 18.0922 0 17.9169 0H15.6775C15.3098 0 14.9611 0.0619702 14.6818 0.0687762L14.2615 0.104597C14.2161 0.111045 14.1541 0.114627 14.1251 0.120269L13.8804 0.179732C13.7631 0.219314 13.6146 0.215015 13.4959 0.251373C13.4617 0.261851 13.4265 0.278239 13.3896 0.297135C13.3175 0.333941 13.2357 0.345314 13.1575 0.369135C13.0719 0.395195 13.0311 0.433344 12.9455 0.461284C12.8516 0.491822 12.795 0.556747 12.7126 0.601613L12.4287 0.815374C12.4245 0.820479 12.4166 0.830419 12.4101 0.83821C12.3829 0.87036 12.3648 0.886927 12.3357 0.915852C12.2333 1.0174 12.1249 1.15863 12.1249 1.31329L12.1256 1.31266Z"
		fill="url(#paint0_linear_2058_6631)" />
	<defs>
		<linearGradient id="paint0_linear_2058_6631" x1="17.9761" y1="0" x2="17.9761" y2="19.9997"
			gradientUnits="userSpaceOnUse">
			<stop stop-color="#FFEAA6" />
			<stop offset="0.35" stop-color="#EEDC7A" />
			<stop offset="0.685" stop-color="#DAAF41" />
			<stop offset="1" stop-color="#FFC737" />
		</linearGradient>
	</defs>
</svg>