<?xml version="1.0" standalone="no"?>
<!DOCTYPE svg PUBLIC "-//W3C//DTD SVG 20010904//EN"
 "http://www.w3.org/TR/2001/REC-SVG-20010904/DTD/svg10.dtd">
<svg version="1.0" xmlns="http://www.w3.org/2000/svg"
 width="700.000000pt" height="700.000000pt" viewBox="0 0 700.000000 700.000000"
 preserveAspectRatio="xMidYMid meet">
<metadata>
Created by potrace 1.14, written by Peter Selinger 2001-2017
</metadata>
<g transform="translate(0.000000,700.000000) scale(0.100000,-0.100000)"
fill="#000000" stroke="none">
<path d="M5425 6980 c-120 -55 -182 -184 -172 -354 6 -112 25 -165 147 -406
49 -98 107 -220 128 -272 81 -193 145 -430 161 -588 12 -133 5 -399 -13 -450
-3 -8 -7 -26 -10 -40 -14 -82 -86 -238 -143 -310 -78 -98 -179 -172 -285 -210
-80 -28 -102 -32 -218 -37 -82 -4 -128 0 -210 17 -57 12 -110 26 -117 32 -7 6
-13 8 -13 5 0 -9 -137 50 -209 90 -202 110 -343 253 -622 628 -57 77 -109 146
-116 155 -7 8 -57 76 -113 150 -55 74 -106 142 -113 150 -35 42 -198 287 -307
460 -159 254 -200 296 -327 339 -133 45 -254 9 -318 -94 -28 -45 -30 -55 -30
-139 1 -81 4 -99 32 -159 30 -63 105 -170 172 -246 70 -77 143 -155 291 -311
218 -229 243 -257 372 -410 184 -217 363 -495 470 -725 63 -137 140 -381 163
-515 3 -19 8 -42 10 -50 11 -39 34 -189 43 -285 15 -152 6 -576 -14 -679 -2
-12 -6 -39 -9 -61 -3 -22 -7 -51 -10 -65 -3 -14 -8 -41 -11 -60 -3 -19 -8 -44
-11 -55 -7 -22 -9 -27 -16 -66 -12 -63 -82 -283 -124 -389 -63 -161 -183 -392
-284 -545 -301 -458 -744 -847 -1224 -1075 -170 -81 -213 -100 -228 -100 -7 0
-17 -4 -22 -9 -12 -10 -228 -81 -335 -110 -105 -28 -269 -59 -400 -76 -86 -12
-243 -23 -342 -24 -54 -1 -81 -5 -92 -16 -17 -17 -12 -40 10 -49 66 -26 652
-27 779 -2 19 3 118 17 160 21 70 8 323 70 426 105 657 222 1324 609 1854
1074 150 132 359 339 475 471 29 33 67 76 84 95 17 19 53 62 79 95 26 33 54
67 60 75 175 214 399 566 557 875 173 338 323 723 404 1035 4 14 20 75 36 135
16 61 31 121 34 135 2 14 14 69 25 122 24 116 57 311 66 388 3 30 8 66 10 80
2 14 7 57 11 95 4 39 8 84 10 100 23 222 23 822 0 997 -3 18 -8 67 -11 108 -3
41 -10 107 -16 145 -5 39 -12 88 -15 110 -40 337 -170 587 -355 680 -69 36
-157 42 -214 15z"/>
<path d="M4173 6634 c-185 -32 -321 -164 -379 -369 -24 -86 -28 -314 -7 -425
76 -411 354 -843 688 -1070 435 -295 838 -205 952 214 17 65 24 306 11 381 -4
22 -10 54 -13 70 -13 70 -58 213 -93 293 -89 207 -202 379 -351 535 -110 115
-191 181 -303 248 -177 107 -352 149 -505 123z"/>
</g>
</svg>
