<svg width="90" height="29" viewBox="0 0 90 29" fill="none" xmlns="http://www.w3.org/2000/svg">
<path d="M29.1829 18.6301C29.1829 17.8271 29.7594 16.9197 30.7706 16.9197C31.8359 16.9197 32.3072 17.7919 32.36 18.6301H29.1829ZM34.9262 19.5892C34.9262 16.8668 33.2501 15.0873 30.8411 15.0873C28.2056 15.0873 26.7222 17.2155 26.7222 19.6937C26.7222 22.0132 28.0145 24.2458 31.1561 24.2458C32.22 24.2458 33.4075 24.003 34.629 23.2338L34.0699 21.6469C33.0763 22.1189 32.4291 22.2747 31.5743 22.2747C30.4056 22.2747 29.2886 21.5424 29.2357 20.3558H34.9262V19.5892ZM11.8686 18.6301C11.8686 17.8271 12.4453 16.9197 13.4566 16.9197C14.5229 16.9197 14.9927 17.7919 15.0455 18.6301H11.8686ZM17.6117 19.5892C17.6117 16.8668 15.9358 15.0873 13.5271 15.0873C10.8914 15.0873 9.40817 17.2155 9.40817 19.6937C9.40817 22.0132 10.6999 24.2458 13.8416 24.2458C14.9057 24.2458 16.0918 24.003 17.3148 23.2338L16.7554 21.6469C15.7608 22.1189 15.1148 22.2747 14.2597 22.2747C13.0901 22.2747 11.9729 21.5424 11.92 20.3558H17.6117V19.5892ZM21.9788 22.4007H20.9487V20.2371H21.8567C23.0603 20.2371 23.7066 20.5168 23.7066 21.3022C23.7066 22.1392 22.8515 22.4007 21.9788 22.4007ZM21.0016 16.94H22.0317C23.0603 16.94 23.4456 17.2544 23.4456 17.7956C23.4456 18.4753 22.8175 18.6842 21.7698 18.6842H21.0016V16.94ZM24.3536 19.2746V19.2041C25.1734 19.0304 25.8546 18.4892 25.8546 17.3375C25.8546 15.9632 24.7002 15.4622 23.5656 15.31C23.218 15.2635 22.4562 15.262 22.0317 15.262H18.4391V24.072H21.4564C21.7901 24.072 22.2873 24.0708 22.6753 24.0596C24.2618 23.9842 26.2211 23.4176 26.2211 21.3675C26.2211 20.1116 25.5398 19.4833 24.3536 19.2746ZM80.1372 22.3342H79.2648V19.8748H80.1034C80.9925 19.8748 81.9707 20.0145 81.9707 21.0604C81.9707 22.09 81.1321 22.3342 80.1372 22.3342ZM80.5566 18.1229H79.2648V14.8784L76.7512 15.5515V24.072H79.9634C82.3019 24.072 84.484 23.443 84.484 21.0188C84.484 18.9612 82.7213 18.1229 80.5566 18.1229ZM64.2396 21.8911C63.9992 22.076 63.4966 22.2987 62.8293 22.2987C61.9742 22.2987 61.4932 21.8722 61.4932 21.2062C61.4932 20.5381 62.0119 20.1681 63.0888 20.1304L64.2396 20.0937V21.8911ZM63.1253 15.0873C61.9378 15.0873 60.788 15.2711 59.5819 16.0513L60.3437 17.5717C60.9353 17.2382 61.6971 16.9789 62.5889 16.9789C63.4601 16.9789 64.2396 17.364 64.2396 18.2903V18.44L62.716 18.498C60.492 18.5721 58.99 19.5361 58.99 21.39C58.99 23.1345 60.2492 24.2458 61.9189 24.2458C63.0521 24.2458 63.8303 23.8205 64.4045 23.3006L64.795 24.072H66.7619V18.3505C66.7619 16.0325 65.4635 15.0873 63.1253 15.0873ZM39.2414 22.4323C38.7869 22.4323 38.4383 22.2747 38.1585 22.0836V17.914C38.4559 17.4609 39.2414 16.9197 39.9039 16.9197C40.9163 16.9197 41.5092 17.5653 41.5092 19.38C41.5092 20.8803 40.9516 22.4323 39.2414 22.4323ZM40.4101 15.0873C39.4329 15.0873 38.6826 15.5591 38.0363 16.0653L37.7568 15.262H35.6452V28.3638L38.1585 27.5962V23.8795C38.6131 24.1237 39.2062 24.2458 39.8522 24.2458C42.4527 24.2458 44.0228 22.0308 44.0228 19.414C44.0228 16.6226 42.435 15.0873 40.4101 15.0873ZM68.9088 16.2916C68.9088 19.3612 68.7864 20.967 68.2285 21.6993C67.9487 22.0658 67.5127 22.3104 67.0586 22.3794L67.7568 24.2462C68.3328 24.2291 69.2233 23.9849 69.8341 23.3745C70.6373 22.5891 70.8987 21.595 71.0208 20.5478C71.1256 19.6585 71.1956 18.6118 71.1956 17.6872V17.2507H73.1608V24.0718H75.6749V15.262H68.9088V16.2916ZM56.754 17.2507V24.0718H54.2405V17.2507H51.7972V15.262H59.5119L58.9667 17.2507H56.754ZM48.8885 24.2462C46.0607 24.2462 44.6122 22.1707 44.6122 19.6935C44.6122 16.9197 46.5324 15.0876 49.0981 15.0876C50.2327 15.0876 50.8261 15.3146 51.2973 15.5936V17.583C50.6687 17.1286 50.1622 16.9718 49.4648 16.9718C48.0161 16.9718 47.0842 18.0358 47.0842 19.5714C47.0842 20.9493 47.8063 22.2931 49.43 22.2931C49.8831 22.2931 50.4834 22.0971 51.1291 21.7653L51.7335 23.4087C51.0001 23.8976 49.7788 24.2462 48.8885 24.2462ZM5.89953 24.2462C2.07659 24.2462 0 21.4903 0 18.0358C0 14.5466 2.44378 11.6855 6.45791 11.6855C7.52301 11.6855 8.44759 11.8254 9.25027 12.244V14.4947C8.18566 13.8669 7.3306 13.7439 6.5453 13.7439C3.82246 13.7439 2.81856 15.7506 2.81856 17.8614C2.81856 20.2168 4.08463 22.0831 6.30051 22.0831C7.2787 22.0831 8.06596 21.8123 9.00817 21.3063L9.68674 23.1301C8.27379 24.0197 7.06867 24.2462 5.89953 24.2462Z" fill="#002F6C"/>
<path d="M84.6165 0.567435C84.7747 0.641815 84.9159 0.730385 85.0319 0.83706C85.417 1.18889 85.5979 1.79176 85.6777 2.3819C85.7333 2.80272 85.7575 3.26392 85.7433 3.77088C85.1531 3.85064 84.5042 3.98129 83.8119 4.17311C82.7377 4.47038 81.8472 4.8298 81.1111 5.22347C80.6555 5.46643 80.2589 5.72333 79.9157 5.98708C79.4438 6.34968 79.0132 6.80672 78.8996 7.31759C78.8661 7.47809 78.8599 7.65229 78.8781 7.83408C78.4105 7.19574 78.0546 6.59361 77.7858 6.03699C77.5094 5.44759 77.3175 4.79702 77.4524 4.27489C77.587 3.75228 78.0722 3.27616 78.5973 2.89497C79.0998 2.53188 79.7033 2.17809 80.4247 1.84681C81.136 1.52189 81.9627 1.21899 82.9194 0.954256L82.9191 0.953768C83.5113 0.790329 84.0922 0.660165 84.6165 0.567435ZM79.4558 8.55096C79.4408 8.37676 79.4472 8.21038 79.4812 8.05649C79.5938 7.54758 80.0257 7.08931 80.4971 6.725C80.8342 6.46663 81.2217 6.21511 81.668 5.97411C82.032 6.44486 82.4697 6.94129 82.982 7.44457C83.7766 8.2258 84.5335 8.81691 85.2427 9.25732C85.6811 9.52988 86.1017 9.74494 86.5022 9.91009C87.0522 10.1371 87.6632 10.2813 88.1626 10.1244C88.3188 10.0733 88.4728 9.99132 88.6211 9.88489C88.3019 10.6086 87.958 11.2176 87.6101 11.729C87.2378 12.2628 86.77 12.7541 86.2503 12.8982C85.7298 13.0431 85.0748 12.8613 84.4821 12.5973C83.9162 12.3438 83.3078 11.9986 82.6604 11.5396C82.0227 11.0862 81.347 10.5223 80.6393 9.82642L80.6389 9.82715C80.2014 9.39604 79.798 8.95833 79.4558 8.55096ZM88.9589 9.03883C88.8152 9.13865 88.6681 9.21646 88.5178 9.26368C88.0201 9.421 87.4074 9.27616 86.8559 9.05008C86.4637 8.88787 86.0517 8.67819 85.6199 8.41223C85.8456 7.86173 86.0569 7.23465 86.2368 6.53954C86.5166 5.46105 86.6505 4.51051 86.6774 3.67668C86.6943 3.16092 86.6703 2.68895 86.6131 2.25981C86.535 1.67016 86.3543 1.06925 85.9685 0.715216C85.8461 0.606093 85.6983 0.513609 85.5318 0.438251C86.3186 0.353106 87.0182 0.346011 87.6351 0.39152C88.2838 0.446815 88.9437 0.606093 89.3286 0.984105C89.7139 1.36187 89.8842 2.01979 89.9518 2.66498C90.0152 3.28154 90.0199 3.98056 89.9459 4.77059C89.8722 5.54913 89.7212 6.41599 89.4722 7.37655H89.473C89.3183 7.97085 89.1403 8.53873 88.9589 9.03883Z" fill="#002F6C"/>
</svg>
