<svg width="140" height="48" viewBox="0 0 140 48" fill="none" xmlns="http://www.w3.org/2000/svg">
<g clip-path="url(#clip0_25850_5326)">
<path d="M42.5919 7.88184H39.2814H35.175H22.8557C20.8503 7.88184 19.0676 9.12196 18.3991 10.998L10.7593 31.953C10.059 33.8292 8.30817 35.0693 6.30273 35.0693H9.61333H13.1149H25.9753C27.9808 35.0693 29.7634 33.8292 30.4319 31.953L38.0717 10.998C38.8039 9.12196 40.5865 7.88184 42.5919 7.88184Z" fill="#CEA775"/>
<path d="M17.0304 10.4893C17.9218 8.04091 20.2774 6.38738 22.8877 6.38738H24.8295L25.9755 3.27115C26.5484 1.74484 27.9809 0.727295 29.6043 0.727295H26.8986H23.5562H13.5289C11.8736 0.727295 10.4411 1.74484 9.86809 3.27115L3.62892 20.3786C3.05594 21.9049 1.62347 22.9224 0 22.9224H2.70577H5.57071H12.4784L17.0304 10.4893Z" fill="#D7C7AB"/>
<path d="M48.0358 17.2623H48.6406C49.0545 17.2623 49.4047 17.326 49.7548 17.4214C50.1049 17.5168 50.3914 17.7075 50.6142 17.8983C50.8689 18.1209 51.0599 18.3753 51.1873 18.6933C51.3146 19.0112 51.3783 19.361 51.3783 19.7744C51.3783 20.1878 51.3146 20.5375 51.1554 20.8555C50.9962 21.1735 50.8052 21.4279 50.5506 21.6505C50.2959 21.8731 50.0094 22.0321 49.6911 22.1593C49.3728 22.2864 49.0226 22.3183 48.6406 22.3183H48.0358V23.1768H46.5397V22.3501H45.9349C45.5211 22.3501 45.1709 22.2864 44.8207 22.191C44.4705 22.0956 44.1841 21.9048 43.9612 21.7141C43.7066 21.4915 43.5474 21.2371 43.3883 20.9191C43.261 20.6012 43.1973 20.2513 43.1973 19.838C43.1973 19.4246 43.2609 19.0748 43.4201 18.7569C43.5793 18.4389 43.7702 18.1845 44.0249 17.9619C44.2795 17.7393 44.566 17.5803 44.8844 17.4531C45.2027 17.326 45.5529 17.2941 45.9349 17.2941H46.5397V16.4038H48.0358V17.2623ZM45.9985 18.5661C45.5847 18.5661 45.2664 18.6933 45.0436 18.9158C44.8207 19.1384 44.7252 19.4564 44.7252 19.838C44.7252 20.2196 44.8526 20.5375 45.0754 20.7601C45.2982 20.9827 45.6166 21.0781 46.0304 21.0781H46.5715V18.5979H45.9985V18.5661ZM48.5769 21.0781C48.9908 21.0781 49.3092 20.9509 49.532 20.7283C49.7548 20.5058 49.8503 20.1878 49.8503 19.8062C49.8503 19.4246 49.723 19.1066 49.5001 18.8841C49.2773 18.6615 48.959 18.5661 48.5451 18.5661H48.004V21.0781H48.5769Z" fill="#312A20"/>
<path d="M57.6172 16.6582C58.0629 16.849 58.4449 17.0716 58.7314 17.3896C59.0497 17.7076 59.2726 18.0574 59.4635 18.5025C59.6227 18.9159 59.7182 19.3929 59.7182 19.9017C59.7182 20.3787 59.6227 20.8238 59.4635 21.269C59.3044 21.6823 59.0497 22.0639 58.7314 22.3819C58.4131 22.6999 58.031 22.9543 57.6172 23.1451C57.1716 23.3359 56.6941 23.4312 56.1848 23.4312C55.6754 23.4312 55.198 23.3359 54.7523 23.1769C54.3067 22.9861 53.9565 22.7635 53.6381 22.4455C53.3198 22.1276 53.0652 21.7777 52.906 21.3326C52.7469 20.9192 52.6514 20.4422 52.6514 19.9653C52.6514 19.4883 52.7469 19.0431 52.906 18.5979C53.0652 18.1846 53.3198 17.803 53.6381 17.485C53.9565 17.167 54.3385 16.9127 54.7523 16.7536C55.198 16.5628 55.6754 16.4674 56.1848 16.4674C56.6941 16.4039 57.1716 16.4674 57.6172 16.6582ZM55.2935 17.8984C55.0388 18.0256 54.816 18.1528 54.6568 18.3436C54.4658 18.5344 54.3385 18.7569 54.243 19.0113C54.1475 19.2657 54.1156 19.5519 54.1156 19.838C54.1156 20.1242 54.1475 20.4104 54.243 20.6966C54.3385 20.951 54.4658 21.1736 54.6568 21.3962C54.8478 21.5869 55.0388 21.746 55.2935 21.8414C55.5481 21.9368 55.8346 22.0003 56.1529 22.0003C56.4713 22.0003 56.7578 21.9368 57.0124 21.8414C57.2671 21.7142 57.4899 21.5869 57.6491 21.3644C57.8401 21.1736 57.9674 20.951 58.0629 20.6648C58.1584 20.4104 58.1902 20.1242 58.1902 19.838C58.1902 19.5201 58.1584 19.2339 58.0629 18.9795C57.9674 18.7251 57.8401 18.5025 57.6491 18.3117C57.4581 18.121 57.2671 17.962 57.0124 17.8666C56.7578 17.7712 56.4713 17.7076 56.1529 17.7076C55.8346 17.7394 55.5481 17.7712 55.2935 17.8984Z" fill="#312A20"/>
<path d="M62.71 19.1385H65.6387V16.531H67.1347V23.2086H65.6387V20.5376H62.71V23.2086H61.2139V16.531H62.71V19.1385Z" fill="#312A20"/>
<path d="M75.1881 21.8731H76.1431V22.2865L76.0156 24.6395H74.6787L74.615 23.2405H70.0949L69.9996 24.6395H68.6305L68.5352 22.3183V21.9049H68.8217C68.9492 21.9049 69.1083 21.8413 69.2358 21.7459C69.3627 21.6505 69.4902 21.4916 69.5855 21.2689C69.7768 20.8555 69.9043 20.3468 69.968 19.7108C70.0633 19.0749 70.0949 18.3753 70.0949 17.6122V16.531H75.1566V21.8731H75.1881ZM71.4002 20.2832C71.2727 20.9509 71.1452 21.4916 70.9546 21.8731H73.6606V17.8665H71.5915C71.5915 18.8205 71.5277 19.6154 71.4002 20.2832Z" fill="#312A20"/>
<path d="M49.4045 35.1964H47.9084V29.9178H45.0753V35.2281H43.5791V28.5505H49.4364V35.1964H49.4045Z" fill="#312A20"/>
<path d="M55.3252 28.7096C55.6435 28.8368 55.93 28.9958 56.1846 29.1866C56.4074 29.4092 56.5984 29.6635 56.7257 29.9497C56.8531 30.2359 56.9168 30.5857 56.9168 30.9355C56.9168 31.317 56.8531 31.6668 56.6939 31.9848C56.5348 32.3028 56.3438 32.5572 56.0891 32.7479C55.8345 32.9706 55.548 33.1295 55.1978 33.2249C54.8476 33.3203 54.4975 33.384 54.0837 33.384H52.7148V35.1964H51.2188V28.5188H54.211C54.6566 28.5188 55.0068 28.5824 55.3252 28.7096ZM54.1155 32.0484C54.5293 32.0484 54.8158 31.953 55.0705 31.7622C55.2933 31.5714 55.4207 31.2852 55.4207 30.9673C55.4207 30.6493 55.3252 30.3631 55.1023 30.1723C54.9113 29.9815 54.593 29.8861 54.1792 29.8861H52.7467V32.0802H54.1155V32.0484Z" fill="#312A20"/>
<path d="M63.3469 29.8543H59.8135V31.1263H62.9649V32.43H59.8135V33.8609H63.5061V35.1964H58.3174V28.5188H63.3469V29.8543Z" fill="#312A20"/>
<path d="M68.5359 30.9672C68.6634 30.84 68.7271 30.7129 68.7271 30.4903C68.7271 30.2359 68.6312 30.0451 68.4721 29.9179C68.2815 29.7907 67.9949 29.7271 67.613 29.7271C66.9761 29.7271 66.403 29.9497 65.8621 30.363L65.0662 29.3456C65.4482 29.0275 65.8298 28.8049 66.2755 28.646C66.7218 28.487 67.1674 28.4233 67.7083 28.4233C68.1218 28.4233 68.4721 28.4552 68.7909 28.5506C69.109 28.646 69.3634 28.7732 69.5862 28.9321C69.809 29.0911 69.9681 29.2819 70.0956 29.5363C70.2231 29.7589 70.2546 30.0133 70.2546 30.2995C70.2546 30.5857 70.1915 30.84 70.0956 31.0626C69.9681 31.2852 69.809 31.476 69.5862 31.6032V31.6986C69.905 31.794 70.1593 31.9847 70.3506 32.2392C70.5412 32.4935 70.605 32.8115 70.605 33.1931C70.605 33.5111 70.5412 33.7973 70.4143 34.0517C70.2868 34.306 70.0956 34.5605 69.8728 34.7512C69.6184 34.942 69.3318 35.101 68.9499 35.1964C68.5996 35.3236 68.154 35.3554 67.6761 35.3554C67.3902 35.3554 67.1036 35.3236 66.8486 35.2918C66.5943 35.26 66.3392 35.1964 66.1164 35.1328C65.8936 35.0374 65.671 34.942 65.4482 34.8148C65.2253 34.6876 65.0343 34.5286 64.8115 34.3697L65.6073 33.2567C65.9574 33.5429 66.3077 33.7336 66.658 33.829C67.0077 33.9563 67.3902 33.9881 67.8036 33.9881C68.2493 33.9881 68.5681 33.8927 68.7909 33.7336C69.0137 33.5747 69.109 33.3521 69.109 33.0977C69.109 32.6208 68.7909 32.3981 68.1855 32.3981H66.4983V31.0944H68.0265C68.2177 31.1262 68.4083 31.0626 68.5359 30.9672Z" fill="#312A20"/>
<path d="M73.5331 32.9706L76.78 28.5188H78.0847V35.1964H76.5888V30.999L73.5009 35.1964H72.0371V28.5188H73.5009V32.9706H73.5331Z" fill="#312A20"/>
<path d="M86.1068 33.8609H87.0618V34.2743L86.9343 36.6273H85.5974L85.5336 35.2282H81.0135L80.9182 36.6273H79.5813L79.4854 34.3061V33.8927H79.7719C79.8994 33.8927 80.0585 33.8291 80.186 33.7337C80.3135 33.6383 80.4404 33.4793 80.5363 33.2567C80.7269 32.8433 80.8545 32.3346 80.9182 31.6986C81.0135 31.0627 81.0457 30.3631 81.0457 29.6V28.5188H86.1068V33.8609ZM82.3504 32.271C82.2229 32.9387 82.0961 33.4793 81.9048 33.8609H84.6108V29.8543H82.5417C82.5095 30.8083 82.4457 31.6032 82.3504 32.271Z" fill="#312A20"/>
<path d="M93.4921 29.8543H89.9586V31.1263H93.1102V32.43H89.9586V33.8609H93.6511V35.1964H88.4941V28.5188H93.4921V29.8543Z" fill="#312A20"/>
<path d="M96.772 31.1263H99.7002V28.5188H101.196V35.1964H99.7002V32.5254H96.772V35.1964H95.2754V28.5188H96.772V31.1263Z" fill="#312A20"/>
<path d="M108.677 29.8861H106.385V35.2282H104.889V29.8861H102.597V28.5188H108.677V29.8861Z" fill="#312A20"/>
<path d="M114.311 29.9179C113.993 29.8225 113.674 29.7589 113.292 29.7589C112.974 29.7589 112.656 29.8225 112.401 29.9179C112.146 30.0133 111.923 30.1723 111.732 30.3631C111.542 30.5539 111.414 30.7764 111.287 31.0308C111.191 31.2852 111.127 31.5714 111.127 31.8894C111.127 32.2074 111.191 32.4936 111.287 32.7479C111.382 33.0023 111.542 33.2249 111.732 33.4157C111.923 33.6065 112.146 33.7337 112.401 33.8609C112.656 33.9563 112.942 34.0199 113.26 34.0199C113.642 34.0199 113.993 33.9563 114.311 33.8291C114.629 33.7019 114.948 33.5111 115.202 33.2567L116.062 34.3061C115.297 35.0374 114.342 35.3872 113.197 35.3872C112.687 35.3872 112.21 35.2918 111.764 35.1328C111.319 34.9738 110.968 34.7512 110.65 34.4333C110.332 34.1153 110.109 33.7655 109.918 33.3521C109.758 32.9387 109.663 32.4617 109.663 31.9212C109.663 31.4442 109.758 30.999 109.918 30.5539C110.077 30.1405 110.332 29.7589 110.65 29.4409C110.968 29.123 111.35 28.8685 111.796 28.6777C112.242 28.487 112.751 28.3916 113.324 28.3916C113.834 28.3916 114.311 28.4552 114.756 28.6142C115.202 28.7731 115.584 28.9958 115.903 29.3137L115.074 30.3949C114.884 30.1723 114.597 30.0133 114.311 29.9179Z" fill="#312A20"/>
<path d="M118.927 31.0627L119.659 30.9673L121.537 28.4871H123.384L120.9 31.6033L123.638 35.1647H121.696L119.659 32.3028H118.927V35.1647H117.463V28.4871H118.927V31.0627Z" fill="#312A20"/>
<path d="M126.503 32.9706L129.75 28.5188H131.055V35.1964H129.559V30.999L126.471 35.1964H125.007V28.5188H126.471V32.9706H126.503Z" fill="#312A20"/>
<path d="M135.862 30.9036H135.957L137.294 28.5188H139.141L137.008 31.8258L139.363 35.2282H137.422L135.926 32.6526H135.83L134.366 35.2282H132.424L134.78 31.7622L132.647 28.5506H134.525L135.862 30.9036Z" fill="#312A20"/>
<path d="M48.6405 41.8741H45.0753V47.2162H43.5791V40.5386H48.6405V41.8741Z" fill="#312A20"/>
<path d="M54.0521 40.6977C54.3705 40.8249 54.657 40.9839 54.9116 41.1747C55.1344 41.3972 55.3254 41.6517 55.4528 41.9379C55.5801 42.224 55.6437 42.5738 55.6437 42.9236C55.6437 43.3052 55.5801 43.6549 55.4209 43.9411C55.2618 44.2591 55.0708 44.5135 54.8161 44.7043C54.5615 44.9269 54.2749 45.0858 53.9248 45.1812C53.5746 45.2766 53.2245 45.3402 52.8107 45.3402H51.4418V47.1527H49.9775V40.4751H52.9698C53.3518 40.5069 53.7338 40.5705 54.0521 40.6977ZM52.8425 44.0365C53.2563 44.0365 53.5428 43.9411 53.7974 43.7503C54.0203 43.5595 54.1476 43.2734 54.1476 42.9553C54.1476 42.6374 54.0521 42.3512 53.8293 42.1604C53.6383 41.9696 53.32 41.8742 52.9062 41.8742H51.4737V44.0683H52.8425V44.0365Z" fill="#312A20"/>
<path d="M63.2834 47.2162H61.6282L61.1188 45.8807H58.2539L57.7446 47.2162H56.1211L58.8587 40.5068H60.514L63.2834 47.2162ZM60.6095 44.5452L59.7182 42.0013H59.6227L58.7313 44.5452H60.6095Z" fill="#312A20"/>
<path d="M66.1482 43.1143H69.0764V40.5068H70.573V47.1844H69.0764V44.4816H66.1482V47.1844H64.6201V40.5068H66.116V43.1143H66.1482Z" fill="#312A20"/>
<path d="M78.0219 41.8741H75.7615V47.2162H74.2656V41.8741H71.9736V40.5068H78.0534V41.8741H78.0219Z" fill="#312A20"/>
<path d="M84.038 40.6338C84.4836 40.8246 84.8655 41.0472 85.1521 41.3652C85.4702 41.6831 85.693 42.033 85.8843 42.4781C86.0433 42.8915 86.1393 43.3685 86.1393 43.8773C86.1393 44.3542 86.0433 44.7994 85.8843 45.2446C85.7252 45.6579 85.4702 46.0395 85.1521 46.3575C84.834 46.6755 84.4521 46.9298 84.038 47.1206C83.5924 47.3114 83.1152 47.4068 82.6058 47.4068C82.0964 47.4068 81.6186 47.3114 81.1729 47.1525C80.7273 46.9617 80.377 46.7391 80.0588 46.4211C79.7407 46.1031 79.4857 45.7533 79.3266 45.3082C79.1676 44.8948 79.0723 44.4178 79.0723 43.9408C79.0723 43.4639 79.1676 43.0187 79.3266 42.5735C79.4857 42.1601 79.7407 41.7785 80.0588 41.4606C80.377 41.1426 80.7595 40.8882 81.1729 40.7292C81.6186 40.5384 82.0964 40.443 82.6058 40.443C83.1152 40.3794 83.5924 40.4748 84.038 40.6338ZM81.7145 41.8739C81.4595 42.0011 81.2367 42.1284 81.0776 42.3191C80.8863 42.5099 80.7595 42.7325 80.6635 42.9869C80.5682 43.2412 80.5367 43.5274 80.5367 43.8136C80.5367 44.0998 80.5682 44.386 80.6635 44.6722C80.7595 44.9266 80.8863 45.1492 81.0776 45.3717C81.2689 45.5625 81.4595 45.7216 81.7145 45.817C81.9689 45.9124 82.2555 45.9759 82.5736 45.9759C82.8924 45.9759 83.1783 45.9124 83.4333 45.817C83.6877 45.6897 83.9105 45.5625 84.0702 45.34C84.2608 45.1492 84.3883 44.9266 84.4836 44.6404C84.5789 44.386 84.6111 44.0998 84.6111 43.8136C84.6111 43.4957 84.5789 43.2095 84.4836 42.9551C84.3883 42.7007 84.2608 42.4781 84.0702 42.2555C83.8789 42.0647 83.6877 41.9057 83.4333 41.8103C83.1783 41.7149 82.8924 41.6514 82.5736 41.6514C82.2555 41.7149 81.9689 41.7785 81.7145 41.8739Z" fill="#312A20"/>
<path d="M92.3149 41.0156C92.729 41.3336 92.9196 41.7788 92.9196 42.3512C92.9196 42.6373 92.8558 42.8917 92.7605 43.1143C92.633 43.3369 92.474 43.4959 92.2833 43.5913V43.6867C92.6015 43.7821 92.8558 43.9729 93.0793 44.259C93.2699 44.5452 93.3652 44.8632 93.3652 45.213C93.3652 45.4991 93.3021 45.7535 93.2062 45.9761C93.1109 46.2305 92.9518 46.4213 92.7605 46.6121C92.5699 46.8029 92.2834 46.93 91.9968 47.0573C91.6787 47.1527 91.3283 47.2162 90.8827 47.2162H87.6357V40.5386H90.5961C91.3283 40.5069 91.933 40.6658 92.3149 41.0156ZM90.6599 43.1461C90.9142 43.1461 91.1055 43.0825 91.2646 42.9553C91.4236 42.8281 91.4874 42.6691 91.4874 42.4466C91.4874 42.0013 91.2008 41.7788 90.6277 41.7788H89.1317V43.1461H90.6599ZM90.8827 45.9126C91.5511 45.9126 91.8693 45.6581 91.8693 45.1176C91.8693 44.8632 91.774 44.6724 91.6149 44.5452C91.4558 44.418 91.2008 44.3544 90.8827 44.3544H89.1317V45.9126H90.8827Z" fill="#312A20"/>
</g>
<defs>
<clipPath id="clip0_25850_5326">
<rect width="140" height="47.2727" fill="white" transform="translate(0 0.727295)"/>
</clipPath>
</defs>
</svg>
