<svg width="110" height="63" viewBox="0 0 110 63" fill="none" xmlns="http://www.w3.org/2000/svg">
<path d="M104.626 46.798L109.165 31.9051C103.107 30.1906 96.8692 28.9012 90.4886 28.2651L90.4881 28.2651C83.8899 27.6014 77.1404 27.6604 70.4902 28.5695L70.4894 28.5696C63.8371 29.4713 57.3043 31.2266 51.1276 33.6632L51.1273 33.6634C48.1363 34.8413 45.2292 36.181 42.4032 37.6391L41.7575 37.9723L41.481 37.3004C40.8555 35.7804 40.2035 34.2678 39.4847 32.7831L39.4846 32.7829C37.2661 28.1973 34.5468 23.752 31.3015 19.6677L31.3012 19.6673C28.0602 15.5821 24.3033 11.8532 20.1567 8.66789L20.1541 8.66584C16.2003 5.59689 11.9019 3.0234 7.45013 0.889481L0.884045 15.0151C4.36503 16.6781 7.65722 18.638 10.6543 20.9427C13.8419 23.3634 16.6842 26.1666 19.1789 29.276C21.6779 32.3903 23.8102 35.8217 25.6147 39.4982L25.6152 39.4993C27.3493 43.0493 28.7628 46.797 30.0189 50.7871H30.019L30.1667 51.2519L33.2677 61.0129L41.9135 55.5309C51.4582 49.4776 61.7291 45.2441 72.5252 43.8449C83.1 42.4081 94.015 43.744 104.626 46.798Z" fill="#FF5400" stroke="white" stroke-width="1.33333"/>
</svg>
