<svg width="88" height="48" viewBox="0 0 88 48" fill="none" xmlns="http://www.w3.org/2000/svg">
<path d="M83.5142 33.8037L83.7677 32.8394L85.9672 24.4709L86.2227 23.4987L85.2492 23.2483C80.5318 22.0346 75.6673 21.1503 70.7014 20.8439C65.7477 20.5232 60.711 20.7463 55.7643 21.6067C50.8156 22.4604 45.9833 23.9495 41.4235 25.9504L41.423 25.9506C39.1401 26.9537 37.0315 28.0588 35.4963 28.9112C34.9155 29.2337 34.4154 29.5207 34.0176 29.7533C33.973 29.6433 33.9247 29.5259 33.8726 29.4014C33.474 28.4488 32.8541 27.0775 31.9616 25.3807L31.9614 25.3803C30.1732 21.9844 28.0211 18.7152 25.4854 15.7318L83.5142 33.8037ZM83.5142 33.8037L82.5491 33.5531C78.3869 32.4719 74.1875 31.7031 69.9977 31.4351L69.9945 31.4349C65.8018 31.1534 61.6176 31.3331 57.5312 32.0328L57.53 32.033C53.4436 32.7277 49.4491 33.9424 45.6098 35.6134C41.7698 37.2888 38.0838 39.4224 34.5373 41.8719L34.5372 41.8719L29.8907 45.0807L28.8162 45.8227L28.3799 44.5919L26.4836 39.2425L26.4836 39.2425L26.4816 39.2368C25.3875 36.0898 24.1681 33.1209 22.6899 30.3307M83.5142 33.8037L22.6899 30.3307M22.6899 30.3307C21.2107 27.5469 19.481 24.9525 17.4826 22.6164C15.4828 20.279 13.2226 18.1889 10.7233 16.4125L10.7219 16.4115C9.4694 15.5182 8.16652 14.6919 6.81491 13.9404C5.45492 13.1961 4.04803 12.5192 2.60538 11.8996L1.69595 11.509L2.07714 10.5956L5.4085 2.61311L5.79841 1.67882L6.72783 2.0802C8.49314 2.84258 10.2331 3.68694 11.9324 4.62645L11.9372 4.62916C13.6338 5.57954 15.2818 6.62992 16.8681 7.77027C20.0538 10.0524 22.9536 12.7503 25.485 15.7315L22.6899 30.3307Z" fill="#FFE271" stroke="#FFE271" stroke-width="2"/>
</svg>
