<svg width="320" height="101" viewBox="0 0 320 101" fill="none" xmlns="http://www.w3.org/2000/svg">
<path d="M6.95117 15.2195C7.5892 16.0102 8.13444 16.8824 8.59649 17.8185C9.0579 18.7578 9.43163 19.7533 9.76441 20.8197H9.76505L10.6354 23.5439L13.0621 22.0139C15.5163 20.4662 18.151 19.3877 20.915 19.0316C23.6764 18.6585 26.5344 19.019 29.3157 19.8337L30.5911 15.6718C28.9624 15.2043 27.2812 14.852 25.5585 14.6813C23.8383 14.5092 22.0778 14.5244 20.3422 14.7603C18.606 14.9943 16.9018 15.4498 15.2911 16.0816C14.511 16.3871 13.7532 16.7344 13.0173 17.112C12.8547 16.7192 12.6845 16.3264 12.4964 15.9399C11.9172 14.7496 11.2069 13.5946 10.3583 12.5326C9.51099 11.4706 8.52866 10.501 7.44393 9.67243C6.36305 8.83816 5.18489 8.14556 3.96706 7.57757L2.12207 11.5244C3.07112 11.9634 3.96578 12.4852 4.77468 13.1038C5.58806 13.7179 6.31377 14.4295 6.95117 15.2195Z" fill="white"/>
<path d="M216.065 43.4311H207.685L207.862 43.273C209.192 42.0871 209.646 40.0485 209.646 36.8588V33.1674H216.065V43.4311ZM219.838 30.0315H206.193V36.5457C206.193 40.9214 205.092 43.4311 202.88 43.4311H202.339V50.7429H205.749V46.5614H219.009V50.7429H222.34V43.4311H219.838V30.0315Z" fill="white"/>
<path d="M229.095 41.1094C228.647 40.2979 228.419 39.3516 228.419 38.296C228.419 37.2201 228.647 36.2732 229.096 35.4826C229.545 34.6888 230.164 34.0664 230.935 33.6325C231.706 33.1992 232.583 32.9797 233.544 32.9797C234.507 32.9797 235.384 33.1992 236.155 33.6325C236.925 34.0664 237.538 34.6888 237.979 35.4832C238.416 36.2751 238.639 37.222 238.639 38.296C238.639 39.3497 238.416 40.296 237.979 41.1087C237.539 41.9247 236.925 42.5572 236.155 42.9904C235.385 43.425 234.497 43.6438 233.513 43.6438C232.573 43.6438 231.705 43.425 230.935 42.9904C230.163 42.5565 229.544 41.9234 229.095 41.1094ZM238.123 45.6786C239.473 44.9518 240.543 43.9417 241.302 42.678C242.06 41.4149 242.444 39.9399 242.444 38.296C242.444 36.6318 242.06 35.1524 241.302 33.8994C240.543 32.647 239.479 31.642 238.139 30.9127C236.796 30.1828 235.24 29.8122 233.513 29.8122C231.806 29.8122 230.266 30.1828 228.936 30.9127C227.606 31.6414 226.541 32.6464 225.772 33.8994C225.003 35.153 224.613 36.6318 224.613 38.296C224.613 39.9196 225.003 41.3877 225.772 42.6622C226.541 43.936 227.611 44.9506 228.95 45.6786C230.292 46.4091 231.827 46.7798 233.513 46.7798C235.22 46.7798 236.771 46.4091 238.123 45.6786Z" fill="white"/>
<path d="M252.744 42.9741C251.973 42.5295 251.355 41.897 250.906 41.0937C250.457 40.2904 250.23 39.3492 250.23 38.2955C250.23 37.2215 250.457 36.274 250.907 35.4821C251.356 34.6883 251.975 34.0665 252.745 33.632C253.517 33.1987 254.384 32.9792 255.323 32.9792C256.305 32.9792 257.189 33.1987 257.95 33.632C258.709 34.0665 259.322 34.6883 259.772 35.4821C260.222 36.2733 260.449 37.2196 260.449 38.2955C260.449 39.3505 260.222 40.2923 259.774 41.0937C259.324 41.8963 258.71 42.5295 257.95 42.9741C257.191 43.4188 256.307 43.6439 255.323 43.6439C254.382 43.6439 253.513 43.4188 252.744 42.9741ZM260.154 45.7262C261.423 45.0279 262.438 44.0342 263.174 42.7717C263.913 41.508 264.287 40.002 264.287 38.2955C264.287 36.6105 263.913 35.1102 263.174 33.835C262.438 32.563 261.423 31.5643 260.154 30.8648C258.887 30.1658 257.421 29.8116 255.799 29.8116C254.409 29.8116 253.135 30.119 252.012 30.7243C251.379 31.0672 250.802 31.5466 250.297 32.1494L250.135 32.3436V30.0311H246.551V53.105H250.294V44.3574L250.455 44.5421C250.942 45.0968 251.486 45.5434 252.076 45.8672C253.176 46.4719 254.429 46.7793 255.799 46.7793C257.423 46.7793 258.888 46.4251 260.154 45.7262Z" fill="white"/>
<path d="M271.42 41.1094C270.972 40.296 270.744 39.3497 270.744 38.296C270.744 37.222 270.972 36.2751 271.421 35.4826C271.87 34.6888 272.489 34.0664 273.259 33.6325C274.031 33.1992 274.908 32.9797 275.87 32.9797C276.832 32.9797 277.71 33.1992 278.48 33.6325C279.251 34.0664 279.865 34.69 280.305 35.4832C280.742 36.2745 280.964 37.2207 280.964 38.296C280.964 39.3516 280.742 40.2979 280.305 41.1087C279.865 41.9234 279.252 42.5572 278.48 42.9904C277.71 43.425 276.822 43.6438 275.838 43.6438C274.898 43.6438 274.03 43.425 273.259 42.9904C272.488 42.5565 271.869 41.9234 271.42 41.1094ZM280.448 45.6786C281.798 44.9518 282.868 43.9417 283.627 42.678C284.386 41.4149 284.77 39.9399 284.77 38.296C284.77 36.6318 284.386 35.1524 283.627 33.8994C282.868 32.647 281.805 31.642 280.465 30.9127C279.121 30.1828 277.565 29.8122 275.838 29.8122C274.132 29.8122 272.591 30.1828 271.261 30.9127C269.93 31.642 268.865 32.647 268.097 33.8994C267.328 35.153 266.938 36.6318 266.938 38.296C266.938 39.9196 267.328 41.3889 268.097 42.6622C268.867 43.936 269.937 44.9506 271.276 45.6786C272.617 46.4091 274.153 46.7798 275.838 46.7798C277.546 46.7798 279.097 46.4091 280.448 45.6786Z" fill="white"/>
<path d="M292.624 33.1678H301.014V30.0318H288.881V46.5618H292.624V33.1678Z" fill="white"/>
<path d="M315.592 41.1094C315.142 41.9234 314.524 42.5565 313.752 42.9904C312.981 43.425 312.103 43.6438 311.141 43.6438C310.2 43.6438 309.333 43.425 308.563 42.9904C307.791 42.5565 307.172 41.9234 306.723 41.1094C306.275 40.2979 306.048 39.3516 306.048 38.296C306.048 37.2201 306.275 36.2732 306.724 35.4826C307.174 34.6888 307.792 34.0664 308.563 33.6325C309.334 33.1992 310.2 32.9797 311.141 32.9797C312.103 32.9797 312.981 33.1992 313.752 33.6325C314.522 34.0664 315.142 34.6888 315.59 35.4826C316.04 36.2751 316.267 37.222 316.267 38.296C316.267 39.3497 316.04 40.296 315.592 41.1094ZM316.203 30.0316V32.2252L316.042 32.0417C315.56 31.4921 315.019 31.0487 314.436 30.7242C313.346 30.1195 312.078 29.8122 310.667 29.8122C309.065 29.8122 307.609 30.1664 306.342 30.8653C305.075 31.5629 304.064 32.5623 303.338 33.8349C302.611 35.1088 302.242 36.6103 302.242 38.296C302.242 40.0031 302.611 41.5097 303.338 42.7722C304.064 44.0353 305.075 45.0296 306.342 45.7267C307.609 46.4256 309.063 46.7798 310.667 46.7798C312.121 46.7798 313.411 46.4724 314.5 45.8677C315.137 45.5135 315.719 45.0119 316.23 44.3756L316.394 44.1713V46.5609H319.978V30.0316H316.203Z" fill="white"/>
<path d="M266.28 72.4007C265.843 73.216 265.228 73.8485 264.457 74.283C263.687 74.7169 262.799 74.9364 261.815 74.9364C260.874 74.9364 260.007 74.7169 259.237 74.283C258.467 73.8504 257.847 73.2179 257.397 72.4019C256.949 71.5885 256.721 70.6429 256.721 69.5892C256.721 68.5139 256.949 67.5677 257.397 66.7745C257.847 65.9814 258.467 65.359 259.237 64.9257C260.006 64.4924 260.883 64.273 261.846 64.273C262.81 64.273 263.687 64.4924 264.457 64.9257C265.228 65.3609 265.841 65.9833 266.28 66.7758C266.719 67.5683 266.941 68.5146 266.941 69.5892C266.941 70.6423 266.719 71.5879 266.28 72.4007ZM266.441 62.2059C265.098 61.476 263.543 61.106 261.815 61.106C260.107 61.106 258.567 61.476 257.237 62.2059C255.906 62.9346 254.842 63.9396 254.074 65.1926C253.305 66.4456 252.915 67.9251 252.915 69.5892C252.915 71.2122 253.305 72.6802 254.074 73.9547C254.843 75.228 255.912 76.2432 257.252 76.9712C258.595 77.7017 260.13 78.073 261.815 78.073C263.522 78.073 265.073 77.7017 266.425 76.9712C267.775 76.2438 268.845 75.2337 269.603 73.9699C270.361 72.7087 270.746 71.2343 270.746 69.5892C270.746 67.9232 270.361 66.4437 269.603 65.1926C268.845 63.9384 267.781 62.9333 266.441 62.2059Z" fill="white"/>
<path d="M290.411 61.2859L284.412 69.5218L278.37 61.3232H274.855V77.8525H278.278V66.6091L284.334 74.6919L290.428 66.5224V77.8525H293.909L293.877 61.3226L290.411 61.2859Z" fill="white"/>
<path d="M244.367 74.7236H235.987L236.164 74.5654C237.495 73.3808 237.949 71.3422 237.949 68.1512V64.4599H244.367V74.7236ZM248.141 61.3239H234.496V67.8387C234.496 72.2144 233.395 74.7236 231.182 74.7236H230.642V82.0366H234.053V77.8539H247.312V82.0366H250.643V74.7236H248.141V61.3239Z" fill="white"/>
<path d="M221.419 61.3232L216.842 61.2973L208.518 69.3535V61.3239H204.775V77.8525H208.518V69.833L216.778 77.8525H221.712L212.751 69.2549L221.419 61.3232Z" fill="white"/>
<path d="M306.136 73.8622L300.715 61.324H296.832L304.16 78.014L303.994 78.3833C303.443 79.6205 302.396 81.3239 299.617 81.3239H298.751V84.3972H300.256C303.339 84.3972 305.805 82.6452 307.452 78.8824L315.136 61.324H311.538L306.136 73.8622Z" fill="white"/>
<path d="M143.89 67.9926H142.074H133.594C130.715 67.9926 127.89 67.9616 125.114 67.9059L123.297 67.8591V58.6024L133.594 50.2919L143.89 58.6024V67.9926ZM161.526 89.0273C154.253 93.7907 144.012 96.3087 131.91 96.3087C107.019 96.3087 83.0616 90.7432 63.0637 85.6655C63.9961 85.0848 64.933 84.4827 65.8731 83.8597C72.4211 79.5181 78.6095 74.5346 84.4292 68.9211C98.4378 71.1823 115.015 72.3499 133.594 72.3499H144.278H159.872V67.9926H148.299V56.5354L133.594 44.6664L118.888 56.5354V67.7301C107.699 67.3228 97.4273 66.4417 88.2389 65.102C100.486 52.3444 110.994 36.6493 119.675 18.134C128.011 20.5425 136.074 23.7468 143.189 27.5773C168.044 40.9529 173.261 56.5132 173.261 67.2114C173.261 76.5884 169.313 83.928 161.526 89.0273ZM60.6658 58.5594C46.1516 53.2071 38.4805 46.0016 38.4805 37.724C38.4805 34.2338 39.7911 27.5147 48.5662 21.726C57.0628 16.1207 70.2593 13.1574 86.7286 13.1574C95.7974 13.1574 105.683 14.5141 115.362 16.9657C106.446 35.8138 95.6009 51.6214 82.9253 64.2557C74.4075 62.7782 66.9405 60.8731 60.6658 58.5594ZM19.63 96.3005C13.9459 96.3005 4.40864 95.3858 4.40864 89.2625C4.40864 84.3132 10.0998 81.3575 19.63 81.3575C27.7248 81.3575 38.7 83.9501 51.4082 87.1867C37.2844 94.2157 25.3352 96.3005 19.63 96.3005ZM145.298 23.7494C138.089 19.8696 129.941 16.6077 121.504 14.1315C123.221 10.2732 124.862 6.29723 126.426 2.20617L122.301 0.666016C120.688 4.88737 118.992 8.97969 117.213 12.9455C106.927 10.2795 96.3829 8.80006 86.7286 8.80006C47.8616 8.80006 34.0712 24.3806 34.0712 37.724C34.0712 44.8764 38.4178 55.006 59.1241 62.6422C64.8537 64.7548 71.5277 66.5366 79.0427 67.9736C74.0946 72.5245 68.8828 76.6162 63.4163 80.2405C61.2859 81.6541 59.176 82.9508 57.1 84.1411C42.1532 80.3069 29.2459 77.0001 19.63 77.0001C1.41558 77.0001 0 86.3853 0 89.2625C0 93.5181 2.55022 100.658 19.63 100.658C26.3258 100.658 40.9865 98.0272 57.7194 88.8021C78.7675 94.198 104.679 100.666 131.91 100.666C160.135 100.666 177.669 87.847 177.669 67.2114C177.669 50.419 166.173 34.9839 145.298 23.7494Z" fill="white"/>
</svg>
