<?xml version="1.0" encoding="utf-8"?>
<!-- Generator: Adobe Illustrator 24.1.2, SVG Export Plug-In . SVG Version: 6.00 Build 0)  -->
<svg version="1.1" id="main-help-decor-bird" class="main-help-decor-element" xmlns="http://www.w3.org/2000/svg" xmlns:xlink="http://www.w3.org/1999/xlink" x="0px" y="0px"
	 viewBox="0 0 65 36.1" style="enable-background:new 0 0 65 36.1;" xml:space="preserve" width="65" height="36.1" data-sy="75%" data-sx="26%" data-ey="23%" data-ex="83.2%">
<style type="text/css">
	.main-help-decor-bird{fill:#FFE271;}
</style>
<path class="main-help-decor-bird" d="M61,12.2h0.1l0,0l0,0l3.9-0.9L61.9,0l-3.8,0.9C57.7,1,53,2.1,47,5.2c-4.2,2.2-9.6,6.2-14.5,11.5
	c-5-5.2-10.4-9.3-14.5-11.5C12,2.1,7.3,1,6.9,0.9L3.1,0L0,11.3l3.9,0.9c0.2,0,3.7,0.9,8.1,3.3c4.3,2.3,10.5,6.4,15.3,13.2l5.2,7.4
	l5.2-7.4c4.8-6.8,10.9-10.9,15.3-13.2c2.3-1.2,4.4-2,5.9-2.6c0.7-0.3,1.3-0.4,1.7-0.5C60.8,12.2,60.9,12.2,61,12.2z"/>
</svg>
