<?xml version="1.0" encoding="utf-8"?>
<!-- Generator: Adobe Illustrator 24.1.2, SVG Export Plug-In . SVG Version: 6.00 Build 0)  -->
<svg version="1.1" id="main-help-decor-home" class="main-help-decor-bg" xmlns="http://www.w3.org/2000/svg" xmlns:xlink="http://www.w3.org/1999/xlink" x="0px" y="0px"
	 viewBox="0 0 1118 263.6" style="enable-background:new 0 0 1118 263.6;" xml:space="preserve" width="1118" height="263.6">
<style type="text/css">
	.main-help-decor-home{fill-rule:evenodd;clip-rule:evenodd;fill:#FFE271;}
</style>
<path class="main-help-decor-home" d="M870.2,43.9L928,0l60.9,39.6l1.5,41.3c12.9,0.3,25.2,0.8,36.6,1.5c27.5,1.6,50.2,4.1,66.1,6.1
	c7.9,1,14.1,1.9,18.4,2.6c2.1,0.3,3.7,0.6,4.8,0.8c0.2,0,0.3,0.1,0.5,0.1c0.3,0.1,0.6,0.1,0.8,0.1c0.1,0,0.3,0,0.3,0.1l0.1,0l0,0
	l0,0c0,0,0,0-1.2,7.3c-1.3,7.3-1.3,7.3-1.3,7.3l0,0l-0.1,0c-0.1,0-0.2,0-0.3-0.1c-0.3,0-0.6-0.1-1.2-0.2c-1-0.2-2.6-0.4-4.7-0.8
	c-4.1-0.6-10.2-1.5-17.9-2.6c-15.5-2-37.9-4.4-65-6c-16.1-1-34-1.6-53.1-1.8l-83.9,3.1c-21.8,1.8-44.4,4.5-67.2,8.3
	c-100,16.8-191.2,44.9-280.6,72.5l-0.9,0.3l-1.4,0.4c-1.7,0.5-3.4,1.1-5.2,1.6c-91.6,28.3-181.5,55.6-276.2,68.4
	C178.4,261,114,263.6,69.5,263.6c-22.3,0-39.6-0.7-51.4-1.4c-5.9-0.3-10.4-0.7-13.4-1c-1.5-0.1-2.7-0.2-3.5-0.3
	c-0.4,0-0.7-0.1-0.9-0.1c-0.1,0-0.2,0-0.2,0l-0.1,0l0,0c0,0,0,0,0.7-7.4c0.7-7.4,0.7-7.4,0.7-7.4l0,0c0,0,0.1,0,0.2,0
	c0.2,0,0.4,0,0.8,0.1c0.7,0.1,1.8,0.2,3.3,0.3c2.9,0.3,7.3,0.6,13,0.9c11.5,0.7,28.5,1.4,50.5,1.4c43.9,0.1,107.6-2.6,186.3-13.2
	c93.3-12.6,182-39.6,273.8-67.9c2.6-0.8,5.2-1.6,7.8-2.4c89.1-27.5,181.2-55.9,282.2-72.9c17.7-3,35.2-5.3,52.3-7L870.2,43.9z
	 M885.9,50.1l42.8-32.5l45,29.3l1.2,33.7c-27.1-0.2-56.7,0.6-87.8,3.2L885.9,50.1z"/>
</svg>
