<svg width="140" height="44" viewBox="0 0 140 44" fill="none" xmlns="http://www.w3.org/2000/svg">
<path d="M45.3956 28.7043C45.3956 27.4424 46.2923 26.0164 47.8654 26.0164C49.5226 26.0164 50.2556 27.3871 50.3378 28.7043H45.3956ZM54.3297 30.2114C54.3297 25.9333 51.7224 23.137 47.975 23.137C43.8755 23.137 41.5679 26.4812 41.5679 30.3756C41.5679 34.0205 43.5781 37.5288 48.4651 37.5288C50.12 37.5288 51.9672 37.1474 53.8674 35.9386L52.9977 33.4449C51.452 34.1866 50.4452 34.4315 49.1155 34.4315C47.2976 34.4315 45.5601 33.2807 45.4778 31.416H54.3297V30.2114ZM18.4622 28.7043C18.4622 27.4424 19.3594 26.0164 20.9324 26.0164C22.5912 26.0164 23.3219 27.3871 23.4042 28.7043H18.4622ZM27.396 30.2114C27.396 25.9333 24.7891 23.137 21.0421 23.137C16.9421 23.137 14.6349 26.4812 14.6349 30.3756C14.6349 34.0205 16.6444 37.5288 21.5314 37.5288C23.1867 37.5288 25.0316 37.1474 26.9341 35.9386L26.064 33.4449C24.5168 34.1866 23.5119 34.4315 22.1818 34.4315C20.3624 34.4315 18.6245 33.2807 18.5422 31.416H27.396V30.2114ZM34.1893 34.6295H32.5869V31.2295H33.9993C35.8716 31.2295 36.8769 31.669 36.8769 32.9032C36.8769 34.2185 35.5468 34.6295 34.1893 34.6295ZM32.6692 26.0483H34.2715C35.8716 26.0483 36.471 26.5424 36.471 27.3928C36.471 28.4609 35.4939 28.7893 33.8641 28.7893H32.6692V26.0483ZM37.8833 29.717V29.6063C39.1586 29.3333 40.2183 28.4828 40.2183 26.6731C40.2183 24.5135 38.4225 23.7261 36.6576 23.4869C36.1168 23.4139 34.9318 23.4115 34.2715 23.4115H28.683V37.2559H33.3767C33.8957 37.2559 34.6691 37.2539 35.2726 37.2362C37.7405 37.1178 40.7884 36.2274 40.7884 33.0058C40.7884 31.0323 39.7286 30.045 37.8833 29.717ZM124.658 34.5249H123.301V30.6601H124.605C125.988 30.6601 127.51 30.8797 127.51 32.5233C127.51 34.1412 126.205 34.5249 124.658 34.5249ZM125.31 27.9073H123.301V22.8087L119.391 23.8664V37.2559H124.388C128.025 37.2559 131.42 36.2674 131.42 32.4579C131.42 29.2245 128.678 27.9073 125.31 27.9073ZM99.9282 33.8286C99.5543 34.1193 98.7725 34.4692 97.7345 34.4692C96.4044 34.4692 95.6561 33.799 95.6561 32.7525C95.6561 31.7024 96.463 31.1211 98.1381 31.0619L99.9282 31.0042V33.8286ZM98.1948 23.137C96.3476 23.137 94.5591 23.4258 92.6829 24.6519L93.8679 27.041C94.7883 26.517 95.9733 26.1094 97.3605 26.1094C98.7158 26.1094 99.9282 26.7146 99.9282 28.1702V28.4055L97.5582 28.4967C94.0987 28.6132 91.7622 30.128 91.7622 33.0412C91.7622 35.7825 93.7209 37.5288 96.3183 37.5288C98.081 37.5288 99.2915 36.8606 100.185 36.0436L100.792 37.2559H103.852V28.2648C103.852 24.6223 101.832 23.137 98.1948 23.137ZM61.0423 34.6791C60.3351 34.6791 59.7929 34.4315 59.3576 34.1312V27.5789C59.8203 26.8669 61.0422 26.0164 62.0727 26.0164C63.6476 26.0164 64.5699 27.031 64.5699 29.8827C64.5699 32.2403 63.7025 34.6791 61.0423 34.6791ZM62.8601 23.137C61.34 23.137 60.1729 23.8783 59.1676 24.6738L58.7328 23.4115H55.4481V44L59.3576 42.7939V36.9533C60.0648 37.337 60.9874 37.5288 61.9923 37.5288C66.0375 37.5288 68.4799 34.0482 68.4799 29.9362C68.4799 25.5496 66.01 23.137 62.8601 23.137ZM107.191 25.0294C107.191 29.8531 107.001 32.3764 106.133 33.5272C105.698 34.1031 105.02 34.4876 104.313 34.596L105.399 37.5296C106.295 37.5027 107.681 37.119 108.631 36.1597C109.88 34.9255 110.287 33.3634 110.477 31.7178C110.64 30.3202 110.749 28.6754 110.749 27.2225V26.5366H113.806V37.2555H117.716V23.4115H107.191V25.0294ZM88.284 26.5366V37.2555H84.374V26.5366H80.5734V23.4115H92.574L91.726 26.5366H88.284ZM76.0488 37.5296C71.6499 37.5296 69.3968 34.2681 69.3968 30.3752C69.3968 26.0164 72.3837 23.1374 76.3748 23.1374C78.1397 23.1374 79.0628 23.4942 79.7958 23.9325V27.0587C78.8179 26.3447 78.0301 26.0983 76.9452 26.0983C74.6917 26.0983 73.242 27.7704 73.242 30.1834C73.242 32.3488 74.3653 34.4603 76.8911 34.4603C77.596 34.4603 78.5297 34.1523 79.5342 33.631L80.4744 36.2135C79.3335 36.9817 77.4338 37.5296 76.0488 37.5296ZM9.17705 37.5296C3.23025 37.5296 0 33.1988 0 27.7704C0 22.2873 3.80143 17.7912 10.0456 17.7912C11.7025 17.7912 13.1407 18.0112 14.3893 18.669V22.2058C12.7333 21.2192 11.4032 21.0259 10.1816 21.0259C5.94604 21.0259 4.38442 24.1794 4.38442 27.4963C4.38442 31.1976 6.35387 34.1304 9.80079 34.1304C11.3224 34.1304 12.547 33.7048 14.0127 32.9097L15.0683 35.7756C12.8703 37.1736 10.9957 37.5296 9.17705 37.5296Z" fill="#002F6C"/>
<path d="M131.625 0.319872C131.871 0.436752 132.091 0.575935 132.271 0.743568C132.87 1.29645 133.152 2.2438 133.276 3.17117C133.362 3.83247 133.4 4.55721 133.378 5.35385C132.46 5.47919 131.45 5.6845 130.373 5.98593C128.702 6.45308 127.317 7.01787 126.172 7.6365C125.463 8.01829 124.847 8.42199 124.313 8.83646C123.579 9.40626 122.909 10.1245 122.732 10.9273C122.68 11.1795 122.67 11.4532 122.699 11.7389C121.971 10.7358 121.418 9.78958 120.999 8.91489C120.57 7.98868 120.271 6.96635 120.481 6.14588C120.69 5.32463 121.445 4.57644 122.262 3.97742C123.044 3.40685 123.982 2.85089 125.104 2.33031C126.211 1.81972 127.497 1.34374 128.985 0.927732L128.985 0.926964C129.906 0.670132 130.809 0.46559 131.625 0.319872ZM123.597 12.8654C123.574 12.5917 123.584 12.3302 123.637 12.0884C123.812 11.2887 124.484 10.5685 125.217 9.99605C125.741 9.59004 126.344 9.19479 127.038 8.81608C127.605 9.55582 128.286 10.3359 129.083 11.1268C130.319 12.3544 131.496 13.2833 132.599 13.9754C133.281 14.4037 133.935 14.7417 134.558 15.0012C135.414 15.358 136.364 15.5844 137.141 15.338C137.384 15.2576 137.624 15.1288 137.854 14.9616C137.358 16.0989 136.823 17.0558 136.282 17.8594C135.703 18.6983 134.975 19.4704 134.166 19.6968C133.357 19.9244 132.338 19.6388 131.416 19.2239C130.536 18.8256 129.589 18.2831 128.582 17.5618C127.59 16.8494 126.539 15.9632 125.438 14.8697L125.438 14.8709C124.757 14.1934 124.13 13.5056 123.597 12.8654ZM138.38 13.6321C138.156 13.7889 137.928 13.9112 137.694 13.9854C136.92 14.2326 135.966 14.005 135.109 13.6497C134.498 13.3948 133.858 13.0653 133.186 12.6474C133.537 11.7823 133.866 10.7969 134.145 9.70461C134.581 8.00983 134.789 6.51613 134.831 5.20583C134.857 4.39535 134.82 3.65369 134.731 2.97931C134.609 2.05272 134.328 1.10844 133.728 0.552097C133.538 0.380619 133.308 0.235287 133.049 0.116867C134.273 -0.0169315 135.361 -0.02808 136.321 0.0434322C137.33 0.130323 138.356 0.380619 138.955 0.974638C139.554 1.56827 139.819 2.60214 139.924 3.61601C140.023 4.58489 140.03 5.68335 139.915 6.92483C139.801 8.14824 139.566 9.51045 139.178 11.0199H139.18C138.939 11.9538 138.662 12.8462 138.38 13.6321Z" fill="#002F6C"/>
</svg>
