<svg width="819" class="quiz-decor" height="297" viewBox="0 0 819 297" fill="none" xmlns="http://www.w3.org/2000/svg">
    <path class="quiz-decor__ground" d="M843.001 194.997C745 157.997 572.631 135.111 458.003 147.997C317 163.847 197 189.997 3.00179 300.997" stroke="#FF5400" stroke-width="12"/>
    <path class="quiz-decor__home" fill-rule="evenodd" clip-rule="evenodd" d="M603.706 7.78507V1.78507L597.706 1.78507L570.147 1.78507L564.147 1.78507L564.147 7.78507L564.147 22.7268L540.481 3.16083L536.658 0L532.835 3.16083L443 77.4332L450.646 86.6816L462.46 76.9149L462.459 152.816L474.459 152.816L474.46 66.9938L536.658 15.5701L566.324 40.0966L593.883 62.881L598.573 66.7591L598.573 73.0585L598.573 96.8824L598.573 151.438H610.573L610.573 96.8824L610.573 76.6803L622.67 86.6816L630.317 77.4331L603.706 55.4323V7.78507ZM591.706 45.5111L576.147 32.6479L576.147 13.7851L591.706 13.7851L591.706 45.5111ZM565.202 86.6289V80.6289L559.202 80.6289H513.831H507.831V86.6289L507.831 150.068H519.831L519.831 92.6289H553.202L553.202 150.068H565.202L565.202 86.6289Z" fill="#FF5400"/>
</svg>