<svg xmlns="http://www.w3.org/2000/svg" xmlns:xlink="http://www.w3.org/1999/xlink" width="0" height="0" style="position:absolute">
	
		<symbol id="anchor" viewBox="0 0 21 22">
			<path class="st0" d="M11.7 9.1c2-.5 3.5-2.3 3.5-4.5C15.2 2 13.1 0 10.5 0S5.8 2.1 5.8 4.6c0 2.2 1.5 4 3.5 4.5v10.5c-4-.6-7-3.9-7-8H0C0 17.3 4.7 22 10.5 22S21 17.3 21 11.6h-2.3c0 4.1-3 7.5-7 8V9.1zm-1.2-2.2c1.3 0 2.3-1 2.3-2.3 0-1.3-1-2.3-2.3-2.3-1.3 0-2.3 1-2.3 2.3 0 1.3 1 2.3 2.3 2.3z" fill-rule="evenodd" clip-rule="evenodd"></path>
		</symbol>
	
		<symbol id="arrow" viewBox="0 0 20 20">
			<path class="st0" d="M20 10l-1.1.7c-3 1.9-4.8 4.3-5.8 6-1.1 1.9-1.5 3.3-1.5 3.3l-1.6-.4c0-.1.4-1.6 1.6-3.7 1-1.7 2.7-4 5.4-6-2.7-2-4.4-4.3-5.4-6C10.4 2 10 .5 10 .4l1.6-.4s.4 1.4 1.5 3.3c1 1.7 2.8 4.1 5.8 6l1.1.7z"></path><path class="st0" d="M18 9v2H0V9h18z"></path>
		</symbol>
	
		<symbol id="arrow-left" viewBox="0 0 11 18">
			<path d="M8.727 12.712A15.125 15.125 0 0 0 5.077 8.5a15.125 15.125 0 0 0 3.65-4.212c.92-1.582 1.237-2.79 1.258-2.87l.124-.49-.491-.12L8.405.514 7.928.399l-.124.475S7.535 1.89 6.755 3.219a12.842 12.842 0 0 1-4.209 4.346l.267.423-.267-.423-.812.511-.672.423.672.424.812.511a12.842 12.842 0 0 1 4.21 4.346c.768 1.31 1.04 2.317 1.048 2.345l.123.477.48-.116 1.211-.294.491-.12-.124-.49c-.02-.08-.337-1.288-1.258-2.87zm0 0l-.432.252m.432-.252l-.432.252m0 0c.56.961.887 1.777 1.056 2.263L4.666 8.813a14.623 14.623 0 0 1 3.629 4.15z" stroke="#FF5400"></path>
		</symbol>
	
		<symbol id="arrow-right" viewBox="0 0 12 18">
			<path d="M2.773 12.712A15.125 15.125 0 0 1 6.423 8.5a15.125 15.125 0 0 1-3.65-4.212c-.92-1.582-1.237-2.79-1.258-2.87l-.124-.49.491-.12L3.095.514l.477-.115.124.475s.269 1.016 1.049 2.345a12.842 12.842 0 0 0 4.209 4.346l-.267.423.267-.423.812.511.672.423-.672.424-.812.511a12.842 12.842 0 0 0-4.21 4.346c-.768 1.31-1.04 2.317-1.048 2.345l-.123.477-.48-.116-1.211-.294-.491-.12.124-.49c.02-.08.337-1.288 1.258-2.87zm0 0l.432.252m-.432-.252l.432.252m0 0c-.56.961-.887 1.777-1.056 2.263l4.685-6.414a14.623 14.623 0 0 0-3.629 4.15z" stroke="#FF5400"></path>
		</symbol>
	
		<symbol id="arrow-stroke" viewBox="0 0 12 24">
			<path fill-rule="evenodd" clip-rule="evenodd" d="M3.278 7.098C1.85 5.168.911 3.178 0 .814L2.233 0c.877 2.274 1.727 4.05 2.98 5.744 1.255 1.694 2.952 3.356 5.577 5.34L12 12l-1.21.915c-2.625 1.985-4.322 3.647-5.577 5.341C3.96 19.95 3.11 21.726 2.233 24L0 23.186c.911-2.363 1.85-4.355 3.278-6.284 1.214-1.64 2.755-3.198 4.873-4.902-2.118-1.704-3.659-3.262-4.873-4.902z"></path>
		</symbol>
	
		<symbol id="bedclothes" viewBox="0 0 49 37">
			<path fill-rule="evenodd" clip-rule="evenodd" d="M8.84 1c.746.103 1.473.2 2.181.29 10.556 1.347 17.145 1.339 26.985.018.713-.096 1.443-.199 2.192-.308-.113.795-.214 1.557-.303 2.292-.349 2.868-.517 5.328-.532 7.752 3.813.268 7.19 2.836 7.476 6.498l.852 10.879c.336 4.295-3.693 7.466-8.136 7.466H9.625c-4.444 0-8.473-3.17-8.137-7.466l.852-10.879c.283-3.611 3.572-6.16 7.32-6.486-.033-2.395-.213-4.868-.542-7.772C9.035 2.551 8.942 1.792 8.84 1zm.809 12.291c-2.963.317-5.023 2.311-5.19 4.433l-.852 10.879c-.194 2.485 2.266 5.057 6.017 5.057h29.931c3.752 0 6.212-2.572 6.017-5.057l-.852-10.879c-.168-2.155-2.291-4.178-5.328-4.446.07 2.168.254 4.398.537 6.95.082.737.171 1.501.269 2.298-.747-.123-1.475-.237-2.185-.345-10.027-1.515-16.594-1.528-26.983.008-.712.105-1.44.217-2.19.337.106-.797.202-1.56.287-2.298.294-2.526.47-4.746.522-6.937zm1.657 6.61c.647-5.833.655-10.175-.017-16.335 10.226 1.277 16.87 1.274 26.428.024-.692 6.011-.6 10.356.036 16.303-9.737-1.434-16.378-1.445-26.447.007z" stroke="currentColor" stroke-width="1.5"></path>
		</symbol>
	
		<symbol id="calendar" viewBox="0 0 20 20">
			<path class="st0" d="M14 1H6V0H4v1C1.8 1 0 2.8 0 5v11c0 2.2 1.8 4 4 4h12c2.2 0 4-1.8 4-4V5c0-2.2-1.8-4-4-4V0h-2v1zM4 4V3c-1.1 0-2 .9-2 2v1h16V5c0-1.1-.9-2-2-2v1h-2V3H6v1H4zM2 8v8c0 1.1.9 2 2 2h12c1.1 0 2-.9 2-2V8H2z" fill-rule="evenodd" clip-rule="evenodd"></path>
		</symbol>
	
		<symbol id="check" viewBox="0 0 35.9 25.3">
			<path class="st0" d="M14.5 25.3L11.6 21c-2.3-3.4-7-6.9-11.6-8.6l2.5-6.5c4.4 1.7 8.7 4.5 11.9 7.7C17.8 9.8 23.5 5 32.6 0L36 6.1c-11 6-16.1 11.4-18.5 14.9l-3 4.3z"></path>
		</symbol>
	
		<symbol id="close" viewBox="0 0 19.9 20">
			<path class="st0" d="M8.6 10L0 1.4 1.4 0 10 8.6 18.5 0l1.4 1.4-8.5 8.6 8.6 8.6-1.5 1.4-8.5-8.6L1.4 20 0 18.6 8.6 10z"></path>
		</symbol>
	
		<symbol id="copy" viewBox="0 0 16 19">
			<path d="M5 3.5V2a1 1 0 0 1 1-1h8a1 1 0 0 1 1 1v11.5a1 1 0 0 1-1 1h-2m-1-9V17a1 1 0 0 1-1 1H2a1 1 0 0 1-1-1V5.5a1 1 0 0 1 1-1h8a1 1 0 0 1 1 1z" stroke="#FF5400" stroke-width="2"></path>
		</symbol>
	
		<symbol id="copy2" viewBox="0 0 16 19">
			<path class="st0" d="M10 19H2c-1.1 0-2-.9-2-2V5.5c0-1.1.9-2 2-2h2V2c0-1.1.9-2 2-2h8c1.1 0 2 .9 2 2v11.5c0 1.1-.9 2-2 2h-2v-2h2V2H6v1.5h4c1.1 0 2 .9 2 2V17c0 1.1-.9 2-2 2zm0-13.5H2V17h8V5.5z"></path>
		</symbol>
	
		<symbol id="double-quotes" viewBox="0 0 45 41">
			<path d="M11.417 3.816c.757 8.646-1.79 18.183-10.529 30.632l8.115 5.717C18.63 26.45 22.319 14.617 21.298 2.952l-9.88.864zM34.252 1.818c.769 8.78-1.538 18.354-9.426 30.706l8.356 5.355C41.904 24.221 45.142 12.485 44.134.955l-9.882.864z"></path>
		</symbol>
	
		<symbol id="download" viewBox="0 0 20 22">
			<path class="st0" d="M14.1 10.7c1.6-1.2 3.3-2 5.2-2.7l.7 1.9c-1.9.7-3.4 1.4-4.8 2.5-1.4 1-2.8 2.5-4.5 4.6l-.7 1-.8-1c-1.7-2.2-3-3.6-4.5-4.6-1.4-1-2.9-1.8-4.8-2.5L.7 8c2 .8 3.6 1.5 5.2 2.7C7 11.5 8 12.4 9 13.6V0h2v13.6c1-1.2 2-2.1 3.1-2.9z"></path><path class="st1" d="M0 20v2h20v-2H0z"></path>
		</symbol>
	
		<symbol id="download-big" viewBox="0 0 24 24">
			<path fill-rule="evenodd" clip-rule="evenodd" d="M16.085 10.732C17.693 9.542 19.352 8.76 21.322 8L22 9.86c-1.895.732-3.375 1.44-4.786 2.485-1.412 1.045-2.797 2.46-4.451 4.647L12 18l-.763-1.008c-1.654-2.188-3.039-3.602-4.45-4.647C5.374 11.3 3.894 10.59 2 9.86L2.678 8c1.97.76 3.63 1.541 5.237 2.732 1.051.779 2.062 1.718 3.119 2.913V0h1.932v13.645c1.057-1.195 2.068-2.134 3.119-2.913z"></path><path d="M2 20v2h20v-2H2z"></path>
		</symbol>
	
		<symbol id="drop" viewBox="0 0 9.1 14.4">
			<path class="st0" d="M.7 12.8l-.1.5.5.1 1 .2.5.1.1-.5s.2-.8.8-1.9c.6-1 1.6-2.4 3.3-3.4l.7-.4.7-.4-.7-.3-.7-.4C5.1 5.3 4.1 3.9 3.5 2.9c-.6-1-.8-1.9-.8-1.9L2.5.6l-.4.1-1 .3-.5.1.1.5c0 .1.3 1 1 2.3.5.9 1.4 2.2 2.8 3.3-1.4 1.1-2.3 2.4-2.8 3.3-.7 1.3-.9 2.3-1 2.3zm1.5-2l-.4-.3m.4.3l-.4-.3m3.2-3l-3.6 5c.1-.4.4-1 .8-1.7.5-.9 1.4-2.2 2.8-3.3z"></path><path class="st0" d="M0 13.7l.2-1s.3-1.1 1.1-2.5c.5-.8 1.3-2 2.5-3.1-1.2-1-2-2.1-2.5-3C.5 2.8.3 1.8.2 1.6L0 .7 2.9 0l.2.9s.2.8.8 1.7c.5.9 1.5 2.2 3.2 3.3l2 1.3-2 1.3c-1.6 1-2.6 2.3-3.2 3.3-.6 1-.8 1.7-.8 1.7l-.2 1-2.9-.8zm6.6-6.9C4.8 5.7 3.7 4.2 3.1 3.2c-.6-1.1-.9-1.9-.9-2l-1 .2s.2 1 1 2.2c.5.8 1.4 2.1 2.7 3.2l.5.4-.3.3.4.3-3.6 5-.4-.2c-.2.2-.3.4-.3.4l1 .2s.2-.9.9-2c.6-1 1.7-2.5 3.5-3.6l.6-.4-.6-.4z"></path>
		</symbol>
	
		<symbol id="drop-light" viewBox="0 0 11.7 23.3">
			<path class="st0" d="M3.2 6.9C1.8 5 .9 3.1 0 .8L2.2 0C3 2.2 3.8 3.9 5.1 5.6c1.2 1.6 2.9 3.3 5.4 5.2l1.2.9-1.2.9c-2.6 1.9-4.2 3.5-5.4 5.2-1.2 1.6-2 3.4-2.9 5.6L0 22.5c.9-2.3 1.8-4.2 3.2-6.1 1.2-1.6 2.7-3.1 4.7-4.8-2-1.6-3.5-3.1-4.7-4.7z"></path>
		</symbol>
	
		<symbol id="exel" viewBox="0 0 15 20">
			<path d="M6.64 9.553L1.004 0h2.194l4.581 7.763L12.713 0h2.244L8.859 9.594 15 20h-2.194l-5.085-8.617L2.244 20H0L6.64 9.553z"></path>
		</symbol>
	
		<symbol id="filter" viewBox="0 0 23.3 18.7">
			<path class="st0" d="M18.7 9.3c2.6 0 4.7-2.1 4.7-4.7S21.2 0 18.7 0c-2.2 0-4 1.5-4.5 3.5H0v2.3h14.1c.6 2 2.4 3.5 4.6 3.5zM21 4.7C21 6 20 7 18.7 7c-1.3 0-2.3-1-2.3-2.3 0-1.3 1-2.3 2.3-2.3 1.3-.1 2.3 1 2.3 2.3zM4.7 18.7c2.2 0 4-1.5 4.5-3.5h14.1v-2.3H9.2c-.5-2-2.3-3.5-4.5-3.5C2.1 9.3 0 11.4 0 14s2.1 4.7 4.7 4.7zM7 14c0 1.3-1 2.3-2.3 2.3-1.3 0-2.3-1-2.3-2.3s1-2.3 2.3-2.3C6 11.7 7 12.7 7 14z"></path>
		</symbol>
	
		<symbol id="hamburger" viewBox="0 0 24 15.4">
			<path class="st0" d="M0 0v1.5h24V0H0zm9 15.4h15V14H9v1.4zM0 8.5h24V7H0v1.5z"></path>
		</symbol>
	
		<symbol id="heart" viewBox="0 0 19.2 19.9">
			<path class="st0" d="M15.8 19.9c-2.4-1.2-5.5-3.3-7.8-4.9C3.1 16.7.4 17.2.3 17.2l-.3-2s2.1-.3 5.9-1.6h-.1C4 12.4 2.4 11.2 1.2 9.3-.4 6.6 0 3.4 2.2 2 4.8.4 7.3 2 8.5 3.1 9.5 2 11.2.3 13 .1c1.6-.2 3.2.3 4.4 1.3 1.1 1 1.6 2.3 1.6 3.9 0 4.3-5 7.2-8.9 8.8 2.1 1.4 4.5 3 6.5 3.9l-.8 1.9zM4.6 3.3c-.4 0-.8.1-1.2.4C2.1 4.4 2 6.5 3 8.2c.9 1.5 2.4 2.6 4 3.7l1.3.9c5.6-2.1 8.9-4.9 8.9-7.5 0-1-.3-1.8-1-2.4-.7-.6-1.8-1-2.8-.8-1.3.1-3 2-3.9 3.1l-.8 1L8 5.1c-.1 0-1.7-1.8-3.4-1.8z"></path>
		</symbol>
	
		<symbol id="home" viewBox="0 0 23.3 21.8">
			<path class="st0" d="M11.7 0L0 9.5v12.3h23.3V9.5L11.7 0zm0 3l9.3 7.6v8.9H2.3v-8.9L11.7 3z"></path>
		</symbol>
	
		<symbol id="loupe" viewBox="0 0 21.6 21.6">
			<path class="st0" d="M21.6 19.8l-1.8 1.8-5.4-5.4c-1.5 1.1-3.4 1.6-5.2 1.6-5.1 0-9.1-4-9.1-8.9C0 4 4.1 0 9.1 0c5.1 0 9.1 4 9.1 8.9 0 2.1-.7 4.1-2.1 5.7.1 0 5.5 5.2 5.5 5.2zM15.7 8.9c0-3.5-2.9-6.4-6.5-6.4S2.7 5.4 2.7 8.9c0 3.5 2.9 6.4 6.5 6.4 3.5 0 6.5-2.8 6.5-6.4z"></path>
		</symbol>
	
		<symbol id="pdf" viewBox="0 0 29 30">
			<path class="st0" d="M2.1 30c-.5 0-1-.2-1.4-.6-.5-.5-.7-1.2-.6-1.9.5-2.4 4.9-4.7 6.8-5.5 2.1-3.6 3.9-8.2 5.3-13-1.3-2.1-2.3-5.7-1.5-7.5.3-.8.9-1.3 1.6-1.5.8-.2 1.6.1 2.1.8 1.3 1.7.9 5.6 0 7.9 1.8 3.6 3.8 7.4 6.2 10 2.5-.1 6.5.2 7.8 1.9.5.6.6 1.3.4 2-.2.8-.8 1.3-1.5 1.5-2.3.6-6.1-2.1-7.5-3.3-3.8.4-7.6 1.3-11.6 2.8-.9 2-3.5 5.8-5.7 6.3-.1.1-.3.1-.4.1zm3-4.9c-1.9 1.1-3.2 2.3-3.1 2.8.6.2 2-1.2 3.1-2.8zm18.1-4.2c1.4.9 3 1.6 3.7 1.4.1 0 .1 0 .1-.1V22c-.5-.5-2-1-3.8-1.1zm-9.6-9.4c-1.1 3.4-2.4 6.7-3.9 9.5 2.9-.9 5.6-1.6 8.4-2h.1c-1.8-2.2-3.3-4.8-4.6-7.5zM12.7 2c-.1 0-.1 0-.2.2-.3.8 0 2.5.5 4.1.3-1.8.2-3.5-.2-4.1 0-.2 0-.2-.1-.2z"></path>
		</symbol>
	
		<symbol id="plus" viewBox="0 0 24 24">
			<path class="st0" d="M10.8 13.2V24h2.4V13.2H24v-2.4H13.2V0h-2.4v10.8H0v2.4h10.8z"></path>
		</symbol>
	
		<symbol id="pram" viewBox="0 0 44 38">
			<path fill-rule="evenodd" clip-rule="evenodd" d="M26.297 15.001V1.475l.539-.022.022.551-.022-.55h.004l.01-.001a4.987 4.987 0 0 1 .173-.003c.118-.001.287 0 .501.005.428.012 1.037.045 1.766.13 1.454.169 3.404.546 5.362 1.383 1.96.838 3.943 2.145 5.435 4.177 1.496 2.038 2.472 4.769 2.472 8.407H42l.56.001v.048l-.004.124c-.004.106-.012.26-.027.453-.031.386-.092.934-.215 1.59-.244 1.31-.733 3.064-1.716 4.824-.985 1.763-2.468 3.534-4.695 4.863-.441.263-.91.509-1.41.732.072-.003.144-.005.217-.005 2.477 0 4.486 1.974 4.486 4.41 0 2.434-2.009 4.408-4.486 4.408-2.478 0-4.486-1.974-4.486-4.409a4.38 4.38 0 0 1 1.83-3.553c-1.512.392-3.234.614-5.195.614-2.236 0-4.168-.27-5.837-.735a4.386 4.386 0 0 1 2.005 3.674c0 2.435-2.008 4.41-4.486 4.41-2.477 0-4.486-1.975-4.486-4.41s2.009-4.409 4.486-4.409c.152 0 .3.008.448.022-3.135-1.348-5.116-3.465-6.355-5.605-1.02-1.76-1.528-3.515-1.781-4.827a14.973 14.973 0 0 1-.223-1.593 10.293 10.293 0 0 1-.03-.527c-.934-2.573-1.92-4.048-3.21-5.029-1.32-1.003-3.021-1.54-5.518-2.112l.255-1.073c2.5.572 4.419 1.15 5.95 2.313 1.474 1.121 2.532 2.74 3.475 5.25h14.746zM27.42 2.555l.074.002c.4.01.974.042 1.665.122 1.384.161 3.22.518 5.047 1.3 1.825.78 3.627 1.978 4.973 3.811 1.27 1.73 2.159 4.059 2.252 7.211H27.419V2.555zM11.748 16.104c.03.353.088.857.205 1.463.238 1.228.712 2.86 1.654 4.487 1.864 3.217 5.605 6.496 13.251 6.496 3.697 0 6.433-.826 8.462-2.037 2.03-1.212 3.387-2.827 4.294-4.452.91-1.627 1.367-3.26 1.596-4.49.113-.608.17-1.114.199-1.467H11.748zm22.96 19.794c1.859 0 3.365-1.48 3.365-3.307 0-1.826-1.506-3.306-3.364-3.306-1.859 0-3.365 1.48-3.365 3.306 0 1.827 1.506 3.307 3.365 3.307zm-12.803-3.307c0 1.827-1.507 3.307-3.365 3.307-1.858 0-3.364-1.48-3.364-3.307 0-1.826 1.506-3.306 3.364-3.306 1.858 0 3.365 1.48 3.365 3.306z" stroke="currentColor" stroke-width="2"></path>
		</symbol>
	
		<symbol id="question" viewBox="0 0 24.9 38.5">
			<path class="st0" d="M14.2 38.5h-7v-6h7v6zm0-8h-7c0-8.8 4.3-11.8 7.5-14.1 2.4-1.7 3.3-2.5 3.3-4.9 0-2.6-2.3-4.2-4.6-4.5-3.1-.4-5.8 1.5-6.5 4.5L0 10C1.5 3.5 7.5-.7 14.2.1c6.1.7 10.7 5.6 10.7 11.4 0 6.2-3.6 8.7-6.2 10.6-2.6 1.9-4.5 3.2-4.5 8.4z"></path>
		</symbol>
	
		<symbol id="rub" viewBox="0 0 30.3 36.1">
			<path class="st0" d="M19.8 4c3.8 0 6.5 2.7 6.6 5.5 0 2.9-2.6 5.6-6.4 5.6l-12.2.2V4.1l12-.1zm-.1-4c5.6-.1 10.5 4 10.6 9.5.1 5.5-4.8 9.6-10.4 9.7l-12.1.1V27l8.8-.1v4l-8.7.1v5.2h-4v-5.1H.1L0 27h3.9V.1h2L19.7 0z"></path>
		</symbol>
	
		<symbol id="share" viewBox="0 0 24.2 25.7">
			<path class="st0" d="M19.5 16.3c-.7 0-1.4.2-2 .5-.6.3-1.2.7-1.6 1.3l-6.8-3.4c.1-.4.2-.8.2-1.2 0-.5-.1-1.1-.3-1.6l7-4.2c.4.5 1 .9 1.6 1.1.6.3 1.3.4 1.9.4.9 0 1.8-.3 2.5-.8.8-.5 1.3-1.2 1.7-2.1s.4-1.8.2-2.7c-.2-.9-.6-1.7-1.3-2.3C22 .7 21.1.2 20.2.1c-.9-.2-1.8-.1-2.7.3-.8.4-1.6.9-2.1 1.7-.5.8-.8 1.6-.8 2.6 0 .5.1 1 .3 1.5L8 10.4C7.3 9.7 6.5 9.2 5.6 9s-1.9-.1-2.8.3c-.9.4-1.6 1-2.1 1.8S0 12.8 0 13.8c0 .9.4 1.8 1 2.6.6.7 1.4 1.3 2.3 1.6.9.3 1.9.3 2.8 0 .9-.3 1.7-.8 2.3-1.6l6.7 3.4c-.1.4-.2.8-.2 1.2 0 .9.2 1.8.8 2.6.5.8 1.2 1.4 2.1 1.7.9.4 1.8.5 2.7.3s1.7-.6 2.4-1.3c.7-.6 1.1-1.5 1.3-2.4s.1-1.8-.3-2.7c-.4-.9-.9-1.6-1.7-2.1-.9-.5-1.8-.8-2.7-.8zm2.8 4.7c0 .6-.2 1.1-.5 1.6s-.7.8-1.3 1-1.1.3-1.6.2c-.5-.1-1-.4-1.4-.8-.4-.4-.7-.9-.8-1.4-.1-.5-.1-1.1.2-1.6.2-.5.6-1 1-1.3.5-.3 1-.5 1.6-.5.4 0 .7.1 1.1.2s.6.3.9.6c.3.3.5.6.6.9.1.4.2.7.2 1.1zM16.7 4.7c0-.6.2-1.1.5-1.6s.7-.8 1.3-1c.5-.2 1.1-.3 1.6-.2.5.1 1 .4 1.4.8.4.4.7.9.8 1.4.1.5.1 1.1-.2 1.6-.2.5-.6 1-1 1.3-.5.3-1 .5-1.6.5-.4 0-.7-.1-1.1-.2-.3-.1-.6-.3-.9-.6-.3-.3-.5-.6-.6-.9-.2-.4-.2-.8-.2-1.1zm-9.3 8.8c0 .6-.2 1.1-.5 1.6s-.7.8-1.3 1c-.5.2-1.1.3-1.6.2-.5-.1-1-.4-1.4-.8-.4-.4-.7-.9-.8-1.4-.1-.5 0-1.1.2-1.6s.6-.9 1-1.3c.5-.3 1-.5 1.6-.5.7 0 1.4.3 2 .8.5.6.8 1.3.8 2z"></path>
		</symbol>
	
		<symbol id="stroke" viewBox="0 0 22 22">
			<path fill-rule="evenodd" clip-rule="evenodd" d="M13.81 6.8C12.587 5.144 11.783 3.437 11 1.412l1.914-.698c.752 1.949 1.481 3.472 2.556 4.923 1.075 1.452 2.529 2.877 4.78 4.578l1.036.785-1.037.784c-2.25 1.701-3.704 3.126-4.78 4.578-1.074 1.451-1.803 2.974-2.555 4.923l-1.913-.698c.78-2.025 1.585-3.732 2.81-5.386.8-1.081 1.766-2.12 2.996-3.208H.715v-1.987h16.092c-1.23-1.087-2.196-2.127-2.996-3.208z"></path>
		</symbol>
	
		<symbol id="success" viewBox="0 0 20 14">
			<path d="M9.281 14H7.028L0 6.321 2.254 3.86l5.91 6.437L17.763 0 20 2.482 9.281 14z"></path>
		</symbol>
	
		<symbol id="tab-underline" viewBox="0 0 801 9">
			<path d="M.5 7c17.35-3.944 26.736-5 44.444-5C62.654 2 71.68 7 89.39 7s27.111-5 44.819-5c17.709 0 26.736 5 44.445 5 17.708 0 26.735-5 44.444-5 17.709 0 26.361 5 44.07 5 17.708 0 27.11-5 44.819-5 17.709 0 26.361 5 44.07 5 17.708 0 27.11-5 44.819-5 17.709 0 26.361 5 44.069 5 17.709 0 27.111-5 44.82-5 17.708 0 26.361 5 44.069 5 17.709 0 27.111-5 44.82-5 17.708 0 26.361 5 44.069 5 17.709 0 27.111-5 44.82-5 17.708 0 26.36 5 44.069 5 17.709 0 27.111-5 44.819-5 17.709 0 44.07 5 44.07 5" stroke="#FF5400" stroke-width="3"></path>
		</symbol>
	
		<symbol id="tick" viewBox="0 0 37 27">
			<path d="M2 10.095C7.022 12 12.402 15.81 15.272 20 18.142 15.81 23.88 10.095 35 4" stroke="#FF5400" stroke-width="7"></path>
		</symbol>
	
		<symbol id="triangle" viewBox="0 0 15 20.9">
			<path class="st0" d="M.5 20.9l-.4-1.3c-.1-.1-.1-.3-.1-.5V1.8c0-.2 0-.4.1-.5L.5 0l14.3 9.5.1.3c.1.2.1.4.1.7s0 .5-.1.7l-.1.2-.3.3-14 9.2zm1.3-1.8H2h-.2zM2 3.4v14.1l10.7-7.1L2 3.4z"></path>
		</symbol>
	
		<symbol id="vk" viewBox="0 0 38 24">
			<path class="st0" d="M12.4 1.9l-.8.6 1.2 1.6.8-.6-1.2-1.6zm4-.8l-.2-1 .2 1zM22 2.8l1-.2-1 .2zm1 8.7l-.1 1 .1-1zm5.5-9.1l-.7-.7.7.7zm1.9 10.1h-1 1zm6.6 8.9l.8.5-.8-.5zm-13.4-4l-.2-1 .2 1zm-5.9 5.3l-.2 1 .2-1zM1 2.2l.8.5-.8-.5zm14 9.9l.3 1c.1 0 .1 0 .2-.1l-.5-.9zm-2-9.4l.6.8s.1-.1.2-.1c.2-.1.4-.3.7-.4.6-.3 1.3-.7 2-.8l-.3-2c-1 .2-2 .6-2.6 1-.3.2-.6.4-.8.5-.1.1-.2.1-.2.2h-.1c-.1 0-.1 0 .5.8zm3.6-.6c1.3-.2 2.5 0 3.3.3.4.2.8.3 1 .5.3.2.2.3.2.1l1.9-.5c-.1-.5-.6-1-.9-1.2-.4-.3-.9-.6-1.5-.8-1.2-.4-2.7-.7-4.4-.4l.4 2zm4.5.9v1.5c0 .8 0 1.9.1 3 0 1 .1 2.1.3 2.9l.3 1.2c.1.3.5.9 1.2.9l.2-2c.4 0 .5.4.4.2 0-.1-.1-.3-.2-.7-.1-.7-.2-1.6-.2-2.7 0-1 0-2-.1-2.9V3.3c0-.3 0-.6-.1-.8l-1.9.5zm1.9 9.5c.4 0 .7-.1.9-.2.2-.1.4-.3.5-.4.3-.3.6-.7.8-1.1.5-.8 1.1-1.9 1.7-3 .3-.6.6-1.1.8-1.6.3-.5.5-1 .7-1.5.2-.4.4-.8.6-1.1.1-.1.1-.2.2-.3.1-.1.1-.1 0-.1l-1.4-1.5c-.1.1-.2.3-.3.4-.1.1-.2.3-.3.4-.2.3-.4.7-.6 1.2-.2.5-.5 1-.7 1.5-.3.5-.5 1.1-.8 1.6-.6 1.1-1.1 2.1-1.6 2.9-.2.4-.4.6-.6.8l-.1.1s.1-.1.4-.1l-.2 2zm6.2-9.4c-.1.1-.2.1 0 0-.1.1 0 0 .1 0 .2 0 .5-.1.9-.1.7-.1 1.7-.1 2.6-.1.9 0 1.8.1 2.5.2.3.1.5.1.6.2.1 0 0 0 0 0-.1-.1-.3-.3-.3-.6h2c0-.5-.3-.8-.4-.9-.2-.1-.4-.2-.5-.3-.3-.1-.7-.2-1-.3-.8-.1-1.7-.2-2.7-.3-1 0-2 0-2.9.1-.4 0-.8.1-1.2.2-.2 0-.3.1-.5.2-.1.1-.4.2-.5.3l1.3 1.4zm6.4-.4c0-.2.1-.3 0-.2 0 .1-.1.1-.1.3-.2.3-.4.6-.7 1-.6.9-1.3 1.9-2.1 3-.8 1.2-1.6 2.3-2.2 3.2-.3.5-.6.9-.7 1.3-.1.2-.2.4-.2.6-.1.2-.1.4-.1.7h2c0 .1 0 .1 0 0s.1-.2.1-.3c.1-.3.4-.7.7-1.1.6-.9 1.3-2 2.1-3.1S36 5.9 36.5 5c.3-.4.6-.8.7-1.2.1-.2.2-.3.2-.5 0-.1.2-.4.2-.6h-2zm-6.2 9.9c0 .3.1.5.2.7.1.2.2.4.3.5.2.4.5.8.9 1.2.7.8 1.6 1.8 2.4 2.8.9 1 1.7 1.9 2.2 2.6.3.4.5.7.6.8v.1s0-.2.1-.5l1.7 1.1c.2-.4.2-.7.2-1 0-.2-.1-.5-.2-.6-.2-.4-.5-.8-.8-1.2-.6-.8-1.5-1.8-2.3-2.8-.9-1-1.7-1.9-2.4-2.7-.3-.4-.6-.7-.7-1-.1-.1-.1-.2-.2-.3v.1l-2 .2zm6.7 8.3l.1-.1c0-.1 0 0-.1.1-.2 0-.5.1-.9.1-.8.1-1.7.2-2.7.3h-2.7c-.4 0-.7 0-.9-.1h-.2s.1 0 .3.2l-1.3 1.5c.2.1.3.2.4.2.1 0 .2.1.2.1.1 0 .3 0 .4.1.3 0 .6.1 1 .1h2.9c1 0 2.1-.1 3-.3l1.2-.3c.2-.1.4-.1.5-.2.2-.1.4-.2.5-.5l-1.7-1.2zm-7.1.5s.1 0 0 0c0 0-.1-.1-.1-.2-.1-.2-.3-.4-.4-.6-.3-.5-.8-1.1-1.3-1.7-.5-.6-1-1.2-1.6-1.7-.3-.2-.6-.5-.9-.6-.3-.1-.8-.3-1.2-.2l.4 2c-.1 0-.1 0 0 0 .1.1.3.2.5.3.4.3.9.9 1.3 1.4.5.6.9 1.2 1.2 1.6.2.2.3.5.4.6.1.1.1.2.2.2 0 .1.1.1.2.2l1.3-1.3zm-5.6-5c-1 .2-1.3 1-1.5 1.6-.2.6-.2 1.3-.2 1.9v2.2s0-.1.1-.1l1.6 1.2c.1-.2.2-.4.2-.5 0-.1.1-.3.1-.4v-.8-.8-.9c0-.6 0-1.1.1-1.4.1-.4.1-.2-.1-.1l-.3-1.9zM21.9 22c.1-.1.2-.1.1-.1 0 0-.1 0-.1.1h-1.1c-.9 0-2-.1-2.9-.3l-.3 2c1.1.2 2.2.3 3.3.3.5 0 1 0 1.4-.1.2 0 .4-.1.6-.2.2-.1.5-.2.6-.5L21.9 22zm-4-.3C13 20.7 8.8 16.1 6 11.4 4.6 9.1 3.5 6.8 2.8 5.1c-.3-.9-.6-1.6-.7-2.1-.1-.3-.1-.5-.1-.6v-.1.1s0 .1-.1.2L.2 1.7c-.2.2-.2.4-.2.5v.4c0 .2.1.5.2.8.1.7.4 1.5.8 2.4.7 1.8 1.8 4.2 3.3 6.7 2.9 4.8 7.4 10 13.2 11.2l.4-2zm-16-19c-.2.2-.3.2-.1.2.1 0 .4-.1.7-.1.6-.1 1.5-.1 2.4 0 .9 0 1.7.1 2.4.2.3-.1.6 0 .8.1.1 0 .2 0 .2.1.1 0 0 0-.1-.1l1.3-1.5c-.2-.2-.4-.3-.5-.3-.1-.1-.3-.1-.4-.2C8.3 1 8 1 7.6.9 6.8.8 5.9.7 5 .7c-.9 0-1.9 0-2.7.1-.4 0-.8.1-1.1.2-.3 0-.7.2-1 .7l1.7 1zm6.3.4c-.1-.2-.1-.2-.1-.1s.1.2.1.3c.2.3.4.7.6 1.2.4 1 .9 2.3 1.4 3.6.6 1.3 1.2 2.6 2 3.5.7.9 1.8 1.8 3.2 1.4l-.6-1.9c-.1 0-.4.1-1-.8-.6-.7-1.2-1.8-1.7-3.1-.5-1.2-1-2.5-1.4-3.5-.2-.5-.4-1-.5-1.3-.2-.1-.2-.2-.3-.4-.1-.1-.2-.3-.4-.5L8.2 3.1zm7.3 9.9c.3-.2.5-.4.5-.5.1-.2.2-.3.2-.5.1-.3.1-.7.2-1 .1-.8.1-1.7.1-2.6V5.9v-.8-.2-.1h-2v3.5c0 .9 0 1.7-.1 2.4 0 .3-.1.6-.1.7v.1l.3-.3.9 1.8z"></path>
		</symbol>
	
		<symbol id="word" viewBox="0 0 21 17">
			<path d="M3.815 17L0 0h2.05l3.238 14.433L8.527 0h2.947l3.239 14.433L17.952 0h2.05l-3.815 17h-2.948L10.001 2.567 6.762 17H3.815z"></path>
		</symbol>
	
		<symbol id="yt" viewBox="0 0 34 26">
			<path class="st0" d="M5.2 23.7l-.9-.4-.8 1.8.9.4.8-1.8zm22.3 1.2v1-1zm5.2-18.8l1-.2-1 .2zm-5.9-5l-.1 1 .1-1zM1.1 6.2h-1 1zm12 10.5l-.9.4.8 1.8.9-.4-.8-1.8zm8.9-4.2h-1 1zm-8.8-4.4l-.8-.6.8.6zM4.4 25.5c.2.1.5.2.7.2.2 0 .6.1.9.1.7.1 1.6.1 2.7.1 2.1.1 4.8.1 7.5.1 5.4 0 10.7-.1 11.4-.1l-.1-2c-.6 0-5.9.1-11.3.1-2.7 0-5.3 0-7.4-.1-1 0-1.9-.1-2.6-.1-.3 0-.6 0-.8-.1-.2 0-.2-.1-.2 0l-.8 1.8zm23.2.4c1.7-.2 3.2-1.2 4.3-2.4 1.1-1.2 1.9-2.8 2-4.3l-2-.1c-.1.9-.6 2.1-1.5 3.1s-2 1.6-3 1.7l.2 2zm6.2-6.7c.1-1.2.2-4 .2-6.7V8.6c0-1.1-.1-2.1-.2-2.7l-2 .4c.1.4.2 1.2.2 2.4v3.8c0 2.7-.1 5.4-.2 6.6l2 .1zm-.1-13.3C33 3 30.4.3 26.8.1l-.1 2c2.5.1 4.5 2.1 5 4.2l2-.4zM26.9.1C25.6 0 20.5 0 15.6 0c-2.5 0-5 .1-7 .1-1 0-1.9.1-2.6.1-.7 0-1.2.1-1.6.1l.4 2c.2 0 .6-.1 1.3-.1.7 0 1.5-.1 2.5-.1 2-.1 4.4-.1 6.9-.1 5-.1 10 0 11.2 0l.2-1.9zM4.5.4c-1.2.2-2.3.8-3.1 1.7-.8 1-1.2 2.3-1.3 4l2 .1c0-1.4.4-2.3.8-2.8s1.1-.9 1.9-1l-.3-2zM.1 6.2c0 1.6-.1 5-.1 8.3 0 1.6 0 3.2.1 4.4 0 .6.1 1.2.1 1.6 0 .2.1.4.1.6 0 .2.1.4.2.6l1.8-.9v-.1c0-.1 0-.3-.1-.4 0-.4-.1-.9-.1-1.5C2 17.6 2 16 2 14.4c0-3.2 0-6.6.1-8.2h-2zm13.4 11.4l.4.9h.1c.1 0 .2-.1.3-.1l1-.5c.8-.4 1.9-.9 2.9-1.5 1.1-.6 2.2-1.2 3-1.7.4-.3.8-.6 1.1-.9.1-.1.3-.3.4-.5.1-.2.2-.5.2-.8h-2c0-.2.1-.3.1-.3s0 .1-.1.1c-.2.2-.4.4-.8.6-.7.5-1.8 1.1-2.8 1.6-1 .5-2.1 1.1-2.9 1.4-.4.2-.7.3-.9.4-.1.1-.2.1-.3.1h-.1c0 .3 0 .3.4 1.2zm9.5-5.1c0-.3-.1-.6-.2-.8-.1-.2-.3-.4-.4-.5-.3-.3-.7-.6-1.1-.9-.8-.6-1.9-1.2-3-1.7s-2.2-1-3.1-1.3c-.4-.1-.9-.3-1.3-.3h-.6c-.2 0-.6.1-.9.5L14 8.7c-.2.2-.4.3-.4.3h.1c.2 0 .5.1.9.2.8.3 1.8.7 2.9 1.2 1 .5 2 1.1 2.8 1.6.4.3.6.5.8.6l.1.1s-.1-.1-.1-.2H23zM12.4 7.6c-.2.3-.3.7-.3.9-.1.3-.1.6-.1 1 0 .7-.1 1.6-.1 2.5V15.3h2v-.1-.2-.7-2.2c0-.8 0-1.6.1-2.3v-1c0-.2.1-.2 0-.2l-1.6-1z"></path>
		</symbol>
	
		<symbol id="zipper" viewBox="0 0 15.3 19.9">
			<path class="st0" d="M5.1 19.9v-7.7H0L10.1 0v8.3h5.2L5.1 19.9zm-.9-9.6h2.9v4.3l3.8-4.3H8.1V5.6l-3.9 4.7z"></path>
		</symbol>
	
</svg>
