<svg width="135" height="72" viewBox="0 0 135 72" fill="none" xmlns="http://www.w3.org/2000/svg">
<path d="M131.379 51.2035C124.452 49.312 117.432 47.9585 110.406 47.4861C103.384 46.9905 96.3646 47.3061 89.4991 48.5417C82.6329 49.7688 75.9286 51.9131 69.4919 54.858C63.0552 57.81 56.8942 61.5612 50.9855 65.8512L43.3357 71.4043L40.2138 62.1466C38.3938 56.6436 36.3544 51.4188 33.8701 46.4899C31.3844 41.5723 28.4705 36.9752 25.0943 32.8264C21.7187 28.6791 17.8989 24.9645 13.6689 21.8042C11.5566 20.2206 9.35792 18.7548 7.07565 17.4211C4.78467 16.1029 2.41944 14.9068 0 13.8146L5.48455 -6.52032e-06C8.34626 1.29913 11.1625 2.73594 13.9091 4.33232C16.6477 5.94494 19.3087 7.72772 21.8706 9.66371C27.0025 13.5279 31.6788 18.1003 35.7636 23.157C39.8525 28.2138 43.3297 33.764 46.2236 39.5409C49.1147 45.3186 50.2242 48.8491 50.2242 48.8491C50.2242 48.8491 56.5256 44.7212 63.9197 41.3061C71.3111 37.8966 79.1389 35.3618 87.1479 33.9095C95.1556 32.4451 103.319 32.0639 111.356 32.6111C119.405 33.1328 127.309 34.641 135 36.721L131.379 51.2035Z" fill="#FF5400"/>
</svg>
