<svg width="1659" height="287" viewBox="0 0 1659 287" fill="none" xmlns="http://www.w3.org/2000/svg">
<path fill-rule="evenodd" clip-rule="evenodd" d="M1641.42 21.3102L1643.94 8.90637L1631.66 11.9995C1597.51 20.5983 1567.71 17.0782 1548.73 12.6117C1527.99 7.73307 1515.22 0.686126 1515.1 0.622762L1506.86 14.849C1507.44 15.1744 1521.28 22.8786 1544.01 28.3052C1560.03 32.1318 1583.08 35.3497 1609.94 32.3486C1569.83 72.8298 1509.87 116.562 1445.84 154.082C1375.96 195.021 1302.01 228.103 1244.72 241.482C1129.26 268.444 1047.53 260.914 998.041 255.184C973.433 252.334 922.2 244.044 869.72 225.771C860.834 222.677 851.951 219.31 843.183 215.651C852.501 210.918 861.629 205.94 870.43 200.744C897.336 184.859 921.559 166.718 938.81 147.001C956.024 127.325 966.924 105.326 965.45 82.0071C963.804 55.9839 951.482 38.01 934.905 27.5723C918.611 17.3129 898.639 14.5827 881.539 17.803C872.247 19.553 863.429 24.4462 855.677 30.2389C847.861 36.0796 840.675 43.1781 834.624 49.9312C828.555 56.7046 823.505 63.2671 819.976 68.1289C819.757 68.4301 819.544 68.725 819.337 69.0131C818.712 68.487 818.047 67.9375 817.344 67.3692C812.01 63.055 804.394 57.5624 795.381 53.0134C777.543 44.0098 752.375 37.9141 729.315 55.1394C715.845 65.2011 708.163 79.6964 707.064 96.0476C705.974 112.283 711.381 129.868 723.088 146.606C743.546 175.856 774.239 198.423 807.823 215.766C769.805 232.449 731.012 244.701 700.763 250.669C506.618 288.979 253.154 284.388 6.80922 163.374L0.195538 176.837C250.105 299.603 507.042 304.184 703.666 265.386C738.085 258.594 782.795 244.075 825.417 224.279C838.44 230.186 851.697 235.379 864.788 239.937C918.624 258.682 971.008 267.154 996.316 270.084C1046.66 275.914 1130.32 283.601 1248.13 256.089C1307.47 242.232 1382.89 208.348 1453.42 167.024C1518.91 128.651 1580.87 83.4671 1622.29 41.1859C1620.06 69.333 1624.49 93.2011 1629.22 109.549C1635.7 131.977 1644.05 145.432 1644.41 145.994L1658.25 137.116C1658.18 136.993 1650.53 124.578 1644.69 104.109C1639.33 85.369 1634.42 55.7924 1641.42 21.3102ZM862.804 187.827C850.835 194.894 838.23 201.549 825.366 207.717C789.006 190.438 756.125 167.669 735.38 138.009C725.214 123.474 721.214 109.212 722.031 97.0527C722.84 85.0091 728.379 74.5613 738.291 67.1569C754.619 54.9605 772.88 58.4587 788.623 66.4044C796.4 70.3301 803.113 75.151 807.911 79.0317C810.297 80.9621 812.18 82.6353 813.451 83.8107C814.086 84.3978 814.566 84.8589 814.878 85.1636C815.034 85.3159 815.148 85.429 815.218 85.4991C815.253 85.5341 815.277 85.5583 815.289 85.5713L815.294 85.576L815.297 85.5792L815.299 85.5813L815.3 85.5823L821.909 92.3496L826.987 84.3629L826.988 84.3622L826.988 84.3611L826.989 84.3603L826.999 84.3441L827.054 84.2583C827.106 84.1783 827.187 84.0533 827.296 83.8861C827.515 83.5517 827.847 83.0488 828.285 82.3999C829.161 81.1016 830.459 79.2221 832.115 76.9409C835.434 72.3687 840.159 66.2314 845.795 59.9413C851.45 53.631 857.901 47.3024 864.656 42.2547C871.475 37.159 878.163 33.7026 884.315 32.5439C898.106 29.9467 914.158 32.2348 926.913 40.2657C939.384 48.1183 949.136 61.7066 950.48 82.9537C951.607 100.774 943.365 119.014 927.52 137.124C911.712 155.193 888.961 172.384 862.804 187.827Z" fill="#FF5400"/>
</svg>
