<?xml version="1.0" standalone="no"?>
<!DOCTYPE svg PUBLIC "-//W3C//DTD SVG 20010904//EN"
 "http://www.w3.org/TR/2001/REC-SVG-20010904/DTD/svg10.dtd">
<svg version="1.0" xmlns="http://www.w3.org/2000/svg"
 width="700.000000pt" height="700.000000pt" viewBox="0 0 700.000000 700.000000"
 preserveAspectRatio="xMidYMid meet">
<metadata>
Created by potrace 1.14, written by Peter Selinger 2001-2017
</metadata>
<g transform="translate(0.000000,700.000000) scale(0.100000,-0.100000)"
fill="#000000" stroke="none">
<path d="M1140 6990 c-180 -32 -271 -61 -413 -131 -111 -55 -166 -91 -247
-158 -193 -161 -327 -355 -409 -594 -22 -64 -40 -120 -40 -122 1 -3 -5 -36
-12 -73 -12 -55 -14 -474 -14 -2402 0 -1284 3 -2355 7 -2380 15 -93 20 -113
42 -188 149 -496 556 -846 1081 -931 38 -6 924 -9 2395 -7 2157 2 2341 3 2410
19 266 60 488 179 666 354 197 196 315 416 371 693 3 14 7 36 11 50 3 14 7
1076 8 2360 2 2224 1 2340 -16 2430 -10 52 -23 111 -28 130 -97 345 -347 650
-664 814 -109 56 -218 94 -353 122 l-110 23 -2320 -1 c-1276 0 -2340 -4 -2365
-8z"/>
</g>
</svg>
