<?xml version="1.0" standalone="no"?>
<!DOCTYPE svg PUBLIC "-//W3C//DTD SVG 1.1//EN" "http://www.w3.org/Graphics/SVG/1.1/DTD/svg11.dtd" >
<svg xmlns="http://www.w3.org/2000/svg" xmlns:xlink="http://www.w3.org/1999/xlink" version="1.1">
<metadata>
Created by FontForge 20170731 at Sat Jan 28 16:49:00 2023
 By Aleksey,,,
Copyright 2020 The Dela Gothic Project Authors (https://github.com/syakuzen/DelaGothic)
</metadata>
<defs>
<font id="DelaGothicOne" horiz-adv-x="943" vert-adv-y="1000" >
  <font-face 
    font-family="DelaGothicOne"
    font-weight="400"
    font-stretch="normal"
    units-per-em="1000"
    panose-1="0 0 5 0 0 0 0 0 0 0"
    ascent="800"
    descent="-200"
    x-height="546"
    cap-height="726"
    bbox="-478 -288 1549 1150"
    underline-thickness="50"
    underline-position="-150"
    unicode-range="U+000D-FFFD"
  />
<missing-glyph horiz-adv-x="1000" 
d="M27 0v742h946v-742h-946zM118 124l659 531h-659v-531zM882 632l-676 -545h676v545z" />
    <glyph glyph-name="fi" unicode="fi" horiz-adv-x="818" 
d="M259 579q0 -16 13.5 -25.5t37.5 -9.5h132v-177q-83 7 -132 8q1 -186 8 -375h-237q1 118 1 372q-21 -1 -72 -5v177h71v19q0 78 32 133t88.5 83t129.5 28q59 0 119 -17q-20 -73 -40 -183l-6 -30q-22 19 -48.5 28.5t-48.5 9.5q-18 0 -30 -6t-16 -17q-2 -5 -2 -13zM550.5 636
q-30.5 31 -30.5 81q0 49 30.5 81t93.5 32q60 0 92 -32.5t32 -80.5q0 -50 -31 -81t-93 -31q-63 0 -93.5 31zM528 0q7 161 7 266q0 125 -8 280h240q-8 -149 -8 -280q0 -110 7 -266h-238z" />
    <glyph glyph-name="fl" unicode="fl" horiz-adv-x="786" 
d="M259 579q0 -16 13.5 -25.5t37.5 -9.5h132v-177q-83 7 -132 8q1 -186 8 -375h-237q1 118 1 372q-21 -1 -72 -5v177h71v19q0 78 32 133t88.5 83t129.5 28q59 0 119 -17q-20 -73 -40 -183l-6 -30q-22 19 -48.5 28.5t-48.5 9.5q-18 0 -30 -6t-16 -17q-2 -5 -2 -13zM744 216
q0 -149 2 -216h-236l1 113q2 186 2 287q0 96 -2 272l-1 108h236q-2 -142 -2 -232q0 -100 1 -148q-1 -60 -1 -184z" />
    <glyph glyph-name=".notdef" horiz-adv-x="1000" 
d="M27 0v742h946v-742h-946zM118 124l659 531h-659v-531zM882 632l-676 -545h676v545z" />
    <glyph glyph-name=".null" horiz-adv-x="0" vert-adv-y="0" 
 />
    <glyph glyph-name="nonmarkingreturn" unicode="&#xd;" horiz-adv-x="600" 
 />
    <glyph glyph-name="space" unicode=" " horiz-adv-x="200" 
 />
    <glyph glyph-name="exclam" unicode="!" horiz-adv-x="309" 
d="M279 780q0 -67 -5 -257q-2 -30 -2 -44q-20 -141 -25 -246h-185q-5 105 -25 246l-1 44q-6 154 -6 257h249zM270 -20h-232v178h232v-178z" />
    <glyph glyph-name="quotedbl" unicode="&#x22;" horiz-adv-x="501" 
d="M210 433h-180v347h180v-347zM471 433h-181v347h181v-347z" />
    <glyph glyph-name="numbersign" unicode="#" horiz-adv-x="924" 
d="M894 664l-53 -203h-73l-35 -136h71l-53 -203h-71l-37 -142h-226l37 142h-110l-37 -142h-226l37 142h-88l53 203h87l35 136h-85l53 203h85l30 116h226l-30 -116h111l30 116h226l-30 -116h73zM396 325h111l35 136h-111z" />
    <glyph glyph-name="dollar" unicode="$" horiz-adv-x="887" 
d="M778 73q-69 -62 -209 -77v-64h-237v66q-167 21 -292 88q33 51 54.5 95t41.5 102q67 -41 157 -64t168 -23q79 0 111.5 14.5t32.5 31.5q0 61 -178 61q-195 0 -283 42.5t-88 137.5q0 111 74.5 174.5t201.5 81.5v53h237v-57q147 -23 266 -88q-17 -40 -31 -80t-26 -78l-11 -33
q-49 41 -147.5 68.5t-173.5 27.5q-91 0 -122.5 -12.5t-31.5 -36.5t43.5 -38.5t125.5 -14.5q202 0 294 -48.5t92 -148.5q0 -118 -69 -180z" />
    <glyph glyph-name="percent" unicode="%" horiz-adv-x="889" 
d="M783 334.5q47 -23.5 71.5 -64.5t24.5 -91q0 -51 -24.5 -92t-71.5 -64.5t-113 -23.5q-67 0 -114.5 23.5t-72 64.5t-24.5 92q0 30 9 57l-177 -237h-231l311 416q-56 -48 -150 -48q-67 0 -114.5 23.5t-72 64.5t-24.5 92q0 50 24.5 91t72 64.5t114.5 23.5q66 0 113 -23.5
t71.5 -64.5t24.5 -91q0 -40 -15 -73l183 244h230l-297 -398q54 38 139 38q66 0 113 -23.5zM259.5 510q17.5 17 17.5 38t-17.5 36t-38.5 15q-23 0 -40.5 -15t-17.5 -36q0 -22 17.5 -38.5t40.5 -16.5q21 0 38.5 17zM708.5 142q17.5 17 17.5 38t-17.5 36t-38.5 15
q-23 0 -40.5 -15t-17.5 -36q0 -22 17.5 -38.5t40.5 -16.5q21 0 38.5 17z" />
    <glyph glyph-name="ampersand" unicode="&#x26;" horiz-adv-x="771" 
d="M761 145q-44 -32 -78.5 -67t-76.5 -83q-37 29 -64 53q-91 -51 -222 -51q-92 0 -162.5 25t-109 70.5t-38.5 105.5q0 53 28 97t87 81q-37 39 -54.5 74t-17.5 76q0 53 37 99t99 73.5t132 27.5t131 -28.5t97.5 -77t36.5 -104.5q0 -66 -49 -114q37 -3 108 -3q32 -67 32 -134
q0 -40 -12 -76q32 -20 96 -44zM289 550q-15 -11 -15 -29q0 -13 8 -23.5t34 -33.5q35 17 47 31t12 28t-13 26t-36 12q-22 0 -37 -11zM476 357q-21 -12 -49 -25q19 -15 71 -53q2 36 -22 78zM367 175q-50 37 -109 85q-20 -11 -28 -21t-8 -21q0 -23 19 -35t71 -12q31 0 55 4z
" />
    <glyph glyph-name="quotesingle" unicode="'" horiz-adv-x="294" 
d="M264 433h-234v347h234v-347z" />
    <glyph glyph-name="parenleft" unicode="(" horiz-adv-x="358" 
d="M327 798q-33 -79 -52.5 -190.5t-19.5 -227.5q0 -117 19.5 -228t53.5 -194l-185 -11q-63 120 -88 216t-25 217q0 123 25.5 218.5t88.5 210.5z" />
    <glyph glyph-name="parenright" unicode=")" horiz-adv-x="358" 
d="M214 809q63 -115 88.5 -210.5t25.5 -218.5q0 -121 -25 -217t-88 -216l-185 11q34 83 53.5 194t19.5 228q0 116 -19.5 227.5t-52.5 190.5z" />
    <glyph glyph-name="asterisk" unicode="*" horiz-adv-x="479" 
d="M380 740l69 -120l-94 -41l94 -41l-69 -120l-83 61l12 -102h-139l12 102l-83 -61l-69 120l94 41l-94 41l69 120l83 -61l-12 102h139l-12 -102z" />
    <glyph glyph-name="plus" unicode="+" horiz-adv-x="572" 
d="M384 438h178v-195h-178v-179h-195v179h-179v195h179v179h195v-179z" />
    <glyph glyph-name="comma" unicode="," horiz-adv-x="272" 
d="M211.5 168.5q30.5 -34.5 30.5 -95.5q0 -50 -17.5 -105t-48.5 -89h-85q42 57 53 112q-52 0 -83 31t-31 75t31 75t75 31q45 0 75.5 -34.5z" />
    <glyph glyph-name="hyphen" unicode="-" horiz-adv-x="490" 
d="M460 243h-430v195h430v-195z" />
    <glyph glyph-name="period" unicode="." horiz-adv-x="272" 
d="M61 21.5q-31 31.5 -31 75.5t31 75t75 31q43 0 74.5 -31.5t31.5 -74.5q0 -44 -31.5 -75.5t-74.5 -31.5q-44 0 -75 31.5z" />
    <glyph glyph-name="slash" unicode="/" horiz-adv-x="499" 
d="M278 -20h-248l191 737h248z" />
    <glyph glyph-name="zero" unicode="0" horiz-adv-x="917" 
d="M142 89q-102 99 -102 275q0 175 102.5 273.5t316.5 98.5t316 -98.5t102 -273.5q0 -176 -102 -275t-316 -99q-215 0 -317 99zM594 221.5q42 56.5 42 142.5q0 85 -42 141.5t-134 56.5q-95 0 -137.5 -56.5t-42.5 -141.5t42.5 -142t137.5 -57q92 0 134 56.5z" />
    <glyph glyph-name="one" unicode="1" horiz-adv-x="588" 
d="M442 185q90 2 133 4v-189h-529v189q108 -4 163 -4v345q-36 -79 -147 -102q-3 118 -22 215q80 11 111.5 27.5t49 36.5t23.5 27v2h218v-551z" />
    <glyph glyph-name="two" unicode="2" horiz-adv-x="835" 
d="M795 215q-17 -52 -26 -110t-9 -105h-715l-1 21q0 98 57.5 170t160.5 133q30 18 94 46q83 36 128 63.5t45 54.5q0 34 -28 54t-87 20q-65 0 -98.5 -33t-33.5 -84q0 -16 3 -33q-126 16 -245 22q0 85 44.5 153.5t134 108.5t219.5 40q119 0 198.5 -32.5t117 -82t37.5 -101.5
q0 -60 -26.5 -103t-76 -76.5t-132.5 -72.5q-12 -6 -39 -13.5t-34 -9.5q-71 -21 -113 -35t-79 -35q325 18 504 40z" />
    <glyph glyph-name="three" unicode="3" horiz-adv-x="881" 
d="M669 375q61 0 99.5 -20.5t55.5 -52t17 -65.5q0 -79 -52 -134.5t-141 -84t-198 -28.5q-316 0 -409 220l56 14q62 15 105.5 28.5t76.5 30.5q20 -50 57.5 -71.5t103.5 -21.5q70 0 114 16t44 48q0 17 -17 26t-54 12.5t-104 3.5h-76v175h46q76 0 124 6.5t48 28.5
q0 25 -25.5 40.5t-79.5 15.5q-70 0 -113.5 -29t-67.5 -84q-107 43 -228 61q48 108 147.5 167t256.5 59q102 0 183.5 -26.5t128 -73.5t46.5 -105q0 -34 -16 -60.5t-63 -52t-136 -50.5q36 7 71 7z" />
    <glyph glyph-name="four" unicode="4" horiz-adv-x="924" 
d="M884 315v-188h-136v-127h-239q4 42 6 127h-475v202q233 179 416 397h292v-411h136zM520 528q-69 -71 -119 -118.5t-113 -94.5h229z" />
    <glyph glyph-name="five" unicode="5" horiz-adv-x="884" 
d="M689.5 479.5q77.5 -31.5 116 -85t38.5 -119.5q0 -150 -104.5 -217.5t-279.5 -67.5q-147 0 -258.5 49.5t-161.5 166.5q55 8 120.5 26t118.5 37q21 -43 59 -62.5t102 -19.5q68 0 112.5 22t44.5 61q0 40 -39 67t-119 27q-52 0 -95 -18.5t-62 -52.5h-231q24 103 42.5 222
t22.5 211h702v-194q-111 7 -209.5 8.5t-275.5 1.5l-10 -56q76 25 175 25q114 0 191.5 -31.5z" />
    <glyph glyph-name="six" unicode="6" horiz-adv-x="856" 
d="M676 463.5q65 -32.5 102.5 -87.5t37.5 -118q0 -82 -52 -143t-141 -93t-199 -32q-112 0 -199.5 44.5t-136 123.5t-48.5 180q0 201 111.5 299.5t300.5 98.5q230 0 363 -116q-60 -64 -110 -141q-40 30 -112.5 48.5t-129.5 18.5q-87 0 -146 -43.5t-72 -124.5q-1 -5 -1 -14
q48 70 126.5 101t161.5 31q79 0 144 -32.5zM505 190.5q33 10.5 52 29t19 39.5q0 33 -41.5 56.5t-100.5 23.5t-100.5 -23.5t-41.5 -56.5q0 -21 19 -39.5t52 -29t71 -10.5t71 10.5z" />
    <glyph glyph-name="seven" unicode="7" horiz-adv-x="777" 
d="M40 727h724v-129q-196 -297 -303 -598h-270q109 271 287 539q-277 0 -438 -10v198z" />
    <glyph glyph-name="eight" unicode="8" horiz-adv-x="876" 
d="M775 347q31 -29 46 -63.5t15 -64.5q0 -118 -104.5 -173.5t-292.5 -55.5q-189 0 -294 55.5t-105 173.5q0 48 34.5 98.5t96.5 74.5q-55 26 -82.5 57.5t-27.5 84.5q0 62 43 110.5t128.5 75.5t206.5 27q120 0 205 -27t128 -75.5t43 -110.5q0 -54 -28.5 -85t-86.5 -57
q44 -16 75 -45zM537.5 471q38.5 20 38.5 53t-39 52.5t-96 19.5q-58 0 -97 -19.5t-39 -52.5q0 -34 39 -53.5t97 -19.5t96.5 20zM537.5 191q38.5 20 38.5 53t-39 52.5t-96 19.5q-58 0 -97 -19.5t-39 -52.5q0 -34 39 -53.5t97 -19.5t96.5 20z" />
    <glyph glyph-name="nine" unicode="9" horiz-adv-x="856" 
d="M631.5 691.5q87.5 -44.5 136 -123.5t48.5 -180q0 -201 -111.5 -299.5t-300.5 -98.5q-230 0 -363 116q60 64 110 141q39 -32 111 -49.5t131 -17.5q87 0 146 43.5t72 124.5q1 5 1 14q-48 -70 -127 -102.5t-161 -32.5q-80 0 -145 29t-102 79.5t-37 113.5q0 91 51.5 156
t140.5 98t200 33q112 0 199.5 -44.5zM492.5 395.5q32.5 11.5 52 30.5t19.5 41q0 34 -41.5 58t-100.5 24t-100.5 -24t-41.5 -58q0 -35 41.5 -59t100.5 -24q38 0 70.5 11.5z" />
    <glyph glyph-name="colon" unicode=":" horiz-adv-x="272" 
d="M61 419.5q-31 31.5 -31 75.5t31 75t75 31q43 0 74.5 -31.5t31.5 -74.5q0 -44 -31.5 -75.5t-74.5 -31.5q-44 0 -75 31.5zM61 119.5q-31 31.5 -31 75.5t31 75t75 31q43 0 74.5 -31.5t31.5 -74.5q0 -44 -31.5 -75.5t-74.5 -31.5q-44 0 -75 31.5z" />
    <glyph glyph-name="semicolon" unicode=";" horiz-adv-x="272" 
d="M61 419.5q-31 31.5 -31 75.5t31 75t75 31q43 0 74.5 -31.5t31.5 -74.5q0 -44 -31.5 -75.5t-74.5 -31.5q-44 0 -75 31.5zM242 196v-1v-7q-2 -49 -21 -118t-35 -93h-103q11 41 22 116q-33 10 -54 38t-21 64q0 44 31 75t75 31q42 0 73.5 -30t32.5 -73v-2z" />
    <glyph glyph-name="less" unicode="&#x3c;" horiz-adv-x="547" 
d="M10 491l527 190v-201l-350 -117l350 -118v-201l-527 190v257z" />
    <glyph glyph-name="equal" unicode="=" horiz-adv-x="617" 
d="M607 381h-597v165h597v-165zM607 179h-597v165h597v-165z" />
    <glyph glyph-name="greater" unicode="&#x3e;" horiz-adv-x="547" 
d="M10 480v201l527 -190v-257l-527 -190v201l350 118z" />
    <glyph glyph-name="question" unicode="?" horiz-adv-x="764" 
d="M559.5 760q80.5 -32 127.5 -89t47 -131q0 -60 -29 -103t-74 -70l-53 -30q-43 -24 -57 -33q-23 -14 -32 -31t-9 -40h-229q0 76 36 127.5t121 89.5q38 17 55.5 37.5t17.5 46.5q0 29 -27.5 50t-69.5 21q-57 0 -88.5 -28t-31.5 -79q0 -20 6 -46q-80 23 -239 23q-1 9 -1 25
q0 84 44.5 150.5t125 104t184.5 37.5q95 0 175.5 -32zM481 -20h-232v178h232v-178z" />
    <glyph glyph-name="at" unicode="@" horiz-adv-x="862" 
d="M647 608q96 -48 150.5 -132.5t54.5 -190.5q0 -78 -30.5 -140t-83.5 -97.5t-120 -35.5q-45 0 -78.5 18.5t-51 50.5t-16.5 70q-40 -34 -96 -34q-68 0 -116 39t-48 109q0 55 28.5 96.5t80 64t116.5 22.5q66 0 113 -14q11 30 13 35l3 -1q-58 28 -135 28q-75 0 -133 -31.5
t-90.5 -85t-32.5 -116.5q0 -95 56.5 -148t151.5 -53q52 0 107 16q-13 -32 -13 -153q-36 -4 -78 -4q-117 0 -205 40.5t-136 117.5t-48 184q0 117 54 206.5t150 138t217 48.5q120 0 216 -48zM619.5 160.5q4.5 -4.5 12.5 -4.5q13 0 27.5 13.5t24.5 42.5t10 73q0 40 -16 73
q-63 -161 -63 -186q0 -7 4.5 -11.5zM389 242.5q15 -11.5 37 -11.5q30 0 46 11t23 36q4 12 4 25q0 18 -10.5 27t-28.5 9q-34 0 -60 -18.5t-26 -44.5q0 -22 15 -33.5z" />
    <glyph glyph-name="A" unicode="A" 
d="M671 0q-19 57 -51 143h-319l-50 -143h-251l280 726h368l282 -726h-259zM563 299q-38 105 -78 210l-24 65q-35 -91 -103 -275h205z" />
    <glyph glyph-name="B" unicode="B" horiz-adv-x="894" 
d="M854 216q0 -68 -31 -115.5t-111 -74t-222 -26.5h-450q8 194 8 363t-8 363h235v-1h213q124 0 195.5 -20.5t101 -59.5t29.5 -99q0 -61 -42.5 -108.5t-145.5 -76.5q228 0 228 -145zM275 543v-93h192q62 0 86.5 11t24.5 40q0 23 -25.5 32.5t-85.5 9.5h-192zM467 183
q52 0 79.5 4.5t39.5 16t12 31.5q0 26 -28.5 37.5t-102.5 11.5h-192v-101h192z" />
    <glyph glyph-name="C" unicode="C" 
d="M147 86q-107 96 -107 274q0 179 107 283t333 104q316 0 423 -217q-90 -31 -211 -93q-29 56 -91.5 83t-127.5 27q-96 0 -143 -50.5t-47 -124.5q0 -80 50.5 -130.5t154.5 -50.5q83 0 132 27.5t72 87.5q82 -44 210 -99q-50 -121 -167 -169t-255 -48q-226 0 -333 96z" />
    <glyph glyph-name="D" unicode="D" horiz-adv-x="893" 
d="M657 691.5q109 -45.5 152.5 -126t43.5 -197.5q0 -111 -50 -194t-150 -128.5t-246 -45.5h-181t-186 1q8 197 8 367q0 172 -8 359q119 10 320 10q188 0 297 -45.5zM435 199q93 0 124 45t31 124q0 76 -32.5 123t-122.5 47q-97 0 -145 -6v-333h145z" />
    <glyph glyph-name="E" unicode="E" horiz-adv-x="867" 
d="M276 183q380 2 551 11q-7 -41 -8.5 -84.5t-1.5 -109.5h-777q8 194 8 363t-8 363h777v-181h-541v-96q48 -1 142 -1q159 0 329 6v-172q-170 6 -329 6q-94 0 -142 -1v-104z" />
    <glyph glyph-name="F" unicode="F" horiz-adv-x="860" 
d="M820 539h-544v-105q51 -1 153 -1q176 0 358 6v-196q-182 7 -384 7q-84 0 -127 -1v-249h-236q8 194 8 363t-8 363h780v-187z" />
    <glyph glyph-name="G" unicode="G" horiz-adv-x="919" 
d="M452 414h427v-414h-176l-21 177q-30 -95 -107 -141t-188 -46q-101 0 -179.5 45t-123 129t-44.5 196q0 179 107 283t333 104q129 0 227.5 -42t167.5 -130q-45 -23 -176 -92l-25 -14q-39 39 -91 58.5t-110 19.5q-96 0 -143 -50.5t-47 -124.5q0 -80 50.5 -129t154.5 -49
q45 0 87.5 13t71.5 45h-195v162z" />
    <glyph glyph-name="H" unicode="H" horiz-adv-x="918" 
d="M878 726q-7 -169 -7 -363t7 -363h-235v272h-368v-272h-235q8 194 8 363t-8 363h235v-272h368v272h235z" />
    <glyph glyph-name="I" unicode="I" horiz-adv-x="661" 
d="M621 527q-119 6 -176 7v-342q58 1 176 7v-199h-581v199q115 -6 175 -7v342q-60 -1 -175 -7v199h581v-199z" />
    <glyph glyph-name="J" unicode="J" horiz-adv-x="884" 
d="M844 727v-353q0 -187 -96.5 -285.5t-305.5 -98.5q-120 0 -221.5 35t-180.5 91q19 62 31 119t18 125q103 -83 190 -115t166 -32q82 0 117 37t36 127v76q0 162 -9 274h255z" />
    <glyph glyph-name="K" unicode="K" horiz-adv-x="916" 
d="M562 0q-47 85 -156 260l-117 -116v-144h-249q8 194 8 363t-8 363h249v-293q184 182 262 293h324l-315 -312q70 -98 157.5 -213t158.5 -201h-314z" />
    <glyph glyph-name="L" unicode="L" horiz-adv-x="804" 
d="M284 202q290 2 480 10q-13 -51 -16 -98t-3 -114h-705q8 194 8 363t-8 363h244v-524z" />
    <glyph glyph-name="M" unicode="M" horiz-adv-x="1093" 
d="M975 726l78 -726h-259l-16 518l-100 -518h-262l-102 514l-15 -514h-259l78 726h340l87 -473l76 473h354z" />
    <glyph glyph-name="N" unicode="N" horiz-adv-x="919" 
d="M879 725q-7 -169 -7 -362q0 -194 7 -363h-358l-242 546l18 -546h-257q8 194 8 363q0 168 -8 362h368l243 -561l-17 561h245z" />
    <glyph glyph-name="O" unicode="O" horiz-adv-x="971" 
d="M148 89.5q-108 99.5 -108 279.5q0 178 107.5 278t337.5 100q231 0 338.5 -100t107.5 -278q0 -181 -107 -280t-339 -99q-229 0 -337 99.5zM645 236.5q49 42.5 49 132.5q0 88 -49 131t-160 43q-110 0 -159 -43t-49 -131q0 -89 49 -132t159 -43q111 0 160 42.5z" />
    <glyph glyph-name="P" unicode="P" horiz-adv-x="889" 
d="M494 725q199 0 277 -70.5t78 -198.5q0 -88 -31 -149.5t-109 -96t-215 -34.5h-208v-176h-246q8 194 8 363t-8 363h246v-1h208zM424 369q83 0 124.5 6.5t58 23.5t16.5 50t-15.5 49.5t-57 22.5t-126.5 6h-138v-158h138z" />
    <glyph glyph-name="Q" unicode="Q" horiz-adv-x="971" 
d="M628 2q55 -26 127 -50q-67 -57 -176 -152q-112 86 -191 195q-179 21 -263.5 118t-84.5 256q0 178 107.5 278t337.5 100q231 0 338.5 -100t107.5 -278q0 -312 -303 -367zM645 236.5q49 42.5 49 132.5q0 88 -49 131t-160 43q-110 0 -159 -43t-49 -131q0 -89 49 -132
t159 -43q111 0 160 42.5z" />
    <glyph glyph-name="R" unicode="R" horiz-adv-x="883" 
d="M800.5 337q-42.5 -60 -145.5 -87q12 -16 17 -25l162 -225h-272q-44 82 -139 232h-147v-232h-236q8 194 8 363t-8 363h236v-1h205q202 0 282 -65t80 -176q0 -87 -42.5 -147zM276 533v-114h135q85 0 128.5 5.5t60.5 17.5t17 35q0 22 -16 34t-60 17t-130 5h-135z" />
    <glyph glyph-name="S" unicode="S" horiz-adv-x="924" 
d="M96.5 181q22.5 44 43.5 102q71 -41 165 -64t175 -23q83 0 117 14.5t34 31.5q0 61 -186 61q-204 0 -296 42.5t-92 137.5q0 135 112 199t291 64q104 0 213.5 -26.5t197.5 -72.5q-29 -66 -61 -161q-6 -20 -10 -30q-51 41 -154 68.5t-182 27.5q-95 0 -128 -12.5t-33 -36.5
t45.5 -38.5t131.5 -14.5q212 0 308 -48.5t96 -148.5q0 -140 -102 -201.5t-309 -61.5q-111 0 -226 24.5t-207 71.5q34 51 56.5 95z" />
    <glyph glyph-name="T" unicode="T" horiz-adv-x="939" 
d="M899 516q-157 5 -305 6v-522h-250v522q-149 -1 -304 -6v210h859v-210z" />
    <glyph glyph-name="U" unicode="U" horiz-adv-x="920" 
d="M632 727h248v-398q-2 -147 -100.5 -243t-331.5 -96q-236 0 -323 91.5t-85 240.5v405h248v-389q0 -44 6.5 -71.5t42 -51.5t114.5 -24q86 0 126 24.5t47.5 54.5t7.5 77v380z" />
    <glyph glyph-name="V" unicode="V" horiz-adv-x="903" 
d="M890 726l-66 -153q-87 -203 -137 -325t-92 -248h-299q-41 124 -90.5 245.5t-132.5 311.5q-14 32 -73 169h278q30 -97 89 -249q52 -134 84 -232q21 69 50.5 147.5t35.5 95.5q58 153 85 238h268z" />
    <glyph glyph-name="W" unicode="W" horiz-adv-x="1096" 
d="M760 273l52 453h244l-134 -726h-307l-68 405l-79 -405h-294l-134 726h244l51 -447l80 447h267z" />
    <glyph glyph-name="X" unicode="X" horiz-adv-x="880" 
d="M575 372l292 -372h-289l-144 196l-145 -196h-289l292 372l-282 354h289l135 -180l134 180h289z" />
    <glyph glyph-name="Y" unicode="Y" 
d="M930 726l-19 -29q-107 -166 -183.5 -293.5t-127.5 -234.5v-169h-261v186q-37 75 -87 154.5t-142 218.5q-72 106 -110 167h280q30 -61 98 -181q68 -122 93 -172q35 73 94 179q69 124 93 174h272z" />
    <glyph glyph-name="Z" unicode="Z" horiz-adv-x="865" 
d="M666 205q30 1 70 3t89 3q-7 -47 -8.5 -94t-1.5 -117h-767v223q55 31 120 76.5t168 119.5q96 70 139 100q-79 -1 -317 -11q-82 -4 -110 -5q0 74 -1.5 124t-6.5 99h775v-224q-53 -35 -196 -136q-160 -114 -247 -169q57 1 294 8z" />
    <glyph glyph-name="bracketleft" unicode="[" horiz-adv-x="360" 
d="M266 647v-538h64v-161h-300v860h300v-161h-64z" />
    <glyph glyph-name="backslash" unicode="\" horiz-adv-x="499" 
d="M278 717l191 -737h-248l-191 737h248z" />
    <glyph glyph-name="bracketright" unicode="]" horiz-adv-x="360" 
d="M30 647v161h300v-860h-300v161h64v538h-64z" />
    <glyph glyph-name="asciicircum" unicode="^" horiz-adv-x="615" 
d="M433 725l172 -362h-203l-95 216l-96 -216h-201l171 362h252z" />
    <glyph glyph-name="underscore" unicode="_" horiz-adv-x="530" 
d="M500 -19h-470v204h470v-204z" />
    <glyph glyph-name="grave" unicode="`" horiz-adv-x="600" 
d="M259 703l-82 155h185l24 -155h-127z" />
    <glyph glyph-name="a" unicode="a" horiz-adv-x="741" 
d="M681 166q0 -34 8 -48t32 -20l-4 -94q-32 -5 -55.5 -7t-62.5 -2q-86 0 -114 38.5t-28 98.5v25q-29 -82 -84.5 -122t-141.5 -40q-100 0 -150.5 40t-50.5 119q0 65 43 102t133 51q-76 54 -152 94q60 76 137 115.5t187 39.5q154 0 228.5 -66.5t74.5 -204.5v-119zM309 363
q-39 -17 -70 -51q60 7 150 7q37 0 52 9t15 23q0 12 -15 20.5t-42 8.5q-51 0 -90 -17zM395 179.5q45 21.5 62 56.5v26q-24 -12 -53 -18.5t-70 -12.5l-36 -6q-56 -11 -56 -38q0 -29 52 -29q56 0 101 21.5z" />
    <glyph glyph-name="b" unicode="b" horiz-adv-x="744" 
d="M593.5 515.5q52.5 -40.5 81.5 -107t29 -141.5q0 -76 -29 -139.5t-81 -100.5t-117 -37q-76 0 -132 32.5t-84 102.5l-29 -125h-192q6 188 6 389q0 203 -6 389h226l-3 -123q-5 -130 -5 -232q27 68 82.5 100.5t133.5 32.5q67 0 119.5 -40.5zM448 190q28 32 28 83
q0 46 -30.5 74.5t-75.5 28.5q-23 0 -48 -10.5t-43 -34t-18 -58.5q0 -62 28 -88.5t83 -26.5q48 0 76 32z" />
    <glyph glyph-name="c" unicode="c" horiz-adv-x="707" 
d="M275.5 191q30.5 -31 90.5 -31q33 0 59 12.5t48 37.5q85 -33 199 -57q-33 -77 -111.5 -120t-203.5 -43q-167 0 -247 78t-80 205t80 205t247 78q125 0 203.5 -43t111.5 -120q-89 -19 -199 -57q-22 25 -48 37.5t-59 12.5q-60 0 -90.5 -31t-32.5 -82q2 -51 32.5 -82z" />
    <glyph glyph-name="d" unicode="d" horiz-adv-x="734" 
d="M688 389q0 -201 6 -389h-226l3 120q-29 -67 -84 -98.5t-130 -31.5q-65 0 -117 37t-81 100.5t-29 139.5q0 75 29 141.5t81.5 107t119.5 40.5q78 0 133.5 -32.5t82.5 -100.5q0 57 -4 183q-4 122 -4 172h226q-6 -186 -6 -389zM442 185.5q31 27.5 31 87.5q0 53 -31 78t-78 25
q-45 0 -75.5 -28.5t-30.5 -74.5q0 -51 28 -83t76 -32q49 0 80 27.5z" />
    <glyph glyph-name="e" unicode="e" horiz-adv-x="725" 
d="M569 250h-326q8 -44 39.5 -71.5t89.5 -27.5q42 0 79 16.5t59 46.5q67 -33 178 -71q-31 -70 -112.5 -111.5t-212.5 -41.5q-170 0 -251.5 78.5t-81.5 206.5q0 125 81 203t252 78q102 0 177 -34t115 -94.5t40 -138.5q0 -26 -2 -39h-124zM295 386q-32 -19 -45 -52h236
q-12 32 -39 51.5t-70 19.5q-50 0 -82 -19z" />
    <glyph glyph-name="f" unicode="f" horiz-adv-x="470" 
d="M259 579q0 -16 13.5 -25.5t37.5 -9.5h132v-177q-83 7 -132 8q1 -186 8 -375h-237q1 118 1 372q-21 -1 -72 -5v177h71v19q0 78 32 133t88.5 83t129.5 28q59 0 119 -17q-20 -73 -40 -183l-6 -30q-22 19 -48.5 28.5t-48.5 9.5q-18 0 -30 -6t-16 -17q-2 -5 -2 -13z" />
    <glyph glyph-name="g" unicode="g" horiz-adv-x="744" 
d="M512 546h192q-5 -164 -5 -466q0 -119 -47.5 -195t-125.5 -110.5t-174 -34.5q-95 0 -170 27.5t-114 73.5l45 153q54 -31 102 -44.5t100 -13.5q170 0 170 144q0 21 1 30q0 6 0.5 16t-0.5 26q-51 -142 -216 -142q-67 0 -119.5 36t-81.5 97.5t-29 135.5q0 76 29 139.5
t81 100.5t117 37q169 0 220 -119zM422 180.5q25 10.5 43 34t18 58.5q0 62 -28 88.5t-83 26.5q-48 0 -76 -32t-28 -83q0 -46 30.5 -74.5t75.5 -28.5q23 0 48 10.5z" />
    <glyph glyph-name="h" unicode="h" horiz-adv-x="695" 
d="M430 0q6 147 6 271q0 44 -21.5 70t-54.5 26q-35 0 -59.5 -34t-24.5 -93l-1 2q0 -163 4 -242h-239q8 144 8 390t-8 390h238l1 -308l-1 -53q24 70 71.5 103.5t107.5 33.5t104 -26.5t66.5 -71.5t22.5 -101v-144q0 -133 5 -213h-225z" />
    <glyph glyph-name="i" unicode="i" horiz-adv-x="348" 
d="M80.5 636q-30.5 31 -30.5 81q0 49 30.5 81t93.5 32q60 0 92 -32.5t32 -80.5q0 -50 -31 -81t-93 -31q-63 0 -93.5 31zM58 0q7 161 7 266q0 125 -8 280h240q-8 -149 -8 -280q0 -110 7 -266h-238z" />
    <glyph glyph-name="j" unicode="j" horiz-adv-x="323" 
d="M65.5 636q-30.5 31 -30.5 81q0 49 30.5 81t93.5 32q60 0 92 -32.5t32 -80.5q0 -50 -31 -81t-93 -31q-63 0 -93.5 31zM282 546q-6 -100 -6 -232l1 -130q1 -40 1 -119q0 -155 -69 -221t-202 -66q-31 0 -64 3v31q0 60 -13 117l19 -1q50 0 74.5 23.5t25.5 78.5q2 90 2 143
q0 193 -9 373h240z" />
    <glyph glyph-name="k" unicode="k" horiz-adv-x="746" 
d="M746 547l-248 -226q127 -180 237 -321h-265l-51 82q-50 83 -66 108l-83 -76v-114h-230q8 190 8 385q0 196 -8 393h230v-424q97 99 183 193h293z" />
    <glyph glyph-name="l" unicode="l" horiz-adv-x="316" 
d="M274 216q0 -149 2 -216h-236l1 113q2 186 2 287q0 96 -2 272l-1 108h236q-2 -142 -2 -232q0 -100 1 -148q-1 -60 -1 -184z" />
    <glyph glyph-name="m" unicode="m" horiz-adv-x="1098" 
d="M815 0q8 131 8 271q0 45 -22.5 70.5t-59.5 25.5q-34 0 -58.5 -30t-24.5 -87v1q0 -177 5 -251h-225q6 147 6 271q0 44 -21.5 70t-54.5 26q-35 0 -58.5 -29.5t-27.5 -80.5q-2 -76 -2 -108q0 -68 4 -149h-239q8 144 8 272t-8 274q66 -3 101 -3q37 0 101 3l30 -148
q23 81 73 119.5t115 38.5q78 0 127.5 -43t61.5 -112q23 71 77 113t123 42q90 0 141 -60.5t51 -165.5v-166q0 -113 2 -164h-233z" />
    <glyph glyph-name="n" unicode="n" horiz-adv-x="695" 
d="M430 0q6 147 6 271q0 44 -21.5 70t-54.5 26t-56 -29.5t-27 -80.5q-2 -76 -2 -108q0 -68 4 -149h-239q8 144 8 272t-8 274q66 -3 101 -3q37 0 101 3l29 -147q23 80 72 118.5t114 38.5q60 0 104 -26.5t66.5 -71.5t22.5 -101v-144q0 -133 5 -213h-225z" />
    <glyph glyph-name="o" unicode="o" horiz-adv-x="736" 
d="M110.5 68.5q-80.5 78.5 -80.5 206.5q0 125 80.5 203t251.5 78q115 0 192.5 -37.5t114.5 -101t37 -142.5q0 -129 -85.5 -207t-258.5 -78q-171 0 -251.5 78.5zM463 191q32 31 32 83q0 49 -32 80.5t-97 31.5t-95 -31t-30 -81q0 -52 30 -83t95 -31t97 31z" />
    <glyph glyph-name="p" unicode="p" horiz-adv-x="734" 
d="M594 519q52 -37 81 -100.5t29 -139.5q0 -75 -29 -141.5t-81.5 -107t-119.5 -40.5q-78 0 -133.5 32.5t-82.5 100.5q0 -57 4 -183q4 -122 4 -172h-226q6 186 6 389t-6 389h192l29 -125q28 70 84 102.5t132 32.5q65 0 117 -37zM445.5 198.5q30.5 28.5 30.5 74.5q0 51 -28 83
t-76 32q-55 0 -83 -26.5t-28 -88.5q0 -35 18 -58.5t43 -34t48 -10.5q45 0 75.5 28.5z" />
    <glyph glyph-name="q" unicode="q" horiz-adv-x="734" 
d="M688 157q0 -203 6 -389h-226q0 50 4 172q4 126 4 183q-27 -68 -82.5 -100.5t-133.5 -32.5q-67 0 -119.5 40.5t-81.5 107t-29 141.5q0 76 29 139.5t81 100.5t117 37q76 0 132 -32.5t84 -102.5l29 125h192q-6 -186 -6 -389zM412 180.5q25 10.5 43 34t18 58.5q0 62 -28 88.5
t-83 26.5q-48 0 -76 -32t-28 -83q0 -46 30.5 -74.5t75.5 -28.5q23 0 48 10.5z" />
    <glyph glyph-name="r" unicode="r" horiz-adv-x="577" 
d="M272 398q42 151 209 151q29 0 56 -4l-32 -224q-72 27 -118 27q-57 0 -84 -34t-27 -91v1l-1 -66q0 -71 4 -158h-239q8 144 8 272t-8 274q66 -3 101 -3q37 0 101 3z" />
    <glyph glyph-name="s" unicode="s" horiz-adv-x="709" 
d="M192.5 13.5q-86.5 23.5 -162.5 71.5l105 143q46 -33 111 -51.5t112 -18.5q45 0 69.5 12.5t24.5 32.5q0 16 -12 25t-33 9q-13 0 -29.5 -1t-26.5 -2q-52 -6 -107 -6q-89 0 -144.5 33.5t-55.5 109.5q0 88 83 136.5t244 48.5q79 0 159.5 -22.5t142.5 -67.5l-115 -116
q-57 30 -106.5 42.5t-99.5 12.5q-35 0 -60 -14t-25 -32q0 -14 10.5 -22t27.5 -8t47 3q73 5 109 5q104 0 161 -35t57 -107q0 -108 -84 -156.5t-232 -48.5q-84 0 -170.5 23.5z" />
    <glyph glyph-name="t" unicode="t" horiz-adv-x="513" 
d="M493 367q-92 6 -168 9l-1 -106q0 -54 23.5 -84.5t83.5 -30.5q23 0 44 4q-4 -37 -4 -75q0 -18 2 -82q-44 -8 -74 -10t-78 -2q-117 0 -165.5 56.5t-48.5 157.5l1 169q-47 -2 -98 -6v177q52 0 88 33t43 79h272q-51 -70 -113 -112h193v-177z" />
    <glyph glyph-name="u" unicode="u" horiz-adv-x="695" 
d="M648 274q0 -147 7 -274q-64 3 -101 3q-35 0 -101 -3l-29 147q-23 -80 -72 -118.5t-114 -38.5q-60 0 -104 26.5t-66.5 71.5t-22.5 101v144q0 133 -5 213h225q-6 -147 -6 -291q0 -44 21.5 -70t54.5 -26q31 0 54.5 27.5t28.5 75.5v23q2 78 2 108q0 69 -4 153h239
q-7 -126 -7 -272z" />
    <glyph glyph-name="v" unicode="v" horiz-adv-x="698" 
d="M698 546q-108 -291 -192 -546h-313q-90 273 -193 546h235l116 -412l115 412h232z" />
    <glyph glyph-name="w" unicode="w" horiz-adv-x="880" 
d="M595 154l86 392h199l-111 -546h-267l-63 255l-71 -255h-257l-111 546h199l85 -391l58 391h197z" />
    <glyph glyph-name="x" unicode="x" horiz-adv-x="683" 
d="M473 280l210 -280h-248q-19 38 -70 111l-23 33q-6 -9 -13.5 -19t-14.5 -22q-20 -28 -37.5 -55t-28.5 -48h-248l210 280l-202 266h247q14 -28 54 -87l33 -50l28 43q42 63 58 94h247z" />
    <glyph glyph-name="y" unicode="y" horiz-adv-x="698" 
d="M698 546l-23 -58q-95 -253 -199 -488q-54 -120 -156 -192.5t-256 -69.5q-19 83 -31.5 129.5t-32.5 93.5q55 -13 103 -13q78 0 124 33q-36 107 -85 230t-142 335h237q12 -50 33 -116t42 -127q6 -19 19.5 -57.5t21.5 -64.5l26 79q75 217 89 286h230z" />
    <glyph glyph-name="z" unicode="z" horiz-adv-x="671" 
d="M484 174q100 4 147 5q-8 -53 -8 -179h-577v168q43 24 93 59t129 92q42 32 70 51q-68 -1 -184 -7q-79 -4 -108 -5q0 132 -6 188h583v-168q-62 -41 -145 -101q-121 -86 -157 -109q82 2 163 6z" />
    <glyph glyph-name="braceleft" unicode="{" horiz-adv-x="352" 
d="M322 702q-23 0 -32.5 -6.5t-9.5 -24.5q0 -21 14 -72q12 -43 12 -80q0 -95 -75 -146q75 -51 75 -146q0 -36 -12 -80q-14 -51 -14 -72q0 -18 9.5 -24.5t32.5 -6.5v-101q-64 0 -123 20.5t-96.5 62.5t-37.5 104q0 24 8 56q9 33 9 64q0 33 -12.5 52.5t-39.5 19.5v102
q27 0 40 19.5t13 52.5q0 27 -10 64q-9 32 -9 58q0 61 38 102.5t97 62t123 20.5v-101z" />
    <glyph glyph-name="bar" unicode="|" horiz-adv-x="250" 
d="M240 0h-230v726h230v-726z" />
    <glyph glyph-name="braceright" unicode="}" horiz-adv-x="352" 
d="M269 496q0 -33 13 -52.5t40 -19.5v-102q-27 0 -39.5 -19.5t-12.5 -52.5q0 -31 9 -64q8 -32 8 -56q0 -62 -37.5 -104t-96.5 -62.5t-123 -20.5v101q23 0 32.5 6.5t9.5 24.5q0 21 -14 72q-12 44 -12 80q0 95 75 146q-75 51 -75 146q0 37 12 80q14 51 14 72q0 18 -9.5 24.5
t-32.5 6.5v101q64 0 123 -20.5t97 -62t38 -102.5q0 -26 -9 -58q-10 -37 -10 -64z" />
    <glyph glyph-name="asciitilde" unicode="~" horiz-adv-x="800" 
d="M790 437q0 -75 -28.5 -135.5t-84.5 -95t-136 -34.5q-98 0 -173 63q-18 15 -41 44q-19 22 -30.5 32t-28.5 10q-21 0 -31.5 -16t-6.5 -40h-220q0 66 29 127t85 99.5t134 38.5q52 0 99.5 -18t85.5 -53q9 -8 32 -35q20 -23 31.5 -33t24.5 -10q21 0 30.5 13.5t8.5 42.5h220z
" />
    <glyph glyph-name="uni00A0" unicode="&#xa0;" horiz-adv-x="200" 
 />
    <glyph glyph-name="exclamdown" unicode="&#xa1;" horiz-adv-x="309" 
d="M39 621h232v-178h-232v178zM273 78q6 -154 6 -257h-249q0 67 5 257q2 30 2 44q20 141 25 246h185q5 -105 25 -246z" />
    <glyph glyph-name="cent" unicode="&#xa2;" horiz-adv-x="883" 
d="M604 211q61 26 88 95q82 -44 210 -99q-38 -92 -117 -141t-181 -66v-68h-237v65q-168 23 -247.5 116t-79.5 247q0 155 80 254.5t247 124.5v53h237v-55q214 -36 299 -207q-90 -31 -211 -93q-25 51 -88 82v-308zM304 280q21 -40 63 -63v307q-43 -23 -63.5 -63.5t-20.5 -89.5
q0 -51 21 -91z" />
    <glyph glyph-name="sterling" unicode="&#xa3;" horiz-adv-x="744" 
d="M734 260h-437q-7 -35 -20 -70h457v-190h-724v190q35 0 55 19t23 51h-78v185h37q-1 9 -1 26q0 80 45 142.5t128 98t193 35.5q141 0 305 -60q-35 -59 -53.5 -100t-25.5 -93q-125 59 -224 59q-63 0 -99 -25.5t-36 -66.5q0 -10 1 -16h454v-185z" />
    <glyph glyph-name="currency" unicode="&#xa4;" horiz-adv-x="834" 
d="M718 212l96 -96l-133 -133l-96 96q-77 -44 -168 -44t-168 44l-96 -96l-133 133l96 96q-44 77 -44 168t44 168l-96 96l133 133l96 -96q77 44 168 44t168 -44l96 96l133 -133l-96 -96q44 -77 44 -168t-44 -168zM270 295q23 -39 62 -62t85 -23t85 23t62 62t23 85t-23 85
t-62 62t-85 23t-85 -23t-62 -62t-23 -85t23 -85z" />
    <glyph glyph-name="yen" unicode="&#xa5;" horiz-adv-x="950" 
d="M930 726l-55 -86q-73 -115 -118 -188h81v-164h-177q-2 -4 -14 -26h191v-163h-238v-99h-261v99h-217v163h176l-15 26h-161v164h59l-57 86q-83 123 -124 188h280q30 -61 98 -181q68 -122 93 -172q35 73 94 179q69 124 93 174h272z" />
    <glyph glyph-name="brokenbar" unicode="&#xa6;" horiz-adv-x="250" 
d="M240 402h-230v324h230v-324zM10 302h230v-302h-230v302z" />
    <glyph glyph-name="section" unicode="&#xa7;" horiz-adv-x="588" 
d="M578 168q0 -86 -70.5 -132t-225.5 -46q-107 0 -272 42l9 27q15 46 23 75t14 71q67 -27 141.5 -40.5t139.5 -13.5q17 0 26 3.5t9 9.5q0 5 -9 9.5t-24 5.5q-105 7 -168.5 17.5t-108 44t-44.5 98.5q0 48 48 96q-56 41 -56 113q0 86 70.5 132t225.5 46q107 0 272 -42
q-3 -9 -5.5 -16t-4.5 -14q-17 -51 -24 -76.5t-12 -65.5q-67 27 -141.5 40.5t-139.5 13.5q-17 0 -26 -3.5t-9 -9.5q0 -5 9 -9.5t24 -5.5q105 -7 168.5 -18t108 -44t44.5 -99q0 -48 -48 -96q56 -41 56 -113zM291 341q66 -8 99 -13q1 1 1 4q3 30 -45 37l-45 6q-76 9 -104 14v-5
q-1 -15 9.5 -24t35.5 -13z" />
    <glyph glyph-name="dieresis" unicode="&#xa8;" horiz-adv-x="600" 
d="M174 646q-19 19 -19 46q0 26 19 45t46 19q26 0 45 -19t19 -45q0 -27 -19 -46t-45 -19q-27 0 -46 19zM335 646q-19 19 -19 46q0 26 19 45t46 19q26 0 45 -19t19 -45q0 -27 -19 -46t-45 -19q-27 0 -46 19z" />
    <glyph glyph-name="copyright" unicode="&#xa9;" horiz-adv-x="868" 
d="M211.5 31.5q-95.5 41.5 -148.5 124t-53 199.5t53 199t148.5 123.5t222.5 41.5q209 0 316.5 -92.5t107.5 -271.5q0 -117 -53 -199.5t-148.5 -124t-222.5 -41.5t-222.5 41.5zM621.5 194q63.5 55 63.5 161q0 107 -63.5 161t-187.5 54t-187.5 -54.5t-63.5 -160.5t63.5 -161
t187.5 -55t187.5 55zM266.5 208.5q-57.5 50.5 -57.5 144.5t57.5 144.5t164.5 50.5q80 0 136 -29.5t82 -82.5q-73 -14 -140 -60q-19 45 -78 45q-74 0 -77 -68q3 -68 77 -68q59 0 78 45q70 -46 140 -60q-25 -55 -81 -83.5t-137 -28.5q-107 0 -164.5 50.5z" />
    <glyph glyph-name="ordfeminine" unicode="&#xaa;" horiz-adv-x="741" 
d="M681 166q0 -34 8 -48t32 -20l-4 -94q-32 -5 -55.5 -7t-62.5 -2q-86 0 -114 38.5t-28 98.5v25q-29 -82 -84.5 -122t-141.5 -40q-100 0 -150.5 40t-50.5 119q0 65 43 102t133 51q-76 54 -152 94q60 76 137 115.5t187 39.5q154 0 228.5 -66.5t74.5 -204.5v-119zM309 363
q-39 -17 -70 -51q60 7 150 7q37 0 52 9t15 23q0 12 -15 20.5t-42 8.5q-51 0 -90 -17zM395 179.5q45 21.5 62 56.5v26q-24 -12 -53 -18.5t-70 -12.5l-36 -6q-56 -11 -56 -38q0 -29 52 -29q56 0 101 21.5z" />
    <glyph glyph-name="guillemotleft" unicode="&#xab;" horiz-adv-x="791" 
d="M249 732h222l-200 -352l200 -352h-222l-199 352zM539 732h222l-200 -352l200 -352h-222l-199 352z" />
    <glyph glyph-name="logicalnot" unicode="&#xac;" horiz-adv-x="550" 
d="M10 104v196h530v-300h-211v104h-319z" />
    <glyph glyph-name="uni00AD" unicode="&#xad;" horiz-adv-x="490" 
d="M460 243h-430v195h430v-195z" />
    <glyph glyph-name="registered" unicode="&#xae;" horiz-adv-x="461" 
d="M350 700q50 -26 75.5 -71t25.5 -100q0 -56 -25.5 -101.5t-75.5 -71.5t-119 -26q-70 0 -120 26t-75.5 71.5t-25.5 101.5q0 55 25.5 100t75.5 71t120 26q69 0 119 -26zM360 529q0 49 -34 82t-95 33q-57 0 -91 -29h123q44 0 63.5 -18t19.5 -44q0 -32 -26 -49
q12 -11 16.5 -17t4.5 -20v-4q19 28 19 66zM101 529q0 -44 26 -75q2 50 2 74q0 26 -2 74q-26 -31 -26 -73zM203 533h45q23 0 23 13q0 7 -5.5 10t-17.5 3h-45v-26zM141 440q36 -28 90 -28t89 28h-56l1 18q0 12 -6.5 16t-28.5 4h-27v-38h-62z" />
    <glyph glyph-name="macron" unicode="&#xaf;" horiz-adv-x="600" 
d="M170 689v91h260v-91h-260z" />
    <glyph glyph-name="degree" unicode="&#xb0;" horiz-adv-x="420" 
d="M102 390.5q-45 23.5 -68.5 64.5t-23.5 92q0 50 23.5 91t68.5 64.5t108 23.5t108 -23.5t68.5 -64.5t23.5 -91q0 -51 -23.5 -92t-68.5 -64.5t-108 -23.5t-108 23.5zM256.5 499q19.5 17 19.5 49q0 31 -19.5 46.5t-46.5 15.5q-29 0 -47.5 -15.5t-18.5 -46.5q0 -32 19 -49
t47 -17q27 0 46.5 17z" />
    <glyph glyph-name="plusminus" unicode="&#xb1;" horiz-adv-x="721" 
d="M464 683v-113h227v-187h-227v-104h-207v104h-227v187h227v113h207zM691 57h-661v187h661v-187z" />
    <glyph glyph-name="uni00B2" unicode="&#xb2;" horiz-adv-x="628" 
d="M598 501q-13 -39 -20 -82.5t-7 -79.5h-537q-6 80 38 137.5t125 106.5q14 9 38 19.5t32 14.5q66 30 98.5 49.5t32.5 39.5q0 26 -22 41t-68 15q-47 -1 -72 -25.5t-25 -62.5q0 -13 3 -25q-88 11 -184 16q0 64 33.5 115.5t100.5 81.5t165 30q90 0 150 -24.5t88 -61.5t28 -76
q0 -45 -20 -77.5t-57 -57.5t-100 -54q-11 -6 -59 -19q-96 -27 -140 -51q242 12 379 30z" />
    <glyph glyph-name="uni00B3" unicode="&#xb3;" horiz-adv-x="662" 
d="M503 620q66 0 97.5 -31.5t31.5 -72.5q0 -59 -39 -101t-106 -63.5t-149 -21.5q-238 0 -307 166l46 12q52 13 80.5 22t52.5 21q15 -38 43 -54t78 -16q53 0 86 12t33 36q0 19 -29 25.5t-103 6.5h-57v131h34q57 0 93.5 5t36.5 21q0 19 -19 31t-60 12q-100 0 -136 -85
q-77 31 -172 45q75 170 304 170q77 0 138.5 -20t96 -55t34.5 -79q0 -26 -12 -45.5t-47 -38.5t-102 -38q33 5 53 5z" />
    <glyph glyph-name="acute" unicode="&#xb4;" horiz-adv-x="600" 
d="M328 613h-127l24 155h185z" />
    <glyph glyph-name="uni00B5" unicode="&#xb5;" horiz-adv-x="695" 
d="M648 274q0 -147 7 -274q-64 3 -95 3q-30 0 -96 -3l-19 94q-15 -49 -49 -76.5t-69 -27.5q-16 0 -34.5 4t-32.5 11q1 -138 5 -226h-225q0 19 1 28q4 220 4 382v144q0 133 -5 213h225q-5 -107 -5 -189v-92q0 -53 21.5 -79.5t53.5 -26.5q31 0 54.5 27.5t28.5 75.5v23
q2 78 2 108q0 69 -4 153h239q-7 -126 -7 -272z" />
    <glyph glyph-name="paragraph" unicode="&#xb6;" horiz-adv-x="548" 
d="M44.5 691.5q34.5 34.5 83.5 34.5h184v-726h-184v489q-49 0 -83.5 35t-34.5 84t34.5 83.5zM354 0v726h184v-726h-184z" />
    <glyph glyph-name="periodcentered" unicode="&#xb7;" horiz-adv-x="290" 
d="M63.5 229q-33.5 34 -33.5 83q0 47 33.5 81t81.5 34q47 0 81 -34t34 -81q0 -48 -34 -82.5t-81 -34.5q-48 0 -81.5 34z" />
    <glyph glyph-name="cedilla" unicode="&#xb8;" horiz-adv-x="600" 
d="M336 15q36 -12 59.5 -37t23.5 -64q0 -55 -45 -88t-135 -33q-24 0 -53 3v84q49 -2 72.5 6.5t23.5 33.5q0 16 -22 26t-65 10l45 125h120z" />
    <glyph glyph-name="uni00B9" unicode="&#xb9;" horiz-adv-x="462" 
d="M332 478l100 3v-142h-397v142q61 -3 122 -3v259q-26 -58 -110 -76q-4 95 -17 161q60 8 83.5 20.5t36.5 28t18 20.5v1h164v-414z" />
    <glyph glyph-name="ordmasculine" unicode="&#xba;" horiz-adv-x="736" 
d="M110.5 68.5q-80.5 78.5 -80.5 206.5q0 125 80.5 203t251.5 78q115 0 192.5 -37.5t114.5 -101t37 -142.5q0 -129 -85.5 -207t-258.5 -78q-171 0 -251.5 78.5zM463 191q32 31 32 83q0 49 -32 80.5t-97 31.5t-95 -31t-30 -81q0 -52 30 -83t95 -31t97 31z" />
    <glyph glyph-name="guillemotright" unicode="&#xbb;" horiz-adv-x="751" 
d="M10 732h222l199 -352l-199 -352h-222l200 352zM300 732h222l199 -352l-199 -352h-222l200 352z" />
    <glyph glyph-name="onequarter" unicode="&#xbc;" horiz-adv-x="1376" 
d="M733 717h168l-491 -737h-168l123 184h-330v142q61 -3 122 -3v259q-26 -58 -110 -76q-4 95 -17 161q60 8 83.5 20.5t36.5 28t18 20.5v1h164v-414l100 3v-41zM1346 215v-142h-103v-95h-179q3 35 3 71q1 8 1 24h-357v152q173 133 313 299h219v-309h103zM1072 375
q-55 -57 -91.5 -91t-82.5 -69h172z" />
    <glyph glyph-name="onehalf" unicode="&#xbd;" horiz-adv-x="1309" 
d="M733 717h168l-491 -737h-168l123 184h-330v142q61 -3 122 -3v259q-26 -58 -110 -76q-4 95 -17 161q60 8 83.5 20.5t36.5 28t18 20.5v1h164v-414l100 3v-41zM1279 141q-13 -39 -20 -82.5t-7 -79.5h-537q-6 80 38 137.5t125 106.5q14 9 38 19.5t32 14.5q66 30 98.5 49.5
t32.5 39.5q0 26 -22 41t-68 15q-47 -1 -72 -25.5t-25 -62.5q0 -13 3 -25q-88 11 -184 16q0 64 33.5 115.5t100.5 81.5t165 30q90 0 150 -24.5t88 -61.5t28 -76q0 -45 -20 -77.5t-57 -57.5t-100 -54q-11 -6 -59 -19q-96 -27 -140 -51q242 12 379 30z" />
    <glyph glyph-name="threequarters" unicode="&#xbe;" horiz-adv-x="1576" 
d="M442 -20l491 737h168l-491 -737h-168zM593 240q-39 -42 -106 -63.5t-149 -21.5q-238 0 -307 166l46 12q52 13 80.5 22t52.5 21q15 -38 43 -54t78 -16q53 0 86 12t33 36q0 19 -29 25.5t-103 6.5h-57v131h34q57 0 93.5 5t36.5 21q0 19 -19 31t-60 12q-100 0 -136 -85
q-77 31 -172 45q75 170 304 170q77 0 138.5 -20t96 -55t34.5 -79q0 -26 -12 -45.5t-47 -38.5t-102 -38q33 5 53 5q66 0 97.5 -31.5t31.5 -72.5q0 -59 -39 -101zM1546 215v-142h-103v-95h-179q3 35 3 71q1 8 1 24h-357v152q173 133 313 299h219v-309h103zM1272 375
q-55 -57 -91.5 -91t-82.5 -69h172z" />
    <glyph glyph-name="questiondown" unicode="&#xbf;" horiz-adv-x="764" 
d="M283 633h232v-178h-232v178zM204.5 -147q-80.5 32 -127.5 89t-47 131q0 60 29 103t74 70l53 30q43 24 57 33q23 14 32 31t9 40h229q0 -76 -36 -127.5t-121 -89.5q-38 -17 -55.5 -37.5t-17.5 -46.5q0 -29 27.5 -50t69.5 -21q57 0 88.5 28t31.5 79q0 21 -6 46
q80 -23 239 -23q1 -9 1 -25q0 -84 -44.5 -150.5t-125 -104t-184.5 -37.5q-95 0 -175.5 32z" />
    <glyph glyph-name="Agrave" unicode="&#xc0;" 
d="M671 0q-19 57 -51 143h-319l-50 -143h-251l280 726h368l282 -726h-259zM563 299q-38 105 -78 210l-24 65q-35 -91 -103 -275h205zM416 767l-82 155h185l24 -155h-127z" />
    <glyph glyph-name="Aacute" unicode="&#xc1;" 
d="M671 0q-19 57 -51 143h-319l-50 -143h-251l280 726h368l282 -726h-259zM563 299q-38 105 -78 210l-24 65q-35 -91 -103 -275h205zM519 765h-127l24 155h185z" />
    <glyph glyph-name="Acircumflex" unicode="&#xc2;" 
d="M671 0q-19 57 -51 143h-319l-50 -143h-251l280 726h368l282 -726h-259zM563 299q-38 105 -78 210l-24 65q-35 -91 -103 -275h205zM554 911l85 -145h-131l-47 86l-47 -86h-130l85 145h185z" />
    <glyph glyph-name="Atilde" unicode="&#xc3;" 
d="M671 0q-19 57 -51 143h-319l-50 -143h-251l280 726h368l282 -726h-259zM563 299q-38 105 -78 210l-24 65q-35 -91 -103 -275h205zM638 876q0 -53 -29 -86.5t-83 -33.5q-41 0 -78 29q-9 8 -19 20q-8 10 -14 14.5t-13 4.5q-9 0 -14 -7.5t-3 -18.5h-99q0 47 30 83.5t82 36.5
q46 0 83 -32l15 -16q15 -19 25 -19t14 5.5t4 19.5h99z" />
    <glyph glyph-name="Adieresis" unicode="&#xc4;" 
d="M671 0q-19 57 -51 143h-319l-50 -143h-251l280 726h368l282 -726h-259zM563 299q-38 105 -78 210l-24 65q-35 -91 -103 -275h205zM336 785q-19 19 -19 46q0 26 19 45t46 19q26 0 45 -19t19 -45q0 -27 -19 -46t-45 -19q-27 0 -46 19zM497 785q-19 19 -19 46q0 26 19 45
t46 19q26 0 45 -19t19 -45q0 -27 -19 -46t-45 -19q-27 0 -46 19z" />
    <glyph glyph-name="Aring" unicode="&#xc5;" 
d="M671 0q-19 57 -51 143h-319l-50 -143h-251l280 726h368l282 -726h-259zM563 299q-38 105 -78 210l-24 65q-35 -91 -103 -275h205zM378 781q-35 35 -35 84t35 84t84 35t84 -35t35 -84t-35 -84t-84 -35t-84 35zM492 835q13 13 13 30t-13 30t-30 13t-30 -13t-13 -30t13 -30
t30 -13t30 13z" />
    <glyph glyph-name="AE" unicode="&#xc6;" horiz-adv-x="1105" 
d="M706 183q247 2 359 11q-5 -41 -6 -92.5t-1 -101.5h-574q2 41 4 123h-183l-54 -123h-251l340 726h718v-181h-352v-94h82q112 0 225 3v-172q-113 3 -225 3h-82v-102zM374 279h116l1 107q0 51 -2 153z" />
    <glyph glyph-name="Ccedilla" unicode="&#xc7;" 
d="M620 218.5q49 27.5 72 87.5q82 -44 210 -99q-47 -113 -153 -162.5t-235 -53.5l-9 -24q36 -12 59.5 -37t23.5 -64q0 -55 -45 -88t-135 -33q-25 0 -53 3v84q49 -2 72.5 6.5t23.5 33.5q0 16 -22 26t-65 10l31 86q-355 34 -355 366q0 179 107 283t333 104q316 0 423 -217
q-90 -31 -211 -93q-29 56 -91.5 83t-127.5 27q-96 0 -143 -50.5t-47 -124.5q0 -80 50.5 -130.5t154.5 -50.5q83 0 132 27.5z" />
    <glyph glyph-name="Egrave" unicode="&#xc8;" horiz-adv-x="867" 
d="M276 183q380 2 551 11q-7 -41 -8.5 -84.5t-1.5 -109.5h-777q8 194 8 363t-8 363h777v-181h-541v-96q48 -1 142 -1q159 0 329 6v-172q-170 6 -329 6q-94 0 -142 -1v-104zM388 767l-82 155h185l24 -155h-127z" />
    <glyph glyph-name="Eacute" unicode="&#xc9;" horiz-adv-x="867" 
d="M276 183q380 2 551 11q-7 -41 -8.5 -84.5t-1.5 -109.5h-777q8 194 8 363t-8 363h777v-181h-541v-96q48 -1 142 -1q159 0 329 6v-172q-170 6 -329 6q-94 0 -142 -1v-104zM491 765h-127l24 155h185z" />
    <glyph glyph-name="Ecircumflex" unicode="&#xca;" horiz-adv-x="867" 
d="M276 183q380 2 551 11q-7 -41 -8.5 -84.5t-1.5 -109.5h-777q8 194 8 363t-8 363h777v-181h-541v-96q48 -1 142 -1q159 0 329 6v-172q-170 6 -329 6q-94 0 -142 -1v-104zM526 911l85 -145h-131l-47 86l-47 -86h-130l85 145h185z" />
    <glyph glyph-name="Edieresis" unicode="&#xcb;" horiz-adv-x="867" 
d="M276 183q380 2 551 11q-7 -41 -8.5 -84.5t-1.5 -109.5h-777q8 194 8 363t-8 363h777v-181h-541v-96q48 -1 142 -1q159 0 329 6v-172q-170 6 -329 6q-94 0 -142 -1v-104zM308 785q-19 19 -19 46q0 26 19 45t46 19q26 0 45 -19t19 -45q0 -27 -19 -46t-45 -19q-27 0 -46 19z
M469 785q-19 19 -19 46q0 26 19 45t46 19q26 0 45 -19t19 -45q0 -27 -19 -46t-45 -19q-27 0 -46 19z" />
    <glyph glyph-name="Igrave" unicode="&#xcc;" horiz-adv-x="661" 
d="M621 527q-119 6 -176 7v-342q58 1 176 7v-199h-581v199q115 -6 175 -7v342q-60 -1 -175 -7v199h581v-199zM285 772l-82 155h185l24 -155h-127z" />
    <glyph glyph-name="Iacute" unicode="&#xcd;" horiz-adv-x="661" 
d="M621 527q-119 6 -176 7v-342q58 1 176 7v-199h-581v199q115 -6 175 -7v342q-60 -1 -175 -7v199h581v-199zM388 770h-127l24 155h185z" />
    <glyph glyph-name="Icircumflex" unicode="&#xce;" horiz-adv-x="661" 
d="M621 527q-119 6 -176 7v-342q58 1 176 7v-199h-581v199q115 -6 175 -7v342q-60 -1 -175 -7v199h581v-199zM423 916l85 -145h-131l-47 86l-47 -86h-130l85 145h185z" />
    <glyph glyph-name="Idieresis" unicode="&#xcf;" horiz-adv-x="661" 
d="M621 527q-119 6 -176 7v-342q58 1 176 7v-199h-581v199q115 -6 175 -7v342q-60 -1 -175 -7v199h581v-199zM205 790q-19 19 -19 46q0 26 19 45t46 19q26 0 45 -19t19 -45q0 -27 -19 -46t-45 -19q-27 0 -46 19zM366 790q-19 19 -19 46q0 26 19 45t46 19q26 0 45 -19t19 -45
q0 -27 -19 -46t-45 -19q-27 0 -46 19z" />
    <glyph glyph-name="Eth" unicode="&#xd0;" horiz-adv-x="893" 
d="M657 691.5q109 -45.5 152.5 -126t43.5 -197.5q0 -111 -50 -194t-150 -128.5t-246 -45.5h-181t-186 1q7 193 7 329h-134v156h134q-1 84 -7 241q119 10 320 10q188 0 297 -45.5zM435 199q93 0 124 45t31 124q0 76 -32.5 123t-122.5 47q-97 0 -145 -6v-46h141v-156h-141
v-131h145z" />
    <glyph glyph-name="Ntilde" unicode="&#xd1;" horiz-adv-x="919" 
d="M879 725q-7 -169 -7 -362q0 -194 7 -363h-358l-242 546l18 -546h-257q8 194 8 363q0 168 -8 362h368l243 -561l-17 561h245zM636 872q0 -53 -29 -86.5t-83 -33.5q-41 0 -78 29q-9 8 -19 20q-8 10 -14 14.5t-13 4.5q-9 0 -14 -7.5t-3 -18.5h-99q0 47 30 83.5t82 36.5
q46 0 83 -32l15 -16q15 -19 25 -19t14 5.5t4 19.5h99z" />
    <glyph glyph-name="Ograve" unicode="&#xd2;" horiz-adv-x="971" 
d="M148 89.5q-108 99.5 -108 279.5q0 178 107.5 278t337.5 100q231 0 338.5 -100t107.5 -278q0 -181 -107 -280t-339 -99q-229 0 -337 99.5zM645 236.5q49 42.5 49 132.5q0 88 -49 131t-160 43q-110 0 -159 -43t-49 -131q0 -89 49 -132t159 -43q111 0 160 42.5zM439 788
l-82 155h185l24 -155h-127z" />
    <glyph glyph-name="Oacute" unicode="&#xd3;" horiz-adv-x="971" 
d="M148 89.5q-108 99.5 -108 279.5q0 178 107.5 278t337.5 100q231 0 338.5 -100t107.5 -278q0 -181 -107 -280t-339 -99q-229 0 -337 99.5zM645 236.5q49 42.5 49 132.5q0 88 -49 131t-160 43q-110 0 -159 -43t-49 -131q0 -89 49 -132t159 -43q111 0 160 42.5zM542 786
h-127l24 155h185z" />
    <glyph glyph-name="Ocircumflex" unicode="&#xd4;" horiz-adv-x="971" 
d="M148 89.5q-108 99.5 -108 279.5q0 178 107.5 278t337.5 100q231 0 338.5 -100t107.5 -278q0 -181 -107 -280t-339 -99q-229 0 -337 99.5zM645 236.5q49 42.5 49 132.5q0 88 -49 131t-160 43q-110 0 -159 -43t-49 -131q0 -89 49 -132t159 -43q111 0 160 42.5zM577 932
l85 -145h-131l-47 86l-47 -86h-130l85 145h185z" />
    <glyph glyph-name="Otilde" unicode="&#xd5;" horiz-adv-x="971" 
d="M148 89.5q-108 99.5 -108 279.5q0 178 107.5 278t337.5 100q231 0 338.5 -100t107.5 -278q0 -181 -107 -280t-339 -99q-229 0 -337 99.5zM645 236.5q49 42.5 49 132.5q0 88 -49 131t-160 43q-110 0 -159 -43t-49 -131q0 -89 49 -132t159 -43q111 0 160 42.5zM661 897
q0 -53 -29 -86.5t-83 -33.5q-41 0 -78 29q-9 8 -19 20q-8 10 -14 14.5t-13 4.5q-9 0 -14 -7.5t-3 -18.5h-99q0 47 30 83.5t82 36.5q46 0 83 -32l15 -16q15 -19 25 -19t14 5.5t4 19.5h99z" />
    <glyph glyph-name="Odieresis" unicode="&#xd6;" horiz-adv-x="971" 
d="M148 89.5q-108 99.5 -108 279.5q0 178 107.5 278t337.5 100q231 0 338.5 -100t107.5 -278q0 -181 -107 -280t-339 -99q-229 0 -337 99.5zM645 236.5q49 42.5 49 132.5q0 88 -49 131t-160 43q-110 0 -159 -43t-49 -131q0 -89 49 -132t159 -43q111 0 160 42.5zM359 806
q-19 19 -19 46q0 26 19 45t46 19q26 0 45 -19t19 -45q0 -27 -19 -46t-45 -19q-27 0 -46 19zM520 806q-19 19 -19 46q0 26 19 45t46 19q26 0 45 -19t19 -45q0 -27 -19 -46t-45 -19q-27 0 -46 19z" />
    <glyph glyph-name="multiply" unicode="&#xd7;" horiz-adv-x="565" 
d="M413 605l142 -138l-131 -127l130 -126l-142 -138l-130 137l-130 -137l-142 138l130 126l-130 127l142 138l130 -138z" />
    <glyph glyph-name="Oslash" unicode="&#xd8;" horiz-adv-x="979" 
d="M939 667l-70 -71q62 -88 62 -227q0 -181 -107 -280t-339 -99q-112 0 -193 24l-34 -34l-218 90l66 66q-66 91 -66 233q0 178 107.5 278t337.5 100q116 0 200 -26l36 36zM282 314l226 228q-7 1 -23 1q-110 0 -159 -43t-49 -131q0 -27 5 -55zM690 416l-220 -222h15
q111 0 160 42.5t49 132.5q0 27 -4 47z" />
    <glyph glyph-name="Ugrave" unicode="&#xd9;" horiz-adv-x="920" 
d="M632 727h248v-398q-2 -147 -100.5 -243t-331.5 -96q-236 0 -323 91.5t-85 240.5v405h248v-389q0 -44 6.5 -71.5t42 -51.5t114.5 -24q86 0 126 24.5t47.5 54.5t7.5 77v380zM414 768l-82 155h185l24 -155h-127z" />
    <glyph glyph-name="Uacute" unicode="&#xda;" horiz-adv-x="920" 
d="M632 727h248v-398q-2 -147 -100.5 -243t-331.5 -96q-236 0 -323 91.5t-85 240.5v405h248v-389q0 -44 6.5 -71.5t42 -51.5t114.5 -24q86 0 126 24.5t47.5 54.5t7.5 77v380zM517 766h-127l24 155h185z" />
    <glyph glyph-name="Ucircumflex" unicode="&#xdb;" horiz-adv-x="920" 
d="M632 727h248v-398q-2 -147 -100.5 -243t-331.5 -96q-236 0 -323 91.5t-85 240.5v405h248v-389q0 -44 6.5 -71.5t42 -51.5t114.5 -24q86 0 126 24.5t47.5 54.5t7.5 77v380zM552 912l85 -145h-131l-47 86l-47 -86h-130l85 145h185z" />
    <glyph glyph-name="Udieresis" unicode="&#xdc;" horiz-adv-x="920" 
d="M632 727h248v-398q-2 -147 -100.5 -243t-331.5 -96q-236 0 -323 91.5t-85 240.5v405h248v-389q0 -44 6.5 -71.5t42 -51.5t114.5 -24q86 0 126 24.5t47.5 54.5t7.5 77v380zM334 786q-19 19 -19 46q0 26 19 45t46 19q26 0 45 -19t19 -45q0 -27 -19 -46t-45 -19
q-27 0 -46 19zM495 786q-19 19 -19 46q0 26 19 45t46 19q26 0 45 -19t19 -45q0 -27 -19 -46t-45 -19q-27 0 -46 19z" />
    <glyph glyph-name="Yacute" unicode="&#xdd;" 
d="M930 726l-19 -29q-107 -166 -183.5 -293.5t-127.5 -234.5v-169h-261v186q-37 75 -87 154.5t-142 218.5q-72 106 -110 167h280q30 -61 98 -181q68 -122 93 -172q35 73 94 179q69 124 93 174h272zM529 765h-127l24 155h185z" />
    <glyph glyph-name="Thorn" unicode="&#xde;" horiz-adv-x="789" 
d="M418 655q186 0 258.5 -70.5t72.5 -198.5q0 -88 -29 -149.5t-102 -96t-200 -34.5h-148v-106h-230q7 169 7 363t-7 363h230v-71h148zM352 299q78 0 117 6.5t54 23t15 50.5q0 33 -14.5 49.5t-53.5 22.5t-118 6h-82v-158h82z" />
    <glyph glyph-name="germandbls" unicode="&#xdf;" horiz-adv-x="842" 
d="M748 340.5q54 -49.5 54 -130.5q0 -59 -38.5 -109t-113.5 -80t-181 -30q-68 0 -134 11l-19 208q101 -26 162 -26q48 0 70.5 13.5t22.5 36.5t-29.5 39.5t-89.5 16.5q-53 0 -120 -14v175q88 0 128.5 13.5t40.5 41.5q0 25 -25.5 40.5t-82.5 15.5q-46 0 -82 -29.5t-36 -83.5
v-449h-225q7 139 7 297l-1 91q-1 22 -1 60q0 96 49.5 161t129 96t171.5 31q97 0 177.5 -26t127 -69.5t46.5 -94.5q0 -35 -13.5 -61.5t-54 -49.5t-116.5 -40q122 -5 176 -54.5z" />
    <glyph glyph-name="agrave" unicode="&#xe0;" horiz-adv-x="741" 
d="M681 166q0 -34 8 -48t32 -20l-4 -94q-32 -5 -55.5 -7t-62.5 -2q-86 0 -114 38.5t-28 98.5v25q-29 -82 -84.5 -122t-141.5 -40q-100 0 -150.5 40t-50.5 119q0 65 43 102t133 51q-76 54 -152 94q60 76 137 115.5t187 39.5q154 0 228.5 -66.5t74.5 -204.5v-119zM309 363
q-39 -17 -70 -51q60 7 150 7q37 0 52 9t15 23q0 12 -15 20.5t-42 8.5q-51 0 -90 -17zM395 179.5q45 21.5 62 56.5v26q-24 -12 -53 -18.5t-70 -12.5l-36 -6q-56 -11 -56 -38q0 -29 52 -29q56 0 101 21.5zM332 597l-82 155h185l24 -155h-127z" />
    <glyph glyph-name="aacute" unicode="&#xe1;" horiz-adv-x="741" 
d="M681 166q0 -34 8 -48t32 -20l-4 -94q-32 -5 -55.5 -7t-62.5 -2q-86 0 -114 38.5t-28 98.5v25q-29 -82 -84.5 -122t-141.5 -40q-100 0 -150.5 40t-50.5 119q0 65 43 102t133 51q-76 54 -152 94q60 76 137 115.5t187 39.5q154 0 228.5 -66.5t74.5 -204.5v-119zM309 363
q-39 -17 -70 -51q60 7 150 7q37 0 52 9t15 23q0 12 -15 20.5t-42 8.5q-51 0 -90 -17zM395 179.5q45 21.5 62 56.5v26q-24 -12 -53 -18.5t-70 -12.5l-36 -6q-56 -11 -56 -38q0 -29 52 -29q56 0 101 21.5zM410 586h-127l24 155h185z" />
    <glyph glyph-name="acircumflex" unicode="&#xe2;" horiz-adv-x="741" 
d="M681 166q0 -34 8 -48t32 -20l-4 -94q-32 -5 -55.5 -7t-62.5 -2q-86 0 -114 38.5t-28 98.5v25q-29 -82 -84.5 -122t-141.5 -40q-100 0 -150.5 40t-50.5 119q0 65 43 102t133 51q-76 54 -152 94q60 76 137 115.5t187 39.5q154 0 228.5 -66.5t74.5 -204.5v-119zM309 363
q-39 -17 -70 -51q60 7 150 7q37 0 52 9t15 23q0 12 -15 20.5t-42 8.5q-51 0 -90 -17zM395 179.5q45 21.5 62 56.5v26q-24 -12 -53 -18.5t-70 -12.5l-36 -6q-56 -11 -56 -38q0 -29 52 -29q56 0 101 21.5zM470 741l85 -145h-131l-47 86l-47 -86h-130l85 145h185z" />
    <glyph glyph-name="atilde" unicode="&#xe3;" horiz-adv-x="741" 
d="M681 166q0 -34 8 -48t32 -20l-4 -94q-32 -5 -55.5 -7t-62.5 -2q-86 0 -114 38.5t-28 98.5v25q-29 -82 -84.5 -122t-141.5 -40q-100 0 -150.5 40t-50.5 119q0 65 43 102t133 51q-76 54 -152 94q60 76 137 115.5t187 39.5q154 0 228.5 -66.5t74.5 -204.5v-119zM309 363
q-39 -17 -70 -51q60 7 150 7q37 0 52 9t15 23q0 12 -15 20.5t-42 8.5q-51 0 -90 -17zM395 179.5q45 21.5 62 56.5v26q-24 -12 -53 -18.5t-70 -12.5l-36 -6q-56 -11 -56 -38q0 -29 52 -29q56 0 101 21.5zM554 706q0 -53 -29 -86.5t-83 -33.5q-41 0 -78 29q-9 8 -19 20
q-8 10 -14 14.5t-13 4.5q-9 0 -14 -7.5t-3 -18.5h-99q0 47 30 83.5t82 36.5q46 0 83 -32l15 -16q15 -19 25 -19t14 5.5t4 19.5h99z" />
    <glyph glyph-name="adieresis" unicode="&#xe4;" horiz-adv-x="741" 
d="M681 166q0 -34 8 -48t32 -20l-4 -94q-32 -5 -55.5 -7t-62.5 -2q-86 0 -114 38.5t-28 98.5v25q-29 -82 -84.5 -122t-141.5 -40q-100 0 -150.5 40t-50.5 119q0 65 43 102t133 51q-76 54 -152 94q60 76 137 115.5t187 39.5q154 0 228.5 -66.5t74.5 -204.5v-119zM309 363
q-39 -17 -70 -51q60 7 150 7q37 0 52 9t15 23q0 12 -15 20.5t-42 8.5q-51 0 -90 -17zM395 179.5q45 21.5 62 56.5v26q-24 -12 -53 -18.5t-70 -12.5l-36 -6q-56 -11 -56 -38q0 -29 52 -29q56 0 101 21.5zM252 615q-19 19 -19 46q0 26 19 45t46 19q26 0 45 -19t19 -45
q0 -27 -19 -46t-45 -19q-27 0 -46 19zM413 615q-19 19 -19 46q0 26 19 45t46 19q26 0 45 -19t19 -45q0 -27 -19 -46t-45 -19q-27 0 -46 19z" />
    <glyph glyph-name="aring" unicode="&#xe5;" horiz-adv-x="741" 
d="M681 166q0 -34 8 -48t32 -20l-4 -94q-32 -5 -55.5 -7t-62.5 -2q-86 0 -114 38.5t-28 98.5v25q-29 -82 -84.5 -122t-141.5 -40q-100 0 -150.5 40t-50.5 119q0 65 43 102t133 51q-76 54 -152 94q60 76 137 115.5t187 39.5q154 0 228.5 -66.5t74.5 -204.5v-119zM309 363
q-39 -17 -70 -51q60 7 150 7q37 0 52 9t15 23q0 12 -15 20.5t-42 8.5q-51 0 -90 -17zM395 179.5q45 21.5 62 56.5v26q-24 -12 -53 -18.5t-70 -12.5l-36 -6q-56 -11 -56 -38q0 -29 52 -29q56 0 101 21.5zM294 611q-35 35 -35 84t35 84t84 35t84 -35t35 -84t-35 -84t-84 -35
t-84 35zM408 665q13 13 13 30t-13 30t-30 13t-30 -13t-13 -30t13 -30t30 -13t30 13z" />
    <glyph glyph-name="ae" unicode="&#xe6;" horiz-adv-x="1125" 
d="M972 250h-319q8 -44 39.5 -71.5t89.5 -27.5q82 0 128 63q67 -33 178 -71q-31 -69 -111 -111t-204 -42q-197 0 -265 114q-59 -55 -129.5 -82t-147.5 -27q-100 0 -150.5 40t-50.5 119q0 65 46 101t141 51q-75 54 -153 95q123 155 287 155q137 0 198 -77q41 36 99.5 56.5
t124.5 20.5q97 0 170 -36.5t112.5 -98.5t39.5 -136q0 -23 -2 -35h-121zM705 386q-32 -19 -45 -52h226q-11 32 -36 51.5t-63 19.5q-50 0 -82 -19zM313 362q-35 -18 -65 -52q66 8 151 9q42 1 54.5 9t12.5 23q0 12 -24 20.5t-57 8.5q-37 0 -72 -18zM407.5 181q45.5 23 61.5 59
l-1 22q-26 -13 -58.5 -20t-75.5 -13l-26 -4q-37 -6 -51.5 -15t-14.5 -23q0 -29 62 -29q58 0 103.5 23z" />
    <glyph glyph-name="ccedilla" unicode="&#xe7;" horiz-adv-x="707" 
d="M425 172.5q26 12.5 48 37.5q85 -33 199 -57q-30 -70 -98 -112.5t-175 -49.5l-9 -25q36 -12 59.5 -37t23.5 -64q0 -55 -45 -88t-135 -33q-24 0 -53 3v84q49 -2 72.5 6.5t23.5 33.5q0 16 -22 26t-65 10l32 88q-128 18 -189.5 92.5t-61.5 185.5q0 127 80 205t247 78
q125 0 203.5 -43t111.5 -120q-89 -19 -199 -57q-22 25 -48 37.5t-59 12.5q-60 0 -90.5 -31t-32.5 -82q2 -51 32.5 -82t90.5 -31q33 0 59 12.5z" />
    <glyph glyph-name="egrave" unicode="&#xe8;" horiz-adv-x="725" 
d="M569 250h-326q8 -44 39.5 -71.5t89.5 -27.5q42 0 79 16.5t59 46.5q67 -33 178 -71q-31 -70 -112.5 -111.5t-212.5 -41.5q-170 0 -251.5 78.5t-81.5 206.5q0 125 81 203t252 78q102 0 177 -34t115 -94.5t40 -138.5q0 -26 -2 -39h-124zM295 386q-32 -19 -45 -52h236
q-12 32 -39 51.5t-70 19.5q-50 0 -82 -19zM317 597l-82 155h185l24 -155h-127z" />
    <glyph glyph-name="eacute" unicode="&#xe9;" horiz-adv-x="725" 
d="M569 250h-326q8 -44 39.5 -71.5t89.5 -27.5q42 0 79 16.5t59 46.5q67 -33 178 -71q-31 -70 -112.5 -111.5t-212.5 -41.5q-170 0 -251.5 78.5t-81.5 206.5q0 125 81 203t252 78q102 0 177 -34t115 -94.5t40 -138.5q0 -26 -2 -39h-124zM295 386q-32 -19 -45 -52h236
q-12 32 -39 51.5t-70 19.5q-50 0 -82 -19zM420 595h-127l24 155h185z" />
    <glyph glyph-name="ecircumflex" unicode="&#xea;" horiz-adv-x="725" 
d="M569 250h-326q8 -44 39.5 -71.5t89.5 -27.5q42 0 79 16.5t59 46.5q67 -33 178 -71q-31 -70 -112.5 -111.5t-212.5 -41.5q-170 0 -251.5 78.5t-81.5 206.5q0 125 81 203t252 78q102 0 177 -34t115 -94.5t40 -138.5q0 -26 -2 -39h-124zM295 386q-32 -19 -45 -52h236
q-12 32 -39 51.5t-70 19.5q-50 0 -82 -19zM455 741l85 -145h-131l-47 86l-47 -86h-130l85 145h185z" />
    <glyph glyph-name="edieresis" unicode="&#xeb;" horiz-adv-x="725" 
d="M569 250h-326q8 -44 39.5 -71.5t89.5 -27.5q42 0 79 16.5t59 46.5q67 -33 178 -71q-31 -70 -112.5 -111.5t-212.5 -41.5q-170 0 -251.5 78.5t-81.5 206.5q0 125 81 203t252 78q102 0 177 -34t115 -94.5t40 -138.5q0 -26 -2 -39h-124zM295 386q-32 -19 -45 -52h236
q-12 32 -39 51.5t-70 19.5q-50 0 -82 -19zM237 615q-19 19 -19 46q0 26 19 45t46 19q26 0 45 -19t19 -45q0 -27 -19 -46t-45 -19q-27 0 -46 19zM398 615q-19 19 -19 46q0 26 19 45t46 19q26 0 45 -19t19 -45q0 -27 -19 -46t-45 -19q-27 0 -46 19z" />
    <glyph glyph-name="igrave" unicode="&#xec;" horiz-adv-x="340" 
d="M51 0q7 161 7 266q0 125 -8 280h240q-8 -149 -8 -280q0 -110 7 -266h-238zM124 587l-82 155h185l24 -155h-127z" />
    <glyph glyph-name="iacute" unicode="&#xed;" horiz-adv-x="340" 
d="M51 0q7 161 7 266q0 125 -8 280h240q-8 -149 -8 -280q0 -110 7 -266h-238zM202 576h-127l24 155h185z" />
    <glyph glyph-name="icircumflex" unicode="&#xee;" horiz-adv-x="340" 
d="M51 0q7 161 7 266q0 125 -8 280h240q-8 -149 -8 -280q0 -110 7 -266h-238zM262 731l85 -145h-131l-47 86l-47 -86h-130l85 145h185z" />
    <glyph glyph-name="idieresis" unicode="&#xef;" horiz-adv-x="340" 
d="M51 0q7 161 7 266q0 125 -8 280h240q-8 -149 -8 -280q0 -110 7 -266h-238zM44 605q-19 19 -19 46q0 26 19 45t46 19q26 0 45 -19t19 -45q0 -27 -19 -46t-45 -19q-27 0 -46 19zM205 605q-19 19 -19 46q0 26 19 45t46 19q26 0 45 -19t19 -45q0 -27 -19 -46t-45 -19
q-27 0 -46 19z" />
    <glyph glyph-name="eth" unicode="&#xf0;" horiz-adv-x="600" 
d="M415 692q117 -51 176 -142t59 -212q0 -101 -38 -180t-106.5 -123.5t-155.5 -44.5q-86 0 -155.5 32t-109.5 93t-40 143q0 64 30.5 118.5t87 87t130.5 32.5q68 0 127 -28q-32 43 -96 75l-19 -32h-212l52 86l-57 9l41 143q50 -1 103 -8l24 39h213zM430.5 180.5
q32.5 32.5 32.5 78.5t-32.5 79t-77.5 33q-46 0 -78.5 -33t-32.5 -79t32.5 -78.5t78.5 -32.5q45 0 77.5 32.5z" />
    <glyph glyph-name="ntilde" unicode="&#xf1;" horiz-adv-x="695" 
d="M430 0q6 147 6 271q0 44 -21.5 70t-54.5 26t-56 -29.5t-27 -80.5q-2 -76 -2 -108q0 -68 4 -149h-239q8 144 8 272t-8 274q66 -3 101 -3q37 0 101 3l29 -147q23 80 72 118.5t114 38.5q60 0 104 -26.5t66.5 -71.5t22.5 -101v-144q0 -133 5 -213h-225zM534 703
q0 -53 -29 -86.5t-83 -33.5q-41 0 -78 29q-9 8 -19 20q-8 10 -14 14.5t-13 4.5q-9 0 -14 -7.5t-3 -18.5h-99q0 47 30 83.5t82 36.5q46 0 83 -32l15 -16q15 -19 25 -19t14 5.5t4 19.5h99z" />
    <glyph glyph-name="ograve" unicode="&#xf2;" horiz-adv-x="736" 
d="M110.5 68.5q-80.5 78.5 -80.5 206.5q0 125 80.5 203t251.5 78q115 0 192.5 -37.5t114.5 -101t37 -142.5q0 -129 -85.5 -207t-258.5 -78q-171 0 -251.5 78.5zM463 191q32 31 32 83q0 49 -32 80.5t-97 31.5t-95 -31t-30 -81q0 -52 30 -83t95 -31t97 31zM316 597l-82 155
h185l24 -155h-127z" />
    <glyph glyph-name="oacute" unicode="&#xf3;" horiz-adv-x="736" 
d="M110.5 68.5q-80.5 78.5 -80.5 206.5q0 125 80.5 203t251.5 78q115 0 192.5 -37.5t114.5 -101t37 -142.5q0 -129 -85.5 -207t-258.5 -78q-171 0 -251.5 78.5zM463 191q32 31 32 83q0 49 -32 80.5t-97 31.5t-95 -31t-30 -81q0 -52 30 -83t95 -31t97 31zM419 595h-127
l24 155h185z" />
    <glyph glyph-name="ocircumflex" unicode="&#xf4;" horiz-adv-x="736" 
d="M110.5 68.5q-80.5 78.5 -80.5 206.5q0 125 80.5 203t251.5 78q115 0 192.5 -37.5t114.5 -101t37 -142.5q0 -129 -85.5 -207t-258.5 -78q-171 0 -251.5 78.5zM463 191q32 31 32 83q0 49 -32 80.5t-97 31.5t-95 -31t-30 -81q0 -52 30 -83t95 -31t97 31zM454 741l85 -145
h-131l-47 86l-47 -86h-130l85 145h185z" />
    <glyph glyph-name="otilde" unicode="&#xf5;" horiz-adv-x="736" 
d="M110.5 68.5q-80.5 78.5 -80.5 206.5q0 125 80.5 203t251.5 78q115 0 192.5 -37.5t114.5 -101t37 -142.5q0 -129 -85.5 -207t-258.5 -78q-171 0 -251.5 78.5zM463 191q32 31 32 83q0 49 -32 80.5t-97 31.5t-95 -31t-30 -81q0 -52 30 -83t95 -31t97 31zM538 706
q0 -53 -29 -86.5t-83 -33.5q-41 0 -78 29q-9 8 -19 20q-8 10 -14 14.5t-13 4.5q-9 0 -14 -7.5t-3 -18.5h-99q0 47 30 83.5t82 36.5q46 0 83 -32l15 -16q15 -19 25 -19t14 5.5t4 19.5h99z" />
    <glyph glyph-name="odieresis" unicode="&#xf6;" horiz-adv-x="736" 
d="M110.5 68.5q-80.5 78.5 -80.5 206.5q0 125 80.5 203t251.5 78q115 0 192.5 -37.5t114.5 -101t37 -142.5q0 -129 -85.5 -207t-258.5 -78q-171 0 -251.5 78.5zM463 191q32 31 32 83q0 49 -32 80.5t-97 31.5t-95 -31t-30 -81q0 -52 30 -83t95 -31t97 31zM236 615
q-19 19 -19 46q0 26 19 45t46 19q26 0 45 -19t19 -45q0 -27 -19 -46t-45 -19q-27 0 -46 19zM397 615q-19 19 -19 46q0 26 19 45t46 19q26 0 45 -19t19 -45q0 -27 -19 -46t-45 -19q-27 0 -46 19z" />
    <glyph glyph-name="divide" unicode="&#xf7;" horiz-adv-x="521" 
d="M197 498q-27 27 -27 64q0 38 27 64.5t64 26.5q38 0 64.5 -26.5t26.5 -64.5q0 -37 -26.5 -64t-64.5 -27q-37 0 -64 27zM511 243h-501v195h501v-195zM197 55q-27 27 -27 64q0 38 27 64.5t64 26.5t64 -27t27 -64t-26.5 -64t-64.5 -27q-37 0 -64 27z" />
    <glyph glyph-name="oslash" unicode="&#xf8;" horiz-adv-x="736" 
d="M647 449q59 -71 59 -174q0 -129 -85.5 -207t-258.5 -78q-77 0 -137 17l-26 -27l-159 66l46 48q-56 70 -56 181q0 125 80.5 203t251.5 78q82 0 147 -20l28 30l159 -66zM229 243l149 157h-12q-73 0 -106.5 -35t-33.5 -91q0 -16 3 -31zM474.5 181q35.5 35 35.5 93
q0 14 -3 29l-149 -157h8q73 0 108.5 35z" />
    <glyph glyph-name="ugrave" unicode="&#xf9;" horiz-adv-x="695" 
d="M648 274q0 -147 7 -274q-64 3 -101 3q-35 0 -101 -3l-29 147q-23 -80 -72 -118.5t-114 -38.5q-60 0 -104 26.5t-66.5 71.5t-22.5 101v144q0 133 -5 213h225q-6 -147 -6 -291q0 -44 21.5 -70t54.5 -26q31 0 54.5 27.5t28.5 75.5v23q2 78 2 108q0 69 -4 153h239
q-7 -126 -7 -272zM302 587l-82 155h185l24 -155h-127z" />
    <glyph glyph-name="uacute" unicode="&#xfa;" horiz-adv-x="695" 
d="M648 274q0 -147 7 -274q-64 3 -101 3q-35 0 -101 -3l-29 147q-23 -80 -72 -118.5t-114 -38.5q-60 0 -104 26.5t-66.5 71.5t-22.5 101v144q0 133 -5 213h225q-6 -147 -6 -291q0 -44 21.5 -70t54.5 -26q31 0 54.5 27.5t28.5 75.5v23q2 78 2 108q0 69 -4 153h239
q-7 -126 -7 -272zM405 585h-127l24 155h185z" />
    <glyph glyph-name="ucircumflex" unicode="&#xfb;" horiz-adv-x="695" 
d="M648 274q0 -147 7 -274q-64 3 -101 3q-35 0 -101 -3l-29 147q-23 -80 -72 -118.5t-114 -38.5q-60 0 -104 26.5t-66.5 71.5t-22.5 101v144q0 133 -5 213h225q-6 -147 -6 -291q0 -44 21.5 -70t54.5 -26q31 0 54.5 27.5t28.5 75.5v23q2 78 2 108q0 69 -4 153h239
q-7 -126 -7 -272zM440 731l85 -145h-131l-47 86l-47 -86h-130l85 145h185z" />
    <glyph glyph-name="udieresis" unicode="&#xfc;" horiz-adv-x="695" 
d="M648 274q0 -147 7 -274q-64 3 -101 3q-35 0 -101 -3l-29 147q-23 -80 -72 -118.5t-114 -38.5q-60 0 -104 26.5t-66.5 71.5t-22.5 101v144q0 133 -5 213h225q-6 -147 -6 -291q0 -44 21.5 -70t54.5 -26q31 0 54.5 27.5t28.5 75.5v23q2 78 2 108q0 69 -4 153h239
q-7 -126 -7 -272zM222 605q-19 19 -19 46q0 26 19 45t46 19q26 0 45 -19t19 -45q0 -27 -19 -46t-45 -19q-27 0 -46 19zM383 605q-19 19 -19 46q0 26 19 45t46 19q26 0 45 -19t19 -45q0 -27 -19 -46t-45 -19q-27 0 -46 19z" />
    <glyph glyph-name="yacute" unicode="&#xfd;" horiz-adv-x="698" 
d="M698 546l-23 -58q-95 -253 -199 -488q-54 -120 -156 -192.5t-256 -69.5q-19 83 -31.5 129.5t-32.5 93.5q55 -13 103 -13q78 0 124 33q-36 107 -85 230t-142 335h237q12 -50 33 -116t42 -127q6 -19 19.5 -57.5t21.5 -64.5l26 79q75 217 89 286h230zM416 585h-127l24 155
h185z" />
    <glyph glyph-name="thorn" unicode="&#xfe;" horiz-adv-x="744" 
d="M593.5 515.5q52.5 -40.5 81.5 -107t29 -141.5q0 -76 -29 -139.5t-81 -100.5t-117 -37q-160 0 -216 135l-1 -6q0 -57 4 -181q4 -122 4 -170h-226q5 157 7 369q-2 440 -9 641h226q0 -50 -4 -174q-4 -110 -4 -161l3 -12q28 64 82.5 94.5t130.5 30.5q67 0 119.5 -40.5z
M448 190q28 32 28 83q0 46 -30.5 74.5t-75.5 28.5q-23 0 -48 -10.5t-43 -34t-18 -58.5q0 -62 28 -88.5t83 -26.5q48 0 76 32z" />
    <glyph glyph-name="ydieresis" unicode="&#xff;" horiz-adv-x="698" 
d="M698 546l-23 -58q-95 -253 -199 -488q-54 -120 -156 -192.5t-256 -69.5q-19 83 -31.5 129.5t-32.5 93.5q55 -13 103 -13q78 0 124 33q-36 107 -85 230t-142 335h237q12 -50 33 -116t42 -127q6 -19 19.5 -57.5t21.5 -64.5l26 79q75 217 89 286h230zM233 605q-19 19 -19 46
q0 26 19 45t46 19q26 0 45 -19t19 -45q0 -27 -19 -46t-45 -19q-27 0 -46 19zM394 605q-19 19 -19 46q0 26 19 45t46 19q26 0 45 -19t19 -45q0 -27 -19 -46t-45 -19q-27 0 -46 19z" />
    <glyph glyph-name="Amacron" unicode="&#x100;" 
d="M671 0q-19 57 -51 143h-319l-50 -143h-251l280 726h368l282 -726h-259zM563 299q-38 105 -78 210l-24 65q-35 -91 -103 -275h205zM332 766v91h260v-91h-260z" />
    <glyph glyph-name="amacron" unicode="&#x101;" horiz-adv-x="741" 
d="M681 166q0 -34 8 -48t32 -20l-4 -94q-32 -5 -55.5 -7t-62.5 -2q-86 0 -114 38.5t-28 98.5v25q-29 -82 -84.5 -122t-141.5 -40q-100 0 -150.5 40t-50.5 119q0 65 43 102t133 51q-76 54 -152 94q60 76 137 115.5t187 39.5q154 0 228.5 -66.5t74.5 -204.5v-119zM309 363
q-39 -17 -70 -51q60 7 150 7q37 0 52 9t15 23q0 12 -15 20.5t-42 8.5q-51 0 -90 -17zM395 179.5q45 21.5 62 56.5v26q-24 -12 -53 -18.5t-70 -12.5l-36 -6q-56 -11 -56 -38q0 -29 52 -29q56 0 101 21.5zM248 596v91h260v-91h-260z" />
    <glyph glyph-name="Abreve" unicode="&#x102;" 
d="M671 0q-19 57 -51 143h-319l-50 -143h-251l280 726h368l282 -726h-259zM563 299q-38 105 -78 210l-24 65q-35 -91 -103 -275h205zM375.5 777q-39.5 21 -62.5 60t-23 91h99q0 -39 20.5 -57.5t52.5 -18.5t52.5 18.5t20.5 57.5h99q0 -52 -23 -91t-62.5 -60t-86.5 -21
t-86.5 21z" />
    <glyph glyph-name="abreve" unicode="&#x103;" horiz-adv-x="741" 
d="M681 166q0 -34 8 -48t32 -20l-4 -94q-32 -5 -55.5 -7t-62.5 -2q-86 0 -114 38.5t-28 98.5v25q-29 -82 -84.5 -122t-141.5 -40q-100 0 -150.5 40t-50.5 119q0 65 43 102t133 51q-76 54 -152 94q60 76 137 115.5t187 39.5q154 0 228.5 -66.5t74.5 -204.5v-119zM309 363
q-39 -17 -70 -51q60 7 150 7q37 0 52 9t15 23q0 12 -15 20.5t-42 8.5q-51 0 -90 -17zM395 179.5q45 21.5 62 56.5v26q-24 -12 -53 -18.5t-70 -12.5l-36 -6q-56 -11 -56 -38q0 -29 52 -29q56 0 101 21.5zM291.5 607q-39.5 21 -62.5 60t-23 91h99q0 -39 20.5 -57.5t52.5 -18.5
t52.5 18.5t20.5 57.5h99q0 -52 -23 -91t-62.5 -60t-86.5 -21t-86.5 21z" />
    <glyph glyph-name="Aogonek" unicode="&#x104;" 
d="M849 0q-15 0 -23.5 -8.5t-8.5 -23.5q0 -28 27 -68q-78 -22 -160 -55q-8 -2 -22 -8q-21 30 -21 63q0 27 15 53t44 47h-29q-19 57 -51 143h-319l-50 -143h-251l280 726h368l282 -726h-81zM563 299q-38 105 -78 210l-24 65q-35 -91 -103 -275h205z" />
    <glyph glyph-name="aogonek" unicode="&#x105;" horiz-adv-x="741" 
d="M685 -28q0 -26 27 -68q-78 -22 -160 -55q-8 -2 -22 -8q-21 30 -21 62q0 25 13 49.5t38 45.5q-62 9 -82.5 45.5t-20.5 88.5v25q-29 -82 -84.5 -122t-141.5 -40q-100 0 -150.5 40t-50.5 119q0 65 43 102t133 51q-76 54 -152 94q60 76 137 115.5t187 39.5q154 0 228.5 -66.5
t74.5 -204.5v-119q0 -34 8 -48t32 -20l-4 -94l-13 -2q-19 -6 -19 -30zM309 363q-39 -17 -70 -51q60 7 150 7q37 0 52 9t15 23q0 12 -15 20.5t-42 8.5q-51 0 -90 -17zM395 179.5q45 21.5 62 56.5v26q-24 -12 -53 -18.5t-70 -12.5l-36 -6q-56 -11 -56 -38q0 -29 52 -29
q56 0 101 21.5z" />
    <glyph glyph-name="Cacute" unicode="&#x106;" 
d="M147 86q-107 96 -107 274q0 179 107 283t333 104q316 0 423 -217q-90 -31 -211 -93q-29 56 -91.5 83t-127.5 27q-96 0 -143 -50.5t-47 -124.5q0 -80 50.5 -130.5t154.5 -50.5q83 0 132 27.5t72 87.5q82 -44 210 -99q-50 -121 -167 -169t-255 -48q-226 0 -333 96zM537 786
h-127l24 155h185z" />
    <glyph glyph-name="cacute" unicode="&#x107;" horiz-adv-x="707" 
d="M275.5 191q30.5 -31 90.5 -31q33 0 59 12.5t48 37.5q85 -33 199 -57q-33 -77 -111.5 -120t-203.5 -43q-167 0 -247 78t-80 205t80 205t247 78q125 0 203.5 -43t111.5 -120q-89 -19 -199 -57q-22 25 -48 37.5t-59 12.5q-60 0 -90.5 -31t-32.5 -82q2 -51 32.5 -82zM389 587
h-127l24 155h185z" />
    <glyph glyph-name="Cdotaccent" unicode="&#x10a;" 
d="M147 86q-107 96 -107 274q0 179 107 283t333 104q316 0 423 -217q-90 -31 -211 -93q-29 56 -91.5 83t-127.5 27q-96 0 -143 -50.5t-47 -124.5q0 -80 50.5 -130.5t154.5 -50.5q83 0 132 27.5t72 87.5q82 -44 210 -99q-50 -121 -167 -169t-255 -48q-226 0 -333 96zM434 796
q-19 19 -19 46q0 26 19 45t46 19q26 0 45 -19t19 -45q0 -27 -19 -46t-45 -19q-27 0 -46 19z" />
    <glyph glyph-name="cdotaccent" unicode="&#x10b;" horiz-adv-x="707" 
d="M275.5 191q30.5 -31 90.5 -31q33 0 59 12.5t48 37.5q85 -33 199 -57q-33 -77 -111.5 -120t-203.5 -43q-167 0 -247 78t-80 205t80 205t247 78q125 0 203.5 -43t111.5 -120q-89 -19 -199 -57q-22 25 -48 37.5t-59 12.5q-60 0 -90.5 -31t-32.5 -82q2 -51 32.5 -82zM311 606
q-19 19 -19 46q0 26 19 45t46 19q26 0 45 -19t19 -45q0 -27 -19 -46t-45 -19q-27 0 -46 19z" />
    <glyph glyph-name="Ccaron" unicode="&#x10c;" 
d="M147 86q-107 96 -107 274q0 179 107 283t333 104q316 0 423 -217q-90 -31 -211 -93q-29 56 -91.5 83t-127.5 27q-96 0 -143 -50.5t-47 -124.5q0 -80 50.5 -130.5t154.5 -50.5q83 0 132 27.5t72 87.5q82 -44 210 -99q-50 -121 -167 -169t-255 -48q-226 0 -333 96zM479 862
l51 114h108l-92 -192h-134l-91 192h107z" />
    <glyph glyph-name="ccaron" unicode="&#x10d;" horiz-adv-x="707" 
d="M275.5 191q30.5 -31 90.5 -31q33 0 59 12.5t48 37.5q85 -33 199 -57q-33 -77 -111.5 -120t-203.5 -43q-167 0 -247 78t-80 205t80 205t247 78q125 0 203.5 -43t111.5 -120q-89 -19 -199 -57q-22 25 -48 37.5t-59 12.5q-60 0 -90.5 -31t-32.5 -82q2 -51 32.5 -82zM356 672
l51 114h108l-92 -192h-134l-91 192h107z" />
    <glyph glyph-name="Dcaron" unicode="&#x10e;" horiz-adv-x="893" 
d="M657 691.5q109 -45.5 152.5 -126t43.5 -197.5q0 -111 -50 -194t-150 -128.5t-246 -45.5h-181t-186 1q8 197 8 367q0 172 -8 359q119 10 320 10q188 0 297 -45.5zM435 199q93 0 124 45t31 124q0 76 -32.5 123t-122.5 47q-97 0 -145 -6v-333h145zM446 851l51 114h108
l-92 -192h-134l-91 192h107z" />
    <glyph glyph-name="dcaron" unicode="&#x10f;" horiz-adv-x="919" 
d="M730 564l20 281h156l-69 -281h-107zM694 778q-6 -186 -6 -389q0 -201 6 -389h-226l3 120q-29 -67 -84 -98.5t-130 -31.5q-65 0 -117 37t-81 100.5t-29 139.5q0 75 29 141.5t81.5 107t119.5 40.5q78 0 133.5 -32.5t82.5 -100.5q0 57 -4 183q-4 122 -4 172h226zM442 185.5
q31 27.5 31 87.5q0 53 -31 78t-78 25q-45 0 -75.5 -28.5t-30.5 -74.5q0 -51 28 -83t76 -32q49 0 80 27.5z" />
    <glyph glyph-name="Dcroat" unicode="&#x110;" horiz-adv-x="893" 
d="M657 691.5q109 -45.5 152.5 -126t43.5 -197.5q0 -111 -50 -194t-150 -128.5t-246 -45.5h-181t-186 1q7 193 7 329h-134v156h134q-1 84 -7 241q119 10 320 10q188 0 297 -45.5zM435 199q93 0 124 45t31 124q0 76 -32.5 123t-122.5 47q-97 0 -145 -6v-46h141v-156h-141
v-131h145z" />
    <glyph glyph-name="dcroat" unicode="&#x111;" horiz-adv-x="734" 
d="M766 562h-77q-1 -57 -1 -172q0 -202 6 -390h-226l3 120q-29 -67 -84 -98.5t-130 -31.5q-65 0 -117 37t-81 100.5t-29 139.5q0 75 29 141.5t81.5 107t119.5 40.5q78 0 133.5 -32.5t82.5 -100.5q0 67 -3 139h-91v156h87q-1 21 -1 60h226l-2 -60h74v-156zM442 185.5
q31 27.5 31 87.5q0 53 -31 78t-78 25q-45 0 -75.5 -28.5t-30.5 -74.5q0 -51 28 -83t76 -32q49 0 80 27.5z" />
    <glyph glyph-name="Emacron" unicode="&#x112;" horiz-adv-x="867" 
d="M276 183q380 2 551 11q-7 -41 -8.5 -84.5t-1.5 -109.5h-777q8 194 8 363t-8 363h777v-181h-541v-96q48 -1 142 -1q159 0 329 6v-172q-170 6 -329 6q-94 0 -142 -1v-104zM304 766v91h260v-91h-260z" />
    <glyph glyph-name="emacron" unicode="&#x113;" horiz-adv-x="725" 
d="M569 250h-326q8 -44 39.5 -71.5t89.5 -27.5q42 0 79 16.5t59 46.5q67 -33 178 -71q-31 -70 -112.5 -111.5t-212.5 -41.5q-170 0 -251.5 78.5t-81.5 206.5q0 125 81 203t252 78q102 0 177 -34t115 -94.5t40 -138.5q0 -26 -2 -39h-124zM295 386q-32 -19 -45 -52h236
q-12 32 -39 51.5t-70 19.5q-50 0 -82 -19zM233 596v91h260v-91h-260z" />
    <glyph glyph-name="Edotaccent" unicode="&#x116;" horiz-adv-x="867" 
d="M276 183q380 2 551 11q-7 -41 -8.5 -84.5t-1.5 -109.5h-777q8 194 8 363t-8 363h777v-181h-541v-96q48 -1 142 -1q159 0 329 6v-172q-170 6 -329 6q-94 0 -142 -1v-104zM388 775q-19 19 -19 46q0 26 19 45t46 19q26 0 45 -19t19 -45q0 -27 -19 -46t-45 -19q-27 0 -46 19z
" />
    <glyph glyph-name="edotaccent" unicode="&#x117;" horiz-adv-x="725" 
d="M569 250h-326q8 -44 39.5 -71.5t89.5 -27.5q42 0 79 16.5t59 46.5q67 -33 178 -71q-31 -70 -112.5 -111.5t-212.5 -41.5q-170 0 -251.5 78.5t-81.5 206.5q0 125 81 203t252 78q102 0 177 -34t115 -94.5t40 -138.5q0 -26 -2 -39h-124zM295 386q-32 -19 -45 -52h236
q-12 32 -39 51.5t-70 19.5q-50 0 -82 -19zM317 605q-19 19 -19 46q0 26 19 45t46 19q26 0 45 -19t19 -45q0 -27 -19 -46t-45 -19q-27 0 -46 19z" />
    <glyph glyph-name="Eogonek" unicode="&#x118;" horiz-adv-x="867" 
d="M276 183q380 2 551 11q-7 -41 -8.5 -84.5t-1.5 -109.5h-70q-15 0 -23.5 -8.5t-8.5 -23.5q0 -28 27 -68q-78 -22 -160 -55q-8 -2 -22 -8q-21 30 -21 63q0 27 15 53t44 47h-558q8 194 8 363t-8 363h777v-181h-541v-96q48 -1 142 -1q159 0 329 6v-172q-170 6 -329 6
q-94 0 -142 -1v-104z" />
    <glyph glyph-name="eogonek" unicode="&#x119;" horiz-adv-x="725" 
d="M569 250h-326q8 -44 39.5 -71.5t89.5 -27.5q42 0 79 16.5t59 46.5q67 -33 178 -71q-26 -58 -86.5 -97t-155.5 -51q-13 -8 -13 -27q0 -26 27 -68q-78 -22 -160 -55q-8 -2 -22 -8q-21 30 -21 62q0 52 50 94q-141 13 -209 89t-68 193q0 125 81 203t252 78q102 0 177 -34
t115 -94.5t40 -138.5q0 -26 -2 -39h-124zM295 386q-32 -19 -45 -52h236q-12 32 -39 51.5t-70 19.5q-50 0 -82 -19z" />
    <glyph glyph-name="Ecaron" unicode="&#x11a;" horiz-adv-x="867" 
d="M276 183q380 2 551 11q-7 -41 -8.5 -84.5t-1.5 -109.5h-777q8 194 8 363t-8 363h777v-181h-541v-96q48 -1 142 -1q159 0 329 6v-172q-170 6 -329 6q-94 0 -142 -1v-104zM433 841l51 114h108l-92 -192h-134l-91 192h107z" />
    <glyph glyph-name="ecaron" unicode="&#x11b;" horiz-adv-x="725" 
d="M569 250h-326q8 -44 39.5 -71.5t89.5 -27.5q42 0 79 16.5t59 46.5q67 -33 178 -71q-31 -70 -112.5 -111.5t-212.5 -41.5q-170 0 -251.5 78.5t-81.5 206.5q0 125 81 203t252 78q102 0 177 -34t115 -94.5t40 -138.5q0 -26 -2 -39h-124zM295 386q-32 -19 -45 -52h236
q-12 32 -39 51.5t-70 19.5q-50 0 -82 -19zM362 671l51 114h108l-92 -192h-134l-91 192h107z" />
    <glyph glyph-name="Gbreve" unicode="&#x11e;" horiz-adv-x="919" 
d="M452 414h427v-414h-176l-21 177q-30 -95 -107 -141t-188 -46q-101 0 -179.5 45t-123 129t-44.5 196q0 179 107 283t333 104q129 0 227.5 -42t167.5 -130q-45 -23 -176 -92l-25 -14q-39 39 -91 58.5t-110 19.5q-96 0 -143 -50.5t-47 -124.5q0 -80 50.5 -129t154.5 -49
q45 0 87.5 13t71.5 45h-195v162zM373.5 798q-39.5 21 -62.5 60t-23 91h99q0 -39 20.5 -57.5t52.5 -18.5t52.5 18.5t20.5 57.5h99q0 -52 -23 -91t-62.5 -60t-86.5 -21t-86.5 21z" />
    <glyph glyph-name="gbreve" unicode="&#x11f;" horiz-adv-x="744" 
d="M512 546h192q-5 -164 -5 -466q0 -119 -47.5 -195t-125.5 -110.5t-174 -34.5q-95 0 -170 27.5t-114 73.5l45 153q54 -31 102 -44.5t100 -13.5q170 0 170 144q0 21 1 30q0 6 0.5 16t-0.5 26q-51 -142 -216 -142q-67 0 -119.5 36t-81.5 97.5t-29 135.5q0 76 29 139.5
t81 100.5t117 37q169 0 220 -119zM422 180.5q25 10.5 43 34t18 58.5q0 62 -28 88.5t-83 26.5q-48 0 -76 -32t-28 -83q0 -46 30.5 -74.5t75.5 -28.5q23 0 48 10.5zM318.5 606q-39.5 21 -62.5 60t-23 91h99q0 -39 20.5 -57.5t52.5 -18.5t52.5 18.5t20.5 57.5h99q0 -52 -23 -91
t-62.5 -60t-86.5 -21t-86.5 21z" />
    <glyph glyph-name="Gdotaccent" unicode="&#x120;" horiz-adv-x="919" 
d="M452 414h427v-414h-176l-21 177q-30 -95 -107 -141t-188 -46q-101 0 -179.5 45t-123 129t-44.5 196q0 179 107 283t333 104q129 0 227.5 -42t167.5 -130q-45 -23 -176 -92l-25 -14q-39 39 -91 58.5t-110 19.5q-96 0 -143 -50.5t-47 -124.5q0 -80 50.5 -129t154.5 -49
q45 0 87.5 13t71.5 45h-195v162zM414 796q-19 19 -19 46q0 26 19 45t46 19q26 0 45 -19t19 -45q0 -27 -19 -46t-45 -19q-27 0 -46 19z" />
    <glyph glyph-name="gdotaccent" unicode="&#x121;" horiz-adv-x="744" 
d="M512 546h192q-5 -164 -5 -466q0 -119 -47.5 -195t-125.5 -110.5t-174 -34.5q-95 0 -170 27.5t-114 73.5l45 153q54 -31 102 -44.5t100 -13.5q170 0 170 144q0 21 1 30q0 6 0.5 16t-0.5 26q-51 -142 -216 -142q-67 0 -119.5 36t-81.5 97.5t-29 135.5q0 76 29 139.5
t81 100.5t117 37q169 0 220 -119zM422 180.5q25 10.5 43 34t18 58.5q0 62 -28 88.5t-83 26.5q-48 0 -76 -32t-28 -83q0 -46 30.5 -74.5t75.5 -28.5q23 0 48 10.5zM359 604q-19 19 -19 46q0 26 19 45t46 19q26 0 45 -19t19 -45q0 -27 -19 -46t-45 -19q-27 0 -46 19z" />
    <glyph glyph-name="uni0122" unicode="&#x122;" horiz-adv-x="919" 
d="M452 414h427v-414h-176l-21 177q-30 -95 -107 -141t-188 -46q-101 0 -179.5 45t-123 129t-44.5 196q0 179 107 283t333 104q129 0 227.5 -42t167.5 -130q-45 -23 -176 -92l-25 -14q-39 39 -91 58.5t-110 19.5q-96 0 -143 -50.5t-47 -124.5q0 -80 50.5 -129t154.5 -49
q45 0 87.5 13t71.5 45h-195v162zM482 -195h-127l24 155h185z" />
    <glyph glyph-name="uni0123" unicode="&#x123;" horiz-adv-x="744" 
d="M512 546h192q-5 -164 -5 -466q0 -119 -47.5 -195t-125.5 -110.5t-174 -34.5q-95 0 -170 27.5t-114 73.5l45 153q54 -31 102 -44.5t100 -13.5q170 0 170 144q0 21 1 30q0 6 0.5 16t-0.5 26q-51 -142 -216 -142q-67 0 -119.5 36t-81.5 97.5t-29 135.5q0 76 29 139.5
t81 100.5t117 37q169 0 220 -119zM422 180.5q25 10.5 43 34t18 58.5q0 62 -28 88.5t-83 26.5q-48 0 -76 -32t-28 -83q0 -46 30.5 -74.5t75.5 -28.5q23 0 48 10.5zM437 585h-127l24 155h185z" />
    <glyph glyph-name="Hbar" unicode="&#x126;" horiz-adv-x="918" 
d="M924 512h-52q-1 -51 -1 -154q0 -190 7 -358h-235v272h-368v-272h-235q7 168 7 358q0 103 -1 154h-50v182h45l-1 32h235v-32h368v32h235l-1 -32h47v-182zM275 454h368v58h-368v-58z" />
    <glyph glyph-name="hbar" unicode="&#x127;" horiz-adv-x="695" 
d="M430 0q6 147 6 271q0 44 -21.5 70t-54.5 26q-35 0 -59.5 -34t-24.5 -93l-1 2q0 -163 4 -242h-239q7 123 7 382q0 127 -1 186h-65v156h62l-3 56h238v-56h67v-156h-66v-96l-1 -53q24 70 71.5 103.5t107.5 33.5t104 -26.5t66.5 -71.5t22.5 -101v-144q0 -133 5 -213h-225z
" />
    <glyph glyph-name="Itilde" unicode="&#x128;" horiz-adv-x="661" 
d="M621 527q-119 6 -176 7v-342q58 1 176 7v-199h-581v199q115 -6 175 -7v342q-60 -1 -175 -7v199h581v-199zM507 881q0 -53 -29 -86.5t-83 -33.5q-41 0 -78 29q-9 8 -19 20q-8 10 -14 14.5t-13 4.5q-9 0 -14 -7.5t-3 -18.5h-99q0 47 30 83.5t82 36.5q46 0 83 -32l15 -16
q15 -19 25 -19t14 5.5t4 19.5h99z" />
    <glyph glyph-name="itilde" unicode="&#x129;" horiz-adv-x="340" 
d="M51 0q7 161 7 266q0 125 -8 280h240q-8 -149 -8 -280q0 -110 7 -266h-238zM346 690q0 -53 -29 -86.5t-83 -33.5q-41 0 -78 29q-9 8 -19 20q-8 10 -14 14.5t-13 4.5q-9 0 -14 -7.5t-3 -18.5h-99q0 47 30 83.5t82 36.5q46 0 83 -32l15 -16q15 -19 25 -19t14 5.5t4 19.5h99z
" />
    <glyph glyph-name="Imacron" unicode="&#x12a;" horiz-adv-x="661" 
d="M621 527q-119 6 -176 7v-342q58 1 176 7v-199h-581v199q115 -6 175 -7v342q-60 -1 -175 -7v199h581v-199zM201 771v91h260v-91h-260z" />
    <glyph glyph-name="imacron" unicode="&#x12b;" horiz-adv-x="340" 
d="M51 0q7 161 7 266q0 125 -8 280h240q-8 -149 -8 -280q0 -110 7 -266h-238zM40 586v91h260v-91h-260z" />
    <glyph glyph-name="Iogonek" unicode="&#x12e;" horiz-adv-x="661" 
d="M621 527q-119 6 -176 7v-342q58 1 176 7v-199h-1q-15 0 -23.5 -8.5t-8.5 -23.5q0 -28 27 -68q-78 -22 -160 -55q-8 -2 -22 -8q-21 30 -21 63q0 27 15 53t44 47h-431v199q115 -6 175 -7v342q-60 -1 -175 -7v199h581v-199z" />
    <glyph glyph-name="iogonek" unicode="&#x12f;" horiz-adv-x="348" 
d="M80.5 636q-30.5 31 -30.5 81q0 49 30.5 81t93.5 32q60 0 92 -32.5t32 -80.5q0 -50 -31 -81t-93 -31q-63 0 -93.5 31zM297 546q-8 -149 -8 -280q0 -110 7 -266q-15 0 -23.5 -8.5t-8.5 -23.5q0 -28 27 -68q-78 -22 -160 -55q-8 -2 -22 -8q-21 30 -21 63q0 27 15 53t44 47
h-89q7 161 7 266q0 125 -8 280h240z" />
    <glyph glyph-name="Idotaccent" unicode="&#x130;" horiz-adv-x="661" 
d="M621 527q-119 6 -176 7v-342q58 1 176 7v-199h-581v199q115 -6 175 -7v342q-60 -1 -175 -7v199h581v-199zM285 780q-19 19 -19 46q0 26 19 45t46 19q26 0 45 -19t19 -45q0 -27 -19 -46t-45 -19q-27 0 -46 19z" />
    <glyph glyph-name="dotlessi" unicode="&#x131;" horiz-adv-x="340" 
d="M51 0q7 161 7 266q0 125 -8 280h240q-8 -149 -8 -280q0 -110 7 -266h-238z" />
    <glyph glyph-name="uni0136" unicode="&#x136;" horiz-adv-x="916" 
d="M562 0q-47 85 -156 260l-117 -116v-144h-249q8 194 8 363t-8 363h249v-293q184 182 262 293h324l-315 -312q70 -98 157.5 -213t158.5 -201h-314zM440 -145h-127l24 155h185z" />
    <glyph glyph-name="uni0137" unicode="&#x137;" horiz-adv-x="746" 
d="M746 547l-248 -226q127 -180 237 -321h-265l-51 82q-50 83 -66 108l-83 -76v-114h-230q8 190 8 385q0 196 -8 393h230v-424q97 99 183 193h293zM398 -188h-127l24 155h185z" />
    <glyph glyph-name="Lacute" unicode="&#x139;" horiz-adv-x="804" 
d="M284 202q290 2 480 10q-13 -51 -16 -98t-3 -114h-705q8 194 8 363t-8 363h244v-524zM227 761h-127l24 155h185z" />
    <glyph glyph-name="lacute" unicode="&#x13a;" horiz-adv-x="316" 
d="M274 216q0 -149 2 -216h-236l1 113q2 186 2 287q0 96 -2 272l-1 108h236q-2 -142 -2 -232q0 -100 1 -148q-1 -60 -1 -184zM215 819h-127l24 155h185z" />
    <glyph glyph-name="uni013B" unicode="&#x13b;" horiz-adv-x="804" 
d="M284 202q290 2 480 10q-13 -51 -16 -98t-3 -114h-705q8 194 8 363t-8 363h244v-524zM454 -220h-127l24 155h185z" />
    <glyph glyph-name="uni013C" unicode="&#x13c;" horiz-adv-x="316" 
d="M274 216q0 -149 2 -216h-236l1 113q2 186 2 287q0 96 -2 272l-1 108h236q-2 -142 -2 -232q0 -100 1 -148q-1 -60 -1 -184zM180 -185h-127l24 155h185z" />
    <glyph glyph-name="Lcaron" unicode="&#x13d;" horiz-adv-x="804" 
d="M284 202q290 2 480 10q-13 -51 -16 -98t-3 -114h-705q8 194 8 363t-8 363h244v-524zM681.5 698.5q30.5 -34.5 30.5 -95.5q0 -50 -17.5 -105t-48.5 -89h-85q42 57 53 112q-52 0 -83 31t-31 75t31 75t75 31q45 0 75.5 -34.5z" />
    <glyph glyph-name="lcaron" unicode="&#x13e;" horiz-adv-x="495" 
d="M413 565h-107l20 281h156zM274 216q0 -149 2 -216h-236l1 113q2 186 2 287q0 96 -2 272l-1 108h236q-2 -142 -2 -232q0 -100 1 -148q-1 -60 -1 -184z" />
    <glyph glyph-name="Lslash" unicode="&#x141;" horiz-adv-x="850" 
d="M330 202q290 2 480 10q-13 -51 -16 -98t-3 -114h-705q5 131 7 294l-83 -26v227l82 25q-1 102 -6 206h244v-132l287 89v-227l-287 -89v-165z" />
    <glyph glyph-name="lslash" unicode="&#x142;" horiz-adv-x="382" 
d="M362 420l-59 -25q-1 -59 -1 -182q0 -147 2 -213h-236l3 297l-61 -26v220l61 26l-3 263h236q-2 -102 -2 -165l60 25v-220z" />
    <glyph glyph-name="Nacute" unicode="&#x143;" horiz-adv-x="919" 
d="M879 725q-7 -169 -7 -362q0 -194 7 -363h-358l-242 546l18 -546h-257q8 194 8 363q0 168 -8 362h368l243 -561l-17 561h245zM517 761h-127l24 155h185z" />
    <glyph glyph-name="nacute" unicode="&#x144;" horiz-adv-x="695" 
d="M430 0q6 147 6 271q0 44 -21.5 70t-54.5 26t-56 -29.5t-27 -80.5q-2 -76 -2 -108q0 -68 4 -149h-239q8 144 8 272t-8 274q66 -3 101 -3q37 0 101 3l29 -147q23 80 72 118.5t114 38.5q60 0 104 -26.5t66.5 -71.5t22.5 -101v-144q0 -133 5 -213h-225zM390 583h-127l24 155
h185z" />
    <glyph glyph-name="uni0145" unicode="&#x145;" horiz-adv-x="919" 
d="M879 725q-7 -169 -7 -362q0 -194 7 -363h-358l-242 546l18 -546h-257q8 194 8 363q0 168 -8 362h368l243 -561l-17 561h245zM482 -225h-127l24 155h185z" />
    <glyph glyph-name="uni0146" unicode="&#x146;" horiz-adv-x="695" 
d="M430 0q6 147 6 271q0 44 -21.5 70t-54.5 26t-56 -29.5t-27 -80.5q-2 -76 -2 -108q0 -68 4 -149h-239q8 144 8 272t-8 274q66 -3 101 -3q37 0 101 3l29 -147q23 80 72 118.5t114 38.5q60 0 104 -26.5t66.5 -71.5t22.5 -101v-144q0 -133 5 -213h-225zM370 -185h-127l24 155
h185z" />
    <glyph glyph-name="Ncaron" unicode="&#x147;" horiz-adv-x="919" 
d="M879 725q-7 -169 -7 -362q0 -194 7 -363h-358l-242 546l18 -546h-257q8 194 8 363q0 168 -8 362h368l243 -561l-17 561h245zM459 837l51 114h108l-92 -192h-134l-91 192h107z" />
    <glyph glyph-name="ncaron" unicode="&#x148;" horiz-adv-x="695" 
d="M430 0q6 147 6 271q0 44 -21.5 70t-54.5 26t-56 -29.5t-27 -80.5q-2 -76 -2 -108q0 -68 4 -149h-239q8 144 8 272t-8 274q66 -3 101 -3q37 0 101 3l29 -147q23 80 72 118.5t114 38.5q60 0 104 -26.5t66.5 -71.5t22.5 -101v-144q0 -133 5 -213h-225zM357 668l51 114h108
l-92 -192h-134l-91 192h107z" />
    <glyph glyph-name="Eng" unicode="&#x14a;" horiz-adv-x="919" 
d="M879 725q-9 -207 -9 -524v-141q0 -102 -48 -174.5t-127.5 -109t-172.5 -36.5q-95 0 -166.5 27.5t-101.5 73.5l45 153q45 -30 89.5 -44t96.5 -14q113 0 151 64h-115l-242 546l18 -546h-257q8 194 8 363q0 168 -8 362h368l243 -561l-17 561h245z" />
    <glyph glyph-name="eng" unicode="&#x14b;" horiz-adv-x="696" 
d="M567 529.5q44 -26.5 66.5 -71.5t22.5 -101q0 -100 -2 -208q-1 -35 -1 -87q0 -162 -90 -242t-255 -80q-95 0 -166.5 27.5t-101.5 73.5l45 153q45 -30 89.5 -44t96.5 -14q147 0 167 106q4 104 4 229q0 44 -21.5 70t-54.5 26t-56 -29.5t-27 -80.5q-2 -76 -2 -108
q0 -68 4 -149h-239q8 144 8 272t-8 274q66 -3 101 -3q36 0 101 3l29 -147q23 80 72 118.5t114 38.5q60 0 104 -26.5z" />
    <glyph glyph-name="Omacron" unicode="&#x14c;" horiz-adv-x="971" 
d="M148 89.5q-108 99.5 -108 279.5q0 178 107.5 278t337.5 100q231 0 338.5 -100t107.5 -278q0 -181 -107 -280t-339 -99q-229 0 -337 99.5zM645 236.5q49 42.5 49 132.5q0 88 -49 131t-160 43q-110 0 -159 -43t-49 -131q0 -89 49 -132t159 -43q111 0 160 42.5zM355 787v91
h260v-91h-260z" />
    <glyph glyph-name="omacron" unicode="&#x14d;" horiz-adv-x="736" 
d="M110.5 68.5q-80.5 78.5 -80.5 206.5q0 125 80.5 203t251.5 78q115 0 192.5 -37.5t114.5 -101t37 -142.5q0 -129 -85.5 -207t-258.5 -78q-171 0 -251.5 78.5zM463 191q32 31 32 83q0 49 -32 80.5t-97 31.5t-95 -31t-30 -81q0 -52 30 -83t95 -31t97 31zM232 596v91h260v-91
h-260z" />
    <glyph glyph-name="Ohungarumlaut" unicode="&#x150;" horiz-adv-x="971" 
d="M148 89.5q-108 99.5 -108 279.5q0 178 107.5 278t337.5 100q231 0 338.5 -100t107.5 -278q0 -181 -107 -280t-339 -99q-229 0 -337 99.5zM645 236.5q49 42.5 49 132.5q0 88 -49 131t-160 43q-110 0 -159 -43t-49 -131q0 -89 49 -132t159 -43q111 0 160 42.5zM455 788
h-101l20 155h146zM629 786h-101l20 155h146z" />
    <glyph glyph-name="ohungarumlaut" unicode="&#x151;" horiz-adv-x="736" 
d="M110.5 68.5q-80.5 78.5 -80.5 206.5q0 125 80.5 203t251.5 78q115 0 192.5 -37.5t114.5 -101t37 -142.5q0 -129 -85.5 -207t-258.5 -78q-171 0 -251.5 78.5zM463 191q32 31 32 83q0 49 -32 80.5t-97 31.5t-95 -31t-30 -81q0 -52 30 -83t95 -31t97 31zM332 597h-101
l20 155h146zM506 595h-101l20 155h146z" />
    <glyph glyph-name="OE" unicode="&#x152;" horiz-adv-x="1364" 
d="M916 183q281 2 408 11q-5 -41 -6.5 -84.5t-1.5 -109.5h-636l4 99q-40 -55 -110.5 -82t-178.5 -27q-173 0 -264 101.5t-91 277.5q0 175 90 276.5t265 101.5q204 0 289 -124l-4 103h636v-181h-400v-96q33 -1 94 -1q127 0 255 6v-172q-128 6 -255 6q-61 0 -94 -1v-104z
M637 237q47 43 47 132q0 87 -47 130.5t-151 43.5q-97 0 -147.5 -44t-50.5 -130q0 -87 50.5 -131t147.5 -44q104 0 151 43z" />
    <glyph glyph-name="oe" unicode="&#x153;" horiz-adv-x="1193" 
d="M1037 250h-326q8 -44 39.5 -71.5t89.5 -27.5q42 0 79 16.5t59 46.5q67 -33 178 -71q-31 -70 -112.5 -111.5t-212.5 -41.5q-147 0 -231 62q-89 -62 -238 -62q-171 0 -251.5 78.5t-80.5 206.5q0 125 80.5 203t251.5 78q146 0 236 -62q84 62 233 62q102 0 177 -34t115 -94.5
t40 -138.5q0 -26 -2 -39h-124zM763 386q-32 -19 -45 -52h236q-12 32 -39 51.5t-70 19.5q-50 0 -82 -19zM463 191q32 31 32 83q0 49 -32 80.5t-97 31.5t-95 -31t-30 -81q0 -52 30 -83t95 -31t97 31z" />
    <glyph glyph-name="Racute" unicode="&#x154;" horiz-adv-x="883" 
d="M800.5 337q-42.5 -60 -145.5 -87q12 -16 17 -25l162 -225h-272q-44 82 -139 232h-147v-232h-236q8 194 8 363t-8 363h236v-1h205q202 0 282 -65t80 -176q0 -87 -42.5 -147zM276 533v-114h135q85 0 128.5 5.5t60.5 17.5t17 35q0 22 -16 34t-60 17t-130 5h-135zM479 765
h-127l24 155h185z" />
    <glyph glyph-name="racute" unicode="&#x155;" horiz-adv-x="577" 
d="M272 398q42 151 209 151q29 0 56 -4l-32 -224q-72 27 -118 27q-57 0 -84 -34t-27 -91v1l-1 -66q0 -71 4 -158h-239q8 144 8 272t-8 274q66 -3 101 -3q37 0 101 3zM321 576h-127l24 155h185z" />
    <glyph glyph-name="uni0156" unicode="&#x156;" horiz-adv-x="883" 
d="M800.5 337q-42.5 -60 -145.5 -87q12 -16 17 -25l162 -225h-272q-44 82 -139 232h-147v-232h-236q8 194 8 363t-8 363h236v-1h205q202 0 282 -65t80 -176q0 -87 -42.5 -147zM276 533v-114h135q85 0 128.5 5.5t60.5 17.5t17 35q0 22 -16 34t-60 17t-130 5h-135zM434 -145
h-127l24 155h185z" />
    <glyph glyph-name="uni0157" unicode="&#x157;" horiz-adv-x="577" 
d="M272 398q42 151 209 151q29 0 56 -4l-32 -224q-72 27 -118 27q-57 0 -84 -34t-27 -91v1l-1 -66q0 -71 4 -158h-239q8 144 8 272t-8 274q66 -3 101 -3q37 0 101 3zM174 -185h-127l24 155h185z" />
    <glyph glyph-name="Rcaron" unicode="&#x158;" horiz-adv-x="883" 
d="M800.5 337q-42.5 -60 -145.5 -87q12 -16 17 -25l162 -225h-272q-44 82 -139 232h-147v-232h-236q8 194 8 363t-8 363h236v-1h205q202 0 282 -65t80 -176q0 -87 -42.5 -147zM276 533v-114h135q85 0 128.5 5.5t60.5 17.5t17 35q0 22 -16 34t-60 17t-130 5h-135zM421 841
l51 114h108l-92 -192h-134l-91 192h107z" />
    <glyph glyph-name="rcaron" unicode="&#x159;" horiz-adv-x="577" 
d="M272 398q42 151 209 151q29 0 56 -4l-32 -224q-72 27 -118 27q-57 0 -84 -34t-27 -91v1l-1 -66q0 -71 4 -158h-239q8 144 8 272t-8 274q66 -3 101 -3q37 0 101 3zM288 661l51 114h108l-92 -192h-134l-91 192h107z" />
    <glyph glyph-name="Sacute" unicode="&#x15a;" horiz-adv-x="924" 
d="M96.5 181q22.5 44 43.5 102q71 -41 165 -64t175 -23q83 0 117 14.5t34 31.5q0 61 -186 61q-204 0 -296 42.5t-92 137.5q0 135 112 199t291 64q104 0 213.5 -26.5t197.5 -72.5q-29 -66 -61 -161q-6 -20 -10 -30q-51 41 -154 68.5t-182 27.5q-95 0 -128 -12.5t-33 -36.5
t45.5 -38.5t131.5 -14.5q212 0 308 -48.5t96 -148.5q0 -140 -102 -201.5t-309 -61.5q-111 0 -226 24.5t-207 71.5q34 51 56.5 95zM517 785h-127l24 155h185z" />
    <glyph glyph-name="sacute" unicode="&#x15b;" horiz-adv-x="709" 
d="M192.5 13.5q-86.5 23.5 -162.5 71.5l105 143q46 -33 111 -51.5t112 -18.5q45 0 69.5 12.5t24.5 32.5q0 16 -12 25t-33 9q-13 0 -29.5 -1t-26.5 -2q-52 -6 -107 -6q-89 0 -144.5 33.5t-55.5 109.5q0 88 83 136.5t244 48.5q79 0 159.5 -22.5t142.5 -67.5l-115 -116
q-57 30 -106.5 42.5t-99.5 12.5q-35 0 -60 -14t-25 -32q0 -14 10.5 -22t27.5 -8t47 3q73 5 109 5q104 0 161 -35t57 -107q0 -108 -84 -156.5t-232 -48.5q-84 0 -170.5 23.5zM403 586h-127l24 155h185z" />
    <glyph glyph-name="Scedilla" unicode="&#x15e;" horiz-adv-x="924" 
d="M792.5 58q-91.5 -62 -276.5 -67l-21 -57q36 -12 59.5 -37t23.5 -64q0 -55 -45 -88t-135 -33q-24 0 -53 3v84q49 -2 72.5 6.5t23.5 33.5q0 16 -22 26t-65 10l42 118q-95 7 -187.5 30.5t-168.5 62.5q34 51 56.5 95t43.5 102q71 -41 165 -64t175 -23q83 0 117 14.5t34 31.5
q0 61 -186 61q-204 0 -296 42.5t-92 137.5q0 135 112 199t291 64q104 0 213.5 -26.5t197.5 -72.5q-29 -66 -61 -161q-6 -20 -10 -30q-51 41 -154 68.5t-182 27.5q-95 0 -128 -12.5t-33 -36.5t45.5 -38.5t131.5 -14.5q212 0 308 -48.5t96 -148.5q0 -133 -91.5 -195z" />
    <glyph glyph-name="scedilla" unicode="&#x15f;" horiz-adv-x="709" 
d="M409 -9l-13 -36q36 -12 59.5 -37t23.5 -64q0 -55 -45 -88t-135 -33q-24 0 -53 3v84q49 -2 72.5 6.5t23.5 33.5q0 16 -22 26t-65 10l35 98q-143 17 -260 91l105 143q46 -33 111 -51.5t112 -18.5q45 0 69.5 12.5t24.5 32.5q0 16 -12 25t-33 9q-13 0 -29.5 -1t-26.5 -2
q-52 -6 -107 -6q-89 0 -144.5 33.5t-55.5 109.5q0 88 83 136.5t244 48.5q79 0 159.5 -22.5t142.5 -67.5l-115 -116q-57 30 -106.5 42.5t-99.5 12.5q-35 0 -60 -14t-25 -32q0 -14 10.5 -22t27.5 -8t47 3q73 5 109 5q104 0 161 -35t57 -107q0 -189 -270 -204z" />
    <glyph glyph-name="Scaron" unicode="&#x160;" horiz-adv-x="924" 
d="M96.5 181q22.5 44 43.5 102q71 -41 165 -64t175 -23q83 0 117 14.5t34 31.5q0 61 -186 61q-204 0 -296 42.5t-92 137.5q0 135 112 199t291 64q104 0 213.5 -26.5t197.5 -72.5q-29 -66 -61 -161q-6 -20 -10 -30q-51 41 -154 68.5t-182 27.5q-95 0 -128 -12.5t-33 -36.5
t45.5 -38.5t131.5 -14.5q212 0 308 -48.5t96 -148.5q0 -140 -102 -201.5t-309 -61.5q-111 0 -226 24.5t-207 71.5q34 51 56.5 95zM459 861l51 114h108l-92 -192h-134l-91 192h107z" />
    <glyph glyph-name="scaron" unicode="&#x161;" horiz-adv-x="709" 
d="M192.5 13.5q-86.5 23.5 -162.5 71.5l105 143q46 -33 111 -51.5t112 -18.5q45 0 69.5 12.5t24.5 32.5q0 16 -12 25t-33 9q-13 0 -29.5 -1t-26.5 -2q-52 -6 -107 -6q-89 0 -144.5 33.5t-55.5 109.5q0 88 83 136.5t244 48.5q79 0 159.5 -22.5t142.5 -67.5l-115 -116
q-57 30 -106.5 42.5t-99.5 12.5q-35 0 -60 -14t-25 -32q0 -14 10.5 -22t27.5 -8t47 3q73 5 109 5q104 0 161 -35t57 -107q0 -108 -84 -156.5t-232 -48.5q-84 0 -170.5 23.5zM370 671l51 114h108l-92 -192h-134l-91 192h107z" />
    <glyph glyph-name="uni0162" unicode="&#x162;" horiz-adv-x="939" 
d="M899 516q-157 5 -305 6v-522h-82l-9 -25q36 -12 59.5 -37t23.5 -64q0 -55 -45 -88t-135 -33q-24 0 -53 3v84q49 -2 72.5 6.5t23.5 33.5q0 16 -22 26t-65 10l30 84h-48v522q-149 -1 -304 -6v210h859v-210z" />
    <glyph glyph-name="uni0163" unicode="&#x163;" horiz-adv-x="513" 
d="M493 367q-92 6 -168 9l-1 -106q0 -54 23.5 -84.5t83.5 -30.5q23 0 44 4q-4 -37 -4 -75q0 -18 2 -82q-42 -7 -71 -9.5t-69 -2.5l-13 -35q36 -12 59.5 -37t23.5 -64q0 -55 -45 -88t-135 -33q-25 0 -53 3v84q49 -2 72.5 6.5t23.5 33.5q0 16 -22 26t-65 10l40 110
q-60 22 -86 72.5t-26 125.5l1 169q-47 -2 -98 -6v177q52 0 88 33t43 79h272q-51 -70 -113 -112h193v-177z" />
    <glyph glyph-name="Tcaron" unicode="&#x164;" horiz-adv-x="939" 
d="M899 516q-157 5 -305 6v-522h-250v522q-149 -1 -304 -6v210h859v-210zM469 841l51 114h108l-92 -192h-134l-91 192h107z" />
    <glyph glyph-name="tcaron" unicode="&#x165;" horiz-adv-x="506" 
d="M388 775h156l-69 -195h-107zM353 656q-44 -71 -93 -112h233v-177q-92 6 -168 9l-1 -106q0 -54 23.5 -84.5t83.5 -30.5q23 0 44 4q-4 -37 -4 -75q0 -18 2 -82q-44 -8 -74 -10t-78 -2q-117 0 -165.5 56.5t-48.5 157.5l1 169q-47 -2 -98 -6v177q28 0 47.5 33t23.5 79h272z
" />
    <glyph glyph-name="Tbar" unicode="&#x166;" horiz-adv-x="939" 
d="M899 516q-157 5 -305 6v-57h135v-156h-135v-309h-250v309h-133v156h133v57q-149 -1 -304 -6v210h859v-210z" />
    <glyph glyph-name="tbar" unicode="&#x167;" horiz-adv-x="513" 
d="M516 351v-156h-198q7 -22 27.5 -30.5t62.5 -8.5q28 0 67 3q-4 -37 -4 -75q0 -18 2 -82q-44 -8 -74 -10t-78 -2q-114 0 -163 54t-51 151h-109v156h110v34q-47 -2 -98 -6v165q52 0 88 33t43 79h272q-51 -70 -113 -112h193v-165q-97 8 -178 9v-37h201z" />
    <glyph glyph-name="Utilde" unicode="&#x168;" horiz-adv-x="920" 
d="M632 727h248v-398q-2 -147 -100.5 -243t-331.5 -96q-236 0 -323 91.5t-85 240.5v405h248v-389q0 -44 6.5 -71.5t42 -51.5t114.5 -24q86 0 126 24.5t47.5 54.5t7.5 77v380zM636 877q0 -53 -29 -86.5t-83 -33.5q-41 0 -78 29q-9 8 -19 20q-8 10 -14 14.5t-13 4.5
q-9 0 -14 -7.5t-3 -18.5h-99q0 47 30 83.5t82 36.5q46 0 83 -32l15 -16q15 -19 25 -19t14 5.5t4 19.5h99z" />
    <glyph glyph-name="utilde" unicode="&#x169;" horiz-adv-x="695" 
d="M648 274q0 -147 7 -274q-64 3 -101 3q-35 0 -101 -3l-29 147q-23 -80 -72 -118.5t-114 -38.5q-60 0 -104 26.5t-66.5 71.5t-22.5 101v144q0 133 -5 213h225q-6 -147 -6 -291q0 -44 21.5 -70t54.5 -26q31 0 54.5 27.5t28.5 75.5v23q2 78 2 108q0 69 -4 153h239
q-7 -126 -7 -272zM524 696q0 -53 -29 -86.5t-83 -33.5q-41 0 -78 29q-9 8 -19 20q-8 10 -14 14.5t-13 4.5q-9 0 -14 -7.5t-3 -18.5h-99q0 47 30 83.5t82 36.5q46 0 83 -32l15 -16q15 -19 25 -19t14 5.5t4 19.5h99z" />
    <glyph glyph-name="Umacron" unicode="&#x16a;" horiz-adv-x="920" 
d="M632 727h248v-398q-2 -147 -100.5 -243t-331.5 -96q-236 0 -323 91.5t-85 240.5v405h248v-389q0 -44 6.5 -71.5t42 -51.5t114.5 -24q86 0 126 24.5t47.5 54.5t7.5 77v380zM330 767v91h260v-91h-260z" />
    <glyph glyph-name="umacron" unicode="&#x16b;" horiz-adv-x="695" 
d="M648 274q0 -147 7 -274q-64 3 -101 3q-35 0 -101 -3l-29 147q-23 -80 -72 -118.5t-114 -38.5q-60 0 -104 26.5t-66.5 71.5t-22.5 101v144q0 133 -5 213h225q-6 -147 -6 -291q0 -44 21.5 -70t54.5 -26q31 0 54.5 27.5t28.5 75.5v23q2 78 2 108q0 69 -4 153h239
q-7 -126 -7 -272zM218 586v91h260v-91h-260z" />
    <glyph glyph-name="Uring" unicode="&#x16e;" horiz-adv-x="920" 
d="M632 727h248v-398q-2 -147 -100.5 -243t-331.5 -96q-236 0 -323 91.5t-85 240.5v405h248v-389q0 -44 6.5 -71.5t42 -51.5t114.5 -24q86 0 126 24.5t47.5 54.5t7.5 77v380zM376 782q-35 35 -35 84t35 84t84 35t84 -35t35 -84t-35 -84t-84 -35t-84 35zM490 836q13 13 13 30
t-13 30t-30 13t-30 -13t-13 -30t13 -30t30 -13t30 13z" />
    <glyph glyph-name="uring" unicode="&#x16f;" horiz-adv-x="695" 
d="M648 274q0 -147 7 -274q-64 3 -101 3q-35 0 -101 -3l-29 147q-23 -80 -72 -118.5t-114 -38.5q-60 0 -104 26.5t-66.5 71.5t-22.5 101v144q0 133 -5 213h225q-6 -147 -6 -291q0 -44 21.5 -70t54.5 -26q31 0 54.5 27.5t28.5 75.5v23q2 78 2 108q0 69 -4 153h239
q-7 -126 -7 -272zM264 601q-35 35 -35 84t35 84t84 35t84 -35t35 -84t-35 -84t-84 -35t-84 35zM378 655q13 13 13 30t-13 30t-30 13t-30 -13t-13 -30t13 -30t30 -13t30 13z" />
    <glyph glyph-name="Uhungarumlaut" unicode="&#x170;" horiz-adv-x="920" 
d="M632 727h248v-398q-2 -147 -100.5 -243t-331.5 -96q-236 0 -323 91.5t-85 240.5v405h248v-389q0 -44 6.5 -71.5t42 -51.5t114.5 -24q86 0 126 24.5t47.5 54.5t7.5 77v380zM430 768h-101l20 155h146zM604 766h-101l20 155h146z" />
    <glyph glyph-name="uhungarumlaut" unicode="&#x171;" horiz-adv-x="695" 
d="M648 274q0 -147 7 -274q-64 3 -101 3q-35 0 -101 -3l-29 147q-23 -80 -72 -118.5t-114 -38.5q-60 0 -104 26.5t-66.5 71.5t-22.5 101v144q0 133 -5 213h225q-6 -147 -6 -291q0 -44 21.5 -70t54.5 -26q31 0 54.5 27.5t28.5 75.5v23q2 78 2 108q0 69 -4 153h239
q-7 -126 -7 -272zM318 587h-101l20 155h146zM492 585h-101l20 155h146z" />
    <glyph glyph-name="Uogonek" unicode="&#x172;" horiz-adv-x="920" 
d="M632 727h248v-398q-2 -125 -73 -214.5t-235 -115.5l1 -1q-15 0 -23.5 -8.5t-8.5 -23.5q0 -28 27 -68q-78 -22 -160 -55q-8 -2 -22 -8q-21 30 -21 62q0 52 50 94q-216 7 -296.5 97.5t-78.5 233.5v405h248v-389q0 -44 6.5 -71.5t42 -51.5t114.5 -24q86 0 126 24.5
t47.5 54.5t7.5 77v380z" />
    <glyph glyph-name="uogonek" unicode="&#x173;" horiz-adv-x="695" 
d="M631.5 -8.5q-8.5 -8.5 -8.5 -23.5q0 -28 27 -68q-78 -22 -160 -55q-8 -2 -22 -8q-21 28 -21 62q0 28 16 55t47 48q-13 0 -57 -2l-29 147q-23 -80 -72 -118.5t-114 -38.5q-60 0 -104 26.5t-66.5 71.5t-22.5 101v144q0 133 -5 213h225q-6 -147 -6 -291q0 -44 21.5 -70
t54.5 -26q31 0 54.5 27.5t28.5 75.5v23q2 78 2 108q0 69 -4 153h239q-7 -126 -7 -272q0 -147 7 -274q-15 0 -23.5 -8.5z" />
    <glyph glyph-name="Wcircumflex" unicode="&#x174;" horiz-adv-x="1096" 
d="M760 273l52 453h244l-134 -726h-307l-68 405l-79 -405h-294l-134 726h244l51 -447l80 447h267zM640 907l85 -145h-131l-47 86l-47 -86h-130l85 145h185z" />
    <glyph glyph-name="wcircumflex" unicode="&#x175;" horiz-adv-x="880" 
d="M595 154l86 392h199l-111 -546h-267l-63 255l-71 -255h-257l-111 546h199l85 -391l58 391h197zM532 731l85 -145h-131l-47 86l-47 -86h-130l85 145h185z" />
    <glyph glyph-name="Ycircumflex" unicode="&#x176;" 
d="M930 726l-19 -29q-107 -166 -183.5 -293.5t-127.5 -234.5v-169h-261v186q-37 75 -87 154.5t-142 218.5q-72 106 -110 167h280q30 -61 98 -181q68 -122 93 -172q35 73 94 179q69 124 93 174h272zM564 911l85 -145h-131l-47 86l-47 -86h-130l85 145h185z" />
    <glyph glyph-name="ycircumflex" unicode="&#x177;" horiz-adv-x="698" 
d="M698 546l-23 -58q-95 -253 -199 -488q-54 -120 -156 -192.5t-256 -69.5q-19 83 -31.5 129.5t-32.5 93.5q55 -13 103 -13q78 0 124 33q-36 107 -85 230t-142 335h237q12 -50 33 -116t42 -127q6 -19 19.5 -57.5t21.5 -64.5l26 79q75 217 89 286h230zM451 731l85 -145h-131
l-47 86l-47 -86h-130l85 145h185z" />
    <glyph glyph-name="Ydieresis" unicode="&#x178;" 
d="M930 726l-19 -29q-107 -166 -183.5 -293.5t-127.5 -234.5v-169h-261v186q-37 75 -87 154.5t-142 218.5q-72 106 -110 167h280q30 -61 98 -181q68 -122 93 -172q35 73 94 179q69 124 93 174h272zM346 785q-19 19 -19 46q0 26 19 45t46 19q26 0 45 -19t19 -45
q0 -27 -19 -46t-45 -19q-27 0 -46 19zM507 785q-19 19 -19 46q0 26 19 45t46 19q26 0 45 -19t19 -45q0 -27 -19 -46t-45 -19q-27 0 -46 19z" />
    <glyph glyph-name="Zacute" unicode="&#x179;" horiz-adv-x="865" 
d="M666 205q30 1 70 3t89 3q-7 -47 -8.5 -94t-1.5 -117h-767v223q55 31 120 76.5t168 119.5q96 70 139 100q-79 -1 -317 -11q-82 -4 -110 -5q0 74 -1.5 124t-6.5 99h775v-224q-53 -35 -196 -136q-160 -114 -247 -169q57 1 294 8zM490 763h-127l24 155h185z" />
    <glyph glyph-name="zacute" unicode="&#x17a;" horiz-adv-x="671" 
d="M484 174q100 4 147 5q-8 -53 -8 -179h-577v168q43 24 93 59t129 92q42 32 70 51q-68 -1 -184 -7q-79 -4 -108 -5q0 132 -6 188h583v-168q-62 -41 -145 -101q-121 -86 -157 -109q82 2 163 6zM368 576h-127l24 155h185z" />
    <glyph glyph-name="Zdotaccent" unicode="&#x17b;" horiz-adv-x="865" 
d="M666 205q30 1 70 3t89 3q-7 -47 -8.5 -94t-1.5 -117h-767v223q55 31 120 76.5t168 119.5q96 70 139 100q-79 -1 -317 -11q-82 -4 -110 -5q0 74 -1.5 124t-6.5 99h775v-224q-53 -35 -196 -136q-160 -114 -247 -169q57 1 294 8zM387 773q-19 19 -19 46q0 26 19 45t46 19
q26 0 45 -19t19 -45q0 -27 -19 -46t-45 -19q-27 0 -46 19z" />
    <glyph glyph-name="zdotaccent" unicode="&#x17c;" horiz-adv-x="671" 
d="M484 174q100 4 147 5q-8 -53 -8 -179h-577v168q43 24 93 59t129 92q42 32 70 51q-68 -1 -184 -7q-79 -4 -108 -5q0 132 -6 188h583v-168q-62 -41 -145 -101q-121 -86 -157 -109q82 2 163 6zM290 595q-19 19 -19 46q0 26 19 45t46 19q26 0 45 -19t19 -45q0 -27 -19 -46
t-45 -19q-27 0 -46 19z" />
    <glyph glyph-name="Zcaron" unicode="&#x17d;" horiz-adv-x="865" 
d="M666 205q30 1 70 3t89 3q-7 -47 -8.5 -94t-1.5 -117h-767v223q55 31 120 76.5t168 119.5q96 70 139 100q-79 -1 -317 -11q-82 -4 -110 -5q0 74 -1.5 124t-6.5 99h775v-224q-53 -35 -196 -136q-160 -114 -247 -169q57 1 294 8zM432 839l51 114h108l-92 -192h-134l-91 192
h107z" />
    <glyph glyph-name="zcaron" unicode="&#x17e;" horiz-adv-x="671" 
d="M484 174q100 4 147 5q-8 -53 -8 -179h-577v168q43 24 93 59t129 92q42 32 70 51q-68 -1 -184 -7q-79 -4 -108 -5q0 132 -6 188h583v-168q-62 -41 -145 -101q-121 -86 -157 -109q82 2 163 6zM335 661l51 114h108l-92 -192h-134l-91 192h107z" />
    <glyph glyph-name="florin" unicode="&#x192;" horiz-adv-x="753" 
d="M560.5 510.5q-31.5 -19.5 -44.5 -56.5h203v-185h-210q-12 -86 -58 -151.5t-118.5 -101.5t-162.5 -36q-86 0 -170 22q9 49 9 133q0 48 -1 75q22 -6 60 -10t67 -4q41 0 65 18t33 55h-228v185h232q9 87 53.5 153t117 102.5t162.5 36.5t170 -22q-9 -49 -9 -133q0 -48 1 -75
q-50 14 -92 14q-48 0 -79.5 -19.5z" />
    <glyph glyph-name="Ohorn" unicode="&#x1a0;" horiz-adv-x="971" 
d="M931 369q0 -181 -107 -280t-339 -99q-229 0 -337 99.5t-108 279.5q0 177 105 276.5t330 101.5q101 0 147 14t46 50v65h257v-76q0 -44 -30 -78t-88 -61q124 -95 124 -292zM645 236.5q49 42.5 49 132.5q0 88 -49 131t-160 43q-110 0 -159 -43t-49 -131q0 -89 49 -132
t159 -43q111 0 160 42.5z" />
    <glyph glyph-name="ohorn" unicode="&#x1a1;" horiz-adv-x="736" 
d="M640 457q66 -72 66 -182q0 -129 -85.5 -207t-258.5 -78q-171 0 -251.5 78.5t-80.5 206.5q0 125 80.5 203t251.5 78q93 0 137 13.5t44 41.5q0 47 -13 74h196q8 -18 13.5 -47.5t5.5 -51.5q0 -96 -105 -129zM463 191q32 31 32 83q0 49 -32 80.5t-97 31.5t-95 -31t-30 -81
q0 -52 30 -83t95 -31t97 31z" />
    <glyph glyph-name="Uhorn" unicode="&#x1af;" horiz-adv-x="920" 
d="M1035 882q14 -62 14 -119q0 -124 -106 -124q-27 0 -63 9v-319q-2 -147 -100.5 -243t-331.5 -96q-236 0 -323 91.5t-85 240.5v405h248v-389q0 -44 6.5 -71.5t42 -51.5t114.5 -24q86 0 126 24.5t47.5 54.5t7.5 77v380h228q19 0 24 9.5t5 33.5q0 40 -18 92z" />
    <glyph glyph-name="uhorn" unicode="&#x1b0;" horiz-adv-x="824" 
d="M810 701q14 -62 14 -119q0 -124 -106 -124q-30 0 -67 10q-4 -130 -4 -194q0 -128 8 -274q-64 3 -101 3q-35 0 -101 -3l-29 147q-23 -80 -72 -118.5t-114 -38.5q-60 0 -104 26.5t-66.5 71.5t-22.5 101v144q0 133 -5 213h225q-6 -147 -6 -291q0 -44 21.5 -70t54.5 -26
q31 0 54.5 27.5t28.5 75.5v23q2 78 2 108q0 69 -4 153h219q19 0 24 9.5t5 33.5q0 40 -18 92z" />
    <glyph glyph-name="uni01CD" unicode="&#x1cd;" 
d="M671 0q-19 57 -51 143h-319l-50 -143h-251l280 726h368l282 -726h-259zM563 299q-38 105 -78 210l-24 65q-35 -91 -103 -275h205zM461 841l51 114h108l-92 -192h-134l-91 192h107z" />
    <glyph glyph-name="uni01CE" unicode="&#x1ce;" horiz-adv-x="741" 
d="M681 166q0 -34 8 -48t32 -20l-4 -94q-32 -5 -55.5 -7t-62.5 -2q-86 0 -114 38.5t-28 98.5v25q-29 -82 -84.5 -122t-141.5 -40q-100 0 -150.5 40t-50.5 119q0 65 43 102t133 51q-76 54 -152 94q60 76 137 115.5t187 39.5q154 0 228.5 -66.5t74.5 -204.5v-119zM309 363
q-39 -17 -70 -51q60 7 150 7q37 0 52 9t15 23q0 12 -15 20.5t-42 8.5q-51 0 -90 -17zM395 179.5q45 21.5 62 56.5v26q-24 -12 -53 -18.5t-70 -12.5l-36 -6q-56 -11 -56 -38q0 -29 52 -29q56 0 101 21.5zM377 671l51 114h108l-92 -192h-134l-91 192h107z" />
    <glyph glyph-name="uni01CF" unicode="&#x1cf;" horiz-adv-x="661" 
d="M621 527q-119 6 -176 7v-342q58 1 176 7v-199h-581v199q115 -6 175 -7v342q-60 -1 -175 -7v199h581v-199zM330 846l51 114h108l-92 -192h-134l-91 192h107z" />
    <glyph glyph-name="uni01D0" unicode="&#x1d0;" horiz-adv-x="340" 
d="M51 0q7 161 7 266q0 125 -8 280h240q-8 -149 -8 -280q0 -110 7 -266h-238zM169 661l51 114h108l-92 -192h-134l-91 192h107z" />
    <glyph glyph-name="uni01D1" unicode="&#x1d1;" horiz-adv-x="971" 
d="M148 89.5q-108 99.5 -108 279.5q0 178 107.5 278t337.5 100q231 0 338.5 -100t107.5 -278q0 -181 -107 -280t-339 -99q-229 0 -337 99.5zM645 236.5q49 42.5 49 132.5q0 88 -49 131t-160 43q-110 0 -159 -43t-49 -131q0 -89 49 -132t159 -43q111 0 160 42.5zM484 862
l51 114h108l-92 -192h-134l-91 192h107z" />
    <glyph glyph-name="uni01D2" unicode="&#x1d2;" horiz-adv-x="736" 
d="M110.5 68.5q-80.5 78.5 -80.5 206.5q0 125 80.5 203t251.5 78q115 0 192.5 -37.5t114.5 -101t37 -142.5q0 -129 -85.5 -207t-258.5 -78q-171 0 -251.5 78.5zM463 191q32 31 32 83q0 49 -32 80.5t-97 31.5t-95 -31t-30 -81q0 -52 30 -83t95 -31t97 31zM361 671l51 114h108
l-92 -192h-134l-91 192h107z" />
    <glyph glyph-name="uni01D3" unicode="&#x1d3;" horiz-adv-x="920" 
d="M632 727h248v-398q-2 -147 -100.5 -243t-331.5 -96q-236 0 -323 91.5t-85 240.5v405h248v-389q0 -44 6.5 -71.5t42 -51.5t114.5 -24q86 0 126 24.5t47.5 54.5t7.5 77v380zM459 842l51 114h108l-92 -192h-134l-91 192h107z" />
    <glyph glyph-name="uni01D4" unicode="&#x1d4;" horiz-adv-x="695" 
d="M648 274q0 -147 7 -274q-64 3 -101 3q-35 0 -101 -3l-29 147q-23 -80 -72 -118.5t-114 -38.5q-60 0 -104 26.5t-66.5 71.5t-22.5 101v144q0 133 -5 213h225q-6 -147 -6 -291q0 -44 21.5 -70t54.5 -26q31 0 54.5 27.5t28.5 75.5v23q2 78 2 108q0 69 -4 153h239
q-7 -126 -7 -272zM347 661l51 114h108l-92 -192h-134l-91 192h107z" />
    <glyph glyph-name="uni01D5" unicode="&#x1d5;" horiz-adv-x="920" 
d="M632 727h248v-398q-2 -147 -100.5 -243t-331.5 -96q-236 0 -323 91.5t-85 240.5v405h248v-389q0 -44 6.5 -71.5t42 -51.5t114.5 -24q86 0 126 24.5t47.5 54.5t7.5 77v380zM334 786q-19 19 -19 46q0 26 19 45t46 19q26 0 45 -19t19 -45q0 -27 -19 -46t-45 -19
q-27 0 -46 19zM495 786q-19 19 -19 46q0 26 19 45t46 19q26 0 45 -19t19 -45q0 -27 -19 -46t-45 -19q-27 0 -46 19zM330 948v91h260v-91h-260z" />
    <glyph glyph-name="uni01D6" unicode="&#x1d6;" horiz-adv-x="695" 
d="M648 274q0 -147 7 -274q-64 3 -101 3q-35 0 -101 -3l-29 147q-23 -80 -72 -118.5t-114 -38.5q-60 0 -104 26.5t-66.5 71.5t-22.5 101v144q0 133 -5 213h225q-6 -147 -6 -291q0 -44 21.5 -70t54.5 -26q31 0 54.5 27.5t28.5 75.5v23q2 78 2 108q0 69 -4 153h239
q-7 -126 -7 -272zM222 593q-19 19 -19 46q0 26 19 45t46 19q26 0 45 -19t19 -45q0 -27 -19 -46t-45 -19q-27 0 -46 19zM383 593q-19 19 -19 46q0 26 19 45t46 19q26 0 45 -19t19 -45q0 -27 -19 -46t-45 -19q-27 0 -46 19zM218 729v91h260v-91h-260z" />
    <glyph glyph-name="uni01D7" unicode="&#x1d7;" horiz-adv-x="920" 
d="M632 727h248v-398q-2 -147 -100.5 -243t-331.5 -96q-236 0 -323 91.5t-85 240.5v405h248v-389q0 -44 6.5 -71.5t42 -51.5t114.5 -24q86 0 126 24.5t47.5 54.5t7.5 77v380zM334 786q-19 19 -19 46q0 26 19 45t46 19q26 0 45 -19t19 -45q0 -27 -19 -46t-45 -19
q-27 0 -46 19zM495 786q-19 19 -19 46q0 26 19 45t46 19q26 0 45 -19t19 -45q0 -27 -19 -46t-45 -19q-27 0 -46 19zM517 947h-127l24 155h185z" />
    <glyph glyph-name="uni01D8" unicode="&#x1d8;" horiz-adv-x="695" 
d="M648 274q0 -147 7 -274q-64 3 -101 3q-35 0 -101 -3l-29 147q-23 -80 -72 -118.5t-114 -38.5q-60 0 -104 26.5t-66.5 71.5t-22.5 101v144q0 133 -5 213h225q-6 -147 -6 -291q0 -44 21.5 -70t54.5 -26q31 0 54.5 27.5t28.5 75.5v23q2 78 2 108q0 69 -4 153h239
q-7 -126 -7 -272zM222 593q-19 19 -19 46q0 26 19 45t46 19q26 0 45 -19t19 -45q0 -27 -19 -46t-45 -19q-27 0 -46 19zM383 593q-19 19 -19 46q0 26 19 45t46 19q26 0 45 -19t19 -45q0 -27 -19 -46t-45 -19q-27 0 -46 19zM380 729h-127l24 155h185z" />
    <glyph glyph-name="uni01D9" unicode="&#x1d9;" horiz-adv-x="920" 
d="M632 727h248v-398q-2 -147 -100.5 -243t-331.5 -96q-236 0 -323 91.5t-85 240.5v405h248v-389q0 -44 6.5 -71.5t42 -51.5t114.5 -24q86 0 126 24.5t47.5 54.5t7.5 77v380zM334 786q-19 19 -19 46q0 26 19 45t46 19q26 0 45 -19t19 -45q0 -27 -19 -46t-45 -19
q-27 0 -46 19zM495 786q-19 19 -19 46q0 26 19 45t46 19q26 0 45 -19t19 -45q0 -27 -19 -46t-45 -19q-27 0 -46 19zM459 1023l51 114h108l-92 -192h-134l-91 192h107z" />
    <glyph glyph-name="uni01DA" unicode="&#x1da;" horiz-adv-x="695" 
d="M648 274q0 -147 7 -274q-64 3 -101 3q-35 0 -101 -3l-29 147q-23 -80 -72 -118.5t-114 -38.5q-60 0 -104 26.5t-66.5 71.5t-22.5 101v144q0 133 -5 213h225q-6 -147 -6 -291q0 -44 21.5 -70t54.5 -26q31 0 54.5 27.5t28.5 75.5v23q2 78 2 108q0 69 -4 153h239
q-7 -126 -7 -272zM222 593q-19 19 -19 46q0 26 19 45t46 19q26 0 45 -19t19 -45q0 -27 -19 -46t-45 -19q-27 0 -46 19zM383 593q-19 19 -19 46q0 26 19 45t46 19q26 0 45 -19t19 -45q0 -27 -19 -46t-45 -19q-27 0 -46 19zM347 814l51 114h108l-92 -192h-134l-91 192h107z
" />
    <glyph glyph-name="uni01DB" unicode="&#x1db;" horiz-adv-x="920" 
d="M632 727h248v-398q-2 -147 -100.5 -243t-331.5 -96q-236 0 -323 91.5t-85 240.5v405h248v-389q0 -44 6.5 -71.5t42 -51.5t114.5 -24q86 0 126 24.5t47.5 54.5t7.5 77v380zM334 786q-19 19 -19 46q0 26 19 45t46 19q26 0 45 -19t19 -45q0 -27 -19 -46t-45 -19
q-27 0 -46 19zM495 786q-19 19 -19 46q0 26 19 45t46 19q26 0 45 -19t19 -45q0 -27 -19 -46t-45 -19q-27 0 -46 19zM414 949l-82 155h185l24 -155h-127z" />
    <glyph glyph-name="uni01DC" unicode="&#x1dc;" horiz-adv-x="695" 
d="M648 274q0 -147 7 -274q-64 3 -101 3q-35 0 -101 -3l-29 147q-23 -80 -72 -118.5t-114 -38.5q-60 0 -104 26.5t-66.5 71.5t-22.5 101v144q0 133 -5 213h225q-6 -147 -6 -291q0 -44 21.5 -70t54.5 -26q31 0 54.5 27.5t28.5 75.5v23q2 78 2 108q0 69 -4 153h239
q-7 -126 -7 -272zM222 593q-19 19 -19 46q0 26 19 45t46 19q26 0 45 -19t19 -45q0 -27 -19 -46t-45 -19q-27 0 -46 19zM383 593q-19 19 -19 46q0 26 19 45t46 19q26 0 45 -19t19 -45q0 -27 -19 -46t-45 -19q-27 0 -46 19zM302 740l-82 155h185l24 -155h-127z" />
    <glyph glyph-name="uni0218" unicode="&#x218;" horiz-adv-x="924" 
d="M96.5 181q22.5 44 43.5 102q71 -41 165 -64t175 -23q83 0 117 14.5t34 31.5q0 61 -186 61q-204 0 -296 42.5t-92 137.5q0 135 112 199t291 64q104 0 213.5 -26.5t197.5 -72.5q-29 -66 -61 -161q-6 -20 -10 -30q-51 41 -154 68.5t-182 27.5q-95 0 -128 -12.5t-33 -36.5
t45.5 -38.5t131.5 -14.5q212 0 308 -48.5t96 -148.5q0 -140 -102 -201.5t-309 -61.5q-111 0 -226 24.5t-207 71.5q34 51 56.5 95zM484 -226h-127l24 155h185z" />
    <glyph glyph-name="uni0219" unicode="&#x219;" horiz-adv-x="709" 
d="M192.5 13.5q-86.5 23.5 -162.5 71.5l105 143q46 -33 111 -51.5t112 -18.5q45 0 69.5 12.5t24.5 32.5q0 16 -12 25t-33 9q-13 0 -29.5 -1t-26.5 -2q-52 -6 -107 -6q-89 0 -144.5 33.5t-55.5 109.5q0 88 83 136.5t244 48.5q79 0 159.5 -22.5t142.5 -67.5l-115 -116
q-57 30 -106.5 42.5t-99.5 12.5q-35 0 -60 -14t-25 -32q0 -14 10.5 -22t27.5 -8t47 3q73 5 109 5q104 0 161 -35t57 -107q0 -108 -84 -156.5t-232 -48.5q-84 0 -170.5 23.5zM382 -193h-127l24 155h185z" />
    <glyph glyph-name="uni021A" unicode="&#x21a;" horiz-adv-x="939" 
d="M899 516q-157 5 -305 6v-522h-250v522q-149 -1 -304 -6v210h859v-210zM492 -185h-127l24 155h185z" />
    <glyph glyph-name="uni021B" unicode="&#x21b;" horiz-adv-x="513" 
d="M493 367q-92 6 -168 9l-1 -106q0 -54 23.5 -84.5t83.5 -30.5q23 0 44 4q-4 -37 -4 -75q0 -18 2 -82q-44 -8 -74 -10t-78 -2q-117 0 -165.5 56.5t-48.5 157.5l1 169q-47 -2 -98 -6v177q52 0 88 33t43 79h272q-51 -70 -113 -112h193v-177zM306 -193h-127l24 155h185z" />
    <glyph glyph-name="uni02BC" unicode="&#x2bc;" horiz-adv-x="600" 
d="M221 858h185l-82 -243h-127z" />
    <glyph glyph-name="circumflex" unicode="&#x2c6;" horiz-adv-x="600" 
d="M400 725l85 -145h-131l-47 86l-47 -86h-130l85 145h185z" />
    <glyph glyph-name="ring" unicode="&#x2da;" horiz-adv-x="600" 
d="M216 636q-35 35 -35 84t35 84t84 35t84 -35t35 -84t-35 -84t-84 -35t-84 35zM330 690q13 13 13 30t-13 30t-30 13t-30 -13t-13 -30t13 -30t30 -13t30 13z" />
    <glyph glyph-name="tilde" unicode="&#x2dc;" horiz-adv-x="600" 
d="M476 768q0 -53 -29 -86.5t-83 -33.5q-41 0 -78 29q-9 8 -19 20q-8 10 -14 14.5t-13 4.5q-9 0 -14 -7.5t-3 -18.5h-99q0 47 30 83.5t82 36.5q46 0 83 -32l15 -16q15 -19 25 -19t14 5.5t4 19.5h99z" />
    <glyph glyph-name="gravecomb" horiz-adv-x="0" 
d="M-341 703l-82 155h185l24 -155h-127z" />
    <glyph glyph-name="acutecomb" horiz-adv-x="0" 
d="M-272 613h-127l24 155h185z" />
    <glyph glyph-name="uni0302" horiz-adv-x="0" 
d="M-200 725l85 -145h-131l-47 86l-47 -86h-130l85 145h185z" />
    <glyph glyph-name="tildecomb" horiz-adv-x="0" 
d="M-124 768q0 -53 -29 -86.5t-83 -33.5q-41 0 -78 29q-9 8 -19 20q-8 10 -14 14.5t-13 4.5q-9 0 -14 -7.5t-3 -18.5h-99q0 47 30 83.5t82 36.5q46 0 83 -32l15 -16q15 -19 25 -19t14 5.5t4 19.5h99z" />
    <glyph glyph-name="uni0304" horiz-adv-x="0" 
d="M-430 689v91h260v-91h-260z" />
    <glyph glyph-name="uni0306" horiz-adv-x="0" 
d="M-386.5 669q-39.5 21 -62.5 60t-23 91h99q0 -39 20.5 -57.5t52.5 -18.5t52.5 18.5t20.5 57.5h99q0 -52 -23 -91t-62.5 -60t-86.5 -21t-86.5 21z" />
    <glyph glyph-name="uni0307" horiz-adv-x="0" 
d="M-345 646q-19 19 -19 46q0 26 19 45t46 19q26 0 45 -19t19 -45q0 -27 -19 -46t-45 -19q-27 0 -46 19z" />
    <glyph glyph-name="uni0308" horiz-adv-x="0" 
d="M-426 646q-19 19 -19 46q0 26 19 45t46 19q26 0 45 -19t19 -45q0 -27 -19 -46t-45 -19q-27 0 -46 19zM-265 646q-19 19 -19 46q0 26 19 45t46 19q26 0 45 -19t19 -45q0 -27 -19 -46t-45 -19q-27 0 -46 19z" />
    <glyph glyph-name="hookabovecomb" horiz-adv-x="0" 
d="M-313 621q29 12 46.5 35t17.5 46q0 11 -7.5 17.5t-21.5 6.5t-32 -8t-36 -24v91q55 33 106 33q40 0 64.5 -22t24.5 -64q0 -45 -32 -84.5t-97 -67.5z" />
    <glyph glyph-name="uni030A" horiz-adv-x="0" 
d="M-384 636q-35 35 -35 84t35 84t84 35t84 -35t35 -84t-35 -84t-84 -35t-84 35zM-270 690q13 13 13 30t-13 30t-30 13t-30 -13t-13 -30t13 -30t30 -13t30 13z" />
    <glyph glyph-name="uni030C" horiz-adv-x="0" 
d="M-301 681l51 114h108l-92 -192h-134l-91 192h107z" />
    <glyph glyph-name="dotbelowcomb" horiz-adv-x="0" 
d="M-364.5 -127.5q-26.5 26.5 -26.5 64.5q0 37 26.5 64t64.5 27q37 0 64 -27t27 -64q0 -38 -27 -64.5t-64 -26.5q-38 0 -64.5 26.5z" />
    <glyph glyph-name="uni0326" horiz-adv-x="0" 
d="M-117 -193h-127l24 155h185z" />
    <glyph glyph-name="Pi" horiz-adv-x="888" 
d="M841 363q0 -194 7 -363h-235v524h-338v-524h-235q8 194 8 363t-8 363h808q-7 -169 -7 -363z" />
    <glyph glyph-name="uni03BC" horiz-adv-x="695" 
d="M648 274q0 -147 7 -274q-64 3 -95 3q-30 0 -96 -3l-19 94q-15 -49 -49 -76.5t-69 -27.5q-16 0 -34.5 4t-32.5 11q1 -138 5 -226h-225q0 19 1 28q4 220 4 382v144q0 133 -5 213h225q-5 -107 -5 -189v-92q0 -53 21.5 -79.5t53.5 -26.5q31 0 54.5 27.5t28.5 75.5v23
q2 78 2 108q0 69 -4 153h239q-7 -126 -7 -272z" />
    <glyph glyph-name="phi" horiz-adv-x="810" 
d="M711.5 92q-68.5 -74 -206.5 -95q0 -158 2 -229h-208l2 228q-139 20 -205 94.5t-66 184.5q0 107 65.5 181t204.5 93l-1 98h208l-1 -99q136 -22 205 -96t69 -177q0 -109 -68.5 -183zM302 163v56q0 109 -1 163q-71 -31 -71 -108q0 -80 72 -111zM561.5 208q18.5 29 18.5 66
q0 35 -18 63.5t-55 44.5q0 -110 -1 -163q0 -37 -1 -56q38 16 56.5 45z" />
    <glyph glyph-name="uni0400" unicode="&#x400;" horiz-adv-x="867" 
d="M276 183q380 2 551 11q-7 -41 -8.5 -84.5t-1.5 -109.5h-777q8 194 8 363t-8 363h777v-181h-541v-96q48 -1 142 -1q159 0 329 6v-172q-170 6 -329 6q-94 0 -142 -1v-104zM388 772l-82 155h185l24 -155h-127z" />
    <glyph glyph-name="uni0401" unicode="&#x401;" horiz-adv-x="867" 
d="M276 183q380 2 551 11q-7 -41 -8.5 -84.5t-1.5 -109.5h-777q8 194 8 363t-8 363h777v-181h-541v-96q48 -1 142 -1q159 0 329 6v-172q-170 6 -329 6q-94 0 -142 -1v-104zM308 790q-19 19 -19 46q0 26 19 45t46 19q26 0 45 -19t19 -45q0 -27 -19 -46t-45 -19q-27 0 -46 19z
M469 790q-19 19 -19 46q0 26 19 45t46 19q26 0 45 -19t19 -45q0 -27 -19 -46t-45 -19q-27 0 -46 19z" />
    <glyph glyph-name="uni0402" unicode="&#x402;" horiz-adv-x="976" 
d="M876 379.5q70 -62.5 70 -174.5q0 -66 -34.5 -114.5t-95.5 -75t-137 -26.5q-49 0 -112 11v137q29 -7 56 -7q78 0 78 77q0 35 -26.5 56t-63.5 21q-35 0 -68 -19t-60 -53q2 -160 5 -212h-257q7 123 7 353q0 113 -1 167q-63 0 -197 -4v210h664v-210q-73 2 -219 4
q-1 -48 -1 -152q87 74 202 74q120 0 190 -62.5z" />
    <glyph glyph-name="uni0403" unicode="&#x403;" horiz-adv-x="788" 
d="M284 0h-244q8 195 8 363q0 169 -8 363h708q-2 -82 -2 -125q0 -53 1 -80h-463v-521zM451 765h-127l24 155h185z" />
    <glyph glyph-name="uni0404" unicode="&#x404;" 
d="M620 218.5q49 27.5 72 87.5q82 -44 210 -99q-50 -121 -167 -169t-255 -48q-226 0 -333 96t-107 274q0 179 107 283t333 104q316 0 423 -217q-90 -31 -211 -93q-29 56 -91.5 83t-127.5 27q-70 0 -117.5 -24.5t-70.5 -67.5h346v-168h-352q23 -47 76.5 -71.5t132.5 -24.5
q83 0 132 27.5z" />
    <glyph glyph-name="uni0405" unicode="&#x405;" horiz-adv-x="924" 
d="M96.5 181q22.5 44 43.5 102q71 -41 165 -64t175 -23q83 0 117 14.5t34 31.5q0 61 -186 61q-204 0 -296 42.5t-92 137.5q0 135 112 199t291 64q104 0 213.5 -26.5t197.5 -72.5q-29 -66 -61 -161q-6 -20 -10 -30q-51 41 -154 68.5t-182 27.5q-95 0 -128 -12.5t-33 -36.5
t45.5 -38.5t131.5 -14.5q212 0 308 -48.5t96 -148.5q0 -140 -102 -201.5t-309 -61.5q-111 0 -226 24.5t-207 71.5q34 51 56.5 95z" />
    <glyph glyph-name="uni0406" unicode="&#x406;" horiz-adv-x="661" 
d="M621 527q-119 6 -176 7v-342q58 1 176 7v-199h-581v199q115 -6 175 -7v342q-60 -1 -175 -7v199h581v-199z" />
    <glyph glyph-name="uni0407" unicode="&#x407;" horiz-adv-x="661" 
d="M621 527q-119 6 -176 7v-342q58 1 176 7v-199h-581v199q115 -6 175 -7v342q-60 -1 -175 -7v199h581v-199zM205 790q-19 19 -19 46q0 26 19 45t46 19q26 0 45 -19t19 -45q0 -27 -19 -46t-45 -19q-27 0 -46 19zM366 790q-19 19 -19 46q0 26 19 45t46 19q26 0 45 -19t19 -45
q0 -27 -19 -46t-45 -19q-27 0 -46 19z" />
    <glyph glyph-name="uni0408" unicode="&#x408;" horiz-adv-x="884" 
d="M844 727v-353q0 -187 -96.5 -285.5t-305.5 -98.5q-120 0 -221.5 35t-180.5 91q19 62 31 119t18 125q103 -83 190 -115t166 -32q82 0 117 37t36 127v76q0 162 -9 274h255z" />
    <glyph glyph-name="uni0409" unicode="&#x409;" horiz-adv-x="1340" 
d="M955 550q137 0 215 -34.5t109 -96t31 -149.5q0 -128 -78 -198.5t-277 -70.5h-90v-1h-253v530h-224l-1 -58q0 -76 -3.5 -133.5t-14.5 -117.5q-20 -109 -101.5 -175t-227.5 -66v195q39 8 61.5 35.5t34.5 88.5q9 49 9 223l-1 204l721 -1v-175h90zM915 199q70 0 105.5 6.5
t49.5 22.5t14 49t-15 50t-50.5 23.5t-103.5 6.5h-50v-158h50z" />
    <glyph glyph-name="uni040A" unicode="&#x40a;" horiz-adv-x="1260" 
d="M875 550q137 0 215 -34.5t109 -96t31 -149.5q0 -128 -78 -198.5t-277 -70.5h-77v-1h-235v272h-288v-272h-235q8 194 8 363t-8 363h235v-272h288v272h235l-6 -176h83zM835 199q70 0 105.5 6.5t49.5 22.5t14 49t-15 50t-50.5 23.5t-103.5 6.5h-44q0 -105 1 -158h43z" />
    <glyph glyph-name="uni040B" unicode="&#x40b;" horiz-adv-x="974" 
d="M933 62q0 -39 1 -62h-253q5 125 5 160q0 64 -22.5 94t-69.5 30q-63 0 -112 -68q2 -164 5 -216h-259q8 119 8 359q0 111 -1 163l-66 -2q-86 -2 -129 -4v210h669v-210q-116 5 -225 6q-1 -46 -1 -146q36 32 78.5 49t98.5 17q79 0 141.5 -30t97.5 -86t35 -131z" />
    <glyph glyph-name="uni040C" unicode="&#x40c;" horiz-adv-x="916" 
d="M774.5 240.5q31.5 -58.5 61.5 -143.5q25 -69 40 -97h-294q-6 17 -16 59q-10 46 -21.5 77t-32.5 54q-34 36 -84.5 46.5t-138.5 10.5v-247h-249q8 194 8 363t-8 363h249v-261q10 -1 30 -1q156 154 232 262h324l-311 -310q66 -26 120 -69q59 -48 90.5 -106.5zM515 759h-127
l24 155h185z" />
    <glyph glyph-name="uni040D" unicode="&#x40d;" horiz-adv-x="919" 
d="M285 725l-17 -561l243 561h368q-7 -169 -7 -362q0 -194 7 -363h-257l18 546l-242 -546h-358q8 194 8 363q0 168 -8 362h245zM414 772l-82 155h185l24 -155h-127z" />
    <glyph glyph-name="uni040F" unicode="&#x40f;" horiz-adv-x="888" 
d="M848 726q-7 -169 -7 -363t7 -363h-296v-195h-217v195h-295q8 194 8 363t-8 363h235v-524h338v524h235z" />
    <glyph glyph-name="uni0410" unicode="&#x410;" 
d="M671 0q-19 57 -51 143h-319l-50 -143h-251l280 726h368l282 -726h-259zM563 299q-38 105 -78 210l-24 65q-35 -91 -103 -275h205z" />
    <glyph glyph-name="uni0411" unicode="&#x411;" horiz-adv-x="849" 
d="M464 453q137 0 215 -28.5t109 -78.5t31 -123q0 -106 -78 -164t-277 -58h-178v-1h-246q8 194 8 363t-8 363h737v-201h-491v-72h178zM424 174q69 0 104.5 5t50 16t14.5 33t-15 34t-51 17t-103 5h-138v-110h138z" />
    <glyph glyph-name="uni0412" unicode="&#x412;" horiz-adv-x="894" 
d="M854 216q0 -68 -31 -115.5t-111 -74t-222 -26.5h-450q8 194 8 363t-8 363h235v-1h213q124 0 195.5 -20.5t101 -59.5t29.5 -99q0 -61 -42.5 -108.5t-145.5 -76.5q228 0 228 -145zM275 543v-93h192q62 0 86.5 11t24.5 40q0 23 -25.5 32.5t-85.5 9.5h-192zM467 183
q52 0 79.5 4.5t39.5 16t12 31.5q0 26 -28.5 37.5t-102.5 11.5h-192v-101h192z" />
    <glyph glyph-name="uni0413" unicode="&#x413;" horiz-adv-x="788" 
d="M284 0h-244q8 195 8 363q0 169 -8 363h708q-2 -82 -2 -125q0 -53 1 -80h-463v-521z" />
    <glyph glyph-name="uni0414" unicode="&#x414;" horiz-adv-x="960" 
d="M879 178h41v-343h-237v145h-446v-148h-237v346h50q43 8 66 35t34 86q9 49 9 223l-1 204l721 -1v-547zM372 178h254v352h-224l-1 -58q0 -76 -3.5 -133.5t-14.5 -117.5q-6 -28 -11 -43z" />
    <glyph glyph-name="uni0415" unicode="&#x415;" horiz-adv-x="867" 
d="M276 183q380 2 551 11q-7 -41 -8.5 -84.5t-1.5 -109.5h-777q8 194 8 363t-8 363h777v-181h-541v-96q48 -1 142 -1q159 0 329 6v-172q-170 6 -329 6q-94 0 -142 -1v-104z" />
    <glyph glyph-name="uni0416" unicode="&#x416;" horiz-adv-x="1035" 
d="M778 409q42 -25 78 -62q45 -48 69 -106.5t47 -143.5q16 -65 30 -97h-244q-3 9 -12 58q-8 47 -16.5 78t-24.5 54q-22 33 -47 52t-59 28q2 -135 6 -270h-198q5 134 6 267q-30 -9 -52.5 -28t-43.5 -49q-16 -23 -24.5 -54t-16.5 -78q-9 -49 -12 -58h-244q14 32 30 97
q23 85 47 143.5t69 106.5q36 37 78 62l-244 317h268q27 -60 65 -128.5t79 -128.5q0 114 -5 257h198q-4 -132 -6 -264q4 0 5 -1q42 61 82 131.5t68 133.5h268z" />
    <glyph glyph-name="uni0417" unicode="&#x417;" horiz-adv-x="881" 
d="M669 375q61 0 99.5 -20.5t55.5 -52t17 -65.5q0 -79 -52 -134.5t-141 -84t-198 -28.5q-316 0 -409 220l56 14q62 15 105.5 28.5t76.5 30.5q20 -50 57.5 -71.5t103.5 -21.5q70 0 114 16t44 48q0 17 -17 26t-54 12.5t-104 3.5h-76v175h46q76 0 124 6.5t48 28.5
q0 25 -25.5 40.5t-79.5 15.5q-70 0 -113.5 -29t-67.5 -84q-107 43 -228 61q48 108 147.5 167t256.5 59q102 0 183.5 -26.5t128 -73.5t46.5 -105q0 -34 -16 -60.5t-63 -52t-136 -50.5q36 7 71 7z" />
    <glyph glyph-name="uni0418" unicode="&#x418;" horiz-adv-x="919" 
d="M285 725l-17 -561l243 561h368q-7 -169 -7 -362q0 -194 7 -363h-257l18 546l-242 -546h-358q8 194 8 363q0 168 -8 362h245z" />
    <glyph glyph-name="uni0419" unicode="&#x419;" horiz-adv-x="919" 
d="M372.5 773q-39.5 21 -62.5 60t-23 91h99q0 -39 20.5 -57.5t52.5 -18.5t52.5 18.5t20.5 57.5h99q0 -52 -23 -91t-62.5 -60t-86.5 -21t-86.5 21zM285 725l-17 -561l243 561h368q-7 -169 -7 -362q0 -194 7 -363h-257l18 546l-242 -546h-358q8 194 8 363q0 168 -8 362h245z
" />
    <glyph glyph-name="uni041A" unicode="&#x41a;" horiz-adv-x="916" 
d="M774.5 240.5q31.5 -58.5 61.5 -143.5q25 -69 40 -97h-294q-6 17 -16 59q-10 46 -21.5 77t-32.5 54q-34 36 -84.5 46.5t-138.5 10.5v-247h-249q8 194 8 363t-8 363h249v-261q10 -1 30 -1q156 154 232 262h324l-311 -310q66 -26 120 -69q59 -48 90.5 -106.5z" />
    <glyph glyph-name="uni041B" unicode="&#x41b;" horiz-adv-x="905" 
d="M865 0h-253v530h-224l-1 -58q0 -76 -3.5 -133.5t-14.5 -117.5q-20 -109 -101.5 -175t-227.5 -66v195q39 8 61.5 35.5t34.5 88.5q9 49 9 223l-1 204l721 -1v-725z" />
    <glyph glyph-name="uni041C" unicode="&#x41c;" horiz-adv-x="1093" 
d="M975 726l78 -726h-259l-16 518l-100 -518h-262l-102 514l-15 -514h-259l78 726h340l87 -473l76 473h354z" />
    <glyph glyph-name="uni041D" unicode="&#x41d;" horiz-adv-x="918" 
d="M878 726q-7 -169 -7 -363t7 -363h-235v272h-368v-272h-235q8 194 8 363t-8 363h235v-272h368v272h235z" />
    <glyph glyph-name="uni041E" unicode="&#x41e;" horiz-adv-x="971" 
d="M148 89.5q-108 99.5 -108 279.5q0 178 107.5 278t337.5 100q231 0 338.5 -100t107.5 -278q0 -181 -107 -280t-339 -99q-229 0 -337 99.5zM645 236.5q49 42.5 49 132.5q0 88 -49 131t-160 43q-110 0 -159 -43t-49 -131q0 -89 49 -132t159 -43q111 0 160 42.5z" />
    <glyph glyph-name="uni041F" unicode="&#x41f;" horiz-adv-x="888" 
d="M841 363q0 -194 7 -363h-235v524h-338v-524h-235q8 194 8 363t-8 363h808q-7 -169 -7 -363z" />
    <glyph glyph-name="uni0420" unicode="&#x420;" horiz-adv-x="889" 
d="M494 725q199 0 277 -70.5t78 -198.5q0 -88 -31 -149.5t-109 -96t-215 -34.5h-208v-176h-246q8 194 8 363t-8 363h246v-1h208zM424 369q83 0 124.5 6.5t58 23.5t16.5 50t-15.5 49.5t-57 22.5t-126.5 6h-138v-158h138z" />
    <glyph glyph-name="uni0421" unicode="&#x421;" 
d="M147 86q-107 96 -107 274q0 179 107 283t333 104q316 0 423 -217q-90 -31 -211 -93q-29 56 -91.5 83t-127.5 27q-96 0 -143 -50.5t-47 -124.5q0 -80 50.5 -130.5t154.5 -50.5q83 0 132 27.5t72 87.5q82 -44 210 -99q-50 -121 -167 -169t-255 -48q-226 0 -333 96z" />
    <glyph glyph-name="uni0422" unicode="&#x422;" horiz-adv-x="939" 
d="M899 516q-157 5 -305 6v-522h-250v522q-149 -1 -304 -6v210h859v-210z" />
    <glyph glyph-name="uni0423" unicode="&#x423;" horiz-adv-x="808" 
d="M795 726q-4 -11 -10 -24.5t-12 -30.5q-55 -136 -101.5 -244.5t-110.5 -246.5q-56 -120 -163.5 -192.5t-270.5 -69.5q-21 87 -33.5 131.5t-33.5 91.5q59 -13 109 -13q49 0 88 13q-72 185 -257 585h249l159 -374l28 67q104 247 117 307h242z" />
    <glyph glyph-name="uni0424" unicode="&#x424;" horiz-adv-x="971" 
d="M600 89l2 -89h-236l1 90q-168 20 -247.5 97t-79.5 202q0 124 79 201.5t248 97.5l-1 92h236q-1 -29 -1 -92q170 -20 250 -97.5t80 -201.5q0 -262 -331 -300zM671.5 325q22.5 25 22.5 64q0 76 -92 99l-1 -88q-1 -37 -1 -112q49 12 71.5 37zM299 326q22 -25 70 -37v111v88
q-92 -23 -92 -99q0 -38 22 -63z" />
    <glyph glyph-name="uni0425" unicode="&#x425;" horiz-adv-x="880" 
d="M575 372l292 -372h-289l-144 196l-145 -196h-289l292 372l-282 354h289l135 -180l134 180h289z" />
    <glyph glyph-name="uni0426" unicode="&#x426;" horiz-adv-x="919" 
d="M889 204v-399h-217v195h-632q8 194 8 363t-8 363h235v-524h338v524h235q-7 -171 -7 -365q0 -105 1 -157h47z" />
    <glyph glyph-name="uni0427" unicode="&#x427;" horiz-adv-x="883" 
d="M836 364q0 -236 7 -362h-252l3 181q-111 -76 -258 -76q-156 0 -223.5 73t-67.5 212v118q0 136 -5 216h237q-6 -147 -6 -274q0 -51 14.5 -82t49 -46t96.5 -15q101 0 164 63v98q0 179 -4 256h252q-7 -126 -7 -362z" />
    <glyph glyph-name="uni0428" unicode="&#x428;" horiz-adv-x="988" 
d="M948 726q-7 -169 -7 -363t7 -363h-908q8 194 8 363t-8 363h235v-524h116v524h217v-524h105v524h235z" />
    <glyph glyph-name="uni0429" unicode="&#x429;" horiz-adv-x="1029" 
d="M989 204v-399h-217v195h-732q8 194 8 363t-8 363h235v-524h116v524h217v-524h105v524h235q-7 -171 -7 -365q0 -105 1 -157h47z" />
    <glyph glyph-name="uni042A" unicode="&#x42a;" horiz-adv-x="976" 
d="M591 550q137 0 215 -34.5t109 -96t31 -149.5q0 -128 -78 -198.5t-277 -70.5h-178v-1h-246q7 167 7 356q0 102 -1 153h-103v217h343v-176h178zM551 199q70 0 105.5 6.5t49.5 22.5t14 49t-15 50t-50.5 23.5t-103.5 6.5h-138v-158h138z" />
    <glyph glyph-name="uni042B" unicode="&#x42b;" horiz-adv-x="1146" 
d="M1104 216q0 -149 2 -216h-236l1 113q2 186 2 287q0 96 -2 272l-1 108h236q-1 -32 -1 -100v-187v-93q-1 -60 -1 -184zM464 550q137 0 215 -34.5t109 -96t31 -149.5q0 -128 -78 -198.5t-277 -70.5h-178v-1h-246q8 194 8 363t-8 363h246v-176h178zM424 199q70 0 105.5 6.5
t49.5 22.5t14 49t-15 50t-50.5 23.5t-103.5 6.5h-138v-158h138z" />
    <glyph glyph-name="uni042C" unicode="&#x42c;" horiz-adv-x="849" 
d="M464 550q137 0 215 -34.5t109 -96t31 -149.5q0 -128 -78 -198.5t-277 -70.5h-178v-1h-246q8 194 8 363t-8 363h246v-176h178zM424 199q70 0 105.5 6.5t49.5 22.5t14 49t-15 50t-50.5 23.5t-103.5 6.5h-138v-158h138z" />
    <glyph glyph-name="uni042D" unicode="&#x42d;" 
d="M796 643q107 -104 107 -283q0 -178 -107 -274t-333 -96q-138 0 -255 48t-167 169q128 55 210 99q23 -60 72 -87.5t132 -27.5q79 0 132.5 24.5t76.5 71.5h-352v168h346q-23 43 -70.5 67.5t-117.5 24.5q-65 0 -127.5 -27t-91.5 -83q-121 62 -211 93q107 217 423 217
q226 0 333 -104z" />
    <glyph glyph-name="uni042E" unicode="&#x42e;" horiz-adv-x="1136" 
d="M1006 647q90 -100 90 -278q0 -181 -89.5 -280t-283.5 -99q-169 0 -259 77.5t-109 219.5h-81v-79q0 -80 2 -208h-236l1 105q2 172 2 267q0 89 -2 253l-1 101h236q-2 -82 -2 -271h82q20 139 109.5 215.5t257.5 76.5q193 0 283 -100zM829 223q38 50 38 146q0 94 -38.5 144.5
t-105.5 50.5t-105.5 -50.5t-38.5 -144.5q0 -95 38.5 -145.5t105.5 -50.5q68 0 106 50z" />
    <glyph glyph-name="uni042F" unicode="&#x42f;" horiz-adv-x="883" 
d="M843 726q-7 -169 -7 -363t7 -363h-236v232h-147q-95 -150 -139 -232h-272l162 225q5 9 17 25q-103 27 -145.5 87t-42.5 147q0 111 80 176t282 65h205v1h236zM607 419v114h-135q-86 0 -130 -5t-60 -17t-16 -34q0 -23 17 -35t60.5 -17.5t128.5 -5.5h135z" />
    <glyph glyph-name="uni0430" unicode="&#x430;" horiz-adv-x="741" 
d="M681 166q0 -34 8 -48t32 -20l-4 -94q-32 -5 -55.5 -7t-62.5 -2q-86 0 -114 38.5t-28 98.5v25q-29 -82 -84.5 -122t-141.5 -40q-100 0 -150.5 40t-50.5 119q0 65 43 102t133 51q-76 54 -152 94q60 76 137 115.5t187 39.5q154 0 228.5 -66.5t74.5 -204.5v-119zM309 363
q-39 -17 -70 -51q60 7 150 7q37 0 52 9t15 23q0 12 -15 20.5t-42 8.5q-51 0 -90 -17zM395 179.5q45 21.5 62 56.5v26q-24 -12 -53 -18.5t-70 -12.5l-36 -6q-56 -11 -56 -38q0 -29 52 -29q56 0 101 21.5z" />
    <glyph glyph-name="uni0431" unicode="&#x431;" horiz-adv-x="774" 
d="M606.5 463.5q66.5 -32.5 102 -86.5t35.5 -119q0 -82 -47 -143t-128 -93t-181 -32q-102 0 -181 44.5t-123 123.5t-44 180q0 200 100 300.5t274 113.5l70 3q105 4 147 10v-190q-35 -5 -116 -9q-64 -4 -92 -7q-52 -7 -98 -30.5t-73 -53t-27 -51.5q45 37 106 54.5t122 17.5
q87 0 153.5 -32.5zM311 338.5q-33 -28.5 -33 -89.5t33 -89t87 -28t87 28t33 89t-33 89.5t-87 28.5t-87 -28.5z" />
    <glyph glyph-name="uni0432" unicode="&#x432;" horiz-adv-x="682" 
d="M652 162q0 -78 -59.5 -120t-214.5 -42h-338q5 114 5 273t-5 273h207v-1h130q94 0 147.5 -15.5t75.5 -44.5t22 -74q0 -101 -141 -140q171 0 171 -109zM247 408v-70h76q46 0 65 8.5t19 30.5q0 17 -19.5 24t-64.5 7h-76zM323 138q57 0 78 8.5t21 30.5q0 19 -22 28t-77 9h-76
v-76h76z" />
    <glyph glyph-name="uni0433" unicode="&#x433;" horiz-adv-x="602" 
d="M253 0h-213q5 115 5 273q0 159 -5 273h562q-1 -35 -1 -140v-54h-348v-352z" />
    <glyph glyph-name="uni0434" unicode="&#x434;" horiz-adv-x="734" 
d="M664 142h30v-269h-189v109h-316v-111h-189v271h33q34 5 51.5 25t27.5 66q7 36 7 172v141l545 -1v-403zM281 142h192v235h-170v-30q-1 -58 -3 -91.5t-11 -80.5q-2 -11 -8 -33z" />
    <glyph glyph-name="uni0435" unicode="&#x435;" horiz-adv-x="725" 
d="M569 250h-326q8 -44 39.5 -71.5t89.5 -27.5q42 0 79 16.5t59 46.5q67 -33 178 -71q-31 -70 -112.5 -111.5t-212.5 -41.5q-170 0 -251.5 78.5t-81.5 206.5q0 125 81 203t252 78q102 0 177 -34t115 -94.5t40 -138.5q0 -26 -2 -39h-124zM295 386q-32 -19 -45 -52h236
q-12 32 -39 51.5t-70 19.5q-50 0 -82 -19z" />
    <glyph glyph-name="uni0436" unicode="&#x436;" horiz-adv-x="768" 
d="M607 298q26 -15 46 -37q34 -36 52 -79.5t36 -109.5q13 -48 22 -72h-193q-4 14 -10 46q-6 36 -12 58t-18 39q-16 24 -35 38.5t-44 21.5q0 -67 4 -203h-149q4 134 4 201q-22 -7 -39 -21.5t-33 -36.5q-12 -17 -18 -39t-12 -58q-6 -32 -10 -46h-193q9 24 22 72
q18 66 36 109.5t52 79.5q20 22 46 37l-161 248h201q42 -96 109 -193q-2 130 -4 193h149q-4 -132 -4 -198l3 -1q68 97 113 199h201z" />
    <glyph glyph-name="uni0437" unicode="&#x437;" horiz-adv-x="667" 
d="M507 281q67 0 98.5 -31t31.5 -73q0 -89 -81 -138t-208 -49q-111 0 -195.5 38t-122.5 128l43 11q93 23 138 44q16 -31 45 -47.5t77 -16.5q54 0 82.5 10t28.5 33q0 18 -32 25t-92 7h-57v132h34q55 0 88 5t33 22t-19 27t-51 10q-52 0 -81.5 -19t-55.5 -62q-79 33 -173 47
q77 171 320 171q71 0 130 -20.5t93 -56t34 -79.5q0 -96 -136 -119q10 1 28 1z" />
    <glyph glyph-name="uni0438" unicode="&#x438;" horiz-adv-x="706" 
d="M666 546q-5 -145 -5 -262q0 -115 5 -262h-205l11 346l-153 -346h-279q6 132 6 262q0 132 -6 262h197l-10 -355l153 355h286z" />
    <glyph glyph-name="uni0439" unicode="&#x439;" horiz-adv-x="706" 
d="M666 546q-5 -145 -5 -262q0 -115 5 -262h-205l11 346l-153 -346h-279q6 132 6 262q0 132 -6 262h197l-10 -355l153 355h286zM256.5 591q-39.5 21 -62.5 60t-23 91h99q0 -39 20.5 -57.5t52.5 -18.5t52.5 18.5t20.5 57.5h99q0 -52 -23 -91t-62.5 -60t-86.5 -21t-86.5 21z
" />
    <glyph glyph-name="uni043A" unicode="&#x43a;" horiz-adv-x="695" 
d="M620 180q24 -45 45 -108q21 -55 30 -72h-241q-3 7 -12 44q-8 37 -16 59.5t-24 39.5q-25 27 -56 35t-92 8v-186h-214q5 114 5 273t-5 273h214v-196h4q119 119 173 196h264l-234 -233q52 -22 90 -52q45 -36 69 -81z" />
    <glyph glyph-name="uni043B" unicode="&#x43b;" horiz-adv-x="703" 
d="M663 -5h-219v362h-142l-1 -31q-1 -48 -3.5 -84.5t-10.5 -78.5q-34 -183 -277 -183v159q47 6 64 29.5t17 73.5v304l572 -1v-550z" />
    <glyph glyph-name="uni043C" unicode="&#x43c;" horiz-adv-x="881" 
d="M803 546l38 -546h-194l-12 391l-76 -391h-237l-77 386l-11 -386h-194l38 546h296l65 -357l58 357h306z" />
    <glyph glyph-name="uni043D" unicode="&#x43d;" horiz-adv-x="710" 
d="M670 546q-5 -152 -5 -273t5 -273h-217v182h-196v-182h-217q5 114 5 273t-5 273h217v-182h196v182h217z" />
    <glyph glyph-name="uni043E" unicode="&#x43e;" horiz-adv-x="736" 
d="M110.5 68.5q-80.5 78.5 -80.5 206.5q0 125 80.5 203t251.5 78q115 0 192.5 -37.5t114.5 -101t37 -142.5q0 -129 -85.5 -207t-258.5 -78q-171 0 -251.5 78.5zM463 191q32 31 32 83q0 49 -32 80.5t-97 31.5t-95 -31t-30 -81q0 -52 30 -83t95 -31t97 31z" />
    <glyph glyph-name="uni043F" unicode="&#x43f;" horiz-adv-x="726" 
d="M40 545h646v-550h-219v362h-208v-362h-219v550z" />
    <glyph glyph-name="uni0440" unicode="&#x440;" horiz-adv-x="734" 
d="M594 519q52 -37 81 -100.5t29 -139.5q0 -75 -29 -141.5t-81.5 -107t-119.5 -40.5q-78 0 -133.5 32.5t-82.5 100.5q0 -57 4 -183q4 -122 4 -172h-226q6 186 6 389t-6 389h192l29 -125q28 70 84 102.5t132 32.5q65 0 117 -37zM445.5 198.5q30.5 28.5 30.5 74.5q0 51 -28 83
t-76 32q-55 0 -83 -26.5t-28 -88.5q0 -35 18 -58.5t43 -34t48 -10.5q45 0 75.5 28.5z" />
    <glyph glyph-name="uni0441" unicode="&#x441;" horiz-adv-x="707" 
d="M275.5 191q30.5 -31 90.5 -31q33 0 59 12.5t48 37.5q85 -33 199 -57q-33 -77 -111.5 -120t-203.5 -43q-167 0 -247 78t-80 205t80 205t247 78q125 0 203.5 -43t111.5 -120q-89 -19 -199 -57q-22 25 -48 37.5t-59 12.5q-60 0 -90.5 -31t-32.5 -82q2 -51 32.5 -82z" />
    <glyph glyph-name="uni0442" unicode="&#x442;" horiz-adv-x="647" 
d="M647 358q-150 4 -218 5v-363h-212v363q-67 -1 -217 -5v188h647v-188z" />
    <glyph glyph-name="uni0443" unicode="&#x443;" horiz-adv-x="698" 
d="M698 546l-23 -58q-95 -253 -199 -488q-54 -120 -156 -192.5t-256 -69.5q-19 83 -31.5 129.5t-32.5 93.5q55 -13 103 -13q78 0 124 33q-36 107 -85 230t-142 335h237q12 -50 33 -116t42 -127q6 -19 19.5 -57.5t21.5 -64.5l26 79q75 217 89 286h230z" />
    <glyph glyph-name="uni0444" unicode="&#x444;" horiz-adv-x="810" 
d="M711.5 92q-68.5 -74 -206.5 -95q0 -158 2 -229h-208l2 228q-139 20 -205 94.5t-66 184.5q0 107 65.5 181t204.5 93l-1 98h208l-1 -99q136 -22 205 -96t69 -177q0 -109 -68.5 -183zM302 163v56q0 109 -1 163q-71 -31 -71 -108q0 -80 72 -111zM561.5 208q18.5 29 18.5 66
q0 35 -18 63.5t-55 44.5q0 -110 -1 -163q0 -37 -1 -56q38 16 56.5 45z" />
    <glyph glyph-name="uni0445" unicode="&#x445;" horiz-adv-x="683" 
d="M473 280l210 -280h-248q-19 38 -70 111l-23 33q-6 -9 -13.5 -19t-14.5 -22q-20 -28 -37.5 -55t-28.5 -48h-248l210 280l-202 266h247q14 -28 54 -87l33 -50l28 43q42 63 58 94h247z" />
    <glyph glyph-name="uni0446" unicode="&#x446;" horiz-adv-x="719" 
d="M679 182v-377h-207v195h-432q6 137 6 273q0 137 -6 273h207v-364h194v364h207q-6 -135 -6 -270q0 -63 1 -94h36z" />
    <glyph glyph-name="uni0447" unicode="&#x447;" horiz-adv-x="683" 
d="M638 274q0 -159 5 -272h-219l2 109q-76 -45 -164 -45q-115 0 -166.5 67.5t-51.5 176.5v65q0 117 -4 171h208q-5 -123 -5 -206q0 -56 21.5 -81.5t69.5 -25.5q24 0 48.5 11.5t44.5 30.5q0 213 -3 271h219q-5 -112 -5 -272z" />
    <glyph glyph-name="uni0448" unicode="&#x448;" horiz-adv-x="822" 
d="M782 546q-5 -152 -5 -273t5 -273h-742q5 114 5 273t-5 273h206v-364h77v364h177v-364h76v364h206z" />
    <glyph glyph-name="uni0449" unicode="&#x449;" horiz-adv-x="867" 
d="M827 182v-377h-207v195h-580q5 114 5 273t-5 273h206v-364h77v364h177v-364h76v364h206q-5 -117 -5 -282v-82h50z" />
    <glyph glyph-name="uni044A" unicode="&#x44a;" horiz-adv-x="715" 
d="M418 424q149 0 208 -58.5t59 -162.5q0 -97 -58.5 -149.5t-208.5 -52.5h-133v-1h-214q5 119 5 283v82h-66v181h275v-122h133zM358 160q71 0 99 11t28 43t-29 43.5t-98 11.5l-73 -1v-108h73z" />
    <glyph glyph-name="uni044B" unicode="&#x44b;" horiz-adv-x="952" 
d="M387 424q149 0 208 -58.5t59 -162.5q0 -97 -58.5 -149.5t-208.5 -52.5h-133v-1h-214q5 114 5 273t-5 273h214v-122h133zM907 274q0 -159 5 -272h-219q3 201 3 338t-3 206h219q-5 -112 -5 -272zM327 160q71 0 99 11t28 43t-29 43.5t-98 11.5l-73 -1v-108h73z" />
    <glyph glyph-name="uni044C" unicode="&#x44c;" horiz-adv-x="684" 
d="M387 424q149 0 208 -58.5t59 -162.5q0 -97 -58.5 -149.5t-208.5 -52.5h-133v-1h-214q5 114 5 273t-5 273h214v-122h133zM327 160q71 0 99 11t28 43t-29 43.5t-98 11.5l-73 -1v-108h73z" />
    <glyph glyph-name="uni044D" unicode="&#x44d;" horiz-adv-x="715" 
d="M600.5 476.5q84.5 -78.5 84.5 -210.5t-84.5 -204t-254.5 -72q-103 0 -190.5 35.5t-124.5 126.5q106 46 157 74q18 -38 54.5 -57t98.5 -19q119 0 154 61h-261v126h256q-36 58 -139 58q-47 0 -94.5 -18t-68.5 -54q-92 47 -158 70q80 162 316 162q170 0 254.5 -78.5z" />
    <glyph glyph-name="uni044E" unicode="&#x44e;" horiz-adv-x="902" 
d="M794.5 481q67.5 -75 67.5 -208q0 -135 -67 -209t-212 -74q-121 0 -188 53.5t-85 152.5h-63v-55q0 -54 2 -144h-209q2 172 2 279q0 108 -2 270h209q-2 -114 -2 -192h64q18 96 85 149t187 53q144 0 211.5 -75zM650 180q25 32 25 93q0 60 -25 92t-67 32q-43 0 -67.5 -32
t-24.5 -92q0 -61 25 -93t67 -32t67 32z" />
    <glyph glyph-name="uni044F" unicode="&#x44f;" horiz-adv-x="693" 
d="M653 546q-5 -152 -5 -273t5 -273h-197v174h-81q-69 -109 -104 -174h-235q80 109 135 188q-77 20 -109 65t-32 111q0 83 60 132t212 49h154v1h197zM456 315v86h-90q-73 0 -98.5 -9t-25.5 -33q0 -25 26.5 -34.5t97.5 -9.5h90z" />
    <glyph glyph-name="uni0450" unicode="&#x450;" horiz-adv-x="725" 
d="M569 250h-326q8 -44 39.5 -71.5t89.5 -27.5q42 0 79 16.5t59 46.5q67 -33 178 -71q-31 -70 -112.5 -111.5t-212.5 -41.5q-170 0 -251.5 78.5t-81.5 206.5q0 125 81 203t252 78q102 0 177 -34t115 -94.5t40 -138.5q0 -26 -2 -39h-124zM295 386q-32 -19 -45 -52h236
q-12 32 -39 51.5t-70 19.5q-50 0 -82 -19zM317 597l-82 155h185l24 -155h-127z" />
    <glyph glyph-name="uni0451" unicode="&#x451;" horiz-adv-x="725" 
d="M569 250h-326q8 -44 39.5 -71.5t89.5 -27.5q42 0 79 16.5t59 46.5q67 -33 178 -71q-31 -70 -112.5 -111.5t-212.5 -41.5q-170 0 -251.5 78.5t-81.5 206.5q0 125 81 203t252 78q102 0 177 -34t115 -94.5t40 -138.5q0 -26 -2 -39h-124zM295 386q-32 -19 -45 -52h236
q-12 32 -39 51.5t-70 19.5q-50 0 -82 -19zM237 603q-19 19 -19 46q0 26 19 45t46 19q26 0 45 -19t19 -45q0 -27 -19 -46t-45 -19q-27 0 -46 19zM398 603q-19 19 -19 46q0 26 19 45t46 19q26 0 45 -19t19 -45q0 -27 -19 -46t-45 -19q-27 0 -46 19z" />
    <glyph glyph-name="uni0452" unicode="&#x452;" horiz-adv-x="729" 
d="M600 529.5q44 -26.5 66.5 -71.5t22.5 -101q0 -100 -2 -208q-1 -35 -1 -87q0 -155 -83 -235t-236 -86l-10 181q45 8 75 40.5t39 79.5q4 104 4 229q0 44 -21.5 70t-54.5 26q-35 0 -59.5 -34t-24.5 -93l-1 2q0 -163 4 -242h-239q7 123 7 382q0 127 -1 186h-65v156h62l-3 56
h238v-56h67v-156h-66v-96l-1 -53q24 70 71.5 103.5t107.5 33.5t104 -26.5z" />
    <glyph glyph-name="uni0453" unicode="&#x453;" horiz-adv-x="602" 
d="M253 0h-213q5 115 5 273q0 159 -5 273h562q-1 -35 -1 -140v-54h-348v-352zM363 570h-127l24 155h185z" />
    <glyph glyph-name="uni0454" unicode="&#x454;" horiz-adv-x="715" 
d="M472.5 169q36.5 19 54.5 57q51 -28 157 -74q-37 -91 -124.5 -126.5t-190.5 -35.5q-170 0 -254.5 72t-84.5 204t84.5 210.5t254.5 78.5q236 0 316 -162q-66 -23 -158 -70q-21 36 -68.5 54t-94.5 18q-103 0 -139 -58h256v-126h-261q35 -61 154 -61q62 0 98.5 19z" />
    <glyph glyph-name="uni0455" unicode="&#x455;" horiz-adv-x="709" 
d="M192.5 13.5q-86.5 23.5 -162.5 71.5l105 143q46 -33 111 -51.5t112 -18.5q45 0 69.5 12.5t24.5 32.5q0 16 -12 25t-33 9q-13 0 -29.5 -1t-26.5 -2q-52 -6 -107 -6q-89 0 -144.5 33.5t-55.5 109.5q0 88 83 136.5t244 48.5q79 0 159.5 -22.5t142.5 -67.5l-115 -116
q-57 30 -106.5 42.5t-99.5 12.5q-35 0 -60 -14t-25 -32q0 -14 10.5 -22t27.5 -8t47 3q73 5 109 5q104 0 161 -35t57 -107q0 -108 -84 -156.5t-232 -48.5q-84 0 -170.5 23.5z" />
    <glyph glyph-name="uni0456" unicode="&#x456;" horiz-adv-x="348" 
d="M80.5 636q-30.5 31 -30.5 81q0 49 30.5 81t93.5 32q60 0 92 -32.5t32 -80.5q0 -50 -31 -81t-93 -31q-63 0 -93.5 31zM58 0q7 161 7 266q0 125 -8 280h240q-8 -149 -8 -280q0 -110 7 -266h-238z" />
    <glyph glyph-name="uni0457" unicode="&#x457;" horiz-adv-x="340" 
d="M51 0q7 161 7 266q0 125 -8 280h240q-8 -149 -8 -280q0 -110 7 -266h-238zM44 605q-19 19 -19 46q0 26 19 45t46 19q26 0 45 -19t19 -45q0 -27 -19 -46t-45 -19q-27 0 -46 19zM205 605q-19 19 -19 46q0 26 19 45t46 19q26 0 45 -19t19 -45q0 -27 -19 -46t-45 -19
q-27 0 -46 19z" />
    <glyph glyph-name="uni0458" unicode="&#x458;" horiz-adv-x="323" 
d="M65.5 636q-30.5 31 -30.5 81q0 49 30.5 81t93.5 32q60 0 92 -32.5t32 -80.5q0 -50 -31 -81t-93 -31q-63 0 -93.5 31zM282 546q-6 -100 -6 -232l1 -130q1 -40 1 -119q0 -155 -69 -221t-202 -66q-31 0 -64 3v31q0 60 -13 117l19 -1q50 0 74.5 23.5t25.5 78.5q2 90 2 143
q0 193 -9 373h240z" />
    <glyph glyph-name="uni0459" unicode="&#x459;" horiz-adv-x="1014" 
d="M717 423q149 0 208 -58.5t59 -162.5q0 -97 -58.5 -149.5t-208.5 -52.5h-280v357h-105l-1 -31q-1 -48 -3.5 -84.5t-10.5 -78.5q-34 -183 -277 -183v159q47 6 64 29.5t17 73.5v304l535 -1v-122h61zM657 159q71 0 99 11t28 43t-29 44t-98 11h-1v-109h1z" />
    <glyph glyph-name="uni045A" unicode="&#x45a;" horiz-adv-x="1014" 
d="M717 423q149 0 208 -58.5t59 -162.5q0 -97 -58.5 -149.5t-208.5 -52.5h-283v182h-177v-182h-217q5 114 5 273t-5 273h217v-182h177v182h217q-2 -41 -4 -123h70zM657 159q71 0 99 11t28 43t-29 44t-98 11h-11q0 -73 1 -109h10z" />
    <glyph glyph-name="uni045B" unicode="&#x45b;" horiz-adv-x="695" 
d="M430 0q6 147 6 271q0 44 -21.5 70t-54.5 26q-35 0 -59.5 -34t-24.5 -93l-1 2q0 -163 4 -242h-239q7 123 7 382q0 127 -1 186h-65v156h62l-3 56h238v-56h67v-156h-66v-96l-1 -53q24 70 71.5 103.5t107.5 33.5t104 -26.5t66.5 -71.5t22.5 -101v-144q0 -133 5 -213h-225z
" />
    <glyph glyph-name="uni045C" unicode="&#x45c;" horiz-adv-x="695" 
d="M620 180q24 -45 45 -108q21 -55 30 -72h-241q-3 7 -12 44q-8 37 -16 59.5t-24 39.5q-25 27 -56 35t-92 8v-186h-214q5 114 5 273t-5 273h214v-196h4q119 119 173 196h264l-234 -233q52 -22 90 -52q45 -36 69 -81zM380 580h-127l24 155h185z" />
    <glyph glyph-name="uni045D" unicode="&#x45d;" horiz-adv-x="706" 
d="M666 546q-5 -145 -5 -262q0 -115 5 -262h-205l11 346l-153 -346h-279q6 132 6 262q0 132 -6 262h197l-10 -355l153 355h286zM297 581l-82 155h185l24 -155h-127z" />
    <glyph glyph-name="uni045F" unicode="&#x45f;" horiz-adv-x="688" 
d="M648 546q-6 -136 -6 -273q0 -136 6 -273h-199v-195h-207v195h-202q6 137 6 273q0 137 -6 273h207v-364h194v364h207z" />
    <glyph glyph-name="uni0490" unicode="&#x490;" horiz-adv-x="788" 
d="M748 856v-130q-2 -82 -2 -125q0 -53 1 -80h-463v-521h-244q8 195 8 363q0 169 -8 363h487v130h221z" />
    <glyph glyph-name="uni0491" unicode="&#x491;" horiz-adv-x="602" 
d="M602 653v-107q-1 -35 -1 -140v-54h-348v-352h-213q5 115 5 273q0 159 -5 273h365v107h197z" />
    <glyph glyph-name="Wgrave" unicode="&#x1e80;" horiz-adv-x="1096" 
d="M760 273l52 453h244l-134 -726h-307l-68 405l-79 -405h-294l-134 726h244l51 -447l80 447h267zM502 763l-82 155h185l24 -155h-127z" />
    <glyph glyph-name="wgrave" unicode="&#x1e81;" horiz-adv-x="880" 
d="M595 154l86 392h199l-111 -546h-267l-63 255l-71 -255h-257l-111 546h199l85 -391l58 391h197zM394 587l-82 155h185l24 -155h-127z" />
    <glyph glyph-name="Wacute" unicode="&#x1e82;" horiz-adv-x="1096" 
d="M760 273l52 453h244l-134 -726h-307l-68 405l-79 -405h-294l-134 726h244l51 -447l80 447h267zM605 761h-127l24 155h185z" />
    <glyph glyph-name="wacute" unicode="&#x1e83;" horiz-adv-x="880" 
d="M595 154l86 392h199l-111 -546h-267l-63 255l-71 -255h-257l-111 546h199l85 -391l58 391h197zM497 585h-127l24 155h185z" />
    <glyph glyph-name="Wdieresis" unicode="&#x1e84;" horiz-adv-x="1096" 
d="M760 273l52 453h244l-134 -726h-307l-68 405l-79 -405h-294l-134 726h244l51 -447l80 447h267zM422 781q-19 19 -19 46q0 26 19 45t46 19q26 0 45 -19t19 -45q0 -27 -19 -46t-45 -19q-27 0 -46 19zM583 781q-19 19 -19 46q0 26 19 45t46 19q26 0 45 -19t19 -45
q0 -27 -19 -46t-45 -19q-27 0 -46 19z" />
    <glyph glyph-name="wdieresis" unicode="&#x1e85;" horiz-adv-x="880" 
d="M595 154l86 392h199l-111 -546h-267l-63 255l-71 -255h-257l-111 546h199l85 -391l58 391h197zM314 605q-19 19 -19 46q0 26 19 45t46 19q26 0 45 -19t19 -45q0 -27 -19 -46t-45 -19q-27 0 -46 19zM475 605q-19 19 -19 46q0 26 19 45t46 19q26 0 45 -19t19 -45
q0 -27 -19 -46t-45 -19q-27 0 -46 19z" />
    <glyph glyph-name="uni1E9E" unicode="&#x1e9e;" horiz-adv-x="832" 
d="M562 395q122 -5 176 -54.5t54 -130.5q0 -59 -38.5 -109t-113.5 -80t-181 -30q-68 0 -134 11l-19 208q101 -26 162 -26q48 0 70.5 13.5t22.5 36.5t-29.5 39.5t-89.5 16.5q-53 0 -120 -14v145l169 115q-23 26 -86 26t-101.5 -28.5t-38.5 -84.5v-449h-225q7 139 7 297l-1 91
q-1 22 -1 60q0 96 49.5 161t129 96t171.5 31q96 0 172 -25.5t122 -69t57 -95.5z" />
    <glyph glyph-name="uni1EA0" unicode="&#x1ea0;" 
d="M671 0q-19 57 -51 143h-319l-50 -143h-251l280 726h368l282 -726h-259zM563 299q-38 105 -78 210l-24 65q-35 -91 -103 -275h205zM415.5 -167q-23.5 24 -23.5 57t23 56.5t57 23.5q32 0 56 -23.5t24 -56.5t-24 -57t-56 -24q-33 0 -56.5 24z" />
    <glyph glyph-name="uni1EA1" unicode="&#x1ea1;" horiz-adv-x="741" 
d="M681 166q0 -34 8 -48t32 -20l-4 -94q-32 -5 -55.5 -7t-62.5 -2q-86 0 -114 38.5t-28 98.5v25q-29 -82 -84.5 -122t-141.5 -40q-100 0 -150.5 40t-50.5 119q0 65 43 102t133 51q-76 54 -152 94q60 76 137 115.5t187 39.5q154 0 228.5 -66.5t74.5 -204.5v-119zM309 363
q-39 -17 -70 -51q60 7 150 7q37 0 52 9t15 23q0 12 -15 20.5t-42 8.5q-51 0 -90 -17zM395 179.5q45 21.5 62 56.5v26q-24 -12 -53 -18.5t-70 -12.5l-36 -6q-56 -11 -56 -38q0 -29 52 -29q56 0 101 21.5zM314.5 -170q-23.5 24 -23.5 57t23 56.5t57 23.5q32 0 56 -23.5
t24 -56.5t-24 -57t-56 -24q-33 0 -56.5 24z" />
    <glyph glyph-name="uni1EA2" unicode="&#x1ea2;" 
d="M671 0q-19 57 -51 143h-319l-50 -143h-251l280 726h368l282 -726h-259zM563 299q-38 105 -78 210l-24 65q-35 -91 -103 -275h205zM427 786q15 7 24.5 18.5t9.5 22.5t-7.5 17.5t-21.5 6.5t-32 -8t-36 -24v91q55 33 106 33q40 0 64.5 -22t24.5 -64q0 -33 -24.5 -62
t-74.5 -50z" />
    <glyph glyph-name="uni1EA3" unicode="&#x1ea3;" horiz-adv-x="741" 
d="M681 166q0 -34 8 -48t32 -20l-4 -94q-32 -5 -55.5 -7t-62.5 -2q-86 0 -114 38.5t-28 98.5v25q-29 -82 -84.5 -122t-141.5 -40q-100 0 -150.5 40t-50.5 119q0 65 43 102t133 51q-76 54 -152 94q60 76 137 115.5t187 39.5q154 0 228.5 -66.5t74.5 -204.5v-119zM309 363
q-39 -17 -70 -51q60 7 150 7q37 0 52 9t15 23q0 12 -15 20.5t-42 8.5q-51 0 -90 -17zM395 179.5q45 21.5 62 56.5v26q-24 -12 -53 -18.5t-70 -12.5l-36 -6q-56 -11 -56 -38q0 -29 52 -29q56 0 101 21.5zM313 607q29 12 46.5 35t17.5 46q0 11 -7.5 17.5t-21.5 6.5t-32 -8
t-36 -24v91q55 33 106 33q40 0 64.5 -22t24.5 -64q0 -45 -32 -84.5t-97 -67.5z" />
    <glyph glyph-name="uni1EA4" unicode="&#x1ea4;" 
d="M671 0q-19 57 -51 143h-319l-50 -143h-251l280 726h368l282 -726h-259zM563 299q-38 105 -78 210l-24 65q-35 -91 -103 -275h205zM554 911l85 -145h-131l-47 86l-47 -86h-130l85 145h185zM519 951h-127l24 155h185z" />
    <glyph glyph-name="uni1EA5" unicode="&#x1ea5;" horiz-adv-x="741" 
d="M681 166q0 -34 8 -48t32 -20l-4 -94q-32 -5 -55.5 -7t-62.5 -2q-86 0 -114 38.5t-28 98.5v25q-29 -82 -84.5 -122t-141.5 -40q-100 0 -150.5 40t-50.5 119q0 65 43 102t133 51q-76 54 -152 94q60 76 137 115.5t187 39.5q154 0 228.5 -66.5t74.5 -204.5v-119zM309 363
q-39 -17 -70 -51q60 7 150 7q37 0 52 9t15 23q0 12 -15 20.5t-42 8.5q-51 0 -90 -17zM395 179.5q45 21.5 62 56.5v26q-24 -12 -53 -18.5t-70 -12.5l-36 -6q-56 -11 -56 -38q0 -29 52 -29q56 0 101 21.5zM470 741l85 -145h-131l-47 86l-47 -86h-130l85 145h185zM410 772h-127
l24 155h185z" />
    <glyph glyph-name="uni1EA6" unicode="&#x1ea6;" 
d="M671 0q-19 57 -51 143h-319l-50 -143h-251l280 726h368l282 -726h-259zM563 299q-38 105 -78 210l-24 65q-35 -91 -103 -275h205zM554 911l85 -145h-131l-47 86l-47 -86h-130l85 145h185zM416 953l-82 155h185l24 -155h-127z" />
    <glyph glyph-name="uni1EA7" unicode="&#x1ea7;" horiz-adv-x="741" 
d="M681 166q0 -34 8 -48t32 -20l-4 -94q-32 -5 -55.5 -7t-62.5 -2q-86 0 -114 38.5t-28 98.5v25q-29 -82 -84.5 -122t-141.5 -40q-100 0 -150.5 40t-50.5 119q0 65 43 102t133 51q-76 54 -152 94q60 76 137 115.5t187 39.5q154 0 228.5 -66.5t74.5 -204.5v-119zM309 363
q-39 -17 -70 -51q60 7 150 7q37 0 52 9t15 23q0 12 -15 20.5t-42 8.5q-51 0 -90 -17zM395 179.5q45 21.5 62 56.5v26q-24 -12 -53 -18.5t-70 -12.5l-36 -6q-56 -11 -56 -38q0 -29 52 -29q56 0 101 21.5zM470 741l85 -145h-131l-47 86l-47 -86h-130l85 145h185zM332 783
l-82 155h185l24 -155h-127z" />
    <glyph glyph-name="uni1EA8" unicode="&#x1ea8;" 
d="M671 0q-19 57 -51 143h-319l-50 -143h-251l280 726h368l282 -726h-259zM563 299q-38 105 -78 210l-24 65q-35 -91 -103 -275h205zM554 911l85 -145h-131l-47 86l-47 -86h-130l85 145h185zM427 972q15 7 24.5 18.5t9.5 22.5t-7.5 17.5t-21.5 6.5t-32 -8t-36 -24v91
q55 33 106 33q40 0 64.5 -22t24.5 -64q0 -33 -24.5 -62t-74.5 -50z" />
    <glyph glyph-name="uni1EA9" unicode="&#x1ea9;" horiz-adv-x="741" 
d="M681 166q0 -34 8 -48t32 -20l-4 -94q-32 -5 -55.5 -7t-62.5 -2q-86 0 -114 38.5t-28 98.5v25q-29 -82 -84.5 -122t-141.5 -40q-100 0 -150.5 40t-50.5 119q0 65 43 102t133 51q-76 54 -152 94q60 76 137 115.5t187 39.5q154 0 228.5 -66.5t74.5 -204.5v-119zM309 363
q-39 -17 -70 -51q60 7 150 7q37 0 52 9t15 23q0 12 -15 20.5t-42 8.5q-51 0 -90 -17zM395 179.5q45 21.5 62 56.5v26q-24 -12 -53 -18.5t-70 -12.5l-36 -6q-56 -11 -56 -38q0 -29 52 -29q56 0 101 21.5zM470 741l85 -145h-131l-47 86l-47 -86h-130l85 145h185zM313 793
q29 12 46.5 35t17.5 46q0 11 -7.5 17.5t-21.5 6.5t-32 -8t-36 -24v91q55 33 106 33q40 0 64.5 -22t24.5 -64q0 -45 -32 -84.5t-97 -67.5z" />
    <glyph glyph-name="uni1EAA" unicode="&#x1eaa;" 
d="M671 0q-19 57 -51 143h-319l-50 -143h-251l280 726h368l282 -726h-259zM563 299q-38 105 -78 210l-24 65q-35 -91 -103 -275h205zM554 911l85 -145h-131l-47 86l-47 -86h-130l85 145h185zM638 1062q0 -53 -29 -86.5t-83 -33.5q-41 0 -78 29q-9 8 -19 20q-8 10 -14 14.5
t-13 4.5q-9 0 -14 -7.5t-3 -18.5h-99q0 47 30 83.5t82 36.5q46 0 83 -32l15 -16q15 -19 25 -19t14 5.5t4 19.5h99z" />
    <glyph glyph-name="uni1EAB" unicode="&#x1eab;" horiz-adv-x="741" 
d="M681 166q0 -34 8 -48t32 -20l-4 -94q-32 -5 -55.5 -7t-62.5 -2q-86 0 -114 38.5t-28 98.5v25q-29 -82 -84.5 -122t-141.5 -40q-100 0 -150.5 40t-50.5 119q0 65 43 102t133 51q-76 54 -152 94q60 76 137 115.5t187 39.5q154 0 228.5 -66.5t74.5 -204.5v-119zM309 363
q-39 -17 -70 -51q60 7 150 7q37 0 52 9t15 23q0 12 -15 20.5t-42 8.5q-51 0 -90 -17zM395 179.5q45 21.5 62 56.5v26q-24 -12 -53 -18.5t-70 -12.5l-36 -6q-56 -11 -56 -38q0 -29 52 -29q56 0 101 21.5zM470 741l85 -145h-131l-47 86l-47 -86h-130l85 145h185zM554 886
q0 -53 -29 -86.5t-83 -33.5q-41 0 -78 29q-9 8 -19 20q-8 10 -14 14.5t-13 4.5q-9 0 -14 -7.5t-3 -18.5h-99q0 47 30 83.5t82 36.5q46 0 83 -32l15 -16q15 -19 25 -19t14 5.5t4 19.5h99z" />
    <glyph glyph-name="uni1EAC" unicode="&#x1eac;" 
d="M671 0q-19 57 -51 143h-319l-50 -143h-251l280 726h368l282 -726h-259zM563 299q-38 105 -78 210l-24 65q-35 -91 -103 -275h205zM415.5 -167q-23.5 24 -23.5 57t23 56.5t57 23.5q32 0 56 -23.5t24 -56.5t-24 -57t-56 -24q-33 0 -56.5 24zM554 911l85 -145h-131l-47 86
l-47 -86h-130l85 145h185z" />
    <glyph glyph-name="uni1EAD" unicode="&#x1ead;" horiz-adv-x="741" 
d="M681 166q0 -34 8 -48t32 -20l-4 -94q-32 -5 -55.5 -7t-62.5 -2q-86 0 -114 38.5t-28 98.5v25q-29 -82 -84.5 -122t-141.5 -40q-100 0 -150.5 40t-50.5 119q0 65 43 102t133 51q-76 54 -152 94q60 76 137 115.5t187 39.5q154 0 228.5 -66.5t74.5 -204.5v-119zM309 363
q-39 -17 -70 -51q60 7 150 7q37 0 52 9t15 23q0 12 -15 20.5t-42 8.5q-51 0 -90 -17zM395 179.5q45 21.5 62 56.5v26q-24 -12 -53 -18.5t-70 -12.5l-36 -6q-56 -11 -56 -38q0 -29 52 -29q56 0 101 21.5zM470 741l85 -145h-131l-47 86l-47 -86h-130l85 145h185zM314.5 -170
q-23.5 24 -23.5 57t23 56.5t57 23.5q32 0 56 -23.5t24 -56.5t-24 -57t-56 -24q-33 0 -56.5 24z" />
    <glyph glyph-name="uni1EAE" unicode="&#x1eae;" 
d="M671 0q-19 57 -51 143h-319l-50 -143h-251l280 726h368l282 -726h-259zM563 299q-38 105 -78 210l-24 65q-35 -91 -103 -275h205zM375.5 777q-39.5 21 -62.5 60t-23 91h99q0 -39 20.5 -57.5t52.5 -18.5t52.5 18.5t20.5 57.5h99q0 -52 -23 -91t-62.5 -60t-86.5 -21
t-86.5 21zM519 967h-127l24 155h185z" />
    <glyph glyph-name="uni1EAF" unicode="&#x1eaf;" horiz-adv-x="741" 
d="M681 166q0 -34 8 -48t32 -20l-4 -94q-32 -5 -55.5 -7t-62.5 -2q-86 0 -114 38.5t-28 98.5v25q-29 -82 -84.5 -122t-141.5 -40q-100 0 -150.5 40t-50.5 119q0 65 43 102t133 51q-76 54 -152 94q60 76 137 115.5t187 39.5q154 0 228.5 -66.5t74.5 -204.5v-119zM309 363
q-39 -17 -70 -51q60 7 150 7q37 0 52 9t15 23q0 12 -15 20.5t-42 8.5q-51 0 -90 -17zM395 179.5q45 21.5 62 56.5v26q-24 -12 -53 -18.5t-70 -12.5l-36 -6q-56 -11 -56 -38q0 -29 52 -29q56 0 101 21.5zM291.5 607q-39.5 21 -62.5 60t-23 91h99q0 -39 20.5 -57.5t52.5 -18.5
t52.5 18.5t20.5 57.5h99q0 -52 -23 -91t-62.5 -60t-86.5 -21t-86.5 21zM410 788h-127l24 155h185z" />
    <glyph glyph-name="uni1EB0" unicode="&#x1eb0;" 
d="M671 0q-19 57 -51 143h-319l-50 -143h-251l280 726h368l282 -726h-259zM563 299q-38 105 -78 210l-24 65q-35 -91 -103 -275h205zM375.5 777q-39.5 21 -62.5 60t-23 91h99q0 -39 20.5 -57.5t52.5 -18.5t52.5 18.5t20.5 57.5h99q0 -52 -23 -91t-62.5 -60t-86.5 -21
t-86.5 21zM416 969l-82 155h185l24 -155h-127z" />
    <glyph glyph-name="uni1EB1" unicode="&#x1eb1;" horiz-adv-x="741" 
d="M681 166q0 -34 8 -48t32 -20l-4 -94q-32 -5 -55.5 -7t-62.5 -2q-86 0 -114 38.5t-28 98.5v25q-29 -82 -84.5 -122t-141.5 -40q-100 0 -150.5 40t-50.5 119q0 65 43 102t133 51q-76 54 -152 94q60 76 137 115.5t187 39.5q154 0 228.5 -66.5t74.5 -204.5v-119zM309 363
q-39 -17 -70 -51q60 7 150 7q37 0 52 9t15 23q0 12 -15 20.5t-42 8.5q-51 0 -90 -17zM395 179.5q45 21.5 62 56.5v26q-24 -12 -53 -18.5t-70 -12.5l-36 -6q-56 -11 -56 -38q0 -29 52 -29q56 0 101 21.5zM291.5 607q-39.5 21 -62.5 60t-23 91h99q0 -39 20.5 -57.5t52.5 -18.5
t52.5 18.5t20.5 57.5h99q0 -52 -23 -91t-62.5 -60t-86.5 -21t-86.5 21zM332 799l-82 155h185l24 -155h-127z" />
    <glyph glyph-name="uni1EB2" unicode="&#x1eb2;" 
d="M671 0q-19 57 -51 143h-319l-50 -143h-251l280 726h368l282 -726h-259zM563 299q-38 105 -78 210l-24 65q-35 -91 -103 -275h205zM375.5 777q-39.5 21 -62.5 60t-23 91h99q0 -39 20.5 -57.5t52.5 -18.5t52.5 18.5t20.5 57.5h99q0 -52 -23 -91t-62.5 -60t-86.5 -21
t-86.5 21zM427 988q15 7 24.5 18.5t9.5 22.5t-7.5 17.5t-21.5 6.5t-32 -8t-36 -24v91q55 33 106 33q40 0 64.5 -22t24.5 -64q0 -33 -24.5 -62t-74.5 -50z" />
    <glyph glyph-name="uni1EB3" unicode="&#x1eb3;" horiz-adv-x="741" 
d="M681 166q0 -34 8 -48t32 -20l-4 -94q-32 -5 -55.5 -7t-62.5 -2q-86 0 -114 38.5t-28 98.5v25q-29 -82 -84.5 -122t-141.5 -40q-100 0 -150.5 40t-50.5 119q0 65 43 102t133 51q-76 54 -152 94q60 76 137 115.5t187 39.5q154 0 228.5 -66.5t74.5 -204.5v-119zM309 363
q-39 -17 -70 -51q60 7 150 7q37 0 52 9t15 23q0 12 -15 20.5t-42 8.5q-51 0 -90 -17zM395 179.5q45 21.5 62 56.5v26q-24 -12 -53 -18.5t-70 -12.5l-36 -6q-56 -11 -56 -38q0 -29 52 -29q56 0 101 21.5zM291.5 607q-39.5 21 -62.5 60t-23 91h99q0 -39 20.5 -57.5t52.5 -18.5
t52.5 18.5t20.5 57.5h99q0 -52 -23 -91t-62.5 -60t-86.5 -21t-86.5 21zM313 809q29 12 46.5 35t17.5 46q0 11 -7.5 17.5t-21.5 6.5t-32 -8t-36 -24v91q55 33 106 33q40 0 64.5 -22t24.5 -64q0 -45 -32 -84.5t-97 -67.5z" />
    <glyph glyph-name="uni1EB4" unicode="&#x1eb4;" 
d="M671 0q-19 57 -51 143h-319l-50 -143h-251l280 726h368l282 -726h-259zM563 299q-38 105 -78 210l-24 65q-35 -91 -103 -275h205zM375.5 777q-39.5 21 -62.5 60t-23 91h99q0 -39 20.5 -57.5t52.5 -18.5t52.5 18.5t20.5 57.5h99q0 -52 -23 -91t-62.5 -60t-86.5 -21
t-86.5 21zM638 1078q0 -53 -29 -86.5t-83 -33.5q-41 0 -78 29q-9 8 -19 20q-8 10 -14 14.5t-13 4.5q-9 0 -14 -7.5t-3 -18.5h-99q0 47 30 83.5t82 36.5q46 0 83 -32l15 -16q15 -19 25 -19t14 5.5t4 19.5h99z" />
    <glyph glyph-name="uni1EB5" unicode="&#x1eb5;" horiz-adv-x="741" 
d="M681 166q0 -34 8 -48t32 -20l-4 -94q-32 -5 -55.5 -7t-62.5 -2q-86 0 -114 38.5t-28 98.5v25q-29 -82 -84.5 -122t-141.5 -40q-100 0 -150.5 40t-50.5 119q0 65 43 102t133 51q-76 54 -152 94q60 76 137 115.5t187 39.5q154 0 228.5 -66.5t74.5 -204.5v-119zM309 363
q-39 -17 -70 -51q60 7 150 7q37 0 52 9t15 23q0 12 -15 20.5t-42 8.5q-51 0 -90 -17zM395 179.5q45 21.5 62 56.5v26q-24 -12 -53 -18.5t-70 -12.5l-36 -6q-56 -11 -56 -38q0 -29 52 -29q56 0 101 21.5zM291.5 607q-39.5 21 -62.5 60t-23 91h99q0 -39 20.5 -57.5t52.5 -18.5
t52.5 18.5t20.5 57.5h99q0 -52 -23 -91t-62.5 -60t-86.5 -21t-86.5 21zM554 902q0 -53 -29 -86.5t-83 -33.5q-41 0 -78 29q-9 8 -19 20q-8 10 -14 14.5t-13 4.5q-9 0 -14 -7.5t-3 -18.5h-99q0 47 30 83.5t82 36.5q46 0 83 -32l15 -16q15 -19 25 -19t14 5.5t4 19.5h99z" />
    <glyph glyph-name="uni1EB6" unicode="&#x1eb6;" 
d="M671 0q-19 57 -51 143h-319l-50 -143h-251l280 726h368l282 -726h-259zM563 299q-38 105 -78 210l-24 65q-35 -91 -103 -275h205zM415.5 -167q-23.5 24 -23.5 57t23 56.5t57 23.5q32 0 56 -23.5t24 -56.5t-24 -57t-56 -24q-33 0 -56.5 24zM375.5 777q-39.5 21 -62.5 60
t-23 91h99q0 -39 20.5 -57.5t52.5 -18.5t52.5 18.5t20.5 57.5h99q0 -52 -23 -91t-62.5 -60t-86.5 -21t-86.5 21z" />
    <glyph glyph-name="uni1EB7" unicode="&#x1eb7;" horiz-adv-x="741" 
d="M681 166q0 -34 8 -48t32 -20l-4 -94q-32 -5 -55.5 -7t-62.5 -2q-86 0 -114 38.5t-28 98.5v25q-29 -82 -84.5 -122t-141.5 -40q-100 0 -150.5 40t-50.5 119q0 65 43 102t133 51q-76 54 -152 94q60 76 137 115.5t187 39.5q154 0 228.5 -66.5t74.5 -204.5v-119zM309 363
q-39 -17 -70 -51q60 7 150 7q37 0 52 9t15 23q0 12 -15 20.5t-42 8.5q-51 0 -90 -17zM395 179.5q45 21.5 62 56.5v26q-24 -12 -53 -18.5t-70 -12.5l-36 -6q-56 -11 -56 -38q0 -29 52 -29q56 0 101 21.5zM314.5 -170q-23.5 24 -23.5 57t23 56.5t57 23.5q32 0 56 -23.5
t24 -56.5t-24 -57t-56 -24q-33 0 -56.5 24zM291.5 607q-39.5 21 -62.5 60t-23 91h99q0 -39 20.5 -57.5t52.5 -18.5t52.5 18.5t20.5 57.5h99q0 -52 -23 -91t-62.5 -60t-86.5 -21t-86.5 21z" />
    <glyph glyph-name="uni1EB8" unicode="&#x1eb8;" horiz-adv-x="867" 
d="M276 183q380 2 551 11q-7 -41 -8.5 -84.5t-1.5 -109.5h-777q8 194 8 363t-8 363h777v-181h-541v-96q48 -1 142 -1q159 0 329 6v-172q-170 6 -329 6q-94 0 -142 -1v-104zM377.5 -167q-23.5 24 -23.5 57t23 56.5t57 23.5q32 0 56 -23.5t24 -56.5t-24 -57t-56 -24
q-33 0 -56.5 24z" />
    <glyph glyph-name="uni1EB9" unicode="&#x1eb9;" horiz-adv-x="725" 
d="M569 250h-326q8 -44 39.5 -71.5t89.5 -27.5q42 0 79 16.5t59 46.5q67 -33 178 -71q-31 -70 -112.5 -111.5t-212.5 -41.5q-170 0 -251.5 78.5t-81.5 206.5q0 125 81 203t252 78q102 0 177 -34t115 -94.5t40 -138.5q0 -26 -2 -39h-124zM295 386q-32 -19 -45 -52h236
q-12 32 -39 51.5t-70 19.5q-50 0 -82 -19zM306.5 -177q-23.5 24 -23.5 57t23 56.5t57 23.5q32 0 56 -23.5t24 -56.5t-24 -57t-56 -24q-33 0 -56.5 24z" />
    <glyph glyph-name="uni1EBA" unicode="&#x1eba;" horiz-adv-x="867" 
d="M276 183q380 2 551 11q-7 -41 -8.5 -84.5t-1.5 -109.5h-777q8 194 8 363t-8 363h777v-181h-541v-96q48 -1 142 -1q159 0 329 6v-172q-170 6 -329 6q-94 0 -142 -1v-104zM399 786q15 7 24.5 18.5t9.5 22.5t-7.5 17.5t-21.5 6.5t-32 -8t-36 -24v91q55 33 106 33
q40 0 64.5 -22t24.5 -64q0 -33 -24.5 -62t-74.5 -50z" />
    <glyph glyph-name="uni1EBB" unicode="&#x1ebb;" horiz-adv-x="725" 
d="M569 250h-326q8 -44 39.5 -71.5t89.5 -27.5q42 0 79 16.5t59 46.5q67 -33 178 -71q-31 -70 -112.5 -111.5t-212.5 -41.5q-170 0 -251.5 78.5t-81.5 206.5q0 125 81 203t252 78q102 0 177 -34t115 -94.5t40 -138.5q0 -26 -2 -39h-124zM295 386q-32 -19 -45 -52h236
q-12 32 -39 51.5t-70 19.5q-50 0 -82 -19zM298 607q29 12 46.5 35t17.5 46q0 11 -7.5 17.5t-21.5 6.5t-32 -8t-36 -24v91q55 33 106 33q40 0 64.5 -22t24.5 -64q0 -45 -32 -84.5t-97 -67.5z" />
    <glyph glyph-name="uni1EBC" unicode="&#x1ebc;" horiz-adv-x="867" 
d="M276 183q380 2 551 11q-7 -41 -8.5 -84.5t-1.5 -109.5h-777q8 194 8 363t-8 363h777v-181h-541v-96q48 -1 142 -1q159 0 329 6v-172q-170 6 -329 6q-94 0 -142 -1v-104zM610 876q0 -53 -29 -86.5t-83 -33.5q-41 0 -78 29q-9 8 -19 20q-8 10 -14 14.5t-13 4.5
q-9 0 -14 -7.5t-3 -18.5h-99q0 47 30 83.5t82 36.5q46 0 83 -32l15 -16q15 -19 25 -19t14 5.5t4 19.5h99z" />
    <glyph glyph-name="uni1EBD" unicode="&#x1ebd;" horiz-adv-x="725" 
d="M569 250h-326q8 -44 39.5 -71.5t89.5 -27.5q42 0 79 16.5t59 46.5q67 -33 178 -71q-31 -70 -112.5 -111.5t-212.5 -41.5q-170 0 -251.5 78.5t-81.5 206.5q0 125 81 203t252 78q102 0 177 -34t115 -94.5t40 -138.5q0 -26 -2 -39h-124zM295 386q-32 -19 -45 -52h236
q-12 32 -39 51.5t-70 19.5q-50 0 -82 -19zM539 706q0 -53 -29 -86.5t-83 -33.5q-41 0 -78 29q-9 8 -19 20q-8 10 -14 14.5t-13 4.5q-9 0 -14 -7.5t-3 -18.5h-99q0 47 30 83.5t82 36.5q46 0 83 -32l15 -16q15 -19 25 -19t14 5.5t4 19.5h99z" />
    <glyph glyph-name="uni1EBE" unicode="&#x1ebe;" horiz-adv-x="867" 
d="M276 183q380 2 551 11q-7 -41 -8.5 -84.5t-1.5 -109.5h-777q8 194 8 363t-8 363h777v-181h-541v-96q48 -1 142 -1q159 0 329 6v-172q-170 6 -329 6q-94 0 -142 -1v-104zM526 911l85 -145h-131l-47 86l-47 -86h-130l85 145h185zM491 951h-127l24 155h185z" />
    <glyph glyph-name="uni1EBF" unicode="&#x1ebf;" horiz-adv-x="725" 
d="M569 250h-326q8 -44 39.5 -71.5t89.5 -27.5q42 0 79 16.5t59 46.5q67 -33 178 -71q-31 -70 -112.5 -111.5t-212.5 -41.5q-170 0 -251.5 78.5t-81.5 206.5q0 125 81 203t252 78q102 0 177 -34t115 -94.5t40 -138.5q0 -26 -2 -39h-124zM295 386q-32 -19 -45 -52h236
q-12 32 -39 51.5t-70 19.5q-50 0 -82 -19zM455 741l85 -145h-131l-47 86l-47 -86h-130l85 145h185zM395 772h-127l24 155h185z" />
    <glyph glyph-name="uni1EC0" unicode="&#x1ec0;" horiz-adv-x="867" 
d="M276 183q380 2 551 11q-7 -41 -8.5 -84.5t-1.5 -109.5h-777q8 194 8 363t-8 363h777v-181h-541v-96q48 -1 142 -1q159 0 329 6v-172q-170 6 -329 6q-94 0 -142 -1v-104zM526 911l85 -145h-131l-47 86l-47 -86h-130l85 145h185zM388 953l-82 155h185l24 -155h-127z" />
    <glyph glyph-name="uni1EC1" unicode="&#x1ec1;" horiz-adv-x="725" 
d="M569 250h-326q8 -44 39.5 -71.5t89.5 -27.5q42 0 79 16.5t59 46.5q67 -33 178 -71q-31 -70 -112.5 -111.5t-212.5 -41.5q-170 0 -251.5 78.5t-81.5 206.5q0 125 81 203t252 78q102 0 177 -34t115 -94.5t40 -138.5q0 -26 -2 -39h-124zM295 386q-32 -19 -45 -52h236
q-12 32 -39 51.5t-70 19.5q-50 0 -82 -19zM455 741l85 -145h-131l-47 86l-47 -86h-130l85 145h185zM317 783l-82 155h185l24 -155h-127z" />
    <glyph glyph-name="uni1EC2" unicode="&#x1ec2;" horiz-adv-x="867" 
d="M276 183q380 2 551 11q-7 -41 -8.5 -84.5t-1.5 -109.5h-777q8 194 8 363t-8 363h777v-181h-541v-96q48 -1 142 -1q159 0 329 6v-172q-170 6 -329 6q-94 0 -142 -1v-104zM526 911l85 -145h-131l-47 86l-47 -86h-130l85 145h185zM399 972q15 7 24.5 18.5t9.5 22.5
t-7.5 17.5t-21.5 6.5t-32 -8t-36 -24v91q55 33 106 33q40 0 64.5 -22t24.5 -64q0 -33 -24.5 -62t-74.5 -50z" />
    <glyph glyph-name="uni1EC3" unicode="&#x1ec3;" horiz-adv-x="725" 
d="M569 250h-326q8 -44 39.5 -71.5t89.5 -27.5q42 0 79 16.5t59 46.5q67 -33 178 -71q-31 -70 -112.5 -111.5t-212.5 -41.5q-170 0 -251.5 78.5t-81.5 206.5q0 125 81 203t252 78q102 0 177 -34t115 -94.5t40 -138.5q0 -26 -2 -39h-124zM295 386q-32 -19 -45 -52h236
q-12 32 -39 51.5t-70 19.5q-50 0 -82 -19zM455 741l85 -145h-131l-47 86l-47 -86h-130l85 145h185zM298 793q29 12 46.5 35t17.5 46q0 11 -7.5 17.5t-21.5 6.5t-32 -8t-36 -24v91q55 33 106 33q40 0 64.5 -22t24.5 -64q0 -45 -32 -84.5t-97 -67.5z" />
    <glyph glyph-name="uni1EC4" unicode="&#x1ec4;" horiz-adv-x="867" 
d="M276 183q380 2 551 11q-7 -41 -8.5 -84.5t-1.5 -109.5h-777q8 194 8 363t-8 363h777v-181h-541v-96q48 -1 142 -1q159 0 329 6v-172q-170 6 -329 6q-94 0 -142 -1v-104zM526 911l85 -145h-131l-47 86l-47 -86h-130l85 145h185zM610 1062q0 -53 -29 -86.5t-83 -33.5
q-41 0 -78 29q-9 8 -19 20q-8 10 -14 14.5t-13 4.5q-9 0 -14 -7.5t-3 -18.5h-99q0 47 30 83.5t82 36.5q46 0 83 -32l15 -16q15 -19 25 -19t14 5.5t4 19.5h99z" />
    <glyph glyph-name="uni1EC5" unicode="&#x1ec5;" horiz-adv-x="725" 
d="M569 250h-326q8 -44 39.5 -71.5t89.5 -27.5q42 0 79 16.5t59 46.5q67 -33 178 -71q-31 -70 -112.5 -111.5t-212.5 -41.5q-170 0 -251.5 78.5t-81.5 206.5q0 125 81 203t252 78q102 0 177 -34t115 -94.5t40 -138.5q0 -26 -2 -39h-124zM295 386q-32 -19 -45 -52h236
q-12 32 -39 51.5t-70 19.5q-50 0 -82 -19zM455 741l85 -145h-131l-47 86l-47 -86h-130l85 145h185zM539 886q0 -53 -29 -86.5t-83 -33.5q-41 0 -78 29q-9 8 -19 20q-8 10 -14 14.5t-13 4.5q-9 0 -14 -7.5t-3 -18.5h-99q0 47 30 83.5t82 36.5q46 0 83 -32l15 -16
q15 -19 25 -19t14 5.5t4 19.5h99z" />
    <glyph glyph-name="uni1EC6" unicode="&#x1ec6;" horiz-adv-x="867" 
d="M276 183q380 2 551 11q-7 -41 -8.5 -84.5t-1.5 -109.5h-777q8 194 8 363t-8 363h777v-181h-541v-96q48 -1 142 -1q159 0 329 6v-172q-170 6 -329 6q-94 0 -142 -1v-104zM377.5 -167q-23.5 24 -23.5 57t23 56.5t57 23.5q32 0 56 -23.5t24 -56.5t-24 -57t-56 -24
q-33 0 -56.5 24zM526 911l85 -145h-131l-47 86l-47 -86h-130l85 145h185z" />
    <glyph glyph-name="uni1EC7" unicode="&#x1ec7;" horiz-adv-x="725" 
d="M569 250h-326q8 -44 39.5 -71.5t89.5 -27.5q42 0 79 16.5t59 46.5q67 -33 178 -71q-31 -70 -112.5 -111.5t-212.5 -41.5q-170 0 -251.5 78.5t-81.5 206.5q0 125 81 203t252 78q102 0 177 -34t115 -94.5t40 -138.5q0 -26 -2 -39h-124zM295 386q-32 -19 -45 -52h236
q-12 32 -39 51.5t-70 19.5q-50 0 -82 -19zM455 741l85 -145h-131l-47 86l-47 -86h-130l85 145h185zM306.5 -177q-23.5 24 -23.5 57t23 56.5t57 23.5q32 0 56 -23.5t24 -56.5t-24 -57t-56 -24q-33 0 -56.5 24z" />
    <glyph glyph-name="uni1EC8" unicode="&#x1ec8;" horiz-adv-x="661" 
d="M621 527q-119 6 -176 7v-342q58 1 176 7v-199h-581v199q115 -6 175 -7v342q-60 -1 -175 -7v199h581v-199zM296 791q15 7 24.5 18.5t9.5 22.5t-7.5 17.5t-21.5 6.5t-32 -8t-36 -24v91q55 33 106 33q40 0 64.5 -22t24.5 -64q0 -33 -24.5 -62t-74.5 -50z" />
    <glyph glyph-name="uni1EC9" unicode="&#x1ec9;" horiz-adv-x="340" 
d="M105 621q29 12 46.5 35t17.5 46q0 11 -7.5 17.5t-21.5 6.5t-32 -8t-36 -24v91q56 33 106 33q40 0 64.5 -22t24.5 -64q0 -45 -32 -84.5t-97 -67.5zM51 0q7 161 7 266q0 125 -8 280h240q-8 -149 -8 -280q0 -110 7 -266h-238z" />
    <glyph glyph-name="uni1ECA" unicode="&#x1eca;" horiz-adv-x="661" 
d="M621 527q-119 6 -176 7v-342q58 1 176 7v-199h-581v199q115 -6 175 -7v342q-60 -1 -175 -7v199h581v-199zM274.5 -167q-23.5 24 -23.5 57t23 56.5t57 23.5q32 0 56 -23.5t24 -56.5t-24 -57t-56 -24q-33 0 -56.5 24z" />
    <glyph glyph-name="uni1ECB" unicode="&#x1ecb;" horiz-adv-x="348" 
d="M80.5 636q-30.5 31 -30.5 81q0 49 30.5 81t93.5 32q60 0 92 -32.5t32 -80.5q0 -50 -31 -81t-93 -31q-63 0 -93.5 31zM58 0q7 161 7 266q0 125 -8 280h240q-8 -149 -8 -280q0 -110 7 -266h-238zM80.5 -252q-30.5 31 -30.5 81q0 49 30.5 81t93.5 32q60 0 92 -32.5t32 -80.5
q0 -50 -31 -81t-93 -31q-63 0 -93.5 31z" />
    <glyph glyph-name="uni1ECC" unicode="&#x1ecc;" horiz-adv-x="971" 
d="M148 89.5q-108 99.5 -108 279.5q0 178 107.5 278t337.5 100q231 0 338.5 -100t107.5 -278q0 -181 -107 -280t-339 -99q-229 0 -337 99.5zM645 236.5q49 42.5 49 132.5q0 88 -49 131t-160 43q-110 0 -159 -43t-49 -131q0 -89 49 -132t159 -43q111 0 160 42.5zM428.5 -177
q-23.5 24 -23.5 57t23 56.5t57 23.5q32 0 56 -23.5t24 -56.5t-24 -57t-56 -24q-33 0 -56.5 24z" />
    <glyph glyph-name="uni1ECD" unicode="&#x1ecd;" horiz-adv-x="736" 
d="M110.5 68.5q-80.5 78.5 -80.5 206.5q0 125 80.5 203t251.5 78q115 0 192.5 -37.5t114.5 -101t37 -142.5q0 -129 -85.5 -207t-258.5 -78q-171 0 -251.5 78.5zM463 191q32 31 32 83q0 49 -32 80.5t-97 31.5t-95 -31t-30 -81q0 -52 30 -83t95 -31t97 31zM305.5 -177
q-23.5 24 -23.5 57t23 56.5t57 23.5q32 0 56 -23.5t24 -56.5t-24 -57t-56 -24q-33 0 -56.5 24z" />
    <glyph glyph-name="uni1ECE" unicode="&#x1ece;" horiz-adv-x="971" 
d="M148 89.5q-108 99.5 -108 279.5q0 178 107.5 278t337.5 100q231 0 338.5 -100t107.5 -278q0 -181 -107 -280t-339 -99q-229 0 -337 99.5zM645 236.5q49 42.5 49 132.5q0 88 -49 131t-160 43q-110 0 -159 -43t-49 -131q0 -89 49 -132t159 -43q111 0 160 42.5zM450 807
q15 7 24.5 18.5t9.5 22.5t-7.5 17.5t-21.5 6.5t-32 -8t-36 -24v91q55 33 106 33q40 0 64.5 -22t24.5 -64q0 -33 -24.5 -62t-74.5 -50z" />
    <glyph glyph-name="uni1ECF" unicode="&#x1ecf;" horiz-adv-x="736" 
d="M110.5 68.5q-80.5 78.5 -80.5 206.5q0 125 80.5 203t251.5 78q115 0 192.5 -37.5t114.5 -101t37 -142.5q0 -129 -85.5 -207t-258.5 -78q-171 0 -251.5 78.5zM463 191q32 31 32 83q0 49 -32 80.5t-97 31.5t-95 -31t-30 -81q0 -52 30 -83t95 -31t97 31zM297 607
q29 12 46.5 35t17.5 46q0 11 -7.5 17.5t-21.5 6.5t-32 -8t-36 -24v91q55 33 106 33q40 0 64.5 -22t24.5 -64q0 -45 -32 -84.5t-97 -67.5z" />
    <glyph glyph-name="uni1ED0" unicode="&#x1ed0;" horiz-adv-x="971" 
d="M148 89.5q-108 99.5 -108 279.5q0 178 107.5 278t337.5 100q231 0 338.5 -100t107.5 -278q0 -181 -107 -280t-339 -99q-229 0 -337 99.5zM645 236.5q49 42.5 49 132.5q0 88 -49 131t-160 43q-110 0 -159 -43t-49 -131q0 -89 49 -132t159 -43q111 0 160 42.5zM577 932
l85 -145h-131l-47 86l-47 -86h-130l85 145h185zM542 972h-127l24 155h185z" />
    <glyph glyph-name="uni1ED1" unicode="&#x1ed1;" horiz-adv-x="736" 
d="M110.5 68.5q-80.5 78.5 -80.5 206.5q0 125 80.5 203t251.5 78q115 0 192.5 -37.5t114.5 -101t37 -142.5q0 -129 -85.5 -207t-258.5 -78q-171 0 -251.5 78.5zM463 191q32 31 32 83q0 49 -32 80.5t-97 31.5t-95 -31t-30 -81q0 -52 30 -83t95 -31t97 31zM454 741l85 -145
h-131l-47 86l-47 -86h-130l85 145h185zM394 772h-127l24 155h185z" />
    <glyph glyph-name="uni1ED2" unicode="&#x1ed2;" horiz-adv-x="971" 
d="M148 89.5q-108 99.5 -108 279.5q0 178 107.5 278t337.5 100q231 0 338.5 -100t107.5 -278q0 -181 -107 -280t-339 -99q-229 0 -337 99.5zM645 236.5q49 42.5 49 132.5q0 88 -49 131t-160 43q-110 0 -159 -43t-49 -131q0 -89 49 -132t159 -43q111 0 160 42.5zM577 932
l85 -145h-131l-47 86l-47 -86h-130l85 145h185zM439 974l-82 155h185l24 -155h-127z" />
    <glyph glyph-name="uni1ED3" unicode="&#x1ed3;" horiz-adv-x="736" 
d="M110.5 68.5q-80.5 78.5 -80.5 206.5q0 125 80.5 203t251.5 78q115 0 192.5 -37.5t114.5 -101t37 -142.5q0 -129 -85.5 -207t-258.5 -78q-171 0 -251.5 78.5zM463 191q32 31 32 83q0 49 -32 80.5t-97 31.5t-95 -31t-30 -81q0 -52 30 -83t95 -31t97 31zM454 741l85 -145
h-131l-47 86l-47 -86h-130l85 145h185zM316 783l-82 155h185l24 -155h-127z" />
    <glyph glyph-name="uni1ED4" unicode="&#x1ed4;" horiz-adv-x="971" 
d="M148 89.5q-108 99.5 -108 279.5q0 178 107.5 278t337.5 100q231 0 338.5 -100t107.5 -278q0 -181 -107 -280t-339 -99q-229 0 -337 99.5zM645 236.5q49 42.5 49 132.5q0 88 -49 131t-160 43q-110 0 -159 -43t-49 -131q0 -89 49 -132t159 -43q111 0 160 42.5zM577 932
l85 -145h-131l-47 86l-47 -86h-130l85 145h185zM450 993q15 7 24.5 18.5t9.5 22.5t-7.5 17.5t-21.5 6.5t-32 -8t-36 -24v91q55 33 106 33q40 0 64.5 -22t24.5 -64q0 -33 -24.5 -62t-74.5 -50z" />
    <glyph glyph-name="uni1ED5" unicode="&#x1ed5;" horiz-adv-x="736" 
d="M110.5 68.5q-80.5 78.5 -80.5 206.5q0 125 80.5 203t251.5 78q115 0 192.5 -37.5t114.5 -101t37 -142.5q0 -129 -85.5 -207t-258.5 -78q-171 0 -251.5 78.5zM463 191q32 31 32 83q0 49 -32 80.5t-97 31.5t-95 -31t-30 -81q0 -52 30 -83t95 -31t97 31zM454 741l85 -145
h-131l-47 86l-47 -86h-130l85 145h185zM297 793q29 12 46.5 35t17.5 46q0 11 -7.5 17.5t-21.5 6.5t-32 -8t-36 -24v91q55 33 106 33q40 0 64.5 -22t24.5 -64q0 -45 -32 -84.5t-97 -67.5z" />
    <glyph glyph-name="uni1ED6" unicode="&#x1ed6;" horiz-adv-x="971" 
d="M148 89.5q-108 99.5 -108 279.5q0 178 107.5 278t337.5 100q231 0 338.5 -100t107.5 -278q0 -181 -107 -280t-339 -99q-229 0 -337 99.5zM645 236.5q49 42.5 49 132.5q0 88 -49 131t-160 43q-110 0 -159 -43t-49 -131q0 -89 49 -132t159 -43q111 0 160 42.5zM577 932
l85 -145h-131l-47 86l-47 -86h-130l85 145h185zM661 1083q0 -53 -29 -86.5t-83 -33.5q-41 0 -78 29q-9 8 -19 20q-8 10 -14 14.5t-13 4.5q-9 0 -14 -7.5t-3 -18.5h-99q0 47 30 83.5t82 36.5q46 0 83 -32l15 -16q15 -19 25 -19t14 5.5t4 19.5h99z" />
    <glyph glyph-name="uni1ED7" unicode="&#x1ed7;" horiz-adv-x="736" 
d="M110.5 68.5q-80.5 78.5 -80.5 206.5q0 125 80.5 203t251.5 78q115 0 192.5 -37.5t114.5 -101t37 -142.5q0 -129 -85.5 -207t-258.5 -78q-171 0 -251.5 78.5zM463 191q32 31 32 83q0 49 -32 80.5t-97 31.5t-95 -31t-30 -81q0 -52 30 -83t95 -31t97 31zM454 741l85 -145
h-131l-47 86l-47 -86h-130l85 145h185zM538 886q0 -53 -29 -86.5t-83 -33.5q-41 0 -78 29q-9 8 -19 20q-8 10 -14 14.5t-13 4.5q-9 0 -14 -7.5t-3 -18.5h-99q0 47 30 83.5t82 36.5q46 0 83 -32l15 -16q15 -19 25 -19t14 5.5t4 19.5h99z" />
    <glyph glyph-name="uni1ED8" unicode="&#x1ed8;" horiz-adv-x="971" 
d="M148 89.5q-108 99.5 -108 279.5q0 178 107.5 278t337.5 100q231 0 338.5 -100t107.5 -278q0 -181 -107 -280t-339 -99q-229 0 -337 99.5zM645 236.5q49 42.5 49 132.5q0 88 -49 131t-160 43q-110 0 -159 -43t-49 -131q0 -89 49 -132t159 -43q111 0 160 42.5zM428.5 -177
q-23.5 24 -23.5 57t23 56.5t57 23.5q32 0 56 -23.5t24 -56.5t-24 -57t-56 -24q-33 0 -56.5 24zM577 932l85 -145h-131l-47 86l-47 -86h-130l85 145h185z" />
    <glyph glyph-name="uni1ED9" unicode="&#x1ed9;" horiz-adv-x="736" 
d="M110.5 68.5q-80.5 78.5 -80.5 206.5q0 125 80.5 203t251.5 78q115 0 192.5 -37.5t114.5 -101t37 -142.5q0 -129 -85.5 -207t-258.5 -78q-171 0 -251.5 78.5zM463 191q32 31 32 83q0 49 -32 80.5t-97 31.5t-95 -31t-30 -81q0 -52 30 -83t95 -31t97 31zM454 741l85 -145
h-131l-47 86l-47 -86h-130l85 145h185zM305.5 -177q-23.5 24 -23.5 57t23 56.5t57 23.5q32 0 56 -23.5t24 -56.5t-24 -57t-56 -24q-33 0 -56.5 24z" />
    <glyph glyph-name="uni1EDA" unicode="&#x1eda;" horiz-adv-x="971" 
d="M931 369q0 -181 -107 -280t-339 -99q-229 0 -337 99.5t-108 279.5q0 177 105 276.5t330 101.5q101 0 147 14t46 50v65h257v-76q0 -44 -30 -78t-88 -61q124 -95 124 -292zM645 236.5q49 42.5 49 132.5q0 88 -49 131t-160 43q-110 0 -159 -43t-49 -131q0 -89 49 -132
t159 -43q111 0 160 42.5zM485 779h-127l24 155h185z" />
    <glyph glyph-name="uni1EDB" unicode="&#x1edb;" horiz-adv-x="736" 
d="M640 457q66 -72 66 -182q0 -129 -85.5 -207t-258.5 -78q-171 0 -251.5 78.5t-80.5 206.5q0 125 80.5 203t251.5 78q93 0 137 13.5t44 41.5q0 47 -13 74h196q8 -18 13.5 -47.5t5.5 -51.5q0 -96 -105 -129zM463 191q32 31 32 83q0 49 -32 80.5t-97 31.5t-95 -31t-30 -81
q0 -52 30 -83t95 -31t97 31zM402 605h-127l24 155h185z" />
    <glyph glyph-name="uni1EDC" unicode="&#x1edc;" horiz-adv-x="971" 
d="M931 369q0 -181 -107 -280t-339 -99q-229 0 -337 99.5t-108 279.5q0 177 105 276.5t330 101.5q101 0 147 14t46 50v65h257v-76q0 -44 -30 -78t-88 -61q124 -95 124 -292zM645 236.5q49 42.5 49 132.5q0 88 -49 131t-160 43q-110 0 -159 -43t-49 -131q0 -89 49 -132
t159 -43q111 0 160 42.5zM382 781l-82 155h185l24 -155h-127z" />
    <glyph glyph-name="uni1EDD" unicode="&#x1edd;" horiz-adv-x="736" 
d="M640 457q66 -72 66 -182q0 -129 -85.5 -207t-258.5 -78q-171 0 -251.5 78.5t-80.5 206.5q0 125 80.5 203t251.5 78q93 0 137 13.5t44 41.5q0 47 -13 74h196q8 -18 13.5 -47.5t5.5 -51.5q0 -96 -105 -129zM463 191q32 31 32 83q0 49 -32 80.5t-97 31.5t-95 -31t-30 -81
q0 -52 30 -83t95 -31t97 31zM299 607l-82 155h185l24 -155h-127z" />
    <glyph glyph-name="uni1EDE" unicode="&#x1ede;" horiz-adv-x="971" 
d="M931 369q0 -181 -107 -280t-339 -99q-229 0 -337 99.5t-108 279.5q0 177 105 276.5t330 101.5q101 0 147 14t46 50v65h257v-76q0 -44 -30 -78t-88 -61q124 -95 124 -292zM645 236.5q49 42.5 49 132.5q0 88 -49 131t-160 43q-110 0 -159 -43t-49 -131q0 -89 49 -132
t159 -43q111 0 160 42.5zM393 800q15 7 24.5 18.5t9.5 22.5t-7.5 17.5t-21.5 6.5t-32 -8t-36 -24v91q55 33 106 33q40 0 64.5 -22t24.5 -64q0 -33 -24.5 -62t-74.5 -50z" />
    <glyph glyph-name="uni1EDF" unicode="&#x1edf;" horiz-adv-x="736" 
d="M640 457q66 -72 66 -182q0 -129 -85.5 -207t-258.5 -78q-171 0 -251.5 78.5t-80.5 206.5q0 125 80.5 203t251.5 78q93 0 137 13.5t44 41.5q0 47 -13 74h196q8 -18 13.5 -47.5t5.5 -51.5q0 -96 -105 -129zM463 191q32 31 32 83q0 49 -32 80.5t-97 31.5t-95 -31t-30 -81
q0 -52 30 -83t95 -31t97 31zM280 617q29 12 46.5 35t17.5 46q0 11 -7.5 17.5t-21.5 6.5t-32 -8t-36 -24v91q55 33 106 33q40 0 64.5 -22t24.5 -64q0 -45 -32 -84.5t-97 -67.5z" />
    <glyph glyph-name="uni1EE0" unicode="&#x1ee0;" horiz-adv-x="971" 
d="M931 369q0 -181 -107 -280t-339 -99q-229 0 -337 99.5t-108 279.5q0 177 105 276.5t330 101.5q101 0 147 14t46 50v65h257v-76q0 -44 -30 -78t-88 -61q124 -95 124 -292zM645 236.5q49 42.5 49 132.5q0 88 -49 131t-160 43q-110 0 -159 -43t-49 -131q0 -89 49 -132
t159 -43q111 0 160 42.5zM604 890q0 -53 -29 -86.5t-83 -33.5q-41 0 -78 29q-9 8 -19 20q-8 10 -14 14.5t-13 4.5q-9 0 -14 -7.5t-3 -18.5h-99q0 47 30 83.5t82 36.5q46 0 83 -32l15 -16q15 -19 25 -19t14 5.5t4 19.5h99z" />
    <glyph glyph-name="uni1EE1" unicode="&#x1ee1;" horiz-adv-x="736" 
d="M640 457q66 -72 66 -182q0 -129 -85.5 -207t-258.5 -78q-171 0 -251.5 78.5t-80.5 206.5q0 125 80.5 203t251.5 78q93 0 137 13.5t44 41.5q0 47 -13 74h196q8 -18 13.5 -47.5t5.5 -51.5q0 -96 -105 -129zM463 191q32 31 32 83q0 49 -32 80.5t-97 31.5t-95 -31t-30 -81
q0 -52 30 -83t95 -31t97 31zM521 716q0 -53 -29 -86.5t-83 -33.5q-41 0 -78 29q-9 8 -19 20q-8 10 -14 14.5t-13 4.5q-9 0 -14 -7.5t-3 -18.5h-99q0 47 30 83.5t82 36.5q46 0 83 -32l15 -16q15 -19 25 -19t14 5.5t4 19.5h99z" />
    <glyph glyph-name="uni1EE2" unicode="&#x1ee2;" horiz-adv-x="971" 
d="M537 -9q13 -11 21 -27t8 -34q0 -33 -24 -57t-56 -24q-33 0 -56.5 24t-23.5 57q0 18 7.5 34t20.5 27q-202 12 -298 110.5t-96 267.5q0 177 105 276.5t330 101.5q101 0 147 14t46 50v65h257v-76q0 -44 -30 -78t-88 -61q124 -95 124 -292q0 -356 -394 -378zM645 236.5
q49 42.5 49 132.5q0 88 -49 131t-160 43q-110 0 -159 -43t-49 -131q0 -89 49 -132t159 -43q111 0 160 42.5z" />
    <glyph glyph-name="uni1EE3" unicode="&#x1ee3;" horiz-adv-x="736" 
d="M311.5 -200q-23.5 24 -23.5 57t23 56.5t57 23.5q32 0 56 -23.5t24 -56.5t-24 -57t-56 -24q-33 0 -56.5 24zM640 457q66 -72 66 -182q0 -129 -85.5 -207t-258.5 -78q-171 0 -251.5 78.5t-80.5 206.5q0 125 80.5 203t251.5 78q93 0 137 13.5t44 41.5q0 47 -13 74h196
q8 -18 13.5 -47.5t5.5 -51.5q0 -96 -105 -129zM463 191q32 31 32 83q0 49 -32 80.5t-97 31.5t-95 -31t-30 -81q0 -52 30 -83t95 -31t97 31z" />
    <glyph glyph-name="uni1EE4" unicode="&#x1ee4;" horiz-adv-x="920" 
d="M632 727h248v-398q-2 -147 -100.5 -243t-331.5 -96q-236 0 -323 91.5t-85 240.5v405h248v-389q0 -44 6.5 -71.5t42 -51.5t114.5 -24q86 0 126 24.5t47.5 54.5t7.5 77v380zM391.5 -167q-23.5 24 -23.5 57t23 56.5t57 23.5q32 0 56 -23.5t24 -56.5t-24 -57t-56 -24
q-33 0 -56.5 24z" />
    <glyph glyph-name="uni1EE5" unicode="&#x1ee5;" horiz-adv-x="695" 
d="M648 274q0 -147 7 -274q-64 3 -101 3q-35 0 -101 -3l-29 147q-23 -80 -72 -118.5t-114 -38.5q-60 0 -104 26.5t-66.5 71.5t-22.5 101v144q0 133 -5 213h225q-6 -147 -6 -291q0 -44 21.5 -70t54.5 -26q31 0 54.5 27.5t28.5 75.5v23q2 78 2 108q0 69 -4 153h239
q-7 -126 -7 -272zM283.5 -177.5q-26.5 26.5 -26.5 64.5q0 37 26.5 64t64.5 27q37 0 64 -27t27 -64q0 -38 -27 -64.5t-64 -26.5q-38 0 -64.5 26.5z" />
    <glyph glyph-name="uni1EE6" unicode="&#x1ee6;" horiz-adv-x="920" 
d="M632 727h248v-398q-2 -147 -100.5 -243t-331.5 -96q-236 0 -323 91.5t-85 240.5v405h248v-389q0 -44 6.5 -71.5t42 -51.5t114.5 -24q86 0 126 24.5t47.5 54.5t7.5 77v380zM425 787q15 7 24.5 18.5t9.5 22.5t-7.5 17.5t-21.5 6.5t-32 -8t-36 -24v91q55 33 106 33
q40 0 64.5 -22t24.5 -64q0 -33 -24.5 -62t-74.5 -50z" />
    <glyph glyph-name="uni1EE7" unicode="&#x1ee7;" horiz-adv-x="695" 
d="M648 274q0 -147 7 -274q-64 3 -101 3q-35 0 -101 -3l-29 147q-23 -80 -72 -118.5t-114 -38.5q-60 0 -104 26.5t-66.5 71.5t-22.5 101v144q0 133 -5 213h225q-6 -147 -6 -291q0 -44 21.5 -70t54.5 -26q31 0 54.5 27.5t28.5 75.5v23q2 78 2 108q0 69 -4 153h239
q-7 -126 -7 -272zM283 597q29 12 46.5 35t17.5 46q0 11 -7.5 17.5t-21.5 6.5t-32 -8t-36 -24v91q55 33 106 33q40 0 64.5 -22t24.5 -64q0 -45 -32 -84.5t-97 -67.5z" />
    <glyph glyph-name="uni1EE8" unicode="&#x1ee8;" horiz-adv-x="920" 
d="M1035 882q14 -62 14 -119q0 -124 -106 -124q-27 0 -63 9v-319q-2 -147 -100.5 -243t-331.5 -96q-236 0 -323 91.5t-85 240.5v405h248v-389q0 -44 6.5 -71.5t42 -51.5t114.5 -24q86 0 126 24.5t47.5 54.5t7.5 77v380h228q19 0 24 9.5t5 33.5q0 40 -18 92zM517 766h-127
l24 155h185z" />
    <glyph glyph-name="uni1EE9" unicode="&#x1ee9;" horiz-adv-x="844" 
d="M302 740h185l-82 -155h-127zM810 701q14 -62 14 -119q0 -124 -106 -124q-30 0 -67 10q-4 -130 -4 -194q0 -128 8 -274q-64 3 -101 3q-35 0 -101 -3l-29 147q-23 -80 -72 -118.5t-114 -38.5q-60 0 -104 26.5t-66.5 71.5t-22.5 101v144q0 133 -5 213h225q-6 -147 -6 -291
q0 -44 21.5 -70t54.5 -26q31 0 54.5 27.5t28.5 75.5v23q2 78 2 108q0 69 -4 153h219q19 0 24 9.5t5 33.5q0 40 -18 92z" />
    <glyph glyph-name="uni1EEA" unicode="&#x1eea;" horiz-adv-x="920" 
d="M1035 882q14 -62 14 -119q0 -124 -106 -124q-27 0 -63 9v-319q-2 -147 -100.5 -243t-331.5 -96q-236 0 -323 91.5t-85 240.5v405h248v-389q0 -44 6.5 -71.5t42 -51.5t114.5 -24q86 0 126 24.5t47.5 54.5t7.5 77v380h228q19 0 24 9.5t5 33.5q0 40 -18 92zM414 768l-82 155
h185l24 -155h-127z" />
    <glyph glyph-name="uni1EEB" unicode="&#x1eeb;" horiz-adv-x="844" 
d="M405 742l24 -155h-127l-82 155h185zM810 701q14 -62 14 -119q0 -124 -106 -124q-30 0 -67 10q-4 -130 -4 -194q0 -128 8 -274q-64 3 -101 3q-35 0 -101 -3l-29 147q-23 -80 -72 -118.5t-114 -38.5q-60 0 -104 26.5t-66.5 71.5t-22.5 101v144q0 133 -5 213h225
q-6 -147 -6 -291q0 -44 21.5 -70t54.5 -26q31 0 54.5 27.5t28.5 75.5v23q2 78 2 108q0 69 -4 153h219q19 0 24 9.5t5 33.5q0 40 -18 92z" />
    <glyph glyph-name="uni1EEC" unicode="&#x1eec;" horiz-adv-x="920" 
d="M1035 882q14 -62 14 -119q0 -124 -106 -124q-27 0 -63 9v-319q-2 -147 -100.5 -243t-331.5 -96q-236 0 -323 91.5t-85 240.5v405h248v-389q0 -44 6.5 -71.5t42 -51.5t114.5 -24q86 0 126 24.5t47.5 54.5t7.5 77v380h228q19 0 24 9.5t5 33.5q0 40 -18 92zM425 787
q15 7 24.5 18.5t9.5 22.5t-7.5 17.5t-21.5 6.5t-32 -8t-36 -24v91q55 33 106 33q40 0 64.5 -22t24.5 -64q0 -33 -24.5 -62t-74.5 -50z" />
    <glyph glyph-name="uni1EED" unicode="&#x1eed;" horiz-adv-x="844" 
d="M339.5 695.5q-7.5 6.5 -21.5 6.5t-32 -8t-36 -24v91q56 33 106 33q40 0 64.5 -22t24.5 -64q0 -45 -32 -84.5t-97 -67.5l-33 41q29 12 46.5 35t17.5 46q0 11 -7.5 17.5zM810 701q14 -62 14 -119q0 -124 -106 -124q-30 0 -67 10q-4 -130 -4 -194q0 -128 8 -274
q-64 3 -101 3q-35 0 -101 -3l-29 147q-23 -80 -72 -118.5t-114 -38.5q-60 0 -104 26.5t-66.5 71.5t-22.5 101v144q0 133 -5 213h225q-6 -147 -6 -291q0 -44 21.5 -70t54.5 -26q31 0 54.5 27.5t28.5 75.5v23q2 78 2 108q0 69 -4 153h219q19 0 24 9.5t5 33.5q0 40 -18 92z" />
    <glyph glyph-name="uni1EEE" unicode="&#x1eee;" horiz-adv-x="920" 
d="M1035 882q14 -62 14 -119q0 -124 -106 -124q-27 0 -63 9v-319q-2 -147 -100.5 -243t-331.5 -96q-236 0 -323 91.5t-85 240.5v405h248v-389q0 -44 6.5 -71.5t42 -51.5t114.5 -24q86 0 126 24.5t47.5 54.5t7.5 77v380h228q19 0 24 9.5t5 33.5q0 40 -18 92zM636 877
q0 -53 -29 -86.5t-83 -33.5q-41 0 -78 29q-9 8 -19 20q-8 10 -14 14.5t-13 4.5q-9 0 -14 -7.5t-3 -18.5h-99q0 47 30 83.5t82 36.5q46 0 83 -32l15 -16q15 -19 25 -19t14 5.5t4 19.5h99z" />
    <glyph glyph-name="uni1EEF" unicode="&#x1eef;" horiz-adv-x="844" 
d="M274 636.5q-5 -7.5 -3 -18.5h-99q0 47 30 83.5t82 36.5q46 0 83 -32l15 -16q15 -19 25 -19t14 5.5t4 19.5h99q0 -53 -29 -86.5t-83 -33.5q-41 0 -78 29q-9 8 -19 20q-8 10 -14 14.5t-13 4.5q-9 0 -14 -7.5zM810 701q14 -62 14 -119q0 -124 -106 -124q-30 0 -67 10
q-4 -130 -4 -194q0 -128 8 -274q-64 3 -101 3q-35 0 -101 -3l-29 147q-23 -80 -72 -118.5t-114 -38.5q-60 0 -104 26.5t-66.5 71.5t-22.5 101v144q0 133 -5 213h225q-6 -147 -6 -291q0 -44 21.5 -70t54.5 -26q31 0 54.5 27.5t28.5 75.5v23q2 78 2 108q0 69 -4 153h219
q19 0 24 9.5t5 33.5q0 40 -18 92z" />
    <glyph glyph-name="uni1EF0" unicode="&#x1ef0;" horiz-adv-x="920" 
d="M1035 882q14 -62 14 -119q0 -124 -106 -124q-27 0 -63 9v-319q-2 -147 -100.5 -243t-331.5 -96q-236 0 -323 91.5t-85 240.5v405h248v-389q0 -44 6.5 -71.5t42 -51.5t114.5 -24q86 0 126 24.5t47.5 54.5t7.5 77v380h228q19 0 24 9.5t5 33.5q0 40 -18 92zM391.5 -167
q-23.5 24 -23.5 57t23 56.5t57 23.5q32 0 56 -23.5t24 -56.5t-24 -57t-56 -24q-33 0 -56.5 24z" />
    <glyph glyph-name="uni1EF1" unicode="&#x1ef1;" horiz-adv-x="844" 
d="M810 701q14 -62 14 -119q0 -124 -106 -124q-30 0 -67 10q-4 -130 -4 -194q0 -128 8 -274q-64 3 -101 3q-35 0 -101 -3l-29 147q-23 -80 -72 -118.5t-114 -38.5q-60 0 -104 26.5t-66.5 71.5t-22.5 101v144q0 133 -5 213h225q-6 -147 -6 -291q0 -44 21.5 -70t54.5 -26
q31 0 54.5 27.5t28.5 75.5v23q2 78 2 108q0 69 -4 153h219q19 0 24 9.5t5 33.5q0 40 -18 92zM412.5 -49q26.5 -27 26.5 -64q0 -38 -26.5 -64.5t-64.5 -26.5q-37 0 -64 26.5t-27 64.5q0 37 27 64t64 27q38 0 64.5 -27z" />
    <glyph glyph-name="Ygrave" unicode="&#x1ef2;" 
d="M930 726l-19 -29q-107 -166 -183.5 -293.5t-127.5 -234.5v-169h-261v186q-37 75 -87 154.5t-142 218.5q-72 106 -110 167h280q30 -61 98 -181q68 -122 93 -172q35 73 94 179q69 124 93 174h272zM426 767l-82 155h185l24 -155h-127z" />
    <glyph glyph-name="ygrave" unicode="&#x1ef3;" horiz-adv-x="698" 
d="M698 546l-23 -58q-95 -253 -199 -488q-54 -120 -156 -192.5t-256 -69.5q-19 83 -31.5 129.5t-32.5 93.5q55 -13 103 -13q78 0 124 33q-36 107 -85 230t-142 335h237q12 -50 33 -116t42 -127q6 -19 19.5 -57.5t21.5 -64.5l26 79q75 217 89 286h230zM313 587l-82 155h185
l24 -155h-127z" />
    <glyph glyph-name="uni1EF4" unicode="&#x1ef4;" 
d="M930 726l-19 -29q-107 -166 -183.5 -293.5t-127.5 -234.5v-169h-261v186q-37 75 -87 154.5t-142 218.5q-72 106 -110 167h280q30 -61 98 -181q68 -122 93 -172q35 73 94 179q69 124 93 174h272zM415.5 -167q-23.5 24 -23.5 57t23 56.5t57 23.5q32 0 56 -23.5t24 -56.5
t-24 -57t-56 -24q-33 0 -56.5 24z" />
    <glyph glyph-name="uni1EF5" unicode="&#x1ef5;" horiz-adv-x="698" 
d="M698 546l-23 -58q-95 -253 -199 -488q-54 -120 -156 -192.5t-256 -69.5q-19 83 -31.5 129.5t-32.5 93.5q55 -13 103 -13q78 0 124 33q-36 107 -85 230t-142 335h237q12 -50 33 -116t42 -127q6 -19 19.5 -57.5t21.5 -64.5l26 79q75 217 89 286h230zM478.5 -218
q-23.5 24 -23.5 57t23 56.5t57 23.5q32 0 56 -23.5t24 -56.5t-24 -57t-56 -24q-33 0 -56.5 24z" />
    <glyph glyph-name="uni1EF6" unicode="&#x1ef6;" 
d="M930 726l-19 -29q-107 -166 -183.5 -293.5t-127.5 -234.5v-169h-261v186q-37 75 -87 154.5t-142 218.5q-72 106 -110 167h280q30 -61 98 -181q68 -122 93 -172q35 73 94 179q69 124 93 174h272zM437 786q15 7 24.5 18.5t9.5 22.5t-7.5 17.5t-21.5 6.5t-32 -8t-36 -24v91
q55 33 106 33q40 0 64.5 -22t24.5 -64q0 -33 -24.5 -62t-74.5 -50z" />
    <glyph glyph-name="uni1EF7" unicode="&#x1ef7;" horiz-adv-x="698" 
d="M698 546l-23 -58q-95 -253 -199 -488q-54 -120 -156 -192.5t-256 -69.5q-19 83 -31.5 129.5t-32.5 93.5q55 -13 103 -13q78 0 124 33q-36 107 -85 230t-142 335h237q12 -50 33 -116t42 -127q6 -19 19.5 -57.5t21.5 -64.5l26 79q75 217 89 286h230zM294 597q29 12 46.5 35
t17.5 46q0 11 -7.5 17.5t-21.5 6.5t-32 -8t-36 -24v91q55 33 106 33q40 0 64.5 -22t24.5 -64q0 -45 -32 -84.5t-97 -67.5z" />
    <glyph glyph-name="uni1EF8" unicode="&#x1ef8;" 
d="M930 726l-19 -29q-107 -166 -183.5 -293.5t-127.5 -234.5v-169h-261v186q-37 75 -87 154.5t-142 218.5q-72 106 -110 167h280q30 -61 98 -181q68 -122 93 -172q35 73 94 179q69 124 93 174h272zM648 876q0 -53 -29 -86.5t-83 -33.5q-41 0 -78 29q-9 8 -19 20
q-8 10 -14 14.5t-13 4.5q-9 0 -14 -7.5t-3 -18.5h-99q0 47 30 83.5t82 36.5q46 0 83 -32l15 -16q15 -19 25 -19t14 5.5t4 19.5h99z" />
    <glyph glyph-name="uni1EF9" unicode="&#x1ef9;" horiz-adv-x="698" 
d="M698 546l-23 -58q-95 -253 -199 -488q-54 -120 -156 -192.5t-256 -69.5q-19 83 -31.5 129.5t-32.5 93.5q55 -13 103 -13q78 0 124 33q-36 107 -85 230t-142 335h237q12 -50 33 -116t42 -127q6 -19 19.5 -57.5t21.5 -64.5l26 79q75 217 89 286h230zM535 696
q0 -53 -29 -86.5t-83 -33.5q-41 0 -78 29q-9 8 -19 20q-8 10 -14 14.5t-13 4.5q-9 0 -14 -7.5t-3 -18.5h-99q0 47 30 83.5t82 36.5q46 0 83 -32l15 -16q15 -19 25 -19t14 5.5t4 19.5h99z" />
    <glyph glyph-name="uni2000" unicode="&#x2000;" horiz-adv-x="500" 
 />
    <glyph glyph-name="uni2001" unicode="&#x2001;" horiz-adv-x="1000" 
 />
    <glyph glyph-name="uni2002" unicode="&#x2002;" horiz-adv-x="500" 
 />
    <glyph glyph-name="uni2003" unicode="&#x2003;" horiz-adv-x="1000" 
 />
    <glyph glyph-name="uni2004" unicode="&#x2004;" horiz-adv-x="333" 
 />
    <glyph glyph-name="uni2005" unicode="&#x2005;" horiz-adv-x="250" 
 />
    <glyph glyph-name="uni2006" unicode="&#x2006;" horiz-adv-x="167" 
 />
    <glyph glyph-name="uni2007" unicode="&#x2007;" horiz-adv-x="877" 
 />
    <glyph glyph-name="uni2008" unicode="&#x2008;" horiz-adv-x="292" 
 />
    <glyph glyph-name="uni2009" unicode="&#x2009;" horiz-adv-x="200" 
 />
    <glyph glyph-name="uni200A" unicode="&#x200a;" horiz-adv-x="143" 
 />
    <glyph glyph-name="uni200B" unicode="&#x200b;" horiz-adv-x="0" 
 />
    <glyph glyph-name="uni200C" unicode="&#x200c;" horiz-adv-x="0" 
 />
    <glyph glyph-name="uni200D" unicode="&#x200d;" horiz-adv-x="0" 
 />
    <glyph glyph-name="uni2010" unicode="&#x2010;" horiz-adv-x="490" 
d="M460 243h-430v195h430v-195z" />
    <glyph glyph-name="endash" unicode="&#x2013;" horiz-adv-x="575" 
d="M545 243h-515v195h515v-195z" />
    <glyph glyph-name="emdash" unicode="&#x2014;" horiz-adv-x="711" 
d="M681 243h-651v195h651v-195z" />
    <glyph glyph-name="uni2015" unicode="&#x2015;" horiz-adv-x="711" 
d="M681 243h-651v195h651v-195z" />
    <glyph glyph-name="quoteleft" unicode="&#x2018;" horiz-adv-x="304" 
d="M40 375q0 90 38.5 152.5t100.5 92.5q47 -47 80 -70q-99 -27 -123 -99h138v-200h-234v124z" />
    <glyph glyph-name="quoteright" unicode="&#x2019;" horiz-adv-x="294" 
d="M264 656q0 -90 -38.5 -152.5t-100.5 -92.5q-47 47 -80 70q99 27 123 99h-138v200h234v-124z" />
    <glyph glyph-name="quotesinglbase" unicode="&#x201a;" horiz-adv-x="272" 
d="M211.5 168.5q30.5 -34.5 30.5 -95.5q0 -50 -17.5 -105t-48.5 -89h-85q42 57 53 112q-52 0 -83 31t-31 75t31 75t75 31q45 0 75.5 -34.5z" />
    <glyph glyph-name="quotedblleft" unicode="&#x201c;" horiz-adv-x="490" 
d="M31 378q0 86 29.5 151t90.5 91q23 -23 40.5 -37.5t38.5 -25.5q-51 -19 -74.5 -45t-30.5 -61h101v-200h-194zM261 378q0 86 29.5 151t90.5 91q23 -23 40.5 -37.5t38.5 -25.5q-51 -19 -74.5 -45t-30.5 -61h91v-200h-184z" />
    <glyph glyph-name="quotedblright" unicode="&#x201d;" horiz-adv-x="489" 
d="M229 653q0 -86 -29.5 -151t-90.5 -91q-23 23 -40.5 37.5t-38.5 25.5q51 19 74.5 45t30.5 61h-91v200h184zM459 653q0 -86 -29.5 -151t-90.5 -91q-23 23 -40.5 37.5t-38.5 25.5q51 19 74.5 45t30.5 61h-101v200h194z" />
    <glyph glyph-name="quotedblbase" unicode="&#x201e;" horiz-adv-x="513" 
d="M211.5 168.5q30.5 -34.5 30.5 -95.5q0 -50 -17.5 -105t-48.5 -89h-85q42 57 53 112q-52 0 -83 31t-31 75t31 75t75 31q45 0 75.5 -34.5zM452.5 168.5q30.5 -34.5 30.5 -95.5q0 -50 -17.5 -105t-48.5 -89h-85q42 57 53 112q-52 0 -83 31t-31 75t31 75t75 31
q45 0 75.5 -34.5z" />
    <glyph glyph-name="dagger" unicode="&#x2020;" horiz-adv-x="450" 
d="M340 639h100v-230h-100v-307h-230v307h-100v230h100v87h230v-87z" />
    <glyph glyph-name="daggerdbl" unicode="&#x2021;" horiz-adv-x="450" 
d="M440 639v-195h-100v-59h100v-195h-100v-88h-230v88h-100v195h100v59h-100v195h100v87h230v-87h100z" />
    <glyph glyph-name="bullet" unicode="&#x2022;" horiz-adv-x="382" 
d="M110 193q-37 22 -58.5 59.5t-21.5 81.5q0 43 21.5 80t58.5 59t81 22q43 0 80 -22t59 -59t22 -80q0 -44 -22 -81.5t-59 -59.5t-80 -22q-44 0 -81 22z" />
    <glyph glyph-name="twodotenleader" unicode="&#x2025;" horiz-adv-x="545" 
d="M334 21.5q-31 31.5 -31 75.5t31 75t75 31q43 0 74.5 -31.5t31.5 -74.5q0 -44 -31.5 -75.5t-74.5 -31.5q-44 0 -75 31.5zM61 21.5q-31 31.5 -31 75.5t31 75t75 31q43 0 74.5 -31.5t31.5 -74.5q0 -44 -31.5 -75.5t-74.5 -31.5q-44 0 -75 31.5z" />
    <glyph glyph-name="ellipsis" unicode="&#x2026;" horiz-adv-x="818" 
d="M334 21.5q-31 31.5 -31 75.5t31 75t75 31q43 0 74.5 -31.5t31.5 -74.5q0 -44 -31.5 -75.5t-74.5 -31.5q-44 0 -75 31.5zM61 21.5q-31 31.5 -31 75.5t31 75t75 31q43 0 74.5 -31.5t31.5 -74.5q0 -44 -31.5 -75.5t-74.5 -31.5q-44 0 -75 31.5zM607 21.5q-31 31.5 -31 75.5
t31 75t75 31q43 0 74.5 -31.5t31.5 -74.5q0 -44 -31.5 -75.5t-74.5 -31.5q-44 0 -75 31.5z" />
    <glyph glyph-name="uni202F" unicode="&#x202f;" horiz-adv-x="480" 
 />
    <glyph glyph-name="perthousand" unicode="&#x2030;" horiz-adv-x="1053" 
d="M952 335.5q45 -23.5 68 -64.5t23 -91q0 -51 -23 -92t-68 -64.5t-108 -23.5q-77 0 -126 34q-49 -34 -124 -34q-91 0 -144 47.5t-57 122.5l-111 -171h-228l252 386q-40 -18 -95 -18q-64 0 -109 23.5t-68.5 64.5t-23.5 92q0 50 23.5 91t69 64.5t108.5 23.5t108 -23.5
t68.5 -64.5t23.5 -91v-2l113 173h227l-243 -373q39 14 86 14q74 0 124 -33q50 33 126 33q63 0 108 -23.5zM243 515.5q14 13.5 14 31.5t-14 30.5t-32 12.5t-32 -12.5t-14 -30.5t14 -31.5t32 -13.5t32 13.5zM624 149q13 13 13 31t-13 30.5t-30 12.5q-18 0 -32 -12.5t-14 -30.5
t14 -31t32 -13q17 0 30 13zM874 149q13 13 13 31t-13 30.5t-30 12.5q-18 0 -32 -12.5t-14 -30.5t14 -31t32 -13q17 0 30 13z" />
    <glyph glyph-name="uni2031" unicode="&#x2031;" horiz-adv-x="1303" 
d="M1202 335.5q45 -23.5 68 -64.5t23 -91q0 -51 -23 -92t-68 -64.5t-108 -23.5q-77 0 -126 34q-49 -34 -124 -34q-77 0 -126 34q-49 -34 -124 -34q-91 0 -144 47.5t-57 122.5l-111 -171h-228l252 386q-40 -18 -95 -18q-64 0 -109 23.5t-68.5 64.5t-23.5 92q0 50 23.5 91
t69 64.5t108.5 23.5t108 -23.5t68.5 -64.5t23.5 -91v-2l113 173h227l-243 -373q39 14 86 14q74 0 124 -33q50 33 126 33q74 0 124 -33q50 33 126 33q63 0 108 -23.5zM243 515.5q14 13.5 14 31.5t-14 30.5t-32 12.5t-32 -12.5t-14 -30.5t14 -31.5t32 -13.5t32 13.5zM624 149
q13 13 13 31t-13 30.5t-30 12.5q-18 0 -32 -12.5t-14 -30.5t14 -31t32 -13q17 0 30 13zM874 149q13 13 13 31t-13 30.5t-30 12.5q-18 0 -32 -12.5t-14 -30.5t14 -31t32 -13q17 0 30 13zM1124 149q13 13 13 31t-13 30.5t-30 12.5q-18 0 -32 -12.5t-14 -30.5t14 -31t32 -13
q17 0 30 13z" />
    <glyph glyph-name="minute" unicode="&#x2032;" horiz-adv-x="600" 
d="M225 758h165l-82 -315h-107z" />
    <glyph glyph-name="second" unicode="&#x2033;" horiz-adv-x="600" 
d="M145 758h155l-72 -315h-107zM335 758h155l-72 -315h-107z" />
    <glyph glyph-name="uni2034" unicode="&#x2034;" horiz-adv-x="609" 
d="M34 758h165l-82 -315h-107zM434 758h165l-82 -315h-107zM234 758h165l-82 -315h-107z" />
    <glyph glyph-name="guilsinglleft" unicode="&#x2039;" horiz-adv-x="481" 
d="M229 732h222l-200 -352l200 -352h-222l-199 352z" />
    <glyph glyph-name="guilsinglright" unicode="&#x203a;" horiz-adv-x="481" 
d="M30 732h222l199 -352l-199 -352h-222l200 352z" />
    <glyph glyph-name="uni203B" unicode="&#x203b;" horiz-adv-x="792" 
d="M663 780l113 -115l-271 -271l271 -270l-113 -115l-272 272l-262 -262l-113 115l261 261l-261 260l113 114l262 -261zM321 618q-24 25 -24 65t24 65.5t75 25.5q48 0 73.5 -26t25.5 -65q0 -40 -24.5 -65t-74.5 -25q-51 0 -75 25zM24 321.5q-24 24.5 -24 64.5t24 65.5
t75 25.5q49 0 74 -25.5t25 -65.5q0 -39 -24.5 -64t-74.5 -25q-51 0 -75 24.5zM766.5 451q25.5 -26 25.5 -65t-24.5 -64t-74.5 -25q-51 0 -75 24.5t-24 64.5t24 65.5t75 25.5q48 0 73.5 -26zM469.5 155q25.5 -26 25.5 -65q0 -40 -24.5 -65t-74.5 -25q-51 0 -75 25t-24 65
t24 65.5t75 25.5q48 0 73.5 -26z" />
    <glyph glyph-name="exclamdbl" unicode="&#x203c;" horiz-adv-x="609" 
d="M279 780q0 -67 -5 -257q-2 -30 -2 -44q-20 -141 -25 -246h-185q-5 105 -25 246l-1 44q-6 154 -6 257h249zM270 -20h-232v178h232v-178zM579 780q0 -67 -5 -257q-2 -30 -2 -44q-20 -141 -25 -246h-185q-5 105 -25 246l-1 44q-6 154 -6 257h249zM570 -20h-232v178h232v-178
z" />
    <glyph glyph-name="uni203D" unicode="&#x203d;" horiz-adv-x="764" 
d="M559.5 760q80.5 -32 127.5 -89t47 -131q0 -60 -29 -103t-74 -70l-53 -30q-43 -24 -57 -33q-23 -14 -32 -31t-9 -40h-179q-3 57 -19 137q-6 104 -6 170h193q0 -43 -2 -105q22 30 33 52.5t11 46.5q0 44 -35 67.5t-92 23.5q-67 0 -109.5 -28.5t-42.5 -91.5q0 -17 5 -44
q-70 14 -206 14q-1 9 -1 25q0 84 44.5 150.5t125 104t184.5 37.5q95 0 175.5 -32zM501 -20h-232v178h232v-178z" />
    <glyph glyph-name="uni2042" unicode="&#x2042;" horiz-adv-x="800" 
d="M347 461l-74 -55l-61 108l84 36l-84 37l61 107l74 -54l-10 91h124l-11 -92l74 55l62 -107l-84 -37l84 -36l-62 -108l-74 54l11 -90h-124zM249 292l74 55l62 -107l-84 -37l84 -36l-62 -108l-74 54l11 -90h-124l10 91l-74 -55l-61 108l84 36l-84 37l61 107l74 -54l-10 91
h124zM725 347l62 -107l-84 -37l84 -36l-62 -108l-74 54l11 -90h-124l10 91l-74 -55l-61 108l84 36l-84 37l61 107l74 -54l-10 91h124l-11 -92z" />
    <glyph glyph-name="fraction" unicode="&#x2044;" horiz-adv-x="219" 
d="M-52 -20h-168l491 737h168z" />
    <glyph glyph-name="uni2047" unicode="&#x2047;" horiz-adv-x="1035" 
d="M862.5 760q65.5 -32 104 -89t38.5 -131q0 -60 -24 -103t-61 -70l-41 -29q-19 -13 -48 -34q-19 -14 -26.5 -31t-7.5 -40h-217q0 78 34.5 129t123.5 88q60 25 60 85q0 30 -19 50t-53 20q-46 0 -68 -39t-17 -104l-47 5q-22 -62 -74 -100l-41 -29q-19 -13 -48 -34
q-19 -14 -26.5 -31t-7.5 -40h-217q0 78 34.5 129t123.5 88q60 25 60 84q0 31 -16.5 51t-49.5 20q-42 0 -67 -28.5t-25 -78.5q0 -17 5 -44q-74 21 -215 21q-1 8 -1 25q0 84 36.5 150.5t102 104t151.5 37.5q59 0 111.5 -18.5t91.5 -51.5q80 70 197 70q78 0 143.5 -32zM398 -20
h-220v178h220v-178zM798 -20h-220v178h220v-178z" />
    <glyph glyph-name="uni2048" unicode="&#x2048;" horiz-adv-x="1039" 
d="M559.5 760q80.5 -32 127.5 -89t47 -131q0 -60 -29 -103t-74 -70l-53 -30q-43 -24 -57 -33q-23 -14 -32 -31t-9 -40h-229q0 76 36 127.5t121 89.5q38 17 55.5 37.5t17.5 46.5q0 29 -27.5 50t-69.5 21q-57 0 -88.5 -28t-31.5 -79q0 -20 6 -46q-80 23 -239 23q-1 9 -1 25
q0 84 44.5 150.5t125 104t184.5 37.5q95 0 175.5 -32zM481 -20h-232v178h232v-178zM1009 780q0 -67 -5 -257q-2 -30 -2 -44q-20 -141 -25 -246h-185q-5 105 -25 246l-1 44q-6 154 -6 257h249zM1000 -20h-232v178h232v-178z" />
    <glyph glyph-name="uni2049" unicode="&#x2049;" horiz-adv-x="1021" 
d="M279 780q0 -67 -5 -257q-2 -30 -2 -44q-20 -141 -25 -246h-185q-5 105 -25 246l-1 44q-6 154 -6 257h249zM270 -20h-232v178h232v-178zM836.5 760q80.5 -32 127.5 -89t47 -131q0 -60 -29 -103t-74 -70l-53 -30q-43 -24 -57 -33q-23 -14 -32 -31t-9 -40h-229
q0 76 36 127.5t121 89.5q38 17 55.5 37.5t17.5 46.5q0 29 -27.5 50t-69.5 21q-57 0 -88.5 -28t-31.5 -79q0 -20 6 -46q-80 23 -239 23q-1 9 -1 25q0 84 44.5 150.5t125 104t184.5 37.5q95 0 175.5 -32zM758 -20h-232v178h232v-178z" />
    <glyph glyph-name="uni2051" unicode="&#x2051;" horiz-adv-x="800" 
d="M534 737l65 -114l-90 -39l90 -39l-65 -114l-79 58l11 -97h-132l11 98l-79 -59l-65 114l90 39l-90 39l65 114l79 -58l-11 97h132l-11 -97zM455 260l79 58l65 -114l-90 -39l90 -39l-65 -114l-79 58l11 -97h-132l11 98l-79 -59l-65 114l90 39l-90 39l65 114l79 -58l-11 97
h132z" />
    <glyph glyph-name="uni205F" unicode="&#x205f;" horiz-adv-x="4500" 
 />
    <glyph glyph-name="uni2074" unicode="&#x2074;" horiz-adv-x="695" 
d="M665 575v-142h-103v-95h-179q3 35 3 71q1 8 1 24h-357v152q173 133 313 299h219v-309h103zM391 735q-55 -57 -91.5 -91t-82.5 -69h172z" />
    <glyph glyph-name="Euro" unicode="&#x20ac;" horiz-adv-x="835" 
d="M797.5 164.5q3.5 -33.5 10.5 -79.5q3 -14 7 -47q-93 -26 -169 -37t-148 -11q-359 0 -426 249h-62v121h48v19h-48v121h67q36 117 140 182t281 65q74 0 150 -11.5t167 -36.5l-6 -45q-14 -96 -14 -161q-88 25 -157.5 34.5t-146.5 9.5q-83 0 -136 -37h261v-121h-325v-19h325
v-121h-260q55 -38 150 -38q80 0 143.5 7.5t145.5 26.5q-1 -37 2.5 -70.5z" />
    <glyph glyph-name="uni2116" unicode="&#x2116;" horiz-adv-x="1470" 
d="M989 337.5q-60 64.5 -60 169.5q0 102 60 166t186 64q86 0 143 -30.5t84.5 -82.5t27.5 -117q0 -106 -63.5 -170t-191.5 -64q-126 0 -186 64.5zM879 725q-7 -169 -7 -362q0 -194 7 -363h-358l-242 546l18 -546h-257q8 194 8 363q0 168 -8 362h368l243 -561l-17 561h245z
M1245 443.5q22 23.5 22 62.5q0 37 -22 61t-67 24q-44 0 -65 -23.5t-21 -61.5q0 -39 21 -62.5t65 -23.5q45 0 67 23.5zM947 80v153h470v-153h-470z" />
    <glyph glyph-name="trademark" unicode="&#x2122;" horiz-adv-x="1000" 
d="M43 726h440v-117l-151 3v-221h-139v221l-151 -3zM939 726l36 -335h-129l-7 240l-47 -240h-121l-48 240l-6 -240h-130l36 335h178l29 -161l26 161h183z" />
    <glyph glyph-name="uni2153" horiz-adv-x="1343" 
d="M733 717h168l-491 -737h-168l123 184h-330v142q61 -3 122 -3v259q-26 -58 -110 -76q-4 95 -17 161q60 8 83.5 20.5t36.5 28t18 20.5v1h164v-414l100 3v-41zM1184 260q66 0 97.5 -31.5t31.5 -72.5q0 -59 -39 -101t-106 -63.5t-149 -21.5q-238 0 -307 166l46 12
q52 13 80.5 22t52.5 21q15 -38 43 -54t78 -16q53 0 86 12t33 36q0 19 -29 25.5t-103 6.5h-57v131h34q57 0 93.5 5t36.5 21q0 19 -19 31t-60 12q-100 0 -136 -85q-77 31 -172 45q75 170 304 170q77 0 138.5 -20t96 -55t34.5 -79q0 -26 -12 -45.5t-47 -38.5t-102 -38
q33 5 53 5z" />
    <glyph glyph-name="uni2154" horiz-adv-x="1509" 
d="M899 717h168l-491 -737h-168l123 184h-497q-6 80 38 137.5t125 106.5q14 9 38 19.5t32 14.5q66 30 98.5 49.5t32.5 39.5q0 26 -22 41t-68 15q-47 -1 -72 -25.5t-25 -62.5q0 -13 3 -25q-88 11 -184 16q0 64 33.5 115.5t100.5 81.5t165 30q90 0 150 -24.5t88 -61.5t28 -76
q0 -45 -20 -77.5t-57 -57.5t-100 -54q-11 -6 -59 -19q-96 -27 -140 -51q242 12 379 30q-13 -39 -22 -93zM1350 260q66 0 97.5 -31.5t31.5 -72.5q0 -59 -39 -101t-106 -63.5t-149 -21.5q-238 0 -307 166l46 12q52 13 80.5 22t52.5 21q15 -38 43 -54t78 -16q53 0 86 12t33 36
q0 19 -29 25.5t-103 6.5h-57v131h34q57 0 93.5 5t36.5 21q0 19 -19 31t-60 12q-100 0 -136 -85q-77 31 -172 45q75 170 304 170q77 0 138.5 -20t96 -55t34.5 -79q0 -26 -12 -45.5t-47 -38.5t-102 -38q33 5 53 5z" />
    <glyph glyph-name="uni2155" horiz-adv-x="1346" 
d="M1199.5 337.5q58.5 -23.5 87.5 -63.5t29 -90q0 -113 -78.5 -164t-210.5 -51q-110 0 -194 37.5t-122 125.5q41 6 90.5 19.5t89.5 27.5q15 -32 43.5 -46.5t77.5 -14.5q51 0 84.5 16t33.5 46t-29 50.5t-90 20.5q-39 0 -71.5 -14t-46.5 -40h-174q18 74 31.5 162t17.5 158
l-358 -537h-168l123 184h-330v142q61 -3 122 -3v259q-26 -58 -110 -76q-4 95 -17 161q60 8 83.5 20.5t36.5 28t18 20.5v1h164v-414l100 3v-41l301 452h168l-129 -194h524v-146q-83 5 -157.5 6.5t-207.5 1.5l-8 -43q61 19 132 19q86 0 144.5 -23.5z" />
    <glyph glyph-name="uni2156" horiz-adv-x="1512" 
d="M1365.5 337.5q58.5 -23.5 87.5 -63.5t29 -90q0 -113 -78.5 -164t-210.5 -51q-110 0 -194 37.5t-122 125.5q41 6 90.5 19.5t89.5 27.5q15 -32 43.5 -46.5t77.5 -14.5q51 0 84.5 16t33.5 46t-29 50.5t-90 20.5q-39 0 -71.5 -14t-46.5 -40h-174q18 74 31.5 162t17.5 158
l-358 -537h-168l123 184h-497q-6 80 38 137.5t125 106.5q14 9 38 19.5t32 14.5q66 30 98.5 49.5t32.5 39.5q0 26 -22 41t-68 15q-47 -1 -72 -25.5t-25 -62.5q0 -13 3 -25q-88 11 -184 16q0 64 33.5 115.5t100.5 81.5t165 30q90 0 150 -24.5t88 -61.5t28 -76q0 -45 -20 -77.5
t-57 -57.5t-100 -54q-11 -6 -59 -19q-96 -27 -140 -51q242 12 379 30q-13 -39 -22 -93l323 484h168l-129 -194h524v-146q-83 5 -157.5 6.5t-207.5 1.5l-8 -43q61 19 132 19q86 0 144.5 -23.5z" />
    <glyph glyph-name="uni2157" horiz-adv-x="1546" 
d="M1399.5 337.5q58.5 -23.5 87.5 -63.5t29 -90q0 -113 -78.5 -164t-210.5 -51q-110 0 -194 37.5t-122 125.5q41 6 90.5 19.5t89.5 27.5q15 -32 43.5 -46.5t77.5 -14.5q51 0 84.5 16t33.5 46t-29 50.5t-90 20.5q-39 0 -71.5 -14t-46.5 -40h-174q18 74 31.5 162t17.5 158
l-358 -537h-168l491 737h168l-129 -194h524v-146q-83 5 -157.5 6.5t-207.5 1.5l-8 -43q61 19 132 19q86 0 144.5 -23.5zM593 240q-39 -42 -106 -63.5t-149 -21.5q-238 0 -307 166l46 12q52 13 80.5 22t52.5 21q15 -38 43 -54t78 -16q53 0 86 12t33 36q0 19 -29 25.5
t-103 6.5h-57v131h34q57 0 93.5 5t36.5 21q0 19 -19 31t-60 12q-100 0 -136 -85q-77 31 -172 45q75 170 304 170q77 0 138.5 -20t96 -55t34.5 -79q0 -26 -12 -45.5t-47 -38.5t-102 -38q33 5 53 5q66 0 97.5 -31.5t31.5 -72.5q0 -59 -39 -101z" />
    <glyph glyph-name="uni2158" horiz-adv-x="1579" 
d="M1432.5 337.5q58.5 -23.5 87.5 -63.5t29 -90q0 -113 -78.5 -164t-210.5 -51q-110 0 -194 37.5t-122 125.5q41 6 90.5 19.5t89.5 27.5q15 -32 43.5 -46.5t77.5 -14.5q51 0 84.5 16t33.5 46t-29 50.5t-90 20.5q-39 0 -71.5 -14t-46.5 -40h-174q18 74 31.5 162t17.5 158
l-358 -537h-168l185 278h-98v-95h-179q3 35 3 71q1 8 1 24h-357v152q173 133 313 299h219v-309h103v-135l301 452h168l-129 -194h524v-146q-83 5 -157.5 6.5t-207.5 1.5l-8 -43q61 19 132 19q86 0 144.5 -23.5zM391 560q-55 -57 -91.5 -91t-82.5 -69h172z" />
    <glyph glyph-name="uni2159" horiz-adv-x="1325" 
d="M733 717h168l-491 -737h-168l123 184h-330v142q61 -3 122 -3v259q-26 -58 -110 -76q-4 95 -17 161q60 8 83.5 20.5t36.5 28t18 20.5v1h164v-414l100 3v-41zM1190 326.5q49 -24.5 77 -65.5t28 -89q0 -62 -39 -107.5t-106 -70t-150 -24.5q-84 0 -150 33.5t-102.5 93
t-36.5 135.5q0 152 84 225.5t226 73.5q174 0 273 -87q-41 -43 -83 -106q-30 23 -85 37t-97 14q-65 0 -109.5 -33t-54.5 -94l-1 -10q37 52 96 75.5t121 23.5q60 0 109 -24.5zM1082.5 130.5q31.5 17.5 31.5 42.5t-31.5 42.5t-75.5 17.5t-75 -17.5t-31 -42.5t31 -42.5t75 -17.5
t75.5 17.5z" />
    <glyph glyph-name="uni215A" horiz-adv-x="1528" 
d="M445 -20l491 737h168l-491 -737h-168zM556.5 205q-78.5 -51 -210.5 -51q-110 0 -194 37.5t-122 125.5q41 6 90.5 19.5t89.5 27.5q15 -32 43.5 -46.5t77.5 -14.5q51 0 84.5 16t33.5 46t-29 50.5t-90 20.5q-39 0 -71.5 -14t-46.5 -40h-174q18 77 32 167t17 159h528v-146
q-83 5 -157.5 6.5t-207.5 1.5l-8 -43q61 19 132 19q86 0 144.5 -23.5t87.5 -63.5t29 -90q0 -113 -78.5 -164zM1393 326.5q49 -24.5 77 -65.5t28 -89q0 -62 -39 -107.5t-106 -70t-150 -24.5q-84 0 -150 33.5t-102.5 93t-36.5 135.5q0 152 84 225.5t226 73.5q174 0 273 -87
q-41 -43 -83 -106q-30 23 -85 37t-97 14q-65 0 -109.5 -33t-54.5 -94l-1 -10q37 52 96 75.5t121 23.5q60 0 109 -24.5zM1285.5 130.5q31.5 17.5 31.5 42.5t-31.5 42.5t-75.5 17.5t-75 -17.5t-31 -42.5t31 -42.5t75 -17.5t75.5 17.5z" />
    <glyph glyph-name="oneeighth" horiz-adv-x="1340" 
d="M733 717h168l-491 -737h-168l123 184h-330v142q61 -3 122 -3v259q-26 -58 -110 -76q-4 95 -17 161q60 8 83.5 20.5t36.5 28t18 20.5v1h164v-414l100 3v-41zM1283 219.5q27 -38.5 27 -74.5q0 -89 -78.5 -131t-220.5 -42t-221 42t-79 131q0 36 26 74t73 56q-41 19 -62 43
t-21 64q0 47 32.5 83t96.5 56.5t155 20.5t154.5 -20.5t96 -56.5t32.5 -83q0 -41 -21.5 -64.5t-65.5 -42.5q49 -17 76 -55.5zM1085 334q29 15 29 40t-29.5 39.5t-71.5 14.5q-44 0 -73.5 -14.5t-29.5 -39.5t29.5 -40t73.5 -15q43 0 72 15zM1085 123.5q29 14.5 29 39.5
t-29.5 40t-71.5 15q-44 0 -73.5 -15t-29.5 -40t29.5 -39.5t73.5 -14.5q43 0 72 14.5z" />
    <glyph glyph-name="threeeighths" horiz-adv-x="1540" 
d="M442 -20l491 737h168l-491 -737h-168zM593 240q-39 -42 -106 -63.5t-149 -21.5q-238 0 -307 166l46 12q52 13 80.5 22t52.5 21q15 -38 43 -54t78 -16q53 0 86 12t33 36q0 19 -29 25.5t-103 6.5h-57v131h34q57 0 93.5 5t36.5 21q0 19 -19 31t-60 12q-100 0 -136 -85
q-77 31 -172 45q75 170 304 170q77 0 138.5 -20t96 -55t34.5 -79q0 -26 -12 -45.5t-47 -38.5t-102 -38q33 5 53 5q66 0 97.5 -31.5t31.5 -72.5q0 -59 -39 -101zM1483 219.5q27 -38.5 27 -74.5q0 -89 -78.5 -131t-220.5 -42t-221 42t-79 131q0 36 26 74t73 56q-41 19 -62 43
t-21 64q0 47 32.5 83t96.5 56.5t155 20.5t154.5 -20.5t96 -56.5t32.5 -83q0 -41 -21.5 -64.5t-65.5 -42.5q49 -17 76 -55.5zM1285 334q29 15 29 40t-29.5 39.5t-71.5 14.5q-44 0 -73.5 -14.5t-29.5 -39.5t29.5 -40t73.5 -15q43 0 72 15zM1285 123.5q29 14.5 29 39.5
t-29.5 40t-71.5 15q-44 0 -73.5 -15t-29.5 -40t29.5 -39.5t73.5 -14.5q43 0 72 14.5z" />
    </font>
</defs>
</svg>
