<svg width="430" height="720" viewBox="0 0 430 720" fill="none" xmlns="http://www.w3.org/2000/svg">
<g clip-path="url(#clip0_3533_6978)">
<mask id="mask0_3533_6978" style="mask-type:luminance" maskUnits="userSpaceOnUse" x="0" y="0" width="430" height="720">
<path d="M430 0H0V720H430V0Z" fill="white"/>
</mask>
<g mask="url(#mask0_3533_6978)">
<g opacity="0.137">
<path d="M435.179 553.59C446.288 565.555 452.19 581.442 451.585 597.758C450.981 614.073 443.92 629.48 431.956 640.59C419.992 651.699 404.104 657.601 387.789 656.996C371.473 656.392 356.066 649.331 344.956 637.367L435.179 553.59Z" fill="#BDDCF2"/>
<path d="M456.418 669.23C456.418 679.717 452.252 689.775 444.836 697.191C437.42 704.607 427.362 708.773 416.875 708.773C406.388 708.773 396.33 704.607 388.915 697.191C381.499 689.775 377.333 679.717 377.333 669.23H456.418Z" fill="#BDDCF2"/>
<path opacity="0.643" d="M243.451 610.739C234.509 620.343 222.117 626.001 209.003 626.468C195.889 626.936 183.127 622.174 173.523 613.232C163.919 604.289 158.261 591.898 157.793 578.783C157.325 565.669 162.087 552.905 171.029 543.301L243.451 610.739Z" fill="#BDDCF2"/>
<path opacity="0.79" d="M279.204 326.39C279.204 342.232 272.911 357.425 261.709 368.626C250.507 379.828 235.314 386.121 219.472 386.121C211.628 386.121 203.861 384.576 196.614 381.575C189.367 378.573 182.782 374.173 177.235 368.627C171.689 363.08 167.289 356.495 164.287 349.248C161.285 342.001 159.74 334.234 159.74 326.39H279.204Z" fill="#BDDCF2"/>
<path d="M383.952 397.842C373.858 407.215 360.454 412.193 346.689 411.684C332.924 411.174 319.925 405.217 310.552 395.123C301.18 385.029 296.201 371.625 296.71 357.86C297.22 344.095 303.177 331.097 313.27 321.723L383.952 397.842Z" fill="#BDDCF2"/>
<path d="M212.403 510.043C204.11 517.744 193.097 521.835 181.787 521.416C170.478 520.997 159.797 516.102 152.096 507.809C144.396 499.515 140.305 488.502 140.724 477.193C141.143 465.883 146.037 455.203 154.33 447.502L212.403 510.043Z" fill="#BDDCF2"/>
<path d="M364.508 536.023C354.414 545.396 341.01 550.375 327.245 549.865C313.48 549.356 300.481 543.399 291.108 533.305C281.736 523.211 276.757 509.807 277.267 496.042C277.777 482.278 283.733 469.279 293.826 459.905L364.508 536.023Z" fill="#BDDCF2"/>
<path d="M435.181 239.065C446.29 251.029 452.192 266.917 451.587 283.232C450.983 299.548 443.922 314.955 431.958 326.065C419.994 337.174 404.106 343.076 387.791 342.471C371.475 341.867 356.068 334.806 344.958 322.842L435.181 239.065Z" fill="#BDDCF2"/>
<path opacity="0.78" d="M277.72 369.17C283.614 375.516 288.199 382.961 291.215 391.079C294.231 399.197 295.619 407.83 295.298 416.485C294.978 425.139 292.956 433.646 289.348 441.519C285.739 449.392 280.616 456.477 274.269 462.37C267.923 468.263 260.479 472.849 252.36 475.865C244.242 478.881 235.609 480.268 226.954 479.948C218.3 479.627 209.793 477.605 201.92 473.996C194.047 470.388 186.962 465.264 181.069 458.917L277.72 369.17Z" fill="#BDDCF2"/>
<path d="M243.451 295.014C239.023 299.769 233.702 303.606 227.791 306.305C221.881 309.004 215.496 310.512 209.003 310.743C202.51 310.975 196.034 309.925 189.946 307.653C183.859 305.382 178.278 301.934 173.523 297.506C163.919 288.564 158.261 276.172 157.793 263.058C157.325 249.943 162.087 237.18 171.029 227.576L243.451 295.014Z" fill="#BDDCF2"/>
<path opacity="0.856" d="M257 491.681C259.884 495.615 261.966 500.078 263.125 504.816C264.284 509.554 264.499 514.474 263.757 519.295C263.015 524.116 261.331 528.744 258.8 532.914C256.27 537.084 252.943 540.715 249.009 543.599C241.065 549.424 231.132 551.855 221.395 550.357C211.659 548.859 202.916 543.554 197.091 535.61L257 491.681Z" fill="#BDDCF2"/>
<path opacity="0.827" d="M377.335 241.059C377.335 260.295 369.694 278.744 356.092 292.346C342.489 305.948 324.041 313.59 304.804 313.59C285.568 313.59 267.119 305.948 253.517 292.346C239.915 278.744 232.273 260.295 232.273 241.059H377.335Z" fill="#BDDCF2"/>
<path d="M437.067 424.521C437.067 442.06 430.1 458.88 417.698 471.282C405.297 483.684 388.476 490.651 370.938 490.652C362.253 490.652 353.654 488.942 345.63 485.618C337.607 482.295 330.316 477.424 324.175 471.283C318.034 465.142 313.163 457.852 309.84 449.828C306.516 441.805 304.806 433.206 304.806 424.521H437.067Z" fill="#BDDCF2"/>
<path d="M456.421 354.705C456.421 365.193 452.255 375.251 444.839 382.667C437.423 390.082 427.365 394.249 416.878 394.249C411.685 394.249 406.543 393.226 401.746 391.239C396.948 389.251 392.589 386.339 388.917 382.667C385.245 378.995 382.333 374.635 380.346 369.838C378.358 365.04 377.336 359.898 377.336 354.705H456.421Z" fill="#BDDCF2"/>
<path opacity="0.837" d="M210.94 401.054C210.94 410.672 207.119 419.896 200.318 426.697C193.517 433.498 184.292 437.319 174.674 437.319C169.912 437.319 165.196 436.381 160.796 434.559C156.396 432.736 152.398 430.065 149.031 426.697C145.663 423.33 142.992 419.332 141.17 414.932C139.347 410.532 138.409 405.817 138.409 401.054H210.94Z" fill="#BDDCF2"/>
<path d="M443.62 515.764C443.62 520.527 442.682 525.242 440.86 529.642C439.037 534.042 436.366 538.04 432.999 541.408C429.631 544.775 425.633 547.446 421.233 549.269C416.833 551.091 412.117 552.029 407.355 552.029C402.592 552.03 397.876 551.092 393.475 549.27C389.075 547.448 385.076 544.777 381.708 541.409C378.34 538.042 375.668 534.044 373.845 529.643C372.022 525.243 371.084 520.527 371.084 515.764H443.62Z" fill="#BDDCF2"/>
<path opacity="0.616" d="M136.523 239.065C147.632 251.029 153.533 266.917 152.929 283.232C152.325 299.548 145.264 314.955 133.3 326.065C121.335 337.174 105.448 343.076 89.1323 342.471C72.8168 341.867 57.4095 334.806 46.2998 322.842L136.523 239.065Z" fill="#BDDCF2"/>
<path opacity="0.805" d="M157.762 354.705C157.762 365.193 153.596 375.251 146.18 382.667C138.764 390.082 128.706 394.249 118.219 394.249C113.026 394.249 107.884 393.226 103.086 391.239C98.2889 389.251 93.9297 386.339 90.2579 382.667C86.5861 378.995 83.6735 374.635 81.6864 369.838C79.6993 365.04 78.6766 359.898 78.6768 354.705H157.762Z" fill="#BDDCF2"/>
<path opacity="0.674" d="M144.962 515.764C144.961 525.382 141.14 534.606 134.339 541.407C127.538 548.208 118.314 552.029 108.696 552.029C103.933 552.029 99.2174 551.091 94.8175 549.269C90.4176 547.446 86.4197 544.775 83.0521 541.408C79.6846 538.04 77.0133 534.042 75.1909 529.642C73.3685 525.242 72.4305 520.527 72.4307 515.764H144.962Z" fill="#BDDCF2"/>
<path opacity="0.753" d="M243.451 296.214C239.023 300.969 233.702 304.806 227.791 307.505C221.881 310.203 215.496 311.711 209.003 311.943C202.51 312.174 196.034 311.124 189.946 308.853C183.859 306.582 178.278 303.134 173.523 298.706C163.919 289.763 158.261 277.372 157.793 264.257C157.325 251.143 162.087 238.38 171.029 228.776L243.451 296.214Z" fill="#BDDCF2"/>
<path opacity="0.877" d="M279.203 11.8682C279.203 27.71 272.91 42.9029 261.708 54.1047C250.506 65.3066 235.313 71.5998 219.471 71.6001C203.63 71.5998 188.437 65.3066 177.235 54.1047C166.033 42.9028 159.74 27.7099 159.74 11.8682H279.203Z" fill="#BDDCF2"/>
<path d="M383.952 83.3173C373.858 92.6898 360.454 97.6689 346.689 97.1592C332.924 96.6495 319.925 90.6927 310.552 80.5992C301.18 70.505 296.201 57.1014 296.71 43.3364C297.22 29.5715 303.177 16.5726 313.27 7.19922L383.952 83.3173Z" fill="#BDDCF2"/>
<path opacity="0.766" d="M212.403 195.517C204.11 203.218 193.097 207.309 181.787 206.89C170.478 206.471 159.797 201.576 152.096 193.283C144.396 184.99 140.305 173.977 140.724 162.667C141.143 151.357 146.037 140.677 154.33 132.976L212.403 195.517Z" fill="#BDDCF2"/>
<path opacity="0.753" d="M364.508 221.492C354.413 230.865 341.01 235.844 327.245 235.334C313.48 234.824 300.481 228.867 291.108 218.774C281.735 208.68 276.756 195.276 277.266 181.511C277.776 167.746 283.732 154.747 293.826 145.374L364.508 221.492Z" fill="#BDDCF2"/>
<path d="M435.181 -75.46C446.29 -63.4955 452.192 -47.608 451.587 -31.2925C450.983 -14.9769 443.922 0.430305 431.958 11.54C419.994 22.6492 404.106 28.5507 387.791 27.9462C371.475 27.3418 356.068 20.281 344.958 8.31702L435.181 -75.46Z" fill="#BDDCF2"/>
<path opacity="0.65" d="M277.72 54.644C283.614 60.9901 288.199 68.4348 291.215 76.5531C294.231 84.6714 295.619 93.3042 295.298 101.959C294.978 110.613 292.956 119.12 289.348 126.993C285.739 134.866 280.616 141.951 274.269 147.844C267.923 153.737 260.479 158.323 252.36 161.339C244.242 164.355 235.609 165.742 226.954 165.422C218.3 165.101 209.793 163.079 201.92 159.47C194.047 155.862 186.962 150.738 181.069 144.391L277.72 54.644Z" fill="#BDDCF2"/>
<path d="M257 177.155C259.884 181.089 261.966 185.552 263.125 190.29C264.285 195.028 264.499 199.948 263.757 204.769C263.015 209.591 261.331 214.218 258.8 218.388C256.27 222.559 252.943 226.19 249.009 229.074C245.075 231.958 240.612 234.04 235.874 235.199C231.136 236.359 226.216 236.574 221.395 235.832C216.574 235.09 211.946 233.405 207.776 230.875C203.606 228.345 199.975 225.018 197.091 221.084L257 177.155Z" fill="#BDDCF2"/>
<path opacity="0.998" d="M437.067 109.995C437.067 127.534 430.1 144.355 417.698 156.757C405.297 169.159 388.477 176.127 370.938 176.127C362.253 176.127 353.653 174.417 345.63 171.093C337.606 167.77 330.316 162.899 324.175 156.758C318.034 150.617 313.163 143.326 309.839 135.303C306.516 127.279 304.806 118.68 304.806 109.995H437.067Z" fill="#BDDCF2"/>
<path d="M456.421 40.1812C456.421 50.6686 452.255 60.7266 444.839 68.1423C437.423 75.5581 427.365 79.7241 416.878 79.7241C406.391 79.7239 396.333 75.5577 388.917 68.142C381.502 60.7262 377.336 50.6684 377.336 40.1812H456.421Z" fill="#BDDCF2"/>
<path d="M210.939 86.5288C210.939 96.147 207.118 105.371 200.317 112.172C193.516 118.973 184.291 122.794 174.673 122.794C165.055 122.794 155.831 118.973 149.03 112.172C142.229 105.371 138.408 96.1469 138.408 86.5288H210.939Z" fill="#BDDCF2"/>
<path d="M443.62 201.242C443.62 206.005 442.682 210.72 440.86 215.12C439.037 219.52 436.366 223.518 432.998 226.886C429.631 230.253 425.633 232.925 421.233 234.747C416.833 236.569 412.117 237.507 407.355 237.507C397.737 237.507 388.512 233.686 381.711 226.885C374.91 220.085 371.089 210.86 371.089 201.242H443.62Z" fill="#BDDCF2"/>
<path opacity="0.735" d="M157.762 40.1812C157.762 50.6686 153.596 60.7266 146.18 68.1423C138.764 75.5581 128.706 79.7241 118.219 79.7241C107.731 79.7239 97.6738 75.5577 90.2583 68.142C82.8427 60.7262 78.6768 50.6684 78.6768 40.1812H157.762Z" fill="#BDDCF2"/>
<path opacity="0.723" d="M144.962 201.242C144.961 210.86 141.14 220.085 134.339 226.885C127.538 233.686 118.314 237.507 108.696 237.507C103.933 237.507 99.2174 236.569 94.8175 234.747C90.4176 232.925 86.4197 230.253 83.0521 226.886C79.6846 223.518 77.0133 219.52 75.1909 215.12C73.3685 210.72 72.4305 206.005 72.4307 201.242H144.962Z" fill="#BDDCF2"/>
</g>
</g>
</g>
<defs>
<clipPath id="clip0_3533_6978">
<rect width="430" height="720" fill="white"/>
</clipPath>
</defs>
</svg>
