<svg width="812" height="845" viewBox="0 0 812 845" fill="none" xmlns="http://www.w3.org/2000/svg">
<path d="M242.549 48.5635C242.249 48.5635 242.349 48.3635 242.549 48.5635V48.5635Z" fill="#96DBE3"/>
<path d="M363.749 12.664C367.149 13.464 370.849 11.164 371.549 7.76399C372.149 4.86399 370.149 0.763989 367.849 0.263989C363.649 -0.736011 360.249 1.16399 359.349 4.96399C358.549 8.36399 360.549 11.864 363.649 12.664H363.749Z" fill="#96DBE3"/>
<path d="M290.949 19.0643C293.949 19.7643 297.249 17.5643 297.849 14.4643C298.449 11.5643 296.249 8.16428 293.449 7.56428C290.449 6.86428 287.049 9.06428 286.449 12.0643C285.749 15.0643 287.949 18.3643 290.949 19.0643Z" fill="#96DBE3"/>
<path d="M332.349 12.6645C332.549 12.6645 332.649 12.4645 332.649 12.2645C332.849 12.1645 333.149 11.9645 333.349 11.7645C335.449 8.76451 335.149 5.4645 332.649 3.4645C330.349 1.6645 326.649 1.8645 324.549 3.9645C322.349 6.2645 322.249 10.0645 324.249 12.3645C326.149 14.4645 330.049 14.5645 332.449 12.6645H332.349Z" fill="#96DBE3"/>
<path d="M402.048 9.76449C403.148 9.86449 403.948 9.46449 404.148 8.46449C404.348 7.16449 403.748 6.36449 402.648 6.26449C401.548 6.06449 400.748 6.96449 400.648 7.86449C400.648 8.66449 401.048 9.66449 402.048 9.76449Z" fill="#96DBE3"/>
<path d="M627.904 765.248C620.326 764.003 614.408 767.947 612.644 775.629C610.983 783.104 616.277 789.021 623.025 790.89C629.253 792.655 637.558 787.568 638.389 780.716C640.154 774.591 635.793 766.494 627.904 765.248Z" fill="#96DBE3"/>
<path d="M101.58 213.076C103.137 205.705 99.0881 199.165 91.9251 197.608C84.5545 195.947 77.703 200.411 76.2496 207.782C74.9 214.529 79.1563 221.381 85.8002 222.834C93.5861 224.495 100.022 220.55 101.58 213.076Z" fill="#96DBE3"/>
<path d="M716.559 692.894C709.085 691.648 703.583 695.593 701.818 702.652C700.157 709.296 704.828 716.252 711.472 717.601C718.531 719.054 725.072 714.798 726.421 707.843C727.874 700.887 723.514 694.036 716.559 692.894Z" fill="#96DBE3"/>
<path d="M719.88 638.912C726.524 640.158 732.96 635.901 734.31 629.154C735.66 622.406 731.403 616.177 724.552 614.828C717.908 613.478 711.472 617.631 710.122 624.067C708.772 630.919 713.132 637.666 719.88 638.912Z" fill="#96DBE3"/>
<path d="M740.955 477.172C747.288 478.418 752.686 474.577 753.931 467.933C754.97 462.327 751.128 456.41 745.315 455.58C738.256 454.542 733.896 457.033 732.235 463.988C730.678 470.736 734.103 475.823 740.851 477.172H740.955Z" fill="#96DBE3"/>
<path d="M120.993 151.828C118.916 156.604 119.954 160.964 123.38 164.493C126.495 167.815 130.543 169.269 135.215 167.4C142.17 165.531 145.803 157.33 142.17 151.517C140.613 146.43 136.564 145.081 131.893 144.562C126.702 144.562 123.069 147.053 120.993 151.828Z" fill="#96DBE3"/>
<path d="M559.077 801.065C553.263 799.819 547.346 803.764 545.997 809.681C544.647 816.014 548.073 821.516 554.405 822.969C560.738 824.423 566.448 820.997 567.901 814.872C569.354 808.643 565.513 802.518 559.181 801.169L559.077 801.065Z" fill="#96DBE3"/>
<path d="M690.293 682.927C691.332 676.906 687.179 670.781 681.262 669.846C675.552 668.912 669.427 672.857 668.493 678.151C667.247 684.899 670.881 690.505 677.317 691.751C683.13 692.893 689.152 688.74 690.19 682.927H690.293Z" fill="#96DBE3"/>
<path d="M659.669 745.422C653.544 744.073 647.627 748.018 646.381 754.454C645.136 760.475 648.873 766.185 654.998 767.43C661.227 768.676 667.04 764.939 668.39 758.918C669.635 753.001 665.69 746.772 659.773 745.422H659.669Z" fill="#96DBE3"/>
<path d="M181.618 121.204C187.328 122.45 192.726 118.817 193.868 113.107C195.114 107.086 191.792 101.792 185.875 100.546C180.165 99.3003 174.559 102.934 173.417 108.436C172.172 114.457 175.701 119.959 181.618 121.204Z" fill="#96DBE3"/>
<path d="M98.8807 179.96C97.5311 185.878 101.061 191.484 106.978 192.833C112.584 194.183 118.19 190.549 119.539 184.632C120.889 178.611 117.671 173.42 111.546 172.071C105.525 170.721 100.23 174.043 98.8807 179.857V179.96Z" fill="#96DBE3"/>
<path d="M46.5593 293.842C41.3687 292.388 35.8667 296.541 34.7248 301.524C33.2714 307.649 37.4238 312.113 41.9915 313.358C47.4936 314.916 53.4108 311.801 54.5527 305.676C55.5908 300.071 52.3727 295.088 46.5593 293.842Z" fill="#96DBE3"/>
<path d="M747.287 574.236C751.958 578.181 758.602 577.973 762.547 573.717C766.7 569.357 766.907 562.609 762.962 558.353C758.81 553.785 751.543 553.474 747.702 557.107C746.872 557.522 746.249 558.145 746.041 559.08C742.408 562.505 742.304 568.007 745.937 573.094C746.145 573.717 746.56 574.132 747.287 574.34V574.236Z" fill="#96DBE3"/>
<path d="M95.0394 141.654C100.541 142.796 105.524 139.474 106.666 134.076C107.912 128.055 104.901 123.176 99.088 121.93C93.7936 120.788 88.2916 124.421 87.1497 129.82C86.0078 135.114 89.6412 140.616 95.0394 141.654Z" fill="#96DBE3"/>
<path d="M183.901 68.8833C189.611 69.5062 193.971 67.3261 195.424 59.9555C196.462 55.1802 192.725 50.1973 187.431 49.263C181.825 48.2248 176.842 51.6506 175.804 57.2564C174.766 62.7584 178.192 67.8452 183.797 68.9871L183.901 68.8833Z" fill="#96DBE3"/>
<path d="M688.529 722.584C683.338 721.546 678.252 725.179 677.213 730.37C676.279 735.664 679.601 740.543 684.999 741.581C690.398 742.619 695.277 739.401 696.315 734.003C697.353 729.02 693.616 723.518 688.529 722.584Z" fill="#96DBE3"/>
<path d="M122.652 113.937C127.428 114.871 132.411 111.549 133.449 106.67C134.487 101.791 131.165 96.8082 126.286 95.8739C121.095 94.8358 116.32 97.9502 115.282 103.037C114.244 108.124 117.566 112.899 122.652 113.937Z" fill="#96DBE3"/>
<path d="M70.9558 362.461C65.7653 361.111 60.1594 363.395 59.5366 367.755C58.7061 373.465 59.7442 377.513 66.0767 379.278C70.7482 380.628 75.4197 378.552 76.8731 372.011C77.9112 368.17 75.0045 363.603 70.9558 362.461Z" fill="#96DBE3"/>
<path d="M75.627 331.526C70.9555 330.488 66.3878 333.602 65.4535 338.378C64.5192 343.153 67.4259 347.721 72.2012 348.655C76.8727 349.589 81.5442 346.579 82.4785 341.803C83.4128 336.613 79.9871 332.46 75.627 331.526Z" fill="#96DBE3"/>
<path d="M773.758 508.213C778.533 509.251 782.478 506.656 783.516 501.777C784.554 496.794 782.063 492.953 777.184 492.018C772.408 491.084 768.36 493.576 767.425 498.351C766.491 502.919 769.294 507.279 773.862 508.213H773.758Z" fill="#96DBE3"/>
<path d="M716.351 563.647C720.296 564.478 724.449 561.779 725.279 557.73C726.317 553.266 723.514 549.01 719.05 548.076C714.898 547.245 710.849 549.944 709.811 554.201C708.773 558.664 711.576 562.609 716.248 563.647H716.351Z" fill="#96DBE3"/>
<path d="M254.39 32.653C257.919 32.653 261.034 30.0577 261.657 26.7357C261.864 25.5938 262.072 24.3481 261.657 23.2061C260.618 18.8461 256.985 18.0156 253.559 16.666C253.559 16.666 253.559 16.666 253.559 16.7698V16.9774C252.625 17.2889 251.691 17.6003 250.86 18.0156C247.538 19.5727 245.877 23.1023 246.708 26.7357C247.538 30.2653 250.653 32.7568 254.286 32.653H254.39Z" fill="#96DBE3"/>
<path d="M774.381 534.995C775.212 530.739 772.201 526.275 768.049 525.549C763.793 524.822 759.848 527.521 759.017 531.777C758.083 536.241 760.678 540.082 765.246 541.016C769.502 541.847 773.655 539.148 774.485 534.892L774.381 534.995Z" fill="#96DBE3"/>
<path d="M600.29 737.635C596.138 736.701 592.089 739.296 591.155 743.656C590.221 748.016 592.816 751.961 597.072 752.792C601.225 753.622 605.169 751.027 606 746.978C606.934 742.618 604.443 738.673 600.29 737.739V737.635Z" fill="#96DBE3"/>
<path d="M655.932 660.089C656.866 656.144 654.271 651.991 650.223 651.057C645.862 650.123 641.814 652.614 640.88 656.767C639.945 661.023 642.541 664.968 646.797 665.902C650.845 666.733 654.79 664.241 655.828 660.089H655.932Z" fill="#96DBE3"/>
<path d="M783.101 458.799C778.949 457.864 775.212 460.044 774.174 464.093C773.135 467.934 775.627 471.983 779.572 473.021C783.62 474.059 787.565 471.775 788.603 467.726C789.538 463.989 786.942 459.629 783.101 458.799Z" fill="#96DBE3"/>
<path d="M74.6915 170.929C79.5706 169.787 82.2697 165.739 82.1659 159.925C81.9583 158.264 81.6469 156.603 80.1935 155.358C79.7783 154.32 78.9478 153.593 78.1173 152.97C76.2487 151.517 74.1725 150.79 71.7848 151.101C66.5942 151.413 62.9608 154.839 62.0265 160.237C61.9227 162.105 62.0265 163.87 63.2723 165.427C65.4523 170.099 69.7086 172.175 74.6915 170.929Z" fill="#96DBE3"/>
<path d="M217.745 47.4974C221.482 48.3279 225.427 45.6288 226.153 41.7877C226.88 38.0505 224.389 34.1057 220.755 33.379C217.018 32.5485 212.658 35.4552 212.035 39.1925C211.412 42.8259 214.111 46.7707 217.745 47.4974ZM220.859 37.6353C220.859 37.7391 220.859 37.9467 220.859 38.0505C220.859 37.9467 220.859 37.8429 220.859 37.6353ZM220.859 37.6353C220.755 37.6353 220.548 37.6353 220.444 37.5315C220.548 37.5315 220.651 37.5315 220.859 37.6353Z" fill="#96DBE3"/>
<path d="M681.263 608.909C680.433 612.439 682.82 616.072 686.35 616.799C689.983 617.526 693.305 615.242 694.032 611.609C694.759 607.975 692.475 604.549 688.841 603.823C685.312 603.2 681.99 605.38 681.159 608.909H681.263Z" fill="#96DBE3"/>
<path d="M48.8426 198.75C52.476 199.477 55.6942 197.505 56.4208 193.871C57.1475 190.446 54.8637 186.916 51.5417 186.189C48.1159 185.463 44.6901 187.643 43.9635 191.172C43.133 194.909 45.1054 197.92 48.8426 198.75Z" fill="#96DBE3"/>
<path d="M156.6 177.677C155.977 181.206 158.157 184.32 161.583 184.943C165.009 185.566 168.227 183.386 168.85 179.96C169.473 176.431 167.397 173.213 163.971 172.486C160.545 171.759 157.015 174.147 156.496 177.677H156.6Z" fill="#96DBE3"/>
<path d="M569.354 755.284C565.928 754.557 562.814 756.737 562.087 760.267C561.36 763.693 563.541 767.118 566.863 767.741C570.185 768.364 573.506 766.08 574.233 762.758C574.96 759.333 572.676 756.011 569.354 755.388V755.284Z" fill="#96DBE3"/>
<path d="M99.5039 282.526C100.231 279.1 98.1544 275.882 94.6248 275.156C91.5105 274.533 87.9809 276.817 87.358 279.931C86.7351 283.253 88.9152 286.575 92.3409 287.301C95.7667 287.924 98.7773 286.056 99.5039 282.63V282.526Z" fill="#96DBE3"/>
<path d="M738.358 602.992C741.784 603.823 745.002 601.746 745.729 598.321C746.455 594.999 744.587 591.884 741.265 591.158C737.528 590.327 734.413 592.196 733.687 595.933C733.064 599.255 735.036 602.266 738.358 603.096V602.992Z" fill="#96DBE3"/>
<path d="M736.075 503.022C739.397 503.645 742.615 501.465 743.342 498.247C744.069 495.132 741.474 491.395 738.359 490.876C735.037 490.357 732.027 492.433 731.404 495.859C730.677 499.285 732.857 502.399 736.075 503.022Z" fill="#96DBE3"/>
<path d="M707.528 655.936C708.15 652.614 706.386 650.123 702.545 648.981C699.949 648.254 696.731 650.953 696.212 653.964C695.693 656.974 697.769 659.674 701.091 660.296C704.309 660.919 706.905 659.258 707.528 655.936Z" fill="#96DBE3"/>
<path d="M762.236 638.911C759.017 638.184 755.903 640.261 755.28 643.375C754.657 646.593 756.734 649.604 759.952 650.226C763.066 650.849 765.973 648.877 766.596 645.659C767.219 642.441 765.454 639.638 762.236 638.911Z" fill="#96DBE3"/>
<path d="M16.6627 255.433C13.4446 254.706 10.7455 256.367 9.91501 259.585C9.18833 262.492 10.9531 265.502 13.9637 266.229C16.9742 266.956 19.9847 265.087 20.7114 261.973C21.4381 258.858 19.7771 256.055 16.6627 255.433Z" fill="#96DBE3"/>
<path d="M698.598 582.335C697.768 585.241 699.533 588.252 702.439 588.979C705.45 589.705 708.357 588.044 709.083 585.034C709.81 582.127 707.941 579.116 705.035 578.39C702.439 577.767 699.325 579.636 698.495 582.335H698.598Z" fill="#96DBE3"/>
<path d="M136.876 200.827C136.253 203.63 138.225 206.744 140.82 207.159C143.623 207.678 146.53 205.81 147.153 203.111C147.88 200.1 146.011 197.193 143 196.571C140.094 195.948 137.498 197.712 136.876 200.827Z" fill="#96DBE3"/>
<path d="M593.126 791.411C590.219 790.788 587.416 792.657 586.794 795.46C586.171 798.47 588.039 801.481 590.946 802C593.645 802.519 596.656 800.443 597.279 797.744C597.798 794.941 595.825 792.034 593.126 791.411Z" fill="#96DBE3"/>
<path d="M211.62 97.1195C214.631 97.6386 217.018 95.9776 217.641 92.7595C218.264 89.7489 216.499 87.0498 213.593 86.5308C210.79 86.0117 208.091 87.8803 207.468 90.787C206.741 94.0052 208.402 96.4967 211.62 97.1195Z" fill="#96DBE3"/>
<path d="M741.265 403.363C740.642 406.373 742.199 408.657 745.106 409.28C748.22 409.903 750.4 408.45 751.023 405.335C751.646 402.429 749.777 399.729 746.871 399.314C744.172 398.899 741.888 400.56 741.265 403.363Z" fill="#96DBE3"/>
<path d="M69.8131 402.948C70.436 400.249 68.775 397.446 66.1797 396.927C63.6882 396.408 61.1968 398.069 60.5739 400.561C59.8472 403.467 61.1968 405.647 64.2073 406.27C66.595 406.789 69.1902 405.232 69.7093 402.948H69.8131Z" fill="#96DBE3"/>
<path d="M785.177 427.241C782.582 426.618 780.298 427.864 779.675 430.355C779.052 432.847 780.609 435.753 782.893 436.272C785.489 436.791 788.084 435.027 788.707 432.431C789.745 430.459 787.565 427.76 785.177 427.241Z" fill="#96DBE3"/>
<path d="M796.701 571.744C794.313 571.225 791.822 572.783 791.199 575.17C790.576 577.454 792.341 580.465 794.624 580.984C797.012 581.503 799.919 579.842 800.542 577.558C801.268 575.066 799.504 572.367 796.701 571.848V571.744Z" fill="#96DBE3"/>
<path d="M446.13 833.972C443.535 833.557 440.94 835.321 440.628 837.709C440.317 839.889 442.289 842.484 444.573 842.9C447.065 843.315 449.245 841.758 449.764 839.162C450.283 836.567 448.829 834.387 446.234 833.972H446.13Z" fill="#96DBE3"/>
<path d="M27.8727 400.768C26.1079 400.353 22.7859 402.637 22.4745 404.609C22.0593 407.204 23.8241 409.488 26.5232 409.904C28.9108 410.319 31.0909 408.762 31.5061 406.27C31.9213 404.194 29.9489 401.287 27.8727 400.768Z" fill="#96DBE3"/>
<path d="M521.392 819.751C518.797 819.231 516.513 820.996 516.202 823.799C515.787 826.291 517.344 828.471 519.628 828.886C522.223 829.301 524.714 827.64 525.13 825.149C525.545 822.761 523.78 820.27 521.392 819.854V819.751Z" fill="#96DBE3"/>
<path d="M479.446 829.287C479.016 829.449 478.759 829.69 478.673 830.093C478.673 830.254 478.587 830.416 478.501 830.496C476.523 832.591 476.094 835.815 477.383 838.393C479.704 842.745 485.034 844.356 489.504 841.939C493.631 839.683 494.92 834.284 492.255 830.577C489.246 826.467 483.573 825.903 479.36 829.207L479.446 829.287Z" fill="#96DBE3"/>
<path d="M242.245 79.9909C244.736 80.5099 246.812 79.0566 247.331 76.6689C247.85 74.0736 246.605 72.205 244.009 71.5822C241.31 70.9593 239.234 72.3088 238.715 74.9041C238.3 77.3956 239.649 79.4718 242.141 79.9909H242.245Z" fill="#96DBE3"/>
<path d="M68.5684 459.318C66.1807 458.902 63.7931 460.667 63.274 463.055C62.8587 465.442 64.4159 467.726 66.8036 468.142C69.2951 468.557 71.5789 467 71.9942 464.508C72.4094 462.328 70.6446 459.733 68.5684 459.421V459.318Z" fill="#96DBE3"/>
<path d="M724.656 526.069C724.137 528.457 725.382 530.429 727.77 530.948C730.158 531.571 732.545 530.118 733.064 527.834C733.583 525.55 732.13 523.162 729.742 522.643C727.251 522.124 725.278 523.37 724.759 525.965L724.656 526.069Z" fill="#96DBE3"/>
<path d="M66.9071 248.269C70.9557 250.345 74.9005 249.618 78.4301 245.881C81.1292 241.313 81.3369 238.51 79.053 236.019C78.2225 232.593 74.2777 230.102 70.3329 230.725C66.1804 231.348 62.7546 234.566 62.1318 238.407C61.5089 242.352 63.4813 246.504 66.9071 248.269Z" fill="#96DBE3"/>
<path d="M87.9803 314.397C90.2642 311.49 89.6413 307.545 86.6308 304.846C86.4232 304.223 85.9041 304.12 85.2812 304.12C81.4402 302.562 77.9106 303.497 76.4573 306.403C74.5887 309.933 75.523 314.086 78.5335 316.058C81.6478 318.03 85.8003 317.304 87.9803 314.501V314.397Z" fill="#96DBE3"/>
<path d="M29.9491 231.659C33.3748 232.281 36.3854 230.309 37.0082 226.883C37.6311 223.665 35.6587 220.758 32.3367 220.135C28.9109 219.513 26.0042 221.485 25.4852 225.015C24.9661 228.129 26.9385 231.036 29.9491 231.659Z" fill="#96DBE3"/>
<path d="M68.0476 440.527C71.681 439.074 73.5496 435.44 72.9267 431.392C72.9267 429.938 72.4077 428.589 71.1619 427.655C71.1619 427.447 71.1619 427.239 70.9543 427.239C67.2171 423.814 63.5837 423.502 60.3655 426.305C59.6389 425.994 59.2236 426.513 58.8084 426.928C56.4207 429.316 56.1093 434.299 58.1855 437.413C60.1579 440.32 64.7256 441.773 67.9438 440.423L68.0476 440.527Z" fill="#96DBE3"/>
<path d="M665.691 634.757C665.38 636.73 666.314 638.391 668.39 638.702C670.467 639.014 672.128 638.079 672.543 635.899C672.958 633.719 671.816 632.266 669.636 631.747C667.456 631.539 666.003 632.681 665.691 634.757Z" fill="#96DBE3"/>
<path d="M629.252 680.228C629.771 678.359 628.11 676.283 626.034 675.971C623.75 675.66 622.504 676.802 622.089 678.982C621.674 681.266 622.92 682.512 625.1 683.031C627.28 683.342 628.733 682.2 629.252 680.228Z" fill="#96DBE3"/>
<path d="M742.927 376.58C744.692 376.891 746.353 376.061 746.664 374.088C746.872 372.427 746.457 370.663 744.38 370.247C742.304 369.832 740.955 370.663 740.436 372.531C739.916 374.607 740.955 376.165 742.927 376.58Z" fill="#96DBE3"/>
<path d="M597.694 697.772C597.279 699.537 598.213 701.302 600.393 701.717C602.365 702.133 603.611 701.198 604.13 699.433C604.649 697.15 603.819 695.592 601.742 695.073C599.666 694.554 598.109 695.904 597.694 697.669V697.772Z" fill="#96DBE3"/>
<path d="M407.719 836.153C405.228 835.737 403.359 837.087 402.944 839.786C402.528 842.278 403.878 844.042 406.266 844.561C408.549 844.977 410.937 843.419 411.352 841.032C411.768 838.644 410.21 836.464 407.719 836.049V836.153Z" fill="#96DBE3"/>
<path d="M157.327 137.917C159.923 137.71 161.791 136.049 162.31 133.453C162.829 130.858 161.791 128.678 159.404 127.536C156.912 126.29 154.421 126.498 152.552 128.99C151.099 130.443 150.787 132.104 151.514 133.972C152.344 136.879 154.524 138.125 157.327 137.917Z" fill="#96DBE3"/>
<path d="M307.022 54.765C308.994 55.3878 310.136 54.1421 310.655 52.6887C311.278 50.9239 310.136 49.3668 308.579 48.9515C306.918 48.5363 305.257 49.1591 304.842 51.2354C304.53 53.104 305.257 54.2459 307.022 54.765Z" fill="#96DBE3"/>
<path d="M736.801 665.071C729.327 666.525 725.797 673.376 728.808 680.643C731.403 686.041 735.763 688.117 741.577 686.872C743.03 687.079 744.068 686.353 745.002 685.418C749.985 681.993 751.646 676.594 749.362 671.404C747.182 666.421 742.096 663.825 736.801 665.071Z" fill="#96DBE3"/>
<path d="M3.58163 294.361C2.23208 294.153 0.155853 294.049 0.155853 296.437C-0.467016 298.617 0.882532 299.655 2.33589 300.07C4.2045 300.589 5.03499 298.928 5.45023 297.579C5.86548 296.126 4.93118 294.568 3.58163 294.361Z" fill="#96DBE3"/>
<path d="M34.7243 333.497C32.129 335.054 31.2985 336.923 32.4404 338.895C33.4786 340.764 35.97 340.972 38.3577 339.518C39.7072 338.065 39.7072 336.508 38.7729 334.951C37.8386 333.393 36.4891 332.978 34.7243 333.497Z" fill="#96DBE3"/>
<path d="M781.649 603.615C778.534 602.784 775.835 603.615 773.966 606.21C772.306 608.39 771.164 610.985 772.928 613.788C773.863 617.421 776.354 619.186 781.026 618.979C786.32 618.148 789.019 614.099 787.462 609.22C786.943 606.002 784.659 604.341 781.752 603.511L781.649 603.615Z" fill="#96DBE3"/>
<path d="M743.134 435.025C742.926 436.686 744.068 437.932 745.729 438.14C747.286 438.347 748.428 437.621 748.843 435.96C749.259 433.987 748.117 433.261 746.559 432.741C744.795 432.534 743.445 433.261 743.238 435.025H743.134Z" fill="#96DBE3"/>
<path d="M183.072 156.707C182.761 158.264 183.28 159.509 184.941 159.925C186.498 160.34 187.64 159.821 188.159 158.16C188.678 155.98 187.017 155.565 185.667 155.046C184.11 154.423 183.487 155.461 183.176 156.707H183.072Z" fill="#96DBE3"/>
<path d="M782.997 399.523C784.554 399.834 785.8 399.107 786.215 397.55C786.631 395.993 785.696 394.955 784.243 394.332C782.79 394.332 781.44 394.851 781.129 396.408C780.921 397.862 781.232 399.211 782.997 399.523Z" fill="#96DBE3"/>
<path d="M274.218 64.9377C275.775 65.2492 277.125 64.6263 277.54 62.3424C277.747 60.9929 276.917 59.9548 275.256 59.5395C273.699 59.2281 272.557 59.9548 272.142 61.512C271.726 63.2767 272.661 64.5225 274.218 64.8339V64.9377Z" fill="#96DBE3"/>
<path d="M536.653 772.205C534.992 771.997 533.954 772.724 533.643 774.385C533.331 776.046 534.058 777.084 535.719 777.291C537.38 777.707 538.522 776.98 538.833 775.423C539.145 773.866 538.418 772.516 536.549 772.205H536.653Z" fill="#96DBE3"/>
<path d="M809.366 537.384C807.705 536.865 806.147 537.696 805.732 539.46C805.421 540.914 806.044 542.263 807.601 542.679C809.158 543.094 810.507 542.679 811.234 540.187C811.753 539.045 810.819 537.8 809.262 537.384H809.366Z" fill="#96DBE3"/>
<path d="M504.16 782.793C502.707 782.482 501.565 783.105 501.15 784.558C500.735 786.011 501.254 787.153 502.915 787.465C504.576 787.776 505.51 786.842 506.34 785.596C506.133 784.247 505.614 783.001 504.16 782.793Z" fill="#96DBE3"/>
<path d="M81.959 521.915C80.5056 521.915 79.4675 522.434 79.1561 523.888C78.8446 525.237 79.7789 526.172 81.0247 526.483C82.5818 526.898 83.5161 525.86 83.8276 524.511C84.139 523.265 83.3085 522.227 82.0628 521.812L81.959 521.915Z" fill="#96DBE3"/>
<path d="M73.55 492.641C72.5119 492.434 71.3699 492.641 71.1623 493.887C70.9547 495.133 71.6814 495.963 72.8233 496.379C74.069 496.794 74.5881 495.86 75.0033 494.925C75.211 493.68 74.6919 492.849 73.55 492.641Z" fill="#96DBE3"/>
<path d="M121.822 226.469C121.822 227.299 121.199 228.441 122.757 228.649C124.002 228.753 125.144 228.753 125.456 227.092C125.663 225.846 125.04 225.223 123.795 225.016C122.549 224.6 121.926 225.327 121.822 226.469Z" fill="#96DBE3"/>
<path d="M58.3944 271.523C58.4982 270.485 58.1868 269.447 56.9411 269.343C55.6953 269.135 54.761 269.758 54.5534 271.004C54.3458 272.146 55.1763 272.769 56.3182 273.184C57.2525 272.976 58.1868 272.769 58.2906 271.523H58.3944Z" fill="#96DBE3"/>
<path d="M28.0812 438.555C27.0431 438.244 25.9012 438.763 25.5897 439.593C25.2783 440.527 26.1088 441.358 27.1469 441.669C28.185 441.877 29.0155 441.669 29.2231 440.527C29.4308 439.593 29.1193 438.763 28.0812 438.451V438.555Z" fill="#96DBE3"/>
<path d="M30.1569 369.416C29.1188 369.416 28.4959 369.831 28.2883 370.869C28.0807 371.908 28.7035 372.323 29.534 372.634C30.5721 372.634 31.2988 372.323 31.4026 371.181C31.4026 370.35 31.195 369.52 30.2607 369.416H30.1569Z" fill="#96DBE3"/>
<path d="M153.693 82.1703C154.835 82.4817 155.25 81.6512 155.665 80.9246C155.665 79.9903 155.354 79.056 154.316 78.9521C153.382 78.9521 152.447 79.1598 152.24 80.1979C152.136 81.1322 152.655 81.9627 153.589 82.1703H153.693Z" fill="#96DBE3"/>
<path d="M369.206 837.191C368.272 836.88 367.441 837.399 367.234 838.437C367.026 839.371 367.649 839.994 368.479 840.202C369.31 840.409 370.037 839.994 370.14 839.475C370.452 838.126 369.933 837.399 369.206 837.191Z" fill="#96DBE3"/>
<path d="M115.076 258.235C116.529 256.366 116.84 254.186 116.425 251.902C116.218 250.76 116.218 249.515 114.972 248.788C113.934 245.466 111.235 244.324 108.328 244.013C105.317 243.701 102.203 244.013 100.542 247.335C99.8153 247.023 99.9191 247.646 99.7115 247.958C99.0886 248.165 98.9848 248.684 98.9848 249.203C97.8429 252.214 96.9086 255.224 99.6077 257.923C99.6077 258.442 99.6077 259.273 99.9191 259.584C103.968 263.01 108.847 263.425 112.584 260.519C113.83 260.207 114.557 259.169 115.179 258.027L115.076 258.235Z" fill="#96DBE3"/>
<path d="M657.49 707.115C659.255 705.973 658.944 704.52 658.321 702.963C658.217 702.34 657.906 701.821 657.386 701.51C656.141 700.368 654.791 699.849 653.234 700.679C652.196 700.679 651.573 701.302 651.054 702.132C649.601 703.378 649.808 704.935 650.535 706.389C651.677 708.673 653.442 709.503 655.933 708.569C656.764 708.361 657.49 708.05 657.49 707.012V707.115Z" fill="#96DBE3"/>
<path d="M618.559 729.746C620.428 734.418 625.1 736.909 629.875 735.664C634.443 734.522 637.661 729.746 637.142 724.971C636.623 720.403 632.678 716.874 627.799 716.562C626.241 716.562 624.58 716.459 623.439 717.808C621.881 717.912 620.843 718.639 620.428 720.3C617.729 722.48 617.106 725.698 618.663 729.227C618.456 729.331 618.456 729.539 618.663 729.746H618.559Z" fill="#96DBE3"/>
<path d="M404.813 738.467C583.177 738.467 727.77 593.548 727.77 414.783C727.77 236.017 583.177 91.0986 404.813 91.0986C226.448 91.0986 81.8555 236.017 81.8555 414.783C81.8555 593.548 226.448 738.467 404.813 738.467Z" fill="#96DBE3"/>
</svg>
