<svg xmlns="http://www.w3.org/2000/svg">
<symbol id="icon_book" viewBox="0 0 24 24">
<path d="M18.25 3.713C19.089 3.906 19.891 4.224 20.593 4.7C20.857 4.878 21 5.191 21 5.51V18.239C21 18.96 20.26 19.444 19.603 19.148C17.18 18.059 14.06 18.343 12 20M12 20C9.94 18.343 6.82 18.059 4.397 19.148C3.74 19.444 3 18.961 3 18.24V5.514C3 5.192 3.146 4.876 3.413 4.696C5.914 3.006 9.648 3.108 12 5M12 20V5M12 5C12.792 4.363 13.745 3.947 14.75 3.716M17.35 2.536C17.862 2.583 18.25 3.021 18.25 3.535V8.667L16.5 7.5L14.75 8.667V3.559C14.75 3.051 15.13 2.621 15.635 2.561C15.953 2.523 16.274 2.501 16.596 2.501C16.848 2.5 17.099 2.513 17.35 2.536Z" stroke="#1D1814" stroke-width="1.5" stroke-linecap="round" stroke-linejoin="round"/>
</symbol>
<symbol id="icon_tick" viewBox="0 0 22 22">
<path d="M15.4424 8.77832L9.88682 14.3339L6.55349 11.0005M11 21C5.47667 21 1 16.5233 1 11C1 5.47667 5.47667 1 11 1C16.5233 1 21 5.47667 21 11C21 16.5233 16.5233 21 11 21Z" stroke-width="1.5" stroke-linecap="round" stroke-linejoin="round"/>
</symbol>
<symbol id="icon_contained-telegram" viewBox="0 0 32 32">
<path d="M8.54341 16.0405C12.4805 13.9707 15.1058 12.6062 16.4194 11.9469C20.1699 10.0646 20.9492 9.73758 21.4572 9.72667C21.5689 9.72441 21.8187 9.75782 21.9805 9.91625C22.1171 10.05 22.1547 10.2307 22.1727 10.3576C22.1907 10.4844 22.2131 10.7733 22.1953 10.9991C21.9921 13.5759 21.1126 19.8291 20.6652 22.7152C20.4759 23.9364 20.1031 24.3459 19.7423 24.386C18.958 24.473 18.3625 23.7605 17.6028 23.1597C16.4142 22.2195 15.7427 21.6343 14.5889 20.7168C13.2555 19.6565 14.1199 19.0738 14.8798 18.1214C15.0787 17.8722 18.5342 14.0796 18.6011 13.7355C18.6095 13.6925 18.6172 13.5321 18.5383 13.4474C18.4593 13.3627 18.3427 13.3917 18.2586 13.4147C18.1394 13.4474 16.2406 14.9618 12.5621 17.9581C12.0231 18.4047 11.5349 18.6223 11.0975 18.6109C10.6153 18.5983 9.68769 18.2819 8.99814 18.0114C8.15237 17.6797 7.48018 17.5043 7.53871 16.9409C7.5692 16.6474 7.9041 16.3473 8.54341 16.0405Z"/>
</symbol>
<symbol id="icon_contained-whatsapp" viewBox="0 0 32 32">
<path fill-rule="evenodd" clip-rule="evenodd" d="M16.5276 24.9022H16.5237C14.9314 24.9016 13.3668 24.5021 11.9772 23.7442L6.93359 25.0672L8.28334 20.1371C7.45075 18.6942 7.01265 17.0575 7.01336 15.3807C7.01545 10.135 11.2835 5.86719 16.5276 5.86719C19.0727 5.86829 21.4615 6.8591 23.2577 8.65746C25.054 10.4557 26.0427 12.8461 26.0417 15.3882C26.0396 20.6327 21.7733 24.9001 16.5276 24.9022ZM12.2122 22.0216L12.501 22.193C13.7151 22.9135 15.1068 23.2947 16.5258 23.2952H16.529C20.8875 23.2952 24.4349 19.7478 24.4367 15.3875C24.4375 13.2745 23.6157 11.2877 22.1228 9.79299C20.6298 8.29826 18.6443 7.47469 16.5321 7.47396C12.1703 7.47396 8.62282 11.0211 8.62109 15.381C8.62048 16.8752 9.03856 18.3304 9.83013 19.5894L10.0182 19.8886L9.2193 22.8067L12.2122 22.0216ZM20.9959 17.4365C21.1617 17.5166 21.2737 17.5708 21.3215 17.6506C21.3809 17.7497 21.3809 18.2257 21.1829 18.781C20.9847 19.3363 20.035 19.8431 19.5783 19.9114C19.1687 19.9726 18.6504 19.9981 18.081 19.8172C17.7357 19.7076 17.2929 19.5613 16.7257 19.3164C14.4971 18.3541 12.991 16.1941 12.7064 15.7858C12.6864 15.7572 12.6725 15.7372 12.6647 15.7268L12.6628 15.7243C12.537 15.5564 11.694 14.4317 11.694 13.2677C11.694 12.1726 12.2319 11.5987 12.4795 11.3345C12.4965 11.3164 12.5121 11.2997 12.526 11.2845C12.7439 11.0465 13.0015 10.987 13.16 10.987C13.3184 10.987 13.4771 10.9884 13.6156 10.9954C13.6327 10.9963 13.6505 10.9962 13.6688 10.996C13.8074 10.9952 13.9801 10.9942 14.1505 11.4035C14.216 11.561 14.3119 11.7945 14.4131 12.0407C14.6176 12.5387 14.8436 13.089 14.8834 13.1686C14.9428 13.2876 14.9825 13.4264 14.9032 13.5851C14.8913 13.6089 14.8803 13.6314 14.8698 13.6528C14.8103 13.7743 14.7665 13.8637 14.6655 13.9817C14.6258 14.028 14.5847 14.078 14.5437 14.128C14.4619 14.2276 14.3801 14.3272 14.3089 14.3982C14.1899 14.5167 14.066 14.6453 14.2047 14.8833C14.3434 15.1213 14.8205 15.8998 15.5272 16.5301C16.2868 17.2077 16.9471 17.4941 17.2818 17.6393C17.3471 17.6677 17.4001 17.6906 17.4389 17.7101C17.6765 17.8291 17.8152 17.8092 17.9539 17.6506C18.0926 17.4919 18.5482 16.9564 18.7066 16.7184C18.8651 16.4805 19.0236 16.5201 19.2415 16.5994C19.4594 16.6789 20.6282 17.2539 20.8659 17.3729C20.9123 17.3961 20.9557 17.4171 20.9959 17.4365Z"/>
</symbol>
<symbol id="icon_telegram" viewBox="0 0 12 12">
<path d="M1.40756 5.02893C4.36034 3.47659 6.32933 2.45319 7.31451 1.95873C10.1274 0.546959 10.7119 0.30172 11.0929 0.293536C11.1767 0.291841 11.364 0.316898 11.4854 0.43572C11.5879 0.536052 11.616 0.671586 11.6295 0.766711C11.643 0.861837 11.6598 1.07853 11.6465 1.24786C11.494 3.18046 10.8345 7.8704 10.4989 10.035C10.3569 10.9509 10.0774 11.258 9.8067 11.288C9.2185 11.3533 8.77184 10.8189 8.20213 10.3683C7.31066 9.66318 6.80703 9.22423 5.9417 8.53614C4.94166 7.74094 5.58994 7.30388 6.15986 6.58961C6.30902 6.40268 8.90066 3.55823 8.95082 3.30019C8.95709 3.26792 8.96292 3.14762 8.90369 3.0841C8.84447 3.02058 8.75705 3.04231 8.69398 3.05958C8.60456 3.08407 7.18042 4.2199 4.42154 6.46709C4.0173 6.80203 3.65116 6.96523 3.3231 6.95668C2.96145 6.94725 2.26577 6.70994 1.7486 6.50708C1.11428 6.25828 0.610132 6.12673 0.654032 5.70419C0.676898 5.4841 0.928074 5.25901 1.40756 5.02893Z"/>
</symbol>
<symbol id="icon_twitter" viewBox="0 0 12 10">
<path d="M12 1.14722C11.5583 1.34799 11.0822 1.47992 10.5889 1.54301C11.0937 1.239 11.4837 0.757169 11.6673 0.177818C11.1912 0.464627 10.6635 0.665387 10.1071 0.780111C9.65387 0.286802 9.01716 0 8.29441 0C6.94644 0 5.84511 1.10134 5.84511 2.4608C5.84511 2.65583 5.86806 2.84512 5.90821 3.02294C3.86615 2.91969 2.0478 1.93881 0.837471 0.453152C0.625236 0.814529 0.504777 1.239 0.504777 1.68642C0.504777 2.5411 0.934987 3.29827 1.60038 3.72848C1.19311 3.72848 0.814528 3.61376 0.481835 3.44168V3.45889C0.481835 4.65198 1.33078 5.65007 2.45506 5.87378C2.0941 5.97255 1.71515 5.98632 1.34799 5.91397C1.50379 6.40297 1.80891 6.83084 2.22046 7.13742C2.63202 7.44401 3.12931 7.61396 3.64244 7.62332C2.77263 8.31193 1.69445 8.68411 0.585085 8.67874C0.390052 8.67874 0.195026 8.66732 0 8.64433C1.08986 9.34416 2.38623 9.75145 3.77437 9.75145C8.29441 9.75145 10.7782 6.00002 10.7782 2.7476C10.7782 2.63862 10.7782 2.53537 10.7724 2.42638C11.2543 2.08222 11.6673 1.64627 12 1.14722Z"/>
</symbol>
<symbol id="icon_vk" viewBox="0 0 14 9">
<path fill-rule="evenodd" clip-rule="evenodd" d="M13.1788 1.36694C13.2709 1.06004 13.1788 0.834473 12.7407 0.834473L11.2921 0.834473C10.9237 0.834473 10.754 1.02931 10.6619 1.24422C10.6619 1.24422 9.92519 3.03978 8.88157 4.20612C8.54394 4.54375 8.39049 4.65105 8.20631 4.65105C8.11422 4.65105 7.98095 4.54375 7.98095 4.23685L7.98095 1.36694C7.98095 0.99858 7.87406 0.834473 7.56706 0.834473L5.29066 0.834473C5.06054 0.834473 4.9221 1.00541 4.9221 1.16745C4.9221 1.51667 5.4438 1.59717 5.49761 2.57933L5.49761 4.71262C5.49761 5.18032 5.41318 5.26516 5.229 5.26516C4.73792 5.26516 3.54343 3.46143 2.83485 1.39767C2.69599 0.996511 2.55672 0.834473 2.18649 0.834473L0.737878 0.834473C0.323989 0.834473 0.241211 1.02931 0.241211 1.24422C0.241211 1.6279 0.732394 3.53096 2.52795 6.04783C3.72513 7.76651 5.41152 8.69838 6.94622 8.69838C7.86713 8.69838 7.98095 8.49143 7.98095 8.13497L7.98095 6.83587C7.98095 6.42198 8.06818 6.33941 8.35966 6.33941C8.57467 6.33941 8.94293 6.44682 9.80248 7.27553C10.7846 8.25759 10.9465 8.69838 11.499 8.69838L12.9476 8.69838C13.3615 8.69838 13.5685 8.49143 13.4491 8.08303C13.3185 7.67597 12.8495 7.08555 12.2272 6.38546C11.8896 5.98637 11.3831 5.55664 11.2298 5.34184C11.0149 5.06556 11.0762 4.94285 11.2298 4.69741C11.2298 4.69741 12.9946 2.21117 13.1788 1.36705L13.1788 1.36694Z"/>
</symbol>
<symbol id="icon_youtube" viewBox="0 0 13 10">
<path fill-rule="evenodd" clip-rule="evenodd" d="M11.5213 0.62588C12.0353 0.774115 12.4406 1.20823 12.579 1.75882C12.836 2.7647 12.8261 4.86117 12.8261 4.86117C12.8261 4.86117 12.8261 6.94706 12.579 7.95294C12.4406 8.50353 12.0353 8.93764 11.5213 9.08588C10.5823 9.35058 6.82615 9.35058 6.82615 9.35058C6.82615 9.35058 3.07987 9.35058 2.13094 9.07529C1.61694 8.92706 1.21167 8.49294 1.07329 7.94235C0.826172 6.94706 0.826172 4.85059 0.826172 4.85059C0.826172 4.85059 0.826172 2.7647 1.07329 1.75882C1.21167 1.20823 1.62683 0.763527 2.13094 0.615292C3.06998 0.350586 6.82615 0.350586 6.82615 0.350586C6.82615 0.350586 10.5823 0.350586 11.5213 0.62588ZM8.75366 4.85022L5.63013 6.77679V2.92365L8.75366 4.85022Z"/>
</symbol>
</svg>