<?xml version="1.0" encoding="UTF-8"?><!DOCTYPE svg PUBLIC "-//W3C//DTD SVG 1.1//EN" "http://www.w3.org/Graphics/SVG/1.1/DTD/svg11.dtd"><svg xmlns="http://www.w3.org/2000/svg" xmlns:xlink="http://www.w3.org/1999/xlink" xmlns:inkscape="http://www.inkscape.org/namespaces/inkscape"><defs>
<clipPath id="clip0_24328_75364">
<rect width="24" height="24"/>
</clipPath>

<clipPath id="clip0_24071_28682">
<rect width="18" height="20"/>
</clipPath>

<clipPath id="clip0_23604_88551">
<rect width="16" height="16"/>
</clipPath>

    <clipPath id="clip0_23028_41069">
      <rect width="16" height="16" id="rect13"/>
    </clipPath>
  
<clipPath id="clip0_23028_41069">
<rect width="16" height="16"/>
</clipPath>

<clipPath id="clip0_23028_41045">
<rect width="16" height="16"/>
</clipPath>
</defs><symbol id="arrow-bottom" viewBox="0 0 14 10">
<path id="Vector" fill-rule="evenodd" clip-rule="evenodd" d="M14 2.30313L12.4 0.703125L7.00005 6.10313L1.6 0.703125L0 2.30313L7.00005 9.30313L14 2.30313Z"/>
</symbol><symbol id="basket" viewBox="0 0 23 22">
<ellipse cx="9.34509" cy="20.4831" rx="1.52576" ry="1.51774"/>
<ellipse cx="17.4818" cy="20.4831" rx="1.52576" ry="1.51774"/>
<path fill-rule="evenodd" clip-rule="evenodd" d="M0 1.46893L3.19294 4.41921L4.22417 8.57846L5.32746 13.0283L6.35719 17.1815L6.54546 17.9409H7.3278H20.9124L21.3058 15.9409H8.11015L7.57628 13.7877H21.7293L22.1227 11.7877H7.08041L6.473 9.33781H22.6045L22.9979 7.33781H5.97712L5.06211 3.64729L4.99005 3.35668L4.77014 3.15348L1.35729 0L0 1.46893Z"/>
</symbol><symbol id="button-image" viewBox="0 0 56 36">
<path d="M35 6.96346L47.0267 17.9676L35 29.0365V36L56 18L35 0V6.96346Z"/>
<path d="M17 6.96346L29.5994 17.9676L17 29.0365V36L39 18L17 0L17 6.96346Z"/>
<path d="M0 6.96346L12.0267 17.9676L0 29.0365V36L21 18L0 0L0 6.96346Z"/>
</symbol><symbol id="camera" viewBox="0 0 24 24">
<g id="Frame" clip-path="url(#clip0_24328_75364)">
<g id="Clip path group">
<mask id="mask0_24328_75364" maskUnits="userSpaceOnUse" x="0" y="0" width="24" height="24">
<g id="clip0">
<path id="Vector" d="M24.0001 0H0V24H24.0001V0Z"/>
</g>
</mask>
<g mask="url(#mask0_24328_75364)">
<g id="Group">
<path id="Vector_2" fill-rule="evenodd" clip-rule="evenodd" d="M6.47629 5.35383C6.55357 5.24639 6.63941 5.11486 6.74886 4.93751C6.78885 4.87271 6.8979 4.69278 6.9791 4.55883L7.07056 4.40811C7.97484 2.92892 8.63218 2.25 9.81748 2.25H15.2716V4.43166H9.81748C9.72288 4.43166 9.42533 4.73898 8.93194 5.54604L8.85263 5.67676C8.77076 5.81185 8.65139 6.0088 8.60543 6.08328C8.47131 6.30061 8.35986 6.47139 8.24736 6.62779C7.7584 7.30754 7.26968 7.70416 6.54499 7.70416H3.27249C2.67005 7.70416 2.18166 8.19254 2.18166 8.79499V18.6125C2.18166 19.2149 2.67005 19.7033 3.27249 19.7033H20.7258C21.3283 19.7033 21.8166 19.2149 21.8166 18.6125V12.0675H23.9983V18.6125C23.9983 20.4198 22.5331 21.885 20.7258 21.885H3.27249C1.46515 21.885 0 20.4198 0 18.6125V8.79499C0 6.98764 1.46515 5.52249 3.27249 5.52249H6.34449C6.38081 5.48098 6.42532 5.42468 6.47629 5.35383ZM17.4551 7.70471V5.52305H19.6337V3.34153H21.8154V5.52305H24.0001V7.70471H21.8154V9.88652H19.6337V7.70471H17.4551ZM11.9977 18.6125C8.98542 18.6125 6.54351 16.1706 6.54351 13.1584C6.54351 10.1461 8.98542 7.70422 11.9977 7.70422C15.0099 7.70422 17.4518 10.1461 17.4518 13.1584C17.4518 16.1706 15.0099 18.6125 11.9977 18.6125ZM11.9981 16.4313C13.8055 16.4313 15.2706 14.9662 15.2706 13.1588C15.2706 11.3515 13.8055 9.88633 11.9981 9.88633C10.1908 9.88633 8.72563 11.3515 8.72563 13.1588C8.72563 14.9662 10.1908 16.4313 11.9981 16.4313Z"/>
</g>
</g>
</g>
</g>

</symbol><symbol id="delete" viewBox="0 0 18 20">
<g clip-path="url(#clip0_24071_28682)">
<path d="M2 4H4V20H2V4ZM14 4H16V20H14V4ZM10 8H12V16H10V8ZM10 2H12V6H10V2ZM6 2H8V6H6V2ZM6 8H8V16H6V8Z"/>
<path d="M0 4H18V6H0V4ZM6 0H12V2H6V0ZM2 18H16V20H2V18Z"/>
</g>

</symbol><symbol id="document" viewBox="0 0 17 20">
<path fill-rule="evenodd" clip-rule="evenodd" d="M16.5 0H0.5V3V18.1123C0.5 18.5963 0.68596 19.0618 1.01946 19.4126C1.73761 20.168 2.93219 20.1982 3.68761 19.4801L4.05049 19.1351C4.05808 19.1279 4.06592 19.1209 4.07399 19.1142C4.2714 18.9505 4.56417 18.9778 4.72791 19.1752C4.82769 19.2955 4.93961 19.4052 5.06189 19.5026C6.0442 20.2845 7.4744 20.1221 8.2563 19.1397L8.2822 19.1073C8.2953 19.0909 8.3102 19.076 8.3266 19.0629C8.4465 18.9677 8.6208 18.9877 8.716 19.1075L8.7385 19.1359C8.8354 19.2578 8.9445 19.3694 9.0641 19.4691C10.0304 20.274 11.4662 20.1431 12.271 19.1768C12.2777 19.1689 12.2846 19.1611 12.2917 19.1536C12.4703 18.966 12.7671 18.9588 12.9547 19.1373L13.3141 19.4796C13.6647 19.8134 14.1303 19.9996 14.6144 19.9996C15.6558 19.9996 16.5 19.1553 16.5 18.1139V3V0ZM14.5 2V3V17.8471L14.3338 17.6889C13.3463 16.7486 11.7835 16.787 10.8432 17.7745C10.8056 17.814 10.7692 17.8548 10.7343 17.8968C10.6364 18.0144 10.4617 18.0303 10.3441 17.9324C10.3296 17.9202 10.3163 17.9067 10.3045 17.8918L10.282 17.8635C9.4997 16.8788 8.0673 16.7146 7.0825 17.4969C6.9474 17.6043 6.8249 17.7267 6.7174 17.8617L6.6916 17.8942C6.5976 18.0123 6.42559 18.0318 6.30748 17.9378C6.29278 17.9261 6.27932 17.9129 6.26732 17.8984C5.39843 16.8508 3.84481 16.7059 2.7972 17.5748C2.75439 17.6103 2.71279 17.6473 2.67248 17.6856L2.5 17.8496V3V2H14.5ZM5.5 7C4.94772 7 4.5 6.55228 4.5 6C4.5 5.44772 4.94772 5 5.5 5H11.5C12.0523 5 12.5 5.44772 12.5 6C12.5 6.55228 12.0523 7 11.5 7H5.5ZM4.5 10C4.5 10.5523 4.94772 11 5.5 11H11.5C12.0523 11 12.5 10.5523 12.5 10C12.5 9.4477 12.0523 9 11.5 9H5.5C4.94772 9 4.5 9.4477 4.5 10Z"/>
</symbol><symbol id="entity" viewBox="0 0 20 18">
<path fill-rule="evenodd" clip-rule="evenodd" d="M11 13H9C8.45 13 8 12.55 8 12H1.01V16C1.01 17.1 1.91 18 3.01 18H17C18.1 18 19 17.1 19 16V12H12C12 12.55 11.55 13 11 13ZM18 4H14C14 1.79 12.21 0 10 0C7.79 0 6 1.79 6 4H2C0.9 4 0 4.9 0 6V9C0 10.11 0.89 11 2 11H8V10C8 9.45 8.45 9 9 9H11C11.55 9 12 9.45 12 10V11H18C19.1 11 20 10.1 20 9V6C20 4.9 19.1 4 18 4ZM8 4C8 2.9 8.9 2 10 2C11.1 2 12 2.9 12 4H7.99H8Z"/>
</symbol><symbol id="filter-cross" viewBox="0 0 16 16">
<path d="M12.6666 4.27683L11.7233 3.3335L7.99992 7.05683L4.27659 3.3335L3.33325 4.27683L7.05659 8.00016L3.33325 11.7235L4.27659 12.6668L7.99992 8.9435L11.7233 12.6668L12.6666 11.7235L8.94325 8.00016L12.6666 4.27683Z"/>
</symbol><symbol id="filter" viewBox="0 0 21 16">
<path fill-rule="evenodd" clip-rule="evenodd" d="M14.25 0.5C12.4446 0.5 10.9263 1.79406 10.5762 3.5H0.75C0.33579 3.5 0 3.83579 0 4.25C0 4.66421 0.33579 5 0.75 5H10.5762C10.9263 6.70594 12.4446 8 14.25 8C16.0554 8 17.5737 6.70594 17.9238 5H20.25C20.6642 5 21 4.66421 21 4.25C21 3.83579 20.6642 3.5 20.25 3.5H17.9238C17.5737 1.79406 16.0554 0.5 14.25 0.5ZM14.25 2C15.5015 2 16.5 2.9985 16.5 4.25C16.5 5.5015 15.5015 6.5 14.25 6.5C12.9985 6.5 12 5.5015 12 4.25C12 2.9985 12.9985 2 14.25 2Z"/>
<path fill-rule="evenodd" clip-rule="evenodd" d="M6.75 8C4.94461 8 3.42634 9.29406 3.07617 11H0.75C0.33579 11 0 11.3358 0 11.75C0 12.1642 0.33579 12.5 0.75 12.5H3.07617C3.42634 14.2059 4.94461 15.5 6.75 15.5C8.55539 15.5 10.0737 14.2059 10.4238 12.5H20.25C20.6642 12.5 21 12.1642 21 11.75C21 11.3358 20.6642 11 20.25 11H10.4238C10.0737 9.29406 8.55539 8 6.75 8ZM6.75 9.5C8.0015 9.5 9 10.4985 9 11.75C9 13.0015 8.0015 14 6.75 14C5.4985 14 4.5 13.0015 4.5 11.75C4.5 10.4985 5.4985 9.5 6.75 9.5Z"/>
</symbol><symbol id="hamburger" viewBox="0 0 17 12">
<path fill-rule="evenodd" clip-rule="evenodd" d="M2.08548 0.698677H13.9313L14.3247 2.69868H1.69211L2.08548 0.698677ZM1.2686 4.85189H14.7482L15.1416 6.85189H0.875228L1.2686 4.85189ZM0.393372 9.30176L0 11.3018H16.0168L15.6234 9.30176H0.393372Z"/>
</symbol><symbol id="logout" viewBox="0 0 16 16">
<g clip-path="url(#clip0_23604_88551)">
<path d="M7.97344 14.6414H1.99334C1.62656 14.6414 1.32891 14.3437 1.32891 13.977V2.01681C1.32891 1.65003 1.62659 1.35238 1.99334 1.35238H7.97344C8.34087 1.35238 8.63787 1.05537 8.63787 0.687937C8.63787 0.3205 8.34087 0.0234375 7.97344 0.0234375H1.99334C0.894344 0.0234375 0 0.917813 0 2.01681V13.9769C0 15.0759 0.894344 15.9703 1.99334 15.9703H7.97344C8.34087 15.9703 8.63787 15.6733 8.63787 15.3058C8.63787 14.9384 8.34087 14.6414 7.97344 14.6414Z"/>
<path d="M15.802 7.52957L11.7622 3.54285C11.5017 3.28504 11.0805 3.28839 10.8226 3.54951C10.5648 3.81064 10.5675 4.23123 10.8293 4.48904L13.7163 7.3382H5.98011C5.61267 7.3382 5.31567 7.6352 5.31567 8.00263C5.31567 8.37007 5.61267 8.6671 5.98011 8.6671H13.7163L10.8293 11.5163C10.5675 11.7741 10.5655 12.1947 10.8226 12.4558C10.9529 12.5874 11.1243 12.6538 11.2957 12.6538C11.4645 12.6538 11.6333 12.59 11.7622 12.4624L15.802 8.4757C15.9283 8.35079 16 8.18067 16 8.0026C16 7.8246 15.929 7.65517 15.802 7.52957Z"/>
</g>

</symbol><symbol id="payment" viewBox="0 0 23 19">
<path fill-rule="evenodd" clip-rule="evenodd" d="M-0.000244141 3C-0.000244141 1.34315 1.3429 0 2.99976 0H18.9998C20.6566 0 21.9998 1.34315 21.9998 3V4V7H19.9998H1.99976V13C1.99976 13.5523 2.44747 14 2.99976 14H9.9998C10.552 14 10.9998 14.4477 10.9998 15C10.9998 15.5523 10.552 16 9.9998 16H2.99976C1.3429 16 -0.000244141 14.6569 -0.000244141 13V3ZM1.99976 4H19.9998V3C19.9998 2.44772 19.552 2 18.9998 2H2.99976C2.44747 2 1.99976 2.44772 1.99976 3V4ZM12.9998 14C12.9998 13.4477 13.4475 13 13.9998 13H16.9998V10C16.9998 9.4477 17.4475 9 17.9998 9C18.552 9 18.9998 9.4477 18.9998 10V13H21.9998C22.552 13 22.9998 13.4477 22.9998 14C22.9998 14.5523 22.552 15 21.9998 15H18.9998V18C18.9998 18.5523 18.552 19 17.9998 19C17.4475 19 16.9998 18.5523 16.9998 18V15H13.9998C13.4475 15 12.9998 14.5523 12.9998 14Z"/>
</symbol><symbol id="phone" viewBox="0 0 22 18">
<path fill-rule="evenodd" clip-rule="evenodd" d="M19.8328 12.388C19.3679 12.1771 17.0679 11.1504 16.6397 11.0116C16.2115 10.8673 15.8996 10.8008 15.5876 11.2225C15.2756 11.6499 14.3825 12.6044 14.1073 12.8874C13.8381 13.1649 13.5629 13.2038 13.098 12.9929C12.6269 12.782 11.1222 12.3325 9.33599 10.884C7.94742 9.76296 7.0054 8.36999 6.73625 7.94821C6.46098 7.52088 6.70566 7.29335 6.93811 7.08246C7.15221 6.89377 7.40912 6.58854 7.64157 6.3388C7.87402 6.09461 7.95354 5.91702 8.11258 5.63399C8.2655 5.35096 8.18598 5.10122 8.06976 4.89033C7.95354 4.67944 7.01763 2.58721 6.62614 1.73811C6.24689 0.911204 5.86151 1.02775 5.57401 1.0111C5.30486 0.999999 4.99289 1 4.68093 1C4.36896 1 3.86124 1.10544 3.43305 1.53277C3.00486 1.95455 1.7998 2.98124 1.7998 5.06792C1.7998 7.1546 3.47587 9.17469 3.70832 9.45773C3.94076 9.73521 7.0054 14.0196 11.6972 15.8565C12.8105 16.2949 13.6791 16.5558 14.3581 16.75C15.4775 17.0719 16.499 17.0275 17.3065 16.9221C18.2057 16.8 20.0714 15.8954 20.4629 14.902C20.8482 13.9141 20.8482 13.065 20.732 12.8874C20.6158 12.7098 20.3038 12.6044 19.8328 12.388Z" stroke-width="2"/>
</symbol><symbol id="question" viewBox="0 0 14 14">
<circle cx="7" cy="7" r="7"/>
<path d="M6.17676 8.2207V7.91309C6.17676 7.6722 6.20443 7.46224 6.25977 7.2832C6.3151 7.10417 6.40788 6.93652 6.53809 6.78027C6.66829 6.62077 6.84408 6.45475 7.06543 6.28223C7.29329 6.10319 7.47396 5.94857 7.60742 5.81836C7.74414 5.68815 7.8418 5.55794 7.90039 5.42773C7.96224 5.29427 7.99316 5.13965 7.99316 4.96387C7.99316 4.68717 7.89876 4.47721 7.70996 4.33398C7.52441 4.1875 7.26237 4.11426 6.92383 4.11426C6.62435 4.11426 6.34277 4.15658 6.0791 4.24121C5.81543 4.32585 5.55501 4.43164 5.29785 4.55859L4.89258 3.69922C5.1888 3.53646 5.50944 3.40625 5.85449 3.30859C6.2028 3.20768 6.58529 3.15723 7.00195 3.15723C7.66602 3.15723 8.17871 3.31836 8.54004 3.64062C8.90462 3.96289 9.08691 4.3877 9.08691 4.91504C9.08691 5.20475 9.04134 5.45378 8.9502 5.66211C8.85905 5.86719 8.72396 6.05762 8.54492 6.2334C8.36914 6.40592 8.15592 6.58822 7.90527 6.78027C7.7002 6.94303 7.54232 7.08464 7.43164 7.20508C7.32422 7.32227 7.24935 7.44108 7.20703 7.56152C7.16797 7.68197 7.14844 7.82682 7.14844 7.99609V8.2207H6.17676ZM5.99121 9.79297C5.99121 9.52604 6.05957 9.33887 6.19629 9.23145C6.33626 9.12077 6.50716 9.06543 6.70898 9.06543C6.9043 9.06543 7.07194 9.12077 7.21191 9.23145C7.35189 9.33887 7.42188 9.52604 7.42188 9.79297C7.42188 10.0534 7.35189 10.2422 7.21191 10.3594C7.07194 10.4733 6.9043 10.5303 6.70898 10.5303C6.50716 10.5303 6.33626 10.4733 6.19629 10.3594C6.05957 10.2422 5.99121 10.0534 5.99121 9.79297Z"/>
</symbol><symbol id="route" viewBox="0 0 24 24">
<path d="M12.9995 2L10.9998 9.9981L5 4.00031L12.9995 2Z"/>
<path d="M4.95985 8.15873C3.25185 9.65973 3.00785 12.3267 4.41185 14.1267C5.82585 15.9387 8.40185 16.2337 10.1678 14.7847L15.0478 10.7807C15.2667 10.6009 15.5195 10.467 15.7911 10.3869C16.0628 10.3068 16.3478 10.2822 16.6292 10.3144C16.9106 10.3467 17.1826 10.4353 17.4291 10.5748C17.6755 10.7144 17.8914 10.9021 18.0638 11.1267C18.8128 12.0867 18.6808 13.5267 17.7708 14.3267L16.7278 15.2427L17.9968 16.7607L19.0399 15.8447C20.7479 14.3427 20.9928 11.6787 19.5868 9.87673C18.1748 8.06673 15.5948 7.77073 13.8308 9.21873L8.95085 13.2227C8.73211 13.4028 8.47936 13.5369 8.20765 13.6172C7.93595 13.6975 7.65087 13.7222 7.36941 13.6899C7.08795 13.6576 6.81587 13.569 6.5694 13.4293C6.32294 13.2895 6.10713 13.1016 5.93485 12.8767C5.18785 11.9187 5.31885 10.4767 6.22785 9.67673L7 9.00156L5.83243 7.55078C5.83243 7.55078 5.5968 7.65645 5.49985 7.74173L4.95985 8.15873Z"/>
<path d="M10 19C10 18.2044 10.3161 17.4413 10.8787 16.8787C11.4413 16.3161 12.2044 16 13 16C13.7956 16 14.5587 16.3161 15.1213 16.8787C15.6839 17.4413 16 18.2044 16 19C16 19.7956 15.6839 20.5587 15.1213 21.1213C14.5587 21.6839 13.7956 22 13 22C12.2044 22 11.4413 21.6839 10.8787 21.1213C10.3161 20.5587 10 19.7956 10 19Z"/>
</symbol><symbol id="rutube_black" viewBox="0 0 16 16">
<path d="M8.9998 5.7C8.6998 5.6 8.4998 5.5 8.1998 5.5C7.5998 5.5 6.9998 5.5 6.3998 5.5C6.3998 5.5 6.3998 5.5 6.2998 5.5C6.2998 6.3 6.2998 7.2 6.2998 8C6.9998 8 7.4998 8 8.0998 8C8.3998 8 8.6998 7.9 8.9998 7.7C9.3998 7.5 9.5998 7.1 9.5998 6.7C9.5998 6.3 9.3998 5.9 8.9998 5.7Z"/>
<path d="M15.9 1.2C15.8 0.5 15.4 0.2 14.7 0.1C14.5 2.23517e-08 14.4 0 14.2 0C10.1 0 5.9 0 1.8 0C1.6 0 1.4 2.23517e-08 1.2 0.1C0.5 0.3 0.2 0.6 0.1 1.3C2.23517e-08 1.5 0 1.6 0 1.8C0 5.9 0 10.1 0 14.2C0 14.4 2.23517e-08 14.6 0.1 14.8C0.2 15.5 0.6 15.8 1.3 15.9C1.5 16 1.6 16 1.8 16C5.9 16 10.1 16 14.2 16C14.4 16 14.6 15.9 14.8 15.9C15.5 15.7 15.8 15.4 15.9 14.7C16 14.5 16 14.4 16 14.2C16 10.1 16 5.9 16 1.8C16 1.6 16 1.4 15.9 1.2ZM12.3 12.7C11.5 12.7 10.7 12.7 9.9 12.7C9.8 12.7 9.7 12.7 9.7 12.6C9.2 11.8 8.6 11 8.1 10.1C8 10 8 10 7.8 10C7.3 10 6.8 10 6.3 10C6.2 10 6.2 10 6.1 10C6.1 10.9 6.1 11.8 6.1 12.7C5.3 12.7 4.5 12.7 3.8 12.7C3.8 9.6 3.8 6.5 3.8 3.4H3.9C5.4 3.4 6.8 3.4 8.3 3.4C9.2 3.4 10.1 3.7 10.8 4.3C11.5 4.9 11.8 5.6 11.9 6.5C11.9 7.8 11.4 8.8 10.3 9.5C11 10.6 11.8 11.7 12.5 12.7C12.4 12.7 12.4 12.7 12.3 12.7Z"/>
</symbol><symbol id="search" viewBox="0 0 19 19">
<path fill-rule="evenodd" clip-rule="evenodd" d="M7.54173 3.65957e-07C6.35295 0.000357636 5.18108 0.281649 4.12166 0.820941C3.06224 1.36023 2.14527 2.14226 1.4455 3.10326C0.745724 4.06426 0.282966 5.17704 0.0949509 6.35086C-0.0930645 7.52468 -0.00101539 8.72632 0.363594 9.8578C0.728203 10.9893 1.35505 12.0186 2.19303 12.8618C3.03101 13.705 4.0564 14.3382 5.1856 14.7099C6.31479 15.0815 7.51584 15.181 8.6908 15.0003C9.86577 14.8196 10.9814 14.3638 11.9467 13.67L17.2777 19L18.9977 17.28L13.6677 11.95C14.4787 10.8229 14.9628 9.49386 15.0669 8.10924C15.1709 6.72462 14.8908 5.33815 14.2574 4.10253C13.6239 2.86691 12.6618 1.83007 11.4769 1.10621C10.292 0.382359 8.93025 -0.000432054 7.54173 3.65957e-07ZM2.43173 7.544C2.43173 6.18861 2.97016 4.88874 3.92856 3.93033C4.88697 2.97193 6.18684 2.4335 7.54223 2.4335C8.89762 2.4335 10.1975 2.97193 11.1559 3.93033C12.1143 4.88874 12.6527 6.18861 12.6527 7.544C12.6527 8.89939 12.1143 10.1993 11.1559 11.1577C10.1975 12.1161 8.89762 12.6545 7.54223 12.6545C6.18684 12.6545 4.88697 12.1161 3.92856 11.1577C2.97016 10.1993 2.43173 8.89939 2.43173 7.544Z"/>
</symbol><symbol id="sort" viewBox="0 0 16 14">
<path fill-rule="evenodd" clip-rule="evenodd" d="M8.4697 10.5266L11.4697 13.5266C11.7626 13.8195 12.2374 13.8195 12.5303 13.5266L15.5303 10.5266C15.8232 10.2337 15.8232 9.75894 15.5303 9.46604C15.2374 9.17314 14.7626 9.17314 14.4697 9.46604L12.75 11.1856V0.996338C12.75 0.582128 12.4142 0.246338 12 0.246338C11.5858 0.246338 11.25 0.582128 11.25 0.996338V11.1856L9.5303 9.46604C9.2374 9.17314 8.7626 9.17314 8.4697 9.46604C8.1768 9.75894 8.1768 10.2337 8.4697 10.5266ZM4.53033 0.466008C4.23744 0.173118 3.76256 0.173118 3.46967 0.466008L0.469668 3.46601C0.176777 3.7589 0.176777 4.23378 0.469668 4.52667C0.762558 4.81956 1.23744 4.81956 1.53033 4.52667L3.25 2.807V12.9963C3.25 13.4105 3.58579 13.7463 4 13.7463C4.41421 13.7463 4.75 13.4105 4.75 12.9963V2.807L6.4697 4.52667C6.7626 4.81956 7.2374 4.81956 7.5303 4.52667C7.8232 4.23378 7.8232 3.7589 7.5303 3.46601L4.53033 0.466008Z"/>
</symbol><symbol id="star-clean" viewBox="0 0 16 16">
  <g clip-path="url(#clip0_23028_41069)">
    <path d="M 10.248,5.57474 16,6.09684 11.64,10.08 12.944,16 8,12.8589 3.056,16 4.368,10.08 0,6.09684 5.752,5.58316 8,0 Z m -4.45626,4.01733 -0.8,3.60423 3.008,-1.9116 3.01596,1.92 -0.8,-3.60421 2.656,-2.42526 -3.50396,-0.32 -1.368,-3.40211 -1.36,3.39369 -3.504,0.32 z" id="path2"/>
    <mask id="mask0_23028_41069" maskUnits="userSpaceOnUse" x="0" y="0" width="16" height="16">
      <path d="M 8,12.8589 12.944,16 11.632,10.08 16,6.09684 10.248,5.58316 8,0 5.752,5.58316 0,6.09684 4.368,10.08 3.056,16 Z" id="path4"/>
    </mask>
    <g mask="url(#mask0_23028_41069)" id="g9"/>
  </g>
  
</symbol><symbol id="star-half" viewBox="0 0 16 16">
<g clip-path="url(#clip0_23028_41069)">
<path fill-rule="evenodd" clip-rule="evenodd" d="M10.248 5.57474L16 6.09684L11.64 10.08L12.944 16L8 12.8589L3.056 16L4.368 10.08L0 6.09684L5.752 5.58316L8 0L10.248 5.57474ZM5.79174 9.59207L4.99174 13.1963L7.99974 11.2847L11.0157 13.2047L10.2157 9.60049L12.8717 7.17523L9.36774 6.85523L7.99974 3.45312L6.63974 6.84681L3.13574 7.16681L5.79174 9.59207Z"/>
<mask id="mask0_23028_41069" maskUnits="userSpaceOnUse" x="0" y="0" width="16" height="16">
<path d="M8 12.8589L12.944 16L11.632 10.08L16 6.09684L10.248 5.58316L8 0L5.752 5.58316L0 6.09684L4.368 10.08L3.056 16L8 12.8589Z"/>
</mask>
<g mask="url(#mask0_23028_41069)">
<path d="M8 0H-8V16H8V0Z"/>
</g>
</g>

</symbol><symbol id="star" viewBox="0 0 16 16">
<g clip-path="url(#clip0_23028_41045)">
<path fill-rule="evenodd" clip-rule="evenodd" d="M10.248 5.57474L16 6.09684L11.64 10.08L12.944 16L8 12.8589L3.056 16L4.368 10.08L0 6.09684L5.752 5.58316L8 0L10.248 5.57474ZM5.79174 9.59207L4.99174 13.1963L7.99974 11.2847L11.0157 13.2047L10.2157 9.60049L12.8717 7.17523L9.36774 6.85523L7.99974 3.45312L6.63974 6.84681L3.13574 7.16681L5.79174 9.59207Z"/>
<mask id="mask0_23028_41045" maskUnits="userSpaceOnUse" x="0" y="0" width="16" height="16">
<path d="M8 12.8589L12.944 16L11.632 10.08L16 6.09684L10.248 5.58316L8 0L5.752 5.58316L0 6.09684L4.368 10.08L3.056 16L8 12.8589Z"/>
</mask>
<g mask="url(#mask0_23028_41045)">
<path d="M16 0H0V16H16V0Z"/>
</g>
</g>

</symbol><symbol id="telegram" viewBox="0 0 30 30">
<path d="M21.3068 8L20.9958 8.10795C20.9958 8.10795 9.94758 11.9658 6.52059 13.1974L6 13.3849V15.0241L11.9594 16.1847V20.2798L12.811 20.2756L15.3275 18.392L18.2232 21H20.3122L23 8.5483L21.3068 8ZM21.3068 9.36648L19.0115 19.9119L15.3275 17.0028L13.0023 18.392L13.6626 16.1847L19.0115 11.5483L18.8419 11.402C18.8419 11.402 13.4128 14.0748 11.1095 15.2017L7.7015 14.0938C11.5676 12.717 20.4991 9.64859 21.3068 9.36648Z"/>
</symbol><symbol id="telegram_black" viewBox="0 0 20 17">
<path d="M18.6782 0.140061L0.752214 6.95806C-0.222786 7.24706 -0.197786 8.21406 0.527214 8.45206L5.01021 9.86006L6.73421 15.1601C6.94721 15.7371 7.10921 15.9631 7.47121 15.9631C7.84621 15.9631 7.98421 15.8251 8.38321 15.4861C8.83321 15.0591 9.53321 14.3811 10.6322 13.3011L15.3042 16.7671C16.1662 17.2441 16.7782 16.9931 17.0032 15.9641L19.9262 1.39506C20.2382 0.139061 19.5012 -0.236939 18.6762 0.139061L18.6782 0.140061ZM5.72321 9.54506L15.9302 3.10306C16.4302 2.76406 16.5922 3.14106 16.3682 3.40506L7.89821 11.0651L7.46121 14.8961L5.72421 9.54606L5.72321 9.54506Z"/>
</symbol><symbol id="telegram_grey" viewBox="0 0 19 15">
<path d="M16.0855 0.857296L16.0376 0.841796L15.9901 0.858293L15.679 0.966248L15.6788 0.96634L15.7282 1.10795C15.6788 0.96634 15.6787 0.966354 15.6786 0.966384L15.6783 0.966516L15.6768 0.967044L15.6707 0.969142L15.647 0.977446L15.5538 1.00997L15.1973 1.13452L13.8989 1.58839C12.8095 1.96932 11.3214 2.49005 9.72611 3.04927C6.53587 4.16763 2.91645 5.44021 1.20228 6.05628L1.20219 6.05632L0.681593 6.24382L0.582422 6.27954V6.38494V8.02415V8.14776L0.70375 8.17138L6.54182 9.30827V13.2798V13.4306L6.69257 13.4298L7.54415 13.4256L7.59365 13.4253L7.63328 13.3957L10.0511 11.586L12.8552 14.1115L12.898 14.15H12.9556H15.0446H15.1657L15.1912 14.0316L17.879 1.57995L17.9077 1.44737L17.7786 1.40559L16.0855 0.857296ZM2.89976 7.08747C6.02328 5.98067 11.6993 4.02287 14.4977 3.05766C15.0896 2.85347 15.5528 2.69371 15.8358 2.59581L13.6485 12.6454L10.1528 9.88512L10.0717 9.82105L9.98295 9.87407L7.98895 11.0654L8.52619 9.26944L13.8422 4.66164L13.9733 4.54801L13.8419 4.4347L13.6723 4.2884L13.5971 4.22357L13.5081 4.26741L13.5743 4.40199L13.508 4.26744L13.5078 4.26754L13.5071 4.2679L13.5041 4.26935L13.4924 4.27511L13.4465 4.2977L13.2703 4.38446L12.6238 4.70264C12.0788 4.97083 11.3282 5.34014 10.5057 5.74467C8.88615 6.54111 6.98781 7.47396 5.83053 8.04028L2.89976 7.08747Z" stroke-width="0.3"/>
</symbol><symbol id="user" viewBox="0 0 24 24">
<path d="M19.6515 20.4054C20.2043 20.2902 20.5336 19.7117 20.2589 19.2183C19.6533 18.1307 18.6993 17.1749 17.4788 16.4465C15.907 15.5085 13.9812 15 12 15C10.0188 15 8.09292 15.5085 6.52112 16.4465C5.30069 17.1749 4.34666 18.1307 3.74108 19.2183C3.46638 19.7117 3.79562 20.2902 4.34843 20.4054V20.4054C9.39524 21.4572 14.6047 21.4572 19.6515 20.4054V20.4054Z" stroke-width="2" stroke-linecap="round"/>
<circle cx="12" cy="8" r="5" stroke-width="2" stroke-linecap="round"/>
</symbol><symbol id="Vector" viewBox="0 0 23 18">
<path d="M22.8563 4.19565C22.8563 4.19565 22.7125 2.56957 21.85 1.83043C20.9875 0.795652 19.9813 0.647826 19.55 0.647826C16.2438 0.5 11.5 0.5 11.5 0.5C11.5 0.5 6.75625 0.5 3.45 0.647826C3.01875 0.647826 2.0125 0.647826 1.15 1.68261C0.43125 2.42174 0.14375 4.19565 0.14375 4.19565C0.14375 4.19565 0 6.26522 0 8.03913V8.33478V9.96087C0 12.0304 0.14375 13.9522 0.14375 13.9522C0.14375 13.9522 0.2875 15.5783 1.15 16.4652C2.0125 17.5 3.1625 17.5 3.59375 17.5C5.60625 17.5 11.5 17.5 11.5 17.5C11.5 17.5 16.2438 17.5 19.55 17.2043C19.9813 17.2043 20.9875 17.2043 21.85 16.1696C22.5688 15.4304 22.8563 13.6565 22.8563 13.6565C22.8563 13.6565 23 11.8826 23 9.96087V8.48261V8.03913C23 6.26522 22.8563 4.19565 22.8563 4.19565ZM15.2375 8.77826L9.05625 12.1783V6.85652V5.23043L11.7875 6.7087L15.2375 8.77826Z"/>
</symbol><symbol id="vk_black" viewBox="0 0 21 12">
<path d="M11.5807 11.995C11.5807 11.995 12.0007 11.995 12.1687 11.738C12.3367 11.566 12.3367 11.224 12.3367 11.224C12.3367 11.224 12.3367 9.51 13.0927 9.253C13.8487 8.996 14.8567 10.881 15.8647 11.566C16.6207 12.08 17.2927 11.995 17.2927 11.995H20.0637C20.0637 11.995 21.4917 11.909 20.8197 10.709C20.7357 10.624 20.3997 9.853 18.7197 8.311C16.9567 6.683 17.2087 6.94 19.3077 4.112C20.5677 2.399 21.0717 1.371 20.9877 0.857C20.8197 0.428 19.8957 0.514 19.8957 0.514H16.7047C16.7047 0.514 16.4527 0.514 16.2847 0.6C16.1167 0.685 16.0327 0.942 16.0327 0.942C16.0327 0.942 15.5287 2.313 14.8567 3.427C13.4287 5.826 12.9247 5.912 12.6727 5.826C12.1687 5.483 12.2527 4.456 12.2527 3.684C12.2527 1.371 12.5887 0.428 11.5807 0.171C11.2447 0.086 10.9927 0 10.0697 0C8.97767 0 7.96967 -2.98023e-08 7.46567 0.257C7.12967 0.428 6.79367 0.857 6.96167 0.857C7.12967 0.857 7.63367 0.942 7.88567 1.285C8.22167 1.714 8.22167 2.742 8.22167 2.742C8.22167 2.742 8.38967 5.483 7.80167 5.826C7.38167 6.083 6.79367 5.569 5.53367 3.427C4.86167 2.313 4.44167 1.114 4.44167 1.114C4.44167 1.114 4.35767 0.857 4.18967 0.771C4.02167 0.6 3.68567 0.6 3.68567 0.6H0.662667C0.662667 0.6 0.242667 0.6 0.0746667 0.771C-0.0933333 0.942 0.0746667 1.285 0.0746667 1.285C0.0746667 1.285 2.42567 6.768 5.11467 9.595C7.54967 12.166 10.3217 11.995 10.3217 11.995H11.5807Z"/>
</symbol><symbol id="whatsapp" viewBox="0 0 30 30">
<path fill-rule="evenodd" clip-rule="evenodd" d="M21.0236 8.47067C19.4243 6.87865 17.2993 6 15.036 6C10.3709 6 6.57194 9.779 6.57194 14.4229C6.56917 15.9075 6.95931 17.3563 7.70085 18.6343L6.5 23L10.988 21.8266C12.222 22.4987 13.6165 22.8513 15.0332 22.854H15.036C19.701 22.854 23.4972 19.075 23.5 14.4284C23.5 12.1781 22.6201 10.0627 21.0236 8.47067ZM15.036 21.43H15.0332C13.7715 21.43 12.5319 21.0912 11.4528 20.455L11.1955 20.3035L8.53092 20.9976L9.24202 18.414L9.07601 18.1495C8.37044 17.034 7.99967 15.745 7.99967 14.4229C7.99967 10.564 11.1567 7.42401 15.0387 7.42401C16.9175 7.42401 18.6828 8.15392 20.0109 9.47602C21.339 10.8009 22.0695 12.5582 22.0695 14.4284C22.0695 18.29 18.9124 21.43 15.036 21.43ZM18.8931 16.1857C18.6828 16.081 17.6424 15.5715 17.4487 15.5026C17.255 15.431 17.1139 15.3979 16.9728 15.6073C16.8317 15.8193 16.4277 16.2931 16.3032 16.4336C16.1815 16.5713 16.057 16.5906 15.8467 16.4859C15.6336 16.3812 14.953 16.1581 14.145 15.4392C13.5169 14.8829 13.0908 14.1915 12.9691 13.9822C12.8446 13.7701 12.9552 13.6572 13.0604 13.5525C13.1572 13.4588 13.2734 13.3074 13.3786 13.1834C13.4837 13.0622 13.5197 12.9741 13.5916 12.8336C13.6608 12.6931 13.6248 12.5692 13.5723 12.4645C13.5197 12.3599 13.0964 11.3215 12.9193 10.9C12.7477 10.4896 12.5734 10.5475 12.4434 10.5392C12.3216 10.5337 12.1805 10.5337 12.0394 10.5337C11.8983 10.5337 11.6686 10.586 11.4749 10.7981C11.2812 11.0075 10.7362 11.517 10.7362 12.5527C10.7362 13.5883 11.4943 14.5909 11.5994 14.7314C11.7046 14.8691 13.0908 16.9955 15.2131 17.9072C15.7166 18.1248 16.1095 18.2542 16.4167 18.3506C16.923 18.5104 17.3851 18.4883 17.7503 18.436C18.1571 18.3754 19.001 17.9264 19.1781 17.4334C19.3524 16.9431 19.3524 16.5217 19.2998 16.4336C19.2472 16.3454 19.1061 16.2931 18.8931 16.1857Z"/>
</symbol><symbol id="whatsapp_grey" viewBox="0 0 18 19">
<path d="M0.588933 9.42274C0.58618 10.9127 0.972254 12.3674 1.70661 13.6549L0.522364 17.9602L0.453415 18.2109L0.704934 18.1451L5.13569 16.9867C6.37898 17.6525 7.7787 18.0013 9.1999 18.004H9.2002H9.20296C13.9502 18.004 17.8142 14.1585 17.817 9.42848V9.42839C17.817 7.13808 16.9212 4.98454 15.2965 3.36446L15.2964 3.36437C13.669 1.74435 11.506 0.85 9.20296 0.85C4.45584 0.85 0.589009 4.69538 0.588933 9.42274ZM0.588933 9.42274C0.588933 9.42269 0.588933 9.42265 0.588933 9.4226L0.738933 9.42288H0.588933C0.588933 9.42283 0.588933 9.42279 0.588933 9.42274ZM0.666992 18L0.712943 17.8329L0.62905 17.8549L0.666992 18ZM0.666992 18L0.811621 18.0398L0.834618 17.9562L0.666992 18ZM13.1269 11.0514L13.1276 11.0517C13.1655 11.0709 13.204 11.0896 13.241 11.1075C13.2987 11.1355 13.3528 11.1618 13.3957 11.1853C13.4669 11.2243 13.5472 11.2755 13.5956 11.3567L13.4668 11.4336L13.5956 11.3567C13.6281 11.4111 13.6392 11.485 13.644 11.5463C13.6495 11.6158 13.6486 11.7005 13.6405 11.7955C13.6242 11.9857 13.5779 12.2262 13.4864 12.4837L13.4862 12.4841C13.3802 12.7792 13.0889 13.0374 12.7981 13.2233C12.5036 13.4114 12.1708 13.5499 11.9394 13.5844L11.9386 13.5845C11.5615 13.6385 11.0745 13.6628 10.5385 13.4937C10.2289 13.3965 9.83065 13.2653 9.32055 13.0449C7.29937 12.1764 5.93571 10.2328 5.68405 9.87414C5.66599 9.8484 5.65365 9.83083 5.64721 9.82239L5.64635 9.82126L5.64635 9.82125L5.6432 9.81704C5.58423 9.73831 5.36652 9.44764 5.16173 9.04582C4.95418 8.63861 4.75316 8.10439 4.75316 7.55266C4.75316 6.5202 5.26902 5.97451 5.49276 5.73784C5.50704 5.72274 5.52013 5.70889 5.53183 5.69625L5.64193 5.79812L5.53117 5.69697C5.75833 5.44822 6.03127 5.3837 6.20638 5.3837H6.20865C6.34812 5.3837 6.492 5.3837 6.61713 5.38936L6.61986 5.38949L6.61986 5.38951C6.63054 5.39019 6.64258 5.39024 6.66119 5.39025H6.66215C6.67907 5.39026 6.70096 5.39028 6.72409 5.39161C6.77279 5.39442 6.83252 5.40323 6.8961 5.43285C7.02577 5.49328 7.13213 5.62088 7.2246 5.84205C7.28946 5.99639 7.38721 6.23317 7.48754 6.47617C7.52454 6.56579 7.56189 6.65625 7.59807 6.74374C7.73459 7.07388 7.85027 7.35134 7.8733 7.39719C7.935 7.52004 7.99259 7.69802 7.89319 7.89987L7.89215 7.90199L7.89214 7.90198C7.88183 7.9221 7.87206 7.94165 7.86247 7.96083C7.80873 8.0683 7.7609 8.16396 7.65944 8.28106M13.1269 11.0514L7.22738 8.5525L7.33165 8.66033C7.33193 8.66006 7.3322 8.65979 7.33248 8.65952C7.40756 8.58675 7.49511 8.48015 7.57427 8.38376C7.60424 8.34727 7.633 8.31224 7.65944 8.28106M13.1269 11.0514C13.0211 10.9987 12.7078 10.8448 12.3966 10.6955C12.0913 10.549 11.7742 10.3999 11.6669 10.3616L13.1269 11.0514ZM7.65944 8.28106C7.65925 8.28128 7.65906 8.28149 7.65888 8.28171L7.54557 8.18341L7.65996 8.28044C7.65979 8.28065 7.65961 8.28085 7.65944 8.28106ZM5.69598 15.3257L5.69589 15.3257L5.43857 15.1742L5.38491 15.1426L5.32466 15.1583L2.91147 15.7869L3.55364 13.4538L3.57116 13.3901L3.53605 13.3342L3.37004 13.0698L3.36977 13.0694C2.6795 11.978 2.31667 10.7168 2.31667 9.42288C2.31667 5.64764 5.40578 2.57401 9.20573 2.57401C11.0448 2.57401 12.772 3.28817 14.072 4.58222C15.372 5.87903 16.0865 7.59815 16.0865 9.42839C16.0865 13.2065 12.9973 16.28 9.20296 16.28H9.2002C7.96522 16.28 6.75195 15.9484 5.69598 15.3257Z" stroke-width="0.3"/>
</symbol><symbol id="youtube_black" viewBox="0 0 20 14">
<path d="M19.875 3.04348C19.875 3.04348 19.75 1.70435 19 1.09565C18.25 0.243478 17.375 0.121739 17 0.121739C14.125 -1.17914e-07 10 0 10 0C10 0 5.875 -1.17914e-07 3 0.121739C2.625 0.121739 1.75 0.121739 1 0.973913C0.375 1.58261 0.125 3.04348 0.125 3.04348C0.125 3.04348 0 4.74783 0 6.2087V6.45217V7.7913C0 9.49565 0.125 11.0783 0.125 11.0783C0.125 11.0783 0.25 12.4174 1 13.1478C1.75 14 2.75 14 3.125 14C4.875 14 10 14 10 14C10 14 14.125 14 17 13.7565C17.375 13.7565 18.25 13.7565 19 12.9043C19.625 12.2957 19.875 10.8348 19.875 10.8348C19.875 10.8348 20 9.37391 20 7.7913V6.57391V6.2087C20 4.74783 19.875 3.04348 19.875 3.04348ZM13.25 6.81739L7.875 9.61739V5.23478V3.89565L10.25 5.11304L13.25 6.81739Z"/>
</symbol></svg>