<svg width="32" height="32" viewBox="0 0 32 32" fill="none" xmlns="http://www.w3.org/2000/svg">
<path d="M16.0008 29.7998C8.40078 29.7998 2.30078 23.5998 2.30078 15.9998C2.30078 8.3998 8.40078 2.2998 16.0008 2.2998C23.6008 2.2998 29.8008 8.4998 29.8008 16.0998C29.8008 23.5998 23.6008 29.7998 16.0008 29.7998ZM16.0008 3.7998C9.20078 3.7998 3.80078 9.1998 3.80078 15.9998C3.80078 22.7998 9.20078 28.2998 16.0008 28.2998C22.8008 28.2998 28.3008 22.7998 28.3008 15.9998C28.3008 9.1998 22.8008 3.7998 16.0008 3.7998Z" fill="#111111"/>
<path d="M6.20033 24.7C6.00033 24.7 5.80033 24.6 5.70033 24.5C5.40033 24.2 5.40033 23.8 5.60033 23.4C8.20033 20.4 12.0003 18.7 15.9003 18.7C19.8003 18.7 23.6003 20.4 26.2003 23.4C26.5003 23.7 26.4003 24.2 26.1003 24.5C25.8003 24.8 25.3003 24.7 25.0003 24.4C22.7003 21.8 19.3003 20.3 15.8003 20.3C12.3003 20.3 8.90033 21.8 6.60033 24.5C6.60033 24.6 6.40033 24.7 6.20033 24.7ZM16.0003 16.7C13.5003 16.7 11.5003 14.6 11.5003 12.1C11.5003 9.6 13.5003 7.5 16.0003 7.5C18.5003 7.5 20.5003 9.6 20.5003 12.1C20.5003 14.6 18.5003 16.7 16.0003 16.7ZM16.0003 9.1C14.3003 9.1 13.0003 10.5 13.0003 12.2C13.0003 13.9 14.4003 15.3 16.0003 15.3C17.7003 15.3 19.0003 13.9 19.0003 12.2C19.0003 10.5 17.7003 9.1 16.0003 9.1Z" fill="#111111"/>
</svg>
