<svg width="16" height="12" viewBox="0 0 16 12" fill="none" xmlns="http://www.w3.org/2000/svg">
<path d="M4.8 12C3.34021 12.0007 2.06495 11.0751 1.7 9.75007H0V8.25012H1.7008C2.11651 6.74075 3.69609 5.78138 5.33543 6.04261C6.97476 6.30383 8.1275 7.69859 7.98789 9.25196C7.84828 10.8053 6.46285 11.9996 4.8 12ZM4.8 7.50014C3.92592 7.50097 3.21431 8.15925 3.20179 8.9786C3.18926 9.79794 3.88045 10.4751 4.75415 10.4994C5.62785 10.5237 6.36067 9.88619 6.4 9.06759V9.36758V9.00009C6.4 8.17169 5.68366 7.50014 4.8 7.50014ZM16 9.75007H8.8V8.25012H16V9.75007ZM8.8 6.00019C7.3405 6.00053 6.06567 5.07504 5.7008 3.75025H0V2.2503H5.7008C6.11651 0.740931 7.69609 -0.218436 9.33543 0.0427902C10.9748 0.304017 12.1275 1.69878 11.9879 3.25214C11.8483 4.80551 10.4628 5.99979 8.8 6.00019ZM8.8 1.50032C7.92592 1.50115 7.21431 2.15944 7.20179 2.97878C7.18926 3.79813 7.88045 4.47526 8.75415 4.49957C9.62785 4.52388 10.3607 3.88637 10.4 3.06778V3.36777V3.00028C10.4 2.17188 9.68366 1.50032 8.8 1.50032ZM16 3.75025H12.8V2.2503H16V3.75025Z" fill="#111111"/>
</svg>
