<?xml version="1.0" encoding="utf-8"?>
<!-- Generator: Adobe Illustrator 24.1.2, SVG Export Plug-In . SVG Version: 6.00 Build 0)  -->
<svg version="1.1" id="Слой_1" xmlns="http://www.w3.org/2000/svg" xmlns:xlink="http://www.w3.org/1999/xlink" x="0px" y="0px"
	 viewBox="0 0 20 20" style="enable-background:new 0 0 20 20;" xml:space="preserve" width="20" height="20">
<g>
	<path d="M8.1,16.2c-4.3,0-7.9-3.5-7.9-7.9c0-4.3,3.5-7.9,7.9-7.9C12.4,0.5,16,4,16,8.4C16,12.7,12.4,16.2,8.1,16.2z M8.1,2
		C4.6,2,1.7,4.8,1.7,8.4c0,3.5,2.9,6.4,6.4,6.4c3.5,0,6.4-2.9,6.4-6.4C14.5,4.8,11.6,2,8.1,2z"/>
</g>
<g>
	<path d="M19,19.5c-0.2,0-0.4-0.1-0.5-0.2L13.2,14c-0.3-0.3-0.3-0.8,0-1.1s0.8-0.3,1.1,0l5.2,5.2c0.3,0.3,0.3,0.8,0,1.1
		C19.4,19.4,19.2,19.5,19,19.5z"/>
</g>
</svg>
