<svg width="145" height="49" viewBox="0 0 145 49" fill="none" xmlns="http://www.w3.org/2000/svg">
	<path d="M0 24.0883C0 15.6288 0 11.3827 1.62062 8.18184C3.06297 5.35658 5.33184 3.07023 8.15172 1.6331C11.3443 0 15.5255 0 23.8717 0H26.0596C34.422 0 38.5869 0 41.7796 1.6331C44.5832 3.07023 46.8683 5.35658 48.2945 8.18184C49.9151 11.3827 49.9151 15.6288 49.9151 24.0883C49.9151 32.5477 49.9151 36.7938 48.2945 39.9947C46.8683 42.82 44.5832 45.1063 41.7796 46.5434C38.5869 48.1765 34.4057 48.1765 26.0596 48.1765H23.8717C15.5093 48.1765 11.3443 48.1765 8.15172 46.5434C5.34804 45.1063 3.06297 42.82 1.63683 39.9947C0 36.7938 0 32.5477 0 24.0883Z" fill="white"/>
	<path d="M19.6588 18.8136C19.6588 18.5196 19.8857 18.291 20.145 18.291H22.4463C22.7218 18.291 22.9325 18.5196 22.9325 18.8136V29.3635C22.9325 29.6574 22.7056 29.886 22.4463 29.886H20.145C19.8695 29.886 19.6588 29.6574 19.6588 29.3635V25.9013C19.6588 25.6073 19.432 25.3787 19.1727 25.3787H14.2946C14.0191 25.3787 13.8084 25.6073 13.8084 25.9013V29.3635C13.8084 29.6574 13.5815 29.886 13.3222 29.886H11.0047C10.7292 29.886 10.5186 29.6574 10.5186 29.3635V18.8136C10.5186 18.5196 10.7454 18.291 11.0047 18.291H13.306C13.5815 18.291 13.7922 18.5196 13.7922 18.8136V21.8838C13.7922 22.1778 14.0191 22.4064 14.2784 22.4064H19.1565C19.432 22.4064 19.6426 22.1778 19.6426 21.8838V18.8136H19.6588Z" fill="#E63230"/>
	<path d="M39.5534 24.0877C39.5534 24.8226 39.4237 25.4922 39.1806 26.1291C38.9213 26.7496 38.5486 27.2886 38.03 27.7458C37.5114 28.2031 36.8632 28.5787 36.0691 28.8563C35.4046 29.085 34.6429 29.2156 33.784 29.2646C33.5247 29.281 33.2978 29.5096 33.2978 29.8035V29.8852C33.2978 30.1792 33.0709 30.4078 32.8116 30.4078H30.5103C30.2348 30.4078 30.0241 30.1792 30.0241 29.8852V29.8035C30.0241 29.5096 29.8135 29.281 29.538 29.2646C28.6628 29.2156 27.9011 29.085 27.2367 28.8563C26.4588 28.5787 25.8105 28.2031 25.2919 27.7458C24.7733 27.2886 24.3844 26.7333 24.1413 26.1291C23.8982 25.4922 23.7686 24.8226 23.7686 24.0877C23.7686 23.3528 23.8982 22.6832 24.1413 22.0463C24.4006 21.4094 24.7733 20.8705 25.2919 20.4132C25.8105 19.9559 26.4588 19.5803 27.2367 19.319C27.9011 19.0904 28.679 18.9434 29.538 18.9108C29.8135 18.8944 30.0241 18.6658 30.0241 18.3718V18.2902C30.0241 17.9962 30.251 17.7676 30.5103 17.7676H32.8116C33.0871 17.7676 33.2978 17.9962 33.2978 18.2902V18.3718C33.2978 18.6658 33.5085 18.8944 33.784 18.9108C34.6429 18.9597 35.4046 19.0904 36.0691 19.319C36.8632 19.5803 37.5114 19.9559 38.03 20.4132C38.5486 20.8705 38.9375 21.4257 39.1806 22.0463C39.4237 22.6832 39.5534 23.3528 39.5534 24.0877ZM26.9612 24.0877C26.9612 24.4306 27.026 24.7573 27.1394 25.0675C27.2691 25.3615 27.4636 25.6228 27.7229 25.8514C27.9822 26.0637 28.3225 26.227 28.7114 26.3577C29.1166 26.472 29.5866 26.5373 30.1376 26.5373C30.1538 26.5373 30.17 26.521 30.17 26.5047V21.6707C30.17 21.6544 30.1538 21.638 30.1376 21.638C29.5866 21.638 29.1166 21.7034 28.7114 21.834C28.3225 21.9483 27.9822 22.128 27.7229 22.3403C27.4636 22.5526 27.2691 22.7975 27.1394 23.1078C27.026 23.4018 26.9612 23.7284 26.9612 24.0877ZM33.1195 26.5373C33.6705 26.5373 34.1405 26.472 34.5457 26.3577C34.9508 26.227 35.275 26.0474 35.5342 25.8514C35.7935 25.6228 35.988 25.3778 36.1177 25.0675C36.2473 24.7573 36.3121 24.4306 36.3121 24.0877C36.3121 23.7284 36.2473 23.4018 36.1177 23.1078C35.988 22.8139 35.8098 22.5526 35.5342 22.3403C35.275 22.1116 34.9508 21.9483 34.5457 21.834C34.1405 21.7034 33.6705 21.638 33.1195 21.638C33.1033 21.638 33.0871 21.6544 33.0871 21.6707V26.5047C33.0871 26.521 33.1033 26.5373 33.1195 26.5373Z" fill="#E63230"/>
	<path d="M71.4209 9.86399H73.8518V20.8058H71.4209V16.2984H67.2073V20.7894H64.7764V9.84766H67.2073V14.0937H71.4209V9.86399Z" fill="white"/>
	<path d="M82.572 17.4735H77.3374C77.5481 18.584 78.2612 19.074 79.5901 19.074C80.4652 19.074 81.3404 18.8617 82.1183 18.4534V20.3805C81.2917 20.7887 80.3842 21.001 79.4604 20.9847C76.7702 20.9847 75.1172 19.4006 75.1172 16.8203C75.1172 14.289 76.6892 12.5742 78.9743 12.5742C81.1459 12.5742 82.572 14.191 82.572 16.6733V17.4735ZM77.3374 15.9221H80.4976C80.4004 14.9096 79.9142 14.387 78.9905 14.387C78.0829 14.387 77.5157 14.9096 77.3374 15.9221Z" fill="white"/>
	<path d="M83.5459 16.771C83.5459 14.2723 85.2313 12.5576 87.6785 12.5576C88.424 12.5413 89.1694 12.7372 89.8177 13.1128V15.3665C89.2667 14.8929 88.5698 14.6316 87.8405 14.6316C86.544 14.6316 85.831 15.3992 85.831 16.771C85.831 18.1428 86.5602 18.894 87.8405 18.894C88.5698 18.894 89.2667 18.6327 89.8177 18.1591V20.4291C89.1694 20.8047 88.424 21.0007 87.6785 20.9844C85.2151 20.9844 83.5459 19.286 83.5459 16.771Z" fill="white"/>
	<path d="M99.2452 20.8058H96.4253L93.7675 17.262V20.8058H91.4824V12.7546H93.7675V16.0208L96.4253 12.7383H99.1804L95.9715 16.5434L99.2452 20.8058Z" fill="white"/>
	<path d="M105.585 12.7702H107.902L103.835 20.7888H101.517L102.862 18.0778L99.6211 12.7539H102.068L103.948 15.9058L105.585 12.7702Z" fill="white"/>
	<path d="M112.924 12.7539H115.209V20.8051H112.924V18.1105C112.438 18.2411 111.935 18.3065 111.417 18.3065C109.407 18.3065 108.289 17.2613 108.289 15.3342V12.7539H110.574V15.0729C110.574 15.8895 110.963 16.2487 111.822 16.2487C112.195 16.2487 112.568 16.1834 112.908 16.0691V12.7539H112.924Z" fill="white"/>
	<path d="M121.838 12.7539H124.14V20.8051H121.855V17.6859H119.359V20.8051H117.058V12.7539H119.343V15.7262H121.822L121.838 12.7539Z" fill="white"/>
	<path d="M129.989 15.2199C131.74 15.2199 132.89 16.3141 132.89 18.0125C132.89 19.7109 131.723 20.7888 129.989 20.7888H125.986V12.7539H128.223V15.2362H129.989V15.2199ZM129.535 19.0903C130.297 19.0903 130.686 18.7311 130.686 18.0125C130.686 17.2939 130.313 16.9346 129.535 16.9346H128.223V19.0903H129.535ZM133.879 12.7539H136.164V20.8051H133.879V12.7539Z" fill="white"/>
	<path d="M145 17.4735H139.766C139.976 18.584 140.69 19.074 142.018 19.074C142.894 19.074 143.769 18.8617 144.547 18.4534V20.3805C143.72 20.7887 142.813 21.001 141.889 20.9847C139.182 20.9847 137.529 19.4006 137.529 16.8203C137.529 14.289 139.101 12.5742 141.386 12.5742C143.558 12.5742 144.984 14.191 144.984 16.6733V17.4735H145ZM139.766 15.9221H142.926C142.813 14.9096 142.326 14.387 141.419 14.387C140.511 14.387 139.928 14.9096 139.766 15.9221Z" fill="white"/>
	<path d="M70.7084 35.8637V39.2279H68.4233V35.8637C65.7655 35.782 64.0801 34.1653 64.0801 31.6666C64.0801 29.168 65.7817 27.5185 68.4233 27.4532V24.334H70.7084V27.4532C73.3662 27.5349 75.0679 29.168 75.0679 31.6666C75.0679 34.1653 73.3824 35.782 70.7084 35.8637ZM68.5044 33.904V29.4293C67.0458 29.4619 66.3003 30.2295 66.3003 31.6829C66.3003 33.1201 67.0458 33.8713 68.5044 33.904ZM70.6274 33.904C72.0859 33.8713 72.8638 33.1037 72.8638 31.6666C72.8638 30.2295 72.1021 29.4456 70.6274 29.4129V33.904Z" fill="white"/>
	<path d="M78.6974 32.4512L81.4362 27.6172H83.7375V35.6684H81.5011V30.7201L78.6974 35.6684H76.4609V27.6172H78.6974V32.4512Z" fill="white"/>
	<path d="M90.3633 27.6328H92.6483V35.684H90.3633V32.5648H87.8837V35.684H85.5986V27.6328H87.8837V30.6051H90.3633V27.6328Z" fill="white"/>
	<path d="M100.823 30.6216V35.6842H98.749V34.7043C98.5384 35.0799 98.2304 35.3739 97.8577 35.5862C97.485 35.7985 97.0636 35.8965 96.6422 35.8638C95.1837 35.8638 94.1465 34.9003 94.1465 33.5612C94.1465 32.4017 94.9244 31.5524 96.3505 31.2748L98.5546 30.8665C98.5222 30.001 97.8739 29.5111 96.8205 29.5111C95.9778 29.5274 95.1513 29.7887 94.4544 30.2949V28.1882C95.2647 27.682 96.2209 27.437 97.177 27.4697C99.4459 27.4534 100.823 28.6292 100.823 30.6216ZM98.5546 33.5612V32.3853L97.1608 32.6466C96.6098 32.7446 96.3505 33.0059 96.3505 33.4468C96.3505 33.9204 96.6909 34.1817 97.2743 34.1817C97.5174 34.1981 97.7605 34.1327 97.9873 34.0348C98.2142 33.9204 98.4087 33.7571 98.5546 33.5612Z" fill="white"/>
	<path d="M107.319 27.6328H109.604V35.684H107.319V32.5648H104.84V35.684H102.555V27.6328H104.84V30.6051H107.319V27.6328Z" fill="white"/>
	<path d="M110.98 31.6655C110.98 29.1669 112.666 27.4521 115.113 27.4521C115.859 27.4358 116.604 27.6318 117.252 28.0074V30.2611C116.701 29.7875 116.004 29.5262 115.275 29.5262C113.979 29.5262 113.266 30.2937 113.266 31.6655C113.266 33.0373 113.995 33.7886 115.275 33.7886C116.004 33.7886 116.701 33.5273 117.252 33.0537V35.3073C116.604 35.683 115.859 35.8789 115.113 35.8626C112.65 35.8626 110.98 34.1642 110.98 31.6655Z" fill="white"/>
	<path d="M122.911 30.0988C124.661 30.0988 125.812 31.193 125.812 32.8914C125.812 34.5898 124.661 35.684 122.911 35.684H118.908V27.6328H121.145V30.1151H122.911V30.0988ZM122.457 33.9693C123.219 33.9693 123.608 33.61 123.608 32.8914C123.608 32.1728 123.235 31.8136 122.457 31.8136H121.145V33.9693H122.457ZM126.801 27.6328H129.086V35.7003H126.801V27.6328Z" fill="white"/>
</svg>
