<svg width="145" height="49" viewBox="0 0 145 49" fill="none" xmlns="http://www.w3.org/2000/svg">
<path d="M0 24.5C0 15.8959 0 11.5773 1.62062 8.32169C3.06297 5.44814 5.33184 3.12271 8.15172 1.66102C11.3443 0 15.5255 0 23.8717 0H26.0596C34.422 0 38.5869 0 41.7796 1.66102C44.5832 3.12271 46.8683 5.44814 48.2945 8.32169C49.9151 11.5773 49.9151 15.8959 49.9151 24.5C49.9151 33.1041 49.9151 37.4227 48.2945 40.6783C46.8683 43.5519 44.5832 45.8773 41.7796 47.339C38.5869 49 34.4057 49 26.0596 49H23.8717C15.5093 49 11.3443 49 8.15172 47.339C5.34804 45.8773 3.06297 43.5519 1.63683 40.6783C0 37.4227 0 33.1041 0 24.5Z" fill="#E63230"/>
<path d="M19.6588 19.1346C19.6588 18.8356 19.8857 18.603 20.145 18.603H22.4463C22.7218 18.603 22.9325 18.8356 22.9325 19.1346V29.8647C22.9325 30.1637 22.7056 30.3962 22.4463 30.3962H20.145C19.8695 30.3962 19.6588 30.1637 19.6588 29.8647V26.3434C19.6588 26.0444 19.432 25.8118 19.1727 25.8118H14.2946C14.0191 25.8118 13.8084 26.0444 13.8084 26.3434V29.8647C13.8084 30.1637 13.5815 30.3962 13.3222 30.3962H11.0047C10.7292 30.3962 10.5186 30.1637 10.5186 29.8647V19.1346C10.5186 18.8356 10.7454 18.603 11.0047 18.603H13.306C13.5815 18.603 13.7922 18.8356 13.7922 19.1346V22.2573C13.7922 22.5562 14.0191 22.7888 14.2784 22.7888H19.1565C19.432 22.7888 19.6426 22.5562 19.6426 22.2573V19.1346H19.6588Z" fill="white"/>
<path d="M39.5534 24.5004C39.5534 25.2479 39.4237 25.9289 39.1806 26.5767C38.9213 27.2079 38.5486 27.756 38.03 28.2211C37.5114 28.6862 36.8632 29.0682 36.0691 29.3506C35.4046 29.5831 34.6429 29.716 33.784 29.7658C33.5247 29.7824 33.2978 30.015 33.2978 30.314V30.397C33.2978 30.696 33.0709 30.9285 32.8116 30.9285H30.5103C30.2348 30.9285 30.0241 30.696 30.0241 30.397V30.314C30.0241 30.015 29.8135 29.7824 29.538 29.7658C28.6628 29.716 27.9011 29.5831 27.2367 29.3506C26.4588 29.0682 25.8105 28.6862 25.2919 28.2211C24.7733 27.756 24.3844 27.1912 24.1413 26.5767C23.8982 25.9289 23.7686 25.2479 23.7686 24.5004C23.7686 23.7529 23.8982 23.0719 24.1413 22.4241C24.4006 21.7763 24.7733 21.2282 25.2919 20.7631C25.8105 20.298 26.4588 19.916 27.2367 19.6502C27.9011 19.4177 28.679 19.2682 29.538 19.235C29.8135 19.2184 30.0241 18.9858 30.0241 18.6868V18.6038C30.0241 18.3048 30.251 18.0723 30.5103 18.0723H32.8116C33.0871 18.0723 33.2978 18.3048 33.2978 18.6038V18.6868C33.2978 18.9858 33.5085 19.2184 33.784 19.235C34.6429 19.2848 35.4046 19.4177 36.0691 19.6502C36.8632 19.916 37.5114 20.298 38.03 20.7631C38.5486 21.2282 38.9375 21.7929 39.1806 22.4241C39.4237 23.0719 39.5534 23.7529 39.5534 24.5004ZM26.9612 24.5004C26.9612 24.8492 27.026 25.1814 27.1394 25.497C27.2691 25.796 27.4636 26.0618 27.7229 26.2943C27.9822 26.5102 28.3225 26.6763 28.7114 26.8092C29.1166 26.9255 29.5866 26.9919 30.1376 26.9919C30.1538 26.9919 30.17 26.9753 30.17 26.9587V22.0421C30.17 22.0255 30.1538 22.0089 30.1376 22.0089C29.5866 22.0089 29.1166 22.0753 28.7114 22.2082C28.3225 22.3245 27.9822 22.5072 27.7229 22.7231C27.4636 22.939 27.2691 23.1882 27.1394 23.5038C27.026 23.8028 26.9612 24.135 26.9612 24.5004ZM33.1195 26.9919C33.6705 26.9919 34.1405 26.9255 34.5457 26.8092C34.9508 26.6763 35.275 26.4936 35.5342 26.2943C35.7935 26.0618 35.988 25.8126 36.1177 25.497C36.2473 25.1814 36.3121 24.8492 36.3121 24.5004C36.3121 24.135 36.2473 23.8028 36.1177 23.5038C35.988 23.2048 35.8098 22.939 35.5342 22.7231C35.275 22.4906 34.9508 22.3245 34.5457 22.2082C34.1405 22.0753 33.6705 22.0089 33.1195 22.0089C33.1033 22.0089 33.0871 22.0255 33.0871 22.0421V26.9587C33.0871 26.9753 33.1033 26.9919 33.1195 26.9919Z" fill="white"/>
<path d="M71.4209 10.0327H73.8518V21.1615H71.4209V16.5771H67.2073V21.1449H64.7764V10.0161H67.2073V14.3348H71.4209V10.0327Z" fill="#1D1814"/>
<path d="M82.572 17.7726H77.3374C77.5481 18.9021 78.2612 19.4004 79.5901 19.4004C80.4652 19.4004 81.3404 19.1845 82.1183 18.7692V20.7292C81.2917 21.1445 80.3842 21.3604 79.4604 21.3438C76.7702 21.3438 75.1172 19.7326 75.1172 17.1082C75.1172 14.5336 76.6892 12.7896 78.9743 12.7896C81.1459 12.7896 82.572 14.434 82.572 16.9587V17.7726ZM77.3374 16.1946H80.4976C80.4004 15.1648 79.9142 14.6333 78.9905 14.6333C78.0829 14.6333 77.5157 15.1648 77.3374 16.1946Z" fill="#1D1814"/>
<path d="M83.5459 17.0588C83.5459 14.5175 85.2313 12.7734 87.6785 12.7734C88.424 12.7568 89.1694 12.9561 89.8177 13.3382V15.6304C89.2667 15.1487 88.5698 14.8829 87.8405 14.8829C86.544 14.8829 85.831 15.6636 85.831 17.0588C85.831 18.4541 86.5602 19.2182 87.8405 19.2182C88.5698 19.2182 89.2667 18.9524 89.8177 18.4707V20.7795C89.1694 21.1616 88.424 21.3609 87.6785 21.3443C85.2151 21.3443 83.5459 19.6168 83.5459 17.0588Z" fill="#1D1814"/>
<path d="M99.2452 21.162H96.4253L93.7675 17.5576V21.162H91.4824V12.9732H93.7675V16.2952L96.4253 12.9565H99.1804L95.9715 16.8267L99.2452 21.162Z" fill="#1D1814"/>
<path d="M105.585 12.9888H107.902L103.835 21.1444H101.517L102.862 18.3871L99.6211 12.9722H102.068L103.948 16.1779L105.585 12.9888Z" fill="#1D1814"/>
<path d="M112.924 12.9722H115.209V21.161H112.924V18.4203C112.438 18.5532 111.935 18.6196 111.417 18.6196C109.407 18.6196 108.289 17.5566 108.289 15.5966V12.9722H110.574V15.3308C110.574 16.1613 110.963 16.5267 111.822 16.5267C112.195 16.5267 112.568 16.4603 112.908 16.344V12.9722H112.924Z" fill="#1D1814"/>
<path d="M121.838 12.9722H124.14V21.161H121.855V17.9884H119.359V21.161H117.058V12.9722H119.343V15.9952H121.822L121.838 12.9722Z" fill="#1D1814"/>
<path d="M129.989 15.4803C131.74 15.4803 132.89 16.5932 132.89 18.3206C132.89 20.0481 131.723 21.1444 129.989 21.1444H125.986V12.9722H128.223V15.4969H129.989V15.4803ZM129.535 19.4169C130.297 19.4169 130.686 19.0515 130.686 18.3206C130.686 17.5898 130.313 17.2244 129.535 17.2244H128.223V19.4169H129.535ZM133.879 12.9722H136.164V21.161H133.879V12.9722Z" fill="#1D1814"/>
<path d="M145 17.7726H139.766C139.976 18.9021 140.69 19.4004 142.018 19.4004C142.894 19.4004 143.769 19.1845 144.547 18.7692V20.7292C143.72 21.1445 142.813 21.3604 141.889 21.3438C139.182 21.3438 137.529 19.7326 137.529 17.1082C137.529 14.5336 139.101 12.7896 141.386 12.7896C143.558 12.7896 144.984 14.434 144.984 16.9587V17.7726H145ZM139.766 16.1946H142.926C142.813 15.1648 142.326 14.6333 141.419 14.6333C140.511 14.6333 139.928 15.1648 139.766 16.1946Z" fill="#1D1814"/>
<path d="M70.7084 36.4763V39.898H68.4233V36.4763C65.7655 36.3932 64.0801 34.7488 64.0801 32.2075C64.0801 29.6661 65.7817 27.9885 68.4233 27.9221V24.7495H70.7084V27.9221C73.3662 28.0051 75.0679 29.6661 75.0679 32.2075C75.0679 34.7488 73.3824 36.3932 70.7084 36.4763ZM68.5044 34.4831V29.9319C67.0458 29.9651 66.3003 30.7458 66.3003 32.2241C66.3003 33.6858 67.0458 34.4499 68.5044 34.4831ZM70.6274 34.4831C72.0859 34.4499 72.8638 33.6692 72.8638 32.2075C72.8638 30.7458 72.1021 29.9485 70.6274 29.9153V34.4831Z" fill="#1D1814"/>
<path d="M78.6974 33.005L81.4362 28.0884H83.7375V36.2772H81.5011V31.2443L78.6974 36.2772H76.4609V28.0884H78.6974V33.005Z" fill="#1D1814"/>
<path d="M90.3633 28.104H92.6483V36.2928H90.3633V33.1203H87.8837V36.2928H85.5986V28.104H87.8837V31.1271H90.3633V28.104Z" fill="#1D1814"/>
<path d="M100.823 31.1442V36.2934H98.749V35.2968C98.5384 35.6788 98.2304 35.9778 97.8577 36.1937C97.485 36.4097 97.0636 36.5093 96.6422 36.4761C95.1837 36.4761 94.1465 35.4961 94.1465 34.1341C94.1465 32.9548 94.9244 32.091 96.3505 31.8087L98.5546 31.3934C98.5222 30.5131 97.8739 30.0148 96.8205 30.0148C95.9778 30.0314 95.1513 30.2971 94.4544 30.812V28.6693C95.2647 28.1544 96.2209 27.9053 97.177 27.9385C99.4459 27.9219 100.823 29.1178 100.823 31.1442ZM98.5546 34.1341V32.9381L97.1608 33.2039C96.6098 33.3036 96.3505 33.5693 96.3505 34.0178C96.3505 34.4995 96.6909 34.7653 97.2743 34.7653C97.5174 34.7819 97.7605 34.7154 97.9873 34.6158C98.2142 34.4995 98.4087 34.3334 98.5546 34.1341Z" fill="#1D1814"/>
<path d="M107.319 28.104H109.604V36.2928H107.319V33.1203H104.84V36.2928H102.555V28.104H104.84V31.1271H107.319V28.104Z" fill="#1D1814"/>
<path d="M110.98 32.2073C110.98 29.6659 112.666 27.9219 115.113 27.9219C115.859 27.9052 116.604 28.1046 117.252 28.4866V30.7788C116.701 30.2971 116.004 30.0314 115.275 30.0314C113.979 30.0314 113.266 30.812 113.266 32.2073C113.266 33.6025 113.995 34.3666 115.275 34.3666C116.004 34.3666 116.701 34.1008 117.252 33.6191V35.9114C116.604 36.2934 115.859 36.4927 115.113 36.4761C112.65 36.4761 110.98 34.7486 110.98 32.2073Z" fill="#1D1814"/>
<path d="M122.911 30.6121C124.661 30.6121 125.812 31.725 125.812 33.4525C125.812 35.1799 124.661 36.2928 122.911 36.2928H118.908V28.104H121.145V30.6288H122.911V30.6121ZM122.457 34.5488C123.219 34.5488 123.608 34.1833 123.608 33.4525C123.608 32.7216 123.235 32.3562 122.457 32.3562H121.145V34.5488H122.457ZM126.801 28.104H129.086V36.3094H126.801V28.104Z" fill="#1D1814"/>
</svg>
