<svg width="287" height="49" viewBox="0 0 287 49" fill="none" xmlns="http://www.w3.org/2000/svg">
<path d="M0 24.0883C0 15.6288 0 11.3827 1.62062 8.18184C3.06297 5.35658 5.33184 3.07023 8.15171 1.6331C11.3443 0 15.5255 0 23.8717 0H26.0596C34.422 0 38.5869 0 41.7796 1.6331C44.5832 3.07023 46.8683 5.35658 48.2945 8.18184C49.9151 11.3827 49.9151 15.6288 49.9151 24.0883C49.9151 32.5477 49.9151 36.7938 48.2945 39.9947C46.8683 42.82 44.5832 45.1063 41.7796 46.5434C38.5869 48.1765 34.4057 48.1765 26.0596 48.1765H23.8717C15.5093 48.1765 11.3443 48.1765 8.15171 46.5434C5.34804 45.1063 3.06297 42.82 1.63683 39.9947C0 36.7938 0 32.5477 0 24.0883Z" fill="#E63230"/>
<path d="M19.6598 18.8136C19.6598 18.5196 19.8867 18.291 20.146 18.291H22.4473C22.7228 18.291 22.9335 18.5196 22.9335 18.8136V29.3635C22.9335 29.6574 22.7066 29.886 22.4473 29.886H20.146C19.8705 29.886 19.6598 29.6574 19.6598 29.3635V25.9013C19.6598 25.6073 19.4329 25.3787 19.1736 25.3787H14.2956C14.0201 25.3787 13.8094 25.6073 13.8094 25.9013V29.3635C13.8094 29.6574 13.5825 29.886 13.3232 29.886H11.0057C10.7302 29.886 10.5195 29.6574 10.5195 29.3635V18.8136C10.5195 18.5196 10.7464 18.291 11.0057 18.291H13.307C13.5825 18.291 13.7932 18.5196 13.7932 18.8136V21.8838C13.7932 22.1778 14.0201 22.4064 14.2794 22.4064H19.1574C19.4329 22.4064 19.6436 22.1778 19.6436 21.8838V18.8136H19.6598Z" fill="white"/>
<path d="M39.5544 24.0877C39.5544 24.8226 39.4247 25.4922 39.1816 26.1291C38.9223 26.7496 38.5496 27.2886 38.031 27.7458C37.5124 28.2031 36.8641 28.5787 36.07 28.8563C35.4056 29.085 34.6439 29.2156 33.785 29.2646C33.5257 29.281 33.2988 29.5096 33.2988 29.8035V29.8852C33.2988 30.1792 33.0719 30.4078 32.8126 30.4078H30.5113C30.2358 30.4078 30.0251 30.1792 30.0251 29.8852V29.8035C30.0251 29.5096 29.8144 29.281 29.5389 29.2646C28.6638 29.2156 27.9021 29.085 27.2377 28.8563C26.4598 28.5787 25.8115 28.2031 25.2929 27.7458C24.7743 27.2886 24.3854 26.7333 24.1423 26.1291C23.8992 25.4922 23.7695 24.8226 23.7695 24.0877C23.7695 23.3528 23.8992 22.6832 24.1423 22.0463C24.4016 21.4094 24.7743 20.8705 25.2929 20.4132C25.8115 19.9559 26.4598 19.5803 27.2377 19.319C27.9021 19.0904 28.68 18.9434 29.5389 18.9108C29.8144 18.8944 30.0251 18.6658 30.0251 18.3718V18.2902C30.0251 17.9962 30.252 17.7676 30.5113 17.7676H32.8126C33.0881 17.7676 33.2988 17.9962 33.2988 18.2902V18.3718C33.2988 18.6658 33.5095 18.8944 33.785 18.9108C34.6439 18.9597 35.4056 19.0904 36.07 19.319C36.8641 19.5803 37.5124 19.9559 38.031 20.4132C38.5496 20.8705 38.9385 21.4257 39.1816 22.0463C39.4247 22.6832 39.5544 23.3528 39.5544 24.0877ZM26.9622 24.0877C26.9622 24.4306 27.027 24.7573 27.1404 25.0675C27.2701 25.3615 27.4645 25.6228 27.7238 25.8514C27.9831 26.0637 28.3235 26.227 28.7124 26.3577C29.1176 26.472 29.5876 26.5373 30.1386 26.5373C30.1548 26.5373 30.171 26.521 30.171 26.5047V21.6707C30.171 21.6544 30.1548 21.638 30.1386 21.638C29.5876 21.638 29.1176 21.7034 28.7124 21.834C28.3235 21.9483 27.9831 22.128 27.7238 22.3403C27.4645 22.5526 27.2701 22.7975 27.1404 23.1078C27.027 23.4018 26.9622 23.7284 26.9622 24.0877ZM33.1205 26.5373C33.6715 26.5373 34.1415 26.472 34.5466 26.3577C34.9518 26.227 35.2759 26.0474 35.5352 25.8514C35.7945 25.6228 35.989 25.3778 36.1186 25.0675C36.2483 24.7573 36.3131 24.4306 36.3131 24.0877C36.3131 23.7284 36.2483 23.4018 36.1186 23.1078C35.989 22.8139 35.8107 22.5526 35.5352 22.3403C35.2759 22.1116 34.9518 21.9483 34.5466 21.834C34.1415 21.7034 33.6715 21.638 33.1205 21.638C33.1043 21.638 33.0881 21.6544 33.0881 21.6707V26.5047C33.0881 26.521 33.1043 26.5373 33.1205 26.5373Z" fill="white"/>
<path d="M71.4219 9.86399H73.8528V20.8058H71.4219V16.2984H67.2083V20.7894H64.7773V9.84766H67.2083V14.0937H71.4219V9.86399Z" fill="black"/>
<path d="M82.572 17.4735H77.3374C77.5481 18.584 78.2612 19.074 79.5901 19.074C80.4652 19.074 81.3404 18.8617 82.1183 18.4534V20.3805C81.2917 20.7887 80.3842 21.001 79.4604 20.9847C76.7702 20.9847 75.1172 19.4006 75.1172 16.8203C75.1172 14.289 76.6892 12.5742 78.9743 12.5742C81.1459 12.5742 82.572 14.191 82.572 16.6733V17.4735ZM77.3374 15.9221H80.4976C80.4004 14.9096 79.9142 14.387 78.9905 14.387C78.0829 14.387 77.5157 14.9096 77.3374 15.9221Z" fill="black"/>
<path d="M83.5469 16.771C83.5469 14.2723 85.2323 12.5576 87.6794 12.5576C88.4249 12.5413 89.1704 12.7372 89.8187 13.1128V15.3665C89.2677 14.8929 88.5708 14.6316 87.8415 14.6316C86.545 14.6316 85.8319 15.3992 85.8319 16.771C85.8319 18.1428 86.5612 18.894 87.8415 18.894C88.5708 18.894 89.2677 18.6327 89.8187 18.1591V20.4291C89.1704 20.8047 88.4249 21.0007 87.6794 20.9844C85.2161 20.9844 83.5469 19.286 83.5469 16.771Z" fill="black"/>
<path d="M99.2472 20.8058H96.4273L93.7694 17.262V20.8058H91.4844V12.7546H93.7694V16.0208L96.4273 12.7383H99.1823L95.9735 16.5434L99.2472 20.8058Z" fill="black"/>
<path d="M105.589 12.7702H107.906L103.839 20.7888H101.521L102.866 18.0778L99.625 12.7539H102.072L103.952 15.9058L105.589 12.7702Z" fill="black"/>
<path d="M112.924 12.7539H115.209V20.8051H112.924V18.1105C112.438 18.2411 111.935 18.3065 111.417 18.3065C109.407 18.3065 108.289 17.2613 108.289 15.3342V12.7539H110.574V15.0729C110.574 15.8895 110.963 16.2487 111.822 16.2487C112.195 16.2487 112.568 16.1834 112.908 16.0691V12.7539H112.924Z" fill="black"/>
<path d="M121.839 12.7539H124.141V20.8051H121.856V17.6859H119.36V20.8051H117.059V12.7539H119.344V15.7262H121.823L121.839 12.7539Z" fill="black"/>
<path d="M129.991 15.2199C131.741 15.2199 132.892 16.3141 132.892 18.0125C132.892 19.7109 131.725 20.7888 129.991 20.7888H125.988V12.7539H128.225V15.2362H129.991V15.2199ZM129.537 19.0903C130.299 19.0903 130.688 18.7311 130.688 18.0125C130.688 17.2939 130.315 16.9346 129.537 16.9346H128.225V19.0903H129.537V19.0903ZM133.881 12.7539H136.166V20.8051H133.881V12.7539Z" fill="black"/>
<path d="M145.002 17.4735H139.768C139.978 18.584 140.691 19.074 142.02 19.074C142.896 19.074 143.771 18.8617 144.549 18.4534V20.3805C143.722 20.7887 142.814 21.001 141.891 20.9847C139.184 20.9847 137.531 19.4006 137.531 16.8203C137.531 14.289 139.103 12.5742 141.388 12.5742C143.56 12.5742 144.986 14.191 144.986 16.6733V17.4735H145.002ZM139.768 15.9221H142.928C142.814 14.9096 142.328 14.387 141.421 14.387C140.513 14.387 139.93 14.9096 139.768 15.9221Z" fill="black"/>
<path d="M70.7104 35.8637V39.2279H68.4253V35.8637C65.7675 35.782 64.082 34.1653 64.082 31.6666C64.082 29.168 65.7837 27.5185 68.4253 27.4532V24.334H70.7104V27.4532C73.3682 27.5349 75.0698 29.168 75.0698 31.6666C75.0698 34.1653 73.3844 35.782 70.7104 35.8637ZM68.5063 33.904V29.4293C67.0478 29.4619 66.3023 30.2295 66.3023 31.6829C66.3023 33.1201 67.0478 33.8713 68.5063 33.904ZM70.6293 33.904C72.0879 33.8713 72.8658 33.1037 72.8658 31.6666C72.8658 30.2295 72.1041 29.4456 70.6293 29.4129V33.904Z" fill="black"/>
<path d="M78.6974 32.4512L81.4362 27.6172H83.7375V35.6684H81.5011V30.7201L78.6974 35.6684H76.4609V27.6172H78.6974V32.4512Z" fill="black"/>
<path d="M90.3662 27.6328H92.6513V35.684H90.3662V32.5648H87.8866V35.684H85.6016V27.6328H87.8866V30.6051H90.3662V27.6328Z" fill="black"/>
<path d="M100.825 30.6216V35.6842H98.751V34.7043C98.5403 35.0799 98.2324 35.3739 97.8597 35.5862C97.4869 35.7985 97.0655 35.8965 96.6442 35.8638C95.1856 35.8638 94.1484 34.9003 94.1484 33.5612C94.1484 32.4017 94.9263 31.5524 96.3525 31.2748L98.5565 30.8665C98.5241 30.001 97.8759 29.5111 96.8225 29.5111C95.9797 29.5274 95.1532 29.7887 94.4563 30.2949V28.1882C95.2667 27.682 96.2228 27.437 97.179 27.4697C99.4479 27.4534 100.825 28.6292 100.825 30.6216ZM98.5565 33.5612V32.3853L97.1628 32.6466C96.6118 32.7446 96.3525 33.0059 96.3525 33.4468C96.3525 33.9204 96.6928 34.1817 97.2762 34.1817C97.5193 34.1981 97.7624 34.1327 97.9893 34.0348C98.2162 33.9204 98.4107 33.7571 98.5565 33.5612Z" fill="black"/>
<path d="M107.319 27.6328H109.604V35.684H107.319V32.5648H104.84V35.684H102.555V27.6328H104.84V30.6051H107.319V27.6328Z" fill="black"/>
<path d="M110.984 31.6655C110.984 29.1669 112.67 27.4521 115.117 27.4521C115.862 27.4358 116.608 27.6318 117.256 28.0074V30.2611C116.705 29.7875 116.008 29.5262 115.279 29.5262C113.983 29.5262 113.269 30.2937 113.269 31.6655C113.269 33.0373 113.999 33.7886 115.279 33.7886C116.008 33.7886 116.705 33.5273 117.256 33.0537V35.3073C116.608 35.683 115.862 35.8789 115.117 35.8626C112.654 35.8626 110.984 34.1642 110.984 31.6655Z" fill="black"/>
<path d="M122.913 30.0988C124.663 30.0988 125.814 31.193 125.814 32.8914C125.814 34.5898 124.663 35.684 122.913 35.684H118.91V27.6328H121.147V30.1151H122.913V30.0988ZM122.459 33.9693C123.221 33.9693 123.61 33.61 123.61 32.8914C123.61 32.1728 123.237 31.8136 122.459 31.8136H121.147V33.9693H122.459ZM126.803 27.6328H129.088V35.7003H126.803V27.6328Z" fill="black"/>
<line x1="161.5" y1="9" x2="161.5" y2="39" stroke="#A8A8A8"/>
<path d="M179.304 20H178.272V11.408H184.656V20H183.612V12.38H179.304V20ZM189.615 13.736C191.271 13.736 192.447 15.056 192.447 16.94C192.447 18.8 191.283 20.132 189.615 20.132C188.799 20.132 188.175 19.796 187.767 19.136V22.784H186.783V13.856H187.707V14.876C188.115 14.108 188.739 13.736 189.615 13.736ZM189.555 19.196C190.707 19.196 191.439 18.32 191.439 16.94C191.439 15.56 190.707 14.672 189.567 14.672C188.763 14.672 188.127 15.08 187.767 15.836V18.008C188.115 18.764 188.751 19.196 189.555 19.196ZM196.448 20.132C194.72 20.132 193.52 18.824 193.52 16.94C193.52 15.032 194.72 13.736 196.448 13.736C198.188 13.736 199.388 15.032 199.388 16.94C199.388 18.824 198.176 20.132 196.448 20.132ZM196.448 19.184C197.636 19.184 198.38 18.308 198.38 16.94C198.38 15.548 197.636 14.672 196.448 14.672C195.284 14.672 194.528 15.548 194.528 16.94C194.528 18.308 195.284 19.184 196.448 19.184ZM204.739 16.88C205.447 17.084 205.855 17.6 205.855 18.308C205.855 19.316 205.087 20 203.971 20H200.899V13.856H203.803C204.967 13.856 205.699 14.504 205.699 15.5C205.699 16.16 205.363 16.64 204.739 16.88ZM203.659 14.696H201.895V16.496H203.659C204.319 16.496 204.703 16.172 204.703 15.596C204.703 15.02 204.331 14.696 203.659 14.696ZM201.895 19.16H203.815C204.487 19.16 204.859 18.836 204.859 18.224C204.859 17.636 204.511 17.336 203.815 17.336H201.895V19.16ZM209.884 20.132C208.156 20.132 206.956 18.824 206.956 16.94C206.956 15.032 208.156 13.736 209.884 13.736C211.624 13.736 212.824 15.032 212.824 16.94C212.824 18.824 211.612 20.132 209.884 20.132ZM209.884 19.184C211.072 19.184 211.816 18.308 211.816 16.94C211.816 15.548 211.072 14.672 209.884 14.672C208.72 14.672 207.964 15.548 207.964 16.94C207.964 18.308 208.72 19.184 209.884 19.184ZM219.34 13.856V19.112H220.276V21.704H219.328V20H214.468V21.704H213.52V19.112H214.144C214.564 18.512 214.804 17.54 214.852 16.292L214.948 13.856H219.34ZM215.872 14.744L215.824 16.4C215.788 17.564 215.56 18.488 215.176 19.112H218.344V14.744H215.872ZM222.593 16.448H225.521V13.856H226.517V20H225.521V17.336H222.593V20H221.597V13.856H222.593V16.448ZM228.473 20V13.856H229.469V18.488L232.517 13.856H233.513V20H232.517V15.368L229.481 20H228.473ZM238.107 16.94L240.531 20H239.307L237.243 17.372H236.451V20H235.455V13.856H236.451V16.472H237.267L239.307 13.856H240.519L238.107 16.94ZM248.711 16.88C249.419 17.084 249.827 17.6 249.827 18.308C249.827 19.316 249.059 20 247.943 20H244.871V13.856H247.775C248.939 13.856 249.671 14.504 249.671 15.5C249.671 16.16 249.335 16.64 248.711 16.88ZM247.631 14.696H245.867V16.496H247.631C248.291 16.496 248.675 16.172 248.675 15.596C248.675 15.02 248.303 14.696 247.631 14.696ZM245.867 19.16H247.787C248.459 19.16 248.831 18.836 248.831 18.224C248.831 17.636 248.483 17.336 247.787 17.336H245.867V19.16ZM260.842 13.856L261.634 20H260.638L260.074 15.32L258.322 20.024H257.614L255.826 15.344L255.286 20H254.314L255.106 13.856H256.198L257.962 18.5L259.69 13.856H260.842ZM263.202 20V13.856H264.198V18.488L267.246 13.856H268.242V20H267.246V15.368L264.21 20H263.202ZM273.016 13.736C274.672 13.736 275.848 15.056 275.848 16.94C275.848 18.8 274.684 20.132 273.016 20.132C272.2 20.132 271.576 19.796 271.168 19.136V22.784H270.184V13.856H271.108V14.876C271.516 14.108 272.14 13.736 273.016 13.736ZM272.956 19.196C274.108 19.196 274.84 18.32 274.84 16.94C274.84 15.56 274.108 14.672 272.968 14.672C272.164 14.672 271.528 15.08 271.168 15.836V18.008C271.516 18.764 272.152 19.196 272.956 19.196ZM180.864 29.736C182.52 29.736 183.696 31.056 183.696 32.94C183.696 34.8 182.532 36.132 180.864 36.132C180.048 36.132 179.424 35.796 179.016 35.136V38.784H178.032V29.856H178.956V30.876C179.364 30.108 179.988 29.736 180.864 29.736ZM180.804 35.196C181.956 35.196 182.688 34.32 182.688 32.94C182.688 31.56 181.956 30.672 180.816 30.672C180.012 30.672 179.376 31.08 179.016 31.836V34.008C179.364 34.764 180 35.196 180.804 35.196ZM187.085 29.736C188.597 29.736 189.521 30.612 189.521 32.028V36H188.597V35.124C188.237 35.76 187.565 36.132 186.737 36.132C185.597 36.132 184.829 35.424 184.829 34.404C184.829 33.528 185.405 32.928 186.449 32.724L188.525 32.328V32.124C188.525 31.224 187.985 30.672 187.097 30.672C186.473 30.672 185.993 30.948 185.561 31.572L184.817 30.924C185.429 30.096 186.137 29.736 187.085 29.736ZM186.929 35.22C187.649 35.22 188.249 34.86 188.525 34.272V33.18L186.749 33.528C186.137 33.648 185.837 33.924 185.837 34.392C185.837 34.92 186.233 35.22 186.929 35.22ZM194.781 32.88C195.525 33.096 195.957 33.612 195.957 34.332C195.957 35.424 194.961 36.132 193.425 36.132C192.177 36.132 191.325 35.664 190.785 34.692L191.577 34.164C192.009 34.92 192.561 35.208 193.437 35.208C194.409 35.208 194.949 34.86 194.949 34.248C194.949 33.708 194.517 33.36 193.845 33.36H192.609V32.484H193.629C194.337 32.484 194.757 32.16 194.757 31.596C194.757 30.984 194.289 30.648 193.413 30.648C192.621 30.648 192.105 30.948 191.685 31.692L190.893 31.164C191.421 30.192 192.249 29.736 193.437 29.736C194.865 29.736 195.765 30.396 195.765 31.464C195.765 32.124 195.405 32.616 194.781 32.88ZM197.646 29.856L199.626 34.14L201.558 29.856H202.638L198.474 38.784H197.382L199.062 35.196L196.566 29.856H197.646ZM209.747 29.856L210.539 36H209.543L208.979 31.32L207.227 36.024H206.519L204.731 31.344L204.191 36H203.219L204.011 29.856H205.103L206.867 34.5L208.595 29.856H209.747ZM213.104 32.448H216.032V29.856H217.028V36H216.032V33.336H213.104V36H212.108V29.856H213.104V32.448ZM221.468 36.132C219.74 36.132 218.54 34.824 218.54 32.94C218.54 31.032 219.74 29.736 221.468 29.736C223.208 29.736 224.408 31.032 224.408 32.94C224.408 34.824 223.196 36.132 221.468 36.132ZM221.468 35.184C222.656 35.184 223.4 34.308 223.4 32.94C223.4 31.548 222.656 30.672 221.468 30.672C220.304 30.672 219.548 31.548 219.548 32.94C219.548 34.308 220.304 35.184 221.468 35.184ZM226.915 30.744V36H225.919V29.856H229.651V30.744H226.915ZM233.111 36.132C231.383 36.132 230.183 34.824 230.183 32.94C230.183 31.032 231.383 29.736 233.111 29.736C234.851 29.736 236.051 31.032 236.051 32.94C236.051 34.824 234.839 36.132 233.111 36.132ZM233.111 35.184C234.299 35.184 235.043 34.308 235.043 32.94C235.043 31.548 234.299 30.672 233.111 30.672C231.947 30.672 231.191 31.548 231.191 32.94C231.191 34.308 231.947 35.184 233.111 35.184ZM243.767 29.964C245.411 29.964 246.551 31.224 246.551 33.012C246.551 34.848 245.315 36.132 243.563 36.132C241.823 36.132 240.695 34.848 240.695 32.808V31.38C240.695 28.524 241.643 27.216 244.007 26.928C244.823 26.832 245.411 26.748 245.999 26.616L246.167 27.588C245.519 27.732 244.835 27.84 243.995 27.936C242.255 28.14 241.619 29.028 241.595 31.26C242.087 30.396 242.807 29.964 243.767 29.964ZM243.599 35.184C244.763 35.184 245.555 34.344 245.555 33.06C245.555 31.764 244.775 30.9 243.623 30.9C242.795 30.9 242.063 31.38 241.703 32.172V33.048C241.703 34.344 242.447 35.184 243.599 35.184ZM248.067 36V29.856H249.063V34.488L252.111 29.856H253.107V36H252.111V31.368L249.075 36H248.067ZM258.433 32.88C259.177 33.096 259.609 33.612 259.609 34.332C259.609 35.424 258.613 36.132 257.077 36.132C255.829 36.132 254.977 35.664 254.437 34.692L255.229 34.164C255.661 34.92 256.213 35.208 257.089 35.208C258.061 35.208 258.601 34.86 258.601 34.248C258.601 33.708 258.169 33.36 257.497 33.36H256.261V32.484H257.281C257.989 32.484 258.409 32.16 258.409 31.596C258.409 30.984 257.941 30.648 257.065 30.648C256.273 30.648 255.757 30.948 255.337 31.692L254.545 31.164C255.073 30.192 255.901 29.736 257.089 29.736C258.517 29.736 259.417 30.396 259.417 31.464C259.417 32.124 259.057 32.616 258.433 32.88ZM262.113 32.448H265.041V29.856H266.037V36H265.041V33.336H262.113V36H261.117V29.856H262.113V32.448ZM273.057 32.664C273.057 32.88 273.045 33.06 273.009 33.204H268.557C268.665 34.464 269.409 35.184 270.609 35.184C271.281 35.184 271.785 34.944 272.277 34.38L272.925 35.1C272.289 35.808 271.557 36.132 270.621 36.132C268.737 36.132 267.561 34.896 267.561 32.952C267.561 31.056 268.725 29.736 270.393 29.736C271.977 29.736 273.057 30.936 273.057 32.664ZM270.417 30.648C269.433 30.648 268.761 31.296 268.593 32.364H272.109C272.013 31.284 271.389 30.648 270.417 30.648ZM276.965 36.132C275.261 36.132 274.097 34.824 274.097 32.928C274.097 31.032 275.261 29.736 276.965 29.736C278.009 29.736 278.801 30.192 279.389 31.152L278.573 31.716C278.129 30.972 277.649 30.672 276.965 30.672C275.813 30.672 275.105 31.524 275.105 32.928C275.105 34.32 275.825 35.184 276.977 35.184C277.649 35.184 278.141 34.884 278.585 34.14L279.389 34.704C278.801 35.664 278.009 36.132 276.965 36.132ZM282.632 29.736C284.144 29.736 285.068 30.612 285.068 32.028V36H284.144V35.124C283.784 35.76 283.112 36.132 282.284 36.132C281.144 36.132 280.376 35.424 280.376 34.404C280.376 33.528 280.952 32.928 281.996 32.724L284.072 32.328V32.124C284.072 31.224 283.532 30.672 282.644 30.672C282.02 30.672 281.54 30.948 281.108 31.572L280.364 30.924C280.976 30.096 281.684 29.736 282.632 29.736ZM282.476 35.22C283.196 35.22 283.796 34.86 284.072 34.272V33.18L282.296 33.528C281.684 33.648 281.384 33.924 281.384 34.392C281.384 34.92 281.78 35.22 282.476 35.22Z" fill="#777472"/>
</svg>
