<svg xmlns="http://www.w3.org/2000/svg" viewBox="0 0 21 17" width="21" height="17">
    <path d="M2.63,3C1.31,3,0,2.29,0,1.59,0,.08,2.1.4,3.21.19h9.94c1.31,0,5.26-.71,7.23.7C22,2,20.16,2.76,19.06,3H2.63Z" fill="#5772F7" />
    <path d="M2.63,10C1.31,10,0,9.29,0,8.59,0,7.08,2.1,7.4,3.21,7.19h9.94c1.31,0,5.88-.26,7.23.7C22,9,20.16,9.76,19.06,10H2.63Z" fill="#5772F7" />
    <path d="M2.63,14C1.31,14,0,14.71,0,15.41c0,1.51,2.1,1.19,3.21,1.4h9.94c1.31,0,5.26.71,7.23-.7C22,15,20.16,14.24,19.06,14H2.63Z" fill="#5772F7" />
</svg>