<svg class="close-icon" version="1.1" xmlns="http://www.w3.org/2000/svg" xmlns:xlink="http://www.w3.org/1999/xlink" x="0px" y="0px" viewBox="0 0 26 26" width="26" height="26" xml:space="preserve">
<linearGradient id="closeGradient" gradientUnits="userSpaceOnUse" x1="0.1181" y1="829.6189" x2="26.1181" y2="829.6189" gradientTransform="matrix(1 0 0 1 0 -816.6189)">
	<stop  offset="0" style="stop-color:#FC5565"/>
	<stop  offset="1" style="stop-color:#F6771E"/>
</linearGradient>
<path fill-rule="evenodd" clip-rule="evenodd" fill="url(#closeGradient)" d="M0.6,0.6c-0.8,0.8,0,3.1,1.6,4.7L9.9,13c-2.4,2.4-5.2,5.2-7,7c-0.3,0.4-0.6,0.7-1,1.2c-1.2,1.4-2.6,2.9-1.3,4.2 c0.8,0.8,3.1,0,4.7-1.6l7.7-7.7l0.1,0.1l8.6,8.6c1.6,1,4.5,2.3,3.9-0.8s-4.2-6.2-6.5-8.2c-0.6-0.5-1.1-0.9-1.4-1.2s-0.9-0.9-1.7-1.7 l0.1-0.1l8.6-8.6c1-1.6,2.3-4.5-0.8-3.9s-6.2,4.2-8.2,6.5c-0.5,0.6-0.9,1.1-1.2,1.4c-0.3,0.3-0.9,0.9-1.7,1.7c-2.4-2.4-5.2-5.2-7-7 c-0.4-0.3-0.7-0.6-1.2-1C3.5,0.7,1.9-0.7,0.6,0.6z"/>
</svg>