<svg version="1.1" xmlns="http://www.w3.org/2000/svg" viewBox="0 0 26 26" width="26" height="26">
	<path d="M0.6,0.6c-0.8,0.8,0,3.1,1.6,4.7L9.9,13c-2.4,2.4-5.2,5.2-7,7c-0.3,0.4-0.6,0.7-1,1.2c-1.2,1.4-2.6,2.9-1.3,4.2 c0.8,0.8,3.1,0,4.7-1.6l7.7-7.7l0.1,0.1l8.6,8.6c1.6,1,4.5,2.3,3.9-0.8s-4.2-6.2-6.5-8.2c-0.6-0.5-1.1-0.9-1.4-1.2s-0.9-0.9-1.7-1.7 l0.1-0.1l8.6-8.6c1-1.6,2.3-4.5-0.8-3.9s-6.2,4.2-8.2,6.5c-0.5,0.6-0.9,1.1-1.2,1.4c-0.3,0.3-0.9,0.9-1.7,1.7c-2.4-2.4-5.2-5.2-7-7 c-0.4-0.3-0.7-0.6-1.2-1C3.5,0.7,1.9-0.7,0.6,0.6z"/>
</svg>