<svg class="part-day-icon" version="1.1" xmlns="http://www.w3.org/2000/svg" viewBox="0 0 64 64" width="64" height="64">
<path fill="#FFE600" d="M32,15c-9.4,0-17,7.6-17,17c0,9.4,7.6,17,17,17s17-7.6,17-17C49,22.6,41.4,15,32,15z"/>
<path fill="#FFE600" d="M32,11.6c1.2,0,2.2-1,2.2-2.2V2.2C34.3,1,33.2,0,32,0c-1.2,0-2.2,1-2.2,2.2v7.1C29.8,10.6,30.8,11.6,32,11.6z"/>
<path fill="#FFE600" d="M14.5,17.5c0.4,0.4,1,0.7,1.5,0.7c0.5,0,1.1-0.2,1.5-0.7c0.9-0.9,0.9-2.2,0-3.1l-5-5c-0.9-0.9-2.2-0.9-3.1,0 c-0.9,0.9-0.9,2.2,0,3.1L14.5,17.5z"/>
<path fill="#FFE600" d="M11.6,32c0-1.2-1-2.2-2.2-2.2H2.2C1,29.8,0,30.8,0,32c0,1.2,1,2.2,2.2,2.2h7.1C10.6,34.2,11.6,33.2,11.6,32z"/>
<path fill="#FFE600" d="M14.5,46.5l-5,5c-0.9,0.9-0.9,2.2,0,3.1c0.4,0.4,1,0.7,1.5,0.7c0.5,0,1.1-0.2,1.5-0.7l5-5 c0.9-0.9,0.9-2.2,0-3.1C16.8,45.6,15.3,45.6,14.5,46.5z"/>
<path fill="#FFE600" d="M32,52.4c-1.2,0-2.2,1-2.2,2.2v7.1c0,1.2,1,2.2,2.2,2.2c1.2,0,2.2-1,2.2-2.2v-7.1C34.3,53.4,33.2,52.4,32,52.4z"/>
<path fill="#FFE600" d="M49.6,46.5c-0.9-0.9-2.2-0.9-3.1,0s-0.9,2.2,0,3.1l5,5c0.4,0.4,1,0.7,1.5,0.7c0.5,0,1.1-0.2,1.5-0.7 c0.9-0.9,0.9-2.2,0-3.1L49.6,46.5z"/>
<path fill="#FFE600" d="M61.8,29.8h-7.1c-1.2,0-2.2,1-2.2,2.2c0,1.2,1,2.2,2.2,2.2h7.1c1.2,0,2.2-1,2.2-2.2C64,30.8,63,29.8,61.8,29.8z"/>
<path fill="#FFE600" d="M48.1,18.2c0.5,0,1.1-0.2,1.5-0.7l5-5c0.9-0.9,0.9-2.2,0-3.1c-0.9-0.9-2.2-0.9-3.1,0l-5,5 c-0.9,0.9-0.9,2.2,0,3.1C46.9,18,47.4,18.2,48.1,18.2z"/>
</svg>