<?xml version="1.0" encoding="utf-8"?>
<!-- Generator: Adobe Illustrator 23.1.0, SVG Export Plug-In . SVG Version: 6.00 Build 0)  -->
<svg version="1.1" id="Слой_1" xmlns="http://www.w3.org/2000/svg" xmlns:xlink="http://www.w3.org/1999/xlink" x="0px" y="0px"
	 viewBox="0 0 24 24" style="enable-background:new 0 0 24 24;" xml:space="preserve">
<style type="text/css">
	.st0{fill:#F1F7D7;}
</style>
<path class="st0" d="M14.8,6c0.7,1.5,1.5,1.9,3.4,2.1c0.5,0.1,2.2,0.4,4.5,0.6c2.9,0.4-3,4.6-3.9,5.5c-0.9,0.9,0.5,5.8,0.6,7.6
	c0.1,1.8-5.7-1.4-6.8-2c-1.1-0.7-3.9,1.5-6.8,2.5c-2.9,1.1-0.5-4.6-0.4-6.5s-3-3.3-4.7-5.4C-0.9,8.4,5.8,8,7.1,7.9
	c1.3-0.1,2.5-3.4,3.7-5.7C12.1-0.2,14.1,4.5,14.8,6z"/>
</svg>
