<?xml version="1.0" encoding="utf-8"?>
<!-- Generator: Adobe Illustrator 23.1.0, SVG Export Plug-In . SVG Version: 6.00 Build 0)  -->
<svg version="1.1" id="Слой_1" xmlns="http://www.w3.org/2000/svg" xmlns:xlink="http://www.w3.org/1999/xlink" x="0px" y="0px"
	 viewBox="0 0 32 26" style="enable-background:new 0 0 32 26;" xml:space="preserve">
<style type="text/css">
	.st0{fill:#FFFFFF;}
</style>
<path class="st0" d="M16.1,9.9c-1.6-0.4-2.8,1.3-3.2,2.2c-0.4,1.5,0.4,3.8,2.7,4.2c2.3,0.4,3.2-2,3.4-3.1
	C19.2,12.1,18.1,10.4,16.1,9.9z"/>
<path class="st0" d="M9.5,6.6C8.4,6,7.7,7.8,7.5,7.8C7.3,8.2,6.9,9.2,6.4,11c-0.5,2.2,0.2,6,1.4,7.7c1.3,1.6,2.3,0.7,2.9,0
	c0.5-0.7-0.4-2-1.1-4.2c-0.7-2.2,0.7-5.1,1.1-5.9l0,0C11.1,7.8,10.6,7.1,9.5,6.6z"/>
<path class="st0" d="M6.1,0.1C5.2-0.4,4,0.9,3.6,1.6c-1.6,1.3-3,5.5-3.4,8.1c-0.4,2.7,0.2,7,1.4,11c1.3,4,4,5.9,4.9,4.9
	s0.7-1.8-0.9-3.8S3.2,15.4,3,12.2C2.8,9.1,5.2,4.9,6.1,3.4C7,2,7.2,0.9,6.1,0.1z"/>
<path class="st0" d="M21.9,6.4c-0.9,0-1.1,1.8-0.5,2.6c0.3,0.9,0.9,3.1,0.9,5.3c0,2.7-2.5,2.9-0.9,4.6c1.6,1.6,2.9,0,3.6-2.2
	c0.7-2.2,0.4-5.3-0.2-7.7C24.2,6.6,22.8,6.4,21.9,6.4z"/>
<path class="st0" d="M25,1.1c-0.5,0.9,0.5,2.2,0.7,2.4c0.9,1.3,2.8,5,3.1,8.8c0.4,4.8-2,8.8-2.9,10.1s-2,2.9-0.4,3.5
	c1.6,0.5,1.6,0,3.8-2.7c2.2-2.7,2.9-9,2.7-11.9c-0.2-2.9-2.3-7.1-3.6-9.5C27.1-0.8,25.5,0.1,25,1.1z"/>
</svg>
