<svg class="part-day-icon" version="1.1" xmlns="http://www.w3.org/2000/svg" viewBox="0 0 64 64" width="64" height="64">
<path fill="#FFCC47" d="M32,13.7c1.1,0,2-0.9,2-1.9V5.9c0-1-0.9-1.9-2-1.9c-1.1,0-2,0.9-2,1.9v5.9C30,12.9,30.9,13.7,32,13.7z"/>
<path fill="#FFCC47" d="M19.9,15.5c0.3,0.6,1,0.9,1.7,0.9c0.3,0,0.7-0.1,0.9-0.3c0.9-0.5,1.2-1.7,0.7-2.6l-3-5.1 c-0.5-0.9-1.7-1.2-2.6-0.7c-0.9,0.5-1.2,1.7-0.7,2.6L19.9,15.5z"/>
<path fill="#FFCC47" d="M7.9,20.8l5.2,3c0.3,0.2,0.6,0.3,0.9,0.3c0.7,0,1.3-0.3,1.7-0.9c0.5-0.9,0.2-2.1-0.7-2.6l-5.2-3 c-0.9-0.5-2.1-0.2-2.6,0.7C6.6,19.2,6.9,20.3,7.9,20.8z"/>
<path fill="#FFCC47" d="M5.2,34.4h6c1.1,0,2-0.9,2-1.9c0-1.1-0.9-1.9-2-1.9h-6c-1.1,0-2,0.9-2,1.9C3.3,33.5,4.2,34.4,5.2,34.4z"/>
<path fill="#FFCC47" d="M50.8,32.4c0,1.1,0.9,1.9,2,1.9h6c1.1,0,2-0.9,2-1.9c0-1.1-0.9-1.9-2-1.9h-6C51.6,30.5,50.8,31.4,50.8,32.4z"/>
<path fill="#FFCC47" d="M49.9,24.1c0.3,0,0.7-0.1,0.9-0.3l5.2-3c0.9-0.5,1.2-1.7,0.7-2.6c-0.5-0.9-1.7-1.2-2.6-0.7l-5.2,3 c-0.9,0.5-1.2,1.7-0.7,2.6C48.6,23.7,49.3,24.1,49.9,24.1z"/>
<path fill="#FFCC47" d="M41.4,16.3c0.3,0.2,0.6,0.3,0.9,0.3c0.7,0,1.3-0.3,1.7-0.9l3-5.1c0.5-0.9,0.2-2.1-0.7-2.6 c-0.9-0.5-2.1-0.2-2.6,0.7l-3,5.1C40.1,14.6,40.4,15.7,41.4,16.3z"/>
<path fill="#FFCC47" d="M62,40.1H44.7c1.4-2.2,2.2-4.9,2.2-7.7c0-8.1-6.7-14.8-14.9-14.8c-8.2,0-14.9,6.6-14.9,14.8 c0,2.8,0.8,5.4,2.2,7.7H2c-1.1,0-2,0.9-2,1.9C0,43.1,0.9,44,2,44h19.7c0.2-0.3,0.4-0.5,0.7-0.8l5.4-5.3c2.4-2.3,6.2-2.3,8.5,0 l5.4,5.3c0.3,0.3,0.5,0.5,0.7,0.8H62c1.1,0,2-0.9,2-1.9C63.9,41,63.1,40.1,62,40.1z"/>
<path fill="#FFCC47" d="M33.3,40.6c-0.7-0.7-2-0.7-2.7,0L25.2,46c-0.7,0.7-0.7,1.9,0,2.7c0.7,0.7,2,0.7,2.7,0l2.2-2.1v11.5 c0,1.1,0.9,1.9,2,1.9c1.1,0,2-0.9,2-1.9V46.7l2,2.1c0.4,0.4,0.9,0.5,1.3,0.5s1-0.2,1.3-0.5c0.7-0.7,0.7-1.9,0-2.7L33.3,40.6z"/>
</svg>