<svg class="part-day-icon" width="64" height="64" viewBox="0 0 64 64" fill="none" xmlns="http://www.w3.org/2000/svg">
<path d="M23.1359 6.77652C22.8266 6.41382 22.3146 6.29651 21.8772 6.49918C12.4799 10.8832 6.3999 20.4192 6.3999 30.7979C6.3999 45.5712 18.4213 57.6032 33.2052 57.6032C43.5732 57.6032 53.1092 51.5232 57.5039 42.1259C57.7065 41.6885 57.5892 41.1765 57.2266 40.8565C56.8639 40.5472 56.3412 40.5152 55.9359 40.7819C52.0639 43.3739 47.5412 44.7392 42.8586 44.7392C29.8452 44.7392 19.2532 34.1578 19.2532 21.1445C19.2532 16.4619 20.6293 11.9392 23.2213 8.05653C23.4879 7.66187 23.4559 7.13921 23.1359 6.77652Z" fill="#692BB8"/>
<path d="M50.0789 19.4807C49.9509 19.1074 49.6202 18.8301 49.2255 18.7661L45.3642 18.1794L43.6362 14.4781C43.4548 14.1048 43.0815 13.8701 42.6655 13.8701C42.2495 13.8701 41.8762 14.1048 41.6949 14.4781L39.9668 18.1794L36.1055 18.7661C35.7108 18.8301 35.3802 19.1074 35.2522 19.4807C35.1242 19.8648 35.2202 20.2807 35.4976 20.5688L38.3242 23.4594L37.6629 27.5661C37.5882 27.9607 37.7589 28.3661 38.1002 28.6114C38.4309 28.8354 38.8682 28.8674 39.2309 28.6648L42.6655 26.7661L46.1002 28.6648C46.2709 28.7607 46.4415 28.8035 46.6229 28.8035C46.8362 28.8035 47.0495 28.7395 47.2309 28.6114C47.5722 28.3661 47.7429 27.9607 47.6682 27.5661L47.0069 23.4594L49.8335 20.5688C50.1108 20.2807 50.2069 19.8648 50.0789 19.4807Z" fill="#692BB8"/>
</svg>
