<svg version="1.1" class="social-icon" xmlns="http://www.w3.org/2000/svg" viewBox="0 0 56 56" width="56" height="56">
<path fill="#F7931E" d="M28,0L28,0c15.5,0,28,12.5,28,28l0,0c0,15.5-12.5,28-28,28l0,0C12.5,56,0,43.5,0,28l0,0C0,12.5,12.5,0,28,0z"/>
<path fill="#FFFFFF" d="M28.2,16.7c-3.2,0-5.9,2.6-5.9,5.9c0,3.3,2.6,5.9,5.9,5.9c3.2,0,5.9-2.6,5.9-5.9C34,19.4,31.4,16.7,28.2,16.7z M28.2,25.1c-1.3,0-2.4-1.1-2.4-2.4c0-1.3,1.1-2.4,2.4-2.4c1.3,0,2.4,1.1,2.4,2.4C30.6,24,29.5,25.1,28.2,25.1z"/>
<path fill="#FFFFFF" d="M30.2,33.2c2.3-0.5,3.8-1.6,3.8-1.7c0.7-0.6,0.8-1.6,0.2-2.3c-0.6-0.7-1.6-0.8-2.2-0.2c0,0-1.5,1.2-4,1.2 c-2.5,0-4-1.2-4-1.2c-0.7-0.6-1.7-0.4-2.2,0.2c-0.6,0.7-0.4,1.7,0.2,2.3c0.1,0.1,1.5,1.2,4,1.7l-3.4,3.5c-0.6,0.6-0.6,1.7,0,2.3 c0.3,0.3,0.7,0.4,1.1,0.4c0.4,0,0.8-0.2,1.1-0.5l3.1-3.3l3.4,3.4c0.6,0.6,1.6,0.6,2.3,0c0.6-0.6,0.6-1.6,0-2.3L30.2,33.2z"/>
</svg>