<svg class="social-icon" version="1.1" xmlns="http://www.w3.org/2000/svg" viewBox="0 0 56 56" width="56" height="56">
<path fill="#07151E" d="M28,0L28,0c15.5,0,28,12.5,28,28l0,0c0,15.5-12.5,28-28,28l0,0C12.5,56,0,43.5,0,28l0,0C0,12.5,12.5,0,28,0z"/>
<path fill="#FFFFFF" d="M32.4,20.7H18.3v15.6h3.9v-5.1h7.5l3.4,5.1h4.4l-3.8-5.1c1.2-0.2,2-0.6,2.5-1.3c0.5-0.7,0.8-1.8,0.8-3.3v-1.2 c0-0.9-0.1-1.6-0.3-2.1c-0.2-0.5-0.4-1-0.8-1.4c-0.4-0.4-0.9-0.7-1.5-0.9C34,20.8,33.3,20.7,32.4,20.7z M31.8,27.8h-9.5v-3.7h9.5 c0.5,0,0.9,0.1,1.1,0.3c0.2,0.2,0.3,0.5,0.3,0.9v1.3c0,0.5-0.1,0.8-0.3,0.9C32.7,27.8,32.3,27.8,31.8,27.8z"/>
<circle fill="#F41240" cx="38.3" cy="18.9" r="2"/>
</svg>