<svg version="1.1" class="social-icon" xmlns="http://www.w3.org/2000/svg" xmlns:xlink="http://www.w3.org/1999/xlink" viewBox="0 0 60 60" width="60" height="60">
<style type="text/css">
	.sberIconColor1{fill:#FFFFFF;}
	.sberIconColor2{fill:#21A038;}
	.sberIconColor3{fill:url(#sberIconGrad1);}
	.sberIconColor4{fill:url(#sberIconGrad2);}
	.sberIconColor5{fill:url(#sberIconGrad3);}
	.sberIconColor6{fill:url(#sberIconGrad4);}
	.sberIconColor7{fill:url(#sberIconGrad5);}
	.sberIconColor8{fill:url(#sberIconGrad6);}
</style>
<circle class="sberIconColor1" cx="30" cy="30" r="30"/>
<path class="sberIconColor2" d="M42.9,20.4c0.8,1,1.4,2.1,1.9,3.3l-14.7,11L24,30.7V26l6.1,3.9L42.9,20.4z"/>
<linearGradient id="sberIconGrad1" gradientUnits="userSpaceOnUse" x1="19.5147" y1="18.4558" x2="15.3434" y2="30.3539" gradientTransform="matrix(1 0 0 -1 0 59.8898)">
	<stop  offset="0.14" style="stop-color:#F1E813"/>
	<stop  offset="0.3" style="stop-color:#E6E418"/>
	<stop  offset="0.58" style="stop-color:#C9DA26"/>
	<stop  offset="0.89" style="stop-color:#A2CC39"/>
</linearGradient>
<path class="sberIconColor3" d="M17.7,30.4c0-0.2,0-0.4,0-0.6L14,29.5c0,0.3,0,0.5,0,0.8c0,2.1,0.4,4.3,1.2,6.3c0.8,2,2,3.8,3.5,5.3l2.6-2.7
	c-1.2-1.2-2.1-2.6-2.7-4.1C18,33.6,17.7,32,17.7,30.4z"/>
<linearGradient id="sberIconGrad2" gradientUnits="userSpaceOnUse" x1="19.7816" y1="40.4569" x2="30.3084" y2="44.4152" gradientTransform="matrix(1 0 0 -1 0 59.8898)">
	<stop  offset="6.000000e-02" style="stop-color:#0FA7DF"/>
	<stop  offset="0.54" style="stop-color:#0098F8"/>
	<stop  offset="0.92" style="stop-color:#0290EA"/>
</linearGradient>
<path class="sberIconColor4" d="M30.1,17.8c0.2,0,0.4,0,0.6,0l0.2-3.8c-0.3,0-0.5,0-0.8,0c-2.1,0-4.2,0.4-6.2,1.2c-2,0.8-3.7,2-5.2,3.5l2.6,2.7
	c1.1-1.2,2.5-2.1,4-2.7S28.5,17.8,30.1,17.8z"/>
<linearGradient id="sberIconGrad3" gradientUnits="userSpaceOnUse" x1="29.0761" y1="15.5028" x2="40.9553" y2="18.1508" gradientTransform="matrix(1 0 0 -1 0 59.8898)">
	<stop  offset="0.12" style="stop-color:#A2CC39"/>
	<stop  offset="0.28" style="stop-color:#86C239"/>
	<stop  offset="0.87" style="stop-color:#219F38"/>
</linearGradient>
<path class="sberIconColor5" d="M30.1,42.9c-0.2,0-0.4,0-0.6,0l-0.2,3.8c0.3,0,0.5,0,0.8,0c2.1,0,4.2-0.4,6.2-1.2c2-0.8,3.7-2,5.2-3.5l-2.6-2.7
	c-1.2,1.2-2.5,2.1-4,2.7C33.4,42.6,31.8,42.9,30.1,42.9z"/>
<linearGradient id="sberIconGrad4" gradientUnits="userSpaceOnUse" x1="29.3426" y1="44.5741" x2="39.509" y2="41.4785" gradientTransform="matrix(1 0 0 -1 0 59.8898)">
	<stop  offset="6.000000e-02" style="stop-color:#0290EA"/>
	<stop  offset="0.79" style="stop-color:#0C89CA"/>
</linearGradient>
<path class="sberIconColor6" d="M37.1,20l3.1-2.3c-2.9-2.4-6.4-3.6-10.1-3.6v3.8C32.6,17.8,35.1,18.5,37.1,20z"/>
<path class="sberIconColor2" d="M46.3,30.4c0-1-0.1-2-0.3-2.9L42.5,30c0,0.1,0,0.2,0,0.3c0,1.8-0.4,3.5-1.1,5.1c-0.7,1.6-1.7,3-3,4.2l2.5,2.8 c1.7-1.5,3-3.4,3.9-5.5C45.8,34.9,46.3,32.6,46.3,30.4z"/>
<linearGradient id="sberIconGrad5" gradientUnits="userSpaceOnUse" x1="19.0951" y1="18.9907" x2="30.1713" y2="14.9061" gradientTransform="matrix(1 0 0 -1 0 59.8898)">
	<stop  offset="0.13" style="stop-color:#F1E813"/>
	<stop  offset="0.3" style="stop-color:#EAE616"/>
	<stop  offset="0.53" style="stop-color:#D8DF1F"/>
	<stop  offset="0.8" style="stop-color:#BAD52D"/>
	<stop  offset="0.98" style="stop-color:#A2CC39"/>
</linearGradient>
<path class="sberIconColor7" d="M30.1,42.9c-1.7,0-3.4-0.4-5-1.1c-1.6-0.7-3-1.8-4.2-3.1l-2.8,2.5c1.5,1.7,3.4,3.1,5.4,4 c2.1,0.9,4.3,1.4,6.5,1.4V42.9z"/>
<linearGradient id="sberIconGrad6" gradientUnits="userSpaceOnUse" x1="15.3172" y1="29.1062" x2="19.8531" y2="40.7489" gradientTransform="matrix(1 0 0 -1 0 59.8898)">
	<stop  offset="7.000000e-02" style="stop-color:#A2CC39"/>
	<stop  offset="0.26" style="stop-color:#81C45E"/>
	<stop  offset="0.92" style="stop-color:#0FA7DF"/>
</linearGradient>
<path class="sberIconColor8" d="M21.8,21l-2.5-2.8c-1.7,1.5-3,3.4-3.9,5.5c-0.9,2.1-1.4,4.4-1.4,6.6h3.7c0-1.8,0.4-3.5,1.1-5.1 C19.5,23.6,20.5,22.2,21.8,21z"/>
</svg>