<?xml version="1.0" encoding="utf-8"?>
<!-- Generator: Adobe Illustrator 23.1.0, SVG Export Plug-In . SVG Version: 6.00 Build 0)  -->
<svg version="1.1" id="Слой_1" xmlns="http://www.w3.org/2000/svg" xmlns:xlink="http://www.w3.org/1999/xlink" x="0px" y="0px"
	 viewBox="0 0 32 32" style="enable-background:new 0 0 32 32;" xml:space="preserve">
<style type="text/css">
	.st0{fill-rule:evenodd;clip-rule:evenodd;fill:#5772F7;}
</style>
<path class="st0" d="M19.2,21.1c0.4,0.2,0.8,0.6,1,1.2c0.7,2.9,6.3,8.5,8.7,8.7c1.1,0.1,2.6-1,2.6-1.8c0-0.8-0.3-2.2-1.6-3.5
	c-0.2-0.2-0.3-0.4-0.5-0.6c-1.5-1.6-4.2-4.5-5.4-4.9c-0.7-0.3-1.1-0.3-1.4-0.3c-0.2,0-0.4,0-0.7-0.2c-0.3-0.2-0.6-0.5-0.8-0.7
	c-0.1-0.1-0.2-0.2-0.3-0.3c0.7-1.1,2.2-3.8,2.1-6.1c-0.1-2.9-0.8-7.3-4.4-9.5C15,1,10.3,0.2,7,1.9C3.7,3.6,0.7,6.8,0.5,11
	c-0.2,4.2,1.6,9.3,6.3,11c4.7,1.7,7.6,1.2,9.1,0.5c1.2-0.6,2.5-1.3,3-1.6C19,21,19.1,21,19.2,21.1z M5.4,8c0.8-1.1,2.8-3.8,6-3.5
	c3.9,0.3,7.7,1.9,8,5.7c0.3,3.8,0.1,5.9-2.5,7.8s-6,1.8-9,0.6c-3-1.2-3.8-5.4-3.8-6.9c0-1.2,0.7-2.7,1-3.3C5.1,8.4,5.2,8.3,5.4,8z"
	/>
</svg>
