<svg version="1.1" class="social-icon" xmlns="http://www.w3.org/2000/svg" width="56" height="56" viewBox="0 0 56 56">
<path fill="#FFFFFF" d="M28,0L28,0c15.5,0,28,12.5,28,28l0,0c0,15.5-12.5,28-28,28l0,0C12.5,56,0,43.5,0,28l0,0C0,12.5,12.5,0,28,0z"/>
<path fill="#0AC2E0" d="M32.3,17c-1.3,0-2.3,0.7-2.7,1.8l-0.4,0l0.1-1.8L27,16.9l-0.1,6.4l2,0.1l0.1-1.6l0.5,0c0.4,1.2,1.3,1.9,2.8,1.9 c1.9,0,3.1-1.4,3.1-3.6C35.3,17.6,33.6,17,32.3,17z M32.4,21.9c-0.6,0-1.1-0.2-1.1-0.7c0-0.4,0.3-0.7,0.9-0.7c0.6,0,1.1,0.2,1.1,0.7 C33.3,21.6,33,21.9,32.4,21.9z M17.1,25l-0.4,2.1l-0.7-2l-3,0.2l0.8,6.2l1.7-0.2l-0.1-2.6l0.8,2l1.4-0.1l0.4-2.2l0.2,2.7l1.8-0.2 v-6.2L17.1,25z"/>
<path fill="#FFC726" d="M23.3,25l-2.7-0.1c0,0,1.5,4.5,1.6,4.7c-0.2,0-0.4,0-0.7-0.1c-0.4-0.1-0.6-0.2-0.6-0.2s-0.2,1.2-0.3,1.5 c0.4,0.3,1.2,0.5,1.9,0.5c1.6,0,2.7-1.2,3.4-3.3c0.7-2.2,1-2.9,1-2.9l-2.7,0l-0.5,2.8L23.3,25z"/>
<path fill="#5CCF54" d="M31.9,31.3L30.3,25l-2.9,0L26,31.4l1.8,0l1.1-2.2l1.2,2.2L31.9,31.3z"/>
<path fill="#0AC2E0" d="M27,33.1l-1.5,6.1l1.8,0l0.9-1.9l0.9,1.9l1.8,0L29.5,33L27,33.1z"/>
<path fill="#F7822B" d="M19.7,20.4c0-0.3,0.4-3.2,0.4-3.2s-0.8-0.3-2-0.3c-1.5,0-3.3,0.7-3.3,3.3c0,2.3,1.3,3.3,3,3.3 c0.8,0,1.6-0.3,2.3-0.6c-0.1-0.4-0.3-1.1-0.5-1.6c-0.3,0.1-0.9,0.3-1.4,0.3c-0.5,0-0.9-0.2-0.9-0.7c0-0.5,0.4-0.7,1.1-0.7 C18.9,20.3,19.3,20.4,19.7,20.4z"/>
<path fill="#736EE3" d="M23.4,17c-1.5,0-3.2,0.9-3.2,3.2c0,2.5,1.6,3.3,3.2,3.3c1.5,0,3.3-0.8,3.3-3.5C26.6,17.9,25.1,17,23.4,17z M23.4,21.7c-0.6,0-1-0.3-1-0.7c0-0.4,0.4-0.7,1-0.7c0.5,0,1,0.2,1,0.6C24.4,21.4,24,21.7,23.4,21.7z"/>
<path fill="#FACF1A" d="M35.4,17.3l0.3,2.7c0,0,0.9-0.3,1.9-0.3c1,0,1.2,0.2,1.2,0.3c0,0.1-0.1,0.2-0.3,0.2c-0.2,0-1.7-0.1-1.7-0.1 l-0.1,1.1c0,0,1.7,0.1,1.9,0.2c0.2,0,0.2,0.1,0.2,0.2c0,0.1-0.1,0.3-0.4,0.3c-1.2,0-2-0.3-2.7-0.6c0,0.2-0.4,1.3-0.5,1.5 c0.6,0.3,1.8,0.8,3.4,0.8c1.9,0,2.2-0.9,2.2-1.6c0-0.6-0.3-1-0.7-1.2c0.5-0.3,0.8-0.8,0.8-1.7c0-1.2-1-2.2-2.8-2.2 C37.1,17,36,17.1,35.4,17.3z"/>
<path fill="#F7822B" d="M34.6,26.6c0-0.5,0.1-1.5,0.1-1.5l-2.3-0.1c0,0-0.2,6.1-0.2,6.3c0.6,0.1,1.7,0.3,2.9,0.3c1.6,0,2.4-1.2,2.4-2.6 C37.6,27.7,36.8,26.5,34.6,26.6z M35.2,29.9c-0.4,0-0.6,0-0.8-0.1c0-0.1,0-0.6,0-0.7c0.2,0,0.5,0,0.7,0c0.3,0,0.7,0.1,0.7,0.4 C35.8,29.8,35.5,29.9,35.2,29.9z"/>
<path fill="#FACF1A" d="M33,32.9L30.8,33l0.4,6.1c0,0,1.3,0.3,2.7,0.1C35.4,39,36,38,36,36.8c0-1.5-0.7-2.7-3-2.4L33,32.9z M33.8,37.5 c-0.3,0-0.6,0-0.8,0v-0.7c0.2,0,0.4-0.1,0.6-0.1c0.4,0,0.7,0.1,0.7,0.4C34.2,37.4,34.1,37.5,33.8,37.5z"/>
<path fill="#F7822B" d="M20.6,39l1.7,0l1.1-2.1l0,2.1l1.7,0l0.5-6l-2.3-0.1L22.6,35l0-1.9L20.3,33L20.6,39z"/>
<path fill="#5CCF54" d="M36.3,39L38,39l0.1-2.4l0.5,1.9l1.3,0.1l0.6-2l0,2.5l1.6,0.1l0.6-6.1L40,33l-0.6,1.6L39,32.9l-2.8-0.2L36.3,39z"/>
<path fill="#7D6EEB" d="M17.6,33.2c0-0.4,0-0.5,0-0.5l-2.1,0.1c0,0,0,0.2,0,0.5c-1.2,0.2-2.3,1.2-2.3,2.9c0.1,2.1,1.6,2.7,2.6,2.7 c0,0.3,0,0.5,0,0.5l1.8-0.1c0,0,0-0.2,0-0.5c1.2-0.2,2.5-1,2.4-2.9C20.1,33.8,18.5,33.3,17.6,33.2z M15.2,36.8 c0-0.5,0.5-0.6,0.7-0.6c0,0.1,0,0.9,0.1,1.2C15.6,37.4,15.2,37.3,15.2,36.8z M17.5,37.4c0-0.2,0-1,0-1.2c0.4,0,0.8,0.2,0.8,0.6 C18.3,37.1,17.9,37.3,17.5,37.4z"/>
<path fill="#736EE3" d="M37.6,27.8l1.6,0.1v3.3l1.8,0.1l0.4-3.3l1.6,0.1l0.4-3l-5.8-0.4L37.6,27.8z"/>
</svg>