<svg class="social-icon" width="56" height="56" viewBox="0 0 56 56" fill="none" xmlns="http://www.w3.org/2000/svg">
<rect width="56" height="56" rx="28" fill="white"/>
<path d="M19.4686 20.353C19.5072 20.0141 19.8378 17.1562 19.8378 17.1562C19.8378 17.1562 19.0556 16.8207 17.8315 16.8207C16.2845 16.8207 14.4397 17.5738 14.4397 20.1349C14.4397 22.392 15.7656 23.4492 17.5591 23.4492C18.3836 23.4492 19.2056 23.1917 19.9248 22.8782C19.7961 22.4413 19.5692 21.7461 19.4503 21.3266C19.1645 21.4367 18.5245 21.6075 17.9636 21.6075C17.4506 21.6075 17.0071 21.3993 17.0071 20.9461C17.0071 20.4395 17.46 20.2273 18.1703 20.2273C18.6127 20.2273 19.018 20.2941 19.4686 20.353Z" fill="#F5822A"/>
<path d="M23.2552 21.6683C22.6595 21.6683 22.2657 21.3842 22.2657 20.9906C22.2657 20.5972 22.6575 20.3132 23.2815 20.3132C23.839 20.3132 24.316 20.481 24.316 20.9488C24.316 21.373 23.9282 21.6683 23.2552 21.6683ZM23.2085 16.907C21.6395 16.907 19.9038 17.8133 19.9038 20.1353C19.9038 22.6633 21.5983 23.4922 23.1363 23.4922C24.7106 23.4922 26.5403 22.6895 26.5403 19.9967C26.5403 17.7869 25.0422 16.907 23.2085 16.907Z" fill="#6C6AB0"/>
<path d="M32.4988 21.8013C31.9036 21.8013 31.3427 21.5811 31.3427 21.0924C31.3427 20.6823 31.6787 20.4459 32.223 20.4459C32.8749 20.4459 33.3889 20.6594 33.3889 21.1243C33.3889 21.4941 33.1045 21.8013 32.4988 21.8013ZM32.3855 16.9465C30.9994 16.9465 30.0441 17.5917 29.6086 18.7551L29.1936 18.7339L29.3243 16.8876L26.967 16.7544L26.8497 23.1828L28.8444 23.2772L28.9702 21.6394L29.5273 21.6679C29.918 22.8617 30.911 23.5879 32.3855 23.5879C34.3511 23.5879 35.5256 22.1988 35.5256 19.9283C35.5256 17.5545 33.7358 16.9465 32.3855 16.9465Z" fill="#00BFE0"/>
<path d="M35.5939 17.2439C35.6503 17.6992 35.935 20.001 35.935 20.001C35.935 20.001 36.893 19.7296 37.888 19.7296C38.9499 19.7296 39.1282 19.8838 39.1282 20.0798C39.1282 20.2291 39.0331 20.2813 38.7864 20.2736C38.5399 20.2656 37.0014 20.1411 37.0014 20.1411L36.9298 21.2732C36.9298 21.2732 38.6459 21.4137 38.9067 21.4355C39.0626 21.4487 39.1583 21.5299 39.1583 21.6533C39.1583 21.7891 39.0318 21.9176 38.7881 21.9176C37.583 21.9176 36.6831 21.5918 36.0387 21.3558C35.9832 21.5146 35.5908 22.6372 35.5305 22.812C36.1069 23.1123 37.3561 23.5938 38.9751 23.5938C40.9453 23.5938 41.234 22.6646 41.234 22.0077C41.234 21.4392 40.8873 21.0233 40.4669 20.7841C40.9835 20.4634 41.3219 19.9513 41.3219 19.1212C41.3219 17.9194 40.2542 16.8904 38.4294 16.8904C37.3088 16.8904 36.1634 17.0531 35.5939 17.2439Z" fill="#FFD100"/>
<path d="M16.8252 25.0032L16.3916 27.1497L15.6436 25.0954L12.5637 25.3359L13.4256 31.5908L15.2066 31.4294L15.0915 28.8206L15.9389 30.877L17.3708 30.7342L17.809 28.4922L18.0415 31.1721L19.8759 31.0056V24.7649L16.8252 25.0032Z" fill="#00BFE0"/>
<path d="M23.1672 24.9556L20.4151 24.8943C20.4151 24.8943 21.9988 29.4341 22.0434 29.5627C21.8344 29.5569 21.5863 29.5477 21.2822 29.4793C20.9023 29.3938 20.6269 29.2606 20.6269 29.2606C20.6269 29.2606 20.4035 30.4533 20.342 30.7922C20.8032 31.0942 21.5613 31.292 22.2997 31.292C23.9948 31.292 25.0735 30.1306 25.8334 27.9743C26.5931 25.818 26.8204 25.0372 26.8204 25.0372L24.0711 24.9759L23.5813 27.7934L23.1672 24.9556Z" fill="#FFD100"/>
<path d="M32.0402 31.2647L30.3846 24.9716L27.3796 25.0108L25.9005 31.3447L27.7671 31.3204L28.9056 29.1007L30.1681 31.2892L32.0402 31.2647Z" fill="#70BF54"/>
<path d="M35.4113 29.8543C35.0231 29.8543 34.7625 29.812 34.5479 29.7595C34.5563 29.6307 34.5871 29.1575 34.5962 29.0343C34.8481 29.0116 35.0436 29.0085 35.3024 29.0199C35.654 29.0351 35.9694 29.1572 35.9694 29.4394C35.9694 29.7462 35.6821 29.8543 35.4113 29.8543ZM34.777 26.5332C34.8118 25.9864 34.8896 24.9884 34.8896 24.9884L32.5628 24.8575C32.5628 24.8575 32.3907 30.9923 32.3907 31.1333C32.998 31.263 34.1432 31.4814 35.4085 31.4814C37.0838 31.4814 37.8323 30.2833 37.8323 28.9276C37.8323 27.6908 37.0682 26.4513 34.777 26.5332Z" fill="#F5822A"/>
<path d="M37.884 27.7918L39.4807 27.893L39.486 31.1741L41.3395 31.2949L41.792 28.0395L43.4126 28.1426L43.8177 25.1282L37.8674 24.7407L37.884 27.7918Z" fill="#6C6AB0"/>
<path d="M20.7308 32.973L20.944 38.8448L18.906 38.9155L18.8133 36.3635L16.9792 36.4273L17.0719 38.9791L15.0337 39.0498L14.8206 33.1781L20.7308 32.973Z" fill="#636DB3"/>
<path d="M24.0984 37.0481L25.0717 37.0618L24.7345 35.8105L24.4816 35.7998L24.0984 37.0481ZM25.6197 38.3351L23.4805 38.3042L23.2895 38.9569L21.3441 38.9194L23.0776 33.0732L26.2103 33.1271L27.7354 39.0322L25.7899 38.9946L25.6197 38.3351Z" fill="#1CC0DA"/>
<path d="M30.2415 35.8157L30.3134 37.011C30.578 37.015 30.8809 36.9976 31.154 36.9819C32.0025 36.9332 32.393 36.6726 32.3681 36.2583C32.3437 35.8529 31.937 35.668 31.0475 35.7193C30.845 35.7309 30.5227 35.7697 30.2415 35.8157ZM30.7931 32.8413C32.7633 32.7279 33.9728 33.6003 34.0739 35.2799C34.1846 37.117 32.9337 38.0808 31.1652 38.1826C30.9125 38.1972 30.7102 38.2089 30.385 38.1977L30.4391 39.097L28.3068 39.2197L27.9438 33.1934C28.8864 33.0205 29.934 32.8908 30.7931 32.8413Z" fill="#F6863B"/>
<path d="M41.5616 32.9205L38.796 32.9498L37.6687 34.7423H37.4583L37.4282 32.9646L34.5725 33.0528L35.2337 39.0762L37.4583 39.0908L37.4433 37.2985H37.6386L38.6156 39.0466L40.8252 39.0319L39.6677 35.844L41.5616 32.9205Z" fill="#69BF63"/>
</svg>