<svg version="1.1" class="social-icon" xmlns="http://www.w3.org/2000/svg" viewBox="0 0 56 56" width="56" height="56">
<path fill="#2AABEE" d="M28,56c15.5,0,28-12.5,28-28C56,12.5,43.5,0,28,0C12.5,0,0,12.5,0,28C0,43.5,12.5,56,28,56z"/>
<path fill-rule="evenodd" clip-rule="evenodd" fill="#FFFFFF" d="M12.7,27.7c8.2-3.5,13.6-5.9,16.3-7c7.8-3.2,9.4-3.8,10.4-3.8c0.2,0,0.7,0,1.1,0.3c0.3,0.2,0.3,0.5,0.4,0.8 c0,0.2,0.1,0.7,0,1.1c-0.4,4.4-2.2,15.2-3.2,20.1c-0.4,2.1-1.2,2.8-1.9,2.9c-1.6,0.1-2.9-1.1-4.4-2.1c-2.5-1.6-3.8-2.6-6.3-4.2 c-2.8-1.8-1-2.8,0.6-4.5c0.4-0.4,7.6-7,7.7-7.5c0-0.1,0-0.3-0.1-0.5c-0.2-0.1-0.4-0.1-0.6,0c-0.3,0-4.2,2.7-11.8,7.8 c-1.1,0.8-2.1,1.1-3,1.1c-1,0-2.9-0.6-4.4-1c-1.7-0.6-3.1-0.9-3-1.8C10.7,28.8,11.4,28.2,12.7,27.7z"/>
</svg>