<svg class="social-icon" width="56" height="56" viewBox="0 0 56 56" fill="none" xmlns="http://www.w3.org/2000/svg">
<rect width="56" height="56" rx="28" fill="white"/>
<path d="M29.5276 37.0551C20.0191 37.0551 14.5956 30.5364 14.3697 19.6895H19.1326C19.289 27.6509 22.8004 31.0232 25.5817 31.7185V19.6895H30.0665V26.5557C32.813 26.2602 35.6986 23.1313 36.672 19.6895H41.1569C40.79 21.4745 40.0588 23.1646 39.009 24.6542C37.9591 26.1437 36.6132 27.4006 35.0554 28.3462C36.7943 29.2102 38.3302 30.4332 39.5617 31.9344C40.7932 33.4356 41.6924 35.1809 42.1998 37.0551H37.2631C36.8075 35.4272 35.8816 33.97 34.6014 32.866C33.3212 31.7621 31.7437 31.0606 30.0665 30.8493V37.0551H29.5276Z" fill="#0077FF"/>
</svg>
