<svg width="817" height="106" xmlns="http://www.w3.org/2000/svg"><path d="M6.16 52.98c0-7.6 1.077-14.567 3.23-20.9 2.153-6.333 5.32-11.748 9.5-16.245 4.18-4.497 9.31-8.012 15.39-10.545 6.08-2.533 13.047-3.8 20.9-3.8 2.66 0 5.193.063 7.6.19s4.782.38 7.125.76 4.75.95 7.22 1.71c2.47.76 5.225 1.71 8.265 2.85a43.842 43.842 0 01-1.14 12.825c-1.013 4.243-2.597 8.392-4.75 12.445-2.153-.76-4.085-1.362-5.795-1.805a56.175 56.175 0 00-4.845-1.045 36.906 36.906 0 00-4.465-.475 107.448 107.448 0 00-4.655-.095c-6.08 0-11.115 1.805-15.105 5.415-3.99 3.61-5.985 9.848-5.985 18.715 0 4.687.602 8.582 1.805 11.685 1.203 3.103 2.787 5.542 4.75 7.315 1.963 1.773 4.243 3.04 6.84 3.8 2.597.76 5.352 1.14 8.265 1.14 3.673 0 6.872-.317 9.595-.95 2.723-.633 5.922-1.647 9.595-3.04 2.153 3.42 3.863 7.252 5.13 11.495 1.267 4.243 1.9 9.088 1.9 14.535-5.827 2.28-11.147 3.737-15.96 4.37-4.813.633-9.627.95-14.44.95-8.107 0-15.263-1.203-21.47-3.61-6.207-2.407-11.432-5.858-15.675-10.355-4.243-4.497-7.442-9.88-9.595-16.15-2.153-6.27-3.23-13.332-3.23-21.185zm149.47 12.73h-28.12v36.1c-3.293.507-6.27.887-8.93 1.14-2.66.253-5.067.38-7.22.38-2.153 0-4.56-.127-7.22-.38s-5.573-.633-8.74-1.14V3.77a64.04 64.04 0 018.265-1.33 85.184 85.184 0 017.885-.38c2.407 0 5.003.127 7.79.38s5.51.697 8.17 1.33v33.44h28.12V3.77a64.04 64.04 0 018.265-1.33 85.184 85.184 0 017.885-.38c2.407 0 5.003.127 7.79.38s5.51.697 8.17 1.33v98.04c-3.293.507-6.27.887-8.93 1.14-2.66.253-5.067.38-7.22.38-2.153 0-4.56-.127-7.22-.38s-5.573-.633-8.74-1.14v-36.1zm43.64-12.35c0-7.727 1.045-14.788 3.135-21.185 2.09-6.397 5.193-11.875 9.31-16.435 4.117-4.56 9.215-8.075 15.295-10.545 6.08-2.47 13.11-3.705 21.09-3.705 8.107 0 15.2 1.235 21.28 3.705 6.08 2.47 11.178 5.985 15.295 10.545 4.117 4.56 7.22 10.038 9.31 16.435 2.09 6.397 3.135 13.458 3.135 21.185 0 7.6-1.045 14.535-3.135 20.805s-5.193 11.653-9.31 16.15c-4.117 4.497-9.215 7.948-15.295 10.355s-13.173 3.61-21.28 3.61c-7.98 0-15.01-1.203-21.09-3.61s-11.178-5.858-15.295-10.355c-4.117-4.497-7.22-9.88-9.31-16.15-2.09-6.27-3.135-13.205-3.135-20.805zm65.36 0c0-8.107-1.362-14.313-4.085-18.62s-6.872-6.46-12.445-6.46-9.69 2.153-12.35 6.46-3.99 10.513-3.99 18.62c0 7.98 1.33 14.123 3.99 18.43s6.777 6.46 12.35 6.46c5.573 0 9.722-2.153 12.445-6.46 2.723-4.307 4.085-10.45 4.085-18.43zm76.13 48.45c-3.293.507-6.27.887-8.93 1.14-2.66.253-5.067.38-7.22.38-2.153 0-4.56-.127-7.22-.38s-5.573-.633-8.74-1.14V3.77a64.04 64.04 0 018.265-1.33 85.184 85.184 0 017.885-.38c2.407 0 5.003.127 7.79.38s5.51.697 8.17 1.33v98.04zm11.53-48.83c0-7.6 1.077-14.567 3.23-20.9 2.153-6.333 5.32-11.748 9.5-16.245 4.18-4.497 9.31-8.012 15.39-10.545 6.08-2.533 13.047-3.8 20.9-3.8 2.66 0 5.193.063 7.6.19s4.782.38 7.125.76 4.75.95 7.22 1.71c2.47.76 5.225 1.71 8.265 2.85a43.842 43.842 0 01-1.14 12.825c-1.013 4.243-2.597 8.392-4.75 12.445-2.153-.76-4.085-1.362-5.795-1.805a56.176 56.176 0 00-4.845-1.045 36.906 36.906 0 00-4.465-.475 107.448 107.448 0 00-4.655-.095c-6.08 0-11.115 1.805-15.105 5.415-3.99 3.61-5.985 9.848-5.985 18.715 0 4.687.602 8.582 1.805 11.685 1.203 3.103 2.787 5.542 4.75 7.315 1.963 1.773 4.243 3.04 6.84 3.8 2.597.76 5.352 1.14 8.265 1.14 3.673 0 6.872-.317 9.595-.95 2.723-.633 5.922-1.647 9.595-3.04 2.153 3.42 3.863 7.252 5.13 11.495 1.267 4.243 1.9 9.088 1.9 14.535-5.827 2.28-11.147 3.737-15.96 4.37-4.813.633-9.627.95-14.44.95-8.107 0-15.263-1.203-21.47-3.61-6.207-2.407-11.432-5.858-15.675-10.355-4.243-4.497-7.442-9.88-9.595-16.15-2.153-6.27-3.23-13.332-3.23-21.185zm113.94 10.07c1.393 5.193 3.832 8.867 7.315 11.02 3.483 2.153 8.075 3.23 13.775 3.23 3.673 0 7.79-.443 12.35-1.33a74.602 74.602 0 0013.49-3.99c1.773 3.293 3.325 7.22 4.655 11.78s2.058 9.31 2.185 14.25c-11.273 4.18-22.8 6.27-34.58 6.27-9.12 0-16.942-1.267-23.465-3.8s-11.843-6.048-15.96-10.545c-4.117-4.497-7.157-9.848-9.12-16.055-1.963-6.207-2.945-12.983-2.945-20.33 0-7.22 1.013-13.997 3.04-20.33 2.027-6.333 5.067-11.843 9.12-16.53 4.053-4.687 9.12-8.392 15.2-11.115 6.08-2.723 13.173-4.085 21.28-4.085 6.713 0 12.698 1.14 17.955 3.42 5.257 2.28 9.722 5.415 13.395 9.405 3.673 3.99 6.492 8.803 8.455 14.44 1.963 5.637 2.945 11.748 2.945 18.335 0 3.42-.158 6.492-.475 9.215a269.081 269.081 0 01-.855 6.745h-57.76zm15.2-37.43c-4.053 0-7.537 1.267-10.45 3.8-2.913 2.533-4.623 6.46-5.13 11.78h30.4c-.253-4.433-1.615-8.138-4.085-11.115-2.47-2.977-6.048-4.465-10.735-4.465zm101.78 14.82c3.8 1.013 7.252 2.248 10.355 3.705 3.103 1.457 5.763 3.325 7.98 5.605 2.217 2.28 3.958 5.067 5.225 8.36 1.267 3.293 1.9 7.283 1.9 11.97 0 4.813-.982 9.31-2.945 13.49-1.963 4.18-4.877 7.79-8.74 10.83-3.863 3.04-8.613 5.447-14.25 7.22-5.637 1.773-12.128 2.66-19.475 2.66-6.08 0-11.717-.443-16.91-1.33s-10.703-2.407-16.53-4.56c.633-8.613 2.977-17.353 7.03-26.22a59.032 59.032 0 0012.73 4.275 63.313 63.313 0 0013.3 1.425c1.52 0 3.103-.063 4.75-.19 1.647-.127 3.103-.412 4.37-.855s2.312-1.045 3.135-1.805 1.235-1.773 1.235-3.04c0-1.647-.823-2.882-2.47-3.705-1.647-.823-3.547-1.552-5.7-2.185l-12.92-3.61c-6.713-1.9-12.287-5.13-16.72-9.69-4.433-4.56-6.65-10.767-6.65-18.62 0-4.94 1.013-9.437 3.04-13.49 2.027-4.053 4.877-7.505 8.55-10.355 3.673-2.85 8.012-5.035 13.015-6.555 5.003-1.52 10.545-2.28 16.625-2.28 4.813 0 10.07.507 15.77 1.52 5.7 1.013 11.337 2.47 16.91 4.37-.253 4.053-1.077 8.392-2.47 13.015-1.393 4.623-2.977 8.708-4.75 12.255-3.42-1.393-7.537-2.66-12.35-3.8-4.813-1.14-9.247-1.71-13.3-1.71-5.953 0-8.93 1.647-8.93 4.94 0 1.393.697 2.47 2.09 3.23 1.393.76 2.977 1.393 4.75 1.9l12.35 3.23zm54.47 27.55c2.533 0 5.13.127 7.79.38s5.447.57 8.36.95c.507 2.913.887 5.7 1.14 8.36.253 2.66.38 5.257.38 7.79 0 2.533-.127 5.13-.38 7.79s-.633 5.447-1.14 8.36c-2.913.507-5.7.887-8.36 1.14-2.66.253-5.257.38-7.79.38-2.533 0-5.13-.127-7.79-.38s-5.447-.633-8.36-1.14a109.08 109.08 0 01-1.14-8.36 82.167 82.167 0 01-.38-7.79c0-2.533.127-5.13.38-7.79s.633-5.447 1.14-8.36c2.913-.38 5.7-.697 8.36-.95 2.66-.253 5.257-.38 7.79-.38zm34.52-37.43c-.633-2.533-1.045-4.908-1.235-7.125a74.624 74.624 0 01-.285-6.365c0-2.027.095-4.117.285-6.27.19-2.153.602-4.497 1.235-7.03h51.11v60.42c0 7.22-1.045 13.395-3.135 18.525-2.09 5.13-5.003 9.278-8.74 12.445s-8.107 5.478-13.11 6.935c-5.003 1.457-10.418 2.185-16.245 2.185-1.9 0-4.592-.222-8.075-.665-3.483-.443-7.125-1.298-10.925-2.565a51.245 51.245 0 01-.285-2.945 44.291 44.291 0 01-.095-2.945c0-3.293.317-6.587.95-9.88.633-3.293 1.52-6.713 2.66-10.26.507.127 1.267.285 2.28.475s2.122.348 3.325.475c1.203.127 2.343.253 3.42.38s1.932.19 2.565.19a37.58 37.58 0 004.465-.285 9.324 9.324 0 004.37-1.71c1.33-.95 2.407-2.375 3.23-4.275.823-1.9 1.235-4.56 1.235-7.98V30.56h-19zm113.18 9.88c3.8 1.013 7.252 2.248 10.355 3.705 3.103 1.457 5.763 3.325 7.98 5.605 2.217 2.28 3.958 5.067 5.225 8.36 1.267 3.293 1.9 7.283 1.9 11.97 0 4.813-.982 9.31-2.945 13.49-1.963 4.18-4.877 7.79-8.74 10.83-3.863 3.04-8.613 5.447-14.25 7.22-5.637 1.773-12.128 2.66-19.475 2.66-6.08 0-11.717-.443-16.91-1.33s-10.703-2.407-16.53-4.56c.633-8.613 2.977-17.353 7.03-26.22a59.032 59.032 0 0012.73 4.275 63.313 63.313 0 0013.3 1.425c1.52 0 3.103-.063 4.75-.19 1.647-.127 3.103-.412 4.37-.855s2.312-1.045 3.135-1.805 1.235-1.773 1.235-3.04c0-1.647-.823-2.882-2.47-3.705-1.647-.823-3.547-1.552-5.7-2.185l-12.92-3.61c-6.713-1.9-12.287-5.13-16.72-9.69-4.433-4.56-6.65-10.767-6.65-18.62 0-4.94 1.013-9.437 3.04-13.49 2.027-4.053 4.877-7.505 8.55-10.355 3.673-2.85 8.012-5.035 13.015-6.555 5.003-1.52 10.545-2.28 16.625-2.28 4.813 0 10.07.507 15.77 1.52 5.7 1.013 11.337 2.47 16.91 4.37-.253 4.053-1.077 8.392-2.47 13.015-1.393 4.623-2.977 8.708-4.75 12.255-3.42-1.393-7.537-2.66-12.35-3.8-4.813-1.14-9.247-1.71-13.3-1.71-5.953 0-8.93 1.647-8.93 4.94 0 1.393.697 2.47 2.09 3.23 1.393.76 2.977 1.393 4.75 1.9l12.35 3.23z" fill="#00BCD4" fill-rule="evenodd"/></svg>