<svg version="1.0" xmlns="http://www.w3.org/2000/svg" width="373.333" height="373.333" viewBox="0 0 280 280"><path d="M110.8.5c-.2.1-5.5.6-11.9.9-6.3.4-12.6.8-14 1.1-1.3.2-6 .7-10.4 1-4.4.4-9.1.9-10.5 1-1.4.1-5.9.6-10 .9-4.1.4-8.2.9-9 1.1-.8.2-4.2.6-7.5 1-3.3.3-7.1.8-8.5 1-3.6.5-14.3 1.7-15.7 1.8-.7 0-1.3.2-1.3.4C12 11 9.1 29.6 7.5 39 7 42.5 5.2 56.5 4.6 62.5 4.3 65.2 3.8 70 3.5 73 1.2 94.2.6 108.4.6 137.5c-.1 25.5.8 49.6 1.9 56.7.2 1.3.6 5.5 1 9.5.6 7.2 1.1 11.5 2 18.3.3 1.9.7 5.7 1 8.5.3 2.7.8 5.7 1 6.5.2.8.7 3.7 1 6.5.9 8.3 3.4 21.8 4.2 22.6.7.5 21.3 4 32.8 5.5 1.7.2 6.8.8 11.5 1.4 4.7.6 9.9 1.2 11.5 1.5 1.7.2 6.6.7 11 1 4.4.4 9.6.9 11.5 1.1 21.4 2.1 85.3 2.1 99.3-.1 1.2-.2 6-.6 10.7-1 4.7-.3 9.4-.8 10.5-1 1.1-.3 4.5-.7 7.6-1 6.3-.5 5.8-.5 29.4-4.1 9.4-1.4 17.6-2.6 18.3-2.7.6 0 1.2-.5 1.3-1.1 0-.6.2-1.8.4-2.6.1-.8.6-3.5.9-6 .4-2.5.9-5.2 1.1-6 .2-.8.6-3.5.9-6 .3-2.5.8-5.4 1-6.5.2-1.1.7-4.7 1-8 .4-3.3.9-7.4 1.2-9 .6-4.5 1.1-9.2 1.9-17 .4-3.9.8-8.6 1.1-10.5 2.5-23.2 2.5-90.5-.1-110.5-.2-1.7-.7-6.4-1-10.5-.6-6.9-3.9-34.1-4.9-40-.3-1.4-.7-4.3-1.1-6.5-.5-3.6-1-6.8-2.1-12.9-.5-2.9-1.4-3.3-7.9-4-6.1-.7-7-.8-21-2.5-10.6-1.3-16.8-2-24-2.6-3.3-.3-7.1-.7-8.5-1-1.4-.2-6.1-.7-10.5-1-4.4-.4-10.7-.8-14-1.1-6.6-.6-71.2-1.4-71.7-.9z"/></svg>