<svg width="1026" height="490" id="about-first" viewBox="0 0 1026 490" fill="none" xmlns="http://www.w3.org/2000/svg">
    <path class="about-first__ground" d="M1025.07 261.14C913.889 210.185 751.694 187.963 575.175 207.806C385.672 229.108 113.439 352.541 18.2588 434.892M960.175 236.46C725.581 163.13 385.978 377.038 290.798 459.389" stroke="#FF5400" stroke-width="15"/>
    <path class="about-first__trees" d="M430.869 356.207L428.2 339.103M428.2 339.103C399.709 321.882 402.723 299.527 422.146 275.87C443.047 295.613 452.33 315.505 428.2 339.103Z" stroke="#FF5400" stroke-width="15"/>
    <path class="about-first__home" fill-rule="evenodd" clip-rule="evenodd" d="M806.981 9.84071V2.34071L799.481 2.34071L762.682 2.34071L755.182 2.34071V9.84071V30.8799L722.742 4.06042L717.964 0.109375L713.185 4.06042L593.227 103.237L602.784 114.798L619.4 101.061L619.4 203.502L634.4 203.502L634.4 88.6593L717.964 19.572L757.903 52.5923L794.702 83.0166L801.155 88.3512V95.7633L801.155 128.08V201.662L816.155 201.662L816.155 128.08L816.155 100.753L833.143 114.798L842.701 103.237L806.981 73.7057V9.84071ZM791.981 61.3042L770.182 43.2814V17.3407H791.981V61.3042ZM755.57 108.445V100.945H748.07H687.485H679.985L679.985 108.445L679.985 199.833H694.985V115.945H740.57V199.833L755.57 199.833L755.57 108.445ZM478.201 115.212L472.46 110.913L467.909 116.456C455.427 131.66 447.067 147.75 447.637 163.785C448.194 179.468 457.151 193.038 474.081 204.178L475.6 221.732L490.544 220.439L489.002 202.619C503.402 187.422 508.725 171.31 506.04 155.685C503.276 139.603 492.31 125.779 478.201 115.212ZM491.256 158.225C492.865 167.587 490.357 178.405 480.096 190.13C467.541 181.247 462.941 172.097 462.627 163.253C462.305 154.182 466.379 143.677 474.921 131.895C483.98 140.033 489.686 149.088 491.256 158.225Z" fill="#FF5400"/>
</svg>