<svg width="390" height="252" viewBox="0 0 390 252" fill="none" xmlns="http://www.w3.org/2000/svg">
<path d="M261.011 96.4092C247.249 92.8477 233.303 90.2992 219.344 89.4098C205.393 88.4765 191.448 89.0708 177.808 91.3973C164.167 93.7078 150.847 97.7453 138.06 103.29C125.272 108.849 113.032 115.912 101.293 123.989L86.0952 134.445L79.8928 117.014C76.2771 106.652 72.2255 96.8147 67.2898 87.534C62.3515 78.2745 56.5625 69.6187 49.8549 61.807C43.1486 53.9979 35.5597 47.0038 27.156 41.0533C22.9594 38.0714 18.5914 35.3116 14.0572 32.8003C9.50572 30.3182 4.8067 28.0662 0 26.0096L10.8962 -0.00192261C16.5815 2.44421 22.1765 5.1496 27.6332 8.15543C33.074 11.1918 38.3605 14.5486 43.4504 18.1939C53.646 25.4698 62.9364 34.0792 71.0517 43.6005C79.175 53.1218 86.0833 63.5724 91.8324 74.4498C97.5763 85.3284 99.7805 91.9761 99.7805 91.9761C99.7805 91.9761 112.299 84.2038 126.989 77.7733C141.674 71.3535 157.225 66.5809 173.137 63.8463C189.046 61.0891 205.263 60.3712 221.231 61.4015C237.222 62.3839 252.925 65.2236 268.205 69.1401L261.011 96.4092Z" fill="#FF5400"/>
<path d="M205.217 147.325C209.39 149.086 213.511 151.03 217.54 153.193C221.559 155.381 225.48 157.793 229.267 160.42C236.854 165.659 243.822 171.887 249.961 178.782C256.104 185.683 261.373 193.28 265.774 201.186C270.177 209.085 270.292 210.018 270.292 210.018C270.292 210.018 275.002 206.387 285.883 201.905C296.753 197.42 308.254 194.155 319.963 192.369C331.672 190.566 343.546 190.237 355.185 191.131C366.843 191.995 378.239 194.148 389.304 197.048L381.97 224.556C372.384 222.001 362.7 220.137 353.026 219.383C343.359 218.598 333.714 218.835 324.266 220.243C314.817 221.643 305.573 224.214 296.643 227.843C287.71 231.473 279.114 236.189 270.81 241.649L256.315 251.18L250.374 235.003C247.682 227.81 244.727 221.091 241.172 214.798C237.624 208.52 233.517 202.709 228.811 197.487C224.102 192.274 218.835 187.611 213.012 183.65C210.108 181.664 207.085 179.83 203.957 178.146C200.811 176.489 197.567 174.982 194.246 173.601L205.217 147.325Z" fill="#FF5400"/>
</svg>
