<?xml version="1.0" encoding="utf-8"?>
<!-- Generator: Adobe Illustrator 24.1.2, SVG Export Plug-In . SVG Version: 6.00 Build 0)  -->
<svg version="1.1" id="Слой_1" xmlns="http://www.w3.org/2000/svg" xmlns:xlink="http://www.w3.org/1999/xlink" x="0px" y="0px"
	 viewBox="0 0 109 118" style="enable-background:new 0 0 109 118;" xml:space="preserve" width="109" height="118">
<style type="text/css">
	.st0{fill:none;stroke:#FF5400;stroke-width:5;}
</style>
<g>
	<g>
		<circle class="st0" cx="22.6" cy="20.3" r="17"/>
		<path class="st0" d="M12,35v22.5L22.6,53l10.5,4.5c0,0,0-15.3,0-22.5 M12,67.5V89H4.8 M4.8,89h57.6c0,0-5.8,26.5,11.2,26.5
			 M4.8,89c0,0-9,26.5,8.6,26.5c0,0,35.3,0,60.3,0 M73.7,115.5c7.7,0,11.8-5,11.8-12.5c0-50,0-80,0-80 M95.3,2.5
			c-11.3,0-74.7,0-74.7,0 M95.3,2.5c11.3,0,11.3,10,11.3,20.5H85.4 M95.3,2.5C84,2.5,85.4,23,85.4,23"/>
	</g>
</g>
</svg>
