<?xml version="1.0" encoding="utf-8"?>
<!-- Generator: Adobe Illustrator 24.1.2, SVG Export Plug-In . SVG Version: 6.00 Build 0)  -->
<svg version="1.1" id="Слой_1" xmlns="http://www.w3.org/2000/svg" xmlns:xlink="http://www.w3.org/1999/xlink" x="0px" y="0px"
	 viewBox="0 0 101.1 125" style="enable-background:new 0 0 101.1 125;" xml:space="preserve" width="101.1" height="125">
<style type="text/css">
	.st0{fill:none;stroke:#FF5400;stroke-width:5;}
</style>
<path class="st0" d="M74.3,20.4H27.9 M74.3,20.4l24.2,0.5c0,0-0.2,27.3-9.1,38.4c-5,6.2-24.3,10.5-24.3,10.5H35
	c0,0-17.6-4-22.9-10.5c-8.9-11-9.6-38.4-9.6-38.4l25.3-0.5 M74.3,20.4c0,0,3,27.2-2.2,39.9C67.9,71,58.5,76.2,57.4,87.6
	c-1.1,11.9,10.3,23.8,10.3,23.8v11.1H32.9v-11.1c0,0,11.1-11.9,9.9-23.8c-1.1-11.4-8.7-16.7-13.2-27.2c-4.8-11.2-2.8-32.1-1.8-39.9
	 M74.3,20.4V2.5H27.9v17.9"/>
</svg>
