<?xml version="1.0" encoding="utf-8"?>
<!-- Generator: Adobe Illustrator 24.1.2, SVG Export Plug-In . SVG Version: 6.00 Build 0)  -->
<svg version="1.1" id="Слой_1" xmlns="http://www.w3.org/2000/svg" xmlns:xlink="http://www.w3.org/1999/xlink" x="0px" y="0px"
	 viewBox="0 0 23.4 11.7" style="enable-background:new 0 0 23.4 11.7;" xml:space="preserve" width="20" height="10">
<style type="text/css">
	.st0{fill:#EA561D;}
</style>
<path class="st0" d="M11.8,3.8c-1.7,2-3.2,3.5-4.8,4.7c-1.9,1.4-3.8,2.3-6.1,3.2L0,9.5c2.2-0.9,4-1.7,5.6-2.9
	c1.7-1.2,3.3-2.8,5.2-5.4L11.7,0l0.9,1.2c1.9,2.5,3.6,4.2,5.2,5.4c1.7,1.3,3.4,2.1,5.6,2.9l-0.8,2.2c-2.3-0.9-4.2-1.8-6.1-3.2
	C14.9,7.3,13.4,5.8,11.8,3.8z"/>
</svg>
