<?xml version="1.0" encoding="utf-8"?>
<!-- Generator: Adobe Illustrator 24.1.2, SVG Export Plug-In . SVG Version: 6.00 Build 0)  -->
<svg version="1.1" id="Слой_1" xmlns="http://www.w3.org/2000/svg" xmlns:xlink="http://www.w3.org/1999/xlink" x="0px" y="0px"
	 viewBox="0 0 23.4 11.7" style="enable-background:new 0 0 23.4 11.7;" xml:space="preserve" width="20" height="10">
<style type="text/css">
	.st0{fill:#e3e3e3;}
</style>
<path class="st0" d="M16.5,3.2c1.9-1.4,3.8-2.3,6.1-3.2l0.8,2.2c-2.2,0.8-3.9,1.6-5.6,2.9c-1.6,1.2-3.3,2.9-5.2,5.4l-0.9,1.2
	l-0.9-1.2C8.9,7.9,7.3,6.3,5.6,5.1C4,3.9,2.2,3.1,0,2.2L0.9,0C3.2,0.9,5.1,1.8,7,3.2c1.6,1.2,3.1,2.7,4.8,4.7
	C13.4,5.9,14.9,4.4,16.5,3.2z"/>
</svg>
