<svg width="107" height="112" viewBox="0 0 107 112" fill="none" xmlns="http://www.w3.org/2000/svg">
<path d="M46.1648 78.6568C46.5481 78.5133 46.9337 78.3684 47.3215 78.2221C77.1263 66.9729 102.8 49.8819 102.999 28.8801C103.175 10.1441 87.588 2.7396 75.3861 4.17307C63.1842 5.60654 49.5575 24.2022 49.5575 24.2022C49.5575 24.2022 32.4403 3.69647 16.2574 14.2069C6.65051 20.4464 4.79826 35.8005 12.4336 48.751C18.1273 58.4082 26.8494 65.0947 36.6574 71.9505C38.9753 73.5707 42.2564 75.9074 46.1648 78.6568ZM46.1648 78.6568C17.0897 89.5374 1 92.03 1 92.03M46.1648 78.6568C58.7943 87.5414 77.9731 100.737 92.3628 108" stroke="#FF5400" stroke-width="8"/>
</svg>
