<svg width="304" height="176" viewBox="0 0 304 176" fill="none" xmlns="http://www.w3.org/2000/svg">
<path d="M145.032 115.821L145.028 115.824C144.953 115.887 144.883 115.947 144.813 116.007L144.589 116.2L144.285 116.141C114.391 110.275 93.0865 101.602 80.9272 90.1716L81.3562 89.6952L80.9272 90.1715C66.435 76.5468 67.2627 60.4121 71.4505 52.8263C73.213 49.6314 76.2301 45.6337 81.1718 42.7552C86.1217 39.872 92.9627 38.1356 102.32 39.4065C104.36 39.6834 106.522 40.1038 108.805 40.6851L114.71 42.1888L115.71 37.0107C117.847 25.9485 122.887 19.3609 129.012 15.6281C135.119 11.9072 142.238 11.0629 148.477 11.3454L148.477 11.3454C166.549 12.1721 177.821 24.4088 180.949 36.2346C183.473 45.7763 181.079 60.0317 174.816 74.6549C168.539 89.31 158.323 104.463 145.032 115.821ZM364.89 70.5598C351.496 80.9481 337.41 89.8465 322.675 97.1614C277.257 119.707 225.488 127.412 168.821 120.081L168.821 120.081C166.006 119.716 163.261 119.334 160.572 118.933L159.195 118.728L160.132 117.776C171.853 105.86 181.416 90.6547 187.306 75.6382C193.204 60.6001 195.38 45.8525 192.462 34.8232L193.101 34.6966L192.462 34.8232C187.344 15.4684 169.441 1.75255 147.868 0.768499C137.315 0.289925 113.273 2.27173 105.348 28.79L105.196 29.2992L104.661 29.2139C84.9395 26.0739 68.8375 32.6782 60.721 47.3904L60.7209 47.3905C55.146 57.4903 53.673 79.1065 72.7551 97.0454L72.7552 97.0455C85.3015 108.842 104.909 117.849 132.344 124.237L133.86 124.59L132.651 125.451C104.017 145.848 60.1277 165.826 4.60164 175.88L36.0778 180.154C85.5084 167.512 124.098 147.415 148.824 127.802L149.039 127.632L149.32 127.681C155.341 128.741 161.673 129.701 168.316 130.559L168.316 130.559C227.625 138.233 281.807 130.12 329.378 106.46C341.359 100.5 352.92 93.5484 364.04 85.6467L364.89 70.5598Z" fill="#FFE271" stroke="#FF5400" stroke-width="1.33333"/>
</svg>
