<svg width="190" height="61" viewBox="0 0 190 61" fill="none" xmlns="http://www.w3.org/2000/svg">
<path d="M4.12723 9.05137C4.50609 9.53205 4.82985 10.0623 5.10421 10.6314C5.37819 11.2025 5.60011 11.8078 5.79771 12.4561L6.31488 14.1123L7.75584 13.1821C9.21313 12.2411 10.7776 11.5855 12.4188 11.369C14.0581 11.1421 15.7556 11.3613 17.407 11.8566L18.1644 9.32632C17.1973 9.04214 16.1986 8.82796 15.1761 8.72413C14.1546 8.61953 13.1093 8.62876 12.0787 8.7722C11.0478 8.91448 10.0358 9.19096 9.07937 9.5755C8.61577 9.76123 8.16586 9.97235 7.72924 10.2019C7.63272 9.96273 7.53164 9.72432 7.41992 9.48898C7.07602 8.76566 6.65422 8.06349 6.15034 7.41785C5.64723 6.7722 5.06393 6.1827 4.41983 5.67896C3.77801 5.17175 3.07844 4.75068 2.3553 4.40536L1.25977 6.80489C1.8233 7.07176 2.35454 7.38901 2.83486 7.76509C3.31784 8.13848 3.74838 8.57108 4.12723 9.05137Z" fill="#FF5400"/>
<path d="M128.296 26.2032H123.32L123.425 26.107C124.215 25.386 124.484 24.1466 124.484 22.2074V19.9632H128.296V26.2032ZM130.537 18.0567H122.434V22.0171C122.434 24.6773 121.78 26.2032 120.467 26.2032H120.146V30.6484H122.171V28.1062H130.044V30.6484H132.022V26.2032H130.537V18.0567Z" fill="#FF5400"/>
<path d="M136.032 24.7919C135.766 24.2985 135.631 23.7232 135.631 23.0814C135.631 22.4273 135.766 21.8517 136.033 21.371C136.299 20.8884 136.667 20.51 137.125 20.2462C137.583 19.9828 138.104 19.8494 138.674 19.8494C139.246 19.8494 139.767 19.9828 140.224 20.2462C140.682 20.51 141.046 20.8884 141.307 21.3714C141.567 21.8528 141.699 22.4285 141.699 23.0814C141.699 23.7221 141.567 24.2973 141.307 24.7915C141.046 25.2875 140.682 25.6721 140.224 25.9355C139.767 26.1997 139.24 26.3327 138.656 26.3327C138.098 26.3327 137.582 26.1997 137.125 25.9355C136.666 25.6717 136.299 25.2868 136.032 24.7919ZM141.393 27.5698C142.195 27.1279 142.83 26.5138 143.281 25.7455C143.731 24.9776 143.959 24.0808 143.959 23.0814C143.959 22.0697 143.731 21.1703 143.281 20.4085C142.83 19.6471 142.198 19.0361 141.403 18.5927C140.605 18.1489 139.681 17.9236 138.656 17.9236C137.642 17.9236 136.728 18.1489 135.938 18.5927C135.148 19.0357 134.516 19.6467 134.059 20.4085C133.603 21.1706 133.371 22.0697 133.371 23.0814C133.371 24.0685 133.603 24.9611 134.059 25.7359C134.516 26.5104 135.151 27.1272 135.946 27.5698C136.742 28.0139 137.654 28.2393 138.656 28.2393C139.669 28.2393 140.59 28.0139 141.393 27.5698Z" fill="#FF5400"/>
<path d="M150.077 25.9268C149.62 25.6564 149.252 25.2719 148.986 24.7835C148.719 24.2952 148.584 23.723 148.584 23.0823C148.584 22.4294 148.719 21.8533 148.986 21.3719C149.253 20.8893 149.621 20.5113 150.078 20.2471C150.536 19.9837 151.051 19.8503 151.609 19.8503C152.192 19.8503 152.717 19.9837 153.168 20.2471C153.619 20.5113 153.983 20.8893 154.251 21.3719C154.518 21.8529 154.652 22.4282 154.652 23.0823C154.652 23.7237 154.518 24.2963 154.251 24.7835C153.984 25.2715 153.62 25.6564 153.169 25.9268C152.718 26.1971 152.193 26.334 151.609 26.334C151.05 26.334 150.534 26.1971 150.077 25.9268ZM154.477 27.5999C155.231 27.1754 155.834 26.5712 156.271 25.8037C156.709 25.035 156.931 24.1198 156.931 23.0823C156.931 22.0579 156.709 21.1458 156.271 20.3705C155.834 19.5972 155.231 18.99 154.477 18.5647C153.725 18.1398 152.854 17.9245 151.891 17.9245C151.066 17.9245 150.309 18.1114 149.642 18.4794C149.267 18.6878 148.924 18.9793 148.624 19.3457L148.528 19.4638V18.0579H146.399V32.0859H148.622V26.7677L148.718 26.88C149.007 27.2173 149.33 27.4888 149.68 27.6856C150.334 28.0533 151.078 28.2402 151.891 28.2402C152.856 28.2402 153.725 28.0248 154.477 27.5999Z" fill="#FF5400"/>
<path d="M161.168 24.7928C160.902 24.2983 160.767 23.723 160.767 23.0824C160.767 22.4295 160.902 21.8538 161.168 21.372C161.435 20.8894 161.803 20.511 162.26 20.2472C162.718 19.9838 163.239 19.8503 163.81 19.8503C164.381 19.8503 164.903 19.9838 165.36 20.2472C165.818 20.511 166.182 20.8901 166.443 21.3724C166.703 21.8534 166.835 22.4287 166.835 23.0824C166.835 23.7242 166.703 24.2995 166.443 24.7924C166.182 25.2877 165.818 25.673 165.36 25.9365C164.903 26.2006 164.376 26.3337 163.791 26.3337C163.233 26.3337 162.718 26.2006 162.26 25.9365C161.802 25.6727 161.434 25.2877 161.168 24.7928ZM166.529 27.5708C167.33 27.1289 167.966 26.5148 168.416 25.7465C168.866 24.9786 169.095 24.0818 169.095 23.0824C169.095 22.0707 168.866 21.1712 168.416 20.4095C167.966 19.6481 167.334 19.037 166.538 18.5937C165.741 18.1499 164.817 17.9246 163.791 17.9246C162.778 17.9246 161.863 18.1499 161.073 18.5937C160.283 19.037 159.651 19.6481 159.195 20.4095C158.738 21.1716 158.507 22.0707 158.507 23.0824C158.507 24.0695 158.738 24.9628 159.195 25.7369C159.652 26.5113 160.287 27.1281 161.082 27.5708C161.879 28.0149 162.791 28.2402 163.791 28.2402C164.805 28.2402 165.726 28.0149 166.529 27.5708Z" fill="#FF5400"/>
<path d="M173.756 19.9644H178.738V18.0579H171.533V28.1074H173.756V19.9644Z" fill="#FF5400"/>
<path d="M187.396 24.7928C187.129 25.2877 186.761 25.6727 186.303 25.9365C185.846 26.2006 185.324 26.3337 184.753 26.3337C184.194 26.3337 183.679 26.2006 183.222 25.9365C182.764 25.6727 182.396 25.2877 182.129 24.7928C181.863 24.2995 181.729 23.7242 181.729 23.0824C181.729 22.4283 181.863 21.8526 182.13 21.372C182.397 20.8894 182.764 20.511 183.222 20.2472C183.68 19.9838 184.194 19.8503 184.753 19.8503C185.324 19.8503 185.845 19.9838 186.303 20.2472C186.761 20.511 187.128 20.8894 187.395 21.372C187.662 21.8538 187.796 22.4295 187.796 23.0824C187.796 23.723 187.662 24.2983 187.396 24.7928ZM187.758 18.058V19.3916L187.663 19.2801C187.377 18.9459 187.055 18.6763 186.709 18.4791C186.062 18.1115 185.309 17.9246 184.471 17.9246C183.52 17.9246 182.656 18.1399 181.903 18.5648C181.151 18.989 180.551 19.5965 180.119 20.3702C179.688 21.1447 179.469 22.0572 179.469 23.0824C179.469 24.1203 179.688 25.0362 180.119 25.8038C180.551 26.5717 181.151 27.1762 181.903 27.6C182.655 28.0249 183.519 28.2402 184.471 28.2402C185.334 28.2402 186.1 28.0533 186.747 27.6857C187.125 27.4704 187.471 27.1654 187.775 26.7786L187.872 26.6544V28.1072H190V18.058H187.758Z" fill="#FF5400"/>
<path d="M158.113 43.8161C157.853 44.3118 157.488 44.6963 157.03 44.9605C156.573 45.2243 156.045 45.3577 155.461 45.3577C154.902 45.3577 154.388 45.2243 153.931 44.9605C153.473 44.6975 153.105 44.3129 152.838 43.8169C152.572 43.3223 152.437 42.7475 152.437 42.1068C152.437 41.4531 152.572 40.8778 152.838 40.3956C153.105 39.9134 153.473 39.535 153.931 39.2716C154.387 39.0082 154.908 38.8748 155.48 38.8748C156.052 38.8748 156.573 39.0082 157.03 39.2716C157.488 39.5362 157.852 39.9146 158.113 40.3964C158.374 40.8782 158.505 41.4535 158.505 42.1068C158.505 42.7471 158.374 43.322 158.113 43.8161ZM158.208 37.6177C157.411 37.1743 156.487 36.9494 155.461 36.9494C154.447 36.9494 153.533 37.1743 152.743 37.6177C151.953 38.0611 151.321 38.6721 150.865 39.4339C150.409 40.1956 150.177 41.0947 150.177 42.1068C150.177 43.0935 150.409 43.9861 150.865 44.7605C151.321 45.535 151.956 46.1522 152.752 46.5948C153.549 47.0389 154.461 47.2646 155.461 47.2646C156.474 47.2646 157.396 47.0389 158.199 46.5948C159 46.1526 159.636 45.5384 160.086 44.7701C160.536 44.0034 160.765 43.107 160.765 42.1068C160.765 41.0939 160.536 40.1945 160.086 39.4339C159.636 38.6713 159.004 38.0603 158.208 37.6177Z" fill="#FF5400"/>
<path d="M172.442 37.059L168.88 42.0661L165.292 37.0817H163.205V47.1309H165.237V40.2953L168.833 45.2093L172.452 40.2426V47.1309H174.519L174.5 37.0813L172.442 37.059Z" fill="#FF5400"/>
<path d="M145.101 45.2278H140.125L140.231 45.1316C141.021 44.4114 141.29 43.172 141.29 41.232V38.9878H145.101V45.2278ZM147.343 37.0813H139.24V41.0421C139.24 43.7023 138.586 45.2278 137.273 45.2278H136.951V49.6738H138.977V47.1309H146.85V49.6738H148.828V45.2278H147.343V37.0813Z" fill="#FF5400"/>
<path d="M131.476 37.0817L128.758 37.0659L123.815 41.9638V37.0821H121.593V47.1309H123.815V42.2553L128.719 47.1309H131.65L126.328 41.9038L131.476 37.0817Z" fill="#FF5400"/>
<path d="M181.78 44.7045L178.561 37.0817H176.256L180.607 47.2286L180.509 47.4532C180.181 48.2053 179.56 49.2409 177.91 49.2409H177.395V51.1094H178.289C180.12 51.1094 181.584 50.0442 182.562 47.7566L187.125 37.0817H184.988L181.78 44.7045Z" fill="#FF5400"/>
<path d="M85.4403 41.1358H84.3619H79.3266C77.6173 41.1358 75.94 41.117 74.2912 41.0831L73.2124 41.0547V35.4269L79.3262 30.3745L85.4403 35.4269V41.1358ZM95.9123 53.9241C91.594 56.8201 85.5129 58.3509 78.3268 58.3509C63.5464 58.3509 49.3211 54.9673 37.4466 51.8802C38.0002 51.5272 38.5565 51.1612 39.1147 50.7824C43.0029 48.1429 46.6775 45.1131 50.1332 41.7003C58.4513 43.0751 68.2948 43.7849 79.3266 43.7849H85.6706H94.93V41.1358H88.0582V34.1703L79.3262 26.9544L70.5946 34.1703V40.9762C63.9503 40.7286 57.8513 40.1929 52.3953 39.3785C59.6673 31.6223 65.9073 22.0803 71.0616 10.8237C76.0118 12.288 80.799 14.2361 85.0242 16.5649C99.7826 24.6967 102.88 34.1568 102.88 40.6609C102.88 46.3617 100.536 50.8239 95.9123 53.9241ZM36.0227 35.4008C27.4043 32.1468 22.8493 27.7661 22.8493 22.7337C22.8493 20.6118 23.6275 16.5268 28.8381 13.0075C33.8833 9.59969 41.7189 7.79813 51.4985 7.79813C56.8835 7.79813 62.7537 8.62296 68.5004 10.1134C63.2066 21.5723 56.7668 31.1828 49.2402 38.864C44.1824 37.9657 39.7486 36.8074 36.0227 35.4008ZM11.6561 58.3459C8.28092 58.3459 2.61781 57.7899 2.61781 54.0671C2.61781 51.0581 5.99713 49.2611 11.6561 49.2611C16.4627 49.2611 22.9796 50.8374 30.5256 52.8051C22.1391 57.0785 15.0438 58.3459 11.6561 58.3459ZM86.2763 14.2376C81.9953 11.8789 77.1575 9.89579 72.1476 8.39032C73.1675 6.04463 74.1419 3.62741 75.0706 1.1402L72.6211 0.20385C71.6631 2.77027 70.6561 5.25824 69.6001 7.66931C63.492 6.04847 57.2312 5.14903 51.4985 5.14903C28.4197 5.14903 20.2311 14.6214 20.2311 22.7337C20.2311 27.082 22.8121 33.2404 35.1073 37.883C38.5094 39.1674 42.4724 40.2506 46.9347 41.1243C43.9966 43.891 40.9019 46.3786 37.6559 48.5821C36.3909 49.4415 35.1381 50.2298 33.9053 50.9535C25.0301 48.6224 17.3659 46.6121 11.6561 46.6121C0.840555 46.6121 0 52.3179 0 54.0671C0 56.6543 1.51429 60.995 11.6561 60.995C15.632 60.995 24.3374 59.3957 34.2732 53.7872C46.7713 57.0677 62.1571 61 78.3268 61C95.0866 61 105.498 53.2065 105.498 40.6609C105.498 30.4518 98.6719 21.0678 86.2763 14.2376Z" fill="#FF5400"/>
</svg>
