<svg width="479" height="307" viewBox="0 0 479 307" fill="none" xmlns="http://www.w3.org/2000/svg">
<path d="M169.474 125.456L169.474 125.456C153.67 132.259 138.554 140.898 124.068 150.769C124.068 150.769 124.068 150.769 124.068 150.769L106.436 162.782L99.2435 142.764C99.2432 142.763 99.2429 142.763 99.2426 142.762C94.7826 130.105 89.7781 118.069 83.6746 106.703L83.674 106.702C77.5667 95.3619 70.4031 84.7531 62.0971 75.1738L62.0971 75.1738C53.7949 65.6001 44.3973 57.0225 33.9876 49.7231C28.7947 46.0691 23.389 42.6867 17.7769 39.6086L17.7712 39.6055C12.4313 36.7218 6.92983 34.0929 1.30949 31.6823L13.9363 1.83194C20.587 4.6963 27.1316 7.84903 33.5194 11.3335C40.1796 15.0146 46.6516 19.0842 52.883 23.5038L52.8843 23.5047C65.3598 32.3212 76.7305 42.7556 86.6643 54.2974L86.6646 54.2978C96.6065 65.8376 105.066 78.5089 112.108 91.7042C115.627 98.3041 118.06 103.616 119.61 107.272C120.385 109.101 120.94 110.515 121.3 111.469C121.48 111.946 121.612 112.309 121.698 112.55C121.741 112.671 121.772 112.761 121.793 112.821L121.815 112.887L121.821 112.903L121.822 112.906L121.822 112.906L169.474 125.456ZM169.474 125.456C185.278 118.67 201.742 113.727 218.609 110.898L169.474 125.456Z" fill="#FF5400" stroke="white" stroke-width="2"/>
<path d="M281.524 196.808L281.525 196.809C290.792 203.146 299.306 210.68 306.808 219.026C314.313 227.375 320.754 236.57 326.136 246.145L326.136 246.146C328.84 250.95 330.218 253.619 330.917 255.077C331.267 255.807 331.441 256.223 331.526 256.445C331.556 256.524 331.573 256.575 331.582 256.604L331.79 258.268L281.524 196.808ZM281.524 196.808C276.895 193.628 272.103 190.709 267.19 188.06C262.559 185.598 257.826 183.369 253.032 181.337L240.312 211.507C244.099 213.093 247.806 214.815 251.411 216.696L251.419 216.7C255.296 218.767 259.046 221.02 262.649 223.459C269.883 228.333 276.423 234.067 282.268 240.474L282.269 240.475C288.112 246.897 293.208 254.038 297.607 261.746L297.607 261.746C302.014 269.472 305.671 277.709 308.995 286.507L308.997 286.513L315.873 305.05L332.659 294.12C342.918 287.439 353.553 281.66 364.616 277.209C375.673 272.758 387.125 269.604 398.832 267.887M281.524 196.808L398.977 268.876M434.443 266.831C446.094 267.731 457.745 269.917 469.269 272.912L477.772 241.329C464.509 237.935 450.876 235.423 436.947 234.401L436.944 234.4C422.693 233.317 408.159 233.716 393.833 235.901L393.831 235.901C379.506 238.065 365.433 242.021 352.129 247.457L352.128 247.458C345.475 250.171 340.719 252.623 337.635 254.39C336.093 255.273 334.969 255.985 334.235 256.473C333.868 256.717 333.598 256.905 333.423 257.03C333.335 257.093 333.27 257.14 333.229 257.17L333.184 257.203L333.175 257.211L333.174 257.211L333.173 257.212L333.173 257.212L434.363 267.828M434.443 266.831C434.442 266.831 434.441 266.831 434.44 266.831L434.363 267.828M434.443 266.831C434.443 266.831 434.443 266.831 434.444 266.831L434.363 267.828M434.443 266.831C422.481 265.869 410.537 266.158 398.832 267.887M434.363 267.828C422.469 266.872 410.602 267.159 398.977 268.876M398.832 267.887L398.977 268.876M398.832 267.887C398.832 267.887 398.832 267.887 398.831 267.887L398.977 268.876" fill="#FF5400" stroke="white" stroke-width="2"/>
</svg>
