<svg width="236" height="74" viewBox="0 0 236 74" fill="none" xmlns="http://www.w3.org/2000/svg">
<path d="M15.4697 62.43C5.44495 62.43 0 55.2442 0 46.2407C0 37.1453 6.40912 29.6839 16.9325 29.6839C19.726 29.6839 22.1496 30.0481 24.2563 31.1407V37.0074C21.4628 35.3701 19.2241 35.0486 17.1636 35.0486C10.0248 35.0486 7.38981 40.2821 7.38981 45.7846C7.38981 51.9237 10.7083 56.7897 16.5198 56.7897C19.0854 56.7897 21.1491 56.0842 23.619 54.7652L25.3987 59.5196C21.6972 61.8394 18.534 62.43 15.4697 62.43ZM128.196 62.43C120.779 62.43 116.982 57.0193 116.982 50.562C116.982 43.3303 122.018 38.5529 128.744 38.5529C131.719 38.5529 133.274 39.1435 134.509 39.8719V45.0595C132.861 43.8749 131.534 43.4648 129.705 43.4648C125.907 43.4648 123.461 46.2407 123.461 50.2437C123.461 53.8366 125.356 57.3376 129.612 57.3376C130.801 57.3376 132.376 56.8257 134.067 55.9628L135.652 60.248C133.733 61.5211 130.53 62.43 128.196 62.43ZM148.823 44.1932V61.9772H142.232V44.1932H135.827V39.009H156.058L154.628 44.1932H148.823ZM180.694 41.693C180.694 49.6958 180.373 53.8825 178.911 55.7922C178.178 56.747 177.035 57.3868 175.843 57.564L177.672 62.43C179.181 62.3841 181.519 61.7475 183.121 60.1561C185.227 58.1087 185.911 55.5166 186.231 52.7866C186.505 50.4668 186.69 47.7402 186.69 45.3285V44.1899H191.844V61.9739H198.435V39.0057H180.694V41.693ZM105.963 38.5529C103.401 38.5529 101.433 39.7833 99.7393 41.1023L99.0062 39.009H93.4688V73.166L100.06 71.1645V61.4752C101.252 62.1117 102.807 62.43 104.501 62.43C111.319 62.43 115.437 56.6551 115.437 49.8336C115.437 42.5559 111.273 38.5529 105.963 38.5529ZM102.899 57.7018C101.707 57.7018 100.793 57.2917 100.06 56.7929V45.9224C100.839 44.7412 102.899 43.3303 104.636 43.3303C107.291 43.3303 108.846 45.0135 108.846 49.745C108.846 53.6561 107.383 57.7018 102.899 57.7018ZM165.528 38.5529C162.414 38.5529 159.399 39.0319 156.236 41.0663L158.234 45.0299C159.786 44.1604 161.783 43.4845 164.121 43.4845C166.406 43.4845 168.45 44.4885 168.45 46.9035V47.2939L164.455 47.4449C158.623 47.6385 154.684 50.1518 154.684 54.985C154.684 59.5327 157.986 62.43 162.364 62.43C165.336 62.43 167.377 61.321 168.883 59.9658L169.906 61.9772H175.064V47.061C175.064 41.017 171.659 38.5529 165.528 38.5529ZM168.45 56.2909C167.819 56.7732 166.502 57.354 164.752 57.354C162.51 57.354 161.248 56.2417 161.248 54.506C161.248 52.7636 162.609 51.799 165.432 51.7006L168.45 51.6054V56.2909ZM211.237 46.4671H207.849V38.0082L201.258 39.7636V61.9772H209.682C215.813 61.9772 221.536 60.3366 221.536 54.0171C221.536 48.6523 216.913 46.4671 211.237 46.4671ZM210.137 57.4459H207.849V51.0345H210.048C212.379 51.0345 214.945 51.3987 214.945 54.1253C214.945 56.8093 212.746 57.4459 210.137 57.4459ZM63.8601 49.4693V49.2856C66.0097 48.8328 67.796 47.4219 67.796 44.4196C67.796 40.8366 64.7681 39.5307 61.7931 39.1336C60.8817 39.0122 58.884 39.009 57.7713 39.009H48.3507V61.9772H56.2623C57.1373 61.9772 58.4416 61.9739 59.4586 61.9444C63.619 61.7475 68.7569 60.271 68.7569 54.926C68.7569 51.6513 66.9705 50.014 63.8601 49.4693ZM55.0702 43.3828H57.7713C60.469 43.3828 61.4794 44.2031 61.4794 45.614C61.4794 47.3858 59.8317 47.9305 57.0844 47.9305H55.0702V43.3828ZM57.6326 57.6198H54.9316V51.9795H57.3123C60.469 51.9795 62.1629 52.7079 62.1629 54.7553C62.1629 56.9373 59.9208 57.6198 57.6326 57.6198ZM46.1813 50.2896C46.1813 43.1925 41.7864 38.5529 35.4698 38.5529C28.5587 38.5529 24.669 44.1013 24.669 50.562C24.669 56.6092 28.0568 62.43 36.2952 62.43C39.0854 62.43 42.1959 61.7967 45.4021 59.7919L43.936 55.6544C41.3274 56.8848 39.6335 57.2917 37.3915 57.2917C34.324 57.2917 31.3951 55.382 31.2564 52.2879H46.1813V50.2896ZM31.1211 47.7894C31.1211 45.696 32.6334 43.3303 35.2848 43.3303C38.0816 43.3303 39.3132 45.6041 39.4519 47.7894H31.1211ZM91.5834 50.2896C91.5834 43.1925 87.1885 38.5529 80.8718 38.5529C73.9608 38.5529 70.0711 44.1013 70.0711 50.562C70.0711 56.6092 73.4589 62.43 81.6973 62.43C84.4875 62.43 87.6012 61.7967 90.8042 59.7919L89.3381 55.6544C86.7328 56.8848 85.0356 57.2917 82.7936 57.2917C79.7293 57.2917 76.8005 55.382 76.6618 52.2879H91.5834V50.2896ZM76.5231 47.7894C76.5231 45.696 78.0354 43.3303 80.6869 43.3303C83.4804 43.3303 84.7153 45.6041 84.854 47.7894H76.5231Z" fill="white"/>
<path d="M233.268 22.7835C232.891 23.0427 232.505 23.2462 232.112 23.3709C230.808 23.781 229.2 23.4037 227.757 22.8131C226.726 22.3898 225.647 21.8418 224.514 21.1495C225.105 19.7156 225.66 18.0783 226.132 16.2671C226.865 13.4552 227.215 10.9779 227.288 8.80245C227.334 7.45716 227.268 6.22672 227.119 5.10784C226.915 3.56897 226.439 2.00385 225.429 1.08184C225.108 0.796375 224.719 0.556847 224.283 0.359977C226.347 0.136857 228.179 0.120452 229.797 0.238575C231.498 0.382946 233.228 0.799655 234.238 1.78401C235.249 2.76836 235.695 4.48442 235.873 6.16766C236.038 7.77544 236.051 9.59649 235.86 11.6571C235.665 13.6881 235.269 15.9456 234.618 18.4491H234.621C234.212 19.9978 233.743 21.4776 233.268 22.7835ZM208.348 21.5104C208.308 21.0576 208.325 20.6212 208.414 20.2209C208.708 18.8921 209.84 17.701 211.078 16.7495C211.963 16.0768 212.977 15.4206 214.149 14.7906C215.103 16.0178 216.253 17.3105 217.596 18.623C219.68 20.6606 221.664 22.1995 223.523 23.3479C224.673 24.0599 225.775 24.6177 226.825 25.0508C228.268 25.6414 229.87 26.0188 231.181 25.6086C231.59 25.4741 231.993 25.2608 232.383 24.9852C231.544 26.8719 230.643 28.46 229.731 29.7921C228.754 31.1833 227.529 32.4663 226.165 32.8403C224.801 33.2177 223.084 32.7452 221.529 32.0561C220.047 31.3966 218.452 30.4943 216.751 29.3C215.08 28.1187 213.307 26.6488 211.452 24.8343C210.306 23.7154 209.246 22.5735 208.348 21.5104ZM221.882 0.69794C222.298 0.891529 222.668 1.12449 222.972 1.40011C223.982 2.31884 224.455 3.89052 224.666 5.4294C224.811 6.52531 224.874 7.7295 224.838 9.05182C223.289 9.25853 221.589 9.59977 219.772 10.1018C216.956 10.8761 214.621 11.8146 212.69 12.8416C211.494 13.4748 210.454 14.1442 209.556 14.8332C208.318 15.7782 207.189 16.9693 206.891 18.3015C206.802 18.7214 206.786 19.1742 206.835 19.6467C205.61 17.9832 204.676 16.4115 203.973 14.9612C203.246 13.4256 202.744 11.7293 203.098 10.3676C203.451 9.00588 204.722 7.76231 206.099 6.7714C207.416 5.82314 208.998 4.90113 210.89 4.03818C212.756 3.19163 214.925 2.40087 217.431 1.71182C218.983 1.27871 220.509 0.940747 221.882 0.69794Z" fill="white"/>
</svg>
