<svg width="866" id="projects-detail-help-decor" height="403" viewBox="0 0 866 403" fill="none" xmlns="http://www.w3.org/2000/svg">
<path class="projects-detail-help-decor__ground" d="M944.794 256.251C842.388 209.316 692.994 188.849 530.406 207.125C355.859 226.746 105.111 340.438 17.4428 416.289M885.021 233.518C668.942 165.975 356.141 363.002 268.473 438.854" stroke="#FFE271" stroke-width="15"/>
<path class="projects-detail-help-decor__trees" d="M382.791 354.71L379.736 335.125M379.736 335.125C347.112 315.406 350.564 289.81 372.804 262.722C396.736 285.328 407.365 308.105 379.736 335.125Z" stroke="#FFE271" stroke-width="15"/>
<path class="projects-detail-help-decor__home" d="M578.049 203.162L578.049 97.2741M745.459 201.468C745.459 167.275 745.459 97.2741 745.459 97.2741M633.852 199.783L633.852 118.428L689.656 118.428L689.656 199.783M445.572 219.358L443.877 199.773M443.877 199.773C411.253 180.054 414.705 154.458 436.945 127.37C461.337 145.637 471.506 172.753 443.877 199.773Z" stroke="#FFE271" stroke-width="15"/>
<path class="projects-detail-help-decor__roof" d="M551.435 116.135L661.926 24.785L703.115 58.8384M772.417 116.135L737.01 86.8616M703.115 58.8384L703.115 24.785L737.01 24.785L737.01 86.8616M703.115 58.8384L737.01 86.8616" stroke="#FFE271" stroke-width="15"/>
<path class="projects-detail-help-decor__bird" d="M48.625 144C59.6909 148.574 70.2537 157.213 77.2957 175C100.433 160.262 123.068 164.328 132.625 166.869" stroke="#FFE271" stroke-width="15"/>
</svg>
