<svg class="image box-toys" width="352" height="321" viewBox="0 0 352 321" fill="none" xmlns="http://www.w3.org/2000/svg">
    <path class="box-toys__box" d="M3 96L52.2755 165.252M52.2755 165.252V318H302.938V165.252M52.2755 165.252H302.938M302.938 165.252L349 96" stroke="#FFE271" stroke-width="6"/>
    <path class="box-toys__text" d="M123.184 248V234.116H136.496V248H133.272V236.118L134.026 236.872H125.68L126.434 236.118V248H123.184ZM147.069 248.182C145.648 248.182 144.383 247.879 143.273 247.272C142.164 246.648 141.289 245.799 140.647 244.724C140.006 243.649 139.685 242.427 139.685 241.058C139.685 239.671 140.006 238.449 140.647 237.392C141.289 236.317 142.164 235.477 143.273 234.87C144.383 234.263 145.648 233.96 147.069 233.96C148.508 233.96 149.782 234.263 150.891 234.87C152.018 235.477 152.893 236.309 153.517 237.366C154.159 238.423 154.479 239.654 154.479 241.058C154.479 242.427 154.159 243.649 153.517 244.724C152.893 245.799 152.018 246.648 150.891 247.272C149.782 247.879 148.508 248.182 147.069 248.182ZM147.069 245.4C147.867 245.4 148.577 245.227 149.201 244.88C149.825 244.533 150.311 244.031 150.657 243.372C151.021 242.713 151.203 241.942 151.203 241.058C151.203 240.157 151.021 239.385 150.657 238.744C150.311 238.085 149.825 237.583 149.201 237.236C148.577 236.889 147.875 236.716 147.095 236.716C146.298 236.716 145.587 236.889 144.963 237.236C144.357 237.583 143.871 238.085 143.507 238.744C143.143 239.385 142.961 240.157 142.961 241.058C142.961 241.942 143.143 242.713 143.507 243.372C143.871 244.031 144.357 244.533 144.963 244.88C145.587 245.227 146.289 245.4 147.069 245.4ZM157.69 248V234.116H161.096L166.686 243.97H165.334L171.21 234.116H174.252L174.278 248H171.34V237.6L171.86 237.938L166.66 246.544H165.256L160.03 237.704L160.654 237.548V248H157.69ZM184.825 248.182C183.404 248.182 182.138 247.879 181.029 247.272C179.92 246.648 179.044 245.799 178.403 244.724C177.762 243.649 177.441 242.427 177.441 241.058C177.441 239.671 177.762 238.449 178.403 237.392C179.044 236.317 179.92 235.477 181.029 234.87C182.138 234.263 183.404 233.96 184.825 233.96C186.264 233.96 187.538 234.263 188.647 234.87C189.774 235.477 190.649 236.309 191.273 237.366C191.914 238.423 192.235 239.654 192.235 241.058C192.235 242.427 191.914 243.649 191.273 244.724C190.649 245.799 189.774 246.648 188.647 247.272C187.538 247.879 186.264 248.182 184.825 248.182ZM184.825 245.4C185.622 245.4 186.333 245.227 186.957 244.88C187.581 244.533 188.066 244.031 188.413 243.372C188.777 242.713 188.959 241.942 188.959 241.058C188.959 240.157 188.777 239.385 188.413 238.744C188.066 238.085 187.581 237.583 186.957 237.236C186.333 236.889 185.631 236.716 184.851 236.716C184.054 236.716 183.343 236.889 182.719 237.236C182.112 237.583 181.627 238.085 181.263 238.744C180.899 239.385 180.717 240.157 180.717 241.058C180.717 241.942 180.899 242.713 181.263 243.372C181.627 244.031 182.112 244.533 182.719 244.88C183.343 245.227 184.045 245.4 184.825 245.4ZM204.78 245.244L204.078 246.024V234.116H207.328V246.024L206.548 245.244H213.412L212.658 246.024V234.116H215.908V248H195.446V234.116H198.696V246.024L197.942 245.244H204.78ZM214.868 250.86V247.194L215.622 248H212.554V245.244H217.91V250.86H214.868ZM227.246 238.692C229.031 238.692 230.392 239.091 231.328 239.888C232.264 240.685 232.732 241.812 232.732 243.268C232.732 244.776 232.212 245.955 231.172 246.804C230.132 247.636 228.667 248.043 226.778 248.026L220.278 248V234.116H223.528V238.666L227.246 238.692ZM226.492 245.634C227.445 245.651 228.173 245.452 228.676 245.036C229.178 244.62 229.43 244.013 229.43 243.216C229.43 242.419 229.178 241.847 228.676 241.5C228.19 241.136 227.462 240.945 226.492 240.928L223.528 240.902V245.608L226.492 245.634Z" fill="#FFE271"/>
    <rect class="box-toys__button" x="85" y="210" width="185" height="65" rx="32.5" stroke="#FFE271" stroke-width="6"/>
    <path class="box-toys__heart" d="M165.635 150.322C165.635 150.322 170.585 145.14 177.788 133.536C184.991 121.931 189.265 109.419 183.853 102.227C179.025 95.8118 171.791 97.3633 168.014 101.036C164.238 104.708 164.455 114.587 164.455 114.587C164.455 114.587 153.283 112.084 150.52 119.882C148.88 124.511 152.256 130.214 158.232 132.624C162.689 134.421 167.4 134.417 172.525 134.187C177.649 133.958 191.987 133.587 200.878 131.902" stroke="#FFE271" stroke-width="6"/>
    <path class="box-toys__t-shirt" d="M207 118.226L219.753 137.189L233.781 130.868V165H289.045V130.868L301.372 137.189L312 118.226L286.069 98H277.992C277.992 98 269.359 106.397 260.988 106.006C253.16 105.641 243.984 98 243.984 98H233.781L207 118.226Z" stroke="#FFE271" stroke-width="6"/>
    <circle class="box-toys__bear__head" cx="99.5" cy="116.5" r="29.5" stroke="#FFE271" stroke-width="6"/>
    <path class="box-toys__bear__ear" d="M128 105C133.523 105 138 100.299 138 94.5C138 88.701 133.523 84 128 84C122.477 84 118 88.701 118 94.5" stroke="#FFE271" stroke-width="6"/>
    <path class="box-toys__bear__ear" d="M71 105C65.4772 105 61 100.299 61 94.5C61 88.701 65.4772 84 71 84C76.5228 84 81 88.701 81 94.5" stroke="#FFE271" stroke-width="6"/>
    <path class="box-toys__bear__muzzle" d="M121 136C121 126.611 111.374 119 99.5 119C87.6259 119 78 126.611 78 136" stroke="#FFE271" stroke-width="6"/>
    <path class="box-toys__cap__bottom" d="M147 69H221V86H147V69Z" stroke="#FFE271" stroke-width="6"/>
    <path class="box-toys__bear__shoulder" d="M76.6433 136.304L53.0547 169.512" stroke="#FFE271" stroke-width="6"/>
    <path class="box-toys__bear__shoulder" d="M124.394 129.875L166.625 165.793" stroke="#FFE271" stroke-width="6"/>
    <path class="box-toys__cap__middle" d="M152.002 69C152.084 59.0493 155.205 49.0012 160.684 41.4766C166.207 33.8912 174 29 183.5 29C193 29 200.793 33.8912 206.316 41.4766C211.795 49.0012 214.916 59.0493 214.998 69H152.002Z" stroke="#FFE271" stroke-width="6"/>
    <rect class="box-toys__cap__top" x="173" y="3" width="22" height="20" rx="10" stroke="#FFE271" stroke-width="6"/>
</svg>
