<svg class="image cart-bear" width="506" height="324" viewBox="0 0 506 324" fill="none" xmlns="http://www.w3.org/2000/svg">
    <path class="cart-bear__ground" d="M-17 319.999C-17 319.999 202 141.001 507 173.001" stroke="#FFE271" stroke-width="8"/>
    <path class="cart-bear__home" d="M393.5 122.5V169.5H488.5V122.5L440 82.5L393.5 122.5Z" stroke="#FFE271" stroke-width="10"/>
    <circle class="cart-bear__no-stroke" cx="57.6045" cy="98.9591" r="4" transform="rotate(-5.58251 57.6045 98.9591)" fill="#FFE271"/>
    <circle class="cart-bear__no-stroke" cx="35.2959" cy="107.168" r="4" transform="rotate(-5.58251 35.2959 107.168)" fill="#FFE271"/>
    <mask class="cart-bear__no-stroke" id="path-5-outside-1_25019_41667" maskUnits="userSpaceOnUse" x="-9.51244" y="-3.30241" width="310.287" height="269.456" fill="black">
        <rect fill="white" x="-9.51244" y="-3.30241" width="310.287" height="269.456"/>
        <path fill-rule="evenodd" clip-rule="evenodd" d="M141.091 108.817C150.646 105.218 155.448 94.488 151.818 84.8506C148.187 75.2133 137.499 70.3183 127.945 73.9174C118.391 77.5164 113.588 88.2465 117.218 97.8838C120.849 107.521 131.537 112.416 141.091 108.817ZM140.325 106.784C148.752 103.61 153.003 94.1374 149.792 85.6136C146.582 77.0897 137.137 72.7762 128.711 75.9504C120.284 79.1245 116.033 88.5971 119.244 97.1209C122.455 105.645 131.899 109.958 140.325 106.784Z"/>
        <path fill-rule="evenodd" clip-rule="evenodd" d="M182.879 106.425L193.343 102.483L211.786 151.444L223.672 146.967L223.261 147.003L249.248 55.1365L251.405 54.9487L225.376 146.348C229.877 144.998 234.724 147.361 236.412 151.841L236.539 152.18C238.302 156.858 235.952 162.074 231.291 163.829L216.101 169.551L216.038 169.382L192.495 178.25C198.521 179.148 203.902 183.211 206.208 189.335C209.592 198.317 205.081 208.331 196.132 211.702C187.184 215.073 177.187 210.524 173.803 201.541C171.497 195.418 172.859 188.815 176.795 184.164L120.427 205.397C126.454 206.295 131.834 210.358 134.141 216.482C137.524 225.464 133.013 235.478 124.064 238.849C115.116 242.22 105.119 237.671 101.735 228.689C99.4287 222.565 100.791 215.962 104.727 211.311L81.1848 220.179L58.0898 158.869L53.202 176.017C51.1476 183.224 43.7233 187.451 36.4873 185.533C29.1367 183.584 24.7384 176.032 26.6634 168.665L36.2195 132.096C30.9882 129.133 26.7253 124.39 24.44 118.323C23.3254 115.365 22.772 112.332 22.7269 109.343C17.9426 110.937 12.5871 108.854 10.2467 104.227C7.66993 99.1328 9.73972 92.9156 14.8397 90.3308C19.3914 88.0238 24.8442 89.3767 27.7958 93.3158C30.748 89.2366 34.8892 85.9492 39.9534 84.0416C45.343 82.0114 50.978 81.8452 56.1498 83.2222C56.1988 78.4536 59.5428 74.2028 64.3896 73.2051C69.9819 72.0539 75.4572 75.6693 76.6191 81.2804C77.6377 86.1997 75.0029 91.0196 70.5694 92.9091C72.0664 94.894 73.3084 97.1237 74.2292 99.5683C76.1688 104.717 76.4089 110.09 75.2288 115.068L75.3541 114.848L107.818 131.227L79.1148 57.1022L153.714 29.0014L182.879 106.425ZM59.0871 155.377L82.4443 217.384L215.272 167.349L209.004 150.199L209.761 152.207L192.083 105.279L59.0871 155.377ZM110.305 133.763L180.853 107.188L157.814 46.0243L87.2651 72.5993L110.305 133.763ZM58.7157 133.85C66.6542 130.86 72.3245 124.479 74.7022 116.973L106.487 135.201L56.296 154.107L51.12 175.415C49.3889 181.489 43.1331 185.05 37.0359 183.434C30.8421 181.791 27.136 175.428 28.758 169.221L38.1946 133.109C44.4342 135.988 51.7783 136.463 58.7157 133.85ZM175.829 200.778C172.868 192.919 176.815 184.156 184.645 181.207C192.475 178.258 201.222 182.238 204.183 190.098C207.144 197.957 203.196 206.72 195.366 209.669C187.537 212.618 178.789 208.638 175.829 200.778ZM112.577 208.354C104.747 211.304 100.8 220.066 103.761 227.926C106.721 235.785 115.469 239.766 123.299 236.816C131.129 233.867 135.076 225.104 132.115 217.245C129.155 209.385 120.407 205.405 112.577 208.354ZM217.53 166.692L212.552 153.477L225.548 148.582C229.09 147.248 233.047 149.048 234.386 152.604L234.514 152.943C235.853 156.498 234.068 160.462 230.526 161.796L217.53 166.692ZM72.2039 100.331C74.3381 105.997 74.2311 111.96 72.3224 117.243C70.5877 114.562 67.783 112.688 64.4983 111.722C60.3893 110.514 55.4638 110.7 50.6747 112.504C45.8857 114.308 42.0621 117.418 39.7711 121.037C37.9397 123.929 37.0685 127.188 37.5338 130.347C32.6142 127.637 28.5995 123.226 26.4653 117.56C21.7096 104.936 28.0824 90.8348 40.7192 86.0746C53.3561 81.3144 67.4482 87.7063 72.2039 100.331ZM57.9499 131.817C63.9829 129.544 68.5881 125.143 71.2363 119.79C70.0024 116.917 67.3572 114.824 63.894 113.806C60.2769 112.743 55.833 112.882 51.4406 114.537C47.0481 116.191 43.6166 119.018 41.5999 122.204C39.669 125.253 39.0626 128.572 40.0303 131.545C45.5524 133.82 51.917 134.09 57.9499 131.817ZM69.1111 91.1407C72.9777 89.8456 75.3498 85.825 74.4991 81.7169C73.5805 77.2805 69.2515 74.422 64.8301 75.3322C60.7778 76.1664 58.0543 79.8765 58.3348 83.9054C62.4292 85.3811 66.149 87.8507 69.1111 91.1407ZM26.5075 95.2712C24.391 98.8126 23.1047 102.827 22.7963 106.988C18.8214 108.76 14.1408 107.131 12.1772 103.249C10.151 99.2428 11.7686 94.3227 15.8203 92.2692C19.6784 90.3138 24.3231 91.6776 26.5075 95.2712ZM86.4993 70.5663L81.9059 58.3723L99.6208 51.6993L104.214 63.8933L86.4993 70.5663ZM106.239 63.1304L101.646 50.9364L152.455 31.7973L157.048 43.9913L106.239 63.1304Z"/>
    </mask>
    <path class="cart-bear__no-stroke" fill-rule="evenodd" clip-rule="evenodd" d="M141.091 108.817C150.646 105.218 155.448 94.488 151.818 84.8506C148.187 75.2133 137.499 70.3183 127.945 73.9174C118.391 77.5164 113.588 88.2465 117.218 97.8838C120.849 107.521 131.537 112.416 141.091 108.817ZM140.325 106.784C148.752 103.61 153.003 94.1374 149.792 85.6136C146.582 77.0897 137.137 72.7762 128.711 75.9504C120.284 79.1245 116.033 88.5971 119.244 97.1209C122.455 105.645 131.899 109.958 140.325 106.784Z" fill="#FFE271"/>
    <path class="cart-bear__no-stroke" fill-rule="evenodd" clip-rule="evenodd" d="M182.879 106.425L193.343 102.483L211.786 151.444L223.672 146.967L223.261 147.003L249.248 55.1365L251.405 54.9487L225.376 146.348C229.877 144.998 234.724 147.361 236.412 151.841L236.539 152.18C238.302 156.858 235.952 162.074 231.291 163.829L216.101 169.551L216.038 169.382L192.495 178.25C198.521 179.148 203.902 183.211 206.208 189.335C209.592 198.317 205.081 208.331 196.132 211.702C187.184 215.073 177.187 210.524 173.803 201.541C171.497 195.418 172.859 188.815 176.795 184.164L120.427 205.397C126.454 206.295 131.834 210.358 134.141 216.482C137.524 225.464 133.013 235.478 124.064 238.849C115.116 242.22 105.119 237.671 101.735 228.689C99.4287 222.565 100.791 215.962 104.727 211.311L81.1848 220.179L58.0898 158.869L53.202 176.017C51.1476 183.224 43.7233 187.451 36.4873 185.533C29.1367 183.584 24.7384 176.032 26.6634 168.665L36.2195 132.096C30.9882 129.133 26.7253 124.39 24.44 118.323C23.3254 115.365 22.772 112.332 22.7269 109.343C17.9426 110.937 12.5871 108.854 10.2467 104.227C7.66993 99.1328 9.73972 92.9156 14.8397 90.3308C19.3914 88.0238 24.8442 89.3767 27.7958 93.3158C30.748 89.2366 34.8892 85.9492 39.9534 84.0416C45.343 82.0114 50.978 81.8452 56.1498 83.2222C56.1988 78.4536 59.5428 74.2028 64.3896 73.2051C69.9819 72.0539 75.4572 75.6693 76.6191 81.2804C77.6377 86.1997 75.0029 91.0196 70.5694 92.9091C72.0664 94.894 73.3084 97.1237 74.2292 99.5683C76.1688 104.717 76.4089 110.09 75.2288 115.068L75.3541 114.848L107.818 131.227L79.1148 57.1022L153.714 29.0014L182.879 106.425ZM59.0871 155.377L82.4443 217.384L215.272 167.349L209.004 150.199L209.761 152.207L192.083 105.279L59.0871 155.377ZM110.305 133.763L180.853 107.188L157.814 46.0243L87.2651 72.5993L110.305 133.763ZM58.7157 133.85C66.6542 130.86 72.3245 124.479 74.7022 116.973L106.487 135.201L56.296 154.107L51.12 175.415C49.3889 181.489 43.1331 185.05 37.0359 183.434C30.8421 181.791 27.136 175.428 28.758 169.221L38.1946 133.109C44.4342 135.988 51.7783 136.463 58.7157 133.85ZM175.829 200.778C172.868 192.919 176.815 184.156 184.645 181.207C192.475 178.258 201.222 182.238 204.183 190.098C207.144 197.957 203.196 206.72 195.366 209.669C187.537 212.618 178.789 208.638 175.829 200.778ZM112.577 208.354C104.747 211.304 100.8 220.066 103.761 227.926C106.721 235.785 115.469 239.766 123.299 236.816C131.129 233.867 135.076 225.104 132.115 217.245C129.155 209.385 120.407 205.405 112.577 208.354ZM217.53 166.692L212.552 153.477L225.548 148.582C229.09 147.248 233.047 149.048 234.386 152.604L234.514 152.943C235.853 156.498 234.068 160.462 230.526 161.796L217.53 166.692ZM72.2039 100.331C74.3381 105.997 74.2311 111.96 72.3224 117.243C70.5877 114.562 67.783 112.688 64.4983 111.722C60.3893 110.514 55.4638 110.7 50.6747 112.504C45.8857 114.308 42.0621 117.418 39.7711 121.037C37.9397 123.929 37.0685 127.188 37.5338 130.347C32.6142 127.637 28.5995 123.226 26.4653 117.56C21.7096 104.936 28.0824 90.8348 40.7192 86.0746C53.3561 81.3144 67.4482 87.7063 72.2039 100.331ZM57.9499 131.817C63.9829 129.544 68.5881 125.143 71.2363 119.79C70.0024 116.917 67.3572 114.824 63.894 113.806C60.2769 112.743 55.833 112.882 51.4406 114.537C47.0481 116.191 43.6166 119.018 41.5999 122.204C39.669 125.253 39.0626 128.572 40.0303 131.545C45.5524 133.82 51.917 134.09 57.9499 131.817ZM69.1111 91.1407C72.9777 89.8456 75.3498 85.825 74.4991 81.7169C73.5805 77.2805 69.2515 74.422 64.8301 75.3322C60.7778 76.1664 58.0543 79.8765 58.3348 83.9054C62.4292 85.3811 66.149 87.8507 69.1111 91.1407ZM26.5075 95.2712C24.391 98.8126 23.1047 102.827 22.7963 106.988C18.8214 108.76 14.1408 107.131 12.1772 103.249C10.151 99.2428 11.7686 94.3227 15.8203 92.2692C19.6784 90.3138 24.3231 91.6776 26.5075 95.2712ZM86.4993 70.5663L81.9059 58.3723L99.6208 51.6993L104.214 63.8933L86.4993 70.5663ZM106.239 63.1304L101.646 50.9364L152.455 31.7973L157.048 43.9913L106.239 63.1304Z" fill="#FFE271"/>
    <path class="cart-bear__no-stroke" d="M107.927 133.59L107.793 133.64L108.498 135.512L108.632 135.461L107.927 133.59ZM59.0871 155.377L58.3821 153.506L56.5105 154.211L57.2155 156.082L59.0871 155.377ZM82.4443 217.384L80.5727 218.089L81.2777 219.96L83.1493 219.255L82.4443 217.384ZM215.272 167.349L215.977 169.22L217.83 168.522L217.15 166.662L215.272 167.349ZM209.004 150.199L210.876 149.494L207.126 150.885L209.004 150.199ZM192.083 105.279L193.955 104.574L193.25 102.702L191.378 103.407L192.083 105.279ZM110.305 133.763L108.433 134.468L109.138 136.339L111.01 135.634L110.305 133.763ZM180.853 107.188L181.558 109.059L183.43 108.354L182.725 106.483L180.853 107.188ZM157.814 46.0243L159.686 45.3193L158.98 43.4477L157.109 44.1527L157.814 46.0243ZM87.2651 72.5993L86.5601 70.7277L84.6885 71.4327L85.3935 73.3043L87.2651 72.5993ZM182.879 106.425L181.007 107.13L181.712 109.001L183.584 108.296L182.879 106.425ZM193.343 102.483L195.215 101.778L194.51 99.9063L192.638 100.611L193.343 102.483ZM211.786 151.444L209.915 152.149L210.62 154.021L212.491 153.316L211.786 151.444ZM223.672 146.967L224.377 148.839L223.498 144.975L223.672 146.967ZM223.261 147.003L221.337 146.459L220.548 149.247L223.435 148.995L223.261 147.003ZM249.248 55.1365L249.075 53.144L247.699 53.2638L247.324 54.5921L249.248 55.1365ZM251.405 54.9487L253.328 55.4965L254.123 52.7044L251.231 52.9562L251.405 54.9487ZM225.376 146.348L223.453 145.8L222.452 149.313L225.951 148.264L225.376 146.348ZM216.101 169.551L214.23 170.256L214.935 172.128L216.806 171.423L216.101 169.551ZM216.038 169.382L217.909 168.677L217.204 166.805L215.333 167.51L216.038 169.382ZM192.495 178.25L191.79 176.378L184.584 179.093L192.2 180.228L192.495 178.25ZM176.795 184.164L178.322 185.456L183.296 179.578L176.09 182.292L176.795 184.164ZM120.427 205.397L119.722 203.526L112.516 206.24L120.133 207.375L120.427 205.397ZM104.727 211.311L106.254 212.603L111.229 206.725L104.022 209.44L104.727 211.311ZM81.1848 220.179L79.3132 220.884L80.0182 222.756L81.8898 222.051L81.1848 220.179ZM58.0898 158.869L59.9614 158.164L57.8265 152.497L56.1664 158.321L58.0898 158.869ZM53.202 176.017L51.2786 175.469L53.202 176.017ZM36.4873 185.533L35.9748 187.466L35.9748 187.466L36.4873 185.533ZM26.6634 168.665L28.5984 169.171L26.6634 168.665ZM36.2195 132.096L38.1545 132.602L38.5433 131.114L37.205 130.356L36.2195 132.096ZM22.7269 109.343L24.7266 109.312L24.6854 106.582L22.0947 107.445L22.7269 109.343ZM10.2467 104.227L8.46198 105.13L10.2467 104.227ZM14.8397 90.3308L15.7439 92.1147L15.7439 92.1147L14.8397 90.3308ZM27.7958 93.3158L26.1953 94.5151L27.8238 96.6884L29.416 94.4883L27.7958 93.3158ZM56.1498 83.2222L55.6353 85.1549L58.1233 85.8173L58.1497 83.2427L56.1498 83.2222ZM64.3896 73.2051L63.9863 71.2461L64.3896 73.2051ZM76.6191 81.2804L78.5776 80.8749L76.6191 81.2804ZM70.5694 92.9091L69.7853 91.0693L67.4329 92.0719L68.9727 94.1134L70.5694 92.9091ZM75.2288 115.068L73.2827 114.607L76.9674 116.057L75.2288 115.068ZM75.3541 114.848L76.255 113.062L74.556 112.205L73.6154 113.859L75.3541 114.848ZM107.818 131.227L106.917 133.013L111.562 135.356L109.683 130.505L107.818 131.227ZM79.1148 57.1022L78.4098 55.2306L76.5209 55.9421L77.2497 57.8244L79.1148 57.1022ZM153.714 29.0014L155.586 28.2964L154.881 26.4247L153.009 27.1298L153.714 29.0014ZM74.7022 116.973L75.6971 115.238L73.5448 114.003L72.7956 116.369L74.7022 116.973ZM106.487 135.201L107.192 137.072L111.163 135.577L107.482 133.466L106.487 135.201ZM56.296 154.107L55.591 152.235L54.3525 153.635L56.296 154.107ZM51.12 175.415L53.0434 175.963L53.0542 175.926L53.0635 175.887L51.12 175.415ZM37.0359 183.434L37.5484 181.5L37.5484 181.5L37.0359 183.434ZM28.758 169.221L30.6931 169.726L30.6931 169.726L28.758 169.221ZM38.1946 133.109L39.0326 131.293L36.8635 130.292L36.2596 132.603L38.1946 133.109ZM217.53 166.692L215.658 167.397L216.363 169.268L218.235 168.563L217.53 166.692ZM212.552 153.477L211.847 151.606L209.975 152.311L210.68 154.182L212.552 153.477ZM72.3224 117.243L70.6432 118.329L72.8334 121.714L74.2034 117.922L72.3224 117.243ZM64.4983 111.722L65.0623 109.803L65.0623 109.803L64.4983 111.722ZM39.7711 121.037L38.0813 119.967L38.0813 119.967L39.7711 121.037ZM37.5338 130.347L36.5686 132.099L40.0998 134.044L39.5124 130.056L37.5338 130.347ZM71.2363 119.79L73.029 120.676L73.4385 119.849L73.0739 119L71.2363 119.79ZM63.894 113.806L63.33 115.725L63.33 115.725L63.894 113.806ZM41.5999 122.204L43.2897 123.274L43.2897 123.274L41.5999 122.204ZM40.0303 131.545L38.1286 132.164L38.4144 133.042L39.2683 133.394L40.0303 131.545ZM74.4991 81.7169L72.5407 82.1224L74.4991 81.7169ZM69.1111 91.1407L67.6247 92.4789L68.5024 93.4538L69.7463 93.0371L69.1111 91.1407ZM64.8301 75.3322L64.4268 73.3733L64.8301 75.3322ZM58.3348 83.9054L56.3396 84.0444L56.4302 85.3449L57.6567 85.787L58.3348 83.9054ZM22.7963 106.988L23.6106 108.814L24.7024 108.328L24.7908 107.136L22.7963 106.988ZM26.5075 95.2712L28.2243 96.2972L28.8427 95.2625L28.2166 94.2324L26.5075 95.2712ZM12.1772 103.249L13.9619 102.346L12.1772 103.249ZM15.8203 92.2692L16.7244 94.0532L16.7244 94.0532L15.8203 92.2692ZM81.9059 58.3723L81.2009 56.5007L79.3293 57.2057L80.0343 59.0773L81.9059 58.3723ZM86.4993 70.5663L84.6277 71.2713L85.3327 73.1429L87.2043 72.4379L86.4993 70.5663ZM99.6208 51.6993L101.492 50.9943L100.787 49.1227L98.9158 49.8277L99.6208 51.6993ZM104.214 63.8933L104.919 65.7649L106.791 65.0599L106.086 63.1883L104.214 63.8933ZM101.646 50.9364L100.941 49.0648L99.0695 49.7698L99.7745 51.6414L101.646 50.9364ZM106.239 63.1304L104.368 63.8354L105.073 65.707L106.944 65.002L106.239 63.1304ZM152.455 31.7973L154.326 31.0923L153.621 29.2207L151.75 29.9257L152.455 31.7973ZM157.048 43.9913L157.753 45.8629L159.625 45.1579L158.92 43.2863L157.048 43.9913ZM84.3159 216.679L60.9588 154.672L57.2155 156.082L80.5727 218.089L84.3159 216.679ZM211.632 151.502L210.876 149.494L207.133 150.904L207.889 152.912L211.632 151.502ZM190.212 105.984L207.889 152.912L211.632 151.502L193.955 104.574L190.212 105.984ZM111.01 135.634L181.558 109.059L180.148 105.316L109.6 131.891L111.01 135.634ZM182.725 106.483L159.686 45.3193L155.942 46.7293L178.982 107.893L182.725 106.483ZM85.3935 73.3043L108.433 134.468L112.176 133.058L89.1367 71.8943L85.3935 73.3043ZM222.967 145.096L211.081 149.573L212.491 153.316L224.377 148.839L222.967 145.096ZM223.435 148.995L223.845 148.96L223.498 144.975L223.088 145.01L223.435 148.995ZM247.324 54.5921L221.337 146.459L225.186 147.547L251.173 55.6809L247.324 54.5921ZM251.231 52.9562L249.075 53.144L249.422 57.129L251.578 56.9412L251.231 52.9562ZM227.3 146.896L253.328 55.4965L249.481 54.4009L223.453 145.8L227.3 146.896ZM238.283 151.136C236.225 145.671 230.309 142.78 224.802 144.432L225.951 148.264C229.446 147.215 233.223 149.05 234.54 152.546L238.283 151.136ZM238.411 151.475L238.283 151.136L234.54 152.546L234.668 152.885L238.411 151.475ZM231.996 165.701C237.697 163.553 240.56 157.18 238.411 151.475L234.668 152.885C236.043 156.536 234.207 160.594 230.586 161.958L231.996 165.701ZM214.166 170.087L214.23 170.256L217.973 168.846L217.909 168.677L214.166 170.087ZM193.2 180.122L216.743 171.253L215.333 167.51L191.79 176.378L193.2 180.122ZM208.08 188.63C205.508 181.803 199.508 177.273 192.79 176.272L192.2 180.228C197.535 181.023 202.295 184.62 204.337 190.04L208.08 188.63ZM196.837 213.574C206.826 209.811 211.85 198.639 208.08 188.63L204.337 190.04C207.333 197.995 203.335 206.851 195.427 209.83L196.837 213.574ZM171.932 202.246C175.702 212.256 186.848 217.336 196.837 213.574L195.427 209.83C187.519 212.809 178.671 208.792 175.675 200.836L171.932 202.246ZM175.268 182.872C170.881 188.056 169.36 195.419 171.932 202.246L175.675 200.836C173.633 195.416 174.837 189.573 178.322 185.456L175.268 182.872ZM121.132 207.269L177.5 186.036L176.09 182.292L119.722 203.526L121.132 207.269ZM136.012 215.777C133.441 208.95 127.44 204.42 120.722 203.419L120.133 207.375C125.468 208.17 130.227 211.767 132.269 217.187L136.012 215.777ZM124.769 240.721C134.758 236.958 139.783 225.786 136.012 215.777L132.269 217.187C135.266 225.142 131.268 233.999 123.359 236.978L124.769 240.721ZM99.8638 229.394C103.634 239.403 114.781 244.483 124.769 240.721L123.359 236.978C115.451 239.956 106.604 235.939 103.607 227.984L99.8638 229.394ZM103.201 210.019C98.813 215.204 97.2921 222.567 99.8638 229.394L103.607 227.984C101.565 222.564 102.769 216.721 106.254 212.603L103.201 210.019ZM55.1254 176.565L60.0132 159.417L56.1664 158.321L51.2786 175.469L55.1254 176.565ZM35.9748 187.466C44.2666 189.664 52.7727 184.819 55.1254 176.565L51.2786 175.469C49.5224 181.63 43.1801 185.238 36.9999 183.6L35.9748 187.466ZM24.7284 168.16C22.5254 176.59 27.5569 185.234 35.9748 187.466L36.9999 183.6C30.7165 181.934 26.9514 175.474 28.5984 169.171L24.7284 168.16ZM34.2844 131.59L24.7284 168.16L28.5984 169.171L38.1545 132.602L34.2844 131.59ZM22.5684 119.028C25.0247 125.549 29.6103 130.652 35.2339 133.836L37.205 130.356C32.3661 127.615 28.4258 123.231 26.3116 117.618L22.5684 119.028ZM20.7271 109.373C20.7757 112.59 21.3713 115.851 22.5684 119.028L26.3116 117.618C25.2795 114.878 24.7684 112.074 24.7266 109.312L20.7271 109.373ZM8.46198 105.13C11.2609 110.663 17.657 113.14 23.3591 111.24L22.0947 107.445C18.2282 108.733 13.9133 107.045 12.0313 103.324L8.46198 105.13ZM13.9356 88.5468C7.86159 91.6253 5.38157 99.0398 8.46198 105.13L12.0313 103.324C9.95829 99.2259 11.6179 94.2059 15.7439 92.1147L13.9356 88.5468ZM29.3963 92.1165C25.8668 87.4063 19.3599 85.7975 13.9356 88.5468L15.7439 92.1147C19.4229 90.25 23.8215 91.3472 26.1953 94.5151L29.3963 92.1165ZM39.2484 82.17C33.806 84.2201 29.3506 87.7561 26.1756 92.1432L29.416 94.4883C32.1454 90.717 35.9724 87.6784 40.6584 85.9132L39.2484 82.17ZM56.6644 81.2895C51.103 79.8089 45.041 79.988 39.2484 82.17L40.6584 85.9132C45.645 84.0348 50.853 83.8816 55.6353 85.1549L56.6644 81.2895ZM63.9863 71.2461C58.1937 72.4386 54.2083 77.5161 54.1499 83.2016L58.1497 83.2427C58.1893 79.3912 60.8918 75.967 64.7928 75.164L63.9863 71.2461ZM78.5776 80.8749C77.1933 74.1897 70.6663 69.8711 63.9863 71.2461L64.7928 75.164C69.2975 74.2367 73.7212 77.149 74.6607 81.686L78.5776 80.8749ZM71.3536 94.749C76.6507 92.4914 79.792 86.7399 78.5776 80.8749L74.6607 81.686C75.4834 85.6594 73.3551 89.5478 69.7853 91.0693L71.3536 94.749ZM76.1008 98.8632C75.112 96.2381 73.777 93.8406 72.1662 91.7049L68.9727 94.1134C70.3559 95.9475 71.5047 98.0093 72.3576 100.273L76.1008 98.8632ZM77.1749 115.53C78.4439 110.175 78.1851 104.396 76.1008 98.8632L72.3576 100.273C74.1524 105.038 74.3738 110.004 73.2827 114.607L77.1749 115.53ZM73.6154 113.859L73.4901 114.08L76.9674 116.057L77.0927 115.836L73.6154 113.859ZM108.719 129.442L76.255 113.062L74.4532 116.633L106.917 133.013L108.719 129.442ZM72.7956 116.369C70.595 123.316 65.3511 129.213 58.0107 131.978L59.4208 135.722C67.9572 132.506 74.0541 125.642 76.6088 117.577L72.7956 116.369ZM107.482 133.466L75.6971 115.238L73.7072 118.708L105.492 136.936L107.482 133.466ZM53.0635 175.887L58.2395 154.579L54.3525 153.635L49.1765 174.943L53.0635 175.887ZM36.5233 185.367C43.6763 187.263 51.0141 183.083 53.0434 175.963L49.1966 174.867C47.7638 179.894 42.5898 182.837 37.5484 181.5L36.5233 185.367ZM26.823 168.715C24.923 175.986 29.2623 183.442 36.5233 185.367L37.5484 181.5C32.4219 180.141 29.349 174.87 30.6931 169.726L26.823 168.715ZM36.2596 132.603L26.823 168.715L30.6931 169.726L40.1296 133.614L36.2596 132.603ZM58.0107 131.978C51.5946 134.395 44.8061 133.957 39.0326 131.293L37.3566 134.925C44.0623 138.019 51.9619 138.531 59.4208 135.722L58.0107 131.978ZM183.94 179.335C175.07 182.677 170.609 192.597 173.957 201.483L177.7 200.073C175.126 193.241 178.561 185.636 185.35 183.079L183.94 179.335ZM206.055 189.393C202.707 180.506 192.81 175.994 183.94 179.335L185.35 183.079C192.14 180.521 199.738 183.97 202.311 190.803L206.055 189.393ZM196.071 211.541C204.942 208.199 209.402 198.279 206.055 189.393L202.311 190.803C204.885 197.635 201.451 205.24 194.661 207.797L196.071 211.541ZM173.957 201.483C177.304 210.37 187.201 214.882 196.071 211.541L194.661 207.797C187.872 210.355 180.274 206.906 177.7 200.073L173.957 201.483ZM105.632 227.221C103.059 220.388 106.493 212.783 113.282 210.226L111.872 206.483C103.002 209.824 98.5416 219.744 101.889 228.631L105.632 227.221ZM122.594 234.945C115.804 237.502 108.206 234.053 105.632 227.221L101.889 228.631C105.237 237.517 115.133 242.029 124.004 238.688L122.594 234.945ZM130.244 217.95C132.817 224.782 129.383 232.387 122.594 234.945L124.004 238.688C132.874 235.346 137.334 225.426 133.987 216.54L130.244 217.95ZM113.282 210.226C120.072 207.668 127.67 211.117 130.244 217.95L133.987 216.54C130.639 207.653 120.743 203.141 111.872 206.483L113.282 210.226ZM224.843 146.71L211.847 151.606L213.257 155.349L226.253 150.453L224.843 146.71ZM236.258 151.899C234.532 147.316 229.425 144.984 224.843 146.71L226.253 150.453C228.755 149.511 231.562 150.78 232.515 153.309L236.258 151.899ZM236.386 152.238L236.258 151.899L232.515 153.309L232.642 153.648L236.386 152.238ZM231.231 163.668C235.813 161.942 238.112 156.82 236.386 152.238L232.642 153.648C233.595 156.176 232.322 158.982 229.821 159.925L231.231 163.668ZM218.235 168.563L231.231 163.668L229.821 159.925L216.825 164.82L218.235 168.563ZM74.2034 117.922C76.2678 112.209 76.3839 105.754 74.0755 99.6262L70.3323 101.036C72.2924 106.24 72.1943 111.711 70.4414 116.563L74.2034 117.922ZM63.9343 113.641C66.8547 114.499 69.2179 116.126 70.6432 118.329L74.0015 116.156C71.9576 112.997 68.7113 110.876 65.0623 109.803L63.9343 113.641ZM51.3798 114.375C55.8007 112.71 60.28 112.567 63.9343 113.641L65.0623 109.803C60.4985 108.462 55.1269 108.689 49.9697 110.632L51.3798 114.375ZM41.4609 122.106C43.4984 118.888 46.9588 116.04 51.3798 114.375L49.9697 110.632C44.8125 112.575 40.6258 115.948 38.0813 119.967L41.4609 122.106ZM39.5124 130.056C39.1302 127.46 39.8327 124.678 41.4609 122.106L38.0813 119.967C36.0468 123.18 35.0069 126.916 35.5551 130.639L39.5124 130.056ZM24.5937 118.265C26.902 124.393 31.2476 129.167 36.5686 132.099L38.4989 128.595C33.9807 126.106 30.297 122.059 28.3369 116.855L24.5937 118.265ZM40.0142 84.203C26.3429 89.3528 19.4489 104.608 24.5937 118.265L28.3369 116.855C23.9703 105.263 29.8219 92.3167 41.4243 87.9462L40.0142 84.203ZM74.0755 99.6262C68.9308 85.9684 53.6856 79.0531 40.0142 84.203L41.4243 87.9462C53.0266 83.5757 65.9656 89.4441 70.3323 101.036L74.0755 99.6262ZM69.4437 118.903C67.0112 123.82 62.7851 127.858 57.2449 129.945L58.6549 133.689C65.1806 131.23 70.165 126.466 73.029 120.676L69.4437 118.903ZM63.33 115.725C66.3561 116.614 68.4501 118.371 69.3987 120.579L73.0739 119C71.5546 115.464 68.3583 113.033 64.458 111.887L63.33 115.725ZM52.1456 116.408C56.1697 114.892 60.1675 114.795 63.33 115.725L64.458 111.887C60.3863 110.69 55.4962 110.872 50.7355 112.665L52.1456 116.408ZM43.2897 123.274C45.053 120.488 48.1214 117.924 52.1456 116.408L50.7355 112.665C45.9748 114.458 42.1803 117.548 39.9101 121.134L43.2897 123.274ZM41.9321 130.925C41.1881 128.64 41.6025 125.938 43.2897 123.274L39.9101 121.134C37.7355 124.569 36.937 128.504 38.1286 132.164L41.9321 130.925ZM57.2449 129.945C51.7047 132.032 45.8645 131.786 40.7924 129.695L39.2683 133.394C45.2402 135.855 52.1293 136.147 58.6549 133.689L57.2449 129.945ZM72.5407 82.1224C73.1847 85.2326 71.3882 88.2687 68.4759 89.2442L69.7463 93.0371C74.5671 91.4224 77.5149 86.4174 76.4576 81.3113L72.5407 82.1224ZM65.2333 77.2911C68.5671 76.6048 71.8445 78.7602 72.5407 82.1224L76.4576 81.3113C75.3165 75.8009 69.9359 72.2392 64.4268 73.3733L65.2333 77.2911ZM60.33 83.7665C60.1177 80.718 62.1806 77.9195 65.2333 77.2911L64.4268 73.3733C59.3751 74.4132 55.9909 79.035 56.3396 84.0444L60.33 83.7665ZM70.5974 89.8025C67.4114 86.2636 63.4124 83.6095 59.0129 82.0239L57.6567 85.787C61.446 87.1526 64.8867 89.4377 67.6247 92.4789L70.5974 89.8025ZM24.7908 107.136C25.076 103.288 26.2656 99.5745 28.2243 96.2972L24.7908 94.2452C22.5163 98.0507 21.1335 102.365 20.8017 106.84L24.7908 107.136ZM10.3925 104.151C12.8444 108.999 18.6755 111.015 23.6106 108.814L21.9819 105.161C18.9672 106.505 15.4373 105.263 13.9619 102.346L10.3925 104.151ZM14.9161 90.4853C9.88934 93.033 7.86322 99.1509 10.3925 104.151L13.9619 102.346C12.4388 99.3346 13.648 95.6125 16.7244 94.0532L14.9161 90.4853ZM28.2166 94.2324C25.4888 89.7448 19.705 88.0581 14.9161 90.4853L16.7244 94.0532C19.6518 92.5695 23.1575 93.6103 24.7985 96.31L28.2166 94.2324ZM147.921 86.3186C150.748 93.8237 146.998 102.133 139.62 104.913L141.03 108.656C150.506 105.087 155.259 94.4511 151.664 84.9085L147.921 86.3186ZM129.416 77.822C136.794 75.0428 145.094 78.8135 147.921 86.3186L151.664 84.9085C148.069 75.366 137.481 70.5096 128.006 74.0787L129.416 77.822ZM121.115 96.4159C118.288 88.9108 122.038 80.6012 129.416 77.822L128.006 74.0787C118.531 77.6479 113.778 88.2834 117.372 97.8259L121.115 96.4159ZM139.62 104.913C132.243 107.692 123.942 103.921 121.115 96.4159L117.372 97.8259C120.967 107.369 131.555 112.225 141.03 108.656L139.62 104.913ZM149.946 85.5557C153.193 94.1746 148.892 103.742 140.386 106.946L141.796 110.689C152.4 106.695 157.703 94.8013 153.689 84.1456L149.946 85.5557ZM128.65 75.789C137.155 72.5851 146.699 76.9367 149.946 85.5557L153.689 84.1456C149.675 73.4899 137.843 68.0516 127.24 72.0457L128.65 75.789ZM119.09 97.1788C115.843 88.5599 120.144 78.9929 128.65 75.789L127.24 72.0457C116.637 76.0399 111.333 87.9332 115.347 98.5889L119.09 97.1788ZM140.386 106.946C131.881 110.149 122.337 105.798 119.09 97.1788L115.347 98.5889C119.361 109.245 131.193 114.683 141.796 110.689L140.386 106.946ZM80.0343 59.0773L84.6277 71.2713L88.3709 69.8613L83.7776 57.6673L80.0343 59.0773ZM98.9158 49.8277L81.2009 56.5007L82.611 60.2439L100.326 53.5709L98.9158 49.8277ZM106.086 63.1883L101.492 50.9943L97.7492 52.4043L102.343 64.5983L106.086 63.1883ZM87.2043 72.4379L104.919 65.7649L103.509 62.0217L85.7943 68.6947L87.2043 72.4379ZM99.7745 51.6414L104.368 63.8354L108.111 62.4254L103.518 50.2314L99.7745 51.6414ZM151.75 29.9257L100.941 49.0648L102.351 52.808L153.16 33.6689L151.75 29.9257ZM158.92 43.2863L154.326 31.0923L150.583 32.5023L155.176 44.6963L158.92 43.2863ZM106.944 65.002L157.753 45.8629L156.343 42.1197L105.534 61.2588L106.944 65.002ZM59.7922 157.249L192.788 107.15L191.378 103.407L58.3821 153.506L59.7922 157.249ZM214.567 165.477L81.7393 215.512L83.1493 219.255L215.977 169.22L214.567 165.477ZM207.126 150.885L213.393 168.035L217.15 166.662L210.883 149.512L207.126 150.885ZM157.109 44.1527L86.5601 70.7277L87.9701 74.4709L158.519 47.8959L157.109 44.1527ZM192.638 100.611L182.174 104.553L183.584 108.296L194.048 104.355L192.638 100.611ZM213.658 150.739L195.215 101.778L191.471 103.188L209.915 152.149L213.658 150.739ZM216.806 171.423L231.996 165.701L230.586 161.958L215.396 167.68L216.806 171.423ZM81.8898 222.051L105.432 213.183L104.022 209.44L80.4798 218.308L81.8898 222.051ZM56.2182 159.574L79.3132 220.884L83.0564 219.474L59.9614 158.164L56.2182 159.574ZM109.683 130.505L80.9799 56.38L77.2497 57.8244L105.953 131.949L109.683 130.505ZM79.8198 58.9738L154.419 30.873L153.009 27.1298L78.4098 55.2306L79.8198 58.9738ZM151.843 29.7064L181.007 107.13L184.75 105.72L155.586 28.2964L151.843 29.7064ZM57.001 155.979L107.192 137.072L105.782 133.329L55.591 152.235L57.001 155.979ZM210.68 154.182L215.658 167.397L219.401 165.987L214.424 152.772L210.68 154.182Z" fill="#FFE271" mask="url(#path-5-outside-1_25019_41667)"/>
</svg>