<svg class="image box-heart" width="233" height="274" viewBox="0 0 233 274" fill="none" xmlns="http://www.w3.org/2000/svg">
    <path class="box-heart__box" d="M4 270V122H229V270H4Z" stroke="#FFE271" stroke-width="8"/>
    <path class="box-heart__text" d="M62.684 201V187.116H75.996V201H72.772V189.118L73.526 189.872H65.18L65.934 189.118V201H62.684ZM86.5693 201.182C85.1479 201.182 83.8826 200.879 82.7733 200.272C81.6639 199.648 80.7886 198.799 80.1473 197.724C79.5059 196.649 79.1853 195.427 79.1853 194.058C79.1853 192.671 79.5059 191.449 80.1473 190.392C80.7886 189.317 81.6639 188.477 82.7733 187.87C83.8826 187.263 85.1479 186.96 86.5693 186.96C88.0079 186.96 89.2819 187.263 90.3913 187.87C91.5179 188.477 92.3933 189.309 93.0173 190.366C93.6586 191.423 93.9793 192.654 93.9793 194.058C93.9793 195.427 93.6586 196.649 93.0173 197.724C92.3933 198.799 91.5179 199.648 90.3913 200.272C89.2819 200.879 88.0079 201.182 86.5693 201.182ZM86.5693 198.4C87.3666 198.4 88.0773 198.227 88.7013 197.88C89.3253 197.533 89.8106 197.031 90.1573 196.372C90.5213 195.713 90.7033 194.942 90.7033 194.058C90.7033 193.157 90.5213 192.385 90.1573 191.744C89.8106 191.085 89.3253 190.583 88.7013 190.236C88.0773 189.889 87.3753 189.716 86.5953 189.716C85.7979 189.716 85.0873 189.889 84.4633 190.236C83.8566 190.583 83.3713 191.085 83.0073 191.744C82.6433 192.385 82.4613 193.157 82.4613 194.058C82.4613 194.942 82.6433 195.713 83.0073 196.372C83.3713 197.031 83.8566 197.533 84.4633 197.88C85.0873 198.227 85.7893 198.4 86.5693 198.4ZM97.1899 201V187.116H100.596L106.186 196.97H104.834L110.71 187.116H113.752L113.778 201H110.84V190.6L111.36 190.938L106.16 199.544H104.756L99.5299 190.704L100.154 190.548V201H97.1899ZM124.325 201.182C122.904 201.182 121.638 200.879 120.529 200.272C119.42 199.648 118.544 198.799 117.903 197.724C117.262 196.649 116.941 195.427 116.941 194.058C116.941 192.671 117.262 191.449 117.903 190.392C118.544 189.317 119.42 188.477 120.529 187.87C121.638 187.263 122.904 186.96 124.325 186.96C125.764 186.96 127.038 187.263 128.147 187.87C129.274 188.477 130.149 189.309 130.773 190.366C131.414 191.423 131.735 192.654 131.735 194.058C131.735 195.427 131.414 196.649 130.773 197.724C130.149 198.799 129.274 199.648 128.147 200.272C127.038 200.879 125.764 201.182 124.325 201.182ZM124.325 198.4C125.122 198.4 125.833 198.227 126.457 197.88C127.081 197.533 127.566 197.031 127.913 196.372C128.277 195.713 128.459 194.942 128.459 194.058C128.459 193.157 128.277 192.385 127.913 191.744C127.566 191.085 127.081 190.583 126.457 190.236C125.833 189.889 125.131 189.716 124.351 189.716C123.554 189.716 122.843 189.889 122.219 190.236C121.612 190.583 121.127 191.085 120.763 191.744C120.399 192.385 120.217 193.157 120.217 194.058C120.217 194.942 120.399 195.713 120.763 196.372C121.127 197.031 121.612 197.533 122.219 197.88C122.843 198.227 123.545 198.4 124.325 198.4ZM144.28 198.244L143.578 199.024V187.116H146.828V199.024L146.048 198.244H152.912L152.158 199.024V187.116H155.408V201H134.946V187.116H138.196V199.024L137.442 198.244H144.28ZM154.368 203.86V200.194L155.122 201H152.054V198.244H157.41V203.86H154.368ZM166.746 191.692C168.531 191.692 169.892 192.091 170.828 192.888C171.764 193.685 172.232 194.812 172.232 196.268C172.232 197.776 171.712 198.955 170.672 199.804C169.632 200.636 168.167 201.043 166.278 201.026L159.778 201V187.116H163.028V191.666L166.746 191.692ZM165.992 198.634C166.945 198.651 167.673 198.452 168.176 198.036C168.678 197.62 168.93 197.013 168.93 196.216C168.93 195.419 168.678 194.847 168.176 194.5C167.69 194.136 166.962 193.945 165.992 193.928L163.028 193.902V198.608L165.992 198.634Z" fill="#FFE271"/>
    <rect class="box-heart__button" x="35" y="167" width="164" height="57" rx="28.5" stroke="#FFE271" stroke-width="8"/>
    <path class="box-heart__heart" d="M145.547 122.121C181.175 102.72 207.106 77.9665 207.115 49.4778C207.126 15.5342 178.752 2.3785 156.66 5.17708C134.569 7.97566 110.178 41.8876 110.178 41.8876C110.178 41.8876 78.815 5.024 49.6579 24.3316C32.3489 35.7935 29.2456 63.6385 43.2984 86.9723C51.933 101.31 64.2609 111.959 78.3413 122.121" stroke="#FFE271" stroke-width="8"/>
</svg>