<svg width="326" height="409" viewBox="0 0 326 409" fill="none" xmlns="http://www.w3.org/2000/svg">
    <path d="M111.322 105.743C111.322 105.743 135.422 111.364 182.578 112.405C229.733 113.445 274.445 104.181 286.326 75.4594C296.925 49.8362 279.608 31.0507 262.056 26.2704C244.505 21.4901 215.509 39.4823 215.509 39.4823C215.509 39.4823 203.333 1.86518 175.296 7.34419C158.652 10.5968 147.62 30.6508 150.949 52.652C153.431 69.0585 161.715 83.0615 171.397 97.8974C181.079 112.733 207.359 154.717 227.983 178.194" stroke="#FF5400" stroke-width="12"/>
    <path d="M157.513 341.172L185.3 364.732L203.975 348.918L218.907 401.323L303.368 377.257L288.435 324.852L310.042 329.187L317.989 295.445L269.508 275.683L257.164 279.201C257.164 279.201 247.643 295.853 234.679 298.898C222.556 301.747 205.188 294.011 205.188 294.011L189.595 298.454L157.513 341.172Z" stroke="#FF5400" stroke-width="12"/>
    <path d="M35.0942 265.513L143.769 234.547L150.345 257.628L41.6711 288.594L35.0942 265.513Z" stroke="#FF5400" stroke-width="12"/>
    <path d="M133.524 227.797L136.072 236.74L42.7852 263.322L40.2368 254.378C33.8368 231.918 42.1821 208.007 62.0533 198.727C66.2355 196.774 70.151 195.215 73.5345 194.251C76.918 193.287 81.067 192.548 85.6505 192.003C107.428 189.415 127.124 205.336 133.524 227.797Z" stroke="#FF5400" stroke-width="12"/>
    <rect x="47.8052" y="156.87" width="32" height="32" rx="16" transform="rotate(-15.9046 47.8052 156.87)" stroke="#FF5400" stroke-width="12"/>
</svg>