<svg class="image box-wash" width="278" height="282" viewBox="0 0 278 282" fill="none" xmlns="http://www.w3.org/2000/svg">
    <path class="box-wash__box" d="M4 95L42.452 149.315M42.452 149.315V278H238.056V149.315M42.452 149.315H238.056M238.056 149.315L274 95" stroke="#FFE271" stroke-width="8"/>
    <path class="box-wash__text" d="M86.184 221.5V207.616H99.496V221.5H96.272V209.618L97.026 210.372H88.68L89.434 209.618V221.5H86.184ZM110.069 221.682C108.648 221.682 107.383 221.379 106.273 220.772C105.164 220.148 104.289 219.299 103.647 218.224C103.006 217.149 102.685 215.927 102.685 214.558C102.685 213.171 103.006 211.949 103.647 210.892C104.289 209.817 105.164 208.977 106.273 208.37C107.383 207.763 108.648 207.46 110.069 207.46C111.508 207.46 112.782 207.763 113.891 208.37C115.018 208.977 115.893 209.809 116.517 210.866C117.159 211.923 117.479 213.154 117.479 214.558C117.479 215.927 117.159 217.149 116.517 218.224C115.893 219.299 115.018 220.148 113.891 220.772C112.782 221.379 111.508 221.682 110.069 221.682ZM110.069 218.9C110.867 218.9 111.577 218.727 112.201 218.38C112.825 218.033 113.311 217.531 113.657 216.872C114.021 216.213 114.203 215.442 114.203 214.558C114.203 213.657 114.021 212.885 113.657 212.244C113.311 211.585 112.825 211.083 112.201 210.736C111.577 210.389 110.875 210.216 110.095 210.216C109.298 210.216 108.587 210.389 107.963 210.736C107.357 211.083 106.871 211.585 106.507 212.244C106.143 212.885 105.961 213.657 105.961 214.558C105.961 215.442 106.143 216.213 106.507 216.872C106.871 217.531 107.357 218.033 107.963 218.38C108.587 218.727 109.289 218.9 110.069 218.9ZM120.69 221.5V207.616H124.096L129.686 217.47H128.334L134.21 207.616H137.252L137.278 221.5H134.34V211.1L134.86 211.438L129.66 220.044H128.256L123.03 211.204L123.654 211.048V221.5H120.69ZM147.825 221.682C146.404 221.682 145.138 221.379 144.029 220.772C142.92 220.148 142.044 219.299 141.403 218.224C140.762 217.149 140.441 215.927 140.441 214.558C140.441 213.171 140.762 211.949 141.403 210.892C142.044 209.817 142.92 208.977 144.029 208.37C145.138 207.763 146.404 207.46 147.825 207.46C149.264 207.46 150.538 207.763 151.647 208.37C152.774 208.977 153.649 209.809 154.273 210.866C154.914 211.923 155.235 213.154 155.235 214.558C155.235 215.927 154.914 217.149 154.273 218.224C153.649 219.299 152.774 220.148 151.647 220.772C150.538 221.379 149.264 221.682 147.825 221.682ZM147.825 218.9C148.622 218.9 149.333 218.727 149.957 218.38C150.581 218.033 151.066 217.531 151.413 216.872C151.777 216.213 151.959 215.442 151.959 214.558C151.959 213.657 151.777 212.885 151.413 212.244C151.066 211.585 150.581 211.083 149.957 210.736C149.333 210.389 148.631 210.216 147.851 210.216C147.054 210.216 146.343 210.389 145.719 210.736C145.112 211.083 144.627 211.585 144.263 212.244C143.899 212.885 143.717 213.657 143.717 214.558C143.717 215.442 143.899 216.213 144.263 216.872C144.627 217.531 145.112 218.033 145.719 218.38C146.343 218.727 147.045 218.9 147.825 218.9ZM167.78 218.744L167.078 219.524V207.616H170.328V219.524L169.548 218.744H176.412L175.658 219.524V207.616H178.908V221.5H158.446V207.616H161.696V219.524L160.942 218.744H167.78ZM177.868 224.36V220.694L178.622 221.5H175.554V218.744H180.91V224.36H177.868ZM190.246 212.192C192.031 212.192 193.392 212.591 194.328 213.388C195.264 214.185 195.732 215.312 195.732 216.768C195.732 218.276 195.212 219.455 194.172 220.304C193.132 221.136 191.667 221.543 189.778 221.526L183.278 221.5V207.616H186.528V212.166L190.246 212.192ZM189.492 219.134C190.445 219.151 191.173 218.952 191.676 218.536C192.178 218.12 192.43 217.513 192.43 216.716C192.43 215.919 192.178 215.347 191.676 215C191.19 214.636 190.462 214.445 189.492 214.428L186.528 214.402V219.108L189.492 219.134Z" fill="#FFE271"/>
    <rect class="box-wash__button" x="70" y="190" width="141" height="48" rx="24" stroke="#FFE271" stroke-width="8"/>
    <circle class="box-wash__wash-circle-big" cx="139.11" cy="97.066" r="35.7538" transform="rotate(-30.3136 139.11 97.066)" stroke="#FFE271" stroke-width="8"/>
    <circle class="box-wash__wash-circle-small" cx="138.894" cy="96.7034" r="21.1077" transform="rotate(-30.3136 138.894 96.7034)" stroke="#FFE271" stroke-width="8"/>
    <path class="box-wash__wash" d="M66.4939 76.5039L56.1445 58.8027L80.7094 44.4404M66.4939 76.5039L91.0587 62.1415M66.4939 76.5039L108.702 148.696L161.896 148.696L212.566 119.071L156.806 23.7012M156.806 23.7012L146.457 6.00001L80.7094 44.4404M156.806 23.7012L91.0587 62.1415M80.7094 44.4404L91.0587 62.1415" stroke="#FFE271" stroke-width="8"/>
</svg>
