<svg width="280" height="219" viewBox="0 0 280 219" fill="none" xmlns="http://www.w3.org/2000/svg">
<path d="M217.018 80.3144C205.576 77.3475 193.981 75.2245 182.375 74.4836C170.775 73.7061 159.18 74.2012 147.839 76.1392C136.497 78.064 125.423 81.4274 114.79 86.0466C104.158 90.6769 93.9808 96.5609 84.2205 103.29L71.5842 112L66.4272 97.4789C63.4209 88.8474 60.0522 80.6521 55.9484 72.9209C51.8424 65.2075 47.0291 57.9968 41.4521 51.4893C35.8761 44.9841 29.5663 39.1577 22.579 34.2007C19.0897 31.7167 15.4579 29.4176 11.6879 27.3256C7.90357 25.2579 3.99655 23.3819 0 21.6686L9.05966 7.62939e-06C13.7868 2.03773 18.4387 4.29144 22.9758 6.79541C27.4995 9.32485 31.895 12.1212 36.127 15.1579C44.6042 21.219 52.3287 28.3909 59.0762 36.3226C65.8304 44.2542 71.5743 52.96 76.3545 62.0213C81.1302 71.0837 82.9629 76.6215 82.9629 76.6215C82.9629 76.6215 93.3718 70.1467 105.586 64.7899C117.795 59.442 130.726 55.4662 143.955 53.1882C157.183 50.8913 170.667 50.2932 183.943 51.1515C197.239 51.9699 210.295 54.3355 223 57.5981L217.018 80.3144Z" fill="#FF5400"/>
<path d="M127.112 132C130.578 133.475 134 135.103 137.347 136.915C140.684 138.749 143.94 140.769 147.086 142.969C153.387 147.359 159.174 152.575 164.273 158.352C169.374 164.133 173.75 170.497 177.405 177.12C181.062 183.737 181.158 184.518 181.158 184.518C181.158 184.518 185.07 181.476 194.106 177.722C203.134 173.965 212.686 171.23 222.41 169.734C232.135 168.223 241.997 167.948 251.664 168.696C261.346 169.42 270.81 171.224 280 173.653L273.909 196.697C265.947 194.557 257.904 192.996 249.87 192.364C241.842 191.706 233.831 191.904 225.985 193.084C218.137 194.257 210.459 196.41 203.043 199.451C195.624 202.491 188.484 206.442 181.588 211.016L169.55 219L164.615 205.449C162.38 199.423 159.926 193.795 156.973 188.523C154.027 183.264 150.615 178.396 146.707 174.021C142.796 169.654 138.422 165.748 133.586 162.43C131.174 160.766 128.663 159.23 126.065 157.819C123.452 156.431 120.758 155.169 118 154.012L127.112 132Z" fill="#FF5400"/>
</svg>
