<svg width="614" height="453" viewBox="0 0 614 453" fill="none" xmlns="http://www.w3.org/2000/svg">
<path d="M146 150V55C146 49.4772 150.477 45 156 45H158.7H260.3H263C268.523 45 273 49.4772 273 55V58.2831" stroke="#FF5400" stroke-width="16"/>
<path d="M6 86L124.644 205.769M124.644 205.769V445H488.365V205.769M124.644 205.769H488.365M488.365 205.769L608 86" stroke="#FF5400" stroke-width="16"/>
<path d="M135 178.259C135 165.138 142.789 153.27 154.825 148.049C159.721 145.925 165.279 145.925 170.175 148.049C182.211 153.27 190 165.138 190 178.258V206H135V178.259Z" stroke="#FF5400" stroke-width="16"/>
<path d="M190 178.259C190 165.139 197.789 153.27 209.825 148.049C214.721 145.925 220.279 145.925 225.175 148.049C237.211 153.27 245 165.139 245 178.259V206H190V179.506V178.259Z" stroke="#FF5400" stroke-width="16"/>
<path d="M245 104C245 76.3858 267.386 54 295 54C322.614 54 345 76.3858 345 104V205H245V104Z" stroke="#FF5400" stroke-width="16"/>
<line x1="278.746" y1="119.797" x2="310.425" y2="105.693" stroke="#FF5400" stroke-width="16"/>
<line x1="278.746" y1="149.016" x2="310.425" y2="134.911" stroke="#FF5400" stroke-width="16"/>
<path d="M482 83.3095V206H346V83.3095C346 65.6364 360.327 51.3095 378 51.3095H381.067H389.067V43.3095V38.2143V30.2143H381.067H378.4C377.295 30.2143 376.4 29.3189 376.4 28.2143V10C376.4 8.89544 377.295 8 378.4 8H449.6C450.705 8 451.6 8.89543 451.6 10V28.2143C451.6 29.3189 450.705 30.2143 449.6 30.2143H446.933H438.933V38.2143V43.3095V51.3095H446.933H450C467.673 51.3095 482 65.6364 482 83.3095Z" stroke="#FF5400" stroke-width="16"/>
<path d="M237.272 375.103C237.272 375.103 258.618 372.181 297.287 358.366C335.956 344.551 369.432 323.121 370.159 296.079C370.807 271.955 350.882 262.069 335.122 263.64C319.362 265.21 301.381 288.851 301.381 288.851C301.381 288.851 279.778 262.058 258.683 275.228C246.161 283.047 243.429 302.778 252.98 319.627C260.102 332.192 271.194 340.999 283.682 350.049C296.171 359.099 330.601 385.056 354.675 397.729" stroke="#FF5400" stroke-width="12"/>
</svg>
