<svg width="64" height="64" viewBox="0 0 64 64" fill="none" xmlns="http://www.w3.org/2000/svg">
<path d="M62.9333 0H44.8C43.1026 0 41.4748 0.674284 40.2745 1.87452C39.0743 3.07475 38.4 4.70261 38.4 6.4C38.3969 7.34353 38.0812 8.25943 37.5022 9.00442C36.9232 9.7494 36.1136 10.2815 35.2 10.5173V7.09333C35.7431 6.4775 36.097 5.71803 36.2192 4.90607C36.3414 4.0941 36.2266 3.26412 35.8888 2.51573C35.551 1.76734 35.0044 1.13233 34.3146 0.686897C33.6248 0.241464 32.8211 0.00453186 32 0.00453186C31.1789 0.00453186 30.3752 0.241464 29.6854 0.686897C28.9956 1.13233 28.449 1.76734 28.1112 2.51573C27.7734 3.26412 27.6587 4.0941 27.7808 4.90607C27.903 5.71803 28.2569 6.4775 28.8 7.09333V10.5173C27.8864 10.2815 27.0768 9.7494 26.4978 9.00442C25.9188 8.25943 25.6031 7.34353 25.6 6.4C25.6 4.70261 24.9257 3.07475 23.7255 1.87452C22.5253 0.674284 20.8974 0 19.2 0H1.06667C0.78377 0 0.512459 0.112381 0.31242 0.312419C0.112381 0.512458 5.6193e-07 0.783769 5.6193e-07 1.06667C-0.000638569 2.59259 0.543945 4.06852 1.53555 5.22833C2.52716 6.38814 3.90052 7.15548 5.408 7.392C5.61762 8.73122 6.24703 9.9693 7.20553 10.9278C8.16403 11.8863 9.40211 12.5157 10.7413 12.7253C10.9779 14.2328 11.7452 15.6062 12.905 16.5978C14.0648 17.5894 15.5407 18.134 17.0667 18.1333H28.8V34.1333H20.2667C19.418 34.1333 18.604 33.7962 18.0039 33.1961C17.4038 32.596 17.0667 31.782 17.0667 30.9333C17.0667 30.0846 17.4038 29.2707 18.0039 28.6706C18.604 28.0705 19.418 27.7333 20.2667 27.7333H25.6C25.8829 27.7333 26.1542 27.621 26.3542 27.4209C26.5543 27.2209 26.6667 26.9496 26.6667 26.6667V24.5333C26.6675 24.393 26.6406 24.2538 26.5875 24.1238C26.5344 23.9939 26.4562 23.8757 26.3573 23.776L23.1573 20.576C23.0577 20.4771 22.9395 20.3989 22.8095 20.3458C22.6795 20.2928 22.5404 20.2659 22.4 20.2667H20.2667C17.6913 20.2731 15.2052 21.211 13.2674 22.9074C11.3296 24.6037 10.071 26.9438 9.72389 29.4957C9.37679 32.0476 9.96467 34.6389 11.379 36.7911C12.7933 38.9434 14.9386 40.5113 17.4187 41.2053C17.1876 42.0282 17.0691 42.8786 17.0667 43.7333C17.0675 45.6262 17.628 47.4766 18.6775 49.0518C19.727 50.627 21.2188 51.8569 22.9653 52.5867C22.7553 53.3513 22.6477 54.1404 22.6453 54.9333C22.6435 57.2764 23.5488 59.5293 25.1714 61.2195C26.7941 62.9098 29.0081 63.9063 31.3493 64H31.4667H31.712H32C34.3055 63.859 36.4709 62.8455 38.0559 61.1653C39.641 59.4852 40.5268 57.2645 40.5333 54.9547C40.5326 54.2577 40.4503 53.5632 40.288 52.8853C42.636 52.1249 44.6009 50.4894 45.7748 48.3184C46.9487 46.1475 47.2413 43.6078 46.592 41.2267C49.0914 40.5476 51.2583 38.9824 52.6884 36.8231C54.1185 34.6638 54.7141 32.0579 54.3642 29.4917C54.0142 26.9255 52.7424 24.5743 50.7863 22.8768C48.8302 21.1794 46.3232 20.2516 43.7333 20.2667H41.6C41.4596 20.2659 41.3205 20.2928 41.1905 20.3458C41.0605 20.3989 40.9423 20.4771 40.8427 20.576L37.6427 23.776C37.5438 23.8757 37.4656 23.9939 37.4125 24.1238C37.3594 24.2538 37.3325 24.393 37.3333 24.5333V26.6667C37.3333 26.9496 37.4457 27.2209 37.6458 27.4209C37.8458 27.621 38.1171 27.7333 38.4 27.7333H43.7333C44.582 27.7333 45.396 28.0705 45.9961 28.6706C46.5962 29.2707 46.9333 30.0846 46.9333 30.9333C46.9333 31.782 46.5962 32.596 45.9961 33.1961C45.396 33.7962 44.582 34.1333 43.7333 34.1333H35.2V18.1333H46.9333C48.4593 18.134 49.9352 17.5894 51.095 16.5978C52.2548 15.6062 53.0222 14.2328 53.2587 12.7253C54.5979 12.5157 55.836 11.8863 56.7945 10.9278C57.753 9.9693 58.3824 8.73122 58.592 7.392C60.0995 7.15548 61.4728 6.38814 62.4645 5.22833C63.4561 4.06852 64.0006 2.59259 64 1.06667C64 0.783769 63.8876 0.512458 63.6876 0.312419C63.4875 0.112381 63.2162 0 62.9333 0ZM17.0667 16C16.1213 15.9993 15.203 15.6846 14.4558 15.1055C13.7086 14.5263 13.175 13.7153 12.9387 12.8H18.1333C18.4162 12.8 18.6875 12.6876 18.8876 12.4876C19.0876 12.2875 19.2 12.0162 19.2 11.7333C19.2 11.4504 19.0876 11.1791 18.8876 10.9791C18.6875 10.779 18.4162 10.6667 18.1333 10.6667H11.7333C10.788 10.666 9.86962 10.3513 9.12247 9.77212C8.37531 9.19293 7.84167 8.38201 7.60533 7.46667H13.8667C14.1496 7.46667 14.4209 7.35429 14.6209 7.15425C14.821 6.95421 14.9333 6.6829 14.9333 6.4C14.9333 6.1171 14.821 5.84579 14.6209 5.64575C14.4209 5.44571 14.1496 5.33333 13.8667 5.33333H6.4C5.45464 5.33263 4.53629 5.01798 3.78914 4.43879C3.04198 3.8596 2.50834 3.04867 2.272 2.13333H19.2C20.3316 2.13333 21.4168 2.58286 22.217 3.38301C23.0171 4.18317 23.4667 5.26841 23.4667 6.4C23.4682 7.91134 24.0045 9.37337 24.9807 10.5272C25.9568 11.681 27.3098 12.4521 28.8 12.704V16H17.0667ZM11.7333 30.9333C11.7333 28.6702 12.6324 26.4997 14.2327 24.8994C15.833 23.299 18.0035 22.4 20.2667 22.4H21.9627L24.5333 24.9707V25.6H20.2667C18.8522 25.6 17.4956 26.1619 16.4954 27.1621C15.4952 28.1623 14.9333 29.5188 14.9333 30.9333C14.9333 32.3478 15.4952 33.7044 16.4954 34.7046C17.4956 35.7048 18.8522 36.2667 20.2667 36.2667H20.6507C19.6472 37.0742 18.8165 38.0754 18.208 39.2107C16.3599 38.7512 14.7186 37.6869 13.5453 36.1869C12.3721 34.687 11.7342 32.8377 11.7333 30.9333ZM30.7093 57.6C30.329 57.1281 30.1186 56.542 30.112 55.936C30.1078 55.5957 30.1711 55.258 30.2984 54.9424C30.4257 54.6268 30.6144 54.3397 30.8535 54.0975C31.0927 53.8554 31.3775 53.6632 31.6915 53.532C32.0055 53.4008 32.3424 53.3333 32.6827 53.3333H33.0667V55.904C33.0652 56.2792 32.9814 56.6494 32.821 56.9886C32.6607 57.3277 32.4277 57.6275 32.1387 57.8667L31.4347 58.4533L30.7093 57.6ZM38.4 54.9333C38.4031 56.751 37.6911 58.497 36.4178 59.7942C35.1445 61.0915 33.4121 61.8359 31.5947 61.8667H31.4133C31.3645 61.8592 31.3186 61.8383 31.281 61.8063C31.2433 61.7742 31.2153 61.7324 31.2 61.6853C31.1768 61.6318 31.1727 61.5719 31.1882 61.5156C31.2037 61.4594 31.238 61.4101 31.2853 61.376L33.5147 59.52C34.0434 59.0776 34.4684 58.5244 34.7597 57.8995C35.0509 57.2746 35.2012 56.5934 35.2 55.904V53.3333H37.3333C37.6213 53.3333 37.8987 53.3333 38.176 53.3333C38.317 53.8553 38.3922 54.3928 38.4 54.9333ZM44.8 43.7333C44.8 45.7136 44.0133 47.6128 42.6131 49.0131C41.2128 50.4133 39.3136 51.2 37.3333 51.2H32.6827C32.0626 51.2014 31.449 51.3251 30.8768 51.564C30.3046 51.8029 29.7852 52.1523 29.3482 52.5922C28.9113 53.0321 28.5654 53.5539 28.3304 54.1277C28.0954 54.7015 27.9759 55.316 27.9787 55.936C27.9945 57.0156 28.3698 58.0591 29.0453 58.9013L29.8133 59.84C29.397 60.2366 29.1391 60.7712 29.088 61.344C27.6051 60.7331 26.3799 59.6271 25.621 58.2143C24.862 56.8014 24.6164 55.1692 24.9258 53.5955C25.2353 52.0219 26.0807 50.6042 27.3181 49.5839C28.5554 48.5637 30.1082 48.0039 31.712 48H37.3333C38.4649 48 39.5502 47.5505 40.3503 46.7503C41.1505 45.9502 41.6 44.8649 41.6 43.7333C41.5969 42.9814 41.3905 42.2443 41.0027 41.6H43.7333C43.9893 41.6 44.2347 41.6 44.48 41.6C44.6894 42.2919 44.7972 43.0105 44.8 43.7333ZM39.4667 43.7333C39.4667 44.2991 39.2419 44.8418 38.8418 45.2418C38.4418 45.6419 37.8991 45.8667 37.3333 45.8667H35.2V41.6H37.3333C37.8991 41.6 38.4418 41.8248 38.8418 42.2248C39.2419 42.6249 39.4667 43.1675 39.4667 43.7333ZM33.0667 45.8667H30.9333V41.6H33.0667V45.8667ZM28.8 45.8667H26.6667C26.1009 45.8667 25.5583 45.6419 25.1582 45.2418C24.7581 44.8418 24.5333 44.2991 24.5333 43.7333C24.5333 43.1675 24.7581 42.6249 25.1582 42.2248C25.5583 41.8248 26.1009 41.6 26.6667 41.6H28.8V45.8667ZM43.7333 36.2667C45.1478 36.2667 46.5044 35.7048 47.5046 34.7046C48.5048 33.7044 49.0667 32.3478 49.0667 30.9333C49.0667 29.5188 48.5048 28.1623 47.5046 27.1621C46.5044 26.1619 45.1478 25.6 43.7333 25.6H39.4667V24.9707L42.0373 22.4H43.7333C45.9965 22.4 48.167 23.299 49.7673 24.8994C51.3676 26.4997 52.2667 28.6702 52.2667 30.9333C52.2667 33.1965 51.3676 35.367 49.7673 36.9673C48.167 38.5676 45.9965 39.4667 43.7333 39.4667H26.6667C25.6114 39.488 24.6015 39.8997 23.8321 40.6222C23.0627 41.3447 22.5884 42.3267 22.5008 43.3786C22.4133 44.4304 22.7187 45.4774 23.3581 46.3171C23.9975 47.1569 24.9254 47.7299 25.9627 47.9253C25.0636 48.6697 24.3143 49.5783 23.7547 50.6027C22.1724 49.9286 20.8714 48.7291 20.0714 47.2067C19.2713 45.6843 19.0214 43.9324 19.3637 42.247C19.7061 40.5616 20.6197 39.0461 21.9503 37.9565C23.2809 36.8668 24.9469 36.27 26.6667 36.2667H43.7333ZM30.9333 34.1333V6.656C30.9345 6.50536 30.9037 6.35618 30.843 6.21829C30.7824 6.0804 30.6932 5.95693 30.5813 5.856C30.3571 5.6563 30.1775 5.41151 30.0543 5.13763C29.9312 4.86375 29.8672 4.56696 29.8667 4.26667C29.8667 3.70087 30.0914 3.15825 30.4915 2.75817C30.8916 2.35809 31.4342 2.13333 32 2.13333C32.5658 2.13333 33.1084 2.35809 33.5085 2.75817C33.9086 3.15825 34.1333 3.70087 34.1333 4.26667C34.1328 4.56696 34.0688 4.86375 33.9457 5.13763C33.8225 5.41151 33.6429 5.6563 33.4187 5.856C33.3068 5.95693 33.2176 6.0804 33.157 6.21829C33.0963 6.35618 33.0655 6.50536 33.0667 6.656V34.1333H30.9333ZM57.6 5.33333H50.1333C49.8504 5.33333 49.5791 5.44571 49.3791 5.64575C49.1791 5.84579 49.0667 6.1171 49.0667 6.4C49.0667 6.6829 49.1791 6.95421 49.3791 7.15425C49.5791 7.35429 49.8504 7.46667 50.1333 7.46667H56.3947C56.1583 8.38201 55.6247 9.19293 54.8775 9.77212C54.1304 10.3513 53.212 10.666 52.2667 10.6667H45.8667C45.5838 10.6667 45.3125 10.779 45.1124 10.9791C44.9124 11.1791 44.8 11.4504 44.8 11.7333C44.8 12.0162 44.9124 12.2875 45.1124 12.4876C45.3125 12.6876 45.5838 12.8 45.8667 12.8H51.0613C50.825 13.7153 50.2914 14.5263 49.5442 15.1055C48.797 15.6846 47.8787 15.9993 46.9333 16H35.2V12.704C36.6902 12.4521 38.0432 11.681 39.0193 10.5272C39.9955 9.37337 40.5318 7.91134 40.5333 6.4C40.5333 5.26841 40.9829 4.18317 41.783 3.38301C42.5832 2.58286 43.6684 2.13333 44.8 2.13333H61.728C61.4917 3.04867 60.958 3.8596 60.2109 4.43879C59.4637 5.01798 58.5454 5.33263 57.6 5.33333Z" fill="#DACEE8"/>
</svg>
