<svg width="15" height="16" viewBox="0 0 15 16" fill="none" xmlns="http://www.w3.org/2000/svg">
<path d="M7.5 15.0811C12.153 15.0811 15 15.0811 15 12.5811C15 9.66406 10.417 0.914062 7.5 0.914062C4.583 0.914062 0 9.66406 0 12.5811C0 15.0811 2.846 15.0811 7.5 15.0811ZM6.667 5.08106C6.667 4.86014 6.75476 4.64826 6.91098 4.49204C7.0672 4.33582 7.27907 4.24806 7.5 4.24806C7.72093 4.24806 7.9328 4.33582 8.08902 4.49204C8.24524 4.64826 8.333 4.86014 8.333 5.08106V8.41406C8.333 8.63499 8.24524 8.84686 8.08902 9.00308C7.9328 9.1593 7.72093 9.24706 7.5 9.24706C7.27907 9.24706 7.0672 9.1593 6.91098 9.00308C6.75476 8.84686 6.667 8.63499 6.667 8.41406V5.08106ZM8.333 11.7471C8.333 11.968 8.24524 12.1799 8.08902 12.3361C7.9328 12.4923 7.72093 12.5801 7.5 12.5801C7.27907 12.5801 7.0672 12.4923 6.91098 12.3361C6.75476 12.1799 6.667 11.968 6.667 11.7471C6.667 11.5261 6.75476 11.3143 6.91098 11.158C7.0672 11.0018 7.27907 10.9141 7.5 10.9141C7.72093 10.9141 7.9328 11.0018 8.08902 11.158C8.24524 11.3143 8.333 11.5261 8.333 11.7471Z" fill="#E61865"/>
</svg>
