<svg xmlns="http://www.w3.org/2000/svg" width="13" height="16" fill="#E61865">
  <path d="m 1.85714,15.99997 h 9.28572 c 1.0214,0 1.8571,-0.8 1.8571,-1.7777 v -7.1112 c 0,-0.9777 -0.8357,-1.77774 -1.8571,-1.77774 V 4.44445 C 11.14286,1.99111 9.06286,0 6.49996,0 3.93714,0 1.85714,1.99111 1.85714,4.44445 V 5.33333 C 0.83571,5.33333 0,6.13337 0,7.11107 v 7.1112 c 0,0.9777 0.83571,1.7777 1.85714,1.7777 z M 3.67076,4.61592 c 0,-1.7834 1.2634,-3.22529 2.8261,-3.22529 1.5626,0 2.8261,1.44189 2.8261,3.22529 v 0.94862 h -5.6522 z" />
</svg>
