<svg width="332" height="215" viewBox="0 0 332 215" fill="none" xmlns="http://www.w3.org/2000/svg">
<g clip-path="url(#clip0_22941_80216)">
<rect width="332" height="215" rx="24" fill="#649DFE"/>
<path d="M218 27.0982L309.059 106.267L218 185.902L218 236L377 106.5L218 -23L218 27.0982Z" fill="white" fill-opacity="0.2"/>
<path d="M97 27.0982L188.632 106.267L97 185.902L97 236L257 106.5L97 -23L97 27.0982Z" fill="#0243FC"/>
<path d="M-23 27.0982L68.0594 106.267L-23 185.902L-23 236L136 106.5L-23 -23L-23 27.0982Z" fill="#327CFC"/>
<g clip-path="url(#clip1_22941_80216)">
<path fill-rule="evenodd" clip-rule="evenodd" d="M100.677 89.5982C96.8098 89.2087 92.9118 89.974 89.5183 91.7888C86.1248 93.6035 83.4024 96.3788 81.7254 99.733C80.0483 103.087 79.499 106.856 80.1528 110.521C80.8066 114.186 82.6314 117.567 85.3766 120.2C88.1217 122.833 91.6523 124.588 95.4831 125.225C99.3139 125.861 103.257 125.347 106.77 123.754C110.283 122.161 113.194 119.567 115.102 116.328C117.011 113.088 117.823 109.363 117.428 105.665C116.993 101.554 115.089 97.7115 112.038 94.7851C108.987 91.8587 104.975 90.0269 100.677 89.5982ZM100.067 117.018C97.9871 117.285 95.8723 116.922 94.0195 115.98C92.1667 115.038 90.6692 113.565 89.7374 111.767C88.8055 109.969 88.4862 107.938 88.8243 105.958C89.1624 103.977 90.1409 102.148 91.6224 100.727C93.1038 99.3065 95.0136 98.3652 97.0834 98.0357C99.1532 97.7062 101.279 98.0052 103.162 98.8906C105.045 99.7759 106.59 101.203 107.581 102.972C108.572 104.74 108.958 106.761 108.686 108.751C108.4 110.843 107.4 112.787 105.842 114.282C104.284 115.776 102.254 116.738 100.067 117.018ZM127.494 90.3101C126.841 90.3116 126.197 90.4522 125.608 90.7217C125.02 90.9913 124.501 91.3829 124.09 91.8681C123.68 92.3534 123.388 92.92 123.235 93.5269C123.082 94.1337 123.073 94.7655 123.208 95.3762C123.621 97.3546 125.554 98.7064 127.659 98.7064H139.877L120.863 122.766C120.722 122.943 120.636 123.155 120.614 123.377C120.592 123.599 120.636 123.822 120.739 124.021C120.842 124.221 121.002 124.389 121.199 124.507C121.397 124.625 121.625 124.688 121.858 124.689H151.683C153.787 124.689 155.721 123.337 156.134 121.359C156.269 120.748 156.259 120.116 156.107 119.51C155.954 118.903 155.662 118.336 155.252 117.851C154.842 117.366 154.323 116.974 153.735 116.704C153.146 116.434 152.502 116.294 151.85 116.292H136.963L155.962 92.2512C156.104 92.0718 156.191 91.8582 156.213 91.6342C156.235 91.4103 156.192 91.1849 156.087 90.9833C155.983 90.7817 155.822 90.612 155.622 90.4931C155.422 90.3742 155.192 90.3108 154.957 90.3101H127.494ZM246.672 90.407C245.684 90.6315 244.807 91.1715 244.184 91.9377C243.561 92.7039 243.23 93.6504 243.246 94.6207V108.6L219.556 90.5741C219.37 90.4331 219.146 90.3451 218.911 90.3203C218.675 90.2954 218.437 90.3347 218.223 90.4336C218.01 90.5325 217.83 90.687 217.704 90.8794C217.578 91.0717 217.512 91.2941 217.513 91.5209V120.386C217.497 121.356 217.827 122.303 218.45 123.069C219.073 123.835 219.951 124.375 220.938 124.599C221.579 124.734 222.244 124.73 222.883 124.586C223.522 124.443 224.12 124.164 224.631 123.77C225.143 123.377 225.555 122.878 225.838 122.312C226.121 121.746 226.268 121.126 226.267 120.498V106.397L249.957 124.424C250.143 124.565 250.367 124.653 250.602 124.677C250.838 124.702 251.076 124.663 251.29 124.564C251.503 124.465 251.683 124.311 251.808 124.119C251.934 123.926 252 123.704 252 123.477V94.5072C252 93.8796 251.854 93.2599 251.571 92.6937C251.288 92.1275 250.875 91.6292 250.364 91.2357C249.852 90.8422 249.255 90.5635 248.616 90.4201C247.977 90.2766 247.313 90.2721 246.672 90.407ZM184.989 97.9027C195.009 97.9027 202.496 102.966 202.496 107.495C202.496 112.024 195.009 117.088 184.989 117.088C174.968 117.088 167.481 112.024 167.481 107.495C167.481 102.966 174.968 97.9027 184.989 97.9027ZM184.989 89.5068C170.485 89.5068 158.727 97.5605 158.727 107.495C158.727 117.43 170.485 125.484 184.989 125.484C199.493 125.484 211.25 117.43 211.25 107.495C211.25 97.5605 199.492 89.5068 184.989 89.5068Z" fill="white"/>
</g>
</g>
<defs>
<clipPath id="clip0_22941_80216">
<rect width="332" height="215" rx="24" fill="white"/>
</clipPath>
<clipPath id="clip1_22941_80216">
<rect width="172" height="36" fill="white" transform="translate(80 89.5)"/>
</clipPath>
</defs>
</svg>
