<svg width="10719" height="4822" viewBox="0 0 10719 4822" fill="none" xmlns="http://www.w3.org/2000/svg">
<path d="M2078.84 2766.8H1604.76V2134.83H1712.58V2666.58H1999.99V2134.83H2106.87V2666.58H2183.18L2168.26 2902.22H2078.84V2766.8Z" fill="black"/>
<path d="M2258.57 2289.99H2361.95V2609.56C2434.74 2503.06 2507.47 2396.49 2581.03 2289.99H2680.96V2766.69H2578.42V2448.88L2358.43 2766.69H2258.57V2289.99Z" fill="black"/>
<path d="M3073.03 2732.48C3050.25 2755.08 3013.45 2774.01 2967.01 2774.01C2857.48 2774.01 2779.47 2684.7 2779.47 2528.47C2779.47 2374.99 2857.48 2282.9 2967.91 2282.9C3014.32 2282.9 3050.25 2306.37 3073.03 2330.74V2134.86H3179.05V2330.74C3201.83 2306.37 3237.79 2282.9 3284.19 2282.9C3394.59 2282.9 3472.66 2374.99 3472.66 2529.4C3472.66 2684.7 3394.59 2774.01 3285.09 2774.01C3236.89 2774.01 3201.83 2755.08 3179.05 2732.48V2911.28H3073.03V2732.48ZM3073.03 2651.24V2409.32C3051.12 2388.54 3029.24 2375.89 2998.56 2375.89C2924.9 2375.89 2886.36 2437.27 2886.36 2530.29C2886.36 2625.04 2923.16 2682.84 2998.56 2682.84C3029.24 2682.84 3051.12 2671.09 3073.03 2651.24ZM3365.75 2529.4C3365.75 2437.27 3328.01 2375.89 3254.42 2375.89C3224.61 2375.89 3200.99 2390.33 3179.05 2409.32V2651.24C3200.99 2671.09 3223.77 2682.84 3254.42 2682.84C3329.79 2682.84 3365.75 2625.04 3365.75 2529.4Z" fill="black"/>
<path d="M3560.38 2290.17H3666.43V2369.61C3700.62 2319.95 3748.76 2280.24 3823.26 2280.24C3932.79 2280.24 4038.87 2369.61 4038.87 2529.4C4038.87 2687.36 3933.69 2776.73 3823.26 2776.73C3747.02 2776.73 3698.81 2737.02 3666.43 2692.8V2911.28H3560.38V2290.17ZM3931.05 2527.54C3931.05 2435.51 3870.63 2374.99 3798.77 2374.99C3726.88 2374.99 3663.76 2436.38 3663.76 2529.4C3663.76 2621.46 3726.88 2681.95 3798.77 2681.95C3871.47 2681.95 3931.05 2623.32 3931.05 2527.54Z" fill="black"/>
<path d="M4106.95 2529.19C4106.95 2392.85 4212.1 2280.04 4354.1 2280.04C4496.02 2280.04 4600.29 2391.05 4600.29 2529.19C4600.29 2664.58 4495.12 2777.45 4352.33 2777.45C4211.23 2777.45 4106.95 2666.44 4106.95 2529.19ZM4494.28 2529.19C4494.28 2445.17 4435.53 2375.68 4352.33 2375.68C4267.29 2375.68 4212.97 2444.27 4212.97 2529.19C4212.97 2612.26 4271.68 2682.64 4354.1 2682.64C4439.95 2682.64 4494.28 2613.12 4494.28 2529.19Z" fill="black"/>
<path d="M4694.16 2289.99H4931.62C5023.65 2289.99 5084.13 2336.01 5084.13 2409.17C5084.13 2469.63 5049.07 2500.37 5009.63 2518.43C5065.7 2534.63 5105.17 2569.86 5105.17 2637.61C5105.17 2717.92 5039.38 2766.69 4934.23 2766.69H4694.16V2289.99ZM4907.1 2486.79C4951.79 2486.79 4976.31 2462.43 4976.31 2428.13C4976.31 2397.39 4956.17 2373.95 4908.84 2373.95H4798.44V2486.79H4907.1ZM4918.47 2680.01C4970.22 2680.01 4997.35 2655.67 4997.35 2618.63C4997.35 2584.3 4970.22 2560.83 4913.25 2560.83H4798.44V2680.01H4918.47Z" fill="black"/>
<path d="M5483.14 2766.85V2708.16C5451.59 2746.97 5403.38 2776.75 5333.27 2776.75C5245.62 2776.75 5168.51 2725.29 5168.51 2627.78C5168.51 2522.21 5248.32 2471.65 5356.05 2471.65C5412.12 2471.65 5448.08 2479.78 5483.98 2491.44V2482.5C5483.98 2416.54 5443.7 2380.42 5370.07 2380.42C5318.38 2380.42 5279.84 2392.2 5237.79 2410.26L5208.82 2322.62C5259.67 2299.18 5309.58 2282.92 5385.02 2282.92C5521.68 2282.92 5588.25 2356.95 5588.25 2484.23V2766.85H5483.14ZM5485.75 2567.3C5458.62 2556.44 5420.85 2548.34 5379.7 2548.34C5313.13 2548.34 5273.69 2576.39 5273.69 2624.2C5273.69 2669.32 5313.13 2694.61 5363.07 2694.61C5433.16 2694.61 5485.75 2653.98 5485.75 2594.45V2567.3Z" fill="black"/>
<path d="M5786.47 2587.92C5723.41 2568.03 5678.74 2520.19 5678.74 2445.26C5678.74 2353.17 5744.42 2289.99 5861.03 2289.99H6093.2V2766.69H5987.19V2605.98H5892.55L5782.99 2766.69H5658.57L5786.47 2587.92ZM5987.19 2523.81V2378.43H5875.02C5818.95 2378.43 5784.73 2405.56 5784.73 2450.67C5784.73 2496.72 5821.59 2523.81 5875.92 2523.81H5987.19Z" fill="black"/>
<path d="M6675.22 2130.21H6775.08L7044.95 2766.69H6931.04L6868.88 2614.11H6578.83L6515.71 2766.69H6405.28L6675.22 2130.21ZM6829.41 2515.71L6723.39 2262.93L6618.28 2515.71H6829.41Z" fill="black"/>
<path d="M7101.22 2289.99H7206.4V2518.43L7407.92 2289.99H7532.37L7352.72 2490.38L7547.23 2766.69H7421.94L7281.7 2569.89L7206.4 2651.99V2766.69H7101.22V2289.99Z" fill="black"/>
<path d="M7883.79 2766.85V2708.16C7852.24 2746.97 7804.04 2776.75 7733.92 2776.75C7646.27 2776.75 7569.19 2725.29 7569.19 2627.78C7569.19 2522.21 7648.94 2471.65 7756.7 2471.65C7812.77 2471.65 7848.73 2479.78 7884.66 2491.44V2482.5C7884.66 2416.54 7844.35 2380.42 7770.75 2380.42C7719.03 2380.42 7680.49 2392.2 7638.44 2410.26L7609.47 2322.62C7660.32 2299.18 7710.27 2282.92 7785.67 2282.92C7922.36 2282.92 7988.94 2356.95 7988.94 2484.23V2766.85H7883.79ZM7886.4 2567.3C7859.27 2556.44 7821.54 2548.34 7780.38 2548.34C7713.81 2548.34 7674.34 2576.39 7674.34 2624.2C7674.34 2669.32 7713.81 2694.61 7763.69 2694.61C7833.81 2694.61 7886.4 2653.98 7886.4 2594.45V2567.3Z" fill="black"/>
<path d="M8051.57 2672.88H8101.52C8140.06 2593.43 8153.24 2482.42 8153.24 2348.79V2290.1H8511.6V2672.88H8577.33L8563.35 2881.4H8474.8V2766.76H8150.59L8140.06 2881.4H8051.57V2672.88ZM8405.58 2672.88V2383.98H8253.13V2447.16C8253.13 2533.87 8237.34 2614.18 8210.18 2672.88H8405.58Z" fill="black"/>
<path d="M8620.76 2528.33C8620.76 2391.98 8714.53 2280.04 8846.84 2280.04C8994.04 2280.04 9068.57 2399.25 9068.57 2536.46C9068.57 2543.67 9067.67 2561.73 9066.77 2567.07H8726.78C8738.16 2644.82 8791.65 2688.15 8860.02 2688.15C8911.65 2688.15 8948.45 2668.23 8985.28 2631.24L9047.53 2688.15C9003.68 2742.33 8943.23 2777.45 8858.22 2777.45C8724.17 2777.45 8620.76 2677.29 8620.76 2528.33ZM8963.4 2494.9C8956.4 2424.52 8916.09 2369.41 8845.97 2369.41C8781.11 2369.41 8735.58 2420.9 8725.91 2494.9H8963.4Z" fill="black"/>
<path d="M9162.8 2289.99H9267.98L9412.53 2511.16L9558.02 2289.99H9663.2V2766.69H9556.28V2448.88L9410.79 2662.85L9266.18 2450.67V2766.69H9162.8V2289.99Z" fill="black"/>
<path d="M9783.86 2289.99H9887.23V2609.56C9960.03 2503.06 10032.7 2396.49 10106.3 2289.99H10206.2V2766.69H10103.7V2448.88L9883.75 2766.69H9783.86V2289.99Z" fill="black"/>
<path d="M10412.1 2587.92C10349 2568.03 10304.4 2520.19 10304.4 2445.26C10304.4 2353.17 10370.1 2289.99 10486.6 2289.99H10718.8V2766.69H10612.8V2605.98H10518.2L10408.6 2766.69H10284.2L10412.1 2587.92ZM10612.8 2523.81V2378.43H10500.6C10444.6 2378.43 10410.3 2405.56 10410.3 2450.67C10410.3 2496.72 10447.1 2523.81 10501.5 2523.81H10612.8Z" fill="black"/>
<path d="M1604.76 3218.37H2017.45V3318.6H1711.68V3850.34H1604.76V3218.37Z" fill="black"/>
<path d="M2097.41 3218.37H2552.15V3317.67H2205.17V3482H2512.77V3581.3H2205.17V3751.04H2556.57V3850.34H2097.41V3218.37Z" fill="black"/>
<path d="M2658.39 3218.37H2900.23C3043.08 3218.37 3133.36 3302.33 3133.36 3431.41C3133.36 3573.16 3022.94 3647.2 2888.01 3647.2H2766.15V3850.34H2658.39V3218.37ZM2891.49 3546.97C2972.96 3546.97 3023.77 3500.06 3023.77 3432.34C3023.77 3358.37 2972.09 3319.46 2891.49 3319.46H2766.15V3546.97H2891.49Z" fill="black"/>
<path d="M3198.41 3534.44C3198.41 3356.56 3331.59 3207.63 3520.03 3207.63C3708.41 3207.63 3839.85 3354.83 3839.85 3534.44C3839.85 3712.32 3706.64 3861.25 3518.26 3861.25C3329.85 3861.25 3198.41 3714.04 3198.41 3534.44ZM3726.81 3534.44C3726.81 3411.67 3640.07 3309.62 3518.26 3309.62C3396.42 3309.62 3311.48 3409.84 3311.48 3534.44C3311.48 3657.21 3398.16 3759.23 3520.03 3759.23C3641.84 3759.23 3726.81 3659 3726.81 3534.44Z" fill="black"/>
<path d="M4220.02 3805.96C4027.2 3805.96 3913.29 3690.4 3913.29 3528.79C3913.29 3368.11 4028.1 3255.23 4220.02 3255.23V3195.71H4326.91V3255.23C4518.83 3255.23 4633.61 3368.11 4633.61 3529.65C4633.61 3690.4 4520.57 3805.96 4326.91 3805.96V3874.55H4220.02V3805.96ZM4220.02 3354.56C4099.06 3354.56 4023.72 3420.43 4023.72 3530.58C4023.72 3642.56 4099.06 3707.53 4220.02 3707.53V3354.56ZM4523.22 3530.58C4523.22 3420.43 4448.72 3354.56 4326.91 3354.56V3707.53C4448.72 3707.53 4523.22 3642.56 4523.22 3530.58Z" fill="black"/>
<path d="M4913.22 3213.89H5013.12L5282.99 3850.34H5169.08L5106.86 3697.79H4816.84L4753.72 3850.34H4643.29L4913.22 3213.89ZM5067.45 3599.39L4961.37 3346.58L4856.25 3599.39H5067.45Z" fill="black"/>
<path d="M5362.42 3218.37H5604.29C5747.13 3218.37 5837.39 3302.33 5837.39 3431.41C5837.39 3573.16 5726.96 3647.2 5592.04 3647.2H5470.23V3850.34H5362.42V3218.37ZM5595.52 3546.97C5677.05 3546.97 5727.86 3500.06 5727.86 3432.34C5727.86 3358.37 5676.14 3319.46 5595.52 3319.46H5470.23V3546.97H5595.52Z" fill="black"/>
<path d="M5918.97 3218.37H6033.78L6220.39 3517.22L6407.09 3218.37H6521.84V3850.34H6414.08V3397.11L6220.39 3695.07H6216.91L6025.05 3398.91V3850.34H5918.97V3218.37Z" fill="black"/>
<path d="M1693.4 1401.72V655.984C1698.12 654.159 1702.85 652.269 1707.32 649.515C1753.26 622.233 1769.05 561.714 1742.48 514.418C1715.99 467.091 1657.25 450.888 1611.31 478.202C1606.78 480.86 1602.83 484.125 1598.91 487.391L972.109 114.57C975.472 92.8596 972.352 69.9642 960.867 49.4707C934.365 2.17545 875.638 -14.0586 829.66 13.2874C794.185 34.3894 776.982 75.3113 783.173 114.665L156.533 487.391C126.534 462.223 83.5311 457.1 48.0556 478.202C2.12455 505.484 -13.6087 566.036 12.8939 613.363C24.3813 633.857 42.0942 648.106 61.992 655.92V1401.6C57.2584 1403.45 52.5343 1405.37 48.0556 1408.06C2.12455 1435.38 -13.6584 1495.87 12.8939 1543.19C39.3995 1590.52 98.1359 1606.72 144.051 1579.41C148.592 1576.72 152.564 1573.49 156.484 1570.22L783.319 1943.07C779.906 1964.75 783.027 1987.61 794.514 2008.17C821.017 2055.47 879.79 2071.67 925.721 2044.32C961.209 2023.25 978.4 1982.3 972.255 1942.95L1598.85 1570.22C1628.84 1595.42 1671.86 1600.54 1707.32 1579.41C1753.26 1552.1 1768.99 1491.61 1742.48 1444.28C1731.01 1423.79 1713.32 1409.54 1693.4 1401.72ZM938.154 1882.14C930.163 1875.41 921.227 1870.35 911.735 1866.64L911.782 1120.48C916.506 1118.62 921.181 1116.7 925.721 1114.01C935.59 1108.12 943.761 1100.53 950.67 1092.05L1569.39 1460.45C1563.95 1476.01 1562.15 1492.82 1564.79 1509.41L938.154 1882.14ZM817.24 175.474C829.903 186.073 844.874 192.925 860.657 195.839V931.302C850.083 933.319 839.544 936.776 829.66 942.604C825.181 945.326 821.163 948.561 817.24 951.859L190.455 579.421C192.059 569.174 192.251 558.64 190.638 548.169L817.24 175.474ZM1132.01 734.531L919.903 939.435C911.978 935.464 903.418 933.031 894.725 931.43V197.697L1145.6 635.522C1124.25 663.06 1118.63 700.877 1132.01 734.531ZM787.667 1062.08L569.568 1256.28C551.333 1246.16 530.4 1242.26 509.7 1245.52L187.238 658.578L783.319 1012.76C780.77 1029.03 781.948 1045.9 787.667 1062.08ZM614.172 1309.34L832.308 1115.17C835.951 1117.22 839.727 1118.82 843.6 1120.35V1830.42L599.094 1404.67C619.598 1378.12 625.743 1342.07 614.172 1309.34ZM966.16 990.957L1178.3 786.021C1195.73 794.795 1215.58 797.806 1235.05 794.732L1584.4 1428.85L967.68 1061.63C975.472 1039.15 975.376 1014.11 966.16 990.957ZM1294.29 759.988C1307 744.17 1314.71 724.829 1316.17 704.688L1583.31 623.545C1594.41 638.563 1608.95 649.483 1625.27 655.92V1360.74L1294.29 759.988ZM1563.67 556.365L1296.53 637.443C1274.59 607.76 1238.97 593.83 1204.34 599.914L972.973 196.16L1564.94 548.231C1564.51 550.953 1563.85 553.643 1563.67 556.365ZM450.451 1280.2C436.807 1297.14 429.145 1318.02 428.393 1339.73L169.755 1430.7C158.986 1417.32 145.291 1407.68 130.115 1401.72V697.13L450.451 1280.2ZM191.779 1497.15L450.451 1406.11C472.574 1433.62 507.018 1446.23 540.367 1440.28L782.228 1861.36L190.455 1509.31C191.061 1505.28 191.633 1501.28 191.779 1497.15Z" fill="url(#paint0_linear_1152_55)"/>
<path d="M1604.76 4301.75H1778.97C1825.81 4301.75 1863.23 4315.04 1885.98 4339.15C1902.95 4357.21 1912.31 4379.5 1912.31 4407.84C1912.31 4462.66 1879.58 4490.93 1847.38 4505.37C1895.93 4520.42 1935.12 4549.37 1935.12 4608.39C1935.12 4680.66 1876.07 4723.41 1786.62 4723.41H1604.76V4301.75ZM1771.42 4489.75C1826.93 4489.75 1865.53 4463.81 1865.53 4413.25C1865.53 4371.65 1833.36 4344.6 1774.9 4344.6H1650.42V4489.75H1771.42ZM1787.77 4680.66C1849.74 4680.66 1888.31 4652.35 1888.31 4604.16C1888.31 4558.4 1850.89 4531.92 1779.59 4531.92H1650.42V4680.66H1787.77Z" fill="black"/>
<path d="M2010.28 4412.06H2055.26V4474.72C2079.81 4437.39 2115.49 4405.43 2171 4405.43C2243.48 4405.43 2315.43 4464.45 2315.43 4568.03C2315.43 4669.86 2244.1 4730.06 2171 4730.06C2114.87 4730.06 2078.63 4698.78 2055.26 4663.81V4819.85H2010.28V4412.06ZM2269.25 4567.42C2269.25 4494 2220.11 4446.96 2162.83 4446.96C2106.69 4446.96 2053.52 4495.79 2053.52 4568.03C2053.52 4640.37 2106.69 4688.5 2162.83 4688.5C2221.29 4688.5 2269.25 4643.96 2269.25 4567.42Z" fill="black"/>
<path d="M2367.58 4631.89C2367.58 4565.06 2420.17 4530.09 2496.75 4530.09C2535.35 4530.09 2562.24 4535.57 2589.12 4543.35V4533.77C2589.12 4478.31 2556.4 4449.4 2499.7 4449.4C2464.02 4449.4 2435.99 4458.46 2407.92 4471.68L2394.46 4433.74C2427.78 4418.11 2459.95 4407.26 2504.37 4407.26C2547.04 4407.26 2580.39 4419.27 2602.02 4441.55C2623.06 4463.23 2633.6 4493.39 2633.6 4533.07V4723.47H2589.12V4677.07C2568.11 4704.77 2533.61 4730.06 2480.4 4730.06C2423.68 4730.06 2367.58 4696.98 2367.58 4631.89ZM2589.75 4609.02V4580.11C2567.49 4573.48 2538.28 4566.85 2501.44 4566.85C2445.31 4566.85 2413.18 4592.12 2413.18 4630.67C2413.18 4669.86 2448.23 4692.69 2489.2 4692.69C2544.71 4692.69 2589.75 4658.43 2589.75 4609.02Z" fill="black"/>
<path d="M2905.9 4595.1C2884.23 4607.75 2840.41 4623.44 2804.73 4623.44C2745.15 4623.44 2704.8 4591.48 2704.8 4530.06V4411.97H2749.78V4523.43C2749.78 4560.13 2772.03 4583.03 2810.57 4583.03C2842.77 4583.03 2881.31 4570.99 2905.9 4553.53V4411.97H2950.9V4723.41H2905.9V4595.1Z" fill="black"/>
<path d="M3186.27 4555.35C3186.27 4454.77 3193.88 4358.45 3299.09 4332.51L3467.48 4291.56L3476.25 4330.72L3312.58 4372.28C3250.01 4388.52 3228.94 4423.48 3224.28 4483.11C3245.35 4446.35 3285.07 4415.61 3349.38 4415.61C3428.32 4415.61 3494.37 4484.9 3494.37 4570.43C3494.37 4657.14 3428.88 4730.63 3339.46 4730.63C3247.65 4730.63 3186.27 4663.8 3186.27 4555.35ZM3447.59 4571.61C3447.59 4506.58 3400.26 4454.16 3339.46 4454.16C3276.9 4454.16 3232.45 4506.58 3232.45 4571.61C3232.45 4636.68 3279.82 4689.07 3340.64 4689.07C3403.18 4689.07 3447.59 4636.68 3447.59 4571.61Z" fill="black"/>
<path d="M3531.87 4806L3547.1 4769.24C3561.7 4777.15 3575.16 4780.73 3594.43 4780.73C3621.38 4780.73 3638.29 4766.23 3656.41 4722.26L3519.03 4412.1H3568.73L3678.63 4671.7L3775.66 4412.1H3823.62L3696.72 4733.76C3671.01 4798.22 3641.83 4821.69 3596.17 4821.69C3571.09 4821.69 3552.38 4816.21 3531.87 4806Z" fill="black"/>
<path d="M3824.32 4682.55H3857.02C3881.6 4636.15 3897.36 4571.05 3897.36 4466.31V4412.1H4112.53V4682.55H4158.09L4151.1 4801.15H4113.68V4723.47H3869.29L3861.12 4801.15H3824.32V4682.55ZM4067.49 4682.55V4453.08H3940.65V4496.41C3940.65 4573.51 3926.01 4642.17 3904.97 4682.55H4067.49Z" fill="black"/>
<path d="M4200.53 4806L4215.7 4769.24C4230.31 4777.15 4243.77 4780.73 4263.1 4780.73C4289.98 4780.73 4306.89 4766.23 4325.04 4722.26L4187.64 4412.1H4237.36L4347.24 4671.7L4444.3 4412.1H4492.26L4365.39 4733.76C4339.68 4798.22 4310.44 4821.69 4264.84 4821.69C4239.73 4821.69 4221.02 4816.21 4200.53 4806Z" fill="black"/>
<path d="M4983.2 4723.61H4551.8V4412.2H4596.78V4682.66H4744.13V4412.2H4789.1V4682.66H4936.49V4412.2H4982.08V4682.66H5027.62L5020.62 4801.29H4983.2V4723.61Z" fill="black"/>
<path d="M5062.22 4567.99C5062.22 4477.66 5123.61 4405.36 5207.18 4405.36C5296.63 4405.36 5348.07 4478.81 5348.07 4570.43C5348.07 4574.62 5348.07 4579.43 5347.51 4586.69H5107.79C5114.25 4652.31 5161.03 4690.28 5214.21 4690.28C5255.7 4690.28 5284.95 4672.8 5309.47 4646.32L5337.54 4672.22C5307.2 4707.16 5270.34 4730.63 5213.03 4730.63C5130.04 4730.63 5062.22 4664.95 5062.22 4567.99ZM5302.48 4549.36C5297.23 4492.68 5265.62 4444.55 5206 4444.55C5153.97 4444.55 5114.25 4489.09 5107.79 4549.36H5302.48Z" fill="black"/>
<path d="M5421.26 4412.03H5626.45V4452.99H5466.29V4723.41H5421.26V4412.03Z" fill="black"/>
<path d="M5654.11 4567.99C5654.11 4480.1 5720.78 4405.42 5811.91 4405.42C5902.57 4405.42 5969.24 4478.82 5969.24 4567.99C5969.24 4655.96 5901.98 4730.63 5810.79 4730.63C5720.16 4730.63 5654.11 4657.17 5654.11 4567.99ZM5923.05 4567.99C5923.05 4501.17 5874.53 4446.35 5810.79 4446.35C5745.3 4446.35 5700.33 4501.17 5700.33 4567.99C5700.33 4634.89 5748.22 4689.07 5811.91 4689.07C5877.46 4689.07 5923.05 4634.89 5923.05 4567.99Z" fill="black"/>
<defs>
<linearGradient id="paint0_linear_1152_55" x1="93.6009" y1="1567.07" x2="1690.14" y2="526.26" gradientUnits="userSpaceOnUse">
<stop stop-color="#F07F00"/>
<stop offset="0.302083" stop-color="#E75B43"/>
<stop offset="0.515625" stop-color="#5E2883"/>
<stop offset="0.973958" stop-color="#F196AD"/>
</linearGradient>
</defs>
</svg>
