<svg xmlns="http://www.w3.org/2000/svg" width="44" height="44" viewBox="0 0 44 44"><path d="M0,22C0,12.83,0,8.25,2.33,5A12.52,12.52,0,0,1,5,2.33C8.25,0,12.83,0,22,0S35.75,0,39,2.33A12.52,12.52,0,0,1,41.67,5C44,8.25,44,12.83,44,22s0,13.75-2.33,17A12.52,12.52,0,0,1,39,41.67C35.75,44,31.17,44,22,44S8.25,44,5,41.67A12.52,12.52,0,0,1,2.33,39C0,35.75,0,31.17,0,22Z" fill="#eb5d40"/><path d="M23.56,30.83a1.5,1.5,0,1,1-1.5-1.5A1.5,1.5,0,0,1,23.56,30.83Z" fill="#fff"/><path d="M22,26a1,1,0,0,1-1-1V13a1,1,0,0,1,2,0V25A1,1,0,0,1,22,26Z" fill="#fff"/></svg>