<?xml version="1.0" encoding="UTF-8"?> <svg xmlns="http://www.w3.org/2000/svg" width="382" height="382" viewBox="0 0 382 382" fill="none"> <path d="M176.533 58.4532C180.269 43.3556 201.731 43.3556 205.467 58.4532V58.4532C208.456 70.5299 224.052 73.8449 231.695 64.0281V64.0281C241.249 51.7556 260.855 60.4847 258.128 75.7969V75.7969C255.947 88.0453 268.846 97.4171 279.821 91.5575V91.5575C293.541 84.2322 307.901 100.181 299.182 113.06V113.06C292.207 123.362 300.18 137.171 312.589 136.281V136.281C328.102 135.17 334.734 155.581 321.53 163.8V163.8C310.968 170.375 312.635 186.232 324.333 190.467V190.467C338.957 195.761 336.714 217.105 321.308 219.243V219.243C308.985 220.953 304.058 236.117 313.023 244.744V244.744C324.229 255.529 313.498 274.115 298.555 269.803V269.803C286.602 266.353 275.933 278.202 280.613 289.729V289.729C286.464 304.139 269.102 316.754 257.205 306.736V306.736C247.688 298.723 233.122 305.208 232.709 317.642V317.642C232.193 333.187 211.201 337.649 204.407 323.658V323.658C198.972 312.467 183.028 312.467 177.593 323.658V323.658C170.799 337.649 149.807 333.187 149.291 317.642V317.642C148.878 305.208 134.312 298.723 124.795 306.736V306.736C112.898 316.754 95.5355 304.139 101.387 289.729V289.729C106.067 278.202 95.3981 266.353 83.4448 269.803V269.803C68.5016 274.115 57.7709 255.529 68.9774 244.744V244.744C77.9416 236.117 73.0146 220.953 60.6916 219.243V219.243C45.2861 217.105 43.0428 195.761 57.6671 190.467V190.467C69.3652 186.232 71.0318 170.375 60.4699 163.8V163.8C47.2659 155.581 53.8978 135.17 69.4112 136.281V136.281C81.8205 137.171 89.7927 123.362 82.818 113.06V113.06C74.0986 100.181 88.4591 84.2322 102.179 91.5575V91.5575C113.154 97.4171 126.053 88.0453 123.872 75.7969V75.7969C121.145 60.4847 140.751 51.7556 150.305 64.0281V64.0281C157.948 73.8449 173.544 70.5299 176.533 58.4532V58.4532Z" fill="#EFEBEA"></path> <g style="mix-blend-mode:multiply"> <path d="M176.533 58.4532C180.269 43.3556 201.731 43.3556 205.467 58.4532V58.4532C208.456 70.5299 224.052 73.8449 231.695 64.0281V64.0281C241.249 51.7556 260.855 60.4847 258.128 75.7969V75.7969C255.947 88.0453 268.846 97.4171 279.821 91.5575V91.5575C293.541 84.2322 307.901 100.181 299.182 113.06V113.06C292.207 123.362 300.18 137.171 312.589 136.281V136.281C328.102 135.17 334.734 155.581 321.53 163.8V163.8C310.968 170.375 312.635 186.232 324.333 190.467V190.467C338.957 195.761 336.714 217.105 321.308 219.243V219.243C308.985 220.953 304.058 236.117 313.023 244.744V244.744C324.229 255.529 313.498 274.115 298.555 269.803V269.803C286.602 266.353 275.933 278.202 280.613 289.729V289.729C286.464 304.139 269.102 316.754 257.205 306.736V306.736C247.688 298.723 233.122 305.208 232.709 317.642V317.642C232.193 333.187 211.201 337.649 204.407 323.658V323.658C198.972 312.467 183.028 312.467 177.593 323.658V323.658C170.799 337.649 149.807 333.187 149.291 317.642V317.642C148.878 305.208 134.312 298.723 124.795 306.736V306.736C112.898 316.754 95.5355 304.139 101.387 289.729V289.729C106.067 278.202 95.3981 266.353 83.4448 269.803V269.803C68.5016 274.115 57.7709 255.529 68.9774 244.744V244.744C77.9416 236.117 73.0146 220.953 60.6916 219.243V219.243C45.2861 217.105 43.0428 195.761 57.6671 190.467V190.467C69.3652 186.232 71.0318 170.375 60.4699 163.8V163.8C47.2659 155.581 53.8978 135.17 69.4112 136.281V136.281C81.8205 137.171 89.7927 123.362 82.818 113.06V113.06C74.0986 100.181 88.4591 84.2322 102.179 91.5575V91.5575C113.154 97.4171 126.053 88.0453 123.872 75.7969V75.7969C121.145 60.4847 140.751 51.7556 150.305 64.0281V64.0281C157.948 73.8449 173.544 70.5299 176.533 58.4532V58.4532Z" fill="#F4ECE0"></path> </g> </svg> 