<?xml version="1.0" encoding="UTF-8"?> <svg xmlns="http://www.w3.org/2000/svg" width="320" height="571" viewBox="0 0 320 571" fill="none"> <g clip-path="url(#clip0_557_182)"> <path d="M280 0H40C17.9086 0 0 17.9086 0 40V531C0 553.091 17.9086 571 40 571H280C302.091 571 320 553.091 320 531V40C320 17.9086 302.091 0 280 0Z" fill="url(#paint0_linear_557_182)"></path> <g clip-path="url(#clip1_557_182)"> <path d="M280 6H40C20.67 6 5 21.67 5 41V532C5 551.33 20.67 567 40 567H280C299.33 567 315 551.33 315 532V41C315 21.67 299.33 6 280 6Z" fill="url(#paint1_linear_557_182)"></path> </g> </g> <defs> <linearGradient id="paint0_linear_557_182" x1="160" y1="0" x2="160" y2="571" gradientUnits="userSpaceOnUse"> <stop stop-color="#FADFA3"></stop> <stop offset="1" stop-color="#C79223"></stop> </linearGradient> <linearGradient id="paint1_linear_557_182" x1="160" y1="6" x2="160" y2="567" gradientUnits="userSpaceOnUse"> <stop stop-color="#FFF6E4"></stop> <stop offset="1" stop-color="#F7CF7A"></stop> </linearGradient> <clipPath id="clip0_557_182"> <rect width="320" height="571" fill="white"></rect> </clipPath> <clipPath id="clip1_557_182"> <rect width="310" height="561" fill="white" transform="translate(5 6)"></rect> </clipPath> </defs> </svg> 