<?xml version="1.0" encoding="UTF-8"?> <svg xmlns="http://www.w3.org/2000/svg" width="155" height="155" viewBox="0 0 155 155" fill="none"> <path d="M139.5 77.6813C139.5 111.265 111.971 138.5 78 138.5C44.0293 138.5 16.5 111.265 16.5 77.6813C16.5 44.0973 44.0293 16.8626 78 16.8626C111.971 16.8626 139.5 44.0973 139.5 77.6813Z" stroke="#373844"></path> <path d="M122.966 61.3297C122.966 85.8829 102.839 105.797 77.9998 105.797C53.1601 105.797 33.0331 85.8829 33.0331 61.3297C33.0331 36.7764 53.1601 16.8626 77.9998 16.8626C102.839 16.8626 122.966 36.7764 122.966 61.3297Z" stroke="#373844"></path> <path d="M94.0332 32.7143C94.0332 41.4637 86.8601 48.5659 77.9999 48.5659C69.1397 48.5659 61.9666 41.4637 61.9666 32.7143C61.9666 23.9649 69.1397 16.8626 77.9999 16.8626C86.8601 16.8626 94.0332 23.9649 94.0332 32.7143Z" stroke="#373844"></path> <path d="M94.0332 122.648C94.0332 131.398 86.8601 138.5 77.9999 138.5C69.1397 138.5 61.9666 131.398 61.9666 122.648C61.9666 113.899 69.1397 106.797 77.9999 106.797C86.8601 106.797 94.0332 113.899 94.0332 122.648Z" stroke="#373844"></path> <path d="M116.078 106.297C116.078 124.008 99.1104 138.5 78 138.5C56.8896 138.5 39.9222 124.008 39.9222 106.297C39.9222 88.5856 56.8896 74.0934 78 74.0934C99.1104 74.0934 116.078 88.5856 116.078 106.297Z" stroke="#373844"></path> <path d="M123.369 91.0728C123.412 91.7259 123.441 92.3828 123.456 93.0432L122.956 93.0541C122.963 93.3795 122.966 93.7058 122.966 94.033C122.966 94.3601 122.963 94.6864 122.956 95.0118L123.456 95.0227C123.441 95.6831 123.412 96.34 123.369 96.9931L122.871 96.9603C122.828 97.6118 122.771 98.2594 122.7 98.9028L123.197 98.9576C123.125 99.6135 123.038 100.265 122.938 100.912L122.444 100.836C122.343 101.481 122.229 102.121 122.101 102.757L122.592 102.856C122.461 103.503 122.317 104.145 122.159 104.781L121.674 104.661C121.517 105.294 121.346 105.922 121.162 106.544L121.642 106.685C121.455 107.318 121.254 107.944 121.04 108.564L120.567 108.401C120.355 109.017 120.129 109.627 119.89 110.231L120.355 110.415C120.113 111.027 119.857 111.633 119.589 112.232L119.132 112.028C118.866 112.622 118.587 113.21 118.295 113.79L118.742 114.014C118.447 114.603 118.138 115.184 117.818 115.757L117.381 115.513C117.064 116.082 116.734 116.642 116.392 117.195L116.818 117.458C116.471 118.018 116.113 118.569 115.743 119.113L115.33 118.831C114.964 119.369 114.586 119.899 114.197 120.42L114.598 120.719C114.204 121.246 113.799 121.765 113.383 122.274L112.996 121.958C112.584 122.462 112.162 122.956 111.729 123.442L112.102 123.774C111.664 124.265 111.215 124.746 110.757 125.218L110.398 124.869C109.945 125.335 109.481 125.791 109.007 126.237L109.35 126.601C108.871 127.052 108.383 127.493 107.885 127.922L107.558 127.544C107.066 127.969 106.564 128.383 106.054 128.787L106.364 129.179C105.848 129.587 105.323 129.983 104.79 130.369L104.497 129.964C103.97 130.344 103.434 130.714 102.891 131.072L103.166 131.489C102.617 131.851 102.06 132.201 101.494 132.539L101.238 132.11C100.68 132.443 100.115 132.765 99.5418 133.075L99.7796 133.515C99.202 133.827 98.6168 134.127 98.0244 134.415L97.8059 133.965C97.2219 134.249 96.6309 134.521 96.033 134.78L96.2318 135.239C95.6296 135.5 95.0207 135.748 94.4052 135.984L94.2264 135.517C93.6204 135.749 93.008 135.968 92.3896 136.175L92.5479 136.649C91.9256 136.857 91.2973 137.051 90.6633 137.233L90.5257 136.752C89.9021 136.931 89.2729 137.096 88.6384 137.248L88.755 137.734C88.1173 137.887 87.4743 138.027 86.8264 138.153L86.7309 137.662C86.0942 137.786 85.4527 137.897 84.8067 137.994L84.881 138.488C84.2333 138.586 83.5811 138.669 82.9248 138.739L82.8718 138.242C82.228 138.311 81.58 138.366 80.9283 138.407L80.96 138.906C80.3068 138.948 79.6499 138.976 78.9895 138.99L78.979 138.49C78.6534 138.497 78.327 138.5 77.9998 138.5C77.6725 138.5 77.3461 138.497 77.0205 138.49L77.01 138.99C76.3496 138.976 75.6927 138.948 75.0395 138.906L75.0712 138.407C74.4195 138.366 73.7715 138.311 73.1276 138.242L73.0747 138.739C72.4183 138.669 71.7662 138.586 71.1185 138.488L71.1928 137.994C70.5467 137.897 69.9053 137.786 69.2686 137.662L69.1731 138.153C68.5252 138.027 67.8822 137.887 67.2445 137.734L67.3611 137.248C66.7266 137.096 66.0974 136.931 65.4738 136.752L65.3362 137.233C64.7022 137.051 64.0739 136.857 63.4516 136.649L63.6099 136.175C62.9915 135.968 62.3791 135.749 61.773 135.517L61.5943 135.984C60.9788 135.748 60.3698 135.5 59.7677 135.239L59.9665 134.78C59.3686 134.521 58.7776 134.249 58.1936 133.965L57.9751 134.415C57.3826 134.127 56.7975 133.827 56.2199 133.515L56.4577 133.075C55.8847 132.765 55.3192 132.443 54.7617 132.11L54.5051 132.539C53.9398 132.201 53.3827 131.851 52.8339 131.489L53.1089 131.072C52.565 130.714 52.0295 130.344 51.5026 129.964L51.2098 130.369C50.6762 129.983 50.1514 129.587 49.6358 129.179L49.9459 128.787C49.4352 128.383 48.9336 127.969 48.4415 127.544L48.1148 127.922C47.6167 127.493 47.1282 127.052 46.6496 126.601L46.9924 126.237C46.5187 125.791 46.0549 125.335 45.6013 124.869L45.243 125.218C44.7842 124.746 44.3356 124.265 43.8977 123.774L44.2708 123.442C43.8378 122.956 43.4153 122.461 43.0037 121.958L42.6165 122.274C42.2004 121.765 41.7954 121.246 41.4017 120.719L41.8024 120.42C41.4134 119.899 41.0356 119.369 40.6694 118.831L40.256 119.113C39.8862 118.569 39.528 118.018 39.1819 117.458L39.6072 117.195C39.2655 116.642 38.9356 116.082 38.618 115.513L38.1816 115.757C37.8611 115.184 37.5528 114.603 37.2572 114.014L37.704 113.79C37.4125 113.21 37.1335 112.622 36.8672 112.028L36.4109 112.232C36.1424 111.633 35.8868 111.027 35.6444 110.415L36.1094 110.231C35.8706 109.627 35.6447 109.017 35.4322 108.401L34.9595 108.564C34.7455 107.944 34.5447 107.318 34.3576 106.685L34.8371 106.544C34.653 105.922 34.4824 105.294 34.3254 104.661L33.8401 104.781C33.6822 104.145 33.538 103.503 33.4079 102.856L33.8981 102.757C33.7702 102.121 33.656 101.481 33.5559 100.836L33.0618 100.912C32.9614 100.265 32.8749 99.6135 32.8026 98.9575L33.2996 98.9028C33.2287 98.2593 33.1718 97.6117 33.1289 96.9603L32.63 96.9931C32.5871 96.34 32.5583 95.6831 32.5439 95.0227L33.0438 95.0118C33.0367 94.6864 33.0331 94.3601 33.0331 94.033C33.0331 93.7058 33.0367 93.3795 33.0438 93.0541L32.5439 93.0432C32.5583 92.3828 32.5871 91.7259 32.63 91.0728L33.1289 91.1056C33.1718 90.4541 33.2287 89.8065 33.2996 89.1631L32.8026 89.1083C32.8749 88.4524 32.9614 87.8007 33.0618 87.1535L33.5559 87.2302C33.6561 86.5851 33.7702 85.9445 33.8981 85.3089L33.4079 85.2103C33.538 84.5633 33.6822 83.9213 33.8401 83.2846L34.3254 83.4049C34.4824 82.772 34.653 82.1443 34.8371 81.5223L34.3577 81.3805C34.5447 80.7483 34.7455 80.1218 34.9595 79.5015L35.4322 79.6646C35.6447 79.0486 35.8706 78.4388 36.1094 77.8353L35.6444 77.6513C35.8868 77.0387 36.1425 76.4327 36.4109 75.8335L36.8672 76.0379C37.1335 75.4436 37.4125 74.8562 37.704 74.2759L37.2572 74.0515C37.5528 73.4631 37.8611 72.882 38.1816 72.3086L38.618 72.5525C38.9356 71.9843 39.2655 71.4237 39.6072 70.871L39.1819 70.6081C39.528 70.0482 39.8862 69.4965 40.256 68.9531L40.6694 69.2344C41.0356 68.6964 41.4134 68.1668 41.8024 67.6458L41.4017 67.3466C41.7954 66.8194 42.2004 66.3011 42.6165 65.7918L43.0037 66.1082C43.4153 65.6044 43.8378 65.1097 44.2708 64.6244L43.8977 64.2915C44.3356 63.8008 44.7842 63.3196 45.243 62.8482L45.6013 63.197C46.0549 62.731 46.5187 62.2748 46.9924 61.8287L46.6496 61.4647C47.1282 61.014 47.6167 60.5734 48.1148 60.1434L48.4415 60.5219C48.9336 60.0971 49.4352 59.6826 49.9459 59.279L49.6358 58.8867C50.1514 58.4792 50.6762 58.0825 51.2098 57.697L51.5026 58.1023C52.0295 57.7217 52.565 57.3522 53.1089 56.994L52.8339 56.5764C53.3827 56.2151 53.9399 55.8652 54.5051 55.5271L54.7617 55.9562C55.3193 55.6228 55.8847 55.3009 56.4577 54.9911L56.2199 54.5513C56.7975 54.239 57.3827 53.9387 57.9751 53.6508L58.1936 54.1005C58.7776 53.8167 59.3687 53.5451 59.9665 53.286L59.7677 52.8272C60.3699 52.5662 60.9789 52.3178 61.5943 52.0822L61.7731 52.5491C62.3791 52.3172 62.9915 52.0978 63.6099 51.8914L63.4516 51.4171C64.0739 51.2094 64.7022 51.0146 65.3362 50.8332L65.4738 51.3139C66.0974 51.1354 66.7267 50.9698 67.3611 50.8176L67.2445 50.3314C67.8822 50.1784 68.5252 50.0388 69.1731 49.9127L69.2686 50.4035C69.9053 50.2796 70.5468 50.169 71.1928 50.072L71.1186 49.5776C71.7662 49.4803 72.4184 49.3966 73.0747 49.3267L73.1277 49.8239C73.7715 49.7553 74.4195 49.7001 75.0712 49.6587L75.0395 49.1597C75.6927 49.1182 76.3496 49.0903 77.01 49.0764L77.0205 49.5763C77.3461 49.5694 77.6725 49.5659 77.9998 49.5659C78.327 49.5659 78.6534 49.5694 78.979 49.5763L78.9895 49.0764C79.6499 49.0903 80.3068 49.1182 80.96 49.1597L80.9283 49.6587C81.58 49.7001 82.228 49.7553 82.8719 49.8239L82.9248 49.3267C83.5812 49.3966 84.2333 49.4803 84.881 49.5776L84.8067 50.072C85.4528 50.169 86.0942 50.2796 86.7309 50.4035L86.8264 49.9127C87.4743 50.0388 88.1173 50.1785 88.755 50.3314L88.6384 50.8176C89.2729 50.9698 89.9021 51.1354 90.5257 51.3139L90.6633 50.8332C91.2973 51.0146 91.9256 51.2094 92.5479 51.4171L92.3896 51.8914C93.008 52.0978 93.6204 52.3172 94.2265 52.5491L94.4052 52.0822C95.0207 52.3178 95.6297 52.5662 96.2318 52.8272L96.033 53.286C96.6309 53.5451 97.2219 53.8167 97.8059 54.1005L98.0244 53.6508C98.6169 53.9387 99.202 54.239 99.7796 54.5513L99.5418 54.9911C100.115 55.3009 100.68 55.6228 101.238 55.9562L101.494 55.5271C102.06 55.8652 102.617 56.2151 103.166 56.5764L102.891 56.994C103.434 57.3522 103.97 57.7217 104.497 58.1023L104.79 57.697C105.323 58.0825 105.848 58.4792 106.364 58.8867L106.054 59.279C106.564 59.6826 107.066 60.0971 107.558 60.5219L107.885 60.1434C108.383 60.5734 108.871 61.014 109.35 61.4647L109.007 61.8287C109.481 62.2748 109.945 62.731 110.398 63.197L110.757 62.8482C111.215 63.3196 111.664 63.8008 112.102 64.2915L111.729 64.6244C112.162 65.1097 112.584 65.6044 112.996 66.1082L113.383 65.7918C113.799 66.3011 114.204 66.8195 114.598 67.3466L114.197 67.6458C114.586 68.1668 114.964 68.6964 115.33 69.2344L115.743 68.9531C116.113 69.4965 116.471 70.0483 116.818 70.6081L116.392 70.871C116.734 71.4237 117.064 71.9843 117.381 72.5526L117.818 72.3086C118.138 72.882 118.447 73.4631 118.742 74.0515L118.295 74.2759C118.587 74.8562 118.866 75.4437 119.132 76.038L119.589 75.8335C119.857 76.4327 120.113 77.0387 120.355 77.6514L119.89 77.8353C120.129 78.4388 120.355 79.0487 120.567 79.6646L121.04 79.5015C121.254 80.1219 121.455 80.7483 121.642 81.3805L121.162 81.5224C121.346 82.1444 121.517 82.772 121.674 83.405L122.159 83.2846C122.317 83.9213 122.461 84.5633 122.592 85.2103L122.101 85.3089C122.229 85.9445 122.343 86.5851 122.444 87.2302L122.938 87.1535C123.038 87.8007 123.125 88.4524 123.197 89.1084L122.7 89.1631C122.771 89.8066 122.828 90.4542 122.871 91.1056L123.369 91.0728Z" stroke="#373844" stroke-dasharray="2 2"></path> <path d="M108.169 41.4083C108.232 42.0434 108.274 42.6844 108.295 43.3307L107.796 43.3471C107.806 43.6624 107.811 43.9789 107.811 44.2967C107.811 44.6145 107.806 44.931 107.796 45.2463L108.295 45.2627C108.274 45.909 108.232 46.5501 108.169 47.1852L107.672 47.1359C107.609 47.7685 107.526 48.395 107.422 49.0148L107.916 49.097C107.809 49.7343 107.682 50.3647 107.535 50.9874L107.049 50.8724C106.903 51.4895 106.737 52.0989 106.552 52.7L107.03 52.8472C106.84 53.4636 106.63 54.0714 106.401 54.6699L105.934 54.4911C105.707 55.0826 105.462 55.6648 105.198 56.237L105.652 56.4465C105.382 57.0312 105.093 57.6056 104.786 58.169L104.347 57.9299C104.045 58.4855 103.724 59.0303 103.386 59.5633L103.809 59.8309C103.464 60.3744 103.103 60.906 102.724 61.4247L102.32 61.13C101.947 61.6406 101.558 62.1386 101.153 62.6234L101.537 62.9439C101.125 63.4373 100.697 63.9171 100.253 64.3825L99.8914 64.0376C99.4557 64.4951 99.005 64.9384 98.5401 65.3668L98.8789 65.7345C98.4066 66.1698 97.9199 66.5901 97.4195 66.9944L97.1052 66.6055C96.6143 67.0023 96.11 67.3835 95.5932 67.7484L95.8816 68.1569C95.3573 68.5271 94.8202 68.8808 94.2712 69.2173L94.0099 68.791C93.4722 69.1206 92.9228 69.4333 92.3625 69.7285L92.5956 70.1708C92.0284 70.4697 91.4502 70.7508 90.8618 71.0134L90.658 70.5568C90.0826 70.8137 89.4972 71.0526 88.9026 71.2728L89.0763 71.7417C88.4757 71.9641 87.8659 72.1678 87.2476 72.352L87.1048 71.8729C86.5019 72.0525 85.8908 72.2133 85.2722 72.3547L85.3835 72.8421C84.7599 72.9846 84.1287 73.1076 83.4906 73.2105L83.411 72.7169C82.7905 72.8169 82.1634 72.8975 81.5302 72.9581L81.5779 73.4559C80.9426 73.5167 80.3014 73.5576 79.655 73.5781L79.6392 73.0784C79.3237 73.0884 79.007 73.0934 78.689 73.0934C78.371 73.0934 78.0543 73.0884 77.7388 73.0784L77.723 73.5781C77.0766 73.5576 76.4354 73.5167 75.8001 73.4559L75.8478 72.9581C75.2146 72.8975 74.5875 72.8169 73.967 72.7169L73.8874 73.2105C73.2493 73.1076 72.6181 72.9846 71.9945 72.8421L72.1058 72.3547C71.4872 72.2133 70.8761 72.0525 70.2732 71.8729L70.1304 72.352C69.5121 72.1678 68.9023 71.9641 68.3017 71.7417L68.4754 71.2728C67.8808 71.0526 67.2954 70.8137 66.72 70.5568L66.5162 71.0134C65.9278 70.7508 65.3496 70.4697 64.7824 70.1708L65.0155 69.7285C64.4552 69.4333 63.9058 69.1206 63.3681 68.791L63.1068 69.2173C62.5578 68.8808 62.0207 68.5271 61.4964 68.1569L61.7848 67.7484C61.268 67.3835 60.7637 67.0023 60.2728 66.6055L59.9585 66.9944C59.4581 66.5901 58.9714 66.1698 58.4991 65.7345L58.8379 65.3668C58.373 64.9384 57.9223 64.4951 57.4866 64.0377L57.1245 64.3825C56.6812 63.9171 56.253 63.4373 55.8409 62.9439L56.2247 62.6234C55.8197 62.1386 55.4305 61.6406 55.0579 61.13L54.654 61.4247C54.2754 60.906 53.9135 60.3744 53.5692 59.8309L53.9915 59.5633C53.6538 59.0303 53.3333 58.4855 53.0307 57.9299L52.5916 58.169C52.2848 57.6056 51.9961 57.0312 51.7263 56.4465L52.1803 56.237C51.9163 55.6648 51.6706 55.0826 51.4441 54.4911L50.9772 54.6699C50.7481 54.0714 50.5382 53.4636 50.3483 52.8472L50.8261 52.7C50.6409 52.0989 50.4751 51.4895 50.3294 50.8724L49.8428 50.9874C49.6957 50.3647 49.5687 49.7343 49.4625 49.097L49.9557 49.0148C49.8524 48.395 49.7691 47.7685 49.7065 47.1359L49.2089 47.1852C49.1461 46.5501 49.1037 45.909 49.0826 45.2627L49.5823 45.2463C49.572 44.931 49.5668 44.6145 49.5668 44.2967C49.5668 43.9789 49.572 43.6624 49.5823 43.3471L49.0826 43.3307C49.1037 42.6844 49.1461 42.0433 49.2089 41.4082L49.7065 41.4575C49.7691 40.8249 49.8524 40.1984 49.9557 39.5786L49.4625 39.4964C49.5687 38.8591 49.6957 38.2288 49.8428 37.606L50.3294 37.721C50.4751 37.1039 50.6409 36.4945 50.8261 35.8934L50.3483 35.7462C50.5382 35.1298 50.7481 34.522 50.9772 33.9235L51.4441 34.1023C51.6706 33.5108 51.9162 32.9286 52.1803 32.3564L51.7263 32.1469C51.9961 31.5622 52.2848 30.9878 52.5916 30.4244L53.0307 30.6636C53.3333 30.1079 53.6538 29.5631 53.9915 29.0301L53.5692 28.7625C53.9135 28.219 54.2754 27.6875 54.654 27.1687L55.0579 27.4634C55.4305 26.9528 55.8197 26.4548 56.2246 25.97L55.8409 25.6495C56.253 25.1561 56.6812 24.6763 57.1245 24.2109L57.4866 24.5558C57.9223 24.0983 58.373 23.655 58.8379 23.2266L58.4991 22.8589C58.9714 22.4236 59.4581 22.0033 59.9585 21.599L60.2728 21.9879C60.7637 21.5911 61.268 21.2099 61.7848 20.845L61.4964 20.4366C62.0207 20.0663 62.5578 19.7126 63.1068 19.3761L63.3681 19.8024C63.9058 19.4728 64.4552 19.1601 65.0155 18.8649L64.7824 18.4226C65.3496 18.1238 65.9278 17.8427 66.5162 17.58L66.72 18.0366C67.2954 17.7797 67.8808 17.5408 68.4754 17.3206L68.3017 16.8517C68.9023 16.6293 69.5121 16.4256 70.1304 16.2414L70.2732 16.7206C70.8761 16.5409 71.4872 16.3801 72.1058 16.2387L71.9945 15.7513C72.6181 15.6088 73.2493 15.4858 73.8874 15.3829L73.967 15.8765C74.5875 15.7765 75.2146 15.6959 75.8478 15.6353L75.8001 15.1375C76.4354 15.0767 77.0766 15.0358 77.723 15.0153L77.7388 15.515C78.0543 15.505 78.371 15.5 78.689 15.5C79.007 15.5 79.3237 15.505 79.6392 15.515L79.655 15.0153C80.3014 15.0358 80.9426 15.0767 81.5779 15.1375L81.5302 15.6353C82.1634 15.6959 82.7905 15.7765 83.411 15.8765L83.4906 15.3829C84.1287 15.4858 84.7599 15.6088 85.3835 15.7513L85.2722 16.2387C85.8908 16.3801 86.5019 16.5409 87.1048 16.7206L87.2476 16.2414C87.8659 16.4256 88.4757 16.6293 89.0763 16.8517L88.9026 17.3206C89.4972 17.5408 90.0826 17.7797 90.658 18.0366L90.8618 17.58C91.4502 17.8427 92.0284 18.1238 92.5956 18.4226L92.3625 18.8649C92.9228 19.1601 93.4722 19.4728 94.0099 19.8024L94.2712 19.3761C94.8202 19.7126 95.3573 20.0663 95.8816 20.4365L95.5932 20.845C96.11 21.2099 96.6143 21.5911 97.1052 21.9879L97.4195 21.599C97.9199 22.0033 98.4066 22.4236 98.8789 22.8589L98.5401 23.2266C99.005 23.655 99.4557 24.0983 99.8914 24.5558L100.253 24.2109C100.697 24.6763 101.125 25.1561 101.537 25.6495L101.153 25.97C101.558 26.4548 101.947 26.9528 102.32 27.4634L102.724 27.1687C103.103 27.6875 103.464 28.219 103.809 28.7625L103.386 29.0301C103.724 29.5631 104.045 30.1079 104.347 30.6636L104.786 30.4244C105.093 30.9878 105.382 31.5622 105.652 32.1469L105.198 32.3564C105.462 32.9286 105.707 33.5108 105.934 34.1023L106.401 33.9235C106.63 34.522 106.84 35.1298 107.03 35.7462L106.552 35.8934C106.737 36.4945 106.903 37.1039 107.049 37.721L107.535 37.606C107.682 38.2287 107.809 38.8591 107.916 39.4964L107.422 39.5786C107.526 40.1984 107.609 40.8249 107.672 41.4575L108.169 41.4083Z" stroke="#373844" stroke-dasharray="2 2"></path> </svg> 