<?xml version="1.0" encoding="UTF-8"?> <svg xmlns="http://www.w3.org/2000/svg" width="344" height="133" viewBox="0 0 344 133" fill="none"> <path d="M1 81.0667C11.0279 72.8438 21.9462 65.6052 33.9066 59.7536C39.2721 57.1286 51.3282 49.9696 58.0639 52.1108C62.3809 53.4832 59.9029 60.3402 58.8311 62.8527C57.7904 65.292 55.1921 67.9832 58.6678 65.2294C64.8791 60.3082 91.0095 39.5651 98.3373 53.1358C100.516 57.1709 98.3451 60.8808 97.1486 64.708C96.2242 67.6647 99.1522 63.9293 100.131 63.154C105.427 58.9583 128.917 41.6319 133.251 56.0994C133.965 58.482 131.385 65.4987 132.732 63.4146C136.318 57.8688 143.97 54.3035 150.114 51.5448C162.856 45.8224 174.987 50.3326 170.774 63.8989C170.524 64.7029 172.271 62.9284 172.915 62.339C176.779 58.802 181.062 55.5226 185.652 52.7732C190.043 50.1425 201.422 43.3375 206.214 49.2432C209.119 52.8242 208.695 58.3795 207.111 62.2815C205.039 67.3835 208.585 62.4288 211.12 60.4466C218.752 54.479 243.117 38.5703 246.71 56.4357C247.123 58.4906 245.496 63.3315 248.379 60.5547C254.344 54.8074 262 51.0607 270.467 49.1092C287.861 45.0999 276.363 61.2082 275.442 60.766C274.149 60.1449 289.881 50.3225 290.926 49.799C294.706 47.9066 302.017 44.0369 305.386 48.9127C308.501 53.4195 305.527 58.3064 302.761 62.0291C300.893 64.5447 307.19 57.3452 308.185 56.5601C315.935 50.4437 324.735 45.9978 330.864 56.0817C335.039 62.9508 339.69 56.0075 342.981 51.7922" stroke="#515660" stroke-width="0.876923" stroke-linecap="round"></path> </svg> 