<?xml version="1.0" encoding="UTF-8"?> <svg xmlns="http://www.w3.org/2000/svg" width="1160" height="229" viewBox="0 0 1160 229" fill="none"> <path d="M1120 0H40C17.9086 0 0 17.9086 0 40V189C0 211.091 17.9086 229 40 229H1120C1142.09 229 1160 211.091 1160 189V40C1160 17.9086 1142.09 0 1120 0Z" fill="url(#paint0_linear_546_85)"></path> <g clip-path="url(#clip0_546_85)"> <path d="M1117 13H43C26.4315 13 13 26.4315 13 43V187C13 203.569 26.4315 217 43 217H1117C1133.57 217 1147 203.569 1147 187V43C1147 26.4315 1133.57 13 1117 13Z" fill="#FFEABE"></path> </g> <defs> <linearGradient id="paint0_linear_546_85" x1="580" y1="0" x2="580" y2="229" gradientUnits="userSpaceOnUse"> <stop stop-color="#FADFA3"></stop> <stop offset="1" stop-color="#F7CF7A"></stop> </linearGradient> <clipPath id="clip0_546_85"> <rect width="1134" height="204" fill="white" transform="translate(13 13)"></rect> </clipPath> </defs> </svg> 