<?xml version="1.0" encoding="UTF-8"?> <svg xmlns="http://www.w3.org/2000/svg" width="350" height="350" viewBox="0 0 350 350" fill="none"> <path d="M175 0L177.561 150.634L211.385 3.82417L182.571 151.699L246.179 15.1295L187.25 153.782L277.862 33.422L191.394 156.793L305.05 57.9021L194.821 160.599L326.554 87.5L197.382 165.035L341.435 120.922L198.965 169.906L349.041 156.708L199.5 175L349.041 193.292L198.965 180.094L341.435 229.078L197.382 184.965L326.554 262.5L194.821 189.401L305.05 292.098L191.394 193.207L277.862 316.578L187.25 196.218L246.179 334.87L182.571 198.301L211.385 346.176L177.561 199.366L175 350L172.439 199.366L138.615 346.176L167.429 198.301L103.821 334.87L162.75 196.218L72.1376 316.578L158.606 193.207L44.9497 292.098L155.179 189.401L23.4456 262.5L152.618 184.965L8.56511 229.078L151.035 180.094L0.958664 193.292L150.5 175L0.958664 156.708L151.035 169.906L8.56511 120.922L152.618 165.035L23.4456 87.5L155.179 160.599L44.9497 57.9021L158.606 156.793L72.1376 33.422L162.75 153.782L103.821 15.1295L167.429 151.699L138.615 3.82417L172.439 150.634L175 0Z" fill="#FEFBF6"></path> </svg> 