<?xml version="1.0" encoding="UTF-8"?> <svg xmlns="http://www.w3.org/2000/svg" width="37" height="37" viewBox="0 0 37 37" fill="none"> <g clip-path="url(#clip0_54_1185)"> <path fill-rule="evenodd" clip-rule="evenodd" d="M36.4511 18.2256C36.4511 28.2913 28.2913 36.4511 18.2256 36.4511C8.15986 36.4511 0 28.2913 0 18.2256C0 8.15986 8.15986 0 18.2256 0C28.2913 0 36.4511 8.15986 36.4511 18.2256ZM18.8787 13.4549C17.106 14.1922 13.5631 15.7183 8.24994 18.0332C7.38717 18.3763 6.93522 18.7119 6.89407 19.0401C6.82454 19.5948 7.51912 19.8132 8.46497 20.1106C8.59363 20.151 8.72694 20.1929 8.8636 20.2374C9.79417 20.5399 11.0459 20.8937 11.6967 20.9078C12.287 20.9206 12.9458 20.6772 13.6732 20.1777C18.6374 16.8268 21.1999 15.133 21.3608 15.0965C21.4743 15.0707 21.6316 15.0383 21.7382 15.1331C21.8448 15.2278 21.8343 15.4072 21.823 15.4553C21.7542 15.7486 19.0277 18.2834 17.6167 19.5952C17.1768 20.0041 16.8648 20.2942 16.8011 20.3604C16.6582 20.5088 16.5126 20.6492 16.3726 20.7841C15.5081 21.6175 14.8598 22.2425 16.4085 23.2631C17.1527 23.7535 17.7483 24.1591 18.3424 24.5637C18.9913 25.0056 19.6385 25.4463 20.4758 25.9952C20.6892 26.1351 20.8929 26.2803 21.0914 26.4218C21.8465 26.9601 22.5249 27.4438 23.363 27.3666C23.85 27.3218 24.3531 26.8639 24.6086 25.4981C25.2124 22.2703 26.3992 15.2768 26.6734 12.3949C26.6975 12.1424 26.6672 11.8192 26.643 11.6774C26.6187 11.5355 26.568 11.3334 26.3836 11.1838C26.1652 11.0066 25.8281 10.9693 25.6773 10.9719C24.9918 10.984 23.9401 11.3497 18.8787 13.4549Z" fill="#FEFBF6"></path> </g> <defs> <clipPath id="clip0_54_1185"> <rect width="37" height="37" fill="white"></rect> </clipPath> </defs> </svg> 