<?xml version="1.0" encoding="UTF-8"?> <svg xmlns="http://www.w3.org/2000/svg" width="1160" height="439" viewBox="0 0 1160 439" fill="none"> <g clip-path="url(#clip0_549_104)"> <path d="M1120 0H40C17.9086 0 0 17.9086 0 40V399C0 421.091 17.9086 439 40 439H1120C1142.09 439 1160 421.091 1160 399V40C1160 17.9086 1142.09 0 1120 0Z" fill="url(#paint0_linear_549_104)"></path> <g clip-path="url(#clip1_549_104)"> <path d="M1117 14H43C26.4315 14 13 27.4315 13 44V396C13 412.569 26.4315 426 43 426H1117C1133.57 426 1147 412.569 1147 396V44C1147 27.4315 1133.57 14 1117 14Z" fill="url(#paint1_linear_549_104)"></path> </g> </g> <defs> <linearGradient id="paint0_linear_549_104" x1="580" y1="0" x2="580" y2="439" gradientUnits="userSpaceOnUse"> <stop stop-color="#FADFA3"></stop> <stop offset="1" stop-color="#C79223"></stop> </linearGradient> <linearGradient id="paint1_linear_549_104" x1="580" y1="14" x2="580" y2="426" gradientUnits="userSpaceOnUse"> <stop stop-color="#FFF6E4"></stop> <stop offset="1" stop-color="#F7CF7A"></stop> </linearGradient> <clipPath id="clip0_549_104"> <rect width="1160" height="439" fill="white"></rect> </clipPath> <clipPath id="clip1_549_104"> <rect width="1134" height="412" fill="white" transform="translate(13 14)"></rect> </clipPath> </defs> </svg> 