<?xml version="1.0" encoding="UTF-8"?> <svg xmlns="http://www.w3.org/2000/svg" width="1160" height="564" viewBox="0 0 1160 564" fill="none"> <path d="M1096 26H64C41.9086 26 24 43.9086 24 66V524C24 546.091 41.9086 564 64 564H1096C1118.09 564 1136 546.091 1136 524V66C1136 43.9086 1118.09 26 1096 26Z" fill="#C79223"></path> <path d="M1120 1H40C17.9086 1 0 18.9086 0 41V499C0 521.091 17.9086 539 40 539H1120C1142.09 539 1160 521.091 1160 499V41C1160 18.9086 1142.09 1 1120 1Z" fill="#FFD374"></path> <mask id="mask0_540_41" style="mask-type:alpha" maskUnits="userSpaceOnUse" x="0" y="0" width="1160" height="538"> <path d="M1120 0H40C17.9086 0 0 17.9086 0 40V498C0 520.091 17.9086 538 40 538H1120C1142.09 538 1160 520.091 1160 498V40C1160 17.9086 1142.09 0 1120 0Z" fill="#FFD884"></path> </mask> <g mask="url(#mask0_540_41)"> <g style="mix-blend-mode:overlay" filter="url(#filter0_f_540_41)"> <path d="M765.5 679C939.746 679 1081 548.267 1081 387C1081 225.733 939.746 95 765.5 95C591.254 95 450 225.733 450 387C450 548.267 591.254 679 765.5 679Z" fill="white"></path> </g> </g> <defs> <filter id="filter0_f_540_41" x="-150" y="-505" width="1831" height="1784" filterUnits="userSpaceOnUse" color-interpolation-filters="sRGB"> <feFlood flood-opacity="0" result="BackgroundImageFix"></feFlood> <feBlend mode="normal" in="SourceGraphic" in2="BackgroundImageFix" result="shape"></feBlend> <feGaussianBlur stdDeviation="300" result="effect1_foregroundBlur_540_41"></feGaussianBlur> </filter> </defs> </svg> 