<?xml version="1.0" encoding="UTF-8"?> <svg xmlns="http://www.w3.org/2000/svg" width="667" height="497" viewBox="0 0 667 497" fill="none"> <g clip-path="url(#clip0_630_233)"> <path d="M200.055 445.371H230.961V445.038H200.055V445.371Z" fill="#E7E8E5"></path> <path d="M56.9609 452.186H132.521V452.52H56.9609V452.186Z" fill="#E7E8E5"></path> <path d="M389.307 437.254H420.095V330.702H389.307V437.254Z" fill="#E2E2E0"></path> <path d="M367.508 437.254H398.296V330.702H367.508V437.254Z" fill="#E2E2E0"></path> <path d="M392.451 437.254H398.295V420.616H386.309L392.451 437.254Z" fill="#EDEDEB"></path> <path d="M212.752 437.254H243.54V330.702H212.752V437.254Z" fill="#E2E2E0"></path> <path d="M238.434 429.066H398.295V330.702H238.434V429.066Z" fill="#EDEDEB"></path> <path d="M325.732 336.232C323.117 336.232 320.997 338.348 320.989 340.963V400.84C320.961 403.46 323.06 405.606 325.68 405.633H325.732H388.332C390.951 405.656 393.091 403.551 393.113 400.931V400.84V340.963C393.105 338.348 390.984 336.232 388.369 336.232H325.732ZM388.344 406.93H325.732C322.372 406.923 319.649 404.2 319.643 400.84V340.963C319.649 337.602 322.372 334.879 325.732 334.871H388.332C391.692 334.879 394.415 337.602 394.421 340.963V400.84C394.415 404.195 391.7 406.915 388.344 406.93Z" fill="#DADBD8"></path> <path d="M248.386 336.232C245.774 336.232 243.656 338.35 243.656 340.963V400.84C243.656 403.452 245.774 405.57 248.386 405.57H310.984C313.599 405.57 315.72 403.455 315.727 400.84V340.963C315.72 338.348 313.599 336.232 310.984 336.232H248.386ZM310.984 406.93H248.386C245.024 406.923 242.303 404.2 242.295 400.84V340.963C242.303 337.602 245.024 334.879 248.386 334.871H310.984C314.348 334.871 317.075 337.598 317.075 340.962V340.963V400.84C317.075 404.203 314.348 406.93 310.986 406.93H310.984Z" fill="#DADBD8"></path> <path d="M305.181 353.805C301.932 353.81 299.292 351.183 299.285 347.934C299.279 344.685 301.907 342.045 305.155 342.038C308.404 342.03 311.044 344.658 311.051 347.909V347.934C311.044 351.173 308.42 353.797 305.181 353.805Z" fill="#FAFAF9"></path> <path d="M331.55 353.805C328.301 353.825 325.65 351.209 325.629 347.959C325.608 344.71 328.224 342.059 331.473 342.038C334.721 342.017 337.372 344.634 337.394 347.882V347.971C337.372 351.189 334.766 353.79 331.55 353.805Z" fill="#FAFAF9"></path> <path d="M244.278 437.254H238.434V420.616H250.42L244.278 437.254Z" fill="#EDEDEB"></path> <path d="M202.943 437.254H233.73V330.702H202.943V437.254Z" fill="#E2E2E0"></path> <path d="M227.887 437.254H233.729V420.616H221.744L227.887 437.254Z" fill="#EDEDEB"></path> <path d="M73.8691 429.066H233.729V330.702H73.8691V429.066Z" fill="#EDEDEB"></path> <path d="M161.167 336.232C158.552 336.232 156.431 338.348 156.423 340.963V400.84C156.395 403.46 158.495 405.606 161.113 405.633H161.167H223.765C226.385 405.656 228.525 403.551 228.546 400.931V400.84V340.963C228.54 338.354 226.427 336.24 223.817 336.232H161.167ZM223.778 406.93H161.167C157.8 406.93 155.069 404.206 155.062 400.84V340.963C155.069 337.596 157.8 334.871 161.167 334.871H223.765C227.125 334.879 229.848 337.602 229.856 340.963V400.84C229.848 404.195 227.134 406.915 223.778 406.93Z" fill="#DADBD8"></path> <path d="M83.8205 336.232C81.2065 336.232 79.0857 338.348 79.0783 340.963V400.84C79.0497 403.46 81.1491 405.606 83.7685 405.633H83.8205H146.42C149.034 405.633 151.156 403.519 151.163 400.906V340.963C151.156 338.348 149.034 336.232 146.42 336.232H83.8205ZM146.42 406.93H83.8205C80.457 406.93 77.7305 404.203 77.7305 400.84V340.963C77.7305 337.598 80.457 334.871 83.8205 334.871H146.42C149.78 334.879 152.503 337.602 152.51 340.963V400.84C152.503 404.2 149.78 406.923 146.42 406.93Z" fill="#DADBD8"></path> <path d="M140.615 353.805C137.365 353.81 134.725 351.183 134.719 347.934C134.712 344.685 137.34 342.045 140.589 342.038C143.837 342.03 146.477 344.658 146.484 347.909V347.934C146.484 351.175 143.857 353.805 140.615 353.805Z" fill="#FAFAF9"></path> <path d="M166.984 353.805C163.735 353.825 161.084 351.209 161.063 347.959C161.041 344.71 163.657 342.059 166.907 342.038C170.156 342.017 172.807 344.634 172.828 347.882V347.971C172.807 351.189 170.2 353.79 166.984 353.805Z" fill="#FAFAF9"></path> <path d="M79.7134 437.254H73.8691V420.616H85.8421L79.7134 437.254Z" fill="#EDEDEB"></path> <path d="M299.096 92.6445H356.382V35.3591H299.096V92.6445Z" fill="#E7E8E5"></path> <path d="M356.383 92.6523H358.921V35.3663H356.383V92.6523Z" fill="#DADBD8"></path> <path d="M306.863 84.8867H348.625V43.1258H306.863V84.8867Z" fill="white"></path> <path d="M334.73 70.9917C330.87 74.8517 324.611 74.8517 320.752 70.9917C316.892 67.1317 316.892 60.8744 320.752 57.0157C324.611 53.1557 330.87 53.1557 334.73 57.0157C338.588 60.8744 338.588 67.1317 334.73 70.9917Z" fill="#F3F2F1"></path> <path d="M233.102 176.172H300.264V109.009H233.102V176.172Z" fill="#E7E8E5"></path> <path d="M300.264 109.022H303.24V176.184H300.264V109.022Z" fill="#DADBD8"></path> <path d="M242.209 167.078H291.169V118.117H242.209V167.078Z" fill="white"></path> <path d="M256.242 153.031H277.124V132.151H256.242V153.031Z" fill="#F3F2F1"></path> <path d="M333.335 466.56C476.111 466.56 591.855 473.317 591.855 481.653C591.855 489.989 476.111 496.746 333.335 496.746C190.557 496.746 74.8145 489.989 74.8145 481.653C74.8145 473.317 190.557 466.56 333.335 466.56Z" fill="#F3F2F1"></path> <path d="M285.99 134.241C283.038 141.397 265.697 140.917 247.515 133.417C229.333 125.917 216.986 114.037 219.938 106.881C220.622 105.222 222.53 99.0277 224.575 98.1664C231.351 95.3091 244.237 101.744 258.203 107.505C271.203 112.868 286.061 116.314 288.369 123.376C289.767 127.66 286.831 132.202 285.99 134.241Z" fill="#406FBF"></path> <path d="M241.9 130.879C240.728 130.298 239.591 129.7 238.492 129.091C239.594 129.7 240.731 130.296 241.902 130.876L241.9 130.879Z" fill="#B1B3B1"></path> <path d="M231.11 124.43C229.588 123.322 228.186 122.195 226.928 121.066C228.188 122.194 229.588 123.318 231.113 124.426L231.11 124.43Z" fill="#C3C5C2"></path> <path d="M277.122 139.133V139.126C277.264 139.109 277.404 139.09 277.542 139.071C277.404 139.094 277.264 139.114 277.122 139.133ZM278.812 138.861C280.914 138.446 282.654 137.762 283.94 136.799C282.654 137.762 280.913 138.448 278.812 138.861ZM283.944 136.797C283.946 136.795 283.949 136.793 283.952 136.792C283.949 136.793 283.946 136.794 283.944 136.797ZM256.241 136.517C255.274 136.23 254.298 135.922 253.314 135.595L253.318 135.588C254.301 135.917 255.274 136.225 256.241 136.511V136.517ZM252.03 135.145C250.541 134.621 249.022 134.05 247.513 133.422C246.166 132.87 244.853 132.285 243.566 131.678C244.848 132.279 246.165 132.859 247.514 133.417C249.028 134.041 250.537 134.617 252.032 135.143L252.03 135.145ZM286.398 133.346C287.073 131.95 288.108 129.946 288.54 127.75C288.197 130.135 287.161 131.817 286.398 133.346ZM288.378 123.405C288.376 123.393 288.372 123.381 288.368 123.369C288.369 123.371 288.372 123.373 288.373 123.375C288.374 123.385 288.377 123.395 288.378 123.405Z" fill="#C3C5C2"></path> <path d="M273.404 139.34C271.397 139.34 269.221 139.183 266.916 138.863C269.214 139.177 271.384 139.336 273.384 139.336C274.709 139.336 275.96 139.267 277.124 139.127V139.133C276.736 139.184 276.336 139.219 275.926 139.251C275.121 139.311 274.278 139.34 273.404 139.34ZM264.632 138.507C261.956 138.044 259.142 137.375 256.242 136.517V136.512C259.142 137.372 261.958 138.037 264.632 138.505V138.507Z" fill="#BABCBA"></path> <path d="M273.383 139.336C271.383 139.336 269.213 139.177 266.915 138.863C266.624 138.823 266.332 138.78 266.037 138.735L269.407 132.712C271.568 132.996 273.612 133.137 275.505 133.137C282.101 133.137 286.863 131.416 288.293 127.948C288.451 127.565 288.565 127.169 288.637 126.76C288.619 127.103 288.585 127.433 288.54 127.751C288.108 129.947 287.073 131.951 286.399 133.347C286.249 133.649 286.109 133.945 285.988 134.24C285.576 135.239 284.885 136.089 283.952 136.792C283.949 136.793 283.947 136.796 283.944 136.797C283.943 136.799 283.941 136.799 283.94 136.8C282.655 137.763 280.915 138.447 278.812 138.861C278.811 138.861 278.811 138.861 278.809 138.861C278.803 138.863 278.796 138.864 278.789 138.865C278.388 138.944 277.976 139.012 277.551 139.071C277.548 139.072 277.545 139.072 277.543 139.072C277.404 139.091 277.264 139.109 277.123 139.127C275.959 139.267 274.708 139.336 273.383 139.336ZM264.631 138.505C261.957 138.037 259.141 137.372 256.241 136.512C255.275 136.225 254.301 135.917 253.319 135.588L256.589 129.74C260.571 131.028 264.419 131.952 267.985 132.509L264.631 138.505ZM252.032 135.144C250.537 134.617 249.028 134.041 247.515 133.417C246.165 132.86 244.848 132.28 243.567 131.679C243.416 131.608 243.265 131.536 243.115 131.464L246.333 125.705C247.535 126.264 248.767 126.805 250.027 127.325C251.797 128.055 253.556 128.716 255.295 129.309L252.031 135.145M241.901 130.876C240.731 130.296 239.593 129.7 238.492 129.091C236.232 127.837 234.129 126.528 232.203 125.195L235.361 119.548C238.257 121.507 241.537 123.395 245.116 125.127L241.901 130.876ZM231.113 124.425C229.588 123.317 228.188 122.193 226.928 121.065C225.725 119.987 224.652 118.905 223.727 117.836L226.784 112.367C228.756 114.508 231.285 116.683 234.264 118.788L231.113 124.425Z" fill="#FEB700"></path> <path d="M220.145 106.352C220.951 104.122 222.474 98.9782 224.561 98.1689C224.553 98.1742 224.546 98.1796 224.538 98.1849C224.069 98.3982 223.606 98.8902 223.165 99.5409C222.926 99.8596 222.722 100.198 222.555 100.556C221.521 102.466 220.65 105.002 220.145 106.352Z" fill="#C3C5C2"></path> <path d="M222.807 116.734C219.937 113.098 218.806 109.638 219.941 106.884C220.003 106.734 220.071 106.554 220.145 106.349C220.65 105 221.521 102.464 222.555 100.553C222.518 100.63 222.485 100.709 222.451 100.789C221.246 103.712 222.593 107.421 225.846 111.301L222.807 116.734ZM223.165 99.5384C223.606 98.8877 224.069 98.3957 224.538 98.1824C223.999 98.5864 223.539 99.0384 223.165 99.5384Z" fill="#FEB700"></path> <path d="M223.727 117.836C223.396 117.467 223.095 117.103 222.807 116.735L225.845 111.301C226.143 111.655 226.456 112.011 226.784 112.367L223.727 117.836Z" fill="#FFC42E"></path> <path d="M231.325 124.578C231.254 124.529 231.183 124.479 231.111 124.43L231.114 124.426C231.185 124.477 231.254 124.527 231.325 124.578Z" fill="#969898"></path> <path d="M232.203 125.195C231.9 124.99 231.612 124.781 231.324 124.578C231.253 124.527 231.184 124.477 231.113 124.426L234.264 118.789C234.623 119.043 234.988 119.295 235.361 119.549L232.203 125.195Z" fill="#FFC42E"></path> <path d="M253.315 135.598C252.89 135.455 252.461 135.302 252.031 135.147C252.462 135.298 252.891 135.446 253.319 135.59L253.315 135.598Z" fill="#969898"></path> <path d="M253.32 135.59C252.892 135.446 252.463 135.298 252.033 135.146L255.296 129.311C255.728 129.459 256.16 129.602 256.591 129.742L253.32 135.59Z" fill="#FFC42E"></path> <path d="M242.208 131.027C242.106 130.978 242.003 130.927 241.9 130.878L241.902 130.875C242.003 130.926 242.106 130.977 242.208 131.026V131.027Z" fill="#898B8C"></path> <path d="M243.054 131.438C242.769 131.306 242.488 131.167 242.209 131.03V131.028C242.489 131.166 242.77 131.302 243.054 131.438Z" fill="#969898"></path> <path d="M243.116 131.465C243.096 131.456 243.074 131.446 243.054 131.437C242.77 131.301 242.489 131.165 242.209 131.028C242.106 130.978 242.004 130.928 241.902 130.877L245.117 125.128C245.518 125.322 245.925 125.516 246.334 125.706L243.116 131.465Z" fill="#FFC42E"></path> <path d="M265.982 138.727C265.532 138.671 265.087 138.587 264.631 138.507V138.505C265.086 138.585 265.535 138.659 265.982 138.727Z" fill="#909292"></path> <path d="M266.038 138.734C266.019 138.732 266 138.729 265.982 138.726C265.535 138.658 265.086 138.585 264.631 138.505L267.986 132.509C268.464 132.584 268.938 132.65 269.407 132.712L266.038 138.734Z" fill="#FFC42E"></path> <path d="M288.294 127.947C285.342 135.103 268.21 134.824 250.027 127.324C231.846 119.824 219.501 107.943 222.451 100.788C225.403 93.6322 242.535 93.9109 260.717 101.411C278.898 108.911 291.245 120.792 288.294 127.947Z" fill="#FFC42E"></path> <path d="M273.454 128.77C267.862 128.77 260.231 127.084 252.283 123.806C237.894 117.871 227.921 108.962 230.006 103.906C230.941 101.643 234.133 100.535 238.665 100.535C244.257 100.535 251.889 102.22 259.835 105.498C274.223 111.434 284.198 120.343 282.113 125.399C281.179 127.662 277.986 128.77 273.454 128.77Z" fill="#FFE49F"></path> <path d="M377.885 69.5236C382.624 75.6423 373.582 90.449 358.032 102.492C342.482 114.534 326.034 119.336 321.296 113.216C320.196 111.797 315.773 107.061 316.041 104.858C316.933 97.5596 328.924 89.5809 340.869 80.3303C351.988 71.7196 362.368 60.545 369.642 62.057C374.054 62.973 376.533 67.7783 377.885 69.5236Z" fill="#406FBF"></path> <path d="M337.059 114.215C337.804 113.968 338.563 113.695 339.335 113.395V113.397C338.563 113.696 337.804 113.968 337.059 114.215ZM339.668 113.268V113.265C340.457 112.952 341.261 112.614 342.075 112.248L342.077 112.252C341.263 112.616 340.459 112.956 339.668 113.268Z" fill="#C3C5C2"></path> <path d="M339.334 113.398V113.396C339.445 113.353 339.557 113.309 339.667 113.266V113.269C339.557 113.313 339.445 113.356 339.334 113.398Z" fill="#B1B3B1"></path> <path d="M320.963 112.805C319.448 111.011 315.692 107.094 316.034 104.869C316.034 104.878 316.035 104.887 316.036 104.897C315.987 105.411 316.184 106.059 316.531 106.769C316.688 107.131 316.879 107.474 317.104 107.795C318.26 109.663 320.052 111.702 320.963 112.805ZM349.852 108.129C350.908 107.487 351.971 106.81 353.035 106.097L353.036 106.099C351.971 106.813 350.908 107.49 349.852 108.129ZM354.608 105.017C355.751 104.214 356.894 103.373 358.031 102.491C359.296 101.511 360.518 100.514 361.692 99.5047C360.524 100.511 359.302 101.521 358.035 102.494C356.903 103.377 355.758 104.214 354.608 105.017ZM362.806 98.5434L362.802 98.5354C365.9 95.7807 368.644 92.954 370.959 90.1727L370.96 90.174C368.651 92.962 365.9 95.7807 362.806 98.5434ZM372.079 88.7887C374.707 85.442 376.682 82.1967 377.867 79.2687C377.684 79.754 377.462 80.2447 377.224 80.7447C376.014 83.274 374.276 86.0007 372.079 88.7887ZM379.138 73.2287C379.138 73.226 379.138 73.2247 379.138 73.2207C379.138 73.2234 379.138 73.2273 379.138 73.2287ZM377.32 68.734C376.443 67.454 375.215 65.5514 373.518 64.0794C375.426 65.5674 376.368 67.31 377.32 68.734ZM369.672 62.0607C369.66 62.0567 369.647 62.054 369.635 62.0514C369.638 62.0514 369.64 62.05 369.643 62.05C369.654 62.054 369.663 62.0567 369.672 62.0607Z" fill="#C3C5C2"></path> <path d="M328.205 115.871C325.102 115.871 322.693 115.015 321.298 113.215C321.206 113.096 321.093 112.959 320.963 112.806C320.053 111.703 318.261 109.664 317.105 107.796C317.155 107.867 317.206 107.938 317.259 108.006C318.657 109.81 321.071 110.664 324.181 110.664C325.379 110.664 326.681 110.538 328.067 110.29L331.269 115.628C330.187 115.79 329.163 115.871 328.205 115.871ZM332.683 115.378L329.459 110.006C332.297 109.359 335.443 108.246 338.75 106.711L342.074 112.247C341.261 112.612 340.457 112.951 339.667 113.264C339.557 113.307 339.445 113.351 339.334 113.394C338.562 113.694 337.803 113.967 337.058 114.214C335.53 114.718 334.065 115.108 332.683 115.378ZM343.283 111.686L339.954 106.136C343.094 104.599 346.365 102.691 349.646 100.448L353.035 106.098C351.971 106.811 350.909 107.488 349.853 108.13C347.619 109.482 345.418 110.668 343.283 111.686ZM316.531 106.77C316.185 106.06 315.987 105.412 316.037 104.898C316.119 105.568 316.283 106.195 316.531 106.77ZM354.149 105.336L350.753 99.6804C351.835 98.9164 352.918 98.1164 353.997 97.2818C355.51 96.1098 356.959 94.9111 358.338 93.6991L361.777 99.4324C361.749 99.4564 361.721 99.4818 361.693 99.5058C360.518 100.515 359.297 101.512 358.031 102.492C356.894 103.374 355.751 104.215 354.609 105.018C354.455 105.124 354.302 105.231 354.149 105.336ZM362.802 98.5364L359.355 92.7911C362.454 89.9778 365.17 87.0978 367.426 84.2804L370.959 90.1738C368.645 92.9551 365.901 95.7818 362.802 98.5364ZM371.858 89.0671L368.31 83.1484C374.23 75.3764 376.527 68.2125 373.571 64.3951C373.317 64.0671 373.03 63.7711 372.71 63.5058C372.998 63.6911 373.266 63.8844 373.518 64.0804C375.215 65.5524 376.443 67.4551 377.321 68.7351C377.505 69.0124 377.69 69.2764 377.882 69.5244C378.667 70.5378 379.075 71.7871 379.138 73.2218C379.138 73.2258 379.138 73.2271 379.138 73.2298C379.138 73.2338 379.138 73.2378 379.138 73.2404C379.183 74.3244 379.033 75.5138 378.701 76.7858C378.699 76.7911 378.698 76.7951 378.697 76.8004C378.697 76.8018 378.697 76.8031 378.697 76.8044C378.49 77.5884 378.215 78.4058 377.875 79.2471C377.873 79.2551 377.87 79.2618 377.867 79.2698C376.682 82.1978 374.707 85.4431 372.079 88.7898C372.006 88.8818 371.933 88.9738 371.858 89.0671Z" fill="#FEB700"></path> <path d="M331.268 115.629L328.066 110.29C328.521 110.208 328.985 110.113 329.458 110.006L332.682 115.378C332.197 115.482 331.732 115.562 331.268 115.629Z" fill="#FFC42E"></path> <path d="M342.077 112.25L342.074 112.246C342.145 112.214 342.217 112.182 342.289 112.149C342.217 112.182 342.146 112.217 342.077 112.25Z" fill="#969898"></path> <path d="M342.074 112.246L338.75 106.71C339.15 106.525 339.55 106.333 339.954 106.135L343.283 111.685C342.947 111.849 342.614 111.997 342.289 112.149C342.217 112.182 342.145 112.214 342.074 112.246Z" fill="#FFC42E"></path> <path d="M361.793 99.418C362.133 99.1246 362.469 98.83 362.801 98.5366L362.805 98.5446C362.477 98.8366 362.136 99.1273 361.793 99.418Z" fill="#969898"></path> <path d="M361.777 99.4336L358.338 93.7003C358.682 93.3976 359.019 93.0963 359.355 92.7923L362.802 98.5376C362.47 98.8309 362.134 99.1256 361.794 99.4189C361.789 99.4229 361.782 99.4283 361.777 99.4336Z" fill="#FFC42E"></path> <path d="M353.036 106.102L353.035 106.099C353.383 105.866 353.733 105.628 354.081 105.387C353.735 105.634 353.38 105.866 353.036 106.102Z" fill="#969898"></path> <path d="M353.036 106.098L349.646 100.448C350.016 100.196 350.385 99.9403 350.753 99.6803L354.149 105.336C354.126 105.354 354.104 105.37 354.081 105.386C353.733 105.627 353.384 105.864 353.036 106.098Z" fill="#FFC42E"></path> <path d="M370.96 90.1758L370.959 90.1744C371.26 89.8118 371.555 89.4491 371.842 89.0891C371.563 89.4585 371.263 89.8104 370.96 90.1758Z" fill="#969898"></path> <path d="M370.959 90.1758L367.426 84.2825C367.728 83.9051 368.023 83.5265 368.31 83.1505L371.858 89.0691C371.852 89.0758 371.847 89.0838 371.842 89.0905C371.555 89.4505 371.26 89.8131 370.959 90.1758Z" fill="#FFC42E"></path> <path d="M373.571 64.394C378.31 70.514 369.546 85.238 353.996 97.2807C338.446 109.323 321.999 114.125 317.259 108.005C312.52 101.885 321.283 87.162 336.834 75.1194C352.383 63.0754 368.831 58.2754 373.571 64.394Z" fill="#FFC42E"></path> <path d="M328.203 104.699C326.167 104.699 324.612 104.154 323.72 103.001C320.372 98.6766 327.633 87.4459 339.939 77.9166C348.965 70.9246 358.2 66.7912 363.801 66.7912C365.836 66.7912 367.392 67.3366 368.284 68.4886C371.633 72.8126 364.371 84.0432 352.065 93.5726C343.039 100.565 333.804 104.699 328.203 104.699Z" fill="#FFE49F"></path> <path d="M313.515 40.852C311.953 49.6266 292.327 53.3493 270.028 49.38C247.729 45.412 230.92 35.0799 232.481 26.3053C232.844 24.2706 233.469 16.8333 235.557 15.36C242.477 10.4813 258.556 14.5533 275.684 17.6026C291.627 20.4399 309.189 20.6666 313.521 28.044C316.147 32.5186 313.96 38.3506 313.515 40.852Z" fill="#406FBF"></path> <path d="M287.201 50.9727C283.989 50.9727 280.597 50.782 277.088 50.4073L277.092 50.3967C280.611 50.7807 284.013 50.966 287.236 50.966C288.359 50.966 289.459 50.9446 290.535 50.8993V50.9007C289.448 50.9487 288.336 50.9727 287.201 50.9727ZM292.737 50.774C294.993 50.6113 297.123 50.3447 299.096 49.982V49.986C297.121 50.35 294.993 50.6153 292.737 50.774Z" fill="#C3C5C2"></path> <path d="M299.096 49.9844V49.9804C301.345 49.5657 303.393 49.0244 305.194 48.3644C304.634 48.5857 304.04 48.7764 303.425 48.9604C302.085 49.3577 300.638 49.7017 299.096 49.9844Z" fill="#B1B3B1"></path> <path d="M275.533 50.2148C273.729 49.9922 271.881 49.7242 270.028 49.3868C268.377 49.0988 266.757 48.7629 265.164 48.3962C266.752 48.7575 268.374 49.0868 270.028 49.3815C271.884 49.7122 273.724 49.9895 275.533 50.2148ZM263.088 47.9068C261.577 47.5282 260.106 47.1215 258.676 46.6895C260.108 47.1202 261.581 47.5255 263.089 47.9028L263.088 47.9068Z" fill="#C3C5C2"></path> <path d="M307.44 47.4152C309.167 46.5765 310.574 45.5979 311.607 44.4899C310.574 45.5992 309.166 46.5779 307.44 47.4152Z" fill="#C3C5C2"></path> <path d="M249.365 43.3008C247.333 42.4074 245.438 41.4621 243.713 40.4768C245.44 41.4595 247.332 42.4035 249.368 43.2955L249.365 43.3008ZM314.734 35.3595H314.649C314.749 34.5688 314.806 33.7475 314.788 32.9195C314.852 33.7901 314.821 34.5995 314.734 35.3595Z" fill="#C3C5C2"></path> <path d="M313.744 39.793C314.027 38.6063 314.433 37.053 314.648 35.3596H314.733C314.541 37.037 314.075 38.4703 313.744 39.793Z" fill="#B1B3B1"></path> <path d="M313.54 28.0742C313.532 28.0609 313.526 28.0475 313.518 28.0342C313.52 28.0369 313.523 28.0396 313.526 28.0409C313.531 28.0516 313.535 28.0636 313.54 28.0742Z" fill="#C3C5C2"></path> <path d="M287.236 50.9648C284.013 50.9648 280.611 50.7795 277.092 50.3955L279.333 43.0129C282.413 43.3155 285.391 43.4622 288.228 43.4622C289.811 43.4622 291.349 43.4169 292.835 43.3275L290.535 50.8982C289.459 50.9435 288.359 50.9648 287.236 50.9648ZM292.173 50.8102L294.484 43.2075C305.694 42.2542 313.585 38.6795 314.56 33.2062C314.644 32.7369 314.675 32.2622 314.655 31.7835C314.719 32.1742 314.761 32.5515 314.788 32.9195C314.807 33.7475 314.75 34.5689 314.65 35.3595C314.435 37.0529 314.028 38.6062 313.746 39.7929C313.655 40.1529 313.575 40.5049 313.514 40.8502C313.276 42.1849 312.624 43.4009 311.608 44.4902C310.575 45.5982 309.168 46.5769 307.441 47.4155C307.439 47.4169 307.437 47.4182 307.435 47.4182C307.432 47.4195 307.429 47.4222 307.427 47.4222C306.736 47.7582 305.996 48.0702 305.208 48.3595C305.204 48.3609 305.199 48.3622 305.195 48.3648C303.393 49.0248 301.345 49.5662 299.096 49.9809C297.123 50.3435 294.993 50.6102 292.737 50.7729C292.551 50.7862 292.363 50.7982 292.173 50.8102ZM275.533 50.2142C273.724 49.9889 271.884 49.7115 270.028 49.3809C268.375 49.0862 266.752 48.7569 265.164 48.3955C264.975 48.3529 264.787 48.3088 264.599 48.2648L266.803 40.9942C268.292 41.3275 269.812 41.6342 271.359 41.9089C273.53 42.2955 275.669 42.6075 277.771 42.8475L275.533 50.2142ZM263.09 47.9022C261.582 47.5248 260.108 47.1195 258.676 46.6889C255.876 45.8449 253.236 44.9049 250.781 43.8942L252.947 36.7635C256.685 38.2568 260.842 39.5742 265.292 40.6435L263.09 47.9022ZM249.368 43.2955C247.332 42.4035 245.44 41.4595 243.713 40.4769C242.141 39.5795 240.708 38.6502 239.438 37.6982L241.532 30.7942C244.277 32.7182 247.658 34.5435 251.526 36.1795L249.368 43.2955Z" fill="#FEB700"></path> <path d="M232.576 25.6992C232.936 23.0179 233.379 16.7952 235.539 15.3646C235.532 15.3726 235.526 15.3806 235.518 15.3886C235.043 15.7432 234.644 16.4086 234.308 17.2472C234.116 17.6659 233.97 18.0992 233.87 18.5446C233.168 20.9712 232.814 24.0686 232.576 25.6992Z" fill="#C3C5C2"></path> <path d="M238.13 36.6836C234.007 33.2996 231.886 29.6849 232.485 26.3063C232.515 26.1329 232.546 25.9289 232.577 25.6982C232.814 24.0676 233.169 20.9703 233.87 18.5436C233.847 18.6396 233.829 18.7356 233.811 18.8329C233.173 22.4169 235.599 26.2596 240.214 29.8236L238.13 36.6836ZM234.309 17.2463C234.645 16.4076 235.043 15.7423 235.518 15.3876C235.013 15.9729 234.606 16.5943 234.309 17.2463Z" fill="#FEB700"></path> <path d="M239.436 37.6992C238.972 37.3659 238.544 37.0299 238.129 36.6859L240.213 29.8259C240.634 30.1512 241.073 30.4739 241.53 30.7952L239.436 37.6992Z" fill="#FFC42E"></path> <path d="M249.62 43.4062C249.536 43.3703 249.451 43.3356 249.365 43.3009L249.368 43.2956C249.451 43.3316 249.536 43.3689 249.62 43.4062Z" fill="#969898"></path> <path d="M250.781 43.8945C250.382 43.7359 250.001 43.5665 249.619 43.4065C249.535 43.3692 249.45 43.3319 249.367 43.2959L251.525 36.1799C251.991 36.3785 252.465 36.5732 252.946 36.7638L250.781 43.8945Z" fill="#FFC42E"></path> <path d="M277.088 50.4062C276.576 50.3516 276.055 50.2823 275.533 50.2143C276.056 50.2796 276.575 50.3396 277.092 50.3956L277.088 50.4062Z" fill="#969898"></path> <path d="M277.092 50.3945C276.575 50.3385 276.056 50.2785 275.533 50.2132L277.771 42.8465C278.293 42.9052 278.816 42.9612 279.333 43.0118L277.092 50.3945Z" fill="#FFC42E"></path> <path d="M264.531 48.25C264.044 48.1433 263.563 48.018 263.088 47.906L263.089 47.902C263.565 48.0207 264.047 48.1367 264.531 48.25Z" fill="#969898"></path> <path d="M264.597 48.2656C264.575 48.2616 264.552 48.2563 264.529 48.251C264.045 48.1376 263.564 48.0216 263.088 47.903L265.291 40.6443C265.791 40.7643 266.295 40.8817 266.801 40.995L264.597 48.2656Z" fill="#FFC42E"></path> <path d="M290.533 50.8984V50.8971C291.073 50.8744 291.609 50.8465 292.136 50.8131C291.608 50.8598 291.077 50.8758 290.533 50.8984Z" fill="#969898"></path> <path d="M290.533 50.8984L292.833 43.3278C293.391 43.2931 293.94 43.2531 294.483 43.2078L292.172 50.8104C292.16 50.8118 292.148 50.8131 292.136 50.8145C291.609 50.8478 291.073 50.8758 290.533 50.8984Z" fill="#FFC42E"></path> <path d="M314.56 33.2043C312.998 41.979 293.656 45.8763 271.358 41.907C249.06 37.939 232.249 27.607 233.812 18.8323C235.373 10.0563 254.716 6.16031 277.013 10.1296C299.312 14.0976 316.122 24.4297 314.56 33.2043Z" fill="#FFC42E"></path> <path d="M287.664 38.7578C283.195 38.7578 278.219 38.3191 273.029 37.3965C255.384 34.2551 241.973 26.6831 243.077 20.4831C243.856 16.1058 251.661 13.5818 262.393 13.5818C266.863 13.5818 271.839 14.0191 277.027 14.9431C294.673 18.0845 308.084 25.6565 306.98 31.8565C306.201 36.2338 298.396 38.7578 287.664 38.7578Z" fill="#FFE49F"></path> <path d="M429.92 264.838L292.709 272.821C287.845 273.103 283.071 274.269 278.625 276.258L129.584 342.975C124.173 345.398 121.181 351.202 122.392 356.925L147.052 473.379C148.744 481.37 157.651 485.576 165.056 481.879L312.163 408.442L447.995 403.85C455.132 403.609 460.457 397.228 459.323 390.278L441.143 278.758C440.204 272.999 435.835 264.663 429.92 264.838Z" fill="#DDA003"></path> <path d="M154.644 482.328C150.936 480.852 147.958 477.658 147.052 473.376L122.392 356.922C122.212 356.072 122.126 355.222 122.125 354.379C122.122 349.551 124.976 345.035 129.584 342.972L153.393 332.315L157.401 336.663L134.745 346.892C129.414 349.299 126.478 355.092 127.687 360.815L152.313 477.276C152.72 479.196 153.537 480.9 154.644 482.328ZM270.789 285.472L269.009 280.56L278.625 276.255C283.07 274.266 287.845 273.1 292.709 272.818L303.64 272.182C304.166 272.392 304.708 272.579 305.264 272.739L316.621 276.002L295.482 277.192C290.685 277.464 285.977 278.616 281.597 280.592L270.789 285.472ZM381.461 272.35L382.833 267.575L404.12 266.336C403.984 267.915 403.849 269.503 403.716 271.096L381.461 272.35Z" fill="#DDA003"></path> <path d="M283.71 329.199L211.7 395.574L82.4883 255.39L154.499 189.017L283.71 329.199Z" fill="#406FBF"></path> <path d="M151.905 330.699H151.904L82.4922 255.394L151.905 330.699Z" fill="#FDFDFD"></path> <path d="M153.392 332.316L151.904 330.7H151.906L153.394 332.315L153.392 332.316Z" fill="#F3F2F1"></path> <path d="M157.401 336.664L153.393 332.316L153.394 332.315L157.402 336.664H157.401Z" fill="#89ADE0"></path> <path d="M157.403 336.664L153.395 332.315L151.907 330.7L82.4941 255.395L129.748 211.835L132.154 217.709L90.4837 256.119L162.573 334.329L157.403 336.664ZM163.855 333.752L92.3681 256.195L132.694 219.025L177.228 327.713L163.855 333.752Z" fill="#FFE49F"></path> <path d="M275.836 328.719L275.384 328.228L212.331 386.347L92.3668 256.196L154.929 198.529L275.347 329.171L275.836 328.719L276.327 328.267L155.005 196.645L90.4824 256.12L212.255 388.23L276.779 328.757L276.327 328.267L275.836 328.719Z" fill="#DDA003"></path> <path d="M195.865 279.242C204.287 288.378 205.209 301.229 197.923 307.945C190.638 314.66 177.903 312.697 169.482 303.56C161.059 294.422 160.139 281.572 167.423 274.857C174.71 268.141 187.443 270.104 195.865 279.242Z" fill="#406FBF"></path> <path d="M177.226 327.715L132.692 219.027L140.064 212.232L164.28 279.026C160.713 286.082 162.577 296.068 169.481 303.559C171.117 305.334 172.917 306.839 174.806 308.062L181.27 325.89L177.226 327.715ZM132.152 217.711L129.746 211.836L137.372 204.807L139.572 210.872L132.152 217.711Z" fill="#FFE49F"></path> <path d="M132.692 219.027L132.152 217.711L139.572 210.873L140.064 212.233L132.692 219.027Z" fill="#DDA003"></path> <path d="M174.807 308.062C172.918 306.84 171.118 305.334 169.482 303.56C162.578 296.069 160.714 286.082 164.281 279.026L174.807 308.062Z" fill="#DDA003"></path> <path d="M280.887 313.327L188.818 346.707L123.838 167.474L215.907 134.095L280.887 313.327Z" fill="#406FBF"></path> <path d="M181.271 325.891L140.064 212.233L139.572 210.873L123.838 167.475L215.907 134.096L270.788 285.476L266.404 287.455L213.427 141.328L130.929 171.236L186.192 323.669L181.271 325.891ZM187.411 323.119L132.637 172.036L212.627 143.036L265.186 288.005L187.411 323.119Z" fill="#FFE49F"></path> <path d="M273.812 309.839L273.585 309.212L192.966 338.44L132.637 172.034L212.628 143.034L273.185 310.066L273.812 309.839L274.438 309.611L213.428 141.326L130.93 171.234L192.168 340.148L274.666 310.238L274.438 309.611L273.812 309.839Z" fill="#DDA003"></path> <path d="M219.182 233.294C223.418 244.976 219.301 257.184 209.985 260.562C200.669 263.939 189.685 257.206 185.449 245.523C181.214 233.84 185.333 221.632 194.647 218.255C203.962 214.879 214.946 221.611 219.182 233.294Z" fill="#DDA003"></path> <path d="M430.815 269.572L295.482 277.195C290.684 277.467 285.976 278.619 281.596 280.595L134.744 346.895C129.413 349.301 126.477 355.095 127.686 360.817L152.312 477.279C154.003 485.269 162.802 489.496 170.095 485.82L315.023 412.801L449.004 408.563C456.043 408.34 461.28 401.976 460.144 395.027L441.92 283.515C440.98 277.755 436.648 269.413 430.815 269.572Z" fill="#FEB700"></path> <path d="M300.988 298.934C300.289 298.934 299.701 298.39 299.659 297.683C299.613 296.947 300.172 296.315 300.907 296.27L402.272 290.023C402.211 290.922 402.151 291.815 402.093 292.707L301.071 298.931C301.043 298.934 301.015 298.934 300.988 298.934Z" fill="#DDA003"></path> <path d="M308.295 399.375C307.681 399.375 307.129 398.95 306.993 398.326L285.775 300.886C285.619 300.166 286.075 299.455 286.793 299.299C286.889 299.278 286.985 299.268 287.079 299.268C287.692 299.268 288.244 299.694 288.38 300.318L309.599 397.758C309.756 398.478 309.3 399.188 308.58 399.344C308.484 399.366 308.389 399.375 308.295 399.375Z" fill="#DDA003"></path> <path d="M160.6 463.527L145.643 388.573C172.068 433.785 160.6 463.527 160.6 463.527Z" fill="#DDA003"></path> <path d="M209.404 405.441C178.362 405.441 148.913 390.141 147.646 389.476C147.654 389.477 147.665 389.477 147.677 389.477C151.233 389.477 280.476 333.991 280.476 333.991C280.476 333.991 283.825 374.842 243.993 397.185C233.206 403.235 221.189 405.441 209.404 405.441ZM147.646 389.476C147.622 389.472 147.608 389.465 147.604 389.453C147.604 389.453 147.617 389.46 147.646 389.476Z" fill="#FFC633"></path> <path d="M241.254 385.929C241.254 389.096 238.689 391.664 235.522 391.664C232.356 391.664 229.789 389.096 229.789 385.929C229.789 382.764 232.356 380.196 235.522 380.196C238.689 380.196 241.254 382.764 241.254 385.929Z" fill="#DDA003"></path> <path d="M292.99 400.773L280.545 333.988C280.545 333.988 296.961 358.686 292.99 400.773Z" fill="#DDA003"></path> <path d="M139.308 359.801C139.052 359.801 138.808 359.653 138.697 359.403C138.549 359.066 138.701 358.673 139.037 358.523L142.087 357.177C142.175 357.138 142.265 357.119 142.356 357.119C142.612 357.119 142.856 357.267 142.965 357.517C143.115 357.853 142.963 358.247 142.625 358.395L139.577 359.743C139.489 359.782 139.397 359.801 139.308 359.801Z" fill="#DDA003"></path> <path d="M148.696 355.648C148.44 355.648 148.196 355.5 148.087 355.251C147.937 354.915 148.089 354.522 148.427 354.372L154.765 351.571C154.852 351.532 154.944 351.514 155.035 351.514C155.289 351.514 155.535 351.662 155.644 351.911C155.793 352.247 155.641 352.642 155.304 352.79L148.965 355.592C148.877 355.631 148.787 355.648 148.696 355.648ZM161.373 350.046C161.117 350.046 160.873 349.898 160.763 349.648C160.615 349.311 160.767 348.918 161.103 348.768L167.441 345.967C167.529 345.928 167.621 345.91 167.711 345.91C167.967 345.91 168.211 346.059 168.321 346.307C168.469 346.644 168.317 347.038 167.981 347.187L161.643 349.988C161.555 350.027 161.463 350.046 161.373 350.046ZM174.051 344.442C173.795 344.442 173.551 344.294 173.44 344.044C173.291 343.708 173.444 343.314 173.78 343.166L180.119 340.364C180.207 340.326 180.297 340.307 180.388 340.307C180.644 340.307 180.888 340.455 180.997 340.704C181.147 341.04 180.995 341.435 180.657 341.583L174.319 344.386C174.232 344.424 174.14 344.442 174.051 344.442ZM186.727 338.839C186.471 338.839 186.227 338.691 186.117 338.442C185.968 338.104 186.12 337.711 186.457 337.562L192.796 334.76C192.883 334.722 192.975 334.703 193.065 334.703C193.321 334.703 193.565 334.852 193.675 335.1C193.824 335.438 193.672 335.831 193.335 335.98L186.996 338.782C186.908 338.82 186.817 338.839 186.727 338.839ZM199.404 333.235C199.148 333.235 198.904 333.087 198.793 332.838C198.645 332.502 198.797 332.107 199.135 331.959L205.473 329.158C205.56 329.119 205.652 329.1 205.741 329.1C205.997 329.1 206.241 329.248 206.352 329.498C206.501 329.834 206.348 330.228 206.012 330.376L199.673 333.179C199.585 333.218 199.495 333.235 199.404 333.235ZM212.081 327.632C211.825 327.632 211.581 327.484 211.471 327.235C211.321 326.898 211.475 326.504 211.811 326.355L218.149 323.554C218.237 323.515 218.328 323.496 218.419 323.496C218.675 323.496 218.919 323.644 219.029 323.894C219.177 324.231 219.025 324.624 218.688 324.774L212.351 327.575C212.263 327.614 212.171 327.632 212.081 327.632ZM224.757 322.028C224.501 322.028 224.257 321.88 224.148 321.631C223.999 321.295 224.151 320.9 224.488 320.752L230.827 317.951C230.915 317.912 231.005 317.894 231.096 317.894C231.352 317.894 231.596 318.042 231.705 318.291C231.855 318.627 231.703 319.022 231.365 319.17L225.027 321.972C224.94 322.011 224.848 322.028 224.757 322.028ZM237.435 316.426C237.179 316.426 236.935 316.278 236.825 316.028C236.676 315.691 236.828 315.298 237.165 315.148L243.503 312.347C243.591 312.308 243.683 312.29 243.772 312.29C244.028 312.29 244.272 312.438 244.383 312.687C244.532 313.024 244.379 313.418 244.043 313.567L237.704 316.368C237.616 316.407 237.525 316.426 237.435 316.426ZM250.112 310.822C249.856 310.822 249.612 310.674 249.501 310.424C249.353 310.088 249.505 309.694 249.841 309.546L256.18 306.744C256.268 306.704 256.36 306.687 256.449 306.687C256.705 306.687 256.949 306.835 257.06 307.084C257.208 307.42 257.056 307.815 256.72 307.963L250.381 310.766C250.293 310.804 250.201 310.822 250.112 310.822ZM262.788 305.219C262.532 305.219 262.288 305.071 262.179 304.822C262.029 304.484 262.181 304.091 262.519 303.942L268.857 301.14C268.945 301.102 269.036 301.083 269.127 301.083C269.383 301.083 269.627 301.231 269.736 301.48C269.885 301.818 269.733 302.211 269.396 302.36L263.057 305.162C262.971 305.2 262.879 305.219 262.788 305.219Z" fill="#DDA003"></path> <path d="M275.464 299.617C275.208 299.617 274.964 299.469 274.853 299.22C274.705 298.883 274.857 298.489 275.195 298.341L278.243 296.993C278.331 296.955 278.422 296.936 278.512 296.936C278.768 296.936 279.012 297.084 279.123 297.333C279.271 297.671 279.119 298.064 278.782 298.212L275.734 299.56C275.646 299.599 275.553 299.617 275.464 299.617Z" fill="#DDA003"></path> <path d="M304.881 320.84C304.182 320.84 303.594 320.296 303.551 319.588C303.506 318.853 304.065 318.221 304.799 318.176L401.054 312.244C401.021 313.148 400.989 314.041 400.961 314.921L304.963 320.837C304.935 320.839 304.907 320.84 304.881 320.84Z" fill="#DDA003"></path> <path d="M310.105 348.152C309.407 348.152 308.82 347.608 308.776 346.902C308.731 346.166 309.289 345.534 310.025 345.488L401.241 339.868C401.292 340.742 401.345 341.63 401.403 342.53L310.189 348.15C310.161 348.152 310.133 348.152 310.105 348.152Z" fill="#DDA003"></path> <path d="M431.689 311.203C432.589 301.362 433.344 294.408 433.344 294.408L431.689 311.203Z" fill="#3563B7"></path> <path d="M408.412 178.569L380.26 276.527C378.272 283.451 372.293 288.137 365.564 288.809C363.469 289.013 361.298 288.84 359.137 288.223L305.262 272.741C296.205 270.129 290.968 260.673 293.566 251.619L321.726 153.647C323.241 148.407 327.036 144.44 331.744 142.541C335.149 141.159 339.033 140.865 342.852 141.963L396.724 157.432C405.782 160.043 411.02 169.499 408.412 178.569Z" fill="#406FBF"></path> <path d="M365.564 288.809C370.258 286.913 374.066 282.943 375.576 277.691L403.727 179.734C404.18 178.157 404.396 176.569 404.396 175.006C404.399 167.582 399.523 160.754 392.04 158.597L338.168 143.127C336.579 142.673 334.982 142.459 333.415 142.459C332.854 142.459 332.296 142.486 331.744 142.541C333.743 141.729 335.907 141.293 338.124 141.293C339.686 141.293 341.275 141.509 342.852 141.962L396.724 157.431C404.208 159.589 409.084 166.418 409.082 173.842C409.082 175.403 408.866 176.993 408.412 178.569L406.41 185.534L380.26 276.526C378.272 283.45 372.294 288.137 365.564 288.809Z" fill="#FEB700"></path> <path d="M403.726 179.735L375.576 277.692C374.065 282.944 370.257 286.913 365.564 288.809C363.469 289.013 361.298 288.84 359.137 288.223L305.262 272.741C296.205 270.129 290.968 260.673 293.566 251.619L321.726 153.647C323.241 148.407 327.036 144.44 331.744 142.541C333.834 142.336 336.009 142.511 338.168 143.128L392.04 158.597C401.097 161.208 406.334 170.664 403.726 179.735Z" fill="#406FBF"></path> <path d="M363.894 288.891C362.326 288.891 360.728 288.677 359.138 288.223L305.263 272.741C297.78 270.583 292.904 263.755 292.9 256.339C292.9 254.779 293.115 253.193 293.567 251.619L321.727 153.647C323.242 148.407 327.036 144.44 331.744 142.541C332.296 142.487 332.854 142.46 333.415 142.46C334.982 142.46 336.579 142.673 338.168 143.128L392.04 158.597C399.523 160.755 404.399 167.583 404.396 175.007C404.396 176.569 404.18 178.157 403.727 179.735L375.576 277.692C374.066 282.944 370.258 286.913 365.564 288.809C365.012 288.864 364.455 288.891 363.894 288.891ZM372.459 200.839L351.726 274.423L357.491 276.047L378.224 202.464L372.459 200.839Z" fill="#FFE49F"></path> <path d="M307.306 261.629L301.539 260.004L322.272 186.421L328.038 188.045L307.306 261.629Z" fill="#FAFAF9"></path> <path d="M315.556 263.98L309.799 262.326L330.527 188.759L336.284 190.414L315.556 263.98Z" fill="#FAFAF9"></path> <path d="M323.933 266.387L318.176 264.732L338.904 191.165L344.661 192.82L323.933 266.387Z" fill="#FAFAF9"></path> <path d="M357.492 276.047L351.727 274.423L372.46 200.839L378.225 202.464L357.492 276.047Z" fill="#D89B00"></path> <path d="M377.467 181.666L374.601 191.652L371.187 190.692C367.747 189.719 365.747 186.146 366.707 182.706L368.574 176.079L375.467 178.052C377.014 178.506 377.907 180.119 377.467 181.666Z" fill="#FAFAF9"></path> <path d="M375.827 176.773L368.934 174.799L371 167.493C371.96 164.053 375.547 162.053 378.987 163.013L382.534 164.013L379.44 174.773C379 176.333 377.387 177.226 375.827 176.773Z" fill="#FAFAF9"></path> <path d="M382.361 180.038L389.294 182.024L387.454 188.544C386.494 191.984 382.921 193.998 379.481 193.024L375.881 192.011L378.748 182.038C379.188 180.491 380.801 179.598 382.361 180.038Z" fill="#FAFAF9"></path> <path d="M391.746 173.333L389.653 180.746L382.72 178.759C381.173 178.306 380.28 176.693 380.72 175.146L383.813 164.386L387.266 165.359C390.706 166.319 392.706 169.893 391.746 173.333Z" fill="#FAFAF9"></path> </g> <defs> <clipPath id="clip0_630_233"> <rect width="666.667" height="496.747" fill="white"></rect> </clipPath> </defs> </svg> 