<?xml version="1.0" encoding="UTF-8"?> <svg xmlns="http://www.w3.org/2000/svg" width="378" height="377" viewBox="0 0 378 377" fill="none"> <path d="M13.6 1.49941C8.9 3.09941 3.3 8.39941 1.4 12.6994C0.2 15.3994 0 40.2994 0 164.199C0 311.199 0.1 312.499 2.1 316.999C4.3 321.999 8.9 327.099 13.6 329.999C17.3 332.399 169.6 374.599 179.5 376.099C189.1 377.599 194.9 376.599 224.5 368.599C237.7 364.999 273.4 355.299 303.9 347.099C345 335.999 360.5 331.399 363.9 329.299C368.9 326.199 374.4 318.899 376 313.199C377.4 307.799 377.4 19.8994 375.9 14.4994C373.5 5.89941 361.6 -1.40059 352.8 0.499408C351 0.899408 333.8 5.49941 314.5 10.6994C295.3 15.8994 273.9 21.6994 267 23.4994C260.1 25.2994 241 30.5994 224.5 35.0994C198.5 42.2994 193.4 43.3994 186.5 43.3994C179.1 43.3994 172.2 41.5994 100.5 21.6994C57.6 9.79941 21.4 -0.000591551 20 -0.000591551C18.6 0.0994085 15.8 0.699408 13.6 1.49941ZM101.5 46.0994C141.7 57.0994 175.1 66.2994 175.8 66.4994C176.7 66.8994 177 96.1994 177 208.899C177 286.999 176.7 351.099 176.3 351.299C175 351.999 26.5 310.599 24.6 309.099C23.1 307.899 23 296.299 23 166.299V24.7994L25.8 25.3994C27.3 25.7994 61.4 35.0994 101.5 46.0994ZM354 165.799C354 277.199 353.7 306.999 352.7 308.299C351.5 309.999 344.7 311.899 232.7 342.099C216.3 346.499 202.2 350.399 201.4 350.699C200.2 351.099 200 332.199 200.2 208.499L200.5 65.6994L275.5 45.3994C316.8 34.2994 351.3 25.0994 352.3 25.0994C353.9 24.9994 354 32.2994 354 165.799Z" fill="url(#paint0_linear_282_186)"></path> <path d="M54.2005 89.7C46.8005 93.3 45.8005 105 52.5005 109.4C54.9005 111 139.4 135 142.5 135C146 135 151.1 131.1 152.7 127.3C154.5 123 153.3 117.5 150 114.5C148.2 112.9 62.7005 88 59.0005 88C58.2005 88 56.0005 88.8 54.2005 89.7Z" fill="url(#paint1_linear_282_186)"></path> <path d="M51.4 162.4C48.5 165.3 48 166.5 48 170.4C48 174 48.6 175.6 50.8 178C53.3 180.8 57.1 182 96.2 193C119.7 199.6 140.3 205 142 205C152.7 205 157.5 192 149.4 184.8C147 182.7 63.4 159 58.4 159C55.6 159 54 159.8 51.4 162.4Z" fill="url(#paint2_linear_282_186)"></path> <path d="M54.2005 230.6C46.8005 234.4 45.8005 246 52.5005 250.4C54.9005 252 139.5 276 142.6 276C146 276 151.1 272.1 152.7 268.3C154.5 264 153.3 258.5 150 255.5C148.3 253.9 69.4005 231 60.5005 229.5C58.7005 229.2 56.2005 229.7 54.2005 230.6Z" fill="url(#paint3_linear_282_186)"></path> <path d="M273.6 100.4C224.6 114.2 225 114 225 123.1C225 127.3 225.5 128.6 227.9 131C229.5 132.6 232 134.2 233.5 134.6C235.4 135.1 248.4 131.8 279.8 123C303.8 116.3 324.4 110.2 325.5 109.4C330 106.5 331.3 99.3996 328.4 93.8996C326.9 90.7996 321.7 87.8996 318.3 88.0996C317.3 88.1996 297.2 93.6996 273.6 100.4Z" fill="url(#paint4_linear_282_186)"></path> <path d="M273 171.1C228.3 183.8 226.8 184.4 225.1 190.4C223.3 197.4 228.8 205 235.8 205C237.8 205 258.6 199.6 282 193C321.1 182 324.7 180.8 327.3 178C329.4 175.6 330 174 330 170.4C330 166.5 329.5 165.3 326.6 162.4C323.9 159.7 322.4 159 319.4 159.1C317.2 159.1 296.4 164.5 273 171.1Z" fill="url(#paint5_linear_282_186)"></path> <path d="M297 234.9C285.7 238.1 266.2 243.6 253.6 247.1C226.7 254.6 225 255.6 225 264.2C225 268.3 225.5 269.6 227.9 272C232.4 276.5 234.9 276.7 247.9 273C297.6 259.3 323.6 251.7 325.5 250.4C329.9 247.5 331.3 240.4 328.5 235.1C327.1 232.4 321.6 228.9 318.8 229.1C318.1 229.1 308.3 231.7 297 234.9Z" fill="url(#paint6_linear_282_186)"></path> <defs> <linearGradient id="paint0_linear_282_186" x1="188.519" y1="376.686" x2="188.519" y2="-0.000579834" gradientUnits="userSpaceOnUse"> <stop stop-color="#FFC52B"></stop> <stop offset="1" stop-color="#FFC832" stop-opacity="0.79"></stop> </linearGradient> <linearGradient id="paint1_linear_282_186" x1="100.776" y1="135" x2="100.776" y2="88" gradientUnits="userSpaceOnUse"> <stop stop-color="#FFC52B"></stop> <stop offset="1" stop-color="#FFC832" stop-opacity="0.79"></stop> </linearGradient> <linearGradient id="paint2_linear_282_186" x1="100.732" y1="205" x2="100.732" y2="159" gradientUnits="userSpaceOnUse"> <stop stop-color="#FFC52B"></stop> <stop offset="1" stop-color="#FFC832" stop-opacity="0.79"></stop> </linearGradient> <linearGradient id="paint3_linear_282_186" x1="100.776" y1="276" x2="100.776" y2="229.413" gradientUnits="userSpaceOnUse"> <stop stop-color="#FFC52B"></stop> <stop offset="1" stop-color="#FFC832" stop-opacity="0.79"></stop> </linearGradient> <linearGradient id="paint4_linear_282_186" x1="277.473" y1="134.648" x2="277.473" y2="88.0898" gradientUnits="userSpaceOnUse"> <stop stop-color="#FFC52B"></stop> <stop offset="1" stop-color="#FFC832" stop-opacity="0.79"></stop> </linearGradient> <linearGradient id="paint5_linear_282_186" x1="277.378" y1="205" x2="277.378" y2="159.091" gradientUnits="userSpaceOnUse"> <stop stop-color="#FFC52B"></stop> <stop offset="1" stop-color="#FFC832" stop-opacity="0.79"></stop> </linearGradient> <linearGradient id="paint6_linear_282_186" x1="277.474" y1="275.592" x2="277.474" y2="229.092" gradientUnits="userSpaceOnUse"> <stop stop-color="#FFC52B"></stop> <stop offset="1" stop-color="#FFC832" stop-opacity="0.79"></stop> </linearGradient> </defs> </svg> 