<?xml version="1.0" encoding="UTF-8"?> <svg xmlns="http://www.w3.org/2000/svg" width="38" height="33" viewBox="0 0 38 33" fill="none"> <g clip-path="url(#clip0_54_1189)"> <path d="M36.8474 9.75532C36.8474 9.75532 36.4915 7.51906 35.3951 6.53713C34.0068 5.24478 32.4548 5.23845 31.7429 5.16243C26.6454 4.83301 18.9921 4.83301 18.9921 4.83301H18.9778C18.9778 4.83301 11.3245 4.83301 6.22707 5.16243C5.51513 5.23845 3.96311 5.24478 2.57484 6.53713C1.47845 7.51906 1.12961 9.75532 1.12961 9.75532C1.12961 9.75532 0.759399 12.3844 0.759399 15.0071V17.465C0.759399 20.0877 1.12249 22.7168 1.12249 22.7168C1.12249 22.7168 1.47845 24.953 2.56772 25.935C3.95599 27.2273 5.77855 27.183 6.59016 27.3223C9.50909 27.5694 18.985 27.6454 18.985 27.6454C18.985 27.6454 26.6454 27.6328 31.7429 27.3097C32.4548 27.2337 34.0068 27.2273 35.3951 25.935C36.4915 24.953 36.8474 22.7168 36.8474 22.7168C36.8474 22.7168 37.2105 20.0941 37.2105 17.465V15.0071C37.2105 12.3844 36.8474 9.75532 36.8474 9.75532ZM15.2188 20.4488V11.3327L25.0649 15.9066L15.2188 20.4488Z" fill="#FEFBF6"></path> </g> <defs> <clipPath id="clip0_54_1189"> <rect width="36.4511" height="32.4353" fill="white" transform="translate(0.759399 0.0253906)"></rect> </clipPath> </defs> </svg> 