<?xml version="1.0" encoding="UTF-8"?> <svg xmlns="http://www.w3.org/2000/svg" width="232" height="228" viewBox="0 0 232 228" fill="none"> <path d="M56 175.469C64.0501 166.838 71.021 156.178 77.8928 146.611C89.357 130.648 99.2286 113.597 111.17 97.9611C114.174 94.0276 117.298 89.795 121.065 86.5398C121.2 86.4232 124.258 83.8545 124.218 84.9705C124.064 89.2628 120.649 94.4503 119.226 98.397C116.267 106.607 114.525 115.176 111.958 123.506C109.861 130.309 107.671 137.056 106.441 144.082C106.202 145.445 104.624 151.998 107.404 148.267C116.948 135.46 126.937 122.899 136.215 109.905C147.264 94.4315 158.62 79.4076 170.63 64.6563C173.526 61.0999 176.568 57.5161 179.738 54.1941C180.386 53.5153 179.722 53.8454 178.95 53.8454" stroke="#373844" stroke-linecap="round"></path> <path d="M162.395 63.9344C167.18 60.2532 172.354 57.9853 177.329 54.6358C180.246 52.672 179.287 52.119 177.926 54.9969C175.833 59.4266 175.452 74.5745 175.452 69.622" stroke="#373844" stroke-linecap="round"></path> </svg> 