<?xml version="1.0" encoding="UTF-8"?> <svg xmlns="http://www.w3.org/2000/svg" width="129" height="123" viewBox="0 0 129 123" fill="none"> <mask id="path-1-inside-1_54_1111" fill="white"> <path fill-rule="evenodd" clip-rule="evenodd" d="M126.666 21.5052C129.954 24.2812 127.812 29.2309 123.509 29.2309H4.75665C0.453298 29.2309 -1.68888 24.2812 1.59933 21.5052C17.2852 8.26253 39.5002 0 64.1327 0C88.7651 0 110.98 8.26252 126.666 21.5052Z"></path> </mask> <path d="M1.59933 21.5052L0.954243 20.7411L1.59933 21.5052ZM4.75665 30.2309H123.509V28.2309H4.75665V30.2309ZM2.24442 22.2693C17.7362 9.19047 39.7179 1 64.1327 1V-1C39.2826 -1 16.8342 7.33459 0.954243 20.7411L2.24442 22.2693ZM64.1327 1C88.5474 1 110.529 9.19046 126.021 22.2693L127.311 20.7411C111.431 7.33459 88.9828 -1 64.1327 -1V1ZM123.509 30.2309C126.071 30.2309 128.042 28.7445 128.857 26.7948C129.679 24.8279 129.305 22.4246 127.311 20.7411L126.021 22.2693C127.315 23.3618 127.514 24.8214 127.012 26.0233C126.502 27.2424 125.25 28.2309 123.509 28.2309V30.2309ZM4.75665 28.2309C3.01553 28.2309 1.76348 27.2424 1.25376 26.0233C0.75124 24.8214 0.950388 23.3618 2.24442 22.2693L0.954243 20.7411C-1.03994 22.4246 -1.41381 24.8279 -0.591455 26.7948C0.223701 28.7445 2.19442 30.2309 4.75665 30.2309V28.2309Z" fill="#373844" mask="url(#path-1-inside-1_54_1111)"></path> <mask id="path-3-inside-2_54_1111" fill="white"> <path fill-rule="evenodd" clip-rule="evenodd" d="M2.22379 101.264C-1.06442 98.4878 1.07776 93.5382 5.3811 93.5382L124.133 93.5382C128.436 93.5382 130.579 98.4878 127.29 101.264C111.605 114.507 89.3895 122.769 64.7571 122.769C40.1247 122.769 17.9097 114.507 2.22379 101.264Z"></path> </mask> <path d="M2.22379 101.264L2.86888 100.5L2.22379 101.264ZM124.133 92.5382L5.3811 92.5382L5.3811 94.5382L124.133 94.5382L124.133 92.5382ZM126.645 100.5C111.154 113.579 89.1719 121.769 64.7571 121.769L64.7571 123.769C89.6072 123.769 112.056 115.434 127.936 102.028L126.645 100.5ZM64.7571 121.769C40.3423 121.769 18.3607 113.579 2.86888 100.5L1.5787 102.028C17.4586 115.434 39.907 123.769 64.7571 123.769L64.7571 121.769ZM5.3811 92.5382C2.81888 92.5382 0.848157 94.0246 0.0330024 95.9743C-0.789355 97.9412 -0.415484 100.344 1.5787 102.028L2.86888 100.5C1.57484 99.4073 1.3757 97.9477 1.87822 96.7458C2.38794 95.5266 3.63998 94.5382 5.3811 94.5382L5.3811 92.5382ZM124.133 94.5382C125.874 94.5382 127.126 95.5266 127.636 96.7458C128.139 97.9477 127.939 99.4073 126.645 100.5L127.936 102.028C129.93 100.344 130.304 97.9412 129.481 95.9743C128.666 94.0246 126.695 92.5382 124.133 92.5382L124.133 94.5382Z" fill="#373844" mask="url(#path-3-inside-2_54_1111)"></path> <mask id="path-5-inside-3_54_1111" fill="white"> <path fill-rule="evenodd" clip-rule="evenodd" d="M115.441 35.0375C118.916 37.6611 116.845 42.6629 112.491 42.6629H16.1923C11.8381 42.6629 9.76686 37.6611 13.2419 35.0375C26.3768 25.1213 44.4242 19 64.3416 19C84.2589 19 102.306 25.1213 115.441 35.0375Z"></path> </mask> <path d="M115.441 35.0375L115.14 35.4366L115.441 35.0375ZM13.2419 35.0375L13.5432 35.4366L13.2419 35.0375ZM64.3416 18.5C64.0146 18.5 63.6882 18.5016 63.3623 18.5049L63.3723 19.5049C63.6949 19.5016 64.018 19.5 64.3416 19.5V18.5ZM61.4069 18.5442C60.7532 18.5639 60.1017 18.5902 59.4526 18.623L59.503 19.6217C60.1454 19.5893 60.7901 19.5633 61.437 19.5438L61.4069 18.5442ZM57.5003 18.7415C56.848 18.7878 56.1981 18.8406 55.5508 18.8999L55.6421 19.8958C56.2825 19.8371 56.9256 19.7848 57.5711 19.739L57.5003 18.7415ZM53.605 19.0985C52.9551 19.1716 52.308 19.2513 51.6638 19.3374L51.7963 20.3286C52.4336 20.2434 53.0739 20.1646 53.7169 20.0922L53.605 19.0985ZM49.728 19.6169C49.0814 19.7171 48.4379 19.8239 47.7976 19.9372L47.9717 20.9219C48.6051 20.8099 49.2416 20.7042 49.8812 20.605L49.728 19.6169ZM45.8744 20.2985C45.2326 20.4262 44.5942 20.5604 43.9594 20.701L44.1756 21.6773C44.8034 21.5383 45.4348 21.4056 46.0695 21.2793L45.8744 20.2985ZM42.0535 21.1449C41.4179 21.3003 40.7859 21.4621 40.1579 21.6303L40.4166 22.5963C41.0376 22.43 41.6624 22.2699 42.291 22.1163L42.0535 21.1449ZM38.2735 22.1575C37.6453 22.3408 37.0212 22.5306 36.4014 22.7267L36.7031 23.6801C37.3157 23.4863 37.9326 23.2987 38.5536 23.1175L38.2735 22.1575ZM34.5428 23.338C33.9232 23.5497 33.3081 23.7677 32.6977 23.9921L33.0426 24.9307C33.6458 24.709 34.2537 24.4935 34.866 24.2843L34.5428 23.338ZM30.8679 24.6889C30.2586 24.9291 29.6543 25.1757 29.0551 25.4286L29.4439 26.3499C30.0358 26.1002 30.6328 25.8565 31.2347 25.6192L30.8679 24.6889ZM27.2606 26.2113C26.6636 26.4804 26.0719 26.7557 25.4858 27.0373L25.9188 27.9387C26.4975 27.6607 27.0818 27.3887 27.6715 27.123L27.2606 26.2113ZM23.732 27.9067C23.1484 28.2051 22.5706 28.5098 21.999 28.8206L22.4767 29.6992C23.0409 29.3924 23.6111 29.0916 24.1873 28.797L23.732 27.9067ZM20.2901 29.7785C19.7225 30.1063 19.1614 30.4404 18.6068 30.7805L19.1296 31.6329C19.6767 31.2974 20.2303 30.9679 20.7902 30.6444L20.2901 29.7785ZM16.9511 31.8266C16.4015 32.1843 15.859 32.5481 15.3235 32.9178L15.8918 33.7407C16.4196 33.3761 16.9546 33.0175 17.4965 32.6648L16.9511 31.8266ZM13.7261 34.0543C13.4624 34.2475 13.2006 34.4423 12.9407 34.6385L13.5432 35.4366C13.7993 35.2432 14.0573 35.0513 14.3172 34.8609L13.7261 34.0543ZM12.9407 34.6385C12.6615 34.8493 12.4129 35.0757 12.1945 35.315L12.9332 35.9891C13.1086 35.7969 13.3112 35.6117 13.5432 35.4366L12.9407 34.6385ZM11.1785 37.0778C10.9734 37.7537 10.9417 38.4508 11.0603 39.1197L12.0449 38.9451C11.9526 38.4246 11.978 37.8871 12.1354 37.3681L11.1785 37.0778ZM11.8432 40.994C12.2229 41.5366 12.72 42.0111 13.3152 42.377L13.8388 41.525C13.3609 41.2313 12.9642 40.8518 12.6625 40.4207L11.8432 40.994ZM15.196 43.0793C15.5154 43.1342 15.848 43.1629 16.1923 43.1629V42.1629C15.9038 42.1629 15.6278 42.1388 15.3652 42.0937L15.196 43.0793ZM16.1923 43.1629H17.1954V42.1629H16.1923V43.1629ZM19.2016 43.1629H21.2079V42.1629H19.2016V43.1629ZM23.2141 43.1629H25.2203V42.1629H23.2141V43.1629ZM27.2265 43.1629H29.2327V42.1629H27.2265V43.1629ZM31.2389 43.1629H33.2452V42.1629H31.2389V43.1629ZM35.2514 43.1629H37.2576V42.1629H35.2514V43.1629ZM39.2638 43.1629H41.27V42.1629H39.2638V43.1629ZM43.2763 43.1629H45.2825V42.1629H43.2763V43.1629ZM47.2887 43.1629H49.2949V42.1629H47.2887V43.1629ZM51.3011 43.1629H53.3073V42.1629H51.3011V43.1629ZM55.3136 43.1629H57.3198V42.1629H55.3136V43.1629ZM59.326 43.1629H61.3322V42.1629H59.326V43.1629ZM63.3384 43.1629H65.3447V42.1629H63.3384V43.1629ZM67.3509 43.1629H69.3571V42.1629H67.3509V43.1629ZM71.3633 43.1629H73.3695V42.1629H71.3633V43.1629ZM75.3757 43.1629H77.382V42.1629H75.3757V43.1629ZM79.3882 43.1629H81.3944V42.1629H79.3882V43.1629ZM83.4006 43.1629H85.4068V42.1629H83.4006V43.1629ZM87.4131 43.1629H89.4193V42.1629H87.4131V43.1629ZM91.4255 43.1629H93.4317V42.1629H91.4255V43.1629ZM95.4379 43.1629H97.4441V42.1629H95.4379V43.1629ZM99.4504 43.1629H101.457V42.1629H99.4504V43.1629ZM103.463 43.1629H105.469V42.1629H103.463V43.1629ZM107.475 43.1629H109.481V42.1629H107.475V43.1629ZM111.488 43.1629H112.491V42.1629H111.488V43.1629ZM112.491 43.1629C112.835 43.1629 113.168 43.1342 113.487 43.0793L113.318 42.0937C113.055 42.1388 112.779 42.1629 112.491 42.1629V43.1629ZM115.368 42.377C115.963 42.0111 116.46 41.5366 116.84 40.994L116.021 40.4207C115.719 40.8518 115.322 41.2313 114.844 41.525L115.368 42.377ZM117.623 39.1197C117.741 38.4508 117.71 37.7537 117.505 37.0778L116.548 37.3681C116.705 37.8871 116.73 38.4246 116.638 38.9451L117.623 39.1197ZM116.489 35.315C116.27 35.0757 116.022 34.8493 115.742 34.6385L115.14 35.4366C115.372 35.6117 115.575 35.7969 115.75 35.9891L116.489 35.315ZM115.742 34.6385C115.483 34.4423 115.221 34.2475 114.957 34.0543L114.366 34.8608C114.626 35.0513 114.884 35.2432 115.14 35.4366L115.742 34.6385ZM113.36 32.9178C112.824 32.5481 112.282 32.1843 111.732 31.8266L111.187 32.6648C111.729 33.0175 112.263 33.3761 112.791 33.7407L113.36 32.9178ZM110.076 30.7805C109.522 30.4404 108.961 30.1063 108.393 29.7785L107.893 30.6444C108.453 30.9679 109.006 31.2974 109.553 31.6329L110.076 30.7805ZM106.684 28.8206C106.112 28.5098 105.535 28.2051 104.951 27.9067L104.496 28.797C105.072 29.0916 105.642 29.3924 106.206 29.6992L106.684 28.8206ZM103.197 27.0373C102.611 26.7557 102.02 26.4804 101.423 26.2113L101.012 27.123C101.601 27.3887 102.186 27.6606 102.764 27.9387L103.197 27.0373ZM99.628 25.4286C99.0288 25.1757 98.4245 24.9291 97.8152 24.6889L97.4484 25.6192C98.0504 25.8565 98.6473 26.1002 99.2392 26.3499L99.628 25.4286ZM95.9855 23.9921C95.375 23.7677 94.76 23.5497 94.1403 23.338L93.8171 24.2843C94.4295 24.4935 95.0373 24.709 95.6405 24.9307L95.9855 23.9921ZM92.2817 22.7267C91.6619 22.5306 91.0378 22.3408 90.4096 22.1575L90.1295 23.1175C90.7505 23.2987 91.3674 23.4863 91.98 23.6801L92.2817 22.7267ZM88.5252 21.6303C87.8972 21.4621 87.2653 21.3003 86.6296 21.1449L86.3921 22.1163C87.0207 22.2699 87.6455 22.4299 88.2665 22.5963L88.5252 21.6303ZM84.7237 20.701C84.0889 20.5604 83.4505 20.4262 82.8087 20.2985L82.6136 21.2793C83.2484 21.4056 83.8797 21.5383 84.5075 21.6773L84.7237 20.701ZM80.8856 19.9372C80.2452 19.8239 79.6017 19.7171 78.9551 19.6168L78.8019 20.605C79.4415 20.7042 80.078 20.8099 80.7114 20.9219L80.8856 19.9372ZM77.0193 19.3374C76.3751 19.2513 75.728 19.1716 75.0781 19.0985L74.9663 20.0922C75.6093 20.1646 76.2495 20.2434 76.8868 20.3286L77.0193 19.3374ZM73.1323 18.8999C72.485 18.8406 71.8351 18.7878 71.1828 18.7415L71.112 19.739C71.7575 19.7848 72.4006 19.8371 73.041 19.8958L73.1323 18.8999ZM69.2305 18.623C68.5814 18.5902 67.9299 18.5639 67.2763 18.5442L67.2461 19.5438C67.893 19.5633 68.5377 19.5893 69.1801 19.6217L69.2305 18.623ZM65.3208 18.5049C64.9949 18.5016 64.6685 18.5 64.3416 18.5V19.5C64.6651 19.5 64.9882 19.5016 65.3108 19.5049L65.3208 18.5049ZM115.441 35.0375L114.839 35.8356L115.441 35.0375ZM13.2419 35.0375L13.8445 35.8356L13.2419 35.0375ZM64.3416 18C64.013 18 63.6849 18.0016 63.3573 18.0049L63.3773 20.0048C63.6982 20.0016 64.0197 20 64.3416 20V18ZM61.3918 18.0444C60.7347 18.0643 60.0799 18.0907 59.4274 18.1236L59.5282 20.1211C60.1672 20.0888 60.8086 20.063 61.4521 20.0435L61.3918 18.0444ZM57.4649 18.2428C56.8092 18.2893 56.1559 18.3424 55.5052 18.402L55.6877 20.3937C56.3247 20.3353 56.9644 20.2833 57.6065 20.2378L57.4649 18.2428ZM53.5491 18.6016C52.8958 18.6752 52.2452 18.7552 51.5975 18.8418L51.8625 20.8242C52.4964 20.7395 53.1332 20.6611 53.7728 20.5891L53.5491 18.6016ZM49.6513 19.1228C49.0013 19.2236 48.3543 19.331 47.7105 19.4448L48.0588 21.4143C48.6887 21.3029 49.3217 21.1978 49.9579 21.0991L49.6513 19.1228ZM45.7768 19.8081C45.1315 19.9365 44.4896 20.0715 43.8512 20.2128L44.2837 22.1655C44.908 22.0272 45.5359 21.8953 46.1671 21.7697L45.7768 19.8081ZM41.9348 20.6592C41.2956 20.8154 40.6601 20.9782 40.0285 21.1473L40.546 23.0792C41.1634 22.9139 41.7847 22.7548 42.4097 22.602L41.9348 20.6592ZM38.1334 21.6775C37.5016 21.8619 36.874 22.0528 36.2506 22.25L36.8539 24.1568C37.4629 23.9641 38.0763 23.7776 38.6937 23.5975L38.1334 21.6775ZM34.3812 22.8648C33.7579 23.0777 33.1392 23.2971 32.5252 23.5228L33.2151 25.4C33.8147 25.1796 34.4189 24.9654 35.0277 24.7575L34.3812 22.8648ZM30.6845 24.2238C30.0715 24.4654 29.4636 24.7135 28.8607 24.9679L29.6383 26.8106C30.2265 26.5624 30.8198 26.3203 31.4181 26.0843L30.6845 24.2238ZM27.0552 25.7555C26.4544 26.0262 25.8591 26.3032 25.2693 26.5866L26.1353 28.3894C26.7103 28.1131 27.2909 27.8429 27.8769 27.5789L27.0552 25.7555ZM23.5043 27.4615C22.917 27.7618 22.3355 28.0685 21.7601 28.3814L22.7155 30.1384C23.276 29.8337 23.8425 29.5349 24.4149 29.2422L23.5043 27.4615ZM20.04 29.3456C19.4687 29.6756 18.9038 30.0118 18.3454 30.3542L19.391 32.0592C19.9343 31.726 20.4841 31.3987 21.0403 31.0774L20.04 29.3456ZM16.6783 31.4076C16.125 31.7677 15.5786 32.134 15.0394 32.5064L16.1759 34.1521C16.7 33.7902 17.2312 33.434 17.7693 33.0838L16.6783 31.4076ZM13.4306 33.651C13.165 33.8456 12.9012 34.0418 12.6394 34.2394L13.8445 35.8356C14.0987 35.6437 14.3548 35.4532 14.6128 35.2642L13.4306 33.651ZM12.6394 34.2394C12.3366 34.468 12.0651 34.7151 11.8252 34.978L13.3025 36.3261C13.4564 36.1575 13.6361 35.993 13.8445 35.8356L12.6394 34.2394ZM10.7 36.9326C10.4712 37.687 10.4362 38.4639 10.568 39.207L12.5372 38.8578C12.4581 38.4115 12.4802 37.9539 12.6139 37.5132L10.7 36.9326ZM11.4335 41.2806C11.8522 41.879 12.3995 42.4011 13.0534 42.8029L14.1006 41.099C13.6813 40.8413 13.3349 40.5094 13.0722 40.134L11.4335 41.2806ZM15.1113 43.5721C15.4592 43.6318 15.8202 43.6629 16.1923 43.6629V41.6629C15.9317 41.6629 15.684 41.6412 15.4499 41.6009L15.1113 43.5721ZM16.1923 43.6629H17.1954V41.6629H16.1923V43.6629ZM19.2016 43.6629H21.2079V41.6629H19.2016V43.6629ZM23.2141 43.6629H25.2203V41.6629H23.2141V43.6629ZM27.2265 43.6629H29.2327V41.6629H27.2265V43.6629ZM31.2389 43.6629H33.2452V41.6629H31.2389V43.6629ZM35.2514 43.6629H37.2576V41.6629H35.2514V43.6629ZM39.2638 43.6629H41.27V41.6629H39.2638V43.6629ZM43.2763 43.6629H45.2825V41.6629H43.2763V43.6629ZM47.2887 43.6629H49.2949V41.6629H47.2887V43.6629ZM51.3011 43.6629H53.3073V41.6629H51.3011V43.6629ZM55.3136 43.6629H57.3198V41.6629H55.3136V43.6629ZM59.326 43.6629H61.3322V41.6629H59.326V43.6629ZM63.3384 43.6629H65.3447V41.6629H63.3384V43.6629ZM67.3509 43.6629H69.3571V41.6629H67.3509V43.6629ZM71.3633 43.6629H73.3695V41.6629H71.3633V43.6629ZM75.3757 43.6629H77.382V41.6629H75.3757V43.6629ZM79.3882 43.6629H81.3944V41.6629H79.3882V43.6629ZM83.4006 43.6629H85.4068V41.6629H83.4006V43.6629ZM87.4131 43.6629H89.4193V41.6629H87.4131V43.6629ZM91.4255 43.6629H93.4317V41.6629H91.4255V43.6629ZM95.4379 43.6629H97.4441V41.6629H95.4379V43.6629ZM99.4504 43.6629H101.457V41.6629H99.4504V43.6629ZM103.463 43.6629H105.469V41.6629H103.463V43.6629ZM107.475 43.6629H109.481V41.6629H107.475V43.6629ZM111.488 43.6629H112.491V41.6629H111.488V43.6629ZM112.491 43.6629C112.863 43.6629 113.224 43.6318 113.572 43.5721L113.233 41.6009C112.999 41.6412 112.751 41.6629 112.491 41.6629V43.6629ZM115.63 42.8029C116.284 42.4011 116.831 41.879 117.25 41.2806L115.611 40.134C115.348 40.5094 115.002 40.8413 114.582 41.099L115.63 42.8029ZM118.115 39.207C118.247 38.4639 118.212 37.687 117.983 36.9326L116.069 37.5132C116.203 37.9539 116.225 38.4115 116.146 38.8578L118.115 39.207ZM116.858 34.978C116.618 34.7151 116.347 34.468 116.044 34.2394L114.839 35.8356C115.047 35.993 115.227 36.1575 115.381 36.3261L116.858 34.978ZM116.044 34.2394C115.782 34.0418 115.518 33.8456 115.253 33.651L114.07 35.2641C114.328 35.4532 114.584 35.6437 114.839 35.8356L116.044 34.2394ZM113.644 32.5064C113.104 32.134 112.558 31.7677 112.005 31.4076L110.914 33.0838C111.452 33.434 111.983 33.7902 112.507 34.1521L113.644 32.5064ZM110.338 30.3542C109.779 30.0118 109.214 29.6756 108.643 29.3455L107.643 31.0774C108.199 31.3987 108.749 31.726 109.292 32.0591L110.338 30.3542ZM106.923 28.3814C106.348 28.0685 105.766 27.7618 105.179 27.4615L104.268 29.2422C104.841 29.5349 105.407 29.8337 105.968 30.1384L106.923 28.3814ZM103.414 26.5866C102.824 26.3032 102.229 26.0262 101.628 25.7554L100.806 27.5789C101.392 27.8429 101.973 28.1131 102.548 28.3893L103.414 26.5866ZM99.8224 24.9679C99.2195 24.7135 98.6116 24.4654 97.9986 24.2238L97.265 26.0843C97.8633 26.3202 98.4566 26.5624 99.0449 26.8106L99.8224 24.9679ZM96.1579 23.5228C95.5439 23.2971 94.9252 23.0777 94.302 22.8648L93.6555 24.7575C94.2642 24.9654 94.8684 25.1796 95.468 25.4L96.1579 23.5228ZM92.4325 22.25C91.8091 22.0528 91.1815 21.8619 90.5497 21.6775L89.9894 23.5975C90.6069 23.7776 91.2202 23.9641 91.8292 24.1568L92.4325 22.25ZM88.6546 21.1473C88.023 20.9782 87.3875 20.8154 86.7483 20.6592L86.2734 22.602C86.8985 22.7548 87.5197 22.9139 88.1371 23.0792L88.6546 21.1473ZM84.8319 20.2128C84.1935 20.0715 83.5516 19.9365 82.9063 19.8081L82.516 21.7697C83.1473 21.8953 83.7751 22.0272 84.3994 22.1655L84.8319 20.2128ZM80.9726 19.4448C80.3288 19.331 79.6819 19.2236 79.0318 19.1228L78.7252 21.0991C79.3614 21.1978 79.9945 21.3029 80.6243 21.4143L80.9726 19.4448ZM77.0856 18.8418C76.4379 18.7552 75.7873 18.6752 75.134 18.6016L74.9104 20.5891C75.5499 20.6611 76.1867 20.7395 76.8206 20.8242L77.0856 18.8418ZM73.1779 18.402C72.5272 18.3424 71.8739 18.2893 71.2182 18.2428L71.0766 20.2378C71.7187 20.2833 72.3584 20.3353 72.9954 20.3937L73.1779 18.402ZM69.2557 18.1236C68.6032 18.0907 67.9484 18.0643 67.2913 18.0444L67.231 20.0435C67.8745 20.063 68.5159 20.0888 69.1549 20.1211L69.2557 18.1236ZM65.3258 18.0049C64.9983 18.0016 64.6702 18 64.3416 18V20C64.6635 20 64.9849 20.0016 65.3058 20.0048L65.3258 18.0049Z" fill="#373844" mask="url(#path-5-inside-3_54_1111)"></path> <mask id="path-7-inside-4_54_1111" fill="white"> <path fill-rule="evenodd" clip-rule="evenodd" d="M13.448 87.731C9.97293 85.1074 12.0442 80.1056 16.3984 80.1056L112.698 80.1056C117.052 80.1056 119.124 85.1074 115.649 87.731C102.514 97.6475 84.466 103.769 64.5483 103.769C44.6306 103.769 26.5829 97.6475 13.448 87.731Z"></path> </mask> <path d="M16.3984 80.1056L16.3984 79.6056L16.3984 80.1056ZM13.448 87.731L13.1467 88.13L13.448 87.731ZM112.698 80.1056L112.698 80.6056L112.698 80.1056ZM115.649 87.731L115.347 87.3319L115.649 87.731ZM64.5483 104.269C64.8752 104.269 65.2016 104.267 65.5276 104.264L65.5175 103.264C65.195 103.267 64.8719 103.269 64.5483 103.269L64.5483 104.269ZM67.483 104.225C68.1367 104.205 68.7882 104.179 69.4373 104.146L69.3869 103.147C68.7445 103.18 68.0998 103.206 67.4529 103.225L67.483 104.225ZM71.3897 104.028C72.042 103.981 72.6919 103.928 73.3392 103.869L73.2479 102.873C72.6074 102.932 71.9644 102.984 71.3189 103.03L71.3897 104.028ZM75.285 103.671C75.9349 103.597 76.582 103.518 77.2263 103.432L77.0938 102.44C76.4564 102.526 75.8162 102.604 75.1732 102.677L75.285 103.671ZM79.1621 103.152C79.8087 103.052 80.4522 102.945 81.0925 102.832L80.9184 101.847C80.285 101.959 79.6485 102.065 79.0088 102.164L79.1621 103.152ZM83.0158 102.47C83.6576 102.343 84.2959 102.209 84.9308 102.068L84.7145 101.092C84.0867 101.231 83.4554 101.363 82.8206 101.49L83.0158 102.47ZM86.8366 101.624C87.4723 101.469 88.1043 101.307 88.7323 101.139L88.4736 100.173C87.8526 100.339 87.2278 100.499 86.5992 100.653L86.8366 101.624ZM90.6167 100.611C91.2449 100.428 91.869 100.238 92.4888 100.042L92.1872 99.0888C91.5746 99.2826 90.9576 99.4702 90.3366 99.6514L90.6167 100.611ZM94.3475 99.4309C94.9671 99.2192 95.5822 99.0012 96.1927 98.7768L95.8477 97.8382C95.2445 98.0599 94.6366 98.2754 94.0243 98.4846L94.3475 99.4309ZM98.0225 98.0799C98.6317 97.8397 99.2361 97.5931 99.8353 97.3402L99.4465 96.4189C98.8546 96.6687 98.2576 96.9123 97.6556 97.1496L98.0225 98.0799ZM101.63 96.5575C102.227 96.2884 102.819 96.0131 103.405 95.7315L102.972 94.8301C102.393 95.1081 101.809 95.3801 101.219 95.6458L101.63 96.5575ZM105.158 94.8621C105.742 94.5636 106.32 94.2589 106.891 93.9481L106.414 93.0695C105.85 93.3763 105.279 93.6771 104.703 93.9717L105.158 94.8621ZM108.6 92.9902C109.168 92.6623 109.729 92.3283 110.284 91.9882L109.761 91.1357C109.214 91.4712 108.66 91.8008 108.1 92.1243L108.6 92.9902ZM111.939 90.942C112.489 90.5843 113.032 90.2205 113.567 89.8507L112.999 89.0279C112.471 89.3924 111.936 89.7511 111.394 90.1039L111.939 90.942ZM115.164 88.7143C115.428 88.521 115.69 88.3263 115.95 88.13L115.347 87.3319C115.091 87.5253 114.833 87.7172 114.573 87.9077L115.164 88.7143ZM115.95 88.13C116.229 87.9192 116.478 87.6928 116.696 87.4535L115.957 86.7794C115.782 86.9716 115.579 87.1568 115.347 87.3319L115.95 88.13ZM117.712 85.6907C117.917 85.0148 117.949 84.3177 117.83 83.6488L116.846 83.8234C116.938 84.3439 116.913 84.8814 116.755 85.4004L117.712 85.6907ZM117.047 81.7745C116.668 81.232 116.171 80.7574 115.575 80.3916L115.052 81.2435C115.53 81.5373 115.926 81.9168 116.228 82.3479L117.047 81.7745ZM113.695 79.6892C113.375 79.6344 113.042 79.6056 112.698 79.6056L112.698 80.6056C112.987 80.6056 113.263 80.6297 113.525 80.6748L113.695 79.6892ZM112.698 79.6056L111.695 79.6056L111.695 80.6056L112.698 80.6056L112.698 79.6056ZM109.689 79.6056L107.683 79.6056L107.683 80.6056L109.689 80.6056L109.689 79.6056ZM105.676 79.6056L103.67 79.6056L103.67 80.6056L105.676 80.6056L105.676 79.6056ZM101.664 79.6056L99.6576 79.6056L99.6576 80.6056L101.664 80.6056L101.664 79.6056ZM97.6513 79.6056L95.6451 79.6056L95.6451 80.6056L97.6513 80.6056L97.6513 79.6056ZM93.6388 79.6056L91.6326 79.6056L91.6326 80.6056L93.6388 80.6056L93.6388 79.6056ZM89.6264 79.6056L87.6201 79.6056L87.6201 80.6056L89.6264 80.6056L89.6264 79.6056ZM85.6139 79.6056L83.6076 79.6056L83.6076 80.6056L85.6139 80.6056L85.6139 79.6056ZM81.6014 79.6056L79.5951 79.6056L79.5951 80.6056L81.6014 80.6056L81.6014 79.6056ZM77.5889 79.6056L75.5826 79.6056L75.5826 80.6056L77.5889 80.6056L77.5889 79.6056ZM73.5764 79.6056L71.5701 79.6056L71.5701 80.6056L73.5764 80.6056L73.5764 79.6056ZM69.5639 79.6056L67.5577 79.6056L67.5577 80.6056L69.5639 80.6056L69.5639 79.6056ZM65.5514 79.6056L63.5452 79.6056L63.5452 80.6056L65.5514 80.6056L65.5514 79.6056ZM61.5389 79.6056L59.5327 79.6056L59.5327 80.6056L61.5389 80.6056L61.5389 79.6056ZM57.5264 79.6056L55.5202 79.6056L55.5202 80.6056L57.5264 80.6056L57.5264 79.6056ZM53.5139 79.6056L51.5077 79.6056L51.5077 80.6056L53.5139 80.6056L53.5139 79.6056ZM49.5015 79.6056L47.4952 79.6056L47.4952 80.6056L49.5015 80.6056L49.5015 79.6056ZM45.489 79.6056L43.4827 79.6056L43.4827 80.6056L45.489 80.6056L45.489 79.6056ZM41.4765 79.6056L39.4702 79.6056L39.4702 80.6056L41.4765 80.6056L41.4765 79.6056ZM37.464 79.6056L35.4577 79.6056L35.4577 80.6056L37.464 80.6056L37.464 79.6056ZM33.4515 79.6056L31.4452 79.6056L31.4452 80.6056L33.4515 80.6056L33.4515 79.6056ZM29.439 79.6056L27.4327 79.6056L27.4327 80.6056L29.439 80.6056L29.439 79.6056ZM25.4265 79.6056L23.4202 79.6056L23.4202 80.6056L25.4265 80.6056L25.4265 79.6056ZM21.414 79.6056L19.4077 79.6056L19.4077 80.6056L21.414 80.6056L21.414 79.6056ZM17.4015 79.6056L16.3984 79.6056L16.3984 80.6056L17.4015 80.6056L17.4015 79.6056ZM16.3984 79.6056C16.0541 79.6056 15.7215 79.6344 15.402 79.6892L15.5713 80.6748C15.8339 80.6297 16.1099 80.6056 16.3984 80.6056L16.3984 79.6056ZM13.5213 80.3916C12.9261 80.7574 12.4289 81.232 12.0493 81.7746L12.8686 82.3479C13.1703 81.9168 13.567 81.5373 14.0449 81.2435L13.5213 80.3916ZM11.2663 83.6488C11.1477 84.3177 11.1795 85.0148 11.3845 85.6907L12.3415 85.4005C12.184 84.8814 12.1587 84.3439 12.251 83.8234L11.2663 83.6488ZM12.4006 87.4535C12.619 87.6928 12.8675 87.9193 13.1467 88.13L13.7492 87.3319C13.5172 87.1568 13.3146 86.9716 13.1392 86.7794L12.4006 87.4535ZM13.1467 88.13C13.4066 88.3263 13.6684 88.521 13.9321 88.7143L14.5233 87.9077C14.2634 87.7172 14.0053 87.5253 13.7492 87.3319L13.1467 88.13ZM15.5296 89.8508C16.065 90.2205 16.6076 90.5843 17.1571 90.942L17.7026 90.1039C17.1607 89.7512 16.6257 89.3925 16.0978 89.0279L15.5296 89.8508ZM18.8129 91.9882C19.3675 92.3283 19.9286 92.6623 20.4961 92.9902L20.9963 92.1243C20.4363 91.8008 19.8827 91.4712 19.3357 91.1357L18.8129 91.9882ZM22.2051 93.9481C22.7767 94.2589 23.3545 94.5636 23.9381 94.8621L24.3934 93.9717C23.8172 93.6771 23.247 93.3763 22.6828 93.0696L22.2051 93.9481ZM25.6919 95.7315C26.278 96.0131 26.8697 96.2884 27.4668 96.5575L27.8776 95.6458C27.2879 95.3801 26.7037 95.1081 26.1249 94.8301L25.6919 95.7315ZM29.2613 97.3402C29.8605 97.5931 30.4648 97.8397 31.0741 98.0799L31.4409 97.1497C30.839 96.9123 30.242 96.6687 29.6501 96.4189L29.2613 97.3402ZM32.9039 98.7768C33.5143 99.0012 34.1294 99.2192 34.749 99.4309L35.0723 98.4846C34.4599 98.2754 33.8521 98.0599 33.2489 97.8382L32.9039 98.7768ZM36.6077 100.042C37.2275 100.238 37.8516 100.428 38.4798 100.611L38.76 99.6514C38.1389 99.4702 37.522 99.2826 36.9094 99.0888L36.6077 100.042ZM40.3642 101.139C40.9923 101.307 41.6242 101.469 42.2599 101.624L42.4973 100.653C41.8688 100.499 41.2439 100.339 40.623 100.173L40.3642 101.139ZM44.1658 102.068C44.8006 102.209 45.439 102.343 46.0808 102.47L46.2759 101.49C45.6412 101.363 45.0098 101.231 44.382 101.092L44.1658 102.068ZM48.004 102.832C48.6443 102.945 49.2878 103.052 49.9345 103.152L50.0877 102.164C49.4481 102.065 48.8115 101.959 48.1782 101.847L48.004 102.832ZM51.8703 103.432C52.5145 103.518 53.1617 103.597 53.8116 103.671L53.9234 102.677C53.2804 102.604 52.6401 102.526 52.0028 102.44L51.8703 103.432ZM55.7574 103.869C56.4047 103.928 57.0546 103.981 57.7069 104.028L57.7777 103.03C57.1322 102.984 56.4891 102.932 55.8486 102.873L55.7574 103.869ZM59.6592 104.146C60.3084 104.179 60.9599 104.205 61.6135 104.225L61.6437 103.225C60.9968 103.206 60.3521 103.18 59.7096 103.147L59.6592 104.146ZM63.569 104.264C63.8949 104.267 64.2213 104.269 64.5483 104.269L64.5483 103.269C64.2247 103.269 63.9016 103.267 63.579 103.264L63.569 104.264ZM16.3984 80.1056L16.3984 79.1056L16.3984 80.1056ZM13.448 87.731L12.8454 88.5291L13.448 87.731ZM112.698 80.1056L112.698 81.1056L112.698 80.1056ZM115.649 87.731L115.046 86.9329L115.649 87.731ZM64.5483 104.769C64.8769 104.769 65.205 104.767 65.5326 104.764L65.5125 102.764C65.1916 102.767 64.8702 102.769 64.5483 102.769L64.5483 104.769ZM67.4981 104.725C68.1552 104.705 68.81 104.678 69.4625 104.645L69.3617 102.648C68.7227 102.68 68.0813 102.706 67.4378 102.726L67.4981 104.725ZM71.425 104.526C72.0808 104.48 72.7341 104.427 73.3848 104.367L73.2023 102.375C72.5652 102.434 71.9256 102.486 71.2835 102.531L71.425 104.526ZM75.3409 104.167C75.9942 104.094 76.6448 104.014 77.2925 103.927L77.0275 101.945C76.3936 102.03 75.7568 102.108 75.1173 102.18L75.3409 104.167ZM79.2387 103.646C79.8888 103.545 80.5358 103.438 81.1796 103.324L80.8313 101.355C80.2014 101.466 79.5684 101.571 78.9322 101.67L79.2387 103.646ZM83.1133 102.961C83.7587 102.832 84.4006 102.698 85.0389 102.556L84.6064 100.603C83.9821 100.742 83.3543 100.874 82.723 100.999L83.1133 102.961ZM86.9554 102.11C87.5946 101.954 88.2301 101.791 88.8617 101.622L88.3442 99.6897C87.7268 99.8551 87.1055 100.014 86.4805 100.167L86.9554 102.11ZM90.7568 101.091C91.3886 100.907 92.0163 100.716 92.6397 100.519L92.0364 98.6121C91.4273 98.8048 90.814 98.9913 90.1965 99.1715L90.7568 101.091ZM94.5091 99.904C95.1324 99.6911 95.7511 99.4718 96.3652 99.2461L95.6752 97.3689C95.0756 97.5893 94.4714 97.8035 93.8626 98.0114L94.5091 99.904ZM98.2059 98.5451C98.8188 98.3034 99.4268 98.0553 100.03 97.8009L99.2521 95.9582C98.6639 96.2065 98.0705 96.4486 97.4722 96.6845L98.2059 98.5451ZM101.835 97.0133C102.436 96.7426 103.031 96.4655 103.621 96.1822L102.755 94.3794C102.18 94.6557 101.599 94.9259 101.014 95.1899L101.835 97.0133ZM105.386 95.3072C105.973 95.0069 106.555 94.7002 107.13 94.3873L106.175 92.6303C105.614 92.935 105.048 93.2338 104.476 93.5266L105.386 95.3072ZM108.851 93.4231C109.422 93.0931 109.987 92.7568 110.545 92.4144L109.499 90.7095C108.956 91.0427 108.406 91.37 107.85 91.6913L108.851 93.4231ZM112.212 91.361C112.766 91.0009 113.312 90.6346 113.851 90.2622L112.715 88.6165C112.191 88.9784 111.659 89.3346 111.121 89.6848L112.212 91.361ZM115.46 89.1176C115.726 88.9229 115.989 88.7267 116.251 88.5291L115.046 86.9329C114.792 87.1248 114.536 87.3153 114.278 87.5044L115.46 89.1176ZM116.251 88.5291C116.554 88.3005 116.825 88.0534 117.065 87.7905L115.588 86.4424C115.434 86.611 115.254 86.7756 115.046 86.9329L116.251 88.5291ZM118.191 85.8359C118.419 85.0815 118.454 84.3046 118.323 83.5615L116.353 83.9107C116.432 84.357 116.41 84.8147 116.277 85.2553L118.191 85.8359ZM117.457 81.4879C117.038 80.8896 116.491 80.3675 115.837 79.9656L114.79 81.6695C115.209 81.9272 115.556 82.2592 115.818 82.6345L117.457 81.4879ZM113.779 79.1965C113.431 79.1367 113.07 79.1056 112.698 79.1056L112.698 81.1056C112.959 81.1056 113.206 81.1274 113.441 81.1676L113.779 79.1965ZM112.698 79.1056L111.695 79.1056L111.695 81.1056L112.698 81.1056L112.698 79.1056ZM109.689 79.1056L107.683 79.1056L107.683 81.1056L109.689 81.1056L109.689 79.1056ZM105.676 79.1056L103.67 79.1056L103.67 81.1056L105.676 81.1056L105.676 79.1056ZM101.664 79.1056L99.6576 79.1056L99.6576 81.1056L101.664 81.1056L101.664 79.1056ZM97.6513 79.1056L95.6451 79.1056L95.6451 81.1056L97.6513 81.1056L97.6513 79.1056ZM93.6388 79.1056L91.6326 79.1056L91.6326 81.1056L93.6388 81.1056L93.6388 79.1056ZM89.6264 79.1056L87.6201 79.1056L87.6201 81.1056L89.6264 81.1056L89.6264 79.1056ZM85.6139 79.1056L83.6076 79.1056L83.6076 81.1056L85.6139 81.1056L85.6139 79.1056ZM81.6014 79.1056L79.5951 79.1056L79.5951 81.1056L81.6014 81.1056L81.6014 79.1056ZM77.5889 79.1056L75.5826 79.1056L75.5826 81.1056L77.5889 81.1056L77.5889 79.1056ZM73.5764 79.1056L71.5701 79.1056L71.5701 81.1056L73.5764 81.1056L73.5764 79.1056ZM69.5639 79.1056L67.5577 79.1056L67.5577 81.1056L69.5639 81.1056L69.5639 79.1056ZM65.5514 79.1056L63.5452 79.1056L63.5452 81.1056L65.5514 81.1056L65.5514 79.1056ZM61.5389 79.1056L59.5327 79.1056L59.5327 81.1056L61.5389 81.1056L61.5389 79.1056ZM57.5264 79.1056L55.5202 79.1056L55.5202 81.1056L57.5264 81.1056L57.5264 79.1056ZM53.5139 79.1056L51.5077 79.1056L51.5077 81.1056L53.5139 81.1056L53.5139 79.1056ZM49.5015 79.1056L47.4952 79.1056L47.4952 81.1056L49.5015 81.1056L49.5015 79.1056ZM45.489 79.1056L43.4827 79.1056L43.4827 81.1056L45.489 81.1056L45.489 79.1056ZM41.4765 79.1056L39.4702 79.1056L39.4702 81.1056L41.4765 81.1056L41.4765 79.1056ZM37.464 79.1056L35.4577 79.1056L35.4577 81.1056L37.464 81.1056L37.464 79.1056ZM33.4515 79.1056L31.4452 79.1056L31.4452 81.1056L33.4515 81.1056L33.4515 79.1056ZM29.439 79.1056L27.4327 79.1056L27.4327 81.1056L29.439 81.1056L29.439 79.1056ZM25.4265 79.1056L23.4202 79.1056L23.4202 81.1056L25.4265 81.1056L25.4265 79.1056ZM21.414 79.1056L19.4077 79.1056L19.4077 81.1056L21.414 81.1056L21.414 79.1056ZM17.4015 79.1056L16.3984 79.1056L16.3984 81.1056L17.4015 81.1056L17.4015 79.1056ZM16.3984 79.1056C16.0262 79.1056 15.6653 79.1367 15.3174 79.1965L15.6559 81.1676C15.8901 81.1274 16.1378 81.1056 16.3984 81.1056L16.3984 79.1056ZM13.2594 79.9656C12.6056 80.3675 12.0583 80.8896 11.6396 81.4879L13.2783 82.6345C13.5409 82.2592 13.8874 81.9272 14.3067 81.6695L13.2594 79.9656ZM10.774 83.5615C10.6422 84.3046 10.6772 85.0815 10.906 85.8359L12.8199 85.2553C12.6863 84.8147 12.6642 84.357 12.7433 83.9107L10.774 83.5615ZM12.0312 87.7905C12.2711 88.0534 12.5426 88.3005 12.8454 88.5291L14.0505 86.9329C13.8421 86.7756 13.6624 86.611 13.5086 86.4424L12.0312 87.7905ZM12.8454 88.5291C13.1072 88.7268 13.371 88.9229 13.6366 89.1176L14.8188 87.5044C14.5608 87.3153 14.3047 87.1248 14.0505 86.9329L12.8454 88.5291ZM15.2454 90.2622C15.7847 90.6346 16.331 91.0009 16.8844 91.361L17.9753 89.6848C17.4372 89.3346 16.906 88.9784 16.382 88.6165L15.2454 90.2622ZM18.5515 92.4144C19.1098 92.7568 19.6747 93.0931 20.246 93.4231L21.2464 91.6913C20.6902 91.37 20.1404 91.0427 19.5971 90.7095L18.5515 92.4144ZM21.9662 94.3873C22.5416 94.7002 23.1231 95.0069 23.7105 95.3072L24.621 93.5266C24.0486 93.2339 23.4821 92.9351 22.9216 92.6303L21.9662 94.3873ZM25.4754 96.1822C26.0652 96.4655 26.6606 96.7426 27.2614 97.0133L28.083 95.1899C27.4971 94.9259 26.9165 94.6557 26.3414 94.3794L25.4754 96.1822ZM29.0669 97.8009C29.6698 98.0553 30.2777 98.3034 30.8907 98.5451L31.6243 96.6845C31.026 96.4486 30.4327 96.2065 29.8445 95.9582L29.0669 97.8009ZM32.7314 99.2461C33.3454 99.4718 33.9642 99.6911 34.5874 99.904L35.2339 98.0114C34.6252 97.8035 34.0209 97.5893 33.4214 97.3689L32.7314 99.2461ZM36.4569 100.519C37.0803 100.716 37.708 100.907 38.3398 101.091L38.9 99.1715C38.2826 98.9913 37.6692 98.8048 37.0602 98.6121L36.4569 100.519ZM40.2349 101.622C40.8665 101.791 41.5019 101.954 42.1412 102.11L42.6161 100.167C41.991 100.014 41.3697 99.8551 40.7523 99.6897L40.2349 101.622ZM44.0576 102.556C44.696 102.698 45.3379 102.832 45.9832 102.961L46.3735 100.999C45.7423 100.874 45.1144 100.742 44.4901 100.603L44.0576 102.556ZM47.9169 103.324C48.5607 103.438 49.2077 103.545 49.8578 103.646L50.1644 101.67C49.5282 101.571 48.8951 101.466 48.2653 101.355L47.9169 103.324ZM51.8041 103.927C52.4517 104.014 53.1023 104.094 53.7557 104.167L53.9793 102.18C53.3397 102.108 52.7029 102.03 52.069 101.945L51.8041 103.927ZM55.7118 104.367C56.3625 104.427 57.0158 104.48 57.6715 104.526L57.8131 102.531C57.171 102.486 56.5313 102.434 55.8943 102.375L55.7118 104.367ZM59.634 104.645C60.2866 104.678 60.9414 104.705 61.5984 104.725L61.6588 102.726C61.0152 102.706 60.3739 102.68 59.7349 102.648L59.634 104.645ZM63.564 104.764C63.8916 104.767 64.2197 104.769 64.5483 104.769L64.5483 102.769C64.2264 102.769 63.9049 102.767 63.584 102.764L63.564 104.764Z" fill="#373844" mask="url(#path-7-inside-4_54_1111)"></path> <mask id="path-9-inside-5_54_1111" fill="white"> <path fill-rule="evenodd" clip-rule="evenodd" d="M100.524 44.1947C104.407 46.4412 102.532 51.5429 98.046 51.5429H30.1737C25.6881 51.5429 23.8132 46.4412 27.6957 44.1947C37.5273 38.5061 50.2342 35.0771 64.1099 35.0771C77.9855 35.0771 90.6924 38.5061 100.524 44.1947Z"></path> </mask> <path d="M100.524 44.1947L100.023 45.0603L100.524 44.1947ZM27.6957 44.1947L27.1949 43.3292L27.6957 44.1947ZM30.1737 52.5429H98.046V50.5429H30.1737V52.5429ZM28.1965 45.0603C37.8617 39.4679 50.3928 36.0771 64.1099 36.0771V34.0771C50.0755 34.0771 37.1929 37.5442 27.1949 43.3292L28.1965 45.0603ZM64.1099 36.0771C77.8269 36.0771 90.358 39.4679 100.023 45.0603L101.025 43.3292C91.0268 37.5442 78.1442 34.0771 64.1099 34.0771V36.0771ZM98.046 52.5429C100.69 52.5429 102.675 51.0207 103.367 49.0413C104.073 47.0215 103.372 44.6873 101.025 43.3292L100.023 45.0603C101.558 45.9486 101.861 47.2885 101.479 48.3812C101.083 49.5142 99.8876 50.5429 98.046 50.5429V52.5429ZM30.1737 50.5429C28.3321 50.5429 27.1367 49.5142 26.7406 48.3812C26.3586 47.2885 26.6613 45.9486 28.1965 45.0603L27.1949 43.3292C24.8476 44.6873 24.1465 47.0215 24.8527 49.0413C25.5448 51.0207 27.5296 52.5429 30.1737 52.5429V50.5429Z" fill="#373844" mask="url(#path-9-inside-5_54_1111)"></path> <mask id="path-11-inside-6_54_1111" fill="white"> <path fill-rule="evenodd" clip-rule="evenodd" d="M28.362 79.0987C24.4797 76.8521 26.3546 71.7505 30.8401 71.7505L98.7159 71.7505C103.201 71.7505 105.076 76.8521 101.194 79.0987C91.3621 84.7879 78.6545 88.2173 64.778 88.2173C50.9015 88.2173 38.1939 84.7879 28.362 79.0987Z"></path> </mask> <path d="M101.194 79.0987L101.695 79.9642L101.194 79.0987ZM98.7159 70.7505L30.8401 70.7505L30.8401 72.7505L98.7159 72.7505L98.7159 70.7505ZM100.693 78.2331C91.0277 83.8261 78.4959 87.2173 64.778 87.2173L64.778 89.2173C78.8132 89.2173 91.6965 85.7498 101.695 79.9642L100.693 78.2331ZM64.778 87.2173C51.0601 87.2173 38.5283 83.8261 28.8629 78.2331L27.8612 79.9642C37.8595 85.7498 50.7428 89.2173 64.778 89.2173L64.778 87.2173ZM30.8401 70.7505C28.1961 70.7505 26.2113 72.2726 25.5192 74.2521C24.8129 76.2719 25.514 78.606 27.8612 79.9642L28.8629 78.2331C27.3277 77.3448 27.025 76.0049 27.4071 74.9122C27.8032 73.7792 28.9987 72.7505 30.8401 72.7505L30.8401 70.7505ZM98.7159 72.7505C100.557 72.7505 101.753 73.7792 102.149 74.9122C102.531 76.0049 102.228 77.3448 100.693 78.2331L101.695 79.9642C104.042 78.606 104.743 76.2719 104.037 74.2521C103.345 72.2726 101.36 70.7505 98.7159 70.7505L98.7159 72.7505Z" fill="#373844" mask="url(#path-11-inside-6_54_1111)"></path> <path d="M84.4064 62.1155C84.4064 62.7967 83.9766 63.5322 82.9959 64.2774C82.023 65.0168 80.5837 65.704 78.7603 66.2901C75.1192 67.4604 70.0578 68.1924 64.4448 68.1924C58.8318 68.1924 53.7705 67.4604 50.1293 66.2901C48.3059 65.704 46.8666 65.0168 45.8938 64.2774C44.9131 63.5322 44.4833 62.7967 44.4833 62.1155C44.4833 61.4342 44.9131 60.6988 45.8938 59.9536C46.8666 59.2142 48.3059 58.527 50.1293 57.9409C53.7705 56.7706 58.8318 56.0386 64.4448 56.0386C70.0578 56.0386 75.1192 56.7706 78.7603 57.9409C80.5837 58.527 82.023 59.2142 82.9959 59.9536C83.9766 60.6988 84.4064 61.4342 84.4064 62.1155Z" stroke="#373844"></path> </svg> 