<?xml version="1.0" encoding="UTF-8"?> <svg xmlns="http://www.w3.org/2000/svg" width="143" height="133" viewBox="0 0 143 133" fill="none"> <path d="M58.2731 132.071C57.5518 132.071 56.7894 131.704 55.9901 130.877C55.1903 130.05 54.3949 128.802 53.6224 127.151C52.0787 123.85 50.6755 119.041 49.4924 113.06C47.1277 101.105 45.6616 84.5676 45.6616 66.2857C45.6616 48.0038 47.1277 31.4664 49.4924 19.5117C50.6755 13.5302 52.0787 8.72181 53.6224 5.42087C54.3949 3.76905 55.1903 2.52163 55.9902 1.69419C56.7894 0.867337 57.5518 0.499999 58.2731 0.499999C58.9943 0.499999 59.7567 0.867337 60.556 1.69419C61.3558 2.52163 62.1512 3.76905 62.9237 5.42087C64.4674 8.72181 65.8706 13.5302 67.0538 19.5117C69.4184 31.4664 70.8845 48.0038 70.8845 66.2857C70.8845 84.5676 69.4184 101.105 67.0538 113.06C65.8706 119.041 64.4674 123.85 62.9237 127.151C62.1512 128.802 61.3558 130.05 60.556 130.877C59.7567 131.704 58.9943 132.071 58.2731 132.071Z" stroke="#373844"></path> <path d="M84.496 0.500366C85.2172 0.500366 85.9796 0.867706 86.7789 1.69456C87.5787 2.52199 88.3741 3.76942 89.1466 5.42123C90.6903 8.72217 92.0935 13.5305 93.2767 19.512C95.6414 31.4668 97.1074 48.0042 97.1074 66.2861C97.1074 84.568 95.6414 101.105 93.2767 113.06C92.0935 119.042 90.6903 123.85 89.1466 127.151C88.3741 128.803 87.5787 130.05 86.7789 130.878C85.9796 131.704 85.2172 132.072 84.496 132.072C83.7747 132.072 83.0123 131.704 82.2131 130.878C81.4132 130.05 80.6178 128.803 79.8453 127.151C78.3016 123.85 76.8984 119.042 75.7153 113.06C73.3506 101.105 71.8845 84.568 71.8845 66.2861C71.8845 48.0042 73.3506 31.4668 75.7153 19.512C76.8984 13.5305 78.3016 8.72218 79.8453 5.42123C80.6178 3.76942 81.4132 2.52199 82.2131 1.69456C83.0123 0.867706 83.7747 0.500366 84.496 0.500366Z" stroke="#373844"></path> <path d="M28.4081 132.071C18.8666 132.071 11.8904 124.905 7.27823 112.976C2.67192 101.063 0.49992 84.5615 0.499921 66.2857C0.499922 48.0099 2.67192 31.5084 7.27824 19.5949C11.8904 7.66642 18.8666 0.499998 28.4081 0.499998C30.7304 0.499999 33.1489 1.47699 35.6226 3.25427C38.0945 5.03034 40.5878 7.58173 43.0483 10.6688C47.9692 16.8428 52.707 25.0924 56.8411 33.3663C60.973 41.6357 64.4914 49.9079 66.9773 56.1145C68.2201 59.2173 69.2044 61.8027 69.8778 63.6119C70.2145 64.5165 70.4735 65.227 70.6481 65.711C70.7355 65.953 70.8017 66.1384 70.8461 66.2631L70.8541 66.2857L70.8461 66.3083C70.8017 66.433 70.7355 66.6184 70.6481 66.8604C70.4735 67.3444 70.2145 68.0549 69.8778 68.9595C69.2044 70.7687 68.2201 73.3541 66.9773 76.4569C64.4914 82.6635 60.973 90.9357 56.8411 99.2051C52.707 107.479 47.9692 115.729 43.0483 121.903C40.5878 124.99 38.0945 127.541 35.6226 129.317C33.1489 131.094 30.7304 132.071 28.4081 132.071Z" stroke="#373844"></path> <path d="M114.361 0.500364C123.902 0.500364 130.879 7.66678 135.491 19.5953C140.097 31.5087 142.269 48.0103 142.269 66.2861C142.269 84.5618 140.097 101.063 135.491 112.977C130.879 124.905 123.902 132.072 114.361 132.072C112.039 132.072 109.62 131.095 107.146 129.318C104.675 127.541 102.181 124.99 99.7208 121.903C94.7998 115.729 90.0621 107.479 85.9279 99.2054C81.796 90.9361 78.2776 82.6639 75.7917 76.4573C74.5489 73.3545 73.5647 70.7691 72.8912 68.9599C72.5545 68.0553 72.2956 67.3448 72.1209 66.8608C72.0336 66.6188 71.9673 66.4334 71.9229 66.3086L71.9149 66.2861L71.9229 66.2635C71.9673 66.1388 72.0336 65.9534 72.1209 65.7114C72.2956 65.2273 72.5545 64.5169 72.8912 63.6123C73.5647 61.803 74.5489 59.2176 75.7917 56.1148C78.2776 49.9082 81.796 41.6361 85.9279 33.3667C90.062 25.0928 94.7998 16.8431 99.7208 10.6692C102.181 7.58209 104.675 5.0307 107.146 3.25464C109.62 1.47735 112.039 0.500364 114.361 0.500364Z" stroke="#373844"></path> <path d="M50.2488 132.093C49.6168 132.303 48.9772 132.445 48.331 132.517L48.2758 132.02C47.9676 132.054 47.6579 132.071 47.3468 132.071C47.0357 132.071 46.7261 132.054 46.4179 132.02L46.3627 132.517C45.7165 132.445 45.0769 132.303 44.4449 132.093L44.6023 131.619C44.0242 131.427 43.45 131.175 42.8807 130.863L42.6406 131.302C42.0843 130.997 41.5349 130.64 40.9932 130.231L41.2941 129.832C40.8045 129.463 40.3195 129.049 39.84 128.593L39.4951 128.955C39.0341 128.515 38.5795 128.039 38.1317 127.526L38.5084 127.197C38.0976 126.726 37.692 126.224 37.2918 125.69L36.8917 125.99C36.5095 125.48 36.1329 124.943 35.7623 124.38L36.18 124.105C35.8333 123.578 35.4915 123.028 35.155 122.454L34.7237 122.707C34.399 122.153 34.0795 121.579 33.7653 120.984L34.2073 120.751C33.9097 120.188 33.6167 119.606 33.3286 119.006L32.8779 119.223C32.5984 118.641 32.3237 118.043 32.0539 117.429L32.5117 117.228C32.2549 116.643 32.0025 116.044 31.7547 115.43L31.291 115.617C31.0496 115.019 30.8125 114.408 30.58 113.784L31.0486 113.609C30.8244 113.007 30.6045 112.393 30.3889 111.767L29.9161 111.93C29.705 111.317 29.4981 110.693 29.2955 110.059L29.7718 109.907C29.5753 109.291 29.3828 108.664 29.1944 108.028L28.715 108.17C28.5308 107.548 28.3507 106.916 28.1747 106.275L28.6568 106.143C28.486 105.521 28.319 104.891 28.1561 104.252L27.6716 104.375C27.5108 103.745 27.354 103.107 27.2011 102.461L27.6877 102.346C27.538 101.713 27.3922 101.073 27.2502 100.426L26.7618 100.533C26.6228 99.8987 26.4875 99.2577 26.3561 98.61L26.8461 98.5106C26.7172 97.8753 26.5919 97.2335 26.4705 96.5854L25.979 96.6775C25.8587 96.0353 25.742 95.3869 25.6291 94.7327L26.1218 94.6477C26.0115 94.0085 25.9048 93.3637 25.8018 92.7134L25.308 92.7916C25.2061 92.148 25.1077 91.4991 25.013 90.845L25.5079 90.7734C25.4145 90.1279 25.3246 89.4773 25.2384 88.8219L24.7427 88.8871C24.6578 88.2415 24.5764 87.5912 24.4986 86.9364L24.9951 86.8774C24.9184 86.2311 24.8451 85.5803 24.7754 84.9253L24.2782 84.9782C24.209 84.3271 24.1432 83.6718 24.0811 83.0126L24.5788 82.9657C24.5179 82.3189 24.4604 81.6682 24.4064 81.0139L23.908 81.055C23.8542 80.4027 23.8039 79.7467 23.7571 79.0873L24.2558 79.0519C24.2097 78.402 24.1671 77.7486 24.1279 77.092L23.6288 77.1217C23.5899 76.4694 23.5544 75.8139 23.5225 75.1553L24.0219 75.131C23.9903 74.478 23.962 73.822 23.9373 73.163L23.4377 73.1817C23.4132 72.5296 23.3922 71.8746 23.3747 71.217L23.8745 71.2037C23.8571 70.5503 23.8431 69.8944 23.8326 69.2359L23.3327 69.2438C23.3223 68.59 23.3153 67.9338 23.3118 67.2753L23.8118 67.2726C23.8101 66.9442 23.8092 66.6152 23.8092 66.2857C23.8092 65.9562 23.8101 65.6272 23.8118 65.2988L23.3118 65.2961C23.3153 64.6376 23.3223 63.9814 23.3327 63.3276L23.8326 63.3355C23.8431 62.677 23.8571 62.0211 23.8745 61.3677L23.3747 61.3544C23.3922 60.6968 23.4133 60.0418 23.4377 59.3896L23.9373 59.4084C23.962 58.7494 23.9903 58.0934 24.0219 57.4403L23.5225 57.4161C23.5544 56.7575 23.5899 56.102 23.6288 55.4497L24.1279 55.4794C24.1671 54.8228 24.2097 54.1694 24.2558 53.5195L23.7571 53.4841C23.8039 52.8247 23.8542 52.1687 23.9081 51.5164L24.4064 51.5575C24.4604 50.9032 24.5179 50.2525 24.5788 49.6057L24.0811 49.5588C24.1432 48.8996 24.209 48.2443 24.2782 47.5932L24.7754 47.6461C24.8451 46.9911 24.9184 46.3403 24.9951 45.694L24.4986 45.635C24.5764 44.9802 24.6578 44.3299 24.7427 43.6843L25.2384 43.7495C25.3246 43.0941 25.4145 42.4435 25.5079 41.798L25.0131 41.7264C25.1077 41.0723 25.2061 40.4234 25.308 39.7798L25.8018 39.858C25.9048 39.2077 26.0115 38.5629 26.1218 37.9237L25.6291 37.8387C25.742 37.1844 25.8587 36.5361 25.979 35.8939L26.4705 35.986C26.5919 35.3379 26.7172 34.6961 26.8461 34.0608L26.3561 33.9614C26.4875 33.3137 26.6228 32.6727 26.7618 32.0386L27.2502 32.1457C27.3922 31.4983 27.538 30.8583 27.6877 30.2258L27.2011 30.1107C27.354 29.4646 27.5108 28.8263 27.6716 28.1962L28.1561 28.3197C28.319 27.6808 28.486 27.0502 28.6568 26.4284L28.1747 26.2959C28.3507 25.6552 28.5308 25.0236 28.715 24.4014L29.1945 24.5433C29.3828 23.907 29.5753 23.2808 29.7719 22.6648L29.2955 22.5128C29.4981 21.878 29.705 21.254 29.9161 20.6412L30.3889 20.804C30.6045 20.1781 30.8244 19.5641 31.0486 18.9623L30.58 18.7878C30.8125 18.1636 31.0496 17.5523 31.291 16.9543L31.7547 17.1415C32.0025 16.5277 32.2549 15.9283 32.5117 15.3437L32.0539 15.1426C32.3237 14.5285 32.5984 13.9303 32.8779 13.3485L33.3286 13.565C33.6167 12.9653 33.9097 12.3837 34.2073 11.8206L33.7653 11.5869C34.0795 10.9926 34.399 10.4183 34.7237 9.8647L35.155 10.1177C35.4915 9.54389 35.8333 8.99326 36.18 8.46645L35.7623 8.19159C36.1329 7.62839 36.5095 7.09137 36.8918 6.58145L37.2918 6.88134C37.692 6.34752 38.0977 5.84491 38.5084 5.37439L38.1317 5.04558C38.5795 4.53262 39.0341 4.05592 39.4951 3.61681L39.84 3.97885C40.3195 3.52204 40.8045 3.10858 41.2941 2.73947L40.9932 2.3402C41.5349 1.93181 42.0843 1.57438 42.6406 1.26988L42.8807 1.70847C43.45 1.39685 44.0242 1.14454 44.6023 0.95268L44.4449 0.478124C45.0769 0.268391 45.7165 0.126296 46.3627 0.0545422L46.4179 0.551488C46.7261 0.517265 47.0358 0.499999 47.3469 0.499999C47.6579 0.499999 47.9676 0.517265 48.2758 0.551488L48.331 0.0545425C48.9772 0.126297 49.6168 0.268392 50.2488 0.478127L50.0914 0.952683C50.6695 1.14454 51.2437 1.39685 51.813 1.70848L52.0531 1.26988C52.6094 1.57438 53.1588 1.93182 53.7005 2.34021L53.3996 2.73947C53.8892 3.10859 54.3742 3.52206 54.8537 3.97886L55.1986 3.61682C55.6596 4.05594 56.1142 4.53264 56.562 5.0456L56.1853 5.37441C56.5961 5.84493 57.0017 6.34754 57.4019 6.88136L57.802 6.58147C58.1842 7.09139 58.5608 7.62841 58.9314 8.19161L58.5137 8.46647C58.8604 8.99328 59.2022 9.54391 59.5387 10.1177L59.97 9.86472C60.2947 10.4183 60.6142 10.9926 60.9284 11.5869L60.4864 11.8206C60.784 12.3837 61.077 12.9653 61.3651 13.565L61.8158 13.3485C62.0953 13.9303 62.37 14.5285 62.6398 15.1427L62.182 15.3437C62.4388 15.9284 62.6912 16.5278 62.939 17.1415L63.4027 16.9543C63.6441 17.5523 63.8812 18.1636 64.1137 18.7878L63.6451 18.9623C63.8693 19.5641 64.0892 20.1782 64.3048 20.804L64.7776 20.6412C64.9887 21.2541 65.1956 21.8781 65.3982 22.5128L64.9219 22.6649C65.1184 23.2808 65.3109 23.9071 65.4993 24.5433L65.9787 24.4014C66.1629 25.0236 66.343 25.6552 66.519 26.2959L66.0369 26.4284C66.2077 27.0502 66.3747 27.6808 66.5376 28.3198L67.0221 28.1962C67.1829 28.8264 67.3397 29.4646 67.4926 30.1107L67.006 30.2258C67.1557 30.8583 67.3015 31.4983 67.4435 32.1457L67.9319 32.0386C68.0709 32.6727 68.2062 33.3137 68.3376 33.9614L67.8476 34.0608C67.9765 34.6961 68.1018 35.3379 68.2232 35.986L68.7147 35.8939C68.835 36.5361 68.9517 37.1845 69.0646 37.8387L68.5719 37.9237C68.6822 38.5629 68.7889 39.2077 68.8919 39.8581L69.3857 39.7798C69.4876 40.4234 69.586 41.0724 69.6806 41.7264L69.1858 41.798C69.2792 42.4435 69.3691 43.0941 69.4553 43.7495L69.951 43.6843C70.0359 44.3299 70.1173 44.9802 70.1951 45.635L69.6986 45.694C69.7753 46.3403 69.8486 46.9911 69.9183 47.6461L70.4155 47.5932C70.4847 48.2443 70.5505 48.8996 70.6126 49.5588L70.1149 49.6058C70.1758 50.2525 70.2333 50.9032 70.2873 51.5575L70.7856 51.5164C70.8395 52.1687 70.8898 52.8247 70.9366 53.4841L70.4379 53.5195C70.484 54.1695 70.5266 54.8228 70.5658 55.4794L71.0649 55.4497C71.1038 56.102 71.1393 56.7575 71.1712 57.4161L70.6718 57.4404C70.7034 58.0934 70.7317 58.7494 70.7564 59.4084L71.256 59.3897C71.2805 60.0418 71.3015 60.6968 71.319 61.3544L70.8192 61.3677C70.8366 62.0211 70.8506 62.6771 70.8611 63.3356L71.361 63.3276C71.3714 63.9814 71.3784 64.6376 71.3819 65.2961L70.8819 65.2988C70.8836 65.6272 70.8845 65.9562 70.8845 66.2857C70.8845 66.6152 70.8836 66.9442 70.8819 67.2726L71.3819 67.2753C71.3784 67.9338 71.3714 68.5901 71.361 69.2438L70.8611 69.2359C70.8506 69.8944 70.8366 70.5503 70.8192 71.2037L71.319 71.217C71.3015 71.8746 71.2804 72.5296 71.256 73.1818L70.7564 73.163C70.7317 73.822 70.7034 74.478 70.6718 75.1311L71.1712 75.1553C71.1393 75.8139 71.1038 76.4694 71.0649 77.1217L70.5658 77.092C70.5266 77.7486 70.484 78.402 70.4379 79.0519L70.9366 79.0873C70.8898 79.7468 70.8395 80.4027 70.7856 81.055L70.2873 81.0139C70.2333 81.6683 70.1758 82.3189 70.1148 82.9657L70.6126 83.0126C70.5505 83.6718 70.4847 84.3271 70.4155 84.9782L69.9183 84.9253C69.8486 85.5803 69.7753 86.2311 69.6986 86.8774L70.1951 86.9364C70.1173 87.5912 70.0359 88.2415 69.951 88.8871L69.4553 88.8219C69.3691 89.4773 69.2792 90.1279 69.1858 90.7734L69.6806 90.845C69.586 91.4991 69.4876 92.148 69.3857 92.7916L68.8919 92.7134C68.7889 93.3637 68.6822 94.0086 68.5719 94.6477L69.0646 94.7327C68.9517 95.387 68.835 96.0353 68.7147 96.6775L68.2232 96.5854C68.1018 97.2335 67.9765 97.8753 67.8476 98.5106L68.3376 98.61C68.2062 99.2577 68.0709 99.8988 67.9319 100.533L67.4435 100.426C67.3015 101.073 67.1557 101.713 67.006 102.346L67.4926 102.461C67.3397 103.107 67.1829 103.745 67.0221 104.375L66.5376 104.252C66.3747 104.891 66.2077 105.521 66.0369 106.143L66.519 106.275C66.343 106.916 66.1628 107.548 65.9787 108.17L65.4992 108.028C65.3109 108.664 65.1184 109.291 64.9218 109.907L65.3982 110.059C65.1956 110.693 64.9887 111.317 64.7776 111.93L64.3048 111.767C64.0892 112.393 63.8693 113.007 63.6451 113.609L64.1137 113.784C63.8812 114.408 63.6441 115.019 63.4027 115.617L62.939 115.43C62.6912 116.044 62.4388 116.643 62.182 117.228L62.6398 117.429C62.37 118.043 62.0953 118.641 61.8158 119.223L61.3651 119.006C61.077 119.606 60.784 120.188 60.4864 120.751L60.9284 120.985C60.6142 121.579 60.2947 122.153 59.97 122.707L59.5387 122.454C59.2022 123.028 58.8604 123.578 58.5137 124.105L58.9314 124.38C58.5608 124.943 58.1842 125.48 57.8019 125.99L57.4019 125.69C57.0017 126.224 56.596 126.727 56.1853 127.197L56.562 127.526C56.1142 128.039 55.6596 128.515 55.1986 128.955L54.8537 128.593C54.3742 129.049 53.8892 129.463 53.3996 129.832L53.7005 130.231C53.1588 130.64 52.6094 130.997 52.0531 131.302L51.813 130.863C51.2437 131.175 50.6695 131.427 50.0913 131.619L50.2488 132.093Z" stroke="#373844" stroke-dasharray="2 2"></path> <path d="M92.5202 0.478484C93.1523 0.268752 93.7919 0.126662 94.438 0.0549154L94.4932 0.551848C94.8014 0.517638 95.1111 0.500365 95.4222 0.500365C95.7333 0.500365 96.0429 0.517638 96.3511 0.551848L96.4063 0.0549153C97.0525 0.126662 97.6921 0.268767 98.3242 0.478499L98.1667 0.953048C98.7449 1.14491 99.319 1.39722 99.8884 1.70885L100.128 1.27025C100.685 1.57475 101.234 1.93219 101.776 2.34057L101.475 2.73984C101.965 3.10895 102.45 3.52241 102.929 3.97923L103.274 3.61719C103.735 4.0563 104.19 4.533 104.637 5.04596L104.261 5.37477C104.671 5.84529 105.077 6.3479 105.477 6.88172L105.877 6.58183C106.26 7.09176 106.636 7.62878 107.007 8.19198L106.589 8.46683C106.936 8.99364 107.278 9.54427 107.614 10.118L108.045 9.86508C108.37 10.4187 108.69 10.9929 109.004 11.5873L108.562 11.821C108.859 12.384 109.152 12.9657 109.44 13.5654L109.891 13.3489C110.171 13.9307 110.445 14.5289 110.715 15.143L110.257 15.3441C110.514 15.9287 110.767 16.5281 111.014 17.1419L111.478 16.9547C111.719 17.5527 111.957 18.164 112.189 18.7882L111.72 18.9627C111.945 19.5645 112.165 20.1785 112.38 20.8044L112.853 20.6415C113.064 21.2544 113.271 21.8784 113.474 22.5132L112.997 22.6652C113.194 23.2812 113.386 23.9074 113.575 24.5437L114.054 24.4018C114.238 25.024 114.418 25.6556 114.594 26.2963L114.112 26.4288C114.283 27.0506 114.45 27.6812 114.613 28.3201L115.097 28.1966C115.258 28.8267 115.415 29.465 115.568 30.111L115.081 30.2262C115.231 30.8586 115.377 31.4987 115.519 32.1461L116.007 32.039C116.146 32.673 116.281 33.314 116.413 33.9618L115.923 34.0612C116.052 34.6965 116.177 35.3383 116.299 35.9864L116.79 35.8943C116.91 36.5365 117.027 37.1848 117.14 37.8391L116.647 37.9241C116.758 38.5632 116.864 39.2081 116.967 39.8584L117.461 39.7802C117.563 40.4238 117.661 41.0727 117.756 41.7268L117.261 41.7984C117.355 42.4439 117.444 43.0945 117.531 43.7499L118.026 43.6847C118.111 44.3303 118.193 44.9806 118.27 45.6354L117.774 45.6944C117.851 46.3407 117.924 46.9915 117.994 47.6465L118.491 47.5936C118.56 48.2447 118.626 48.8999 118.688 49.5592L118.19 49.6061C118.251 50.2529 118.309 50.9035 118.363 51.5579L118.861 51.5168C118.915 52.1691 118.965 52.825 119.012 53.4845L118.513 53.5199C118.559 54.1698 118.602 54.8232 118.641 55.4798L119.14 55.45C119.179 56.1024 119.215 56.7579 119.247 57.4165L118.747 57.4407C118.779 58.0938 118.807 58.7498 118.832 59.4088L119.331 59.39C119.356 60.0422 119.377 60.6971 119.394 61.3548L118.895 61.3681C118.912 62.0214 118.926 62.6774 118.936 63.3359L119.436 63.328C119.447 63.9817 119.454 64.638 119.457 65.2965L118.957 65.2992C118.959 65.6276 118.96 65.9565 118.96 66.2861C118.96 66.6156 118.959 66.9446 118.957 67.273L119.457 67.2756C119.454 67.9342 119.447 68.5904 119.436 69.2442L118.936 69.2362C118.926 69.8947 118.912 70.5507 118.895 71.204L119.394 71.2174C119.377 71.875 119.356 72.53 119.331 73.1821L118.832 73.1634C118.807 73.8223 118.779 74.4784 118.747 75.1314L119.247 75.1556C119.215 75.8142 119.179 76.4698 119.14 77.1221L118.641 77.0923C118.602 77.749 118.559 78.4023 118.513 79.0523L119.012 79.0877C118.965 79.7471 118.915 80.4031 118.861 81.0554L118.363 81.0143C118.309 81.6686 118.251 82.3193 118.19 82.966L118.688 83.013C118.626 83.6722 118.56 84.3275 118.491 84.9786L117.994 84.9257C117.924 85.5807 117.851 86.2314 117.774 86.8778L118.27 86.9368C118.193 87.5916 118.111 88.2418 118.026 88.8875L117.531 88.8223C117.444 89.4777 117.355 90.1282 117.261 90.7738L117.756 90.8454C117.661 91.4994 117.563 92.1484 117.461 92.792L116.967 92.7137C116.864 93.3641 116.758 94.0089 116.647 94.6481L117.14 94.7331C117.027 95.3873 116.91 96.0357 116.79 96.6779L116.299 96.5858C116.177 97.2339 116.052 97.8757 115.923 98.511L116.413 98.6104C116.281 99.2581 116.146 99.8991 116.007 100.533L115.519 100.426C115.377 101.073 115.231 101.714 115.081 102.346L115.568 102.461C115.415 103.107 115.258 103.745 115.097 104.376L114.613 104.252C114.45 104.891 114.283 105.522 114.112 106.143L114.594 106.276C114.418 106.917 114.238 107.548 114.054 108.17L113.575 108.028C113.386 108.665 113.194 109.291 112.997 109.907L113.474 110.059C113.271 110.694 113.064 111.318 112.853 111.931L112.38 111.768C112.165 112.394 111.945 113.008 111.72 113.609L112.189 113.784C111.957 114.408 111.719 115.019 111.478 115.617L111.014 115.43C110.767 116.044 110.514 116.643 110.257 117.228L110.715 117.429C110.445 118.043 110.171 118.641 109.891 119.223L109.44 119.007C109.152 119.606 108.859 120.188 108.562 120.751L109.004 120.985C108.69 121.579 108.37 122.154 108.045 122.707L107.614 122.454C107.278 123.028 106.936 123.579 106.589 124.105L107.007 124.38C106.636 124.943 106.26 125.48 105.877 125.99L105.477 125.69C105.077 126.224 104.671 126.727 104.261 127.197L104.637 127.526C104.19 128.039 103.735 128.516 103.274 128.955L102.929 128.593C102.45 129.05 101.965 129.463 101.475 129.832L101.776 130.232C101.234 130.64 100.685 130.997 100.128 131.302L99.8884 130.863C99.319 131.175 98.7449 131.427 98.1667 131.619L98.3242 132.094C97.6921 132.303 97.0525 132.445 96.4063 132.517L96.3511 132.02C96.043 132.055 95.7333 132.072 95.4222 132.072C95.1111 132.072 94.8014 132.055 94.4932 132.02L94.4381 132.517C93.7919 132.445 93.1523 132.303 92.5202 132.094L92.6777 131.619C92.0995 131.427 91.5253 131.175 90.956 130.863L90.716 131.302C90.1597 130.997 89.6103 130.64 89.0685 130.232L89.3695 129.832C88.8798 129.463 88.3949 129.05 87.9153 128.593L87.5704 128.955C87.1095 128.516 86.6548 128.039 86.2071 127.526L86.5837 127.197C86.173 126.727 85.7673 126.224 85.3672 125.69L84.9671 125.99C84.5849 125.48 84.2083 124.943 83.8376 124.38L84.2553 124.105C83.9086 123.579 83.5669 123.028 83.2303 122.454L82.799 122.707C82.4743 122.153 82.1548 121.579 81.8406 120.985L82.2827 120.751C81.985 120.188 81.692 119.606 81.4039 119.007L80.9532 119.223C80.6738 118.641 80.399 118.043 80.1293 117.429L80.587 117.228C80.3302 116.643 80.0778 116.044 79.83 115.43L79.3664 115.617C79.1249 115.019 78.8879 114.408 78.6554 113.784L79.1239 113.609C78.8998 113.008 78.6798 112.394 78.4642 111.768L77.9915 111.931C77.7804 111.318 77.5734 110.694 77.3709 110.059L77.8472 109.907C77.6506 109.291 77.4581 108.665 77.2698 108.028L76.7903 108.17C76.6062 107.548 76.426 106.917 76.25 106.276L76.7322 106.143C76.5613 105.522 76.3944 104.891 76.2314 104.252L75.7469 104.376C75.5862 103.745 75.4293 103.107 75.2765 102.461L75.763 102.346C75.6134 101.714 75.4675 101.073 75.3256 100.426L74.8372 100.533C74.6982 99.8991 74.5629 99.2581 74.4314 98.6104L74.9214 98.5109C74.7925 97.8757 74.6673 97.2339 74.5458 96.5858L74.0544 96.6779C73.934 96.0357 73.8173 95.3873 73.7044 94.7331L74.1972 94.648C74.0869 94.0089 73.9802 93.3641 73.8772 92.7137L73.3833 92.7919C73.2814 92.1483 73.1831 91.4994 73.0884 90.8454L73.5832 90.7737C73.4898 90.1282 73.4 89.4777 73.3138 88.8223L72.818 88.8875C72.7331 88.2418 72.6517 87.5915 72.574 86.9368L73.0705 86.8778C72.9937 86.2314 72.9204 85.5807 72.8508 84.9257L72.3536 84.9786C72.2843 84.3275 72.2185 83.6722 72.1564 83.0129L72.6542 82.966C72.5932 82.3193 72.5357 81.6686 72.4817 81.0143L71.9834 81.0554C71.9296 80.4031 71.8792 79.7471 71.8324 79.0876L72.3312 79.0522C72.2851 78.4023 72.2424 77.749 72.2032 77.0923L71.7041 77.1221C71.6652 76.4698 71.6298 75.8142 71.5978 75.1556L72.0973 75.1314C72.0656 74.4784 72.0374 73.8223 72.0127 73.1634L71.513 73.1821C71.4886 72.53 71.4676 71.875 71.45 71.2174L71.9499 71.204C71.9324 70.5507 71.9185 69.8947 71.908 69.2362L71.408 69.2442C71.3976 68.5904 71.3906 67.9342 71.3871 67.2756L71.8871 67.273C71.8854 66.9446 71.8845 66.6156 71.8845 66.2861C71.8845 65.9565 71.8854 65.6276 71.8871 65.2992L71.3871 65.2965C71.3906 64.638 71.3976 63.9817 71.408 63.3279L71.908 63.3359C71.9185 62.6774 71.9324 62.0214 71.9499 61.3681L71.45 61.3548C71.4676 60.6971 71.4886 60.0422 71.513 59.39L72.0127 59.4087C72.0374 58.7498 72.0656 58.0937 72.0973 57.4407L71.5978 57.4165C71.6298 56.7579 71.6652 56.1024 71.7041 55.45L72.2032 55.4798C72.2424 54.8232 72.2851 54.1698 72.3312 53.5199L71.8324 53.4845C71.8792 52.825 71.9296 52.1691 71.9834 51.5167L72.4817 51.5579C72.5357 50.9035 72.5932 50.2529 72.6542 49.6061L72.1564 49.5592C72.2185 48.8999 72.2843 48.2447 72.3536 47.5936L72.8508 47.6465C72.9204 46.9915 72.9937 46.3407 73.0705 45.6944L72.574 45.6354C72.6517 44.9806 72.7331 44.3303 72.818 43.6847L73.3138 43.7499C73.4 43.0945 73.4898 42.4439 73.5832 41.7984L73.0884 41.7268C73.1831 41.0727 73.2814 40.4238 73.3833 39.7802L73.8772 39.8584C73.9802 39.2081 74.0869 38.5632 74.1972 37.9241L73.7044 37.8391C73.8173 37.1848 73.934 36.5365 74.0544 35.8943L74.5458 35.9864C74.6673 35.3383 74.7925 34.6965 74.9214 34.0612L74.4314 33.9617C74.5629 33.314 74.6982 32.673 74.8372 32.039L75.3256 32.1461C75.4675 31.4987 75.6134 30.8586 75.763 30.2262L75.2765 30.111C75.4293 29.465 75.5862 28.8267 75.7469 28.1965L76.2314 28.3201C76.3944 27.6811 76.5613 27.0506 76.7322 26.4287L76.25 26.2963C76.426 25.6556 76.6062 25.024 76.7903 24.4018L77.2698 24.5437C77.4581 23.9074 77.6506 23.2811 77.8472 22.6652L77.3709 22.5132C77.5734 21.8784 77.7804 21.2544 77.9915 20.6415L78.4642 20.8044C78.6798 20.1785 78.8998 19.5645 79.1239 18.9627L78.6554 18.7881C78.8879 18.164 79.1249 17.5527 79.3664 16.9547L79.83 17.1419C80.0778 16.5281 80.3302 15.9287 80.587 15.3441L80.1293 15.143C80.3991 14.5289 80.6738 13.9306 80.9533 13.3489L81.4039 13.5654C81.692 12.9657 81.985 12.384 82.2827 11.8209L81.8406 11.5873C82.1548 10.9929 82.4744 10.4186 82.799 9.86507L83.2303 10.118C83.5669 9.54426 83.9086 8.99363 84.2553 8.46682L83.8376 8.19196C84.2083 7.62876 84.5849 7.09174 84.9671 6.58182L85.3672 6.88171C85.7673 6.34788 86.173 5.84528 86.5837 5.37476L86.2071 5.04594C86.6549 4.53299 87.1095 4.05629 87.5705 3.61717L87.9153 3.97922C88.3949 3.52241 88.8798 3.10895 89.3695 2.73984L89.0685 2.34056C89.6103 1.93217 90.1597 1.57475 90.7159 1.27025L90.956 1.70885C91.5253 1.39722 92.0995 1.14491 92.6777 0.953048L92.5202 0.478484Z" stroke="#373844" stroke-dasharray="2 2"></path> </svg> 