<?xml version="1.0" encoding="UTF-8"?> <svg xmlns="http://www.w3.org/2000/svg" width="174" height="216" viewBox="0 0 174 216" fill="none"> <path d="M82.2988 149.873L81.4698 147.719C77.6776 137.7 75.5557 129.385 75.104 122.773C74.7076 116.14 75.5309 110.369 77.5739 105.461C79.5956 100.497 82.4799 95.5506 86.2269 90.6207C88.7886 87.2251 90.9168 83.7743 92.6116 80.2683C94.3404 76.6858 95.3829 73.0504 95.7392 69.362C96.0742 65.6183 95.4977 61.8132 94.0098 57.9466C92.3305 53.5829 89.8525 50.1924 86.5759 47.7752C83.2992 45.358 79.5809 43.9351 75.4207 43.5067C71.3158 43.0571 67.1368 43.6506 62.8836 45.2874C58.9618 46.7966 55.5628 49.0876 52.6866 52.1604C49.8444 55.1566 47.9222 58.8135 46.9202 63.131C45.9522 67.3719 46.3291 72.1417 48.051 77.4402L18.5547 88.7912C14.7921 78.19 13.9532 68.4295 16.0379 59.5099C18.1779 50.569 22.5447 42.8006 29.1383 36.2044C35.7872 29.5871 43.9449 24.4184 53.6113 20.6985C64.1615 16.6385 74.1534 14.9178 83.5869 15.5365C93.0756 16.1339 101.375 18.9963 108.485 24.1239C115.629 29.175 120.997 36.368 124.59 45.703C127.013 52 128.159 58.0274 128.028 63.7852C127.953 69.5217 126.809 75.0353 124.596 80.3261C122.383 85.6169 119.32 90.7591 115.408 95.7527C111.996 100.236 109.428 104.522 107.704 108.61C106.035 112.677 105.286 116.992 105.456 121.556C105.661 126.043 106.863 131.225 109.061 137.101L109.89 139.256L82.2988 149.873ZM116.612 196.027C111.641 197.94 106.679 197.82 101.729 195.666C96.7778 193.513 93.3246 189.895 91.369 184.814C89.4559 179.842 89.6143 174.898 91.8443 169.981C94.0743 165.065 97.6749 161.65 102.646 159.736C107.562 157.845 112.496 157.975 117.447 160.129C122.453 162.261 125.912 165.813 127.825 170.784C129.122 174.154 129.445 177.549 128.796 180.97C128.202 184.369 126.842 187.429 124.718 190.149C122.628 192.792 119.926 194.752 116.612 196.027Z" fill="#FFEABE" fill-opacity="0.5"></path> </svg> 