<?xml version="1.0" encoding="UTF-8"?> <svg xmlns="http://www.w3.org/2000/svg" width="548" height="757" viewBox="0 0 548 757" fill="none"> <g clip-path="url(#clip0_550_120)"> <path d="M514 12.5234H34C22.9543 12.5234 14 21.4595 14 32.4826V737.042C14 748.065 22.9543 757.001 34 757.001H514C525.046 757.001 534 748.065 534 737.042V32.4826C534 21.4595 525.046 12.5234 514 12.5234Z" fill="#9C201F"></path> </g> <g clip-path="url(#clip1_550_120)"> <path d="M528 0H20C8.9543 0 0 8.93772 0 19.963V720.663C0 731.688 8.9543 740.626 20 740.626H528C539.046 740.626 548 731.688 548 720.663V19.963C548 8.93772 539.046 0 528 0Z" fill="url(#paint0_linear_550_120)"></path> </g> <defs> <linearGradient id="paint0_linear_550_120" x1="274" y1="0" x2="274" y2="740.626" gradientUnits="userSpaceOnUse"> <stop stop-color="#9C201F"></stop> <stop offset="1" stop-color="#C54F4D"></stop> </linearGradient> <clipPath id="clip0_550_120"> <rect width="520" height="744.478" fill="white" transform="translate(14 12.5234)"></rect> </clipPath> <clipPath id="clip1_550_120"> <rect width="548" height="740.626" fill="white"></rect> </clipPath> </defs> </svg> 