<?xml version="1.0" encoding="UTF-8"?> <svg xmlns="http://www.w3.org/2000/svg" width="149" height="51" viewBox="0 0 149 51" fill="none"> <path d="M14.9923 1.0154C9.16609 1.0154 26.6448 0.980752 32.4709 1.0154C54.3167 1.14531 76.3043 3.43959 98.1293 4.58719C114.029 5.42321 129.645 3.05642 145.515 3.05642C154.782 3.05642 135.289 5.34137 133.37 5.55101C110.661 8.03248 87.9026 10.7957 65.1583 13.0348C46.2977 14.8915 27.2314 15.7005 8.52293 18.8744C3.82901 19.6707 -4.15052 21.3165 5.68549 21.4256C28.6784 21.6809 51.6415 23.1057 74.6353 23.41C86.5209 23.5673 98.3476 23.2119 110.217 22.6729C112.937 22.5494 118.641 21.4018 121.396 22.5029C124.359 23.6867 115.19 24.0293 112.033 24.4872C102.576 25.8586 93.0699 26.804 83.5449 27.5487C60.3077 29.3656 37.0572 29.7992 13.8573 32.0843C12.6904 32.1993 6.10334 31.7803 5.00451 32.8781C4.75085 33.1315 14.6263 34.4346 15.2193 34.4655C23.964 34.9219 32.7491 33.8683 41.494 33.7285C58.6878 33.4537 75.7917 33.1503 92.9652 32.141C110.03 31.1382 127.19 29.0567 144.266 28.5692C151.7 28.3571 129.996 32.7821 122.985 35.2593C105.977 41.2687 88.4378 44.9271 71.1736 50" stroke="#373844" stroke-linecap="round"></path> </svg> 