<?xml version="1.0" encoding="UTF-8"?> <svg xmlns="http://www.w3.org/2000/svg" width="326" height="352" viewBox="0 0 326 352" fill="none"> <path d="M184.467 0.360683C172.604 1.61783 158.979 9.41211 150.638 19.7925C138.209 35.2015 134.354 56.3215 140.103 77.2978C140.27 77.9084 139.339 77.9444 123.887 77.9444C103.615 77.9803 96.1051 78.3035 92.8817 79.417C83.5437 82.5419 75.5349 91.6293 73.109 101.938C72.5441 104.273 72.1453 118.999 72.1121 136.384C72.1121 144.932 72.0124 151.936 71.8794 151.936C71.7133 151.936 70.6499 151.613 69.4535 151.218C59.2515 147.842 46.7233 148.201 36.1889 152.152C18.7092 158.725 4.58586 175.93 0.963638 195.11C-0.398849 202.437 -0.232692 214.147 1.39565 221.259C3.28984 229.664 7.34407 238.176 12.8605 245.396C20.6699 255.597 32.7329 262.996 45.1946 265.259C49.3153 266.013 57.5567 266.049 62.1094 265.295C65.3661 264.756 70.2843 263.606 71.4807 263.104C72.0124 262.888 72.0456 265.259 72.2117 293.347C72.3447 313.246 72.5108 324.56 72.7767 325.961C73.9065 332.749 77.0635 339.215 81.2839 343.345C83.8427 345.895 85.4046 347.009 89.7912 349.415L93.5463 351.463H128.107C161.87 351.463 162.701 351.463 163.997 350.744C167.287 348.984 169.48 345.285 169.746 341.046C169.945 337.562 169.58 336.521 166.223 331.205C160.84 322.62 159.344 317.843 159.378 309.079C159.411 304.41 159.511 303.188 160.275 300.099C161.97 293.311 164.794 288.103 169.281 283.469C173.368 279.303 177.655 276.681 183.138 275.064C185.531 274.346 186.727 274.238 191.413 274.238C198.092 274.238 200.684 274.885 206.201 277.83C215.339 282.751 221.221 291.156 223.381 302.434C223.913 305.164 224.013 306.744 223.88 310.336C223.614 317.879 221.72 323.446 216.934 331.025C214.077 335.587 213.279 337.742 213.312 341.046C213.345 344.962 215.04 347.979 218.762 350.673L220.49 351.93L262.694 351.714L304.898 351.463L308.221 349.595C314.967 345.788 320.417 339.861 323.607 332.821L325.302 329.122L325.369 284.978C325.435 238.535 325.435 238.643 323.94 236.057C322.311 233.184 318.423 230.957 315.034 230.957C312.408 230.957 310.647 231.819 305.596 235.446C298.717 240.403 294.696 241.912 287.451 242.343C271.8 243.205 258.773 232.753 254.486 215.943C253.456 211.884 253.456 202.222 254.486 198.091C257.377 186.597 266.815 176.576 277.681 173.487C287.751 170.65 296.557 172.589 306.393 179.881C310.614 183.006 312.774 184.047 314.901 184.011C318.556 183.975 322.045 181.82 324.338 178.157L325.701 175.966L325.468 138.539L325.236 101.112L323.408 97.1607C320.616 91.1264 318.323 87.8219 314.701 84.697C311.511 81.9313 306.427 79.4889 302.04 78.6268C300.578 78.3395 291.173 78.124 272.165 77.9444C256.912 77.8366 244.151 77.5852 243.852 77.4415C243.121 77.0823 243.121 76.7591 243.752 74.4962C245.414 68.5337 245.945 54.9207 244.782 47.2701C242.656 33.1182 233.517 18.4276 221.321 9.51987C217.732 6.89783 211.019 3.34191 207.53 2.1566C206.267 1.7615 203.808 1.18681 202.147 0.899459C198.159 0.252928 188.455 -0.034419 184.467 0.360683ZM195.733 23.528C201.017 24.3901 205.702 26.2937 209.69 29.2031C211.883 30.8195 216.502 35.7762 218.197 38.3264C220.158 41.2717 222.085 45.7974 223.016 49.7484C223.68 52.4782 223.813 53.8431 223.813 58.5484C223.78 67.4562 222.551 71.2276 216.735 80.746C214.409 84.5533 213.312 86.6007 213.279 87.3909C213.179 89.9052 213.445 92.2399 214.11 94.1076C215.007 96.6938 217.931 99.9264 220.025 100.537C221.122 100.896 229.729 101.076 253.389 101.327C290.808 101.686 299.415 101.974 300.977 102.872C303.835 104.452 304.067 106.104 304.3 126.65C304.466 142.633 304.3 150.571 303.768 151.505C303.602 151.793 302.804 151.649 300.977 151.038C296.989 149.673 292.802 149.063 287.152 149.063C275.156 149.063 265.02 152.188 256.015 158.689C245.879 166.016 238.336 176.756 234.481 189.327C230.726 201.504 230.792 213.177 234.614 225.677C239.299 240.906 249.568 253.513 262.927 260.41C271.633 264.899 281.603 266.875 290.11 265.833C293.068 265.438 301.94 263.678 303.835 263.068C304.366 262.888 304.4 264.181 304.4 286.882C304.366 319.567 304.067 324.308 301.907 326.499C300.478 327.972 298.185 328.331 287.618 328.726C278.645 329.05 243.353 328.87 242.988 328.475C242.921 328.403 243.254 326.931 243.719 325.171C244.982 320.681 245.347 315.76 245.148 305.846C244.982 296.436 244.882 295.717 242.689 289.504C236.74 272.586 225.342 260.194 210.189 254.124C198.425 249.383 186.362 249.167 174.531 253.442C165.426 256.746 159.544 260.913 151.967 269.533C142.662 280.093 138.309 291.12 137.644 305.703C137.312 312.563 137.644 316.873 139.007 323.267L140.137 328.475L137.943 328.762C135.418 329.086 107.736 328.762 102.02 328.331C96.3045 327.9 95.4073 327.182 94.6762 322.297C94.4436 320.717 94.2109 306.098 94.0448 280.524C93.9119 256.674 93.6792 240.69 93.4798 239.936C92.5161 236.308 90.0902 232.896 87.6643 231.855C85.7702 231.028 82.1479 230.777 80.2537 231.28C79.3233 231.531 76.9306 232.968 74.3053 234.8C65.5987 241.014 62.3088 242.199 53.8348 242.199C47.8531 242.163 45.2279 241.66 41.4727 239.828C34.195 236.237 28.1802 230.059 24.7905 222.803C22.7302 218.313 21.8662 214.578 21.7 209.046C21.5671 205.059 21.6668 203.587 22.2317 200.713C23.6275 193.566 26.0866 188.429 30.5396 183.437C36.5877 176.648 42.9017 173.272 51.1098 172.446C59.0521 171.619 66.1304 173.882 74.1392 179.737C79.4562 183.688 80.1873 184.047 82.7461 184.011C85.604 184.011 88.3954 182.682 90.489 180.384C92.5494 178.085 93.3137 176.037 93.7125 171.799C93.8786 169.859 94.0448 154.307 94.0448 137.21V106.176L96.1051 103.913L98.1655 101.65H122.458C135.783 101.615 150.173 101.471 154.393 101.327C163.1 100.968 163.498 100.86 166.589 97.7713C168.716 95.6162 169.48 93.7844 169.713 90.0489C169.945 86.3493 169.746 85.8464 165.991 80.0635C160.74 71.9819 159.976 69.5754 159.644 60.3444C159.344 51.9395 159.743 49.0301 161.77 44.3607C166.323 34.124 171.74 28.6644 180.945 25.1803C186.461 23.0611 190.349 22.6301 195.733 23.528Z" fill="url(#paint0_linear_283_195)"></path> <defs> <linearGradient id="paint0_linear_283_195" x1="162.874" y1="351.93" x2="162.874" y2="0.180359" gradientUnits="userSpaceOnUse"> <stop stop-color="#FFC832"></stop> <stop offset="1" stop-color="#FFC832" stop-opacity="0.88"></stop> </linearGradient> </defs> </svg> 