<?xml version="1.0" encoding="UTF-8"?> <svg xmlns="http://www.w3.org/2000/svg" width="1160" height="395" viewBox="0 0 1160 395" fill="none"> <path d="M1096 18.209H64C41.9086 18.209 24 30.7514 24 46.2232V366.986C24 382.457 41.9086 395 64 395H1096C1118.09 395 1136 382.457 1136 366.986V46.2232C1136 30.7514 1118.09 18.209 1096 18.209Z" fill="#C79223"></path> <path d="M1120 0.701172H40C17.9086 0.701172 0 13.2435 0 28.7154V349.478C0 364.95 17.9086 377.492 40 377.492H1120C1142.09 377.492 1160 364.95 1160 349.478V28.7154C1160 13.2435 1142.09 0.701172 1120 0.701172Z" fill="#FFD374"></path> <mask id="mask0_540_41" style="mask-type:alpha" maskUnits="userSpaceOnUse" x="0" y="0" width="1160" height="377"> <path d="M1120 0H40C17.9086 0 0 12.5424 0 28.0142V348.777C0 364.248 17.9086 376.791 40 376.791H1120C1142.09 376.791 1160 364.248 1160 348.777V28.0142C1160 12.5424 1142.09 0 1120 0Z" fill="#FFD884"></path> </mask> <g mask="url(#mask0_540_41)"> <g style="mix-blend-mode:overlay" filter="url(#filter0_f_540_41)"> <path d="M765.5 475.542C939.746 475.542 1081 383.983 1081 271.039C1081 158.095 939.746 66.5352 765.5 66.5352C591.254 66.5352 450 158.095 450 271.039C450 383.983 591.254 475.542 765.5 475.542Z" fill="white"></path> </g> </g> <defs> <filter id="filter0_f_540_41" x="-150" y="-533.465" width="1831" height="1609.01" filterUnits="userSpaceOnUse" color-interpolation-filters="sRGB"> <feFlood flood-opacity="0" result="BackgroundImageFix"></feFlood> <feBlend mode="normal" in="SourceGraphic" in2="BackgroundImageFix" result="shape"></feBlend> <feGaussianBlur stdDeviation="300" result="effect1_foregroundBlur_540_41"></feGaussianBlur> </filter> </defs> </svg> 