<?xml version="1.0" encoding="UTF-8"?> <svg xmlns="http://www.w3.org/2000/svg" width="430" height="409" viewBox="0 0 430 409" fill="none"> <path d="M397 32H33C21.9543 32 13 38.4178 13 46.3346V394.665C13 402.582 21.9543 409 33 409H397C408.046 409 417 402.582 417 394.665V46.3346C417 38.4178 408.046 32 397 32Z" fill="#67100F"></path> <path d="M409.5 1H19.5C8.73045 1 0 7.24719 0 14.9535V387.047C0 394.753 8.73045 401 19.5 401H409.5C420.27 401 429 394.753 429 387.047V14.9535C429 7.24719 420.27 1 409.5 1Z" fill="url(#paint0_linear_543_65)" stroke="#C54F4D"></path> <defs> <linearGradient id="paint0_linear_543_65" x1="214.5" y1="0.642218" x2="214.5" y2="401.358" gradientUnits="userSpaceOnUse"> <stop stop-color="#9C201F"></stop> <stop offset="0.973958" stop-color="#7D190F"></stop> </linearGradient> </defs> </svg> 