<?xml version="1.0" encoding="UTF-8"?> <svg xmlns="http://www.w3.org/2000/svg" width="63" height="62" viewBox="0 0 63 62" fill="none"> <mask id="path-1-inside-1_69_134" fill="white"> <path fill-rule="evenodd" clip-rule="evenodd" d="M31.916 0.623047C31.9159 17.7901 17.9992 31.7068 0.832031 31.7068V31.7069C0.832062 31.7069 0.832094 31.7069 0.832125 31.7069C17.5258 31.7069 31.1459 44.8666 31.8845 61.378H31.9476C32.6862 44.8666 46.3063 31.7069 62.9999 31.7069C45.8328 31.7068 31.9161 17.7902 31.9161 0.623047H31.916Z"></path> </mask> <path d="M0.832031 31.7068V30.7068H-0.167969V31.7068H0.832031ZM31.916 0.623047V-0.376953H30.916L30.916 0.623041L31.916 0.623047ZM0.832031 31.7069H-0.167969V32.7069H0.832031V31.7069ZM31.8845 61.378L30.8855 61.4227L30.9283 62.378H31.8845V61.378ZM31.9476 61.378V62.378H32.9039L32.9466 61.4227L31.9476 61.378ZM31.9161 0.623047L32.9161 0.623043L32.9161 -0.376953H31.9161V0.623047ZM0.832031 32.7068C18.5514 32.7068 32.9159 18.3424 32.916 0.623053L30.916 0.623041C30.9159 17.2379 17.4469 30.7068 0.832031 30.7068V32.7068ZM1.83203 31.7069V31.7068H-0.167969V31.7069H1.83203ZM0.832125 30.7069C0.832125 30.7069 0.832125 30.7069 0.832125 30.7069C0.832124 30.7069 0.832124 30.7069 0.832124 30.7069C0.832124 30.7069 0.832124 30.7069 0.832124 30.7069C0.832124 30.7069 0.832124 30.7069 0.832124 30.7069C0.832124 30.7069 0.832124 30.7069 0.832124 30.7069C0.832124 30.7069 0.832124 30.7069 0.832124 30.7069C0.832124 30.7069 0.832123 30.7069 0.832123 30.7069C0.832123 30.7069 0.832123 30.7069 0.832123 30.7069C0.832123 30.7069 0.832123 30.7069 0.832123 30.7069C0.832123 30.7069 0.832123 30.7069 0.832123 30.7069C0.832123 30.7069 0.832123 30.7069 0.832123 30.7069C0.832123 30.7069 0.832123 30.7069 0.832123 30.7069C0.832122 30.7069 0.832122 30.7069 0.832122 30.7069C0.832122 30.7069 0.832122 30.7069 0.832122 30.7069C0.832122 30.7069 0.832122 30.7069 0.832122 30.7069C0.832122 30.7069 0.832122 30.7069 0.832122 30.7069C0.832122 30.7069 0.832122 30.7069 0.832122 30.7069C0.832122 30.7069 0.832121 30.7069 0.832121 30.7069C0.832121 30.7069 0.832121 30.7069 0.832121 30.7069C0.832121 30.7069 0.832121 30.7069 0.832121 30.7069C0.832121 30.7069 0.832121 30.7069 0.832121 30.7069C0.832121 30.7069 0.832121 30.7069 0.832121 30.7069C0.832121 30.7069 0.832121 30.7069 0.832121 30.7069C0.83212 30.7069 0.83212 30.7069 0.83212 30.7069C0.83212 30.7069 0.83212 30.7069 0.83212 30.7069C0.83212 30.7069 0.83212 30.7069 0.83212 30.7069C0.83212 30.7069 0.83212 30.7069 0.83212 30.7069C0.83212 30.7069 0.83212 30.7069 0.83212 30.7069C0.83212 30.7069 0.832119 30.7069 0.832119 30.7069C0.832119 30.7069 0.832119 30.7069 0.832119 30.7069C0.832119 30.7069 0.832119 30.7069 0.832119 30.7069C0.832119 30.7069 0.832119 30.7069 0.832119 30.7069C0.832119 30.7069 0.832119 30.7069 0.832119 30.7069C0.832119 30.7069 0.832119 30.7069 0.832119 30.7069C0.832118 30.7069 0.832118 30.7069 0.832118 30.7069C0.832118 30.7069 0.832118 30.7069 0.832118 30.7069C0.832118 30.7069 0.832118 30.7069 0.832118 30.7069C0.832118 30.7069 0.832118 30.7069 0.832118 30.7069C0.832118 30.7069 0.832118 30.7069 0.832118 30.7069C0.832118 30.7069 0.832117 30.7069 0.832117 30.7069C0.832117 30.7069 0.832117 30.7069 0.832117 30.7069C0.832117 30.7069 0.832117 30.7069 0.832117 30.7069C0.832117 30.7069 0.832117 30.7069 0.832117 30.7069C0.832117 30.7069 0.832117 30.7069 0.832117 30.7069C0.832117 30.7069 0.832117 30.7069 0.832116 30.7069C0.832116 30.7069 0.832116 30.7069 0.832116 30.7069C0.832116 30.7069 0.832116 30.7069 0.832116 30.7069C0.832116 30.7069 0.832116 30.7069 0.832116 30.7069C0.832116 30.7069 0.832116 30.7069 0.832116 30.7069C0.832116 30.7069 0.832116 30.7069 0.832116 30.7069C0.832116 30.7069 0.832115 30.7069 0.832115 30.7069C0.832115 30.7069 0.832115 30.7069 0.832115 30.7069C0.832115 30.7069 0.832115 30.7069 0.832115 30.7069C0.832115 30.7069 0.832115 30.7069 0.832115 30.7069C0.832115 30.7069 0.832115 30.7069 0.832115 30.7069C0.832115 30.7069 0.832115 30.7069 0.832114 30.7069C0.832114 30.7069 0.832114 30.7069 0.832114 30.7069C0.832114 30.7069 0.832114 30.7069 0.832114 30.7069C0.832114 30.7069 0.832114 30.7069 0.832114 30.7069C0.832114 30.7069 0.832114 30.7069 0.832114 30.7069C0.832114 30.7069 0.832114 30.7069 0.832114 30.7069C0.832114 30.7069 0.832113 30.7069 0.832113 30.7069C0.832113 30.7069 0.832113 30.7069 0.832113 30.7069C0.832113 30.7069 0.832113 30.7069 0.832113 30.7069C0.832113 30.7069 0.832113 30.7069 0.832113 30.7069C0.832113 30.7069 0.832113 30.7069 0.832113 30.7069C0.832113 30.7069 0.832113 30.7069 0.832112 30.7069C0.832112 30.7069 0.832112 30.7069 0.832112 30.7069C0.832112 30.7069 0.832112 30.7069 0.832112 30.7069C0.832112 30.7069 0.832112 30.7069 0.832112 30.7069C0.832112 30.7069 0.832112 30.7069 0.832112 30.7069C0.832112 30.7069 0.832112 30.7069 0.832112 30.7069C0.832112 30.7069 0.832111 30.7069 0.832111 30.7069C0.832111 30.7069 0.832111 30.7069 0.832111 30.7069C0.832111 30.7069 0.832111 30.7069 0.832111 30.7069C0.832111 30.7069 0.832111 30.7069 0.832111 30.7069C0.832111 30.7069 0.832111 30.7069 0.832111 30.7069C0.832111 30.7069 0.832111 30.7069 0.83211 30.7069C0.83211 30.7069 0.83211 30.7069 0.83211 30.7069C0.83211 30.7069 0.83211 30.7069 0.83211 30.7069C0.83211 30.7069 0.83211 30.7069 0.83211 30.7069C0.83211 30.7069 0.83211 30.7069 0.83211 30.7069C0.83211 30.7069 0.83211 30.7069 0.83211 30.7069C0.832109 30.7069 0.832109 30.7069 0.832109 30.7069C0.832109 30.7069 0.832109 30.7069 0.832109 30.7069C0.832109 30.7069 0.832109 30.7069 0.832109 30.7069C0.832109 30.7069 0.832109 30.7069 0.832109 30.7069C0.832109 30.7069 0.832109 30.7069 0.832109 30.7069C0.832109 30.7069 0.832109 30.7069 0.832108 30.7069C0.832108 30.7069 0.832108 30.7069 0.832108 30.7069C0.832108 30.7069 0.832108 30.7069 0.832108 30.7069C0.832108 30.7069 0.832108 30.7069 0.832108 30.7069C0.832108 30.7069 0.832108 30.7069 0.832108 30.7069C0.832108 30.7069 0.832108 30.7069 0.832108 30.7069C0.832107 30.7069 0.832107 30.7069 0.832107 30.7069C0.832107 30.7069 0.832107 30.7069 0.832107 30.7069C0.832107 30.7069 0.832107 30.7069 0.832107 30.7069C0.832107 30.7069 0.832107 30.7069 0.832107 30.7069C0.832107 30.7069 0.832107 30.7069 0.832107 30.7069C0.832107 30.7069 0.832107 30.7069 0.832106 30.7069C0.832106 30.7069 0.832106 30.7069 0.832106 30.7069C0.832106 30.7069 0.832106 30.7069 0.832106 30.7069C0.832106 30.7069 0.832106 30.7069 0.832106 30.7069C0.832106 30.7069 0.832106 30.7069 0.832106 30.7069C0.832106 30.7069 0.832106 30.7069 0.832106 30.7069C0.832105 30.7069 0.832105 30.7069 0.832105 30.7069C0.832105 30.7069 0.832105 30.7069 0.832105 30.7069C0.832105 30.7069 0.832105 30.7069 0.832105 30.7069C0.832105 30.7069 0.832105 30.7069 0.832105 30.7069C0.832105 30.7069 0.832105 30.7069 0.832105 30.7069C0.832105 30.7069 0.832105 30.7069 0.832104 30.7069C0.832104 30.7069 0.832104 30.7069 0.832104 30.7069C0.832104 30.7069 0.832104 30.7069 0.832104 30.7069C0.832104 30.7069 0.832104 30.7069 0.832104 30.7069C0.832104 30.7069 0.832104 30.7069 0.832104 30.7069C0.832104 30.7069 0.832104 30.7069 0.832104 30.7069C0.832103 30.7069 0.832103 30.7069 0.832103 30.7069C0.832103 30.7069 0.832103 30.7069 0.832103 30.7069C0.832103 30.7069 0.832103 30.7069 0.832103 30.7069C0.832103 30.7069 0.832103 30.7069 0.832103 30.7069C0.832103 30.7069 0.832103 30.7069 0.832103 30.7069C0.832103 30.7069 0.832103 30.7069 0.832102 30.7069C0.832102 30.7069 0.832102 30.7069 0.832102 30.7069C0.832102 30.7069 0.832102 30.7069 0.832102 30.7069C0.832102 30.7069 0.832102 30.7069 0.832102 30.7069C0.832102 30.7069 0.832102 30.7069 0.832102 30.7069C0.832102 30.7069 0.832102 30.7069 0.832102 30.7069C0.832101 30.7069 0.832101 30.7069 0.832101 30.7069C0.832101 30.7069 0.832101 30.7069 0.832101 30.7069C0.832101 30.7069 0.832101 30.7069 0.832101 30.7069C0.832101 30.7069 0.832101 30.7069 0.832101 30.7069C0.832101 30.7069 0.832101 30.7069 0.832101 30.7069C0.832101 30.7069 0.8321 30.7069 0.8321 30.7069C0.8321 30.7069 0.8321 30.7069 0.8321 30.7069C0.8321 30.7069 0.8321 30.7069 0.8321 30.7069C0.8321 30.7069 0.8321 30.7069 0.8321 30.7069C0.8321 30.7069 0.8321 30.7069 0.8321 30.7069C0.8321 30.7069 0.8321 30.7069 0.8321 30.7069C0.832099 30.7069 0.832099 30.7069 0.832099 30.7069C0.832099 30.7069 0.832099 30.7069 0.832099 30.7069C0.832099 30.7069 0.832099 30.7069 0.832099 30.7069C0.832099 30.7069 0.832099 30.7069 0.832099 30.7069C0.832099 30.7069 0.832099 30.7069 0.832099 30.7069C0.832099 30.7069 0.832098 30.7069 0.832098 30.7069C0.832098 30.7069 0.832098 30.7069 0.832098 30.7069C0.832098 30.7069 0.832098 30.7069 0.832098 30.7069C0.832098 30.7069 0.832098 30.7069 0.832098 30.7069C0.832098 30.7069 0.832098 30.7069 0.832098 30.7069C0.832098 30.7069 0.832098 30.7069 0.832098 30.7069C0.832097 30.7069 0.832097 30.7069 0.832097 30.7069C0.832097 30.7069 0.832097 30.7069 0.832097 30.7069C0.832097 30.7069 0.832097 30.7069 0.832097 30.7069C0.832097 30.7069 0.832097 30.7069 0.832097 30.7069C0.832097 30.7069 0.832097 30.7069 0.832097 30.7069C0.832097 30.7069 0.832096 30.7069 0.832096 30.7069C0.832096 30.7069 0.832096 30.7069 0.832096 30.7069C0.832096 30.7069 0.832096 30.7069 0.832096 30.7069C0.832096 30.7069 0.832096 30.7069 0.832096 30.7069C0.832096 30.7069 0.832096 30.7069 0.832096 30.7069C0.832096 30.7069 0.832096 30.7069 0.832096 30.7069C0.832095 30.7069 0.832095 30.7069 0.832095 30.7069C0.832095 30.7069 0.832095 30.7069 0.832095 30.7069C0.832095 30.7069 0.832095 30.7069 0.832095 30.7069C0.832095 30.7069 0.832095 30.7069 0.832095 30.7069C0.832095 30.7069 0.832095 30.7069 0.832095 30.7069C0.832095 30.7069 0.832094 30.7069 0.832094 30.7069C0.832094 30.7069 0.832094 30.7069 0.832094 30.7069C0.832094 30.7069 0.832094 30.7069 0.832094 30.7069C0.832094 30.7069 0.832094 30.7069 0.832094 30.7069C0.832094 30.7069 0.832094 30.7069 0.832094 30.7069C0.832094 30.7069 0.832094 30.7069 0.832093 30.7069C0.832093 30.7069 0.832093 30.7069 0.832093 30.7069C0.832093 30.7069 0.832093 30.7069 0.832093 30.7069C0.832093 30.7069 0.832093 30.7069 0.832093 30.7069C0.832093 30.7069 0.832093 30.7069 0.832093 30.7069C0.832093 30.7069 0.832093 30.7069 0.832093 30.7069C0.832093 30.7069 0.832092 30.7069 0.832092 30.7069C0.832092 30.7069 0.832092 30.7069 0.832092 30.7069C0.832092 30.7069 0.832092 30.7069 0.832092 30.7069C0.832092 30.7069 0.832092 30.7069 0.832092 30.7069C0.832092 30.7069 0.832092 30.7069 0.832092 30.7069C0.832092 30.7069 0.832092 30.7069 0.832091 30.7069C0.832091 30.7069 0.832091 30.7069 0.832091 30.7069C0.832091 30.7069 0.832091 30.7069 0.832091 30.7069C0.832091 30.7069 0.832091 30.7069 0.832091 30.7069C0.832091 30.7069 0.832091 30.7069 0.832091 30.7069C0.832091 30.7069 0.832091 30.7069 0.832091 30.7069C0.832091 30.7069 0.83209 30.7069 0.83209 30.7069C0.83209 30.7069 0.83209 30.7069 0.83209 30.7069C0.83209 30.7069 0.83209 30.7069 0.83209 30.7069C0.83209 30.7069 0.83209 30.7069 0.83209 30.7069C0.83209 30.7069 0.83209 30.7069 0.83209 30.7069C0.83209 30.7069 0.83209 30.7069 0.832089 30.7069C0.832089 30.7069 0.832089 30.7069 0.832089 30.7069C0.832089 30.7069 0.832089 30.7069 0.832089 30.7069C0.832089 30.7069 0.832089 30.7069 0.832089 30.7069C0.832089 30.7069 0.832089 30.7069 0.832089 30.7069C0.832089 30.7069 0.832089 30.7069 0.832089 30.7069C0.832089 30.7069 0.832088 30.7069 0.832088 30.7069C0.832088 30.7069 0.832088 30.7069 0.832088 30.7069C0.832088 30.7069 0.832088 30.7069 0.832088 30.7069C0.832088 30.7069 0.832088 30.7069 0.832088 30.7069C0.832088 30.7069 0.832088 30.7069 0.832088 30.7069C0.832088 30.7069 0.832088 30.7069 0.832087 30.7069C0.832087 30.7069 0.832087 30.7069 0.832087 30.7069C0.832087 30.7069 0.832087 30.7069 0.832087 30.7069C0.832087 30.7069 0.832087 30.7069 0.832087 30.7069C0.832087 30.7069 0.832087 30.7069 0.832087 30.7069C0.832087 30.7069 0.832087 30.7069 0.832087 30.7069C0.832086 30.7069 0.832086 30.7069 0.832086 30.7069C0.832086 30.7069 0.832086 30.7069 0.832086 30.7069C0.832086 30.7069 0.832086 30.7069 0.832086 30.7069C0.832086 30.7069 0.832086 30.7069 0.832086 30.7069C0.832086 30.7069 0.832086 30.7069 0.832086 30.7069C0.832086 30.7069 0.832086 30.7069 0.832085 30.7069C0.832085 30.7069 0.832085 30.7069 0.832085 30.7069C0.832085 30.7069 0.832085 30.7069 0.832085 30.7069C0.832085 30.7069 0.832085 30.7069 0.832085 30.7069C0.832085 30.7069 0.832085 30.7069 0.832085 30.7069C0.832085 30.7069 0.832085 30.7069 0.832085 30.7069C0.832084 30.7069 0.832084 30.7069 0.832084 30.7069C0.832084 30.7069 0.832084 30.7069 0.832084 30.7069C0.832084 30.7069 0.832084 30.7069 0.832084 30.7069C0.832084 30.7069 0.832084 30.7069 0.832084 30.7069C0.832084 30.7069 0.832084 30.7069 0.832084 30.7069C0.832084 30.7069 0.832084 30.7069 0.832083 30.7069C0.832083 30.7069 0.832083 30.7069 0.832083 30.7069C0.832083 30.7069 0.832083 30.7069 0.832083 30.7069C0.832083 30.7069 0.832083 30.7069 0.832083 30.7069C0.832083 30.7069 0.832083 30.7069 0.832083 30.7069C0.832083 30.7069 0.832083 30.7069 0.832083 30.7069C0.832082 30.7069 0.832082 30.7069 0.832082 30.7069C0.832082 30.7069 0.832082 30.7069 0.832082 30.7069C0.832082 30.7069 0.832082 30.7069 0.832082 30.7069C0.832082 30.7069 0.832082 30.7069 0.832082 30.7069C0.832082 30.7069 0.832082 30.7069 0.832082 30.7069C0.832082 30.7069 0.832082 30.7069 0.832081 30.7069C0.832081 30.7069 0.832081 30.7069 0.832081 30.7069C0.832081 30.7069 0.832081 30.7069 0.832081 30.7069C0.832081 30.7069 0.832081 30.7069 0.832081 30.7069C0.832081 30.7069 0.832081 30.7069 0.832081 30.7069C0.832081 30.7069 0.832081 30.7069 0.832081 30.7069C0.83208 30.7069 0.83208 30.7069 0.83208 30.7069C0.83208 30.7069 0.83208 30.7069 0.83208 30.7069C0.83208 30.7069 0.83208 30.7069 0.83208 30.7069C0.83208 30.7069 0.83208 30.7069 0.83208 30.7069C0.83208 30.7069 0.83208 30.7069 0.83208 30.7069C0.83208 30.7069 0.83208 30.7069 0.832079 30.7069C0.832079 30.7069 0.832079 30.7069 0.832079 30.7069C0.832079 30.7069 0.832079 30.7069 0.832079 30.7069C0.832079 30.7069 0.832079 30.7069 0.832079 30.7069C0.832079 30.7069 0.832079 30.7069 0.832079 30.7069C0.832079 30.7069 0.832079 30.7069 0.832079 30.7069C0.832078 30.7069 0.832078 30.7069 0.832078 30.7069C0.832078 30.7069 0.832078 30.7069 0.832078 30.7069C0.832078 30.7069 0.832078 30.7069 0.832078 30.7069C0.832078 30.7069 0.832078 30.7069 0.832078 30.7069C0.832078 30.7069 0.832078 30.7069 0.832078 30.7069C0.832078 30.7069 0.832077 30.7069 0.832077 30.7069C0.832077 30.7069 0.832077 30.7069 0.832077 30.7069C0.832077 30.7069 0.832077 30.7069 0.832077 30.7069C0.832077 30.7069 0.832077 30.7069 0.832077 30.7069C0.832077 30.7069 0.832077 30.7069 0.832077 30.7069C0.832077 30.7069 0.832077 30.7069 0.832077 30.7069C0.832076 30.7069 0.832076 30.7069 0.832076 30.7069C0.832076 30.7069 0.832076 30.7069 0.832076 30.7069C0.832076 30.7069 0.832076 30.7069 0.832076 30.7069C0.832076 30.7069 0.832076 30.7069 0.832076 30.7069C0.832076 30.7069 0.832076 30.7069 0.832076 30.7069C0.832076 30.7069 0.832075 30.7069 0.832075 30.7069C0.832075 30.7069 0.832075 30.7069 0.832075 30.7069C0.832075 30.7069 0.832075 30.7069 0.832075 30.7069C0.832075 30.7069 0.832075 30.7069 0.832075 30.7069C0.832075 30.7069 0.832075 30.7069 0.832075 30.7069C0.832075 30.7069 0.832075 30.7069 0.832075 30.7069C0.832074 30.7069 0.832074 30.7069 0.832074 30.7069C0.832074 30.7069 0.832074 30.7069 0.832074 30.7069C0.832074 30.7069 0.832074 30.7069 0.832074 30.7069C0.832074 30.7069 0.832074 30.7069 0.832074 30.7069C0.832074 30.7069 0.832074 30.7069 0.832074 30.7069C0.832074 30.7069 0.832073 30.7069 0.832073 30.7069C0.832073 30.7069 0.832073 30.7069 0.832073 30.7069C0.832073 30.7069 0.832073 30.7069 0.832073 30.7069C0.832073 30.7069 0.832073 30.7069 0.832073 30.7069C0.832073 30.7069 0.832073 30.7069 0.832073 30.7069C0.832073 30.7069 0.832073 30.7069 0.832073 30.7069C0.832072 30.7069 0.832072 30.7069 0.832072 30.7069C0.832072 30.7069 0.832072 30.7069 0.832072 30.7069C0.832072 30.7069 0.832072 30.7069 0.832072 30.7069C0.832072 30.7069 0.832072 30.7069 0.832072 30.7069C0.832072 30.7069 0.832072 30.7069 0.832072 30.7069C0.832072 30.7069 0.832071 30.7069 0.832071 30.7069C0.832071 30.7069 0.832071 30.7069 0.832071 30.7069C0.832071 30.7069 0.832071 30.7069 0.832071 30.7069C0.832071 30.7069 0.832071 30.7069 0.832071 30.7069C0.832071 30.7069 0.832071 30.7069 0.832071 30.7069C0.832071 30.7069 0.832071 30.7069 0.83207 30.7069C0.83207 30.7069 0.83207 30.7069 0.83207 30.7069C0.83207 30.7069 0.83207 30.7069 0.83207 30.7069C0.83207 30.7069 0.83207 30.7069 0.83207 30.7069C0.83207 30.7069 0.83207 30.7069 0.83207 30.7069C0.83207 30.7069 0.83207 30.7069 0.83207 30.7069C0.83207 30.7069 0.832069 30.7069 0.832069 30.7069C0.832069 30.7069 0.832069 30.7069 0.832069 30.7069C0.832069 30.7069 0.832069 30.7069 0.832069 30.7069C0.832069 30.7069 0.832069 30.7069 0.832069 30.7069C0.832069 30.7069 0.832069 30.7069 0.832069 30.7069C0.832069 30.7069 0.832069 30.7069 0.832068 30.7069C0.832068 30.7069 0.832068 30.7069 0.832068 30.7069C0.832068 30.7069 0.832068 30.7069 0.832068 30.7069C0.832068 30.7069 0.832068 30.7069 0.832068 30.7069C0.832068 30.7069 0.832068 30.7069 0.832068 30.7069C0.832068 30.7069 0.832068 30.7069 0.832068 30.7069C0.832068 30.7069 0.832067 30.7069 0.832067 30.7069C0.832067 30.7069 0.832067 30.7069 0.832067 30.7069C0.832067 30.7069 0.832067 30.7069 0.832067 30.7069C0.832067 30.7069 0.832067 30.7069 0.832067 30.7069C0.832067 30.7069 0.832067 30.7069 0.832067 30.7069C0.832067 30.7069 0.832067 30.7069 0.832066 30.7069C0.832066 30.7069 0.832066 30.7069 0.832066 30.7069C0.832066 30.7069 0.832066 30.7069 0.832066 30.7069C0.832066 30.7069 0.832066 30.7069 0.832066 30.7069C0.832066 30.7069 0.832066 30.7069 0.832066 30.7069C0.832066 30.7069 0.832066 30.7069 0.832066 30.7069C0.832066 30.7069 0.832065 30.7069 0.832065 30.7069C0.832065 30.7069 0.832065 30.7069 0.832065 30.7069C0.832065 30.7069 0.832065 30.7069 0.832065 30.7069C0.832065 30.7069 0.832065 30.7069 0.832065 30.7069C0.832065 30.7069 0.832065 30.7069 0.832065 30.7069C0.832065 30.7069 0.832065 30.7069 0.832064 30.7069C0.832064 30.7069 0.832064 30.7069 0.832064 30.7069C0.832064 30.7069 0.832064 30.7069 0.832064 30.7069C0.832064 30.7069 0.832064 30.7069 0.832064 30.7069C0.832064 30.7069 0.832064 30.7069 0.832064 30.7069C0.832064 30.7069 0.832064 30.7069 0.832064 30.7069C0.832063 30.7069 0.832063 30.7069 0.832063 30.7069C0.832063 30.7069 0.832063 30.7069 0.832063 30.7069C0.832063 30.7069 0.832063 30.7069 0.832063 30.7069C0.832063 30.7069 0.832063 30.7069 0.832063 30.7069C0.832063 30.7069 0.832063 30.7069 0.832063 30.7069C0.832063 30.7069 0.832063 30.7069 0.832062 30.7069C0.832062 30.7069 0.832062 30.7069 0.832062 30.7069C0.832062 30.7069 0.832062 30.7069 0.832062 30.7069C0.832062 30.7069 0.832062 30.7069 0.832062 30.7069C0.832062 30.7069 0.832062 30.7069 0.832062 30.7069C0.832062 30.7069 0.832062 30.7069 0.832062 30.7069C0.832061 30.7069 0.832061 30.7069 0.832061 30.7069C0.832061 30.7069 0.832061 30.7069 0.832061 30.7069C0.832061 30.7069 0.832061 30.7069 0.832061 30.7069C0.832061 30.7069 0.832061 30.7069 0.832061 30.7069C0.832061 30.7069 0.832061 30.7069 0.832061 30.7069C0.832061 30.7069 0.832061 30.7069 0.83206 30.7069C0.83206 30.7069 0.83206 30.7069 0.83206 30.7069C0.83206 30.7069 0.83206 30.7069 0.83206 30.7069C0.83206 30.7069 0.83206 30.7069 0.83206 30.7069C0.83206 30.7069 0.83206 30.7069 0.83206 30.7069C0.83206 30.7069 0.83206 30.7069 0.83206 30.7069C0.832059 30.7069 0.832059 30.7069 0.832059 30.7069C0.832059 30.7069 0.832059 30.7069 0.832059 30.7069C0.832059 30.7069 0.832059 30.7069 0.832059 30.7069C0.832059 30.7069 0.832059 30.7069 0.832059 30.7069C0.832059 30.7069 0.832059 30.7069 0.832059 30.7069C0.832059 30.7069 0.832059 30.7069 0.832058 30.7069C0.832058 30.7069 0.832058 30.7069 0.832058 30.7069C0.832058 30.7069 0.832058 30.7069 0.832058 30.7069C0.832058 30.7069 0.832058 30.7069 0.832058 30.7069C0.832058 30.7069 0.832058 30.7069 0.832058 30.7069C0.832058 30.7069 0.832058 30.7069 0.832058 30.7069C0.832057 30.7069 0.832057 30.7069 0.832057 30.7069C0.832057 30.7069 0.832057 30.7069 0.832057 30.7069C0.832057 30.7069 0.832057 30.7069 0.832057 30.7069C0.832057 30.7069 0.832057 30.7069 0.832057 30.7069C0.832057 30.7069 0.832057 30.7069 0.832057 30.7069C0.832057 30.7069 0.832057 30.7069 0.832056 30.7069C0.832056 30.7069 0.832056 30.7069 0.832056 30.7069C0.832056 30.7069 0.832056 30.7069 0.832056 30.7069C0.832056 30.7069 0.832056 30.7069 0.832056 30.7069C0.832056 30.7069 0.832056 30.7069 0.832056 30.7069C0.832056 30.7069 0.832056 30.7069 0.832056 30.7069C0.832055 30.7069 0.832055 30.7069 0.832055 30.7069C0.832055 30.7069 0.832055 30.7069 0.832055 30.7069C0.832055 30.7069 0.832055 30.7069 0.832055 30.7069C0.832055 30.7069 0.832055 30.7069 0.832055 30.7069C0.832055 30.7069 0.832055 30.7069 0.832055 30.7069C0.832055 30.7069 0.832054 30.7069 0.832054 30.7069C0.832054 30.7069 0.832054 30.7069 0.832054 30.7069C0.832054 30.7069 0.832054 30.7069 0.832054 30.7069C0.832054 30.7069 0.832054 30.7069 0.832054 30.7069C0.832054 30.7069 0.832054 30.7069 0.832054 30.7069C0.832054 30.7069 0.832054 30.7069 0.832054 30.7069C0.832053 30.7069 0.832053 30.7069 0.832053 30.7069C0.832053 30.7069 0.832053 30.7069 0.832053 30.7069C0.832053 30.7069 0.832053 30.7069 0.832053 30.7069C0.832053 30.7069 0.832053 30.7069 0.832053 30.7069C0.832053 30.7069 0.832053 30.7069 0.832053 30.7069C0.832053 30.7069 0.832052 30.7069 0.832052 30.7069C0.832052 30.7069 0.832052 30.7069 0.832052 30.7069C0.832052 30.7069 0.832052 30.7069 0.832052 30.7069C0.832052 30.7069 0.832052 30.7069 0.832052 30.7069C0.832052 30.7069 0.832052 30.7069 0.832052 30.7069C0.832052 30.7069 0.832052 30.7069 0.832052 30.7069C0.832051 30.7069 0.832051 30.7069 0.832051 30.7069C0.832051 30.7069 0.832051 30.7069 0.832051 30.7069C0.832051 30.7069 0.832051 30.7069 0.832051 30.7069C0.832051 30.7069 0.832051 30.7069 0.832051 30.7069C0.832051 30.7069 0.832051 30.7069 0.832051 30.7069C0.832051 30.7069 0.83205 30.7069 0.83205 30.7069C0.83205 30.7069 0.83205 30.7069 0.83205 30.7069C0.83205 30.7069 0.83205 30.7069 0.83205 30.7069C0.83205 30.7069 0.83205 30.7069 0.83205 30.7069C0.83205 30.7069 0.83205 30.7069 0.83205 30.7069C0.83205 30.7069 0.83205 30.7069 0.83205 30.7069C0.832049 30.7069 0.832049 30.7069 0.832049 30.7069C0.832049 30.7069 0.832049 30.7069 0.832049 30.7069C0.832049 30.7069 0.832049 30.7069 0.832049 30.7069C0.832049 30.7069 0.832049 30.7069 0.832049 30.7069C0.832049 30.7069 0.832049 30.7069 0.832049 30.7069C0.832049 30.7069 0.832048 30.7069 0.832048 30.7069C0.832048 30.7069 0.832048 30.7069 0.832048 30.7069C0.832048 30.7069 0.832048 30.7069 0.832048 30.7069C0.832048 30.7069 0.832048 30.7069 0.832048 30.7069C0.832048 30.7069 0.832048 30.7069 0.832048 30.7069C0.832048 30.7069 0.832048 30.7069 0.832047 30.7069C0.832047 30.7069 0.832047 30.7069 0.832047 30.7069C0.832047 30.7069 0.832047 30.7069 0.832047 30.7069C0.832047 30.7069 0.832047 30.7069 0.832047 30.7069C0.832047 30.7069 0.832047 30.7069 0.832047 30.7069C0.832047 30.7069 0.832047 30.7069 0.832047 30.7069C0.832047 30.7069 0.832046 30.7069 0.832046 30.7069C0.832046 30.7069 0.832046 30.7069 0.832046 30.7069C0.832046 30.7069 0.832046 30.7069 0.832046 30.7069C0.832046 30.7069 0.832046 30.7069 0.832046 30.7069C0.832046 30.7069 0.832046 30.7069 0.832046 30.7069C0.832046 30.7069 0.832046 30.7069 0.832045 30.7069C0.832045 30.7069 0.832045 30.7069 0.832045 30.7069C0.832045 30.7069 0.832045 30.7069 0.832045 30.7069C0.832045 30.7069 0.832045 30.7069 0.832045 30.7069C0.832045 30.7069 0.832045 30.7069 0.832045 30.7069C0.832045 30.7069 0.832045 30.7069 0.832045 30.7069C0.832045 30.7069 0.832044 30.7069 0.832044 30.7069C0.832044 30.7069 0.832044 30.7069 0.832044 30.7069C0.832044 30.7069 0.832044 30.7069 0.832044 30.7069C0.832044 30.7069 0.832044 30.7069 0.832044 30.7069C0.832044 30.7069 0.832044 30.7069 0.832044 30.7069C0.832044 30.7069 0.832044 30.7069 0.832043 30.7069C0.832043 30.7069 0.832043 30.7069 0.832043 30.7069C0.832043 30.7069 0.832043 30.7069 0.832043 30.7069C0.832043 30.7069 0.832043 30.7069 0.832043 30.7069C0.832043 30.7069 0.832043 30.7069 0.832043 30.7069C0.832043 30.7069 0.832043 30.7069 0.832043 30.7069C0.832043 30.7069 0.832042 30.7069 0.832042 30.7069C0.832042 30.7069 0.832042 30.7069 0.832042 30.7069C0.832042 30.7069 0.832042 30.7069 0.832042 30.7069C0.832042 30.7069 0.832042 30.7069 0.832042 30.7069C0.832042 30.7069 0.832042 30.7069 0.832042 30.7069C0.832042 30.7069 0.832042 30.7069 0.832041 30.7069C0.832041 30.7069 0.832041 30.7069 0.832041 30.7069C0.832041 30.7069 0.832041 30.7069 0.832041 30.7069C0.832041 30.7069 0.832041 30.7069 0.832041 30.7069C0.832041 30.7069 0.832041 30.7069 0.832041 30.7069C0.832041 30.7069 0.832041 30.7069 0.832041 30.7069C0.83204 30.7069 0.83204 30.7069 0.83204 30.7069C0.83204 30.7069 0.83204 30.7069 0.83204 30.7069C0.83204 30.7069 0.83204 30.7069 0.83204 30.7069C0.83204 30.7069 0.83204 30.7069 0.83204 30.7069C0.83204 30.7069 0.83204 30.7069 0.83204 30.7069C0.83204 30.7069 0.83204 30.7069 0.832039 30.7069C0.832039 30.7069 0.832039 30.7069 0.832039 30.7069C0.832039 30.7069 0.832039 30.7069 0.832039 30.7069C0.832039 30.7069 0.832039 30.7069 0.832039 30.7069C0.832039 30.7069 0.832039 30.7069 0.832039 30.7069C0.832039 30.7069 0.832039 30.7069 0.832039 30.7069C0.832038 30.7069 0.832038 30.7069 0.832038 30.7069C0.832038 30.7069 0.832038 30.7069 0.832038 30.7069C0.832038 30.7069 0.832038 30.7069 0.832038 30.7069C0.832038 30.7069 0.832038 30.7069 0.832038 30.7069C0.832038 30.7069 0.832038 30.7069 0.832038 30.7069C0.832038 30.7069 0.832038 30.7069 0.832037 30.7069C0.832037 30.7069 0.832037 30.7069 0.832037 30.7069C0.832037 30.7069 0.832037 30.7069 0.832037 30.7069C0.832037 30.7069 0.832037 30.7069 0.832037 30.7069C0.832037 30.7069 0.832037 30.7069 0.832037 30.7069C0.832037 30.7069 0.832037 30.7069 0.832037 30.7069C0.832036 30.7069 0.832036 30.7069 0.832036 30.7069C0.832036 30.7069 0.832036 30.7069 0.832036 30.7069C0.832036 30.7069 0.832036 30.7069 0.832036 30.7069C0.832036 30.7069 0.832036 30.7069 0.832036 30.7069C0.832036 30.7069 0.832036 30.7069 0.832036 30.7069C0.832036 30.7069 0.832036 30.7069 0.832035 30.7069C0.832035 30.7069 0.832035 30.7069 0.832035 30.7069C0.832035 30.7069 0.832035 30.7069 0.832035 30.7069C0.832035 30.7069 0.832035 30.7069 0.832035 30.7069C0.832035 30.7069 0.832035 30.7069 0.832035 30.7069C0.832035 30.7069 0.832035 30.7069 0.832035 30.7069C0.832034 30.7069 0.832034 30.7069 0.832034 30.7069C0.832034 30.7069 0.832034 30.7069 0.832034 30.7069C0.832034 30.7069 0.832034 30.7069 0.832034 30.7069C0.832034 30.7069 0.832034 30.7069 0.832034 30.7069C0.832034 30.7069 0.832034 30.7069 0.832034 30.7069C0.832034 30.7069 0.832034 30.7069 0.832033 30.7069C0.832033 30.7069 0.832033 30.7069 0.832033 30.7069C0.832033 30.7069 0.832033 30.7069 0.832033 30.7069C0.832033 30.7069 0.832033 30.7069 0.832033 30.7069C0.832033 30.7069 0.832033 30.7069 0.832033 30.7069C0.832033 30.7069 0.832033 30.7069 0.832033 30.7069C0.832032 30.7069 0.832032 30.7069 0.832032 30.7069C0.832032 30.7069 0.832032 30.7069 0.832032 30.7069C0.832032 30.7069 0.832032 30.7069 0.832032 30.7069C0.832032 30.7069 0.832032 30.7069 0.832032 30.7069C0.832032 30.7069 0.832032 30.7069 0.832032 30.7069C0.832032 30.7069 0.832031 30.7069 0.832031 30.7069C0.832031 30.7069 0.832031 30.7069 0.832031 30.7069V32.7069C0.832031 32.7069 0.832031 32.7069 0.832031 32.7069C0.832031 32.7069 0.832032 32.7069 0.832032 32.7069C0.832032 32.7069 0.832032 32.7069 0.832032 32.7069C0.832032 32.7069 0.832032 32.7069 0.832032 32.7069C0.832032 32.7069 0.832032 32.7069 0.832032 32.7069C0.832032 32.7069 0.832032 32.7069 0.832032 32.7069C0.832032 32.7069 0.832032 32.7069 0.832033 32.7069C0.832033 32.7069 0.832033 32.7069 0.832033 32.7069C0.832033 32.7069 0.832033 32.7069 0.832033 32.7069C0.832033 32.7069 0.832033 32.7069 0.832033 32.7069C0.832033 32.7069 0.832033 32.7069 0.832033 32.7069C0.832033 32.7069 0.832033 32.7069 0.832033 32.7069C0.832034 32.7069 0.832034 32.7069 0.832034 32.7069C0.832034 32.7069 0.832034 32.7069 0.832034 32.7069C0.832034 32.7069 0.832034 32.7069 0.832034 32.7069C0.832034 32.7069 0.832034 32.7069 0.832034 32.7069C0.832034 32.7069 0.832034 32.7069 0.832034 32.7069C0.832034 32.7069 0.832034 32.7069 0.832035 32.7069C0.832035 32.7069 0.832035 32.7069 0.832035 32.7069C0.832035 32.7069 0.832035 32.7069 0.832035 32.7069C0.832035 32.7069 0.832035 32.7069 0.832035 32.7069C0.832035 32.7069 0.832035 32.7069 0.832035 32.7069C0.832035 32.7069 0.832035 32.7069 0.832035 32.7069C0.832036 32.7069 0.832036 32.7069 0.832036 32.7069C0.832036 32.7069 0.832036 32.7069 0.832036 32.7069C0.832036 32.7069 0.832036 32.7069 0.832036 32.7069C0.832036 32.7069 0.832036 32.7069 0.832036 32.7069C0.832036 32.7069 0.832036 32.7069 0.832036 32.7069C0.832036 32.7069 0.832036 32.7069 0.832037 32.7069C0.832037 32.7069 0.832037 32.7069 0.832037 32.7069C0.832037 32.7069 0.832037 32.7069 0.832037 32.7069C0.832037 32.7069 0.832037 32.7069 0.832037 32.7069C0.832037 32.7069 0.832037 32.7069 0.832037 32.7069C0.832037 32.7069 0.832037 32.7069 0.832037 32.7069C0.832038 32.7069 0.832038 32.7069 0.832038 32.7069C0.832038 32.7069 0.832038 32.7069 0.832038 32.7069C0.832038 32.7069 0.832038 32.7069 0.832038 32.7069C0.832038 32.7069 0.832038 32.7069 0.832038 32.7069C0.832038 32.7069 0.832038 32.7069 0.832038 32.7069C0.832038 32.7069 0.832038 32.7069 0.832039 32.7069C0.832039 32.7069 0.832039 32.7069 0.832039 32.7069C0.832039 32.7069 0.832039 32.7069 0.832039 32.7069C0.832039 32.7069 0.832039 32.7069 0.832039 32.7069C0.832039 32.7069 0.832039 32.7069 0.832039 32.7069C0.832039 32.7069 0.832039 32.7069 0.832039 32.7069C0.83204 32.7069 0.83204 32.7069 0.83204 32.7069C0.83204 32.7069 0.83204 32.7069 0.83204 32.7069C0.83204 32.7069 0.83204 32.7069 0.83204 32.7069C0.83204 32.7069 0.83204 32.7069 0.83204 32.7069C0.83204 32.7069 0.83204 32.7069 0.83204 32.7069C0.83204 32.7069 0.83204 32.7069 0.832041 32.7069C0.832041 32.7069 0.832041 32.7069 0.832041 32.7069C0.832041 32.7069 0.832041 32.7069 0.832041 32.7069C0.832041 32.7069 0.832041 32.7069 0.832041 32.7069C0.832041 32.7069 0.832041 32.7069 0.832041 32.7069C0.832041 32.7069 0.832041 32.7069 0.832041 32.7069C0.832042 32.7069 0.832042 32.7069 0.832042 32.7069C0.832042 32.7069 0.832042 32.7069 0.832042 32.7069C0.832042 32.7069 0.832042 32.7069 0.832042 32.7069C0.832042 32.7069 0.832042 32.7069 0.832042 32.7069C0.832042 32.7069 0.832042 32.7069 0.832042 32.7069C0.832042 32.7069 0.832043 32.7069 0.832043 32.7069C0.832043 32.7069 0.832043 32.7069 0.832043 32.7069C0.832043 32.7069 0.832043 32.7069 0.832043 32.7069C0.832043 32.7069 0.832043 32.7069 0.832043 32.7069C0.832043 32.7069 0.832043 32.7069 0.832043 32.7069C0.832043 32.7069 0.832043 32.7069 0.832043 32.7069C0.832044 32.7069 0.832044 32.7069 0.832044 32.7069C0.832044 32.7069 0.832044 32.7069 0.832044 32.7069C0.832044 32.7069 0.832044 32.7069 0.832044 32.7069C0.832044 32.7069 0.832044 32.7069 0.832044 32.7069C0.832044 32.7069 0.832044 32.7069 0.832044 32.7069C0.832044 32.7069 0.832045 32.7069 0.832045 32.7069C0.832045 32.7069 0.832045 32.7069 0.832045 32.7069C0.832045 32.7069 0.832045 32.7069 0.832045 32.7069C0.832045 32.7069 0.832045 32.7069 0.832045 32.7069C0.832045 32.7069 0.832045 32.7069 0.832045 32.7069C0.832045 32.7069 0.832045 32.7069 0.832045 32.7069C0.832046 32.7069 0.832046 32.7069 0.832046 32.7069C0.832046 32.7069 0.832046 32.7069 0.832046 32.7069C0.832046 32.7069 0.832046 32.7069 0.832046 32.7069C0.832046 32.7069 0.832046 32.7069 0.832046 32.7069C0.832046 32.7069 0.832046 32.7069 0.832046 32.7069C0.832046 32.7069 0.832047 32.7069 0.832047 32.7069C0.832047 32.7069 0.832047 32.7069 0.832047 32.7069C0.832047 32.7069 0.832047 32.7069 0.832047 32.7069C0.832047 32.7069 0.832047 32.7069 0.832047 32.7069C0.832047 32.7069 0.832047 32.7069 0.832047 32.7069C0.832047 32.7069 0.832047 32.7069 0.832047 32.7069C0.832048 32.7069 0.832048 32.7069 0.832048 32.7069C0.832048 32.7069 0.832048 32.7069 0.832048 32.7069C0.832048 32.7069 0.832048 32.7069 0.832048 32.7069C0.832048 32.7069 0.832048 32.7069 0.832048 32.7069C0.832048 32.7069 0.832048 32.7069 0.832048 32.7069C0.832048 32.7069 0.832049 32.7069 0.832049 32.7069C0.832049 32.7069 0.832049 32.7069 0.832049 32.7069C0.832049 32.7069 0.832049 32.7069 0.832049 32.7069C0.832049 32.7069 0.832049 32.7069 0.832049 32.7069C0.832049 32.7069 0.832049 32.7069 0.832049 32.7069C0.832049 32.7069 0.832049 32.7069 0.83205 32.7069C0.83205 32.7069 0.83205 32.7069 0.83205 32.7069C0.83205 32.7069 0.83205 32.7069 0.83205 32.7069C0.83205 32.7069 0.83205 32.7069 0.83205 32.7069C0.83205 32.7069 0.83205 32.7069 0.83205 32.7069C0.83205 32.7069 0.83205 32.7069 0.83205 32.7069C0.83205 32.7069 0.832051 32.7069 0.832051 32.7069C0.832051 32.7069 0.832051 32.7069 0.832051 32.7069C0.832051 32.7069 0.832051 32.7069 0.832051 32.7069C0.832051 32.7069 0.832051 32.7069 0.832051 32.7069C0.832051 32.7069 0.832051 32.7069 0.832051 32.7069C0.832051 32.7069 0.832051 32.7069 0.832052 32.7069C0.832052 32.7069 0.832052 32.7069 0.832052 32.7069C0.832052 32.7069 0.832052 32.7069 0.832052 32.7069C0.832052 32.7069 0.832052 32.7069 0.832052 32.7069C0.832052 32.7069 0.832052 32.7069 0.832052 32.7069C0.832052 32.7069 0.832052 32.7069 0.832052 32.7069C0.832052 32.7069 0.832053 32.7069 0.832053 32.7069C0.832053 32.7069 0.832053 32.7069 0.832053 32.7069C0.832053 32.7069 0.832053 32.7069 0.832053 32.7069C0.832053 32.7069 0.832053 32.7069 0.832053 32.7069C0.832053 32.7069 0.832053 32.7069 0.832053 32.7069C0.832053 32.7069 0.832053 32.7069 0.832054 32.7069C0.832054 32.7069 0.832054 32.7069 0.832054 32.7069C0.832054 32.7069 0.832054 32.7069 0.832054 32.7069C0.832054 32.7069 0.832054 32.7069 0.832054 32.7069C0.832054 32.7069 0.832054 32.7069 0.832054 32.7069C0.832054 32.7069 0.832054 32.7069 0.832054 32.7069C0.832054 32.7069 0.832055 32.7069 0.832055 32.7069C0.832055 32.7069 0.832055 32.7069 0.832055 32.7069C0.832055 32.7069 0.832055 32.7069 0.832055 32.7069C0.832055 32.7069 0.832055 32.7069 0.832055 32.7069C0.832055 32.7069 0.832055 32.7069 0.832055 32.7069C0.832055 32.7069 0.832055 32.7069 0.832056 32.7069C0.832056 32.7069 0.832056 32.7069 0.832056 32.7069C0.832056 32.7069 0.832056 32.7069 0.832056 32.7069C0.832056 32.7069 0.832056 32.7069 0.832056 32.7069C0.832056 32.7069 0.832056 32.7069 0.832056 32.7069C0.832056 32.7069 0.832056 32.7069 0.832056 32.7069C0.832057 32.7069 0.832057 32.7069 0.832057 32.7069C0.832057 32.7069 0.832057 32.7069 0.832057 32.7069C0.832057 32.7069 0.832057 32.7069 0.832057 32.7069C0.832057 32.7069 0.832057 32.7069 0.832057 32.7069C0.832057 32.7069 0.832057 32.7069 0.832057 32.7069C0.832057 32.7069 0.832057 32.7069 0.832058 32.7069C0.832058 32.7069 0.832058 32.7069 0.832058 32.7069C0.832058 32.7069 0.832058 32.7069 0.832058 32.7069C0.832058 32.7069 0.832058 32.7069 0.832058 32.7069C0.832058 32.7069 0.832058 32.7069 0.832058 32.7069C0.832058 32.7069 0.832058 32.7069 0.832058 32.7069C0.832059 32.7069 0.832059 32.7069 0.832059 32.7069C0.832059 32.7069 0.832059 32.7069 0.832059 32.7069C0.832059 32.7069 0.832059 32.7069 0.832059 32.7069C0.832059 32.7069 0.832059 32.7069 0.832059 32.7069C0.832059 32.7069 0.832059 32.7069 0.832059 32.7069C0.832059 32.7069 0.832059 32.7069 0.83206 32.7069C0.83206 32.7069 0.83206 32.7069 0.83206 32.7069C0.83206 32.7069 0.83206 32.7069 0.83206 32.7069C0.83206 32.7069 0.83206 32.7069 0.83206 32.7069C0.83206 32.7069 0.83206 32.7069 0.83206 32.7069C0.83206 32.7069 0.83206 32.7069 0.83206 32.7069C0.832061 32.7069 0.832061 32.7069 0.832061 32.7069C0.832061 32.7069 0.832061 32.7069 0.832061 32.7069C0.832061 32.7069 0.832061 32.7069 0.832061 32.7069C0.832061 32.7069 0.832061 32.7069 0.832061 32.7069C0.832061 32.7069 0.832061 32.7069 0.832061 32.7069C0.832061 32.7069 0.832061 32.7069 0.832062 32.7069C0.832062 32.7069 0.832062 32.7069 0.832062 32.7069C0.832062 32.7069 0.832062 32.7069 0.832062 32.7069C0.832062 32.7069 0.832062 32.7069 0.832062 32.7069C0.832062 32.7069 0.832062 32.7069 0.832062 32.7069C0.832062 32.7069 0.832062 32.7069 0.832062 32.7069C0.832063 32.7069 0.832063 32.7069 0.832063 32.7069C0.832063 32.7069 0.832063 32.7069 0.832063 32.7069C0.832063 32.7069 0.832063 32.7069 0.832063 32.7069C0.832063 32.7069 0.832063 32.7069 0.832063 32.7069C0.832063 32.7069 0.832063 32.7069 0.832063 32.7069C0.832063 32.7069 0.832063 32.7069 0.832064 32.7069C0.832064 32.7069 0.832064 32.7069 0.832064 32.7069C0.832064 32.7069 0.832064 32.7069 0.832064 32.7069C0.832064 32.7069 0.832064 32.7069 0.832064 32.7069C0.832064 32.7069 0.832064 32.7069 0.832064 32.7069C0.832064 32.7069 0.832064 32.7069 0.832064 32.7069C0.832065 32.7069 0.832065 32.7069 0.832065 32.7069C0.832065 32.7069 0.832065 32.7069 0.832065 32.7069C0.832065 32.7069 0.832065 32.7069 0.832065 32.7069C0.832065 32.7069 0.832065 32.7069 0.832065 32.7069C0.832065 32.7069 0.832065 32.7069 0.832065 32.7069C0.832065 32.7069 0.832066 32.7069 0.832066 32.7069C0.832066 32.7069 0.832066 32.7069 0.832066 32.7069C0.832066 32.7069 0.832066 32.7069 0.832066 32.7069C0.832066 32.7069 0.832066 32.7069 0.832066 32.7069C0.832066 32.7069 0.832066 32.7069 0.832066 32.7069C0.832066 32.7069 0.832066 32.7069 0.832066 32.7069C0.832067 32.7069 0.832067 32.7069 0.832067 32.7069C0.832067 32.7069 0.832067 32.7069 0.832067 32.7069C0.832067 32.7069 0.832067 32.7069 0.832067 32.7069C0.832067 32.7069 0.832067 32.7069 0.832067 32.7069C0.832067 32.7069 0.832067 32.7069 0.832067 32.7069C0.832067 32.7069 0.832068 32.7069 0.832068 32.7069C0.832068 32.7069 0.832068 32.7069 0.832068 32.7069C0.832068 32.7069 0.832068 32.7069 0.832068 32.7069C0.832068 32.7069 0.832068 32.7069 0.832068 32.7069C0.832068 32.7069 0.832068 32.7069 0.832068 32.7069C0.832068 32.7069 0.832068 32.7069 0.832068 32.7069C0.832069 32.7069 0.832069 32.7069 0.832069 32.7069C0.832069 32.7069 0.832069 32.7069 0.832069 32.7069C0.832069 32.7069 0.832069 32.7069 0.832069 32.7069C0.832069 32.7069 0.832069 32.7069 0.832069 32.7069C0.832069 32.7069 0.832069 32.7069 0.832069 32.7069C0.832069 32.7069 0.83207 32.7069 0.83207 32.7069C0.83207 32.7069 0.83207 32.7069 0.83207 32.7069C0.83207 32.7069 0.83207 32.7069 0.83207 32.7069C0.83207 32.7069 0.83207 32.7069 0.83207 32.7069C0.83207 32.7069 0.83207 32.7069 0.83207 32.7069C0.83207 32.7069 0.83207 32.7069 0.83207 32.7069C0.832071 32.7069 0.832071 32.7069 0.832071 32.7069C0.832071 32.7069 0.832071 32.7069 0.832071 32.7069C0.832071 32.7069 0.832071 32.7069 0.832071 32.7069C0.832071 32.7069 0.832071 32.7069 0.832071 32.7069C0.832071 32.7069 0.832071 32.7069 0.832071 32.7069C0.832071 32.7069 0.832072 32.7069 0.832072 32.7069C0.832072 32.7069 0.832072 32.7069 0.832072 32.7069C0.832072 32.7069 0.832072 32.7069 0.832072 32.7069C0.832072 32.7069 0.832072 32.7069 0.832072 32.7069C0.832072 32.7069 0.832072 32.7069 0.832072 32.7069C0.832072 32.7069 0.832072 32.7069 0.832073 32.7069C0.832073 32.7069 0.832073 32.7069 0.832073 32.7069C0.832073 32.7069 0.832073 32.7069 0.832073 32.7069C0.832073 32.7069 0.832073 32.7069 0.832073 32.7069C0.832073 32.7069 0.832073 32.7069 0.832073 32.7069C0.832073 32.7069 0.832073 32.7069 0.832073 32.7069C0.832073 32.7069 0.832074 32.7069 0.832074 32.7069C0.832074 32.7069 0.832074 32.7069 0.832074 32.7069C0.832074 32.7069 0.832074 32.7069 0.832074 32.7069C0.832074 32.7069 0.832074 32.7069 0.832074 32.7069C0.832074 32.7069 0.832074 32.7069 0.832074 32.7069C0.832074 32.7069 0.832074 32.7069 0.832075 32.7069C0.832075 32.7069 0.832075 32.7069 0.832075 32.7069C0.832075 32.7069 0.832075 32.7069 0.832075 32.7069C0.832075 32.7069 0.832075 32.7069 0.832075 32.7069C0.832075 32.7069 0.832075 32.7069 0.832075 32.7069C0.832075 32.7069 0.832075 32.7069 0.832075 32.7069C0.832075 32.7069 0.832076 32.7069 0.832076 32.7069C0.832076 32.7069 0.832076 32.7069 0.832076 32.7069C0.832076 32.7069 0.832076 32.7069 0.832076 32.7069C0.832076 32.7069 0.832076 32.7069 0.832076 32.7069C0.832076 32.7069 0.832076 32.7069 0.832076 32.7069C0.832076 32.7069 0.832076 32.7069 0.832077 32.7069C0.832077 32.7069 0.832077 32.7069 0.832077 32.7069C0.832077 32.7069 0.832077 32.7069 0.832077 32.7069C0.832077 32.7069 0.832077 32.7069 0.832077 32.7069C0.832077 32.7069 0.832077 32.7069 0.832077 32.7069C0.832077 32.7069 0.832077 32.7069 0.832077 32.7069C0.832077 32.7069 0.832078 32.7069 0.832078 32.7069C0.832078 32.7069 0.832078 32.7069 0.832078 32.7069C0.832078 32.7069 0.832078 32.7069 0.832078 32.7069C0.832078 32.7069 0.832078 32.7069 0.832078 32.7069C0.832078 32.7069 0.832078 32.7069 0.832078 32.7069C0.832078 32.7069 0.832078 32.7069 0.832079 32.7069C0.832079 32.7069 0.832079 32.7069 0.832079 32.7069C0.832079 32.7069 0.832079 32.7069 0.832079 32.7069C0.832079 32.7069 0.832079 32.7069 0.832079 32.7069C0.832079 32.7069 0.832079 32.7069 0.832079 32.7069C0.832079 32.7069 0.832079 32.7069 0.832079 32.7069C0.83208 32.7069 0.83208 32.7069 0.83208 32.7069C0.83208 32.7069 0.83208 32.7069 0.83208 32.7069C0.83208 32.7069 0.83208 32.7069 0.83208 32.7069C0.83208 32.7069 0.83208 32.7069 0.83208 32.7069C0.83208 32.7069 0.83208 32.7069 0.83208 32.7069C0.83208 32.7069 0.83208 32.7069 0.832081 32.7069C0.832081 32.7069 0.832081 32.7069 0.832081 32.7069C0.832081 32.7069 0.832081 32.7069 0.832081 32.7069C0.832081 32.7069 0.832081 32.7069 0.832081 32.7069C0.832081 32.7069 0.832081 32.7069 0.832081 32.7069C0.832081 32.7069 0.832081 32.7069 0.832081 32.7069C0.832082 32.7069 0.832082 32.7069 0.832082 32.7069C0.832082 32.7069 0.832082 32.7069 0.832082 32.7069C0.832082 32.7069 0.832082 32.7069 0.832082 32.7069C0.832082 32.7069 0.832082 32.7069 0.832082 32.7069C0.832082 32.7069 0.832082 32.7069 0.832082 32.7069C0.832082 32.7069 0.832082 32.7069 0.832083 32.7069C0.832083 32.7069 0.832083 32.7069 0.832083 32.7069C0.832083 32.7069 0.832083 32.7069 0.832083 32.7069C0.832083 32.7069 0.832083 32.7069 0.832083 32.7069C0.832083 32.7069 0.832083 32.7069 0.832083 32.7069C0.832083 32.7069 0.832083 32.7069 0.832083 32.7069C0.832084 32.7069 0.832084 32.7069 0.832084 32.7069C0.832084 32.7069 0.832084 32.7069 0.832084 32.7069C0.832084 32.7069 0.832084 32.7069 0.832084 32.7069C0.832084 32.7069 0.832084 32.7069 0.832084 32.7069C0.832084 32.7069 0.832084 32.7069 0.832084 32.7069C0.832084 32.7069 0.832084 32.7069 0.832085 32.7069C0.832085 32.7069 0.832085 32.7069 0.832085 32.7069C0.832085 32.7069 0.832085 32.7069 0.832085 32.7069C0.832085 32.7069 0.832085 32.7069 0.832085 32.7069C0.832085 32.7069 0.832085 32.7069 0.832085 32.7069C0.832085 32.7069 0.832085 32.7069 0.832085 32.7069C0.832086 32.7069 0.832086 32.7069 0.832086 32.7069C0.832086 32.7069 0.832086 32.7069 0.832086 32.7069C0.832086 32.7069 0.832086 32.7069 0.832086 32.7069C0.832086 32.7069 0.832086 32.7069 0.832086 32.7069C0.832086 32.7069 0.832086 32.7069 0.832086 32.7069C0.832086 32.7069 0.832086 32.7069 0.832087 32.7069C0.832087 32.7069 0.832087 32.7069 0.832087 32.7069C0.832087 32.7069 0.832087 32.7069 0.832087 32.7069C0.832087 32.7069 0.832087 32.7069 0.832087 32.7069C0.832087 32.7069 0.832087 32.7069 0.832087 32.7069C0.832087 32.7069 0.832087 32.7069 0.832087 32.7069C0.832088 32.7069 0.832088 32.7069 0.832088 32.7069C0.832088 32.7069 0.832088 32.7069 0.832088 32.7069C0.832088 32.7069 0.832088 32.7069 0.832088 32.7069C0.832088 32.7069 0.832088 32.7069 0.832088 32.7069C0.832088 32.7069 0.832088 32.7069 0.832088 32.7069C0.832088 32.7069 0.832089 32.7069 0.832089 32.7069C0.832089 32.7069 0.832089 32.7069 0.832089 32.7069C0.832089 32.7069 0.832089 32.7069 0.832089 32.7069C0.832089 32.7069 0.832089 32.7069 0.832089 32.7069C0.832089 32.7069 0.832089 32.7069 0.832089 32.7069C0.832089 32.7069 0.832089 32.7069 0.832089 32.7069C0.83209 32.7069 0.83209 32.7069 0.83209 32.7069C0.83209 32.7069 0.83209 32.7069 0.83209 32.7069C0.83209 32.7069 0.83209 32.7069 0.83209 32.7069C0.83209 32.7069 0.83209 32.7069 0.83209 32.7069C0.83209 32.7069 0.83209 32.7069 0.83209 32.7069C0.83209 32.7069 0.832091 32.7069 0.832091 32.7069C0.832091 32.7069 0.832091 32.7069 0.832091 32.7069C0.832091 32.7069 0.832091 32.7069 0.832091 32.7069C0.832091 32.7069 0.832091 32.7069 0.832091 32.7069C0.832091 32.7069 0.832091 32.7069 0.832091 32.7069C0.832091 32.7069 0.832091 32.7069 0.832091 32.7069C0.832092 32.7069 0.832092 32.7069 0.832092 32.7069C0.832092 32.7069 0.832092 32.7069 0.832092 32.7069C0.832092 32.7069 0.832092 32.7069 0.832092 32.7069C0.832092 32.7069 0.832092 32.7069 0.832092 32.7069C0.832092 32.7069 0.832092 32.7069 0.832092 32.7069C0.832092 32.7069 0.832093 32.7069 0.832093 32.7069C0.832093 32.7069 0.832093 32.7069 0.832093 32.7069C0.832093 32.7069 0.832093 32.7069 0.832093 32.7069C0.832093 32.7069 0.832093 32.7069 0.832093 32.7069C0.832093 32.7069 0.832093 32.7069 0.832093 32.7069C0.832093 32.7069 0.832093 32.7069 0.832093 32.7069C0.832094 32.7069 0.832094 32.7069 0.832094 32.7069C0.832094 32.7069 0.832094 32.7069 0.832094 32.7069C0.832094 32.7069 0.832094 32.7069 0.832094 32.7069C0.832094 32.7069 0.832094 32.7069 0.832094 32.7069C0.832094 32.7069 0.832094 32.7069 0.832094 32.7069C0.832094 32.7069 0.832095 32.7069 0.832095 32.7069C0.832095 32.7069 0.832095 32.7069 0.832095 32.7069C0.832095 32.7069 0.832095 32.7069 0.832095 32.7069C0.832095 32.7069 0.832095 32.7069 0.832095 32.7069C0.832095 32.7069 0.832095 32.7069 0.832095 32.7069C0.832095 32.7069 0.832095 32.7069 0.832096 32.7069C0.832096 32.7069 0.832096 32.7069 0.832096 32.7069C0.832096 32.7069 0.832096 32.7069 0.832096 32.7069C0.832096 32.7069 0.832096 32.7069 0.832096 32.7069C0.832096 32.7069 0.832096 32.7069 0.832096 32.7069C0.832096 32.7069 0.832096 32.7069 0.832096 32.7069C0.832096 32.7069 0.832097 32.7069 0.832097 32.7069C0.832097 32.7069 0.832097 32.7069 0.832097 32.7069C0.832097 32.7069 0.832097 32.7069 0.832097 32.7069C0.832097 32.7069 0.832097 32.7069 0.832097 32.7069C0.832097 32.7069 0.832097 32.7069 0.832097 32.7069C0.832097 32.7069 0.832097 32.7069 0.832098 32.7069C0.832098 32.7069 0.832098 32.7069 0.832098 32.7069C0.832098 32.7069 0.832098 32.7069 0.832098 32.7069C0.832098 32.7069 0.832098 32.7069 0.832098 32.7069C0.832098 32.7069 0.832098 32.7069 0.832098 32.7069C0.832098 32.7069 0.832098 32.7069 0.832098 32.7069C0.832098 32.7069 0.832099 32.7069 0.832099 32.7069C0.832099 32.7069 0.832099 32.7069 0.832099 32.7069C0.832099 32.7069 0.832099 32.7069 0.832099 32.7069C0.832099 32.7069 0.832099 32.7069 0.832099 32.7069C0.832099 32.7069 0.832099 32.7069 0.832099 32.7069C0.832099 32.7069 0.832099 32.7069 0.8321 32.7069C0.8321 32.7069 0.8321 32.7069 0.8321 32.7069C0.8321 32.7069 0.8321 32.7069 0.8321 32.7069C0.8321 32.7069 0.8321 32.7069 0.8321 32.7069C0.8321 32.7069 0.8321 32.7069 0.8321 32.7069C0.8321 32.7069 0.8321 32.7069 0.8321 32.7069C0.8321 32.7069 0.832101 32.7069 0.832101 32.7069C0.832101 32.7069 0.832101 32.7069 0.832101 32.7069C0.832101 32.7069 0.832101 32.7069 0.832101 32.7069C0.832101 32.7069 0.832101 32.7069 0.832101 32.7069C0.832101 32.7069 0.832101 32.7069 0.832101 32.7069C0.832101 32.7069 0.832101 32.7069 0.832102 32.7069C0.832102 32.7069 0.832102 32.7069 0.832102 32.7069C0.832102 32.7069 0.832102 32.7069 0.832102 32.7069C0.832102 32.7069 0.832102 32.7069 0.832102 32.7069C0.832102 32.7069 0.832102 32.7069 0.832102 32.7069C0.832102 32.7069 0.832102 32.7069 0.832102 32.7069C0.832103 32.7069 0.832103 32.7069 0.832103 32.7069C0.832103 32.7069 0.832103 32.7069 0.832103 32.7069C0.832103 32.7069 0.832103 32.7069 0.832103 32.7069C0.832103 32.7069 0.832103 32.7069 0.832103 32.7069C0.832103 32.7069 0.832103 32.7069 0.832103 32.7069C0.832103 32.7069 0.832103 32.7069 0.832104 32.7069C0.832104 32.7069 0.832104 32.7069 0.832104 32.7069C0.832104 32.7069 0.832104 32.7069 0.832104 32.7069C0.832104 32.7069 0.832104 32.7069 0.832104 32.7069C0.832104 32.7069 0.832104 32.7069 0.832104 32.7069C0.832104 32.7069 0.832104 32.7069 0.832104 32.7069C0.832105 32.7069 0.832105 32.7069 0.832105 32.7069C0.832105 32.7069 0.832105 32.7069 0.832105 32.7069C0.832105 32.7069 0.832105 32.7069 0.832105 32.7069C0.832105 32.7069 0.832105 32.7069 0.832105 32.7069C0.832105 32.7069 0.832105 32.7069 0.832105 32.7069C0.832105 32.7069 0.832105 32.7069 0.832106 32.7069C0.832106 32.7069 0.832106 32.7069 0.832106 32.7069C0.832106 32.7069 0.832106 32.7069 0.832106 32.7069C0.832106 32.7069 0.832106 32.7069 0.832106 32.7069C0.832106 32.7069 0.832106 32.7069 0.832106 32.7069C0.832106 32.7069 0.832106 32.7069 0.832106 32.7069C0.832107 32.7069 0.832107 32.7069 0.832107 32.7069C0.832107 32.7069 0.832107 32.7069 0.832107 32.7069C0.832107 32.7069 0.832107 32.7069 0.832107 32.7069C0.832107 32.7069 0.832107 32.7069 0.832107 32.7069C0.832107 32.7069 0.832107 32.7069 0.832107 32.7069C0.832107 32.7069 0.832107 32.7069 0.832108 32.7069C0.832108 32.7069 0.832108 32.7069 0.832108 32.7069C0.832108 32.7069 0.832108 32.7069 0.832108 32.7069C0.832108 32.7069 0.832108 32.7069 0.832108 32.7069C0.832108 32.7069 0.832108 32.7069 0.832108 32.7069C0.832108 32.7069 0.832108 32.7069 0.832108 32.7069C0.832109 32.7069 0.832109 32.7069 0.832109 32.7069C0.832109 32.7069 0.832109 32.7069 0.832109 32.7069C0.832109 32.7069 0.832109 32.7069 0.832109 32.7069C0.832109 32.7069 0.832109 32.7069 0.832109 32.7069C0.832109 32.7069 0.832109 32.7069 0.832109 32.7069C0.832109 32.7069 0.832109 32.7069 0.83211 32.7069C0.83211 32.7069 0.83211 32.7069 0.83211 32.7069C0.83211 32.7069 0.83211 32.7069 0.83211 32.7069C0.83211 32.7069 0.83211 32.7069 0.83211 32.7069C0.83211 32.7069 0.83211 32.7069 0.83211 32.7069C0.83211 32.7069 0.83211 32.7069 0.83211 32.7069C0.832111 32.7069 0.832111 32.7069 0.832111 32.7069C0.832111 32.7069 0.832111 32.7069 0.832111 32.7069C0.832111 32.7069 0.832111 32.7069 0.832111 32.7069C0.832111 32.7069 0.832111 32.7069 0.832111 32.7069C0.832111 32.7069 0.832111 32.7069 0.832111 32.7069C0.832111 32.7069 0.832112 32.7069 0.832112 32.7069C0.832112 32.7069 0.832112 32.7069 0.832112 32.7069C0.832112 32.7069 0.832112 32.7069 0.832112 32.7069C0.832112 32.7069 0.832112 32.7069 0.832112 32.7069C0.832112 32.7069 0.832112 32.7069 0.832112 32.7069C0.832112 32.7069 0.832112 32.7069 0.832112 32.7069C0.832113 32.7069 0.832113 32.7069 0.832113 32.7069C0.832113 32.7069 0.832113 32.7069 0.832113 32.7069C0.832113 32.7069 0.832113 32.7069 0.832113 32.7069C0.832113 32.7069 0.832113 32.7069 0.832113 32.7069C0.832113 32.7069 0.832113 32.7069 0.832113 32.7069C0.832113 32.7069 0.832114 32.7069 0.832114 32.7069C0.832114 32.7069 0.832114 32.7069 0.832114 32.7069C0.832114 32.7069 0.832114 32.7069 0.832114 32.7069C0.832114 32.7069 0.832114 32.7069 0.832114 32.7069C0.832114 32.7069 0.832114 32.7069 0.832114 32.7069C0.832114 32.7069 0.832114 32.7069 0.832114 32.7069C0.832115 32.7069 0.832115 32.7069 0.832115 32.7069C0.832115 32.7069 0.832115 32.7069 0.832115 32.7069C0.832115 32.7069 0.832115 32.7069 0.832115 32.7069C0.832115 32.7069 0.832115 32.7069 0.832115 32.7069C0.832115 32.7069 0.832115 32.7069 0.832115 32.7069C0.832115 32.7069 0.832116 32.7069 0.832116 32.7069C0.832116 32.7069 0.832116 32.7069 0.832116 32.7069C0.832116 32.7069 0.832116 32.7069 0.832116 32.7069C0.832116 32.7069 0.832116 32.7069 0.832116 32.7069C0.832116 32.7069 0.832116 32.7069 0.832116 32.7069C0.832116 32.7069 0.832116 32.7069 0.832116 32.7069C0.832117 32.7069 0.832117 32.7069 0.832117 32.7069C0.832117 32.7069 0.832117 32.7069 0.832117 32.7069C0.832117 32.7069 0.832117 32.7069 0.832117 32.7069C0.832117 32.7069 0.832117 32.7069 0.832117 32.7069C0.832117 32.7069 0.832117 32.7069 0.832117 32.7069C0.832117 32.7069 0.832118 32.7069 0.832118 32.7069C0.832118 32.7069 0.832118 32.7069 0.832118 32.7069C0.832118 32.7069 0.832118 32.7069 0.832118 32.7069C0.832118 32.7069 0.832118 32.7069 0.832118 32.7069C0.832118 32.7069 0.832118 32.7069 0.832118 32.7069C0.832118 32.7069 0.832118 32.7069 0.832119 32.7069C0.832119 32.7069 0.832119 32.7069 0.832119 32.7069C0.832119 32.7069 0.832119 32.7069 0.832119 32.7069C0.832119 32.7069 0.832119 32.7069 0.832119 32.7069C0.832119 32.7069 0.832119 32.7069 0.832119 32.7069C0.832119 32.7069 0.832119 32.7069 0.832119 32.7069C0.832119 32.7069 0.83212 32.7069 0.83212 32.7069C0.83212 32.7069 0.83212 32.7069 0.83212 32.7069C0.83212 32.7069 0.83212 32.7069 0.83212 32.7069C0.83212 32.7069 0.83212 32.7069 0.83212 32.7069C0.83212 32.7069 0.83212 32.7069 0.83212 32.7069C0.83212 32.7069 0.83212 32.7069 0.832121 32.7069C0.832121 32.7069 0.832121 32.7069 0.832121 32.7069C0.832121 32.7069 0.832121 32.7069 0.832121 32.7069C0.832121 32.7069 0.832121 32.7069 0.832121 32.7069C0.832121 32.7069 0.832121 32.7069 0.832121 32.7069C0.832121 32.7069 0.832121 32.7069 0.832121 32.7069C0.832121 32.7069 0.832122 32.7069 0.832122 32.7069C0.832122 32.7069 0.832122 32.7069 0.832122 32.7069C0.832122 32.7069 0.832122 32.7069 0.832122 32.7069C0.832122 32.7069 0.832122 32.7069 0.832122 32.7069C0.832122 32.7069 0.832122 32.7069 0.832122 32.7069C0.832122 32.7069 0.832122 32.7069 0.832123 32.7069C0.832123 32.7069 0.832123 32.7069 0.832123 32.7069C0.832123 32.7069 0.832123 32.7069 0.832123 32.7069C0.832123 32.7069 0.832123 32.7069 0.832123 32.7069C0.832123 32.7069 0.832123 32.7069 0.832123 32.7069C0.832123 32.7069 0.832123 32.7069 0.832123 32.7069C0.832123 32.7069 0.832124 32.7069 0.832124 32.7069C0.832124 32.7069 0.832124 32.7069 0.832124 32.7069C0.832124 32.7069 0.832124 32.7069 0.832124 32.7069C0.832124 32.7069 0.832124 32.7069 0.832124 32.7069C0.832124 32.7069 0.832124 32.7069 0.832124 32.7069C0.832124 32.7069 0.832124 32.7069 0.832125 32.7069C0.832125 32.7069 0.832125 32.7069 0.832125 32.7069V30.7069ZM32.8835 61.3334C32.1212 44.2899 18.0632 30.7069 0.832125 30.7069V32.7069C16.9885 32.7069 30.1707 45.4432 30.8855 61.4227L32.8835 61.3334ZM31.9476 60.378H31.8845V62.378H31.9476V60.378ZM62.9999 30.7069C45.7689 30.7069 31.711 44.29 30.9486 61.3334L32.9466 61.4227C33.6614 45.4432 46.8436 32.7069 62.9999 32.7069L62.9999 30.7069ZM62.9999 30.7069C46.3851 30.7068 32.9161 17.2379 32.9161 0.623043L30.9161 0.623051C30.9161 18.3424 45.2805 32.7068 62.9999 32.7069L62.9999 30.7069ZM31.916 1.62305H31.9161V-0.376953H31.916V1.62305Z" fill="#373844" mask="url(#path-1-inside-1_69_134)"></path> </svg> 