<?xml version="1.0" encoding="UTF-8"?> <svg xmlns="http://www.w3.org/2000/svg" width="25" height="25" viewBox="0 0 25 25" fill="none"> <path d="M3.87329 12.3879C3.87329 11.3451 4.83232 10.5661 5.85302 10.7799L11.9472 12.0562C12.1667 12.1022 12.324 12.2958 12.324 12.5201V12.5201C12.324 12.7519 12.1564 12.9497 11.9278 12.9877L5.78563 14.0086C4.78442 14.1751 3.87329 13.4029 3.87329 12.3879V12.3879Z" fill="#373844"></path> <path d="M21.1267 12.612C21.1267 13.6548 20.1677 14.4338 19.147 14.22L13.0528 12.9436C12.8333 12.8977 12.676 12.7041 12.676 12.4798V12.4798C12.676 12.248 12.8436 12.0502 13.0722 12.0122L19.2144 10.9913C20.2156 10.8248 21.1267 11.597 21.1267 12.612V12.612Z" fill="#373844"></path> <path d="M12.3882 21.1267C11.3453 21.1267 10.5663 20.1677 10.7801 19.147L12.0565 13.0528C12.1025 12.8333 12.2961 12.676 12.5204 12.676V12.676C12.7521 12.676 12.9499 12.8436 12.9879 13.0723L14.0089 19.2144C14.1753 20.2156 13.4031 21.1267 12.3882 21.1267V21.1267Z" fill="#373844"></path> <path d="M12.6118 3.87323C13.6547 3.87323 14.4337 4.83226 14.2199 5.85296L12.9435 11.9471C12.8975 12.1667 12.7039 12.3239 12.4796 12.3239V12.3239C12.2479 12.3239 12.0501 12.1563 12.0121 11.9277L10.9911 5.78557C10.8247 4.78436 11.5969 3.87323 12.6118 3.87323V3.87323Z" fill="#373844"></path> <path d="M6.32088 18.5208C5.58347 17.7834 5.71079 16.5545 6.5837 15.9839L11.7955 12.5772C11.9832 12.4545 12.2313 12.4802 12.3899 12.6388V12.6388C12.5538 12.8026 12.5751 13.061 12.4403 13.2495L8.81912 18.3146C8.22884 19.1403 7.03856 19.2385 6.32088 18.5208V18.5208Z" fill="#373844"></path> <path d="M18.6791 6.47911C19.4165 7.21651 19.2892 8.44547 18.4163 9.01605L13.2045 12.4228C13.0168 12.5455 12.7687 12.5198 12.6101 12.3612V12.3612C12.4462 12.1973 12.4249 11.9389 12.5597 11.7504L16.1809 6.68533C16.7712 5.85968 17.9614 5.76143 18.6791 6.47911V6.47911Z" fill="#373844"></path> <path d="M18.5206 18.6792C17.7832 19.4166 16.5542 19.2893 15.9836 18.4164L12.5769 13.2047C12.4542 13.0169 12.4799 12.7688 12.6385 12.6102V12.6102C12.8024 12.4463 13.0608 12.425 13.2493 12.5598L18.3144 16.181C19.14 16.7713 19.2383 17.9616 18.5206 18.6792V18.6792Z" fill="#373844"></path> <path d="M6.47941 6.32073C7.21682 5.58332 8.44577 5.71064 9.01636 6.58355L12.4231 11.7953C12.5458 11.9831 12.5201 12.2312 12.3615 12.3898V12.3898C12.1976 12.5536 11.9392 12.575 11.7507 12.4402L6.68563 8.81897C5.85999 8.22868 5.76173 7.03841 6.47941 6.32073V6.32073Z" fill="#373844"></path> <circle cx="12.5" cy="12.5" r="11.75" stroke="#373844" stroke-width="1.5"></circle> </svg> 