<?xml version="1.0" encoding="UTF-8"?> <svg xmlns="http://www.w3.org/2000/svg" width="1245" height="374" viewBox="0 0 1245 374" fill="none"> <path d="M1176.31 17.2402H68.6897C44.9795 17.2402 25.7587 29.1158 25.7587 43.7651V347.474C25.7587 362.124 44.9795 373.999 68.6897 373.999H1176.31C1200.02 373.999 1219.24 362.124 1219.24 347.474V43.7651C1219.24 29.1158 1200.02 17.2402 1176.31 17.2402Z" fill="#C79223"></path> <path d="M1202.07 0.664062H42.931C19.2209 0.664062 0 12.5396 0 27.1889V330.898C0 345.548 19.2209 357.423 42.931 357.423H1202.07C1225.78 357.423 1245 345.548 1245 330.898V27.1889C1245 12.5396 1225.78 0.664062 1202.07 0.664062Z" fill="#FFD374"></path> <mask id="mask0_540_41" style="mask-type:alpha" maskUnits="userSpaceOnUse" x="0" y="0" width="1245" height="357"> <path d="M1202.07 0H42.931C19.2209 0 0 11.8756 0 26.5248V330.234C0 344.883 19.2209 356.759 42.931 356.759H1202.07C1225.78 356.759 1245 344.883 1245 330.234V26.5248C1245 11.8756 1225.78 0 1202.07 0Z" fill="#FFD884"></path> </mask> <g mask="url(#mask0_540_41)"> <g style="mix-blend-mode:overlay" filter="url(#filter0_f_540_41)"> <path d="M821.593 450.261C1008.61 450.261 1160.21 363.569 1160.21 256.629C1160.21 149.69 1008.61 62.998 821.593 62.998C634.579 62.998 482.974 149.69 482.974 256.629C482.974 363.569 634.579 450.261 821.593 450.261Z" fill="white"></path> </g> </g> <defs> <filter id="filter0_f_540_41" x="-117.026" y="-537.002" width="1877.24" height="1587.26" filterUnits="userSpaceOnUse" color-interpolation-filters="sRGB"> <feFlood flood-opacity="0" result="BackgroundImageFix"></feFlood> <feBlend mode="normal" in="SourceGraphic" in2="BackgroundImageFix" result="shape"></feBlend> <feGaussianBlur stdDeviation="300" result="effect1_foregroundBlur_540_41"></feGaussianBlur> </filter> </defs> </svg> 