<?xml version="1.0" encoding="UTF-8"?> <svg xmlns="http://www.w3.org/2000/svg" width="69" height="136" viewBox="0 0 69 136" fill="none"> <path d="M9.22856 135C21.9124 123.603 29.6475 109.923 32.2887 93.0465C34.5135 78.8303 30.6181 62.3488 13.3281 62.3488C-2.82308 62.3488 -0.47713 81.0969 5.58449 91C12.8342 102.844 23.6973 109.419 37.9256 109.419C44.0629 109.419 51.5848 108.457 56.3737 104.359C61.3494 100.101 62.6801 96.298 65.1423 89.9767C69.478 78.8456 68.322 65.6244 65.37 54.1628C62.5795 43.3283 59.1617 33.3653 55.3488 22.8966C54.3621 20.1874 46.0211 3 46.1248 3" stroke="#373844" stroke-linecap="round"></path> <path d="M43 22C43 17.7908 45.1176 13.792 45.1176 9.32717C45.1176 7.013 45.1176 4.69883 45.1176 2.38466C45.1176 -0.12737 45.1056 1.2714 46.6471 2.71525C48.9063 4.83142 50.5364 7.7099 53.0588 9.54756C55.0686 11.0117 59.9458 14.0744 61 16.0493" stroke="#373844" stroke-linecap="round"></path> </svg> 