<?xml version="1.0" encoding="UTF-8"?> <svg xmlns="http://www.w3.org/2000/svg" width="980" height="982" viewBox="0 0 980 982" fill="none"> <path d="M220 1.00077C107.7 1.70077 110.2 1.60077 102.8 7.20077C97.5 11.2008 94.1 18.6008 93 28.2008C92.4 32.9008 92 75.7008 92 125.701V215.001H112.8C146.8 215.101 181.6 216.701 190.5 218.501C200.4 220.601 207.6 224.301 215.9 231.701C229.3 243.601 238.9 258.701 242.4 273.201C249.1 300.401 242 324.701 220.9 346.501C210.7 357.101 202.5 362.301 192.7 364.501C182.9 366.701 160.2 367.901 127.5 368.001C112.1 368.001 97.8 368.301 95.7 368.601L92 369.301V491.001V612.701L95.1 613.401C96.8 613.701 111.4 614.001 127.4 614.001C177.3 614.101 194.5 615.901 205.7 622.601C216.5 629.101 231.1 645.201 237.3 657.501C242.6 668.101 244.5 676.501 244.4 689.501C244.4 713.001 237.7 728.301 219.5 746.501C209 757.001 202 761.101 190.5 763.501C181.7 765.301 145.9 766.901 112.3 767.001H92V855.201C92 903.801 92.5 947.501 93 952.501C94.6 968.201 101.5 977.201 113.7 979.801C116.4 980.401 141.1 981.201 168.7 981.601L218.9 982.301L277.9 864.101L337 746.001V385.301V24.7008L436.2 25.3008C490.7 25.7008 616 26.0008 714.7 26.0008H894V71.2008C894 96.1008 894.3 142.401 894.7 174.101L895.3 231.701L907.1 238.301C913.6 242.001 919.2 245.001 919.5 245.001C920.3 245.001 920 71.1008 919.1 45.5008C918.4 24.7008 918.1 22.0008 916 17.2008C913.2 10.8008 906.7 4.70077 900.7 3.00077C891.8 0.500767 503.9 -0.699233 220 1.00077Z" fill="url(#paint0_linear_281_165)"></path> <path d="M398 169V184H597.5H797V169V154H597.5H398V169Z" fill="url(#paint1_linear_281_165)"></path> <path d="M27.0002 250C17.3002 254.9 10.2002 261.4 6.2002 268.8C-7.1998 294 1.6002 320.7 27.8002 333.9L36.0002 338H107.6H179.3L187.3 333.7C198.2 328 205.1 321.1 209.7 311.5C212.8 304.9 213.4 302.6 213.8 294.6C214.8 274.6 205.9 259.5 187.3 249.7L180.2 246H107.4L34.5002 246.1L27.0002 250Z" fill="url(#paint2_linear_281_165)"></path> <path d="M398 261V276H583.9H769.7L783.6 261.7L797.5 247.5L787 246.9C781.2 246.5 691.3 246.2 587.3 246.1L398 246V261Z" fill="url(#paint3_linear_281_165)"></path> <path d="M836.5 247.701C833.8 248.701 830.4 250.301 829.1 251.201C821.1 256.801 767 310.101 592.6 483.801L396.5 679.201L321.3 829.301C279.9 911.901 246.1 979.801 246.1 980.301C246 980.701 313.8 947.101 396.8 905.601L547.5 830.201L721.5 655.401C958.2 417.401 975.2 400.101 977.7 394.201C979.9 389.201 980.7 362.901 979 355.101C977.5 348.201 969.4 331.301 963.7 323.201C954.5 309.901 917.5 273.401 902.5 262.701C886.9 251.601 873.7 247.301 853 246.401C843.5 246.001 840.6 246.201 836.5 247.701ZM864 274.701C880.5 278.101 888.8 283.801 914.6 309.501C947.6 342.401 954 353.401 954 377.601V384.801L942 396.401C935.3 402.801 929.2 408.001 928.4 408.001C925.1 408.001 831.2 314.701 824.6 304.801C818.8 296.301 819.1 295.201 832.2 282.701L843.5 271.901L850 272.501C853.6 272.801 859.9 273.801 864 274.701ZM722 616.301C640.9 697.301 567.5 770.001 559 777.901C546.2 789.601 542.1 792.801 535.5 796.001C526 800.601 516.5 807.101 505.3 816.901C500.7 820.801 497 823.801 497 823.501C497 823.201 498.8 819.301 501.1 814.901C511.3 794.501 517.1 766.701 520.4 722.801C521.1 713.301 521.6 705.401 521.5 705.201C521.1 704.801 494.4 706.901 480 708.601C454 711.601 436.7 716.001 417.3 724.401C410.5 727.401 405 729.601 405 729.401C405 729.301 407.3 726.101 410 722.501C412.8 718.901 418 709.901 421.6 702.501L428.2 689.201L465.9 650.301C486.7 629.001 560.7 554.201 630.5 484.201L757.4 356.901L813.4 413.001L869.5 469.101L722 616.301ZM491.8 739.401C492.4 746.901 485.8 781.101 481.6 792.301C480.2 795.901 476.6 803.801 473.4 809.701L467.8 820.501L468.3 830.301L468.8 840.101L408.7 870.101L348.7 900.201L337.6 889.101L326.5 878.001L355.7 819.701L384.8 761.401L392.6 762.301C396.8 762.801 401.7 762.901 403.5 762.601C405.2 762.201 410.9 759.301 416.1 756.001C426 749.701 440.8 743.401 452.5 740.501C466.1 737.101 478.6 735.101 485 735.301L491.5 735.501L491.8 739.401Z" fill="url(#paint4_linear_281_165)"></path> <path d="M398 353V368H537.8H677.5L692.5 353L707.5 338H552.7H398V353Z" fill="url(#paint5_linear_281_165)"></path> <path d="M398 445V460H491.8H585.5L600.5 445L615.5 430H506.7H398V445Z" fill="url(#paint6_linear_281_165)"></path> <path d="M906.7 500.8L894.9 512.6L894.3 734.3L893.7 956L799.6 956.1C747.8 956.1 624.1 956.5 524.5 956.9L343.5 957.6L321 969.3L298.5 981L597.5 980.7C841.9 980.5 897.3 980.2 900.7 979.1C906.8 977.2 912.2 972 916.2 964.3L919.7 957.5L919.1 723.2L918.5 489L906.7 500.8Z" fill="url(#paint7_linear_281_165)"></path> <path d="M398 537V552H445.8H493.5L508.5 537L523.5 522H460.7H398V537Z" fill="url(#paint8_linear_281_165)"></path> <path d="M398 620.7C398 631.7 399.2 644 400.3 644C400.8 644 408.1 637.3 416.4 629L431.5 614H414.8H398V620.7Z" fill="url(#paint9_linear_281_165)"></path> <path d="M778.9 629L763.5 643.9L780.3 644H797V632.1C797 620 796.3 614 795 614C794.6 614 787.3 620.7 778.9 629Z" fill="url(#paint10_linear_281_165)"></path> <path d="M26.8006 648.6C2.10057 661.5 -6.69943 687.9 5.50057 712.1C9.10057 719.1 14.3006 724.6 22.9006 730.2L30.3006 735H107.201H184.101L189.801 731.4C200.301 724.8 209.001 714.7 211.901 705.9C212.601 703.8 213.101 696.7 213.101 689.5C213.101 678.2 212.801 676.2 210.701 671.7C206.901 663.5 200.601 656.5 191.701 650.6L183.501 645.3L109.501 644.7L35.5006 644.1L26.8006 648.6Z" fill="url(#paint11_linear_281_165)"></path> <path d="M686.5 721L671.5 736H734.3H797V721V706H749.2H701.5L686.5 721Z" fill="url(#paint12_linear_281_165)"></path> <path d="M594.5 813L579.5 828H688.3H797V813V798H703.2H609.5L594.5 813Z" fill="url(#paint13_linear_281_165)"></path> <defs> <linearGradient id="paint0_linear_281_165" x1="505.982" y1="982.301" x2="505.982" y2="0.207214" gradientUnits="userSpaceOnUse"> <stop stop-color="#FFC52B"></stop> <stop offset="1" stop-color="#FFC832" stop-opacity="0.79"></stop> </linearGradient> <linearGradient id="paint1_linear_281_165" x1="597.5" y1="184" x2="597.5" y2="154" gradientUnits="userSpaceOnUse"> <stop stop-color="#FFC52B"></stop> <stop offset="1" stop-color="#FFC832" stop-opacity="0.79"></stop> </linearGradient> <linearGradient id="paint2_linear_281_165" x1="106.936" y1="338" x2="106.936" y2="246" gradientUnits="userSpaceOnUse"> <stop stop-color="#FFC52B"></stop> <stop offset="1" stop-color="#FFC832" stop-opacity="0.79"></stop> </linearGradient> <linearGradient id="paint3_linear_281_165" x1="597.75" y1="276" x2="597.75" y2="246" gradientUnits="userSpaceOnUse"> <stop stop-color="#FFC52B"></stop> <stop offset="1" stop-color="#FFC832" stop-opacity="0.79"></stop> </linearGradient> <linearGradient id="paint4_linear_281_165" x1="613.008" y1="980.305" x2="613.008" y2="246.222" gradientUnits="userSpaceOnUse"> <stop stop-color="#FFC52B"></stop> <stop offset="1" stop-color="#FFC832" stop-opacity="0.79"></stop> </linearGradient> <linearGradient id="paint5_linear_281_165" x1="552.75" y1="368" x2="552.75" y2="338" gradientUnits="userSpaceOnUse"> <stop stop-color="#FFC52B"></stop> <stop offset="1" stop-color="#FFC832" stop-opacity="0.79"></stop> </linearGradient> <linearGradient id="paint6_linear_281_165" x1="506.75" y1="460" x2="506.75" y2="430" gradientUnits="userSpaceOnUse"> <stop stop-color="#FFC52B"></stop> <stop offset="1" stop-color="#FFC832" stop-opacity="0.79"></stop> </linearGradient> <linearGradient id="paint7_linear_281_165" x1="609.1" y1="981" x2="609.1" y2="489" gradientUnits="userSpaceOnUse"> <stop stop-color="#FFC52B"></stop> <stop offset="1" stop-color="#FFC832" stop-opacity="0.79"></stop> </linearGradient> <linearGradient id="paint8_linear_281_165" x1="460.75" y1="552" x2="460.75" y2="522" gradientUnits="userSpaceOnUse"> <stop stop-color="#FFC52B"></stop> <stop offset="1" stop-color="#FFC832" stop-opacity="0.79"></stop> </linearGradient> <linearGradient id="paint9_linear_281_165" x1="414.75" y1="644" x2="414.75" y2="614" gradientUnits="userSpaceOnUse"> <stop stop-color="#FFC52B"></stop> <stop offset="1" stop-color="#FFC832" stop-opacity="0.79"></stop> </linearGradient> <linearGradient id="paint10_linear_281_165" x1="780.25" y1="644" x2="780.25" y2="614" gradientUnits="userSpaceOnUse"> <stop stop-color="#FFC52B"></stop> <stop offset="1" stop-color="#FFC832" stop-opacity="0.79"></stop> </linearGradient> <linearGradient id="paint11_linear_281_165" x1="106.577" y1="735" x2="106.577" y2="644.1" gradientUnits="userSpaceOnUse"> <stop stop-color="#FFC52B"></stop> <stop offset="1" stop-color="#FFC832" stop-opacity="0.79"></stop> </linearGradient> <linearGradient id="paint12_linear_281_165" x1="734.25" y1="736" x2="734.25" y2="706" gradientUnits="userSpaceOnUse"> <stop stop-color="#FFC52B"></stop> <stop offset="1" stop-color="#FFC832" stop-opacity="0.79"></stop> </linearGradient> <linearGradient id="paint13_linear_281_165" x1="688.25" y1="828" x2="688.25" y2="798" gradientUnits="userSpaceOnUse"> <stop stop-color="#FFC52B"></stop> <stop offset="1" stop-color="#FFC832" stop-opacity="0.79"></stop> </linearGradient> </defs> </svg> 