<?xml version="1.0" encoding="UTF-8"?> <svg xmlns="http://www.w3.org/2000/svg" width="557" height="344" viewBox="0 0 557 344" fill="none"> <g clip-path="url(#clip0_541_49)"> <path d="M517 0H40C17.9086 0 0 17.9086 0 40V304C0 326.091 17.9086 344 40 344H517C539.091 344 557 326.091 557 304V40C557 17.9086 539.091 0 517 0Z" fill="url(#paint0_linear_541_49)"></path> <g clip-path="url(#clip1_541_49)"> <path d="M513 13H44C27.4315 13 14 26.4315 14 43V300C14 316.569 27.4315 330 44 330H513C529.569 330 543 316.569 543 300V43C543 26.4315 529.569 13 513 13Z" fill="#FFEABE"></path> </g> <g clip-path="url(#clip2_541_49)"> <path d="M106 0H451V71C451 93.0914 433.091 111 411 111H146C123.909 111 106 93.0914 106 71V0Z" fill="url(#paint1_linear_541_49)"></path> </g> </g> <defs> <linearGradient id="paint0_linear_541_49" x1="278.5" y1="0" x2="278.5" y2="344" gradientUnits="userSpaceOnUse"> <stop stop-color="#FADFA3"></stop> <stop offset="1" stop-color="#F7CF7A"></stop> </linearGradient> <linearGradient id="paint1_linear_541_49" x1="278.5" y1="0" x2="278.5" y2="111" gradientUnits="userSpaceOnUse"> <stop stop-color="#9C201F"></stop> <stop offset="1" stop-color="#C54F4D"></stop> </linearGradient> <clipPath id="clip0_541_49"> <rect width="557" height="344" fill="white"></rect> </clipPath> <clipPath id="clip1_541_49"> <rect width="529" height="317" fill="white" transform="translate(14 13)"></rect> </clipPath> <clipPath id="clip2_541_49"> <rect width="345" height="111" fill="white" transform="translate(106)"></rect> </clipPath> </defs> </svg> 