<?xml version="1.0" encoding="UTF-8"?> <svg xmlns="http://www.w3.org/2000/svg" width="548" height="601" viewBox="0 0 548 601" fill="none"> <g clip-path="url(#clip0_549_109)"> <path d="M514 9.92578H34C22.9543 9.92578 14 17.0085 14 25.7455V584.183C14 592.92 22.9543 600.003 34 600.003H514C525.046 600.003 534 592.92 534 584.183V25.7455C534 17.0085 525.046 9.92578 514 9.92578Z" fill="#9C201F"></path> </g> <g clip-path="url(#clip1_549_109)"> <path d="M528 0H20C8.9543 0 0 7.08408 0 15.8227V571.201C0 579.939 8.9543 587.023 20 587.023H528C539.046 587.023 548 579.939 548 571.201V15.8227C548 7.08408 539.046 0 528 0Z" fill="url(#paint0_linear_549_109)"></path> </g> <defs> <linearGradient id="paint0_linear_549_109" x1="274" y1="0" x2="274" y2="587.023" gradientUnits="userSpaceOnUse"> <stop stop-color="#9C201F"></stop> <stop offset="1" stop-color="#C54F4D"></stop> </linearGradient> <clipPath id="clip0_549_109"> <rect width="520" height="590.077" fill="white" transform="translate(14 9.92578)"></rect> </clipPath> <clipPath id="clip1_549_109"> <rect width="548" height="587.023" fill="white"></rect> </clipPath> </defs> </svg> 