<?xml version="1.0" encoding="UTF-8"?> <svg xmlns="http://www.w3.org/2000/svg" width="142" height="133" viewBox="0 0 142 133" fill="none"> <path d="M111.077 132.5C102.914 132.5 95.3651 125.31 89.828 113.313C84.3104 101.358 80.8844 84.808 80.8844 66.5C80.8844 48.192 84.3104 31.6416 89.828 19.6869C95.3651 7.68975 102.914 0.499998 111.077 0.499999C119.24 0.499999 126.788 7.68975 132.325 19.6869C137.843 31.6416 141.269 48.1921 141.269 66.5C141.269 84.808 137.843 101.358 132.325 113.313C126.788 125.31 119.24 132.5 111.077 132.5Z" stroke="#373844"></path> <path d="M67.9495 132.52C67.3154 132.731 66.6738 132.873 66.0255 132.945L65.9703 132.448C65.6611 132.483 65.3503 132.5 65.0382 132.5C64.726 132.5 64.4153 132.483 64.106 132.448L64.0509 132.945C63.4026 132.873 62.7609 132.731 62.1268 132.52L62.2843 132.046C61.7041 131.853 61.128 131.6 60.5568 131.287L60.3167 131.726C59.7586 131.421 59.2075 131.062 58.6639 130.652L58.9649 130.253C58.4736 129.883 57.9871 129.468 57.5059 129.009L57.1611 129.371C56.6986 128.931 56.2425 128.453 55.7933 127.938L56.1699 127.609C55.7578 127.137 55.3508 126.633 54.9494 126.097L54.5493 126.397C54.1658 125.886 53.788 125.347 53.4162 124.782L53.8338 124.507C53.486 123.979 53.1431 123.426 52.8055 122.85L52.3742 123.103C52.0485 122.548 51.7279 121.972 51.4127 121.376L51.8547 121.142C51.5561 120.577 51.2622 119.993 50.9732 119.392L50.5225 119.608C50.2421 119.025 49.9665 118.425 49.6958 117.808L50.1536 117.607C49.8959 117.021 49.6427 116.419 49.3941 115.804L48.9305 115.991C48.6882 115.391 48.4504 114.778 48.2172 114.151L48.6857 113.977C48.4608 113.373 48.2402 112.757 48.0239 112.129L47.5511 112.292C47.3393 111.677 47.1317 111.051 46.9285 110.414L47.4048 110.262C47.2076 109.644 47.0145 109.016 46.8255 108.378L46.3461 108.52C46.1613 107.895 45.9806 107.262 45.804 106.619L46.2862 106.487C46.1148 105.863 45.9473 105.23 45.7838 104.589L45.2993 104.713C45.138 104.08 44.9807 103.44 44.8273 102.792L45.3139 102.677C45.1637 102.042 45.0174 101.4 44.875 100.751L44.3866 100.858C44.2471 100.222 44.1114 99.5786 43.9796 98.9288L44.4696 98.8294C44.3402 98.192 44.2146 97.5482 44.0927 96.8979L43.6013 96.9901C43.4805 96.3458 43.3635 95.6953 43.2502 95.039L43.7429 94.9539C43.6323 94.3127 43.5253 93.6658 43.4219 93.0133L42.9281 93.0916C42.8258 92.4459 42.7272 91.7949 42.6322 91.1387L43.127 91.0671C43.0333 90.4195 42.9432 89.7668 42.8567 89.1093L42.3609 89.1745C42.2758 88.5267 42.1941 87.8743 42.1161 87.2174L42.6126 87.1585C42.5356 86.51 42.4621 85.8572 42.3922 85.2L41.895 85.2529C41.8255 84.5997 41.7595 83.9423 41.6972 83.281L42.195 83.234C42.1338 82.5852 42.0761 81.9324 42.0219 81.2759L41.5236 81.3171C41.4696 80.6626 41.4191 80.0045 41.3722 79.3429L41.8709 79.3076C41.8246 78.6555 41.7818 78.0001 41.7426 77.3413L41.2434 77.3711C41.2044 76.7166 41.1689 76.059 41.1368 75.3982L41.6362 75.374C41.6045 74.7189 41.5762 74.0607 41.5514 73.3996L41.0517 73.4183C41.0272 72.7641 41.0061 72.107 40.9885 71.4472L41.4883 71.4339C41.4709 70.7785 41.4568 70.1203 41.4463 69.4597L40.9464 69.4677C40.9359 68.8118 40.9289 68.1534 40.9254 67.4928L41.4254 67.4901C41.4237 67.1607 41.4228 66.8306 41.4228 66.5C41.4228 66.1694 41.4237 65.8394 41.4254 65.5099L40.9254 65.5072C40.9289 64.8466 40.9359 64.1882 40.9464 63.5323L41.4463 63.5403C41.4568 62.8797 41.4709 62.2215 41.4883 61.5661L40.9885 61.5528C41.0061 60.893 41.0272 60.2359 41.0517 59.5817L41.5514 59.6004C41.5762 58.9393 41.6045 58.2811 41.6362 57.626L41.1368 57.6018C41.1689 56.941 41.2044 56.2834 41.2434 55.6289L41.7426 55.6587C41.7818 54.9999 41.8246 54.3445 41.8709 53.6924L41.3722 53.657C41.4191 52.9954 41.4696 52.3373 41.5236 51.6829L42.0219 51.724C42.0761 51.0676 42.1338 50.4148 42.195 49.766L41.6972 49.719C41.7595 49.0576 41.8255 48.4003 41.895 47.7471L42.3922 47.8C42.4621 47.1428 42.5356 46.49 42.6126 45.8415L42.1161 45.7825C42.1941 45.1256 42.2758 44.4732 42.3609 43.8255L42.8567 43.8907C42.9432 43.2332 43.0333 42.5805 43.127 41.9329L42.6322 41.8613C42.7272 41.2051 42.8258 40.5541 42.9281 39.9084L43.4219 39.9866C43.5253 39.3342 43.6323 38.6873 43.7429 38.046L43.2502 37.961C43.3635 37.3047 43.4805 36.6542 43.6013 36.0099L44.0927 36.102C44.2146 35.4518 44.3402 34.8079 44.4696 34.1706L43.9796 34.0712C44.1114 33.4214 44.2472 32.7783 44.3866 32.1422L44.875 32.2493C45.0174 31.5998 45.1637 30.9576 45.3139 30.3231L44.8273 30.208C44.9807 29.5599 45.138 28.9195 45.2993 28.2873L45.7838 28.4109C45.9473 27.7698 46.1148 27.1373 46.2862 26.5134L45.804 26.3809C45.9806 25.7382 46.1614 25.1045 46.3461 24.4803L46.8255 24.6222C47.0145 23.9839 47.2076 23.3556 47.4048 22.7376L46.9285 22.5856C47.1317 21.9488 47.3393 21.3228 47.5511 20.7079L48.0239 20.8707C48.2402 20.2428 48.4608 19.6268 48.6857 19.023L48.2172 18.8485C48.4504 18.2223 48.6882 17.6091 48.9305 17.0091L49.3941 17.1963C49.6427 16.5806 49.896 15.9792 50.1536 15.3927L49.6958 15.1916C49.9665 14.5755 50.2421 13.9753 50.5225 13.3917L50.9732 13.6082C51.2622 13.0065 51.5561 12.423 51.8548 11.858L51.4127 11.6244C51.7279 11.0281 52.0485 10.452 52.3742 9.89659L52.8055 10.1496C53.1432 9.57391 53.486 9.02147 53.8339 8.49294L53.4162 8.21808C53.788 7.65305 54.1658 7.1143 54.5493 6.60273L54.9494 6.90262C55.3508 6.36704 55.7578 5.86278 56.1699 5.39071L55.7933 5.06189C56.2425 4.54728 56.6986 4.06904 57.1611 3.6285L57.5059 3.99054C57.9871 3.53222 58.4736 3.11738 58.9649 2.74703L58.664 2.34777C59.2075 1.93806 59.7586 1.57947 60.3167 1.27398L60.5568 1.71258C61.128 1.3999 61.7041 1.14674 62.2843 0.954226L62.1268 0.47967C62.7609 0.269258 63.4026 0.126704 64.0509 0.0547185L64.106 0.551664C64.4153 0.517324 64.726 0.499999 65.0382 0.499999C65.3503 0.499999 65.6611 0.517324 65.9703 0.551664L66.0255 0.0547188C66.6738 0.126705 67.3154 0.269259 67.9495 0.479671L67.7921 0.954227C68.3722 1.14674 68.9483 1.3999 69.5196 1.71258L69.7596 1.27399C70.3177 1.57947 70.8689 1.93806 71.4124 2.34777L71.1114 2.74704C71.6027 3.11738 72.0893 3.53223 72.5704 3.99055L72.9153 3.62851C73.3778 4.06904 73.8339 4.54728 74.2831 5.0619L73.9064 5.39072C74.3185 5.86279 74.7255 6.36705 75.127 6.90263L75.5271 6.60274C75.9106 7.11431 76.2884 7.65306 76.6602 8.21809L76.2425 8.49295C76.5903 9.02148 76.9332 9.57392 77.2709 10.1496L77.7021 9.8966C78.0279 10.452 78.3485 11.0281 78.6637 11.6244L78.2216 11.858C78.5203 12.423 78.8142 13.0065 79.1032 13.6082L79.5539 13.3917C79.8343 13.9753 80.1099 14.5755 80.3805 15.1916L79.9228 15.3927C80.1804 15.9792 80.4336 16.5806 80.6823 17.1963L81.1459 17.0091C81.3882 17.6091 81.626 18.2223 81.8592 18.8485L81.3907 19.023C81.6155 19.6268 81.8362 20.2428 82.0525 20.8708L82.5252 20.7079C82.7371 21.3228 82.9446 21.9488 83.1479 22.5856L82.6715 22.7376C82.8688 23.3556 83.0619 23.9839 83.2508 24.6222L83.7303 24.4803C83.915 25.1045 84.0957 25.7382 84.2723 26.3809L83.7902 26.5134C83.9616 27.1373 84.1291 27.7699 84.2926 28.4109L84.7771 28.2873C84.9383 28.9196 85.0957 29.5599 85.249 30.208L84.7625 30.3231C84.9126 30.9577 85.0589 31.5998 85.2013 32.2493L85.6897 32.1422C85.8292 32.7783 85.9649 33.4214 86.0968 34.0712L85.6068 34.1706C85.7361 34.808 85.8618 35.4518 85.9836 36.1021L86.4751 36.0099C86.5958 36.6542 86.7129 37.3047 86.8261 37.961L86.3334 38.0461C86.4441 38.6873 86.5511 39.3342 86.6544 39.9867L87.1483 39.9084C87.2506 40.5541 87.3492 41.2051 87.4442 41.8613L86.9493 41.9329C87.0431 42.5805 87.1332 43.2332 87.2197 43.8907L87.7154 43.8255C87.8006 44.4733 87.8822 45.1256 87.9603 45.7826L87.4638 45.8415C87.5408 46.49 87.6143 47.1428 87.6842 47.8L88.1814 47.7471C88.2509 48.4003 88.3168 49.0577 88.3792 49.719L87.8814 49.766C87.9426 50.4148 88.0003 51.0676 88.0544 51.7241L88.5528 51.6829C88.6068 52.3374 88.6573 52.9954 88.7042 53.657L88.2055 53.6924C88.2517 54.3445 88.2945 54.9999 88.3338 55.6587L88.8329 55.6289C88.8719 56.2834 88.9075 56.941 88.9395 57.6018L88.4401 57.626C88.4719 58.2811 88.5002 58.9393 88.525 59.6004L89.0246 59.5817C89.0492 60.2359 89.0702 60.893 89.0878 61.5527L88.588 61.5661C88.6055 62.2215 88.6195 62.8797 88.63 63.5403L89.13 63.5323C89.1404 64.1882 89.1474 64.8466 89.1509 65.5072L88.6509 65.5099C88.6527 65.8393 88.6536 66.1694 88.6536 66.5C88.6536 66.8306 88.6527 67.1607 88.6509 67.4901L89.1509 67.4928C89.1474 68.1535 89.1404 68.8118 89.13 69.4677L88.63 69.4597C88.6195 70.1204 88.6055 70.7785 88.588 71.4339L89.0878 71.4473C89.0702 72.107 89.0492 72.7641 89.0246 73.4184L88.525 73.3996C88.5002 74.0607 88.4719 74.7189 88.4401 75.374L88.9395 75.3982C88.9075 76.059 88.8719 76.7166 88.8329 77.3711L88.3338 77.3413C88.2945 78.0001 88.2517 78.6555 88.2055 79.3076L88.7042 79.343C88.6573 80.0046 88.6068 80.6627 88.5528 81.3171L88.0544 81.276C88.0003 81.9324 87.9426 82.5852 87.8814 83.234L88.3792 83.281C88.3168 83.9424 88.2509 84.5997 88.1814 85.2529L87.6842 85.2C87.6143 85.8572 87.5408 86.51 87.4638 87.1585L87.9603 87.2175C87.8822 87.8744 87.8006 88.5268 87.7154 89.1745L87.2197 89.1093C87.1332 89.7668 87.0431 90.4195 86.9493 91.0671L87.4442 91.1387C87.3492 91.7949 87.2505 92.4459 87.1483 93.0916L86.6544 93.0134C86.5511 93.6658 86.4441 94.3127 86.3334 94.954L86.8261 95.039C86.7129 95.6953 86.5958 96.3458 86.4751 96.9901L85.9836 96.898C85.8618 97.5482 85.7361 98.192 85.6068 98.8294L86.0968 98.9288C85.9649 99.5786 85.8292 100.222 85.6897 100.858L85.2013 100.751C85.0589 101.4 84.9126 102.042 84.7625 102.677L85.249 102.792C85.0957 103.44 84.9383 104.08 84.7771 104.713L84.2926 104.589C84.1291 105.23 83.9616 105.863 83.7902 106.487L84.2723 106.619C84.0957 107.262 83.915 107.895 83.7303 108.52L83.2508 108.378C83.0619 109.016 82.8687 109.644 82.6715 110.262L83.1479 110.414C82.9446 111.051 82.737 111.677 82.5252 112.292L82.0525 112.129C81.8362 112.757 81.6155 113.373 81.3906 113.977L81.8592 114.151C81.626 114.778 81.3881 115.391 81.1459 115.991L80.6823 115.804C80.4336 116.419 80.1804 117.021 79.9228 117.607L80.3805 117.808C80.1099 118.425 79.8343 119.025 79.5539 119.608L79.1032 119.392C78.8142 119.993 78.5202 120.577 78.2216 121.142L78.6637 121.376C78.3485 121.972 78.0279 122.548 77.7021 123.103L77.2708 122.85C76.9332 123.426 76.5903 123.979 76.2425 124.507L76.6602 124.782C76.2884 125.347 75.9105 125.886 75.5271 126.397L75.127 126.097C74.7255 126.633 74.3185 127.137 73.9064 127.609L74.2831 127.938C73.8339 128.453 73.3778 128.931 72.9153 129.371L72.5704 129.009C72.0893 129.468 71.6027 129.883 71.1114 130.253L71.4124 130.652C70.8689 131.062 70.3177 131.421 69.7596 131.726L69.5196 131.287C68.9483 131.6 68.3722 131.853 67.7921 132.046L67.9495 132.52Z" stroke="#373844" stroke-dasharray="2 2"></path> <path d="M35.0768 132.5C32.9281 132.5 30.7513 130.841 28.6743 127.51C26.6137 124.205 24.7397 119.39 23.1587 113.395C19.9987 101.413 18.0383 84.8333 18.0383 66.5C18.0383 48.1668 19.9987 31.5866 23.1587 19.6049C24.7397 13.6104 26.6137 8.79515 28.6743 5.49045C30.7513 2.1594 32.9281 0.499999 35.0768 0.499999C37.2255 0.499999 39.4022 2.1594 41.4793 5.49045C43.5399 8.79515 45.4139 13.6104 46.9949 19.6049C50.1549 31.5866 52.1152 48.1668 52.1152 66.5C52.1152 84.8333 50.1549 101.413 46.9949 113.395C45.4139 119.39 43.5399 124.205 41.4793 127.51C39.4022 130.841 37.2255 132.5 35.0768 132.5Z" stroke="#373844"></path> <path d="M12.4231 132.5C11.7604 132.5 11.0469 132.142 10.2887 131.312C9.53142 130.482 8.77739 129.231 8.04487 127.572C6.58136 124.259 5.25141 119.433 4.13017 113.431C1.88923 101.435 0.50004 84.8424 0.500041 66.5C0.500042 48.1576 1.88923 31.5648 4.13017 19.5692C5.25141 13.5673 6.58137 8.74143 8.04487 5.42791C8.7774 3.7694 9.53143 2.51765 10.2887 1.68816C11.0469 0.857595 11.7604 0.499999 12.4231 0.499999C13.0858 0.499999 13.7993 0.857595 14.5575 1.68816C15.3148 2.51765 16.0688 3.7694 16.8014 5.42791C18.2649 8.74143 19.5948 13.5673 20.7161 19.5692C22.957 31.5648 24.3462 48.1576 24.3462 66.5C24.3462 84.8424 22.957 101.435 20.7161 113.431C19.5948 119.433 18.2649 124.259 16.8014 127.572C16.0688 129.231 15.3148 130.482 14.5575 131.312C13.7993 132.142 13.0858 132.5 12.4231 132.5Z" stroke="#373844"></path> </svg> 