<?xml version="1.0" encoding="UTF-8"?> <svg xmlns="http://www.w3.org/2000/svg" width="342" height="108" viewBox="0 0 342 108" fill="none"> <g clip-path="url(#clip0_539_10)"> <path d="M327 6H15C6.71573 6 0 12.7157 0 21V93C0 101.284 6.71573 108 15 108H327C335.284 108 342 101.284 342 93V21C342 12.7157 335.284 6 327 6Z" fill="#C79223"></path> </g> <g clip-path="url(#clip1_539_10)"> <path d="M327 0H15C6.71573 0 0 6.71573 0 15V87C0 95.2843 6.71573 102 15 102H327C335.284 102 342 95.2843 342 87V15C342 6.71573 335.284 0 327 0Z" fill="url(#paint0_linear_539_10)"></path> </g> <defs> <linearGradient id="paint0_linear_539_10" x1="171" y1="0" x2="171" y2="102" gradientUnits="userSpaceOnUse"> <stop stop-color="#FFEABE"></stop> <stop offset="1" stop-color="#F0B73D"></stop> </linearGradient> <clipPath id="clip0_539_10"> <rect width="342" height="102" fill="white" transform="translate(0 6)"></rect> </clipPath> <clipPath id="clip1_539_10"> <rect width="342" height="102" fill="white"></rect> </clipPath> </defs> </svg> 