<?xml version="1.0" encoding="UTF-8"?> <svg xmlns="http://www.w3.org/2000/svg" width="218" height="28" viewBox="0 0 218 28" fill="none"> <path d="M1 2.0939C5.24406 2.0939 9.40798 2.15501 13.6311 2.68038C29.0024 4.59264 43.8972 3.5234 59.3194 2.68038C80.3869 1.52878 101.607 0.786248 122.703 1.09689C139.408 1.34288 156.132 3.03227 172.829 3.03227C179.89 3.03227 187.121 2.32049 194.108 1.27283C198.396 0.630012 196.782 1.17984 193.653 2.3285C164.336 13.0917 133.292 16.3748 102.618 20.2748C85.6529 22.4318 35.5192 30.9774 51.5245 24.7907C60.1626 21.4517 70.7708 21.0071 79.8023 20.0988C99.3119 18.1369 119.372 18.2783 138.975 17.9875C163.364 17.6258 236.479 21.0959 212.088 21.0959C197.082 21.0959 182.602 23.1347 167.936 26.3742" stroke="#373844" stroke-linecap="round"></path> </svg> 