<?xml version="1.0" encoding="UTF-8"?> <svg xmlns="http://www.w3.org/2000/svg" width="300" height="423" viewBox="0 0 300 423" fill="none"> <g clip-path="url(#clip0_558_188)"> <path d="M273 10H28C16.9543 10 8 18.9543 8 30V403C8 414.046 16.9543 423 28 423H273C284.046 423 293 414.046 293 403V30C293 18.9543 284.046 10 273 10Z" fill="#9C1A0D"></path> </g> <g clip-path="url(#clip1_558_188)"> <path d="M280 0H20C8.9543 0 0 8.9543 0 20V392C0 403.046 8.9543 412 20 412H280C291.046 412 300 403.046 300 392V20C300 8.9543 291.046 0 280 0Z" fill="url(#paint0_linear_558_188)"></path> </g> <defs> <linearGradient id="paint0_linear_558_188" x1="150" y1="0" x2="150" y2="412" gradientUnits="userSpaceOnUse"> <stop stop-color="#9C201F"></stop> <stop offset="1" stop-color="#C54F4D"></stop> </linearGradient> <clipPath id="clip0_558_188"> <rect width="285" height="413" fill="white" transform="translate(8 10)"></rect> </clipPath> <clipPath id="clip1_558_188"> <rect width="300" height="412" fill="white"></rect> </clipPath> </defs> </svg> 