<?xml version="1.0" encoding="UTF-8"?> <svg xmlns="http://www.w3.org/2000/svg" width="557" height="368" viewBox="0 0 557 368" fill="none"> <g clip-path="url(#clip0_556_168)"> <path d="M517 0H40C17.9086 0 0 19.158 0 42.7907V325.209C0 348.842 17.9086 368 40 368H517C539.091 368 557 348.842 557 325.209V42.7907C557 19.158 539.091 0 517 0Z" fill="url(#paint0_linear_556_168)"></path> <g clip-path="url(#clip1_556_168)"> <path d="M513 13.9062H44C27.4315 13.9062 14 28.2748 14 45.9993V320.93C14 338.654 27.4315 353.023 44 353.023H513C529.569 353.023 543 338.654 543 320.93V45.9993C543 28.2748 529.569 13.9062 513 13.9062Z" fill="#FFEABE"></path> </g> </g> <defs> <linearGradient id="paint0_linear_556_168" x1="278.5" y1="0" x2="278.5" y2="368" gradientUnits="userSpaceOnUse"> <stop stop-color="#FADFA3"></stop> <stop offset="1" stop-color="#F7CF7A"></stop> </linearGradient> <clipPath id="clip0_556_168"> <rect width="557" height="368" fill="white"></rect> </clipPath> <clipPath id="clip1_556_168"> <rect width="529" height="339.116" fill="white" transform="translate(14 13.9062)"></rect> </clipPath> </defs> </svg> 