<?xml version="1.0" encoding="UTF-8"?> <svg xmlns="http://www.w3.org/2000/svg" width="362" height="381" viewBox="0 0 362 381" fill="none"> <path d="M315 9H47C24.9086 9 7 26.9086 7 49V341C7 363.091 24.9086 381 47 381H315C337.091 381 355 363.091 355 341V49C355 26.9086 337.091 9 315 9Z" fill="url(#paint0_linear_544_70)"></path> <path d="M327 0H35C15.67 0 0 15.67 0 35V336C0 355.33 15.67 371 35 371H327C346.33 371 362 355.33 362 336V35C362 15.67 346.33 0 327 0Z" fill="#FFEABE"></path> <defs> <linearGradient id="paint0_linear_544_70" x1="181" y1="9" x2="181" y2="381" gradientUnits="userSpaceOnUse"> <stop stop-color="#C79223"></stop> <stop offset="1" stop-color="#F7CF7A"></stop> </linearGradient> </defs> </svg> 