<?xml version="1.0" encoding="UTF-8"?> <svg xmlns="http://www.w3.org/2000/svg" width="240" height="313" viewBox="0 0 240 313" fill="none"> <path d="M76.4418 202.243L77.3847 198.96C81.8451 183.745 86.7579 172.033 92.1233 163.822C97.5728 155.636 103.693 149.556 110.485 145.582C117.3 141.524 125.12 138.256 133.942 135.778C139.997 134.053 145.589 131.877 150.718 129.249C155.955 126.561 160.43 123.198 164.141 119.16C167.877 115.038 170.591 110.03 172.283 104.137C174.193 97.4856 174.292 91.2711 172.579 85.4934C170.866 79.7157 167.745 74.7182 163.214 70.5009C158.768 66.3077 153.303 63.2803 146.821 61.4186C140.843 59.702 134.785 59.375 128.648 60.4376C122.618 61.4402 117.086 64.0437 112.051 68.2481C107.124 72.3925 103.314 78.3613 100.62 86.1545L55.6618 73.2436C60.6765 57.368 68.3936 45.0937 78.813 36.4206C89.3166 27.7717 101.404 22.4938 115.075 20.5871C128.83 18.7046 143.075 19.8789 157.808 24.11C173.889 28.7279 187.223 35.6102 197.811 44.7568C208.483 53.9276 215.73 64.712 219.551 77.1102C223.481 89.4484 223.403 102.732 219.317 116.96C216.561 126.558 212.537 134.698 207.246 141.381C202.039 148.088 195.769 153.578 188.436 157.852C181.103 162.125 172.898 165.465 163.823 167.871C155.794 170.122 148.938 172.893 143.255 176.182C137.656 179.495 132.921 183.922 129.051 189.464C125.29 194.946 122.086 202.136 119.439 211.037L118.496 214.32L76.4418 202.243ZM75.7857 287.357C68.2084 285.181 62.4572 280.613 58.5321 273.654C54.607 266.694 53.7566 259.341 55.9809 251.595C58.1569 244.018 62.7548 238.321 69.7747 234.504C76.7945 230.688 84.0931 229.867 91.6703 232.043C99.1634 234.195 104.873 238.751 108.798 245.711C112.807 252.695 113.724 259.975 111.548 267.553C110.073 272.688 107.426 276.986 103.607 280.446C99.8725 283.931 95.5377 286.331 90.6028 287.648C85.7762 288.905 80.8372 288.808 75.7857 287.357Z" fill="#FFEABE"></path> </svg> 