<?xml version="1.0" encoding="UTF-8"?> <svg xmlns="http://www.w3.org/2000/svg" width="542" height="356" viewBox="0 0 542 356" fill="none"> <path d="M54.6026 13.4977C37.4636 35.9557 17.3696 78.5077 9.98214 107.467C-11.2939 192.571 4.66314 272.06 56.3756 339.434L68.4911 355.096L86.2211 337.661L103.951 319.931L93.3131 306.929C79.7201 290.381 63.4676 257.876 56.9666 233.645C48.6926 204.391 49.2836 147.655 58.1486 117.514C65.2406 92.6917 77.9471 65.5057 91.8356 44.8207L100.701 32.1142L85.0391 16.1572C76.4696 7.2922 68.1956 0.200195 67.0136 0.200195C65.8316 0.200195 60.2171 6.11018 54.6026 13.4977Z" fill="url(#paint0_linear_282_181)"></path> <path d="M458.256 18.8173C449.686 27.3868 442.89 35.3653 442.89 36.5473C442.89 37.7293 447.618 44.8213 453.823 52.5043C480.418 87.3733 494.307 130.812 494.307 178.978C494.307 226.554 482.487 263.491 454.71 304.566L442.299 322.887L457.96 338.844C466.53 347.709 474.804 354.801 475.986 354.801C480.714 354.801 499.626 325.842 513.81 297.178C533.904 256.399 541.291 224.485 541.291 177.501C541.291 132.88 533.904 98.8978 516.765 63.7333C505.831 41.2753 480.123 3.1558 475.69 3.1558C474.508 3.1558 466.825 10.2478 458.256 18.8173Z" fill="url(#paint1_linear_282_181)"></path> <path d="M227.47 10.8386C168.074 26.7956 120.203 74.9622 104.542 134.653C98.9273 157.111 98.9273 196.708 104.837 220.053C120.499 280.926 168.074 328.501 228.947 344.163C251.701 350.073 288.047 350.073 311.983 344.458C374.038 329.979 423.977 280.039 438.457 217.984C444.071 194.049 444.071 157.702 438.161 134.949C422.5 74.0757 374.924 26.5001 314.051 10.8386C291.298 4.92864 249.041 4.92864 227.47 10.8386ZM291.593 129.63C325.871 154.452 354.239 176.023 354.239 177.501C354.239 179.569 237.812 265.855 225.106 273.243C222.151 275.016 221.264 254.922 221.264 177.501C221.264 100.08 222.151 79.9857 225.106 81.7587C226.879 82.9407 257.02 104.512 291.593 129.63Z" fill="url(#paint2_linear_282_181)"></path> <defs> <linearGradient id="paint0_linear_282_181" x1="52.3901" y1="355.096" x2="52.3901" y2="0.200195" gradientUnits="userSpaceOnUse"> <stop stop-color="#FFC52B"></stop> <stop offset="1" stop-color="#FFC832" stop-opacity="0.87"></stop> </linearGradient> <linearGradient id="paint1_linear_282_181" x1="491.795" y1="354.801" x2="491.795" y2="3.15579" gradientUnits="userSpaceOnUse"> <stop stop-color="#FFC52B"></stop> <stop offset="1" stop-color="#FFC832" stop-opacity="0.87"></stop> </linearGradient> <linearGradient id="paint2_linear_282_181" x1="271.499" y1="348.633" x2="271.499" y2="6.40616" gradientUnits="userSpaceOnUse"> <stop stop-color="#FFC52B"></stop> <stop offset="1" stop-color="#FFC832" stop-opacity="0.87"></stop> </linearGradient> </defs> </svg> 