<?xml version="1.0" encoding="UTF-8"?> <svg xmlns="http://www.w3.org/2000/svg" width="565" height="272" viewBox="0 0 565 272" fill="none"> <path d="M517 14H50C27.9086 14 10 31.9086 10 54V232C10 254.091 27.9086 272 50 272H517C539.091 272 557 254.091 557 232V54C557 31.9086 539.091 14 517 14Z" fill="url(#paint0_linear_547_99)"></path> <g clip-path="url(#clip0_547_99)"> <path d="M535 0H30C13.4315 0 0 13.4315 0 30V226C0 242.569 13.4315 256 30 256H535C551.569 256 565 242.569 565 226V30C565 13.4315 551.569 0 535 0Z" fill="url(#paint1_linear_547_99)"></path> </g> <defs> <linearGradient id="paint0_linear_547_99" x1="283.5" y1="14" x2="283.5" y2="272" gradientUnits="userSpaceOnUse"> <stop stop-color="#7D190F"></stop> <stop offset="1" stop-color="#7D190F"></stop> </linearGradient> <linearGradient id="paint1_linear_547_99" x1="101.532" y1="-37.6774" x2="474.784" y2="334.346" gradientUnits="userSpaceOnUse"> <stop stop-color="#C01B1A"></stop> <stop offset="1" stop-color="#9C1A0D"></stop> </linearGradient> <clipPath id="clip0_547_99"> <rect width="565" height="256" fill="white"></rect> </clipPath> </defs> </svg> 