<?xml version="1.0" encoding="UTF-8"?> <svg xmlns="http://www.w3.org/2000/svg" width="682" height="23" viewBox="0 0 682 23" fill="none"> <path d="M62.4785 2.78908C223.263 -0.875692 390.294 2.22244 561.815 4.93546C599.15 5.52601 711.102 7.34953 673.244 6.26807C659.549 5.87687 643.303 6.62627 631.131 6.87975C591.753 7.6998 552.67 8.63902 513.171 9.40774C398.556 11.6383 284.298 14.0587 170.254 16.5409C128.107 17.4582 86.4808 18.5769 45.509 19.9734C31.4006 20.4543 -11.6229 20.5583 4.17032 21.7772C19.5345 22.963 51.9112 21.9489 64.3335 21.908C130.493 21.6901 195.859 21.0463 261.746 20.6826C396.64 19.938 532.57 20.4787 671.084 22.0011" stroke="#373844" stroke-linecap="round"></path> </svg> 