<?xml version="1.0" encoding="UTF-8"?> <svg xmlns="http://www.w3.org/2000/svg" width="112" height="112" viewBox="0 0 112 112" fill="none"> <path d="M40.433 14.6754C55.7716 29.997 55.9027 55.8237 55.9027 55.8237C55.9027 55.8237 31.165 56.8091 15.8263 41.4874C0.487663 26.1658 0.356542 0.339076 0.356542 0.339076C0.356542 0.339076 25.0943 -0.646301 40.433 14.6754Z" fill="#F4ECE0"></path> <path d="M71.3725 14.6754C56.0338 29.997 55.9027 55.8237 55.9027 55.8237C55.9027 55.8237 80.6404 56.8091 95.9791 41.4874C111.318 26.1658 111.449 0.339076 111.449 0.339076C111.449 0.339076 86.7111 -0.646301 71.3725 14.6754Z" fill="#F4ECE0"></path> <path d="M40.433 96.9506C55.7716 81.6289 55.9027 55.8022 55.9027 55.8022C55.9027 55.8022 31.165 54.8169 15.8263 70.1385C0.487663 85.4602 0.356542 111.287 0.356542 111.287C0.356542 111.287 25.0943 112.272 40.433 96.9506Z" fill="#F4ECE0"></path> <path d="M71.3725 96.9506C56.0338 81.6289 55.9027 55.8022 55.9027 55.8022C55.9027 55.8022 80.6404 54.8169 95.9791 70.1385C111.318 85.4602 111.449 111.287 111.449 111.287C111.449 111.287 86.7111 112.272 71.3725 96.9506Z" fill="#F4ECE0"></path> </svg> 