<?xml version="1.0" encoding="UTF-8"?> <svg xmlns="http://www.w3.org/2000/svg" width="1064" height="600" viewBox="0 0 1064 600" fill="none"> <path d="M499.312 377.115C637.128 412.701 765.559 434.104 861.79 439.945C909.91 442.866 949.951 441.893 979.08 436.869C993.646 434.356 1005.45 430.835 1014.17 426.301C1022.89 421.767 1028.46 416.248 1030.67 409.753C1032.88 403.259 1031.65 395.985 1027.18 388.045C1022.7 380.105 1015 371.547 1004.36 362.525C983.076 344.483 950.106 324.657 907.929 304.262C823.581 263.474 702.503 220.45 564.688 184.864C426.873 149.277 298.441 127.874 202.21 122.034C154.09 119.113 114.049 120.085 84.92 125.11C70.3541 127.622 58.5471 131.143 49.8306 135.678C41.115 140.212 35.5413 145.73 33.3328 152.225C31.1242 158.72 32.3479 165.994 36.8218 173.933C41.2961 181.874 48.9957 190.432 59.6393 199.454C80.9242 217.496 113.894 237.321 156.071 257.717C240.419 298.504 361.497 341.529 499.312 377.115Z" stroke="#373844"></path> <path d="M499.312 420.761C637.128 456.347 765.559 477.75 861.79 483.59C909.91 486.511 949.951 485.539 979.08 480.514C993.646 478.002 1005.45 474.481 1014.17 469.946C1022.89 465.412 1028.46 459.894 1030.67 453.399C1032.88 446.904 1031.65 439.63 1027.18 431.691C1022.7 423.75 1015 415.192 1004.36 406.17C983.076 388.128 950.106 368.303 907.929 347.907C823.581 307.12 702.503 264.095 564.688 228.509C426.873 192.923 298.441 171.52 202.21 165.679C154.09 162.758 114.049 163.731 84.92 168.755C70.3541 171.268 58.5471 174.789 49.8306 179.323C41.115 183.857 35.5413 189.376 33.3328 195.871C31.1242 202.365 32.3479 209.639 36.8218 217.579C41.2961 225.519 48.9957 234.077 59.6393 243.099C80.9242 261.141 113.894 280.967 156.071 301.362C240.419 342.15 361.497 385.174 499.312 420.761Z" stroke="#373844"></path> <path d="M532 0.499988C684.154 0.499994 807.5 123.846 807.5 276L807.5 599.5L256.5 599.5L256.5 276C256.5 123.846 379.846 0.499981 532 0.499988Z" fill="#FEFBF6" stroke="#373844"></path> </svg> 