<?xml version="1.0" encoding="UTF-8"?> <svg xmlns="http://www.w3.org/2000/svg" width="112" height="79" viewBox="0 0 112 79" fill="none"> <path d="M107.53 3.84439C102.185 -0.882837 85.4614 1.67966 78.849 1.80618C59.5452 2.17551 41.4213 7.18383 23.7629 14.6016C14.6535 18.4282 1 26.4753 1 37.4749C1 44.9251 1.22299 52.9041 8.1703 57.3475C18.2362 63.7854 34.9692 64.9908 46.5826 64.9908C60.2403 64.9908 73.898 64.9908 87.5558 64.9908C93.0795 64.9908 97.289 63.9257 102.864 64.9342C104.927 65.3074 113.327 63.9717 108.554 63.9717C102.763 63.9717 94.2139 58.0781 94.2139 51.7424" stroke="#373844" stroke-linecap="round"></path> <path d="M111 63C104.689 63.7071 94 70.7419 94 78" stroke="#373844" stroke-linecap="round"></path> </svg> 