<?xml version="1.0" encoding="UTF-8"?> <svg xmlns="http://www.w3.org/2000/svg" width="320" height="676" viewBox="0 0 320 676" fill="none"> <g clip-path="url(#clip0_552_134)"> <path d="M280 0H39C16.9086 0 -1 17.9086 -1 40V636C-1 658.091 16.9086 676 39 676H280C302.091 676 320 658.091 320 636V40C320 17.9086 302.091 0 280 0Z" fill="#9C201F"></path> <g clip-path="url(#clip1_552_134)"> <mask id="mask0_552_134" style="mask-type:alpha" maskUnits="userSpaceOnUse" x="-1" y="0" width="320" height="676"> <path d="M279 0H39C16.9086 0 -1 17.9086 -1 40V636C-1 658.091 16.9086 676 39 676H279C301.091 676 319 658.091 319 636V40C319 17.9086 301.091 0 279 0Z" fill="#9C201F"></path> </mask> <g mask="url(#mask0_552_134)"> <g filter="url(#filter0_f_552_134)"> <path fill-rule="evenodd" clip-rule="evenodd" d="M107.409 267.548C256.124 267.548 376.68 177.934 376.68 67.3879C376.68 -43.1574 256.124 -132.771 107.409 -132.771C-41.3048 -132.771 -161.861 -43.1574 -161.861 67.3879C-161.861 177.934 -41.3048 267.548 107.409 267.548ZM718.639 765.388C879.416 765.388 1009.75 668.537 1009.75 549.065C1009.75 429.593 879.416 332.742 718.639 332.742C557.861 332.742 427.525 429.593 427.525 549.065C427.525 668.537 557.861 765.388 718.639 765.388Z" fill="#FFAD00" fill-opacity="0.8"></path> </g> </g> </g> </g> <defs> <filter id="filter0_f_552_134" x="-661.861" y="-632.771" width="2171.61" height="1898.16" filterUnits="userSpaceOnUse" color-interpolation-filters="sRGB"> <feFlood flood-opacity="0" result="BackgroundImageFix"></feFlood> <feBlend mode="normal" in="SourceGraphic" in2="BackgroundImageFix" result="shape"></feBlend> <feGaussianBlur stdDeviation="250" result="effect1_foregroundBlur_552_134"></feGaussianBlur> </filter> <clipPath id="clip0_552_134"> <rect width="320" height="676" fill="white"></rect> </clipPath> <clipPath id="clip1_552_134"> <rect width="320" height="676" fill="white" transform="translate(-1)"></rect> </clipPath> </defs> </svg> 