<?xml version="1.0" encoding="UTF-8"?> <svg xmlns="http://www.w3.org/2000/svg" width="1160" height="1011" viewBox="0 0 1160 1011" fill="none"> <g clip-path="url(#clip0_539_11)"> <path d="M1120 0H40C17.9086 0 0 17.9086 0 40V971C0 993.091 17.9086 1011 40 1011H1120C1142.09 1011 1160 993.091 1160 971V40C1160 17.9086 1142.09 0 1120 0Z" fill="#9C201F"></path> <g clip-path="url(#clip1_539_11)"> <mask id="mask0_539_11" style="mask-type:alpha" maskUnits="userSpaceOnUse" x="0" y="0" width="1160" height="1011"> <path d="M1120 0H40C17.9086 0 0 17.9086 0 40V971C0 993.091 17.9086 1011 40 1011H1120C1142.09 1011 1160 993.091 1160 971V40C1160 17.9086 1142.09 0 1120 0Z" fill="#9C201F"></path> </mask> <g mask="url(#mask0_539_11)"> <g filter="url(#filter0_f_539_11)"> <path fill-rule="evenodd" clip-rule="evenodd" d="M157.24 411.081C394.855 411.081 587.48 273.39 587.48 103.54C587.48 -66.3094 394.855 -204 157.24 -204C-80.3751 -204 -273 -66.3094 -273 103.54C-273 273.39 -80.3751 411.081 157.24 411.081ZM1133.86 1176C1390.75 1176 1599 1027.19 1599 843.624C1599 660.058 1390.75 511.249 1133.86 511.249C876.971 511.249 668.72 660.058 668.72 843.624C668.72 1027.19 876.971 1176 1133.86 1176Z" fill="#FFAD00" fill-opacity="0.8"></path> </g> </g> </g> </g> <defs> <filter id="filter0_f_539_11" x="-773" y="-704" width="2872" height="2380" filterUnits="userSpaceOnUse" color-interpolation-filters="sRGB"> <feFlood flood-opacity="0" result="BackgroundImageFix"></feFlood> <feBlend mode="normal" in="SourceGraphic" in2="BackgroundImageFix" result="shape"></feBlend> <feGaussianBlur stdDeviation="250" result="effect1_foregroundBlur_539_11"></feGaussianBlur> </filter> <clipPath id="clip0_539_11"> <rect width="1160" height="1011" fill="white"></rect> </clipPath> <clipPath id="clip1_539_11"> <rect width="1160" height="1011" fill="white"></rect> </clipPath> </defs> </svg> 