<?xml version="1.0" encoding="UTF-8"?> <svg xmlns="http://www.w3.org/2000/svg" width="299" height="239" viewBox="0 0 299 239" fill="none"> <g clip-path="url(#clip0_555_167)"> <path d="M254 9H45C22.9086 9 5 26.9086 5 49V199C5 221.091 22.9086 239 45 239H254C276.091 239 294 221.091 294 199V49C294 26.9086 276.091 9 254 9Z" fill="url(#paint0_linear_555_167)"></path> </g> <g clip-path="url(#clip1_555_167)"> <path d="M269 0H30C13.4315 0 0 13.4315 0 30V200C0 216.569 13.4315 230 30 230H269C285.569 230 299 216.569 299 200V30C299 13.4315 285.569 0 269 0Z" fill="url(#paint1_linear_555_167)"></path> </g> <defs> <linearGradient id="paint0_linear_555_167" x1="149.5" y1="9" x2="149.5" y2="239" gradientUnits="userSpaceOnUse"> <stop stop-color="#7D190F"></stop> <stop offset="1" stop-color="#7D190F"></stop> </linearGradient> <linearGradient id="paint1_linear_555_167" x1="53.7309" y1="-33.8508" x2="346.557" y2="138.063" gradientUnits="userSpaceOnUse"> <stop stop-color="#C01B1A"></stop> <stop offset="1" stop-color="#9C1A0D"></stop> </linearGradient> <clipPath id="clip0_555_167"> <rect width="289" height="230" fill="white" transform="translate(5 9)"></rect> </clipPath> <clipPath id="clip1_555_167"> <rect width="299" height="230" fill="white"></rect> </clipPath> </defs> </svg> 