<?xml version="1.0" encoding="UTF-8"?> <svg xmlns="http://www.w3.org/2000/svg" width="1000" height="374" viewBox="0 0 1000 374" fill="none"> <rect opacity="0.5" x="337" y="141" width="331" height="91" rx="45.5" fill="#373844"></rect> <path d="M332 61C298.311 61 271 33.6894 271 1.90735e-05L733 -1.12118e-06C733 33.6894 705.689 61 672 61L332 61Z" fill="#FEFBF6"></path> <path d="M437.723 339L431.723 330.989H429.575V339H427.461V321.545H429.575V329.114H430.495L437.484 321.545H440.007L432.95 329.216L440.245 339H437.723ZM441.477 339V337.057H441.988C442.716 337.057 443.281 336.824 443.684 336.358C444.088 335.892 444.377 335.139 444.554 334.099C444.735 333.06 444.858 331.682 444.92 329.966L445.227 321.545H455.863V339H453.75V323.42H447.238L446.966 330.375C446.897 332.205 446.73 333.761 446.463 335.045C446.196 336.33 445.727 337.31 445.056 337.986C444.386 338.662 443.409 339 442.125 339H441.477ZM460.086 339V321.545H470.62V323.42H462.2V329.318H470.075V331.193H462.2V337.125H470.757V339H460.086ZM473.475 323.42V321.545H486.566V323.42H481.078V339H478.964V323.42H473.475ZM503.829 330.273C503.829 332.114 503.497 333.705 502.832 335.045C502.167 336.386 501.255 337.42 500.096 338.148C498.937 338.875 497.613 339.239 496.125 339.239C494.636 339.239 493.312 338.875 492.153 338.148C490.994 337.42 490.082 336.386 489.417 335.045C488.752 333.705 488.42 332.114 488.42 330.273C488.42 328.432 488.752 326.841 489.417 325.5C490.082 324.159 490.994 323.125 492.153 322.398C493.312 321.67 494.636 321.307 496.125 321.307C497.613 321.307 498.937 321.67 500.096 322.398C501.255 323.125 502.167 324.159 502.832 325.5C503.497 326.841 503.829 328.432 503.829 330.273ZM501.784 330.273C501.784 328.761 501.531 327.486 501.025 326.446C500.525 325.406 499.846 324.619 498.988 324.085C498.136 323.551 497.181 323.284 496.125 323.284C495.068 323.284 494.11 323.551 493.252 324.085C492.4 324.619 491.721 325.406 491.216 326.446C490.716 327.486 490.466 328.761 490.466 330.273C490.466 331.784 490.716 333.06 491.216 334.099C491.721 335.139 492.4 335.926 493.252 336.46C494.11 336.994 495.068 337.261 496.125 337.261C497.181 337.261 498.136 336.994 498.988 336.46C499.846 335.926 500.525 335.139 501.025 334.099C501.531 333.06 501.784 331.784 501.784 330.273ZM507.554 321.545H509.667V327.375C509.667 328.239 509.818 328.918 510.119 329.412C510.42 329.901 510.846 330.247 511.397 330.452C511.949 330.651 512.599 330.75 513.349 330.75C513.821 330.75 514.278 330.733 514.721 330.699C515.164 330.659 515.596 330.605 516.017 330.537C516.443 330.469 516.858 330.386 517.261 330.29C517.67 330.193 518.071 330.085 518.463 329.966V331.875C518.082 331.994 517.704 332.102 517.329 332.199C516.96 332.295 516.574 332.378 516.17 332.446C515.772 332.514 515.343 332.568 514.883 332.608C514.423 332.642 513.912 332.659 513.349 332.659C512.145 332.659 511.108 332.486 510.238 332.139C509.375 331.793 508.71 331.233 508.244 330.46C507.784 329.687 507.554 328.659 507.554 327.375V321.545ZM518.19 321.545H520.304V339H518.19V321.545ZM524.539 339V321.545H526.653V329.318H535.96V321.545H538.074V339H535.96V331.193H526.653V339H524.539ZM543.873 328.875H548.85C550.1 328.875 551.154 329.08 552.012 329.489C552.876 329.898 553.529 330.474 553.973 331.219C554.422 331.963 554.646 332.841 554.646 333.852C554.646 334.864 554.422 335.756 553.973 336.528C553.529 337.301 552.876 337.906 552.012 338.344C551.154 338.781 550.1 339 548.85 339H542.305V321.545H544.419V337.159H548.85C549.646 337.159 550.319 337 550.87 336.682C551.427 336.358 551.848 335.943 552.132 335.438C552.422 334.926 552.566 334.386 552.566 333.818C552.566 332.983 552.245 332.264 551.603 331.662C550.961 331.054 550.044 330.75 548.85 330.75H543.873V328.875ZM558.464 321.545V339H556.35V321.545H558.464ZM562.696 321.545H564.775V335.284H564.946L574.491 321.545H576.537V339H574.423V325.295H574.252L564.741 339H562.696V321.545ZM571.287 317.182H573.162C573.162 318.102 572.843 318.855 572.207 319.44C571.571 320.026 570.707 320.318 569.616 320.318C568.542 320.318 567.687 320.026 567.051 319.44C566.42 318.855 566.105 318.102 566.105 317.182H567.98C567.98 317.625 568.102 318.014 568.346 318.349C568.596 318.685 569.02 318.852 569.616 318.852C570.213 318.852 570.639 318.685 570.895 318.349C571.156 318.014 571.287 317.625 571.287 317.182ZM440.82 350.545V352.42H432.399V368H430.286V350.545H440.82ZM458.091 359.273C458.091 361.114 457.759 362.705 457.094 364.045C456.429 365.386 455.517 366.42 454.358 367.148C453.199 367.875 451.875 368.239 450.386 368.239C448.898 368.239 447.574 367.875 446.415 367.148C445.256 366.42 444.344 365.386 443.679 364.045C443.014 362.705 442.682 361.114 442.682 359.273C442.682 357.432 443.014 355.841 443.679 354.5C444.344 353.159 445.256 352.125 446.415 351.398C447.574 350.67 448.898 350.307 450.386 350.307C451.875 350.307 453.199 350.67 454.358 351.398C455.517 352.125 456.429 353.159 457.094 354.5C457.759 355.841 458.091 357.432 458.091 359.273ZM456.045 359.273C456.045 357.761 455.793 356.486 455.287 355.446C454.787 354.406 454.108 353.619 453.25 353.085C452.398 352.551 451.443 352.284 450.386 352.284C449.33 352.284 448.372 352.551 447.514 353.085C446.662 353.619 445.983 354.406 445.477 355.446C444.977 356.486 444.727 357.761 444.727 359.273C444.727 360.784 444.977 362.06 445.477 363.099C445.983 364.139 446.662 364.926 447.514 365.46C448.372 365.994 449.33 366.261 450.386 366.261C451.443 366.261 452.398 365.994 453.25 365.46C454.108 364.926 454.787 364.139 455.287 363.099C455.793 362.06 456.045 360.784 456.045 359.273ZM461.645 350.545H464.168L470.099 365.034H470.304L476.236 350.545H478.759V368H476.781V354.739H476.611L471.156 368H469.247L463.793 354.739H463.622V368H461.645V350.545ZM482.996 368V350.545H493.531V352.42H485.11V358.318H492.985V360.193H485.11V366.125H493.667V368H482.996ZM512.067 359.273C512.067 361.114 511.735 362.705 511.07 364.045C510.406 365.386 509.494 366.42 508.335 367.148C507.175 367.875 505.852 368.239 504.363 368.239C502.874 368.239 501.55 367.875 500.391 367.148C499.232 366.42 498.32 365.386 497.656 364.045C496.991 362.705 496.658 361.114 496.658 359.273C496.658 357.432 496.991 355.841 497.656 354.5C498.32 353.159 499.232 352.125 500.391 351.398C501.55 350.67 502.874 350.307 504.363 350.307C505.852 350.307 507.175 350.67 508.335 351.398C509.494 352.125 510.406 353.159 511.07 354.5C511.735 355.841 512.067 357.432 512.067 359.273ZM510.022 359.273C510.022 357.761 509.769 356.486 509.263 355.446C508.763 354.406 508.085 353.619 507.227 353.085C506.374 352.551 505.42 352.284 504.363 352.284C503.306 352.284 502.349 352.551 501.491 353.085C500.638 353.619 499.96 354.406 499.454 355.446C498.954 356.486 498.704 357.761 498.704 359.273C498.704 360.784 498.954 362.06 499.454 363.099C499.96 364.139 500.638 364.926 501.491 365.46C502.349 365.994 503.306 366.261 504.363 366.261C505.42 366.261 506.374 365.994 507.227 365.46C508.085 364.926 508.763 364.139 509.263 363.099C509.769 362.06 510.022 360.784 510.022 359.273ZM529.667 356H527.553C527.428 355.392 527.21 354.858 526.897 354.398C526.59 353.938 526.215 353.551 525.772 353.239C525.335 352.92 524.849 352.682 524.315 352.523C523.781 352.364 523.224 352.284 522.644 352.284C521.587 352.284 520.63 352.551 519.772 353.085C518.92 353.619 518.241 354.406 517.735 355.446C517.235 356.486 516.985 357.761 516.985 359.273C516.985 360.784 517.235 362.06 517.735 363.099C518.241 364.139 518.92 364.926 519.772 365.46C520.63 365.994 521.587 366.261 522.644 366.261C523.224 366.261 523.781 366.182 524.315 366.023C524.849 365.864 525.335 365.628 525.772 365.315C526.215 364.997 526.59 364.608 526.897 364.148C527.21 363.682 527.428 363.148 527.553 362.545H529.667C529.508 363.437 529.218 364.236 528.798 364.94C528.377 365.645 527.854 366.244 527.229 366.739C526.604 367.227 525.903 367.599 525.124 367.855C524.352 368.111 523.525 368.239 522.644 368.239C521.156 368.239 519.832 367.875 518.673 367.148C517.513 366.42 516.602 365.386 515.937 364.045C515.272 362.705 514.94 361.114 514.94 359.273C514.94 357.432 515.272 355.841 515.937 354.5C516.602 353.159 517.513 352.125 518.673 351.398C519.832 350.67 521.156 350.307 522.644 350.307C523.525 350.307 524.352 350.435 525.124 350.69C525.903 350.946 526.604 351.321 527.229 351.815C527.854 352.304 528.377 352.901 528.798 353.605C529.218 354.304 529.508 355.102 529.667 356ZM532.128 352.42V350.545H545.219V352.42H539.73V368H537.616V352.42H532.128ZM547.158 368H544.942L551.351 350.545H553.533L559.942 368H557.726L552.51 353.307H552.374L547.158 368ZM547.976 361.182H556.908V363.057H547.976V361.182ZM568.251 368.239C567.126 368.239 566.124 368.045 565.243 367.659C564.368 367.273 563.672 366.736 563.155 366.048C562.643 365.355 562.365 364.551 562.32 363.636H564.467C564.513 364.199 564.706 364.685 565.047 365.094C565.388 365.497 565.834 365.81 566.385 366.031C566.936 366.253 567.547 366.364 568.217 366.364C568.967 366.364 569.632 366.233 570.212 365.972C570.791 365.71 571.246 365.347 571.575 364.881C571.905 364.415 572.07 363.875 572.07 363.261C572.07 362.619 571.911 362.054 571.592 361.565C571.274 361.071 570.808 360.685 570.195 360.406C569.581 360.128 568.831 359.989 567.945 359.989H566.547V358.114H567.945C568.638 358.114 569.246 357.989 569.768 357.739C570.297 357.489 570.709 357.136 571.004 356.682C571.305 356.227 571.456 355.693 571.456 355.08C571.456 354.489 571.325 353.974 571.064 353.537C570.803 353.099 570.433 352.759 569.956 352.514C569.484 352.27 568.928 352.148 568.286 352.148C567.683 352.148 567.115 352.259 566.581 352.48C566.053 352.696 565.621 353.011 565.286 353.426C564.95 353.835 564.768 354.33 564.74 354.909H562.695C562.729 353.994 563.004 353.193 563.521 352.506C564.038 351.812 564.714 351.273 565.55 350.886C566.391 350.5 567.314 350.307 568.32 350.307C569.399 350.307 570.325 350.526 571.098 350.963C571.871 351.395 572.464 351.966 572.879 352.676C573.294 353.386 573.501 354.153 573.501 354.977C573.501 355.96 573.243 356.798 572.726 357.491C572.214 358.185 571.518 358.665 570.638 358.932V359.068C571.74 359.25 572.601 359.719 573.22 360.474C573.839 361.224 574.149 362.153 574.149 363.261C574.149 364.21 573.891 365.062 573.374 365.818C572.862 366.568 572.163 367.159 571.277 367.591C570.391 368.023 569.382 368.239 568.251 368.239Z" fill="#373844"></path> <path d="M743.762 343.227V337.125H744.887C745.273 336.773 745.637 336.276 745.978 335.634C746.325 334.986 746.617 334.122 746.856 333.043C747.1 331.957 747.262 330.58 747.342 328.909L747.717 321.545H758.08V337.125H760.092V343.193H758.08V339H745.773V343.227H743.762ZM747.41 337.125H756.069V323.42H749.626L749.353 328.909C749.285 330.182 749.165 331.335 748.995 332.369C748.825 333.398 748.606 334.31 748.339 335.105C748.072 335.895 747.762 336.568 747.41 337.125ZM763.286 321.545H765.365V335.284H765.536L775.081 321.545H777.126V339H775.013V325.295H774.842L765.331 339H763.286V321.545ZM787.356 323.625H790.117C791.413 323.625 792.563 323.915 793.569 324.494C794.575 325.074 795.364 325.881 795.938 326.915C796.512 327.949 796.799 329.148 796.799 330.511C796.799 331.875 796.512 333.077 795.938 334.116C795.364 335.156 794.575 335.969 793.569 336.554C792.563 337.139 791.413 337.432 790.117 337.432H787.356C786.06 337.432 784.91 337.142 783.904 336.562C782.898 335.983 782.109 335.176 781.535 334.142C780.961 333.108 780.674 331.909 780.674 330.545C780.674 329.182 780.961 327.98 781.535 326.94C782.109 325.901 782.898 325.088 783.904 324.503C784.91 323.918 786.06 323.625 787.356 323.625ZM787.356 325.5C786.367 325.5 785.532 325.707 784.85 326.122C784.174 326.537 783.66 327.122 783.308 327.878C782.961 328.634 782.788 329.523 782.788 330.545C782.788 331.557 782.961 332.438 783.308 333.188C783.66 333.938 784.174 334.52 784.85 334.935C785.532 335.349 786.367 335.557 787.356 335.557H790.117C791.106 335.557 791.938 335.349 792.614 334.935C793.296 334.52 793.81 333.935 794.157 333.179C794.509 332.423 794.685 331.534 794.685 330.511C794.685 329.5 794.509 328.619 794.157 327.869C793.81 327.119 793.296 326.537 792.614 326.122C791.938 325.707 791.106 325.5 790.117 325.5H787.356ZM789.81 321.239V339.716H787.697V321.239H789.81ZM806.34 323.625H809.102C810.397 323.625 811.548 323.915 812.553 324.494C813.559 325.074 814.349 325.881 814.923 326.915C815.496 327.949 815.783 329.148 815.783 330.511C815.783 331.875 815.496 333.077 814.923 334.116C814.349 335.156 813.559 335.969 812.553 336.554C811.548 337.139 810.397 337.432 809.102 337.432H806.34C805.045 337.432 803.894 337.142 802.888 336.562C801.883 335.983 801.093 335.176 800.519 334.142C799.945 333.108 799.658 331.909 799.658 330.545C799.658 329.182 799.945 327.98 800.519 326.94C801.093 325.901 801.883 325.088 802.888 324.503C803.894 323.918 805.045 323.625 806.34 323.625ZM806.34 325.5C805.352 325.5 804.516 325.707 803.835 326.122C803.158 326.537 802.644 327.122 802.292 327.878C801.945 328.634 801.772 329.523 801.772 330.545C801.772 331.557 801.945 332.438 802.292 333.188C802.644 333.938 803.158 334.52 803.835 334.935C804.516 335.349 805.352 335.557 806.34 335.557H809.102C810.09 335.557 810.923 335.349 811.599 334.935C812.281 334.52 812.795 333.935 813.141 333.179C813.494 332.423 813.67 331.534 813.67 330.511C813.67 329.5 813.494 328.619 813.141 327.869C812.795 327.119 812.281 326.537 811.599 326.122C810.923 325.707 810.09 325.5 809.102 325.5H806.34ZM808.795 321.239V339.716H806.681V321.239H808.795ZM819.325 339V321.545H829.859V323.42H821.438V329.318H829.313V331.193H821.438V337.125H829.995V339H819.325ZM833.668 339V321.545H839.566C840.935 321.545 842.055 321.793 842.924 322.287C843.799 322.776 844.447 323.438 844.867 324.273C845.288 325.108 845.498 326.04 845.498 327.068C845.498 328.097 845.288 329.031 844.867 329.872C844.452 330.713 843.81 331.384 842.941 331.884C842.072 332.378 840.958 332.625 839.6 332.625H835.373V330.75H839.532C840.469 330.75 841.222 330.588 841.79 330.264C842.359 329.94 842.771 329.503 843.026 328.952C843.288 328.395 843.418 327.767 843.418 327.068C843.418 326.369 843.288 325.744 843.026 325.193C842.771 324.642 842.356 324.21 841.782 323.898C841.208 323.58 840.447 323.42 839.498 323.42H835.782V339H833.668ZM848.903 339V321.545H859.437V323.42H851.016V329.318H858.891V331.193H851.016V337.125H859.573V339H848.903ZM863.246 339V321.545H865.36V329.318H874.667V321.545H876.781V339H874.667V331.193H865.36V339H863.246ZM895.842 336.989L895.603 343.125H893.421V339H892.194V336.989H895.842ZM881.012 339V321.545H883.023V337.057H892.023V321.545H894.035V339H881.012ZM899.036 321.545H901.115V335.284H901.286L910.831 321.545H912.876V339H910.763V325.295H910.592L901.081 339H899.036V321.545ZM917.106 339V321.545H923.004C924.373 321.545 925.492 321.793 926.362 322.287C927.237 322.776 927.884 323.438 928.305 324.273C928.725 325.108 928.935 326.04 928.935 327.068C928.935 328.097 928.725 329.031 928.305 329.872C927.89 330.713 927.248 331.384 926.379 331.884C925.509 332.378 924.396 332.625 923.038 332.625H918.81V330.75H922.969C923.907 330.75 924.66 330.588 925.228 330.264C925.796 329.94 926.208 329.503 926.464 328.952C926.725 328.395 926.856 327.767 926.856 327.068C926.856 326.369 926.725 325.744 926.464 325.193C926.208 324.642 925.793 324.21 925.219 323.898C924.646 323.58 923.884 323.42 922.935 323.42H919.219V339H917.106ZM947.067 330.273C947.067 332.114 946.735 333.705 946.07 335.045C945.406 336.386 944.494 337.42 943.335 338.148C942.175 338.875 940.852 339.239 939.363 339.239C937.874 339.239 936.55 338.875 935.391 338.148C934.232 337.42 933.32 336.386 932.656 335.045C931.991 333.705 931.658 332.114 931.658 330.273C931.658 328.432 931.991 326.841 932.656 325.5C933.32 324.159 934.232 323.125 935.391 322.398C936.55 321.67 937.874 321.307 939.363 321.307C940.852 321.307 942.175 321.67 943.335 322.398C944.494 323.125 945.406 324.159 946.07 325.5C946.735 326.841 947.067 328.432 947.067 330.273ZM945.022 330.273C945.022 328.761 944.769 327.486 944.263 326.446C943.763 325.406 943.085 324.619 942.227 324.085C941.374 323.551 940.42 323.284 939.363 323.284C938.306 323.284 937.349 323.551 936.491 324.085C935.638 324.619 934.96 325.406 934.454 326.446C933.954 327.486 933.704 328.761 933.704 330.273C933.704 331.784 933.954 333.06 934.454 334.099C934.96 335.139 935.638 335.926 936.491 336.46C937.349 336.994 938.306 337.261 939.363 337.261C940.42 337.261 941.374 336.994 942.227 336.46C943.085 335.926 943.763 335.139 944.263 334.099C944.769 333.06 945.022 331.784 945.022 330.273ZM950.621 339V321.545H956.724C957.94 321.545 958.942 321.756 959.732 322.176C960.522 322.591 961.11 323.151 961.496 323.855C961.883 324.554 962.076 325.33 962.076 326.182C962.076 326.932 961.942 327.551 961.675 328.04C961.414 328.528 961.067 328.915 960.636 329.199C960.21 329.483 959.746 329.693 959.246 329.83V330C959.781 330.034 960.317 330.222 960.857 330.562C961.397 330.903 961.849 331.392 962.212 332.028C962.576 332.665 962.758 333.443 962.758 334.364C962.758 335.239 962.559 336.026 962.161 336.724C961.763 337.423 961.136 337.977 960.278 338.386C959.42 338.795 958.303 339 956.928 339H950.621ZM952.735 337.125H956.928C958.309 337.125 959.289 336.858 959.869 336.324C960.454 335.784 960.746 335.131 960.746 334.364C960.746 333.773 960.596 333.227 960.295 332.727C959.994 332.222 959.565 331.818 959.008 331.517C958.451 331.21 957.792 331.057 957.031 331.057H952.735V337.125ZM952.735 329.216H956.656C957.292 329.216 957.866 329.091 958.377 328.841C958.894 328.591 959.303 328.239 959.604 327.784C959.911 327.33 960.065 326.795 960.065 326.182C960.065 325.415 959.798 324.764 959.263 324.23C958.729 323.69 957.883 323.42 956.724 323.42H952.735V329.216ZM976.492 339L970.492 330.989H968.344V339H966.231V321.545H968.344V329.114H969.265L976.254 321.545H978.776L971.719 329.216L979.015 339H976.492ZM982.462 339H980.246L986.656 321.545H988.837L995.246 339H993.031L987.815 324.307H987.678L982.462 339ZM983.281 332.182H992.212V334.057H983.281V332.182ZM793.62 356H791.506C791.381 355.392 791.163 354.858 790.85 354.398C790.543 353.938 790.168 353.551 789.725 353.239C789.288 352.92 788.802 352.682 788.268 352.523C787.734 352.364 787.177 352.284 786.597 352.284C785.54 352.284 784.583 352.551 783.725 353.085C782.873 353.619 782.194 354.406 781.688 355.446C781.188 356.486 780.938 357.761 780.938 359.273C780.938 360.784 781.188 362.06 781.688 363.099C782.194 364.139 782.873 364.926 783.725 365.46C784.583 365.994 785.54 366.261 786.597 366.261C787.177 366.261 787.734 366.182 788.268 366.023C788.802 365.864 789.288 365.628 789.725 365.315C790.168 364.997 790.543 364.608 790.85 364.148C791.163 363.682 791.381 363.148 791.506 362.545H793.62C793.461 363.437 793.171 364.236 792.751 364.94C792.33 365.645 791.808 366.244 791.183 366.739C790.558 367.227 789.856 367.599 789.077 367.855C788.305 368.111 787.478 368.239 786.597 368.239C785.109 368.239 783.785 367.875 782.626 367.148C781.467 366.42 780.555 365.386 779.89 364.045C779.225 362.705 778.893 361.114 778.893 359.273C778.893 357.432 779.225 355.841 779.89 354.5C780.555 353.159 781.467 352.125 782.626 351.398C783.785 350.67 785.109 350.307 786.597 350.307C787.478 350.307 788.305 350.435 789.077 350.69C789.856 350.946 790.558 351.321 791.183 351.815C791.808 352.304 792.33 352.901 792.751 353.605C793.171 354.304 793.461 355.102 793.62 356ZM797.036 350.545H799.115V364.284H799.286L808.831 350.545H810.876V368H808.763V354.295H808.592L799.081 368H797.036V350.545ZM815.106 368V350.545H817.219V358.318H826.526V350.545H828.64V368H826.526V360.193H817.219V368H815.106ZM831.917 352.42V350.545H845.008V352.42H839.519V368H837.406V352.42H831.917ZM848.27 368V350.545H858.804V352.42H850.384V358.318H858.259V360.193H850.384V366.125H858.94V368H848.27ZM868.205 368.239C867.08 368.239 866.077 368.045 865.196 367.659C864.321 367.273 863.625 366.736 863.108 366.048C862.597 365.355 862.318 364.551 862.273 363.636H864.42C864.466 364.199 864.659 364.685 865 365.094C865.341 365.497 865.787 365.81 866.338 366.031C866.889 366.253 867.5 366.364 868.17 366.364C868.92 366.364 869.585 366.233 870.165 365.972C870.744 365.71 871.199 365.347 871.528 364.881C871.858 364.415 872.023 363.875 872.023 363.261C872.023 362.619 871.864 362.054 871.545 361.565C871.227 361.071 870.761 360.685 870.148 360.406C869.534 360.128 868.784 359.989 867.898 359.989H866.5V358.114H867.898C868.591 358.114 869.199 357.989 869.722 357.739C870.25 357.489 870.662 357.136 870.957 356.682C871.259 356.227 871.409 355.693 871.409 355.08C871.409 354.489 871.278 353.974 871.017 353.537C870.756 353.099 870.386 352.759 869.909 352.514C869.438 352.27 868.881 352.148 868.239 352.148C867.636 352.148 867.068 352.259 866.534 352.48C866.006 352.696 865.574 353.011 865.239 353.426C864.903 353.835 864.722 354.33 864.693 354.909H862.648C862.682 353.994 862.957 353.193 863.474 352.506C863.991 351.812 864.668 351.273 865.503 350.886C866.344 350.5 867.267 350.307 868.273 350.307C869.352 350.307 870.278 350.526 871.051 350.963C871.824 351.395 872.418 351.966 872.832 352.676C873.247 353.386 873.455 354.153 873.455 354.977C873.455 355.96 873.196 356.798 872.679 357.491C872.168 358.185 871.472 358.665 870.591 358.932V359.068C871.693 359.25 872.554 359.719 873.173 360.474C873.793 361.224 874.102 362.153 874.102 363.261C874.102 364.21 873.844 365.062 873.327 365.818C872.815 366.568 872.116 367.159 871.23 367.591C870.344 368.023 869.335 368.239 868.205 368.239ZM884.645 368V350.545H895.179V352.42H886.759V357.875H891.19C892.44 357.875 893.494 358.08 894.352 358.489C895.216 358.898 895.869 359.474 896.312 360.219C896.761 360.963 896.986 361.841 896.986 362.852C896.986 363.864 896.761 364.756 896.312 365.528C895.869 366.301 895.216 366.906 894.352 367.344C893.494 367.781 892.44 368 891.19 368H884.645ZM886.759 366.159H891.19C891.986 366.159 892.659 366 893.21 365.682C893.767 365.358 894.188 364.943 894.472 364.438C894.761 363.926 894.906 363.386 894.906 362.818C894.906 361.983 894.585 361.264 893.943 360.662C893.301 360.054 892.384 359.75 891.19 359.75H886.759V366.159ZM900.465 368V350.545H910.999V352.42H902.579V358.318H910.454V360.193H902.579V366.125H911.136V368H900.465ZM913.309 368V366.057H913.82C914.548 366.057 915.113 365.824 915.516 365.358C915.92 364.892 916.21 364.139 916.386 363.099C916.567 362.06 916.69 360.682 916.752 358.966L917.059 350.545H927.695V368H925.582V352.42H919.07L918.798 359.375C918.729 361.205 918.562 362.761 918.295 364.045C918.028 365.33 917.559 366.31 916.888 366.986C916.218 367.662 915.241 368 913.957 368H913.309ZM942.18 368L936.18 359.989H934.032V368H931.918V350.545H934.032V358.114H934.952L941.941 350.545H944.464L937.407 358.216L944.702 368H942.18ZM948.15 368H945.934L952.343 350.545H954.525L960.934 368H958.718L953.502 353.307H953.366L948.15 368ZM948.968 361.182H957.9V363.057H948.968V361.182Z" fill="#373844"></path> <path d="M45.065 321.545V339H42.9514V323.42H34.1559V339H32.0423V321.545H45.065ZM49.3285 339V321.545H55.2262C56.5955 321.545 57.7148 321.793 58.5842 322.287C59.4592 322.776 60.1069 323.438 60.5273 324.273C60.9478 325.108 61.158 326.04 61.158 327.068C61.158 328.097 60.9478 329.031 60.5273 329.872C60.1126 330.713 59.4705 331.384 58.6012 331.884C57.7319 332.378 56.6183 332.625 55.2603 332.625H51.033V330.75H55.1921C56.1296 330.75 56.8825 330.588 57.4506 330.264C58.0188 329.94 58.4308 329.503 58.6864 328.952C58.9478 328.395 59.0785 327.767 59.0785 327.068C59.0785 326.369 58.9478 325.744 58.6864 325.193C58.4308 324.642 58.016 324.21 57.4421 323.898C56.8683 323.58 56.1069 323.42 55.158 323.42H51.4421V339H49.3285ZM79.2901 330.273C79.2901 332.114 78.9577 333.705 78.293 335.045C77.6282 336.386 76.7163 337.42 75.5572 338.148C74.3981 338.875 73.0742 339.239 71.5856 339.239C70.0969 339.239 68.7731 338.875 67.614 338.148C66.4549 337.42 65.543 336.386 64.8782 335.045C64.2134 333.705 63.881 332.114 63.881 330.273C63.881 328.432 64.2134 326.841 64.8782 325.5C65.543 324.159 66.4549 323.125 67.614 322.398C68.7731 321.67 70.0969 321.307 71.5856 321.307C73.0742 321.307 74.3981 321.67 75.5572 322.398C76.7163 323.125 77.6282 324.159 78.293 325.5C78.9577 326.841 79.2901 328.432 79.2901 330.273ZM77.2447 330.273C77.2447 328.761 76.9918 327.486 76.4862 326.446C75.9862 325.406 75.3072 324.619 74.4492 324.085C73.5969 323.551 72.6424 323.284 71.5856 323.284C70.5288 323.284 69.5714 323.551 68.7134 324.085C67.8612 324.619 67.1822 325.406 66.6765 326.446C66.1765 327.486 65.9265 328.761 65.9265 330.273C65.9265 331.784 66.1765 333.06 66.6765 334.099C67.1822 335.139 67.8612 335.926 68.7134 336.46C69.5714 336.994 70.5288 337.261 71.5856 337.261C72.6424 337.261 73.5969 336.994 74.4492 336.46C75.3072 335.926 75.9862 335.139 76.4862 334.099C76.9918 333.06 77.2447 331.784 77.2447 330.273ZM81.3441 339V337.057H81.8555C82.5827 337.057 83.1481 336.824 83.5515 336.358C83.9549 335.892 84.2447 335.139 84.4208 334.099C84.6026 333.06 84.7248 331.682 84.7873 329.966L85.0941 321.545H95.7305V339H93.6168V323.42H87.1055L86.8327 330.375C86.7646 332.205 86.5969 333.761 86.3299 335.045C86.0629 336.33 85.5941 337.31 84.9237 337.986C84.2532 338.662 83.2759 339 81.9918 339H81.3441ZM99.9535 321.545H102.033V335.284H102.203L111.749 321.545H113.794V339H111.681V325.295H111.51L101.999 339H99.9535V321.545ZM124.024 323.625H126.785C128.081 323.625 129.231 323.915 130.237 324.494C131.243 325.074 132.032 325.881 132.606 326.915C133.18 327.949 133.467 329.148 133.467 330.511C133.467 331.875 133.18 333.077 132.606 334.116C132.032 335.156 131.243 335.969 130.237 336.554C129.231 337.139 128.081 337.432 126.785 337.432H124.024C122.728 337.432 121.578 337.142 120.572 336.562C119.566 335.983 118.777 335.176 118.203 334.142C117.629 333.108 117.342 331.909 117.342 330.545C117.342 329.182 117.629 327.98 118.203 326.94C118.777 325.901 119.566 325.088 120.572 324.503C121.578 323.918 122.728 323.625 124.024 323.625ZM124.024 325.5C123.035 325.5 122.2 325.707 121.518 326.122C120.842 326.537 120.328 327.122 119.975 327.878C119.629 328.634 119.456 329.523 119.456 330.545C119.456 331.557 119.629 332.438 119.975 333.188C120.328 333.938 120.842 334.52 121.518 334.935C122.2 335.349 123.035 335.557 124.024 335.557H126.785C127.774 335.557 128.606 335.349 129.282 334.935C129.964 334.52 130.478 333.935 130.825 333.179C131.177 332.423 131.353 331.534 131.353 330.511C131.353 329.5 131.177 328.619 130.825 327.869C130.478 327.119 129.964 326.537 129.282 326.122C128.606 325.707 127.774 325.5 126.785 325.5H124.024ZM126.478 321.239V339.716H124.365V321.239H126.478ZM137.008 339V321.545H147.542V323.42H139.122V329.318H146.997V331.193H139.122V337.125H147.679V339H137.008ZM151.352 339V321.545H157.25C158.619 321.545 159.738 321.793 160.608 322.287C161.483 322.776 162.13 323.438 162.551 324.273C162.971 325.108 163.181 326.04 163.181 327.068C163.181 328.097 162.971 329.031 162.551 329.872C162.136 330.713 161.494 331.384 160.625 331.884C159.755 332.378 158.642 332.625 157.284 332.625H153.056V330.75H157.216C158.153 330.75 158.906 330.588 159.474 330.264C160.042 329.94 160.454 329.503 160.71 328.952C160.971 328.395 161.102 327.767 161.102 327.068C161.102 326.369 160.971 325.744 160.71 325.193C160.454 324.642 160.039 324.21 159.466 323.898C158.892 323.58 158.13 323.42 157.181 323.42H153.466V339H151.352ZM165.521 339H163.305L169.714 321.545H171.896L178.305 339H176.089L170.873 324.307H170.737L165.521 339ZM166.339 332.182H175.271V334.057H166.339V332.182ZM195.853 336.989L195.615 343.125H193.433V339H192.206V336.989H195.853ZM181.024 339V321.545H183.035V337.057H192.035V321.545H194.047V339H181.024ZM199.047 321.545H201.127V335.284H201.297L210.843 321.545H212.888V339H210.775V325.295H210.604L201.093 339H199.047V321.545ZM228.981 339H226.868V323.42H223.152C222.208 323.42 221.45 323.565 220.876 323.855C220.302 324.139 219.885 324.543 219.623 325.065C219.362 325.588 219.231 326.199 219.231 326.898C219.231 327.597 219.359 328.199 219.615 328.705C219.876 329.205 220.291 329.591 220.859 329.864C221.433 330.136 222.186 330.273 223.118 330.273H227.822V332.182H223.049C221.697 332.182 220.586 331.957 219.717 331.509C218.848 331.054 218.203 330.429 217.782 329.634C217.362 328.838 217.152 327.926 217.152 326.898C217.152 325.869 217.362 324.952 217.782 324.145C218.203 323.338 218.85 322.705 219.725 322.244C220.6 321.778 221.72 321.545 223.083 321.545H228.981V339ZM220.765 331.159H223.152L218.924 339H216.47L220.765 331.159ZM88.7855 350.545H91.3082L97.2401 365.034H97.4446L103.376 350.545H105.899V368H103.922V354.739H103.751L98.2969 368H96.3878L90.9332 354.739H90.7628V368H88.7855V350.545ZM110.137 350.545H112.217V364.284H112.387L121.933 350.545H123.978V368H121.864V354.295H121.694L112.183 368H110.137V350.545ZM127.253 352.42V350.545H140.344V352.42H134.855V368H132.741V352.42H127.253ZM157.607 359.273C157.607 361.114 157.274 362.705 156.609 364.045C155.945 365.386 155.033 366.42 153.874 367.148C152.714 367.875 151.391 368.239 149.902 368.239C148.413 368.239 147.089 367.875 145.93 367.148C144.771 366.42 143.859 365.386 143.195 364.045C142.53 362.705 142.197 361.114 142.197 359.273C142.197 357.432 142.53 355.841 143.195 354.5C143.859 353.159 144.771 352.125 145.93 351.398C147.089 350.67 148.413 350.307 149.902 350.307C151.391 350.307 152.714 350.67 153.874 351.398C155.033 352.125 155.945 353.159 156.609 354.5C157.274 355.841 157.607 357.432 157.607 359.273ZM155.561 359.273C155.561 357.761 155.308 356.486 154.803 355.446C154.303 354.406 153.624 353.619 152.766 353.085C151.913 352.551 150.959 352.284 149.902 352.284C148.845 352.284 147.888 352.551 147.03 353.085C146.178 353.619 145.499 354.406 144.993 355.446C144.493 356.486 144.243 357.761 144.243 359.273C144.243 360.784 144.493 362.06 144.993 363.099C145.499 364.139 146.178 364.926 147.03 365.46C147.888 365.994 148.845 366.261 149.902 366.261C150.959 366.261 151.913 365.994 152.766 365.46C153.624 364.926 154.303 364.139 154.803 363.099C155.308 362.06 155.561 360.784 155.561 359.273ZM166.751 368.239C165.626 368.239 164.624 368.045 163.743 367.659C162.868 367.273 162.172 366.736 161.655 366.048C161.143 365.355 160.865 364.551 160.82 363.636H162.967C163.013 364.199 163.206 364.685 163.547 365.094C163.888 365.497 164.334 365.81 164.885 366.031C165.436 366.253 166.047 366.364 166.717 366.364C167.467 366.364 168.132 366.233 168.712 365.972C169.291 365.71 169.746 365.347 170.075 364.881C170.405 364.415 170.57 363.875 170.57 363.261C170.57 362.619 170.411 362.054 170.092 361.565C169.774 361.071 169.308 360.685 168.695 360.406C168.081 360.128 167.331 359.989 166.445 359.989H165.047V358.114H166.445C167.138 358.114 167.746 357.989 168.268 357.739C168.797 357.489 169.209 357.136 169.504 356.682C169.805 356.227 169.956 355.693 169.956 355.08C169.956 354.489 169.825 353.974 169.564 353.537C169.303 353.099 168.933 352.759 168.456 352.514C167.984 352.27 167.428 352.148 166.786 352.148C166.183 352.148 165.615 352.259 165.081 352.48C164.553 352.696 164.121 353.011 163.786 353.426C163.45 353.835 163.268 354.33 163.24 354.909H161.195C161.229 353.994 161.504 353.193 162.021 352.506C162.538 351.812 163.214 351.273 164.05 350.886C164.891 350.5 165.814 350.307 166.82 350.307C167.899 350.307 168.825 350.526 169.598 350.963C170.371 351.395 170.964 351.966 171.379 352.676C171.794 353.386 172.001 354.153 172.001 354.977C172.001 355.96 171.743 356.798 171.226 357.491C170.714 358.185 170.018 358.665 169.138 358.932V359.068C170.24 359.25 171.101 359.719 171.72 360.474C172.339 361.224 172.649 362.153 172.649 363.261C172.649 364.21 172.391 365.062 171.874 365.818C171.362 366.568 170.663 367.159 169.777 367.591C168.891 368.023 167.882 368.239 166.751 368.239Z" fill="#373844"></path> <path d="M108.597 84.2188V77.767H109.747C110.139 77.4375 110.506 76.9687 110.847 76.3608C111.188 75.7528 111.477 74.9318 111.716 73.8977C111.955 72.8636 112.119 71.5369 112.21 69.9176L112.619 62.5455H123.384V77.767H125.361V84.1932H122.838V80H111.119V84.2188H108.597ZM112.849 77.767H120.861V64.8125H115.006L114.733 69.9176C114.659 71.1506 114.537 72.2585 114.366 73.2415C114.202 74.2244 113.989 75.0937 113.727 75.8494C113.472 76.5994 113.179 77.2386 112.849 77.767ZM128.246 80V62.5455H130.879V70.1307H139.581V62.5455H142.223V80H139.581V72.3892H130.879V80H128.246ZM156.413 80L150.55 72.1761H148.692V80H146.058V62.5455H148.692V69.9176H149.553L156.149 62.5455H159.362L152.382 70.3608L159.626 80H156.413Z" fill="#373844"></path> <path d="M284.73 126.06C284.565 125.543 284.344 125.08 284.065 124.67C283.793 124.256 283.466 123.903 283.085 123.614C282.705 123.318 282.27 123.094 281.781 122.94C281.298 122.787 280.767 122.71 280.188 122.71C279.205 122.71 278.318 122.963 277.528 123.469C276.739 123.974 276.114 124.716 275.653 125.693C275.199 126.665 274.972 127.855 274.972 129.264C274.972 130.679 275.202 131.875 275.662 132.852C276.122 133.83 276.753 134.571 277.554 135.077C278.355 135.582 279.267 135.835 280.29 135.835C281.239 135.835 282.065 135.642 282.77 135.256C283.48 134.869 284.028 134.324 284.415 133.619C284.807 132.909 285.003 132.074 285.003 131.114L285.685 131.241H280.69V129.068H287.551V131.054C287.551 132.52 287.239 133.793 286.614 134.872C285.994 135.946 285.136 136.776 284.04 137.361C282.949 137.946 281.699 138.239 280.29 138.239C278.71 138.239 277.324 137.875 276.131 137.148C274.943 136.42 274.017 135.389 273.352 134.054C272.688 132.713 272.355 131.122 272.355 129.281C272.355 127.889 272.548 126.639 272.935 125.531C273.321 124.423 273.864 123.483 274.562 122.71C275.267 121.932 276.094 121.338 277.043 120.929C277.997 120.514 279.04 120.307 280.17 120.307C281.114 120.307 281.991 120.446 282.804 120.724C283.622 121.003 284.349 121.398 284.986 121.909C285.628 122.42 286.159 123.028 286.58 123.733C287 124.432 287.284 125.207 287.432 126.06H284.73ZM290.656 138V136.091L296.562 129.972C297.192 129.307 297.712 128.724 298.121 128.224C298.536 127.719 298.846 127.239 299.05 126.784C299.255 126.33 299.357 125.847 299.357 125.335C299.357 124.756 299.221 124.256 298.948 123.835C298.675 123.409 298.303 123.082 297.832 122.855C297.36 122.622 296.829 122.506 296.238 122.506C295.613 122.506 295.067 122.634 294.602 122.889C294.136 123.145 293.778 123.506 293.528 123.972C293.278 124.437 293.153 124.983 293.153 125.608H290.638C290.638 124.545 290.883 123.616 291.371 122.821C291.86 122.026 292.531 121.409 293.383 120.972C294.235 120.528 295.204 120.307 296.289 120.307C297.386 120.307 298.352 120.526 299.187 120.963C300.028 121.395 300.684 121.986 301.156 122.736C301.627 123.48 301.863 124.321 301.863 125.259C301.863 125.906 301.741 126.54 301.496 127.159C301.258 127.778 300.84 128.469 300.244 129.23C299.647 129.986 298.817 130.903 297.755 131.983L294.286 135.614V135.741H302.144V138H290.656Z" fill="#373844"></path> <path d="M715.73 126.06C715.565 125.543 715.344 125.08 715.065 124.67C714.793 124.256 714.466 123.903 714.085 123.614C713.705 123.318 713.27 123.094 712.781 122.94C712.298 122.787 711.767 122.71 711.188 122.71C710.205 122.71 709.318 122.963 708.528 123.469C707.739 123.974 707.114 124.716 706.653 125.693C706.199 126.665 705.972 127.855 705.972 129.264C705.972 130.679 706.202 131.875 706.662 132.852C707.122 133.83 707.753 134.571 708.554 135.077C709.355 135.582 710.267 135.835 711.29 135.835C712.239 135.835 713.065 135.642 713.77 135.256C714.48 134.869 715.028 134.324 715.415 133.619C715.807 132.909 716.003 132.074 716.003 131.114L716.685 131.241H711.69V129.068H718.551V131.054C718.551 132.52 718.239 133.793 717.614 134.872C716.994 135.946 716.136 136.776 715.04 137.361C713.949 137.946 712.699 138.239 711.29 138.239C709.71 138.239 708.324 137.875 707.131 137.148C705.943 136.42 705.017 135.389 704.352 134.054C703.688 132.713 703.355 131.122 703.355 129.281C703.355 127.889 703.548 126.639 703.935 125.531C704.321 124.423 704.864 123.483 705.562 122.71C706.267 121.932 707.094 121.338 708.043 120.929C708.997 120.514 710.04 120.307 711.17 120.307C712.114 120.307 712.991 120.446 713.804 120.724C714.622 121.003 715.349 121.398 715.986 121.909C716.628 122.42 717.159 123.028 717.58 123.733C718 124.432 718.284 125.207 718.432 126.06H715.73ZM728.278 120.545V138H725.636V123.188H725.533L721.357 125.915V123.392L725.712 120.545H728.278Z" fill="#373844"></path> <path d="M881.06 76.8466L885.287 66.9091H887.486L882.006 80H880.114L874.744 66.9091H876.918L881.06 76.8466ZM876.21 66.9091V80H873.713V66.9091H876.21ZM885.977 80V66.9091H888.457V80H885.977ZM892.058 80V62.5455H898.28C899.638 62.5455 900.763 62.7926 901.655 63.2869C902.547 63.7812 903.214 64.4574 903.658 65.3153C904.101 66.1676 904.322 67.1278 904.322 68.196C904.322 69.2699 904.098 70.2358 903.649 71.0938C903.206 71.946 902.536 72.6222 901.638 73.1222C900.746 73.6165 899.624 73.8636 898.271 73.8636H893.993V71.6307H898.033C898.891 71.6307 899.587 71.483 900.121 71.1875C900.655 70.8864 901.047 70.4773 901.297 69.9602C901.547 69.4432 901.672 68.8551 901.672 68.196C901.672 67.5369 901.547 66.9517 901.297 66.4403C901.047 65.929 900.652 65.5284 900.112 65.2386C899.578 64.9489 898.874 64.804 897.999 64.804H894.692V80H892.058ZM907.41 80V62.5455H910.043V70.1307H918.745V62.5455H921.387V80H918.745V72.3892H910.043V80H907.41ZM935.577 80L929.714 72.1761H927.856V80H925.222V62.5455H927.856V69.9176H928.717L935.313 62.5455H938.526L931.546 70.3608L938.79 80H935.577Z" fill="#373844"></path> <path d="M804.597 84.2188V77.767H805.747C806.139 77.4375 806.506 76.9687 806.847 76.3608C807.188 75.7528 807.477 74.9318 807.716 73.8977C807.955 72.8636 808.119 71.5369 808.21 69.9176L808.619 62.5455H819.384V77.767H821.361V84.1932H818.838V80H807.119V84.2188H804.597ZM808.849 77.767H816.861V64.8125H811.006L810.733 69.9176C810.659 71.1506 810.537 72.2585 810.366 73.2415C810.202 74.2244 809.989 75.0937 809.727 75.8494C809.472 76.5994 809.179 77.2386 808.849 77.767ZM824.246 80V62.5455H826.879V70.1307H835.581V62.5455H838.223V80H835.581V72.3892H826.879V80H824.246ZM852.413 80L846.55 72.1761H844.692V80H842.058V62.5455H844.692V69.9176H845.553L852.149 62.5455H855.362L848.382 70.3608L855.626 80H852.413Z" fill="#373844"></path> <path d="M439.836 162.545V180H436.188V165.545H429.131V180H425.483V162.545H439.836ZM443.349 180V162.545H455.11V165.588H447.039V169.747H454.505V172.79H447.039V176.957H455.145V180H443.349ZM472.882 162.545V180H469.235V165.545H462.178V180H458.53V162.545H472.882ZM475.731 165.588V162.545H490.066V165.588H484.723V180H481.075V165.588H475.731ZM492.427 162.545H496.109V173.523H496.254L503.797 162.545H507.027V180H503.336V169.014H503.208L495.623 180H492.427V162.545ZM509.13 184.21V177.06H510.314C510.718 176.77 511.087 176.361 511.422 175.832C511.757 175.298 512.044 174.562 512.283 173.625C512.522 172.682 512.692 171.449 512.794 169.926L513.289 162.545H524.837V177.06H526.746V184.193H523.201V180H512.675V184.21H509.13ZM514.576 177.06H521.292V165.588H516.613L516.34 169.926C516.266 171.08 516.144 172.102 515.973 172.994C515.809 173.886 515.607 174.668 515.368 175.338C515.135 176.003 514.871 176.577 514.576 177.06ZM528.99 180V162.545H532.68V169.747H540.172V162.545H543.853V180H540.172V172.79H532.68V180H528.99ZM549.325 168.997H553.484C554.87 168.997 556.064 169.222 557.064 169.67C558.069 170.114 558.845 170.741 559.39 171.554C559.936 172.366 560.206 173.324 560.2 174.426C560.206 175.523 559.936 176.491 559.39 177.332C558.845 178.168 558.069 178.821 557.064 179.293C556.064 179.764 554.87 180 553.484 180H546.964V162.545H550.646V177.034H553.484C554.149 177.034 554.708 176.915 555.163 176.676C555.618 176.432 555.961 176.111 556.194 175.713C556.433 175.31 556.549 174.869 556.544 174.392C556.549 173.699 556.288 173.114 555.76 172.636C555.237 172.153 554.478 171.912 553.484 171.912H549.325V168.997ZM565.305 162.545V180H561.623V162.545H565.305ZM568.341 180V162.545H580.103V165.588H572.032V169.747H579.498V172.79H572.032V176.957H580.137V180H568.341ZM395.373 209V191.545H406.955V194.588H399.063V197.997H401.901C403.282 197.997 404.472 198.222 405.472 198.67C406.478 199.114 407.253 199.741 407.799 200.554C408.344 201.366 408.617 202.324 408.617 203.426C408.617 204.523 408.344 205.491 407.799 206.332C407.253 207.168 406.478 207.821 405.472 208.293C404.472 208.764 403.282 209 401.901 209H395.373ZM399.063 206.034H401.901C402.56 206.034 403.117 205.915 403.571 205.676C404.026 205.432 404.37 205.111 404.603 204.713C404.841 204.31 404.961 203.869 404.961 203.392C404.961 202.699 404.696 202.114 404.168 201.636C403.645 201.153 402.89 200.912 401.901 200.912H399.063V206.034ZM411.005 191.545H414.687V202.523H414.832L422.375 191.545H425.605V209H421.914V198.014H421.787L414.201 209H411.005V191.545ZM444.694 200.273C444.694 202.176 444.333 203.795 443.611 205.131C442.895 206.466 441.918 207.486 440.679 208.19C439.446 208.889 438.06 209.239 436.52 209.239C434.969 209.239 433.577 208.886 432.344 208.182C431.111 207.477 430.137 206.457 429.421 205.122C428.705 203.787 428.347 202.17 428.347 200.273C428.347 198.369 428.705 196.75 429.421 195.415C430.137 194.08 431.111 193.062 432.344 192.364C433.577 191.659 434.969 191.307 436.52 191.307C438.06 191.307 439.446 191.659 440.679 192.364C441.918 193.062 442.895 194.08 443.611 195.415C444.333 196.75 444.694 198.369 444.694 200.273ZM440.952 200.273C440.952 199.04 440.767 198 440.398 197.153C440.034 196.307 439.52 195.665 438.855 195.227C438.191 194.79 437.412 194.571 436.52 194.571C435.628 194.571 434.85 194.79 434.185 195.227C433.52 195.665 433.003 196.307 432.634 197.153C432.27 198 432.088 199.04 432.088 200.273C432.088 201.506 432.27 202.545 432.634 203.392C433.003 204.239 433.52 204.881 434.185 205.318C434.85 205.756 435.628 205.974 436.52 205.974C437.412 205.974 438.191 205.756 438.855 205.318C439.52 204.881 440.034 204.239 440.398 203.392C440.767 202.545 440.952 201.506 440.952 200.273ZM447.427 209V191.545H454.314C455.637 191.545 456.765 191.798 457.697 192.304C458.629 192.804 459.339 193.5 459.828 194.392C460.322 195.278 460.569 196.301 460.569 197.46C460.569 198.619 460.319 199.642 459.819 200.528C459.319 201.415 458.595 202.105 457.646 202.599C456.703 203.094 455.561 203.341 454.22 203.341H449.831V200.384H453.623C454.333 200.384 454.919 200.261 455.379 200.017C455.845 199.767 456.191 199.423 456.419 198.986C456.652 198.543 456.768 198.034 456.768 197.46C456.768 196.881 456.652 196.375 456.419 195.943C456.191 195.506 455.845 195.168 455.379 194.929C454.913 194.685 454.322 194.562 453.606 194.562H451.118V209H447.427ZM462.966 209V191.545H474.728V194.588H466.657V198.747H474.123V201.79H466.657V205.957H474.762V209H462.966ZM489.244 191.545V194.588H481.352V209H477.662V191.545H489.244ZM493.49 209.239V206.239H494.436C494.908 206.239 495.289 206.182 495.578 206.068C495.868 205.949 496.098 205.776 496.269 205.548C496.445 205.315 496.593 205.026 496.712 204.679L496.925 204.108L490.584 191.545H494.402L498.51 200.136L501.945 191.545H505.712L499.695 205.574C499.405 206.222 499.061 206.824 498.664 207.381C498.272 207.937 497.769 208.386 497.155 208.727C496.542 209.068 495.757 209.239 494.803 209.239H493.49ZM506.762 209V206.034L507.257 205.991C507.893 205.94 508.407 205.699 508.799 205.267C509.191 204.83 509.484 204.134 509.677 203.179C509.876 202.219 510.004 200.929 510.061 199.31L510.35 191.545H522.197V209H518.609V194.503H513.777L513.504 200.58C513.413 202.534 513.18 204.131 512.805 205.369C512.436 206.608 511.845 207.523 511.032 208.114C510.225 208.705 509.12 209 507.717 209H506.762ZM538.637 209H534.956V194.562H532.467C531.757 194.562 531.166 194.668 530.694 194.878C530.228 195.082 529.879 195.384 529.646 195.781C529.413 196.179 529.297 196.668 529.297 197.247C529.297 197.821 529.413 198.301 529.646 198.688C529.879 199.074 530.228 199.364 530.694 199.557C531.16 199.75 531.745 199.847 532.45 199.847H536.456V202.812H531.853C530.518 202.812 529.376 202.591 528.427 202.148C527.478 201.705 526.754 201.068 526.254 200.239C525.754 199.403 525.504 198.406 525.504 197.247C525.504 196.094 525.748 195.091 526.237 194.239C526.731 193.381 527.444 192.719 528.376 192.253C529.314 191.781 530.441 191.545 531.76 191.545H538.637V209ZM529.22 201.057H533.2L528.956 209H524.882L529.22 201.057ZM541.005 194.588V191.545H555.34V194.588H549.996V209H546.348V194.588H541.005ZM572.944 200.273C572.944 202.176 572.583 203.795 571.861 205.131C571.145 206.466 570.168 207.486 568.929 208.19C567.696 208.889 566.31 209.239 564.77 209.239C563.219 209.239 561.827 208.886 560.594 208.182C559.361 207.477 558.387 206.457 557.671 205.122C556.955 203.787 556.597 202.17 556.597 200.273C556.597 198.369 556.955 196.75 557.671 195.415C558.387 194.08 559.361 193.062 560.594 192.364C561.827 191.659 563.219 191.307 564.77 191.307C566.31 191.307 567.696 191.659 568.929 192.364C570.168 193.062 571.145 194.08 571.861 195.415C572.583 196.75 572.944 198.369 572.944 200.273ZM569.202 200.273C569.202 199.04 569.017 198 568.648 197.153C568.284 196.307 567.77 195.665 567.105 195.227C566.441 194.79 565.662 194.571 564.77 194.571C563.878 194.571 563.1 194.79 562.435 195.227C561.77 195.665 561.253 196.307 560.884 197.153C560.52 198 560.338 199.04 560.338 200.273C560.338 201.506 560.52 202.545 560.884 203.392C561.253 204.239 561.77 204.881 562.435 205.318C563.1 205.756 563.878 205.974 564.77 205.974C565.662 205.974 566.441 205.756 567.105 205.318C567.77 204.881 568.284 204.239 568.648 203.392C569.017 202.545 569.202 201.506 569.202 200.273ZM575.677 209V191.545H582.564C583.887 191.545 585.015 191.798 585.947 192.304C586.879 192.804 587.589 193.5 588.078 194.392C588.572 195.278 588.819 196.301 588.819 197.46C588.819 198.619 588.569 199.642 588.069 200.528C587.569 201.415 586.845 202.105 585.896 202.599C584.953 203.094 583.811 203.341 582.47 203.341H578.081V200.384H581.873C582.583 200.384 583.169 200.261 583.629 200.017C584.095 199.767 584.441 199.423 584.669 198.986C584.902 198.543 585.018 198.034 585.018 197.46C585.018 196.881 584.902 196.375 584.669 195.943C584.441 195.506 584.095 195.168 583.629 194.929C583.163 194.685 582.572 194.562 581.856 194.562H579.368V209H575.677ZM593.645 197.997H597.804C599.191 197.997 600.384 198.222 601.384 198.67C602.39 199.114 603.165 199.741 603.711 200.554C604.256 201.366 604.526 202.324 604.52 203.426C604.526 204.523 604.256 205.491 603.711 206.332C603.165 207.168 602.39 207.821 601.384 208.293C600.384 208.764 599.191 209 597.804 209H591.284V191.545H594.966V206.034H597.804C598.469 206.034 599.029 205.915 599.483 205.676C599.938 205.432 600.282 205.111 600.515 204.713C600.753 204.31 600.87 203.869 600.864 203.392C600.87 202.699 600.608 202.114 600.08 201.636C599.557 201.153 598.799 200.912 597.804 200.912H593.645V197.997ZM609.625 191.545V209H605.944V191.545H609.625Z" fill="#FEFBF6"></path> <circle opacity="0.5" cx="861.5" cy="196.5" r="99" fill="#EFEBEA" stroke="#373844" stroke-width="5"></circle> <circle opacity="0.5" cx="133.5" cy="196.5" r="99" fill="#EFEBEA" stroke="#373844" stroke-width="5"></circle> <circle opacity="0.5" cx="861.5" cy="196.5" r="90.5" fill="#EFEBEA"></circle> <circle opacity="0.5" cx="133.5" cy="196.5" r="90.5" fill="#EFEBEA"></circle> <circle opacity="0.5" cx="861.5" cy="196.5" r="58.5" fill="#373844"></circle> <circle opacity="0.5" cx="133.5" cy="196.5" r="58.5" fill="#373844"></circle> <path d="M854 237L835 227.627L854 218.253L835 208.88L854 199.507L835 190.133L854 180.76L835 171.387L854 162.013" stroke="white"></path> <path d="M835 162.013L854 171.387L835 180.76L854 190.133L835 199.507L854 208.88L835 218.253L854 227.626L835 237" stroke="white"></path> <path d="M121.333 249L102 239.605L121.333 230.21L102 220.815L121.333 211.42L102 202.025L121.333 192.63" stroke="white"></path> <path d="M102 192.63L121.333 202.025L102 211.42L121.333 220.815L102 230.21L121.333 239.605L102 249" stroke="white"></path> <path d="M160 249L140.667 239.605L160 230.21L140.667 220.815L160 211.42L140.667 202.025L160 192.63" stroke="white"></path> <path d="M140.667 192.63L160 202.025L140.667 211.42L160 220.815L140.667 230.21L160 239.605L140.667 249" stroke="white"></path> <path d="M140.667 192.631L121.333 183.526L140.667 174.421L121.333 165.315L140.667 156.21L121.333 147.105L140.667 138" stroke="white"></path> <path d="M121.333 138L140.667 147.105L121.333 156.21L140.667 165.315L121.333 174.421L140.667 183.526L121.333 192.631" stroke="white"></path> <path d="M870.577 237L876.443 236.236C881.851 235.532 881.917 227.727 876.522 226.931V226.931C871.172 226.143 871.172 218.426 876.522 217.638L877.5 217.493C883.015 216.68 883.015 208.724 877.5 207.911V207.911C871.985 207.098 871.985 199.142 877.5 198.329V198.329C883.015 197.516 883.015 189.56 877.5 188.747V188.747C871.985 187.934 871.985 179.978 877.5 179.164V179.164C883.015 178.351 883.015 170.395 877.5 169.582V169.582C871.985 168.769 871.985 160.813 877.5 160V160" stroke="white"></path> <path d="M503.75 258.5L503.75 297.5" stroke="#373844" stroke-linecap="round"></path> <path d="M483.5 281.676L503.375 297.688L523.25 281.676" stroke="#373844" stroke-linecap="round"></path> <circle cx="503" cy="278" r="32.5" stroke="#373844"></circle> <path d="M370.689 27.4347H367.502C367.411 26.9119 367.243 26.4489 366.999 26.0455C366.755 25.6364 366.451 25.2898 366.087 25.0057C365.723 24.7216 365.309 24.5085 364.843 24.3665C364.382 24.2188 363.885 24.1449 363.351 24.1449C362.402 24.1449 361.561 24.3835 360.828 24.8608C360.096 25.3324 359.522 26.0256 359.107 26.9403C358.692 27.8494 358.485 28.9602 358.485 30.2727C358.485 31.608 358.692 32.733 359.107 33.6477C359.527 34.5568 360.101 35.2443 360.828 35.7102C361.561 36.1705 362.4 36.4006 363.343 36.4006C363.865 36.4006 364.354 36.3324 364.809 36.196C365.269 36.054 365.681 35.8466 366.044 35.5739C366.414 35.3011 366.723 34.9659 366.973 34.5682C367.229 34.1705 367.405 33.7159 367.502 33.2045L370.689 33.2216C370.57 34.0511 370.311 34.8295 369.914 35.5568C369.522 36.2841 369.007 36.9261 368.371 37.483C367.735 38.0341 366.99 38.4659 366.138 38.7784C365.286 39.0852 364.34 39.2386 363.3 39.2386C361.766 39.2386 360.397 38.8835 359.192 38.1733C357.988 37.4631 357.039 36.4375 356.346 35.0966C355.652 33.7557 355.306 32.1477 355.306 30.2727C355.306 28.392 355.655 26.7841 356.354 25.4489C357.053 24.108 358.005 23.0824 359.209 22.3722C360.414 21.6619 361.777 21.3068 363.3 21.3068C364.272 21.3068 365.175 21.4432 366.01 21.7159C366.846 21.9886 367.59 22.3892 368.243 22.9176C368.897 23.4403 369.434 24.0824 369.854 24.8438C370.28 25.5994 370.559 26.4631 370.689 27.4347ZM372.818 24.196V21.5455H386.744V24.196H381.349V39H378.213V24.196H372.818ZM389.429 39V21.5455H395.974C397.315 21.5455 398.44 21.7955 399.349 22.2955C400.264 22.7955 400.954 23.483 401.42 24.358C401.892 25.2273 402.127 26.2159 402.127 27.3239C402.127 28.4432 401.892 29.4375 401.42 30.3068C400.949 31.1761 400.252 31.8608 399.332 32.3608C398.412 32.8551 397.278 33.1023 395.931 33.1023H391.593V30.5028H395.505C396.289 30.5028 396.931 30.3665 397.431 30.0938C397.931 29.821 398.301 29.446 398.539 28.9688C398.784 28.4915 398.906 27.9432 398.906 27.3239C398.906 26.7045 398.784 26.1591 398.539 25.6875C398.301 25.2159 397.929 24.8494 397.423 24.5881C396.923 24.321 396.278 24.1875 395.488 24.1875H392.591V39H389.429ZM420.471 30.2727C420.471 32.1534 420.118 33.7642 419.414 35.1051C418.715 36.4403 417.76 37.4631 416.55 38.1733C415.346 38.8835 413.979 39.2386 412.451 39.2386C410.922 39.2386 409.553 38.8835 408.343 38.1733C407.138 37.4574 406.184 36.4318 405.479 35.0966C404.78 33.7557 404.431 32.1477 404.431 30.2727C404.431 28.392 404.78 26.7841 405.479 25.4489C406.184 24.108 407.138 23.0824 408.343 22.3722C409.553 21.6619 410.922 21.3068 412.451 21.3068C413.979 21.3068 415.346 21.6619 416.55 22.3722C417.76 23.0824 418.715 24.108 419.414 25.4489C420.118 26.7841 420.471 28.392 420.471 30.2727ZM417.292 30.2727C417.292 28.9489 417.084 27.8324 416.669 26.9233C416.26 26.0085 415.692 25.3182 414.965 24.8523C414.238 24.3807 413.4 24.1449 412.451 24.1449C411.502 24.1449 410.664 24.3807 409.936 24.8523C409.209 25.3182 408.638 26.0085 408.223 26.9233C407.814 27.8324 407.61 28.9489 407.61 30.2727C407.61 31.5966 407.814 32.7159 408.223 33.6307C408.638 34.5398 409.209 35.2301 409.936 35.7017C410.664 36.1676 411.502 36.4006 412.451 36.4006C413.4 36.4006 414.238 36.1676 414.965 35.7017C415.692 35.2301 416.26 34.5398 416.669 33.6307C417.084 32.7159 417.292 31.5966 417.292 30.2727ZM423.46 21.5455H427.329L432.511 34.1932H432.716L437.897 21.5455H441.767V39H438.733V27.0085H438.571L433.747 38.9489H431.48L426.656 26.983H426.494V39H423.46V21.5455ZM447.451 39H444.076L450.221 21.5455H454.125L460.278 39H456.903L452.241 25.125H452.105L447.451 39ZM447.562 32.1562H456.767V34.696H447.562V32.1562ZM461.444 39V36.375L461.938 36.3494C462.608 36.3097 463.14 36.0682 463.532 35.625C463.929 35.1818 464.222 34.4687 464.409 33.4858C464.603 32.5028 464.73 31.1847 464.793 29.5312L465.083 21.5455H476.52V39H473.426V24.1449H468.032L467.759 30.5114C467.679 32.4205 467.469 34.0028 467.128 35.2585C466.793 36.5142 466.242 37.4517 465.475 38.071C464.713 38.6903 463.654 39 462.296 39H461.444ZM482.107 28.2869H486.539C487.874 28.2869 489.019 28.5057 489.973 28.9432C490.934 29.375 491.669 29.9858 492.181 30.7756C492.692 31.5653 492.948 32.4943 492.948 33.5625C492.948 34.6364 492.692 35.5824 492.181 36.4006C491.669 37.2131 490.934 37.8494 489.973 38.3097C489.019 38.7699 487.874 39 486.539 39H480.002V21.5455H483.172V36.4091H486.539C487.243 36.4091 487.84 36.2756 488.328 36.0085C488.817 35.7415 489.186 35.3892 489.436 34.9517C489.692 34.5142 489.82 34.0398 489.82 33.5284C489.82 32.7898 489.536 32.1619 488.968 31.6449C488.405 31.1222 487.596 30.8608 486.539 30.8608H482.107V28.2869ZM496.022 39V21.5455H499.184V28.9347H507.272V21.5455H510.443V39H507.272V31.5852H499.184V39H496.022ZM516.123 39H512.748L518.893 21.5455H522.797L528.95 39H525.575L520.913 25.125H520.777L516.123 39ZM516.234 32.1562H525.439V34.696H516.234V32.1562ZM544.135 39H540.965V24.1875H538.067C537.283 24.1875 536.638 24.304 536.132 24.5369C535.632 24.7642 535.26 25.0994 535.016 25.5426C534.777 25.9801 534.658 26.5085 534.658 27.1278C534.658 27.7472 534.777 28.2699 535.016 28.696C535.255 29.1165 535.624 29.4375 536.124 29.6591C536.63 29.875 537.272 29.983 538.05 29.983H542.294V32.608H537.624C536.283 32.608 535.152 32.3864 534.232 31.9432C533.311 31.4943 532.613 30.8608 532.135 30.0426C531.664 29.2187 531.428 28.2472 531.428 27.1278C531.428 26.0142 531.661 25.0398 532.127 24.2045C532.598 23.3636 533.292 22.7102 534.206 22.2443C535.121 21.7784 536.246 21.5455 537.581 21.5455H544.135V39ZM535.11 31.0909H538.561L534.317 39H530.789L535.11 31.0909ZM563.972 39L558.228 31.3722H556.676V39H553.515V21.5455H556.676V28.7216H557.469L563.674 21.5455H567.569L560.674 29.5057L567.867 39H563.972ZM568.881 39V36.375L569.375 36.3494C570.046 36.3097 570.577 36.0682 570.969 35.625C571.367 35.1818 571.659 34.4687 571.847 33.4858C572.04 32.5028 572.168 31.1847 572.23 29.5312L572.52 21.5455H583.958V39H580.864V24.1449H575.469L575.196 30.5114C575.117 32.4205 574.907 34.0028 574.566 35.2585C574.23 36.5142 573.679 37.4517 572.912 38.071C572.151 38.6903 571.091 39 569.733 39H568.881ZM587.405 39V21.5455H598.757V24.196H590.567V28.9347H598.169V31.5852H590.567V36.3494H598.826V39H587.405ZM601.216 24.196V21.5455H615.142V24.196H609.748V39H606.611V24.196H601.216ZM628.284 39L622.54 31.3722H620.989V39H617.827V21.5455H620.989V28.7216H621.782L627.986 21.5455H631.881L624.986 29.5057L632.179 39H628.284ZM636.569 39H633.194L639.338 21.5455H643.242L649.395 39H646.02L641.358 25.125H641.222L636.569 39ZM636.679 32.1562H645.884V34.696H636.679V32.1562Z" fill="#373844"></path> <path d="M476.25 83.5L476.25 122.5" stroke="#373844" stroke-linecap="round"></path> <path d="M456 106.676L475.875 122.688L495.75 106.676" stroke="#373844" stroke-linecap="round"></path> <path d="M532.5 122.688L532.5 83.6875" stroke="#373844" stroke-linecap="round"></path> <path d="M552.75 99.512L532.875 83.5L513 99.512" stroke="#373844" stroke-linecap="round"></path> <path d="M690 182.5L739.761 182.5" stroke="#373844" stroke-linecap="round"></path> <path d="M719.57 202.75L740 182.875L719.57 163" stroke="#373844" stroke-linecap="round"></path> <path d="M309 183.25L259.239 183.25" stroke="#373844" stroke-linecap="round"></path> <path d="M279.43 163L259 182.875L279.43 202.75" stroke="#373844" stroke-linecap="round"></path> <path d="M247.995 38.2856L220.418 65.8628" stroke="#373844" stroke-linecap="round"></path> <path d="M217.288 40.3545L220.02 65.7304L245.396 68.462" stroke="#373844" stroke-linecap="round"></path> <path d="M752.285 37.7554L779.862 65.3325" stroke="#373844" stroke-linecap="round"></path> <path d="M754.354 68.4616L779.73 65.73L782.461 40.3541" stroke="#373844" stroke-linecap="round"></path> </svg> 