<?xml version="1.0" encoding="UTF-8"?> <svg xmlns="http://www.w3.org/2000/svg" width="37" height="33" viewBox="0 0 37 33" fill="none"> <g clip-path="url(#clip0_54_1184)"> <path fill-rule="evenodd" clip-rule="evenodd" d="M3.11114 2.30541C0.548828 4.58543 0.548828 8.25504 0.548828 15.5943V16.8918C0.548828 24.2311 0.548828 27.9006 3.11114 30.1807C5.67345 32.4607 9.79739 32.4607 18.0454 32.4607H19.5034C27.7514 32.4607 31.8753 32.4607 34.4377 30.1807C37 27.9006 37 24.2311 37 16.8918V15.5943C37 8.25504 37 4.58543 34.4377 2.30541C31.8753 0.0253906 27.7514 0.0253906 19.5034 0.0253906H18.0454C9.79739 0.0253906 5.67345 0.0253906 3.11114 2.30541ZM6.70005 9.8912C6.89749 18.3244 11.6361 23.3924 19.9439 23.3924H20.4148V18.5677C23.4676 18.8379 25.776 20.8246 26.7025 23.3924H31.016C29.8313 19.5542 26.7176 17.4324 24.7736 16.6215C26.7176 15.6214 29.4515 13.1888 30.1045 9.8912H26.186C25.3354 12.5671 22.8145 14.9998 20.4148 15.2295V9.8912H16.4962V19.2434C14.0661 18.7028 10.9982 16.0809 10.8615 9.8912H6.70005Z" fill="#FEFBF6"></path> </g> <defs> <clipPath id="clip0_54_1184"> <rect width="36.4511" height="32.4353" fill="white" transform="translate(0.548828 0.0253906)"></rect> </clipPath> </defs> </svg> 