<?xml version="1.0" encoding="UTF-8"?> <svg xmlns="http://www.w3.org/2000/svg" width="220" height="220" viewBox="0 0 220 220" fill="none"> <path d="M110 0L112.581 93.7031L143.992 5.38378L117.491 95.2984L174.656 21.0081L121.667 98.3327L198.992 45.3436L124.702 102.509L214.616 76.0081L126.297 107.419L220 110L126.297 112.581L214.616 143.992L124.702 117.491L198.992 174.656L121.667 121.667L174.656 198.992L117.491 124.702L143.992 214.616L112.581 126.297L110 220L107.419 126.297L76.0081 214.616L102.509 124.702L45.3436 198.992L98.3327 121.667L21.0081 174.656L95.2984 117.491L5.38378 143.992L93.7031 112.581L0 110L93.7031 107.419L5.38378 76.0081L95.2984 102.509L21.0081 45.3436L98.3327 98.3327L45.3436 21.0081L102.509 95.2984L76.0081 5.38378L107.419 93.7031L110 0Z" fill="#FEFBF6"></path> </svg> 