<?xml version="1.0" encoding="UTF-8"?> <svg xmlns="http://www.w3.org/2000/svg" width="25" height="25" viewBox="0 0 25 25" fill="none"> <path d="M3.87329 12.3879C3.87329 11.3451 4.83232 10.5661 5.85302 10.7799L11.9472 12.0562C12.1667 12.1022 12.324 12.2958 12.324 12.5201C12.324 12.7519 12.1564 12.9497 11.9278 12.9877L5.78563 14.0086C4.78442 14.1751 3.87329 13.4029 3.87329 12.3879Z" fill="#515660"></path> <path d="M21.1267 12.612C21.1267 13.6548 20.1677 14.4338 19.147 14.22L13.0528 12.9436C12.8332 12.8977 12.676 12.7041 12.676 12.4798C12.676 12.248 12.8436 12.0502 13.0722 12.0122L19.2144 10.9913C20.2156 10.8248 21.1267 11.597 21.1267 12.612Z" fill="#515660"></path> <path d="M12.388 21.1267C11.3452 21.1267 10.5662 20.1677 10.78 19.147L12.0564 13.0528C12.1024 12.8332 12.2959 12.676 12.5203 12.676C12.752 12.676 12.9498 12.8436 12.9878 13.0722L14.0087 19.2144C14.1752 20.2156 13.403 21.1267 12.388 21.1267Z" fill="#515660"></path> <path d="M12.612 3.87317C13.6548 3.87317 14.4338 4.8322 14.22 5.8529L12.9436 11.9471C12.8977 12.1666 12.7041 12.3239 12.4798 12.3239C12.248 12.3239 12.0502 12.1563 12.0122 11.9276L10.9913 5.78551C10.8248 4.7843 11.597 3.87317 12.612 3.87317Z" fill="#515660"></path> <path d="M6.321 18.5208C5.5836 17.7834 5.71091 16.5545 6.58382 15.9839L11.7956 12.5772C11.9833 12.4545 12.2314 12.4802 12.39 12.6388C12.5539 12.8026 12.5752 13.061 12.4405 13.2495L8.81924 18.3146C8.22896 19.1403 7.03868 19.2385 6.321 18.5208Z" fill="#515660"></path> <path d="M18.679 6.47905C19.4164 7.21645 19.2891 8.44541 18.4162 9.01599L13.2044 12.4227C13.0167 12.5454 12.7686 12.5197 12.61 12.3611C12.4461 12.1972 12.4248 11.9389 12.5595 11.7503L16.1808 6.68526C16.771 5.85962 17.9613 5.76137 18.679 6.47905Z" fill="#515660"></path> <path d="M18.5207 18.6792C17.7833 19.4166 16.5543 19.2893 15.9838 18.4164L12.5771 13.2047C12.4543 13.0169 12.48 12.7688 12.6386 12.6102C12.8025 12.4463 13.0609 12.425 13.2494 12.5598L18.3145 16.181C19.1401 16.7713 19.2384 17.9616 18.5207 18.6792Z" fill="#515660"></path> <path d="M6.47929 6.32064C7.2167 5.58323 8.44565 5.71054 9.01624 6.58346L12.4229 11.7952C12.5457 11.983 12.52 12.2311 12.3614 12.3897C12.1975 12.5536 11.9391 12.5749 11.7506 12.4401L6.68551 8.81888C5.85986 8.22859 5.76161 7.03832 6.47929 6.32064Z" fill="#515660"></path> <circle cx="12.5" cy="12.5" r="11.75" stroke="#515660" stroke-width="1.5"></circle> </svg> 