<?xml version="1.0" encoding="UTF-8"?> <svg xmlns="http://www.w3.org/2000/svg" width="726" height="842" viewBox="0 0 726 842" fill="none"> <g clip-path="url(#clip0_553_149)"> <path d="M671 41H55C32.9086 41 15 58.9086 15 81V802C15 824.091 32.9086 842 55 842H671C693.091 842 711 824.091 711 802V81C711 58.9086 693.091 41 671 41Z" fill="#C79223"></path> </g> <g clip-path="url(#clip1_553_149)"> <path d="M686 0H40C17.9086 0 0 17.9086 0 40V769C0 791.091 17.9086 809 40 809H686C708.091 809 726 791.091 726 769V40C726 17.9086 708.091 0 686 0Z" fill="#FFD374"></path> </g> <defs> <clipPath id="clip0_553_149"> <rect width="696" height="801" fill="white" transform="translate(15 41)"></rect> </clipPath> <clipPath id="clip1_553_149"> <rect width="726" height="809" fill="white"></rect> </clipPath> </defs> </svg> 