<svg width="81" height="22" viewBox="0 0 81 22" fill="none" xmlns="http://www.w3.org/2000/svg">
<path fill-rule="evenodd" clip-rule="evenodd" d="M28.1039 8.87762C28.1039 11.314 28.3292 12.4047 28.4589 14.2746H24.7654C25.0249 13.2334 25.6393 12.4048 26.1923 11.5265C27.6533 8.98386 26.8409 9.34507 28.1039 8.87762ZM45.4992 4.25978L42.4544 18.0071C41.2528 22.7312 40.5428 21.9521 50.2918 21.9521C51.9099 21.9521 52.6267 16.5551 53.3367 13.545C54.0467 10.6412 54.7977 7.26988 55.4736 4.25978H60.6553C61.2083 3.11948 61.3995 1.82337 61.3995 0.0598081H42.154C40.693 0.0598081 40.3721 3.4807 40.5018 3.74275C41.0548 4.78389 44.1953 4.25978 45.4924 4.25978H45.4992ZM2.21563 21.9521H10.7017C12.19 19.6715 22.7856 1.92253 22.9153 0.0598081H18.4777C17.5083 2.02877 11.7735 12.6668 10.7017 13.4955L9.82781 2.91409C9.40453 -0.662616 10.6061 0.0598081 1.10965 0.0598081C-0.0577819 0.0598081 -0.0577818 0.683075 0.0377971 1.82337L2.2088 21.9521H2.21563ZM60.273 21.9521H75.0809C76.7945 21.9521 76.9242 19.5652 76.9242 17.6954H69.8924C70.0221 16.1373 70.6706 14.2179 70.9915 12.7164H75.8183C76.8218 8.14812 77.6616 8.51641 72.1248 8.51641C72.1589 7.06448 72.5754 5.50631 72.869 4.25978C78.4057 4.25978 81 5.81795 81 0.0598081H63.9938L59.4879 19.6715C59.2626 20.656 58.7096 21.9521 60.2662 21.9521H60.273ZM15.8902 21.9521H19.9728C20.5531 21.0172 21.5294 19.6148 21.8161 18.4745C23.3727 18.4745 26.3834 18.2691 27.7762 18.4249C31.0805 18.8428 27.5509 21.9521 30.3363 21.9521C40.7681 21.9521 38.9521 22.7312 38.4674 17.3342L36.6241 0.0598081H28.1039L21.9459 10.9528C21.0037 12.511 16.02 20.3443 15.8902 21.9521Z" fill="black"/>
</svg>
