<svg width="150" height="40" viewBox="0 0 150 40" fill="none" xmlns="http://www.w3.org/2000/svg">
<path fill-rule="evenodd" clip-rule="evenodd" d="M52.0442 16.1411C52.0442 20.571 52.4614 22.5541 52.7016 25.9537H45.8619C46.3423 24.0608 47.4802 22.5541 48.5042 20.9573C51.2098 16.3343 49.7053 16.991 52.0442 16.1411ZM84.2579 7.74505L78.6192 32.7401C76.3941 41.3294 75.0792 39.9129 93.133 39.9129C96.1294 39.9129 97.4569 30.1003 98.7717 24.6274C100.087 19.3476 101.477 13.218 102.729 7.74505H112.325C113.349 5.67179 113.703 3.31522 113.703 0.108742H78.0629C75.3574 0.108742 74.7632 6.32854 75.0034 6.805C76.0275 8.69798 81.8431 7.74505 84.2452 7.74505H84.2579ZM4.10302 39.9129H19.8179C22.574 35.7663 42.1955 3.4955 42.4357 0.108742H34.218C32.4227 3.68867 21.8028 23.0306 19.8179 24.5372L18.1997 5.29834C17.4158 -1.20476 19.6409 0.108742 2.0549 0.108742C-0.107004 0.108742 -0.107003 1.24196 0.0699947 3.31522L4.09038 39.9129H4.10302ZM111.617 39.9129H139.039C142.212 39.9129 142.452 35.5732 142.452 32.1735H129.43C129.671 29.3405 130.872 25.8507 131.466 23.1207H140.404C142.263 14.8148 143.818 15.4844 133.564 15.4844C133.628 12.8445 134.399 10.0115 134.943 7.74505C145.196 7.74505 150 10.5781 150 0.108742H118.507L110.163 35.7663C109.746 37.5563 108.722 39.9129 111.604 39.9129H111.617ZM29.4264 39.9129H36.9867C38.0614 38.213 39.8693 35.6633 40.4003 33.59C43.2828 33.59 48.8582 33.2166 51.4374 33.4999C57.5564 34.2597 51.0201 39.9129 56.1784 39.9129C75.4965 39.9129 72.1335 41.3294 71.2359 31.5168L67.8223 0.108742H52.0442L40.6405 19.9142C38.8958 22.7473 29.6666 36.9897 29.4264 39.9129Z" fill="black"/>
</svg>
