<svg width="45" height="46" viewBox="0 0 45 46" fill="none" xmlns="http://www.w3.org/2000/svg">
<path d="M18.4002 4.95351L16.2771 8.84584L19.8156 24.769L22.6464 27.5998L41.4003 22.9997L42.108 17.692L38.5695 4.24582L34.3233 1.41504L18.4002 4.95351Z" fill="url(#paint0_linear_1739_15921)"/>
<path d="M12.4002 30.702C12.6605 31.6437 13.6349 32.1965 14.5768 31.9363C15.5187 31.6761 16.0713 30.7015 15.811 29.7596L12.4002 30.702ZM2.24275 5.83731C1.30118 5.57607 0.326093 6.12759 0.0648515 7.06916C-0.19639 8.01075 0.355133 8.98584 1.29672 9.24709L2.24275 5.83731ZM42.3185 31.7888C43.2643 31.5433 43.8318 30.5772 43.586 29.6315C43.3402 28.6857 42.3744 28.1184 41.4287 28.3642L42.3185 31.7888ZM18.7497 36.1139C19.4801 38.7577 17.8768 41.5468 15.0368 42.285L15.9268 45.7098C20.5907 44.4977 23.4407 39.8061 22.1604 35.1717L18.7497 36.1139ZM15.0368 42.285C12.1782 43.0278 9.30978 41.3687 8.57326 38.7027L5.16245 39.6449C6.43662 44.2571 11.2813 46.9172 15.9268 45.7098L15.0368 42.285ZM8.57326 38.7027C7.8429 36.059 9.44609 33.2698 12.2861 32.5317L11.3961 29.1068C6.73214 30.3189 3.88213 35.0106 5.16245 39.6449L8.57326 38.7027ZM12.2861 32.5317C15.1447 31.7888 18.0131 33.448 18.7497 36.1139L22.1604 35.1717C20.8863 30.5595 16.0416 27.8997 11.3961 29.1068L12.2861 32.5317ZM15.811 29.7596L10.7338 11.3814L7.32294 12.3237L12.4002 30.702L15.811 29.7596ZM6.26187 6.95239L2.24275 5.83731L1.29672 9.24709L5.31584 10.3622L6.26187 6.95239ZM10.7338 11.3814C10.1366 9.21996 8.42486 7.55251 6.26187 6.95239L5.31584 10.3622C6.31983 10.6407 7.06753 11.3992 7.32294 12.3237L10.7338 11.3814ZM20.9 37.3552L42.3185 31.7888L41.4287 28.3642L20.0099 33.9304L20.9 37.3552Z" fill="black"/>
<path fill-rule="evenodd" clip-rule="evenodd" d="M33.6516 3.59619C32.5152 3.73822 31.0451 4.11661 28.8632 4.68366L28.8632 4.68366L24.3341 5.86069L24.3341 5.86069C22.1516 6.42786 20.684 6.81295 19.6278 7.24058C18.6136 7.65119 18.2395 8.00254 18.0332 8.34918C17.8317 8.68768 17.7086 9.15663 17.8461 10.1916C17.9909 11.2814 18.3776 12.6961 18.9634 14.8166L18.9634 14.8166L20.1769 19.2094C20.1769 19.2094 20.1769 19.2094 20.1769 19.2094C20.7625 21.3293 21.1571 22.7426 21.594 23.7579C22.0083 24.7204 22.3629 25.0829 22.7342 25.2909C23.1132 25.503 23.6344 25.6229 24.7233 25.4868C25.8597 25.3448 27.3299 24.9664 29.5117 24.3994L29.5118 24.3994L34.0409 23.2224C36.2234 22.6553 37.6909 22.2702 38.7471 21.8425C39.7612 21.4319 40.1352 21.0806 40.3415 20.7339L40.3417 20.7337C40.5432 20.3952 40.6663 19.9263 40.5288 18.8914C40.3841 17.8016 39.9974 16.3869 39.4115 14.2665L38.1978 9.87383L38.1978 9.87376C37.6121 7.75382 37.2176 6.34038 36.7806 5.32517C36.3664 4.36261 36.0118 4.00017 35.6406 3.79228L35.6405 3.79223C35.2617 3.5801 34.7406 3.46008 33.6516 3.59619ZM37.3694 0.704794C36.0665 -0.024882 34.6791 -0.0983441 33.2127 0.0849363C31.8198 0.259033 30.125 0.699541 28.0884 1.2289L27.9732 1.25885L27.9731 1.25885L23.444 2.43587C23.444 2.43587 23.444 2.43587 23.444 2.43587C23.4051 2.44598 23.3663 2.45606 23.3276 2.46611C21.2918 2.9951 19.5968 3.43555 18.2998 3.96063C16.9362 4.51271 15.7573 5.25447 14.9925 6.53918L14.9925 6.53918C14.223 7.83202 14.1465 9.21409 14.3383 10.6577C14.5192 12.0188 14.9756 13.6705 15.5193 15.6383L15.5526 15.7588L15.5526 15.7589L16.7661 20.1516L16.7661 20.1517L16.7992 20.2714C17.343 22.24 17.7991 23.8913 18.3437 25.1568C18.922 26.5004 19.6945 27.6443 21.0052 28.3783L21.0053 28.3784C22.3084 29.1079 23.6957 29.1814 25.1622 28.9981C26.5552 28.824 28.25 28.3835 30.2867 27.8541L30.4017 27.8242L30.4018 27.8242L34.9309 26.6473L34.9309 26.6472L35.0473 26.617C37.0831 26.088 38.7782 25.6476 40.0751 25.1225C41.4387 24.5703 42.6177 23.8285 43.3823 22.5436C44.1519 21.2509 44.2283 19.8689 44.0366 18.4254C43.8558 17.0643 43.3994 15.4126 42.8557 13.4449L42.8223 13.3242L42.8223 13.3241L41.6086 8.93147L41.6086 8.93141L41.5756 8.81196C41.0318 6.84316 40.5756 5.19174 40.031 3.92626C39.4527 2.58264 38.6802 1.4388 37.3695 0.704846" fill="black"/>
<defs>
<linearGradient id="paint0_linear_1739_15921" x1="29.1925" y1="1.41504" x2="29.1925" y2="27.5998" gradientUnits="userSpaceOnUse">
<stop stop-color="#FFEAA6"/>
<stop offset="0.35" stop-color="#EEDC7A"/>
<stop offset="0.69" stop-color="#DAAF41"/>
<stop offset="1" stop-color="#FFC737"/>
</linearGradient>
</defs>
</svg>
