<svg width="63" height="65" viewBox="0 0 63 65" fill="none" xmlns="http://www.w3.org/2000/svg">
<path d="M26 7L23 12.5L28 35L32 39L58.5 32.5L59.5 25L54.5 6L48.5 2L26 7Z" fill="url(#paint0_linear_581_2091)"/>
<path d="M17.522 43.3836C17.8897 44.7143 19.2667 45.4954 20.5976 45.1277C21.9285 44.76 22.7093 43.383 22.3416 42.0519L17.522 43.3836ZM3.16909 8.24886C1.83862 7.87972 0.460781 8.65904 0.0916377 9.98951C-0.277506 11.32 0.501816 12.6979 1.83232 13.067L3.16909 8.24886ZM59.7977 44.9193C61.134 44.5723 61.9361 43.2073 61.5887 41.8709C61.2414 40.5345 59.8767 39.7329 58.5403 40.0802L59.7977 44.9193ZM26.4941 51.0308C27.5261 54.7666 25.2606 58.7077 21.2475 59.7508L22.5052 64.5902C29.0955 62.8775 33.1226 56.248 31.3135 49.6995L26.4941 51.0308ZM21.2475 59.7508C17.2083 60.8005 13.1551 58.4561 12.1143 54.689L7.29474 56.0203C9.09519 62.5375 15.941 66.2963 22.5052 64.5902L21.2475 59.7508ZM12.1143 54.689C11.0823 50.9532 13.3477 47.0121 17.3608 45.969L16.1031 41.1296C9.51277 42.8423 5.48559 49.4718 7.29474 56.0203L12.1143 54.689ZM17.3608 45.969C21.4 44.9193 25.4532 47.2637 26.4941 51.0308L31.3135 49.6995C29.5131 43.1823 22.6673 39.4238 16.1031 41.1296L17.3608 45.969ZM22.3416 42.0519L15.1672 16.0829L10.3476 17.4144L17.522 43.3836L22.3416 42.0519ZM8.84825 9.82451L3.16909 8.24886L1.83232 13.067L7.51148 14.6426L8.84825 9.82451ZM15.1672 16.0829C14.3234 13.0287 11.9046 10.6725 8.84825 9.82451L7.51148 14.6426C8.93015 15.0363 9.98668 16.108 10.3476 17.4144L15.1672 16.0829ZM29.5325 52.7849L59.7977 44.9193L58.5403 40.0802L28.2748 47.9454L29.5325 52.7849Z" fill="black"/>
<path fill-rule="evenodd" clip-rule="evenodd" d="M47.5508 5.08156C45.945 5.28225 43.8677 5.81693 40.7846 6.61819L40.7846 6.61819L34.3848 8.28137L34.3848 8.28137C31.3008 9.08281 29.2271 9.62696 27.7346 10.2312C26.3016 10.8114 25.7729 11.3079 25.4814 11.7977C25.1966 12.276 25.0227 12.9387 25.217 14.4011C25.4216 15.941 25.9681 17.9401 26.7958 20.9364L26.7959 20.9364L28.5105 27.1436C28.5105 27.1436 28.5105 27.1436 28.5105 27.1436C29.3381 30.139 29.8956 32.1362 30.513 33.5708C31.0984 34.9309 31.5994 35.4431 32.1241 35.737C32.6596 36.0367 33.3962 36.2062 34.9348 36.0139C36.5406 35.8132 38.6179 35.2785 41.701 34.4772L41.7011 34.4772L48.1009 32.8142C51.1848 32.0127 53.2585 31.4686 54.7509 30.8643C56.1839 30.2841 56.7124 29.7877 57.0039 29.2978L57.0042 29.2975C57.2889 28.8192 57.4629 28.1566 57.2686 26.6942C57.064 25.1544 56.5176 23.1553 55.6898 20.159L53.9748 13.9521L53.9748 13.952C53.1472 10.9564 52.5897 8.95919 51.9723 7.52467C51.3869 6.16454 50.8859 5.6524 50.3613 5.35863L50.3612 5.35856C49.8259 5.05882 49.0896 4.88923 47.5508 5.08156ZM52.8042 0.995901C50.9631 -0.0351592 49.0027 -0.138964 46.9306 0.120018C44.9624 0.366023 42.5676 0.988478 39.6898 1.73649L39.527 1.7788L39.5269 1.77881L33.1271 3.44198C33.1271 3.44198 33.1271 3.44198 33.1271 3.44198C33.0721 3.45627 33.0173 3.47051 32.9627 3.48471C30.086 4.23219 27.6908 4.85456 25.8582 5.59652C23.9314 6.37663 22.2655 7.42476 21.1849 9.2401L21.1848 9.24011C20.0974 11.0669 19.9894 13.0199 20.2604 15.0597C20.516 16.983 21.1609 19.3169 21.9292 22.0975L21.9762 22.2678L21.9762 22.2679L23.6909 28.475L23.6909 28.4751L23.7377 28.6443C24.5061 31.426 25.1506 33.7594 25.9202 35.5475C26.7373 37.4461 27.8289 39.0624 29.6809 40.0996L29.6812 40.0997C31.5224 41.1306 33.4828 41.2344 35.555 40.9754C37.5233 40.7294 39.9182 40.1069 42.7961 39.3589L42.9586 39.3166L42.9587 39.3166L49.3585 37.6536L49.3585 37.6536L49.523 37.6108C52.3996 36.8634 54.7948 36.241 56.6274 35.499C58.5543 34.7188 60.2202 33.6706 61.3007 31.855C62.3881 30.0283 62.4961 28.0755 62.2252 26.0357C61.9697 24.1125 61.3248 21.7786 60.5566 18.9982L60.5094 18.8276L60.5094 18.8275L58.7944 12.6205L58.7943 12.6204L58.7477 12.4516C57.9793 9.66965 57.3347 7.33612 56.5651 5.54796C55.748 3.64937 54.6564 2.03309 52.8044 0.995974" fill="black"/>
<defs>
<linearGradient id="paint0_linear_581_2091" x1="41.25" y1="2" x2="41.25" y2="39" gradientUnits="userSpaceOnUse">
<stop stop-color="#FFEAA6"/>
<stop offset="0.35" stop-color="#EEDC7A"/>
<stop offset="0.69" stop-color="#DAAF41"/>
<stop offset="1" stop-color="#FFC737"/>
</linearGradient>
</defs>
</svg>
