<svg width="37" height="43" viewBox="0 0 37 43" fill="none" xmlns="http://www.w3.org/2000/svg">
<path d="M1.63989 5.90285V11.1501V33.4508L18.3655 40.9937L34.1072 33.4508V5.5749L27.8761 5.90285L22.6288 2.95128L17.3816 1.31152L13.1182 3.93514L6.88713 5.90285H1.63989Z" fill="url(#paint0_linear_1739_15933)"/>
<path fill-rule="evenodd" clip-rule="evenodd" d="M36.209 31.9352V7.03549C36.209 6.14234 35.8137 5.29592 35.1287 4.72262C34.4528 4.15685 33.5642 3.91546 32.6952 4.0603C28.9234 4.58533 24.5165 3.52021 20.7402 0.851306C19.1666 -0.287768 17.0378 -0.283259 15.4688 0.861849C11.7106 3.53679 7.3308 4.64871 3.56658 4.11463C2.67343 3.95772 1.7848 4.19158 1.10739 4.75282C0.420931 5.3216 0.0226297 6.16797 0.0226297 7.05962C-9.18731e-07 12.2013 0 26.6743 0 31.9352C0 33.7109 1.03799 35.3207 2.65382 36.0554C6.0288 37.5898 13.3113 40.8999 16.2322 42.2276C17.421 42.7692 18.7879 42.7692 19.9768 42.2276C22.8976 40.8999 30.1802 37.5898 33.5551 36.0554C35.171 35.3207 36.209 33.7109 36.209 31.9352ZM33.19 7.03549L33.1916 7.03701V31.9352C33.1916 32.5266 32.8461 33.0637 32.3074 33.3096C28.9325 34.8424 21.6484 38.1541 18.7291 39.4802C18.3323 39.6613 17.8767 39.6613 17.4799 39.4802C14.5605 38.1541 7.27649 34.8424 3.90151 33.3096C3.36291 33.0637 3.01741 32.5266 3.01741 31.9352C3.01741 26.6834 3.01741 12.2496 3.04004 7.08678L3.04457 7.0883C7.54051 7.74459 12.7622 6.49387 17.2234 3.31654L17.2324 3.31051C17.7575 2.92428 18.459 2.92274 18.9765 3.29992L18.9856 3.30595C23.4559 6.46669 28.679 7.67214 33.1372 7.04452L33.19 7.03549ZM11.003 21.3667L15.7509 26.1146C16.3393 26.703 17.2943 26.703 17.8842 26.1146L26.7765 17.2223C27.3649 16.6339 27.3649 15.6773 26.7765 15.0889C26.1866 14.499 25.2316 14.499 24.6432 15.0889L16.8176 22.9131L13.1363 19.2334C12.5479 18.645 11.5914 18.645 11.003 19.2334C10.4146 19.8218 10.4146 20.7783 11.003 21.3667Z" fill="black"/>
<defs>
<linearGradient id="paint0_linear_1739_15933" x1="17.8735" y1="1.31152" x2="17.8735" y2="40.9937" gradientUnits="userSpaceOnUse">
<stop stop-color="#FFEAA6"/>
<stop offset="0.35" stop-color="#EEDC7A"/>
<stop offset="0.69" stop-color="#DAAF41"/>
<stop offset="1" stop-color="#FFC737"/>
</linearGradient>
</defs>
</svg>
