<svg width="56" height="65" viewBox="0 0 56 65" fill="none" xmlns="http://www.w3.org/2000/svg">
<path d="M2.5 9V17V51L28 62.5L52 51V8.5L42.5 9L34.5 4.5L26.5 2L20 6L10.5 9H2.5Z" fill="url(#paint0_linear_581_2098)"/>
<path fill-rule="evenodd" clip-rule="evenodd" d="M55.2046 48.6888V10.7264C55.2046 9.36469 54.602 8.07423 53.5577 7.20016C52.5272 6.33759 51.1724 5.96957 49.8475 6.19038C44.097 6.99085 37.3781 5.36695 31.6208 1.29791C29.2217 -0.438734 25.9761 -0.43186 23.5839 1.31399C17.8541 5.39223 11.1766 7.08748 5.43765 6.27322C4.07594 6.034 2.72113 6.39053 1.68834 7.24621C0.641757 8.11338 0.0345015 9.40377 0.0345015 10.7632C-1.40071e-06 18.6022 0 40.668 0 48.6888C0 51.3961 1.58254 53.8504 4.04605 54.9706C9.19158 57.3099 20.2946 62.3565 24.7478 64.3807C26.5603 65.2064 28.6443 65.2064 30.4569 64.3807C34.91 62.3565 46.0131 57.3099 51.1586 54.9706C53.6221 53.8504 55.2046 51.3961 55.2046 48.6888ZM50.6019 10.7264L50.6042 10.7287V48.6888C50.6042 49.5905 50.0775 50.4093 49.2563 50.7842C44.1108 53.1212 33.0055 58.1702 28.5546 60.1921C27.9496 60.4681 27.255 60.4681 26.65 60.1921C22.1992 58.1702 11.0938 53.1212 5.9483 50.7842C5.12713 50.4093 4.60039 49.5905 4.60039 48.6888C4.60039 40.6818 4.60038 18.6759 4.63489 10.8046L4.64178 10.8069C11.4964 11.8075 19.4573 9.90064 26.259 5.05643L26.2728 5.04724C27.0733 4.45839 28.1429 4.45604 28.9318 5.03109L28.9456 5.04029C35.7611 9.85919 43.7244 11.697 50.5214 10.7402L50.6019 10.7264ZM16.7753 32.5759L24.014 39.8146C24.9111 40.7117 26.3671 40.7117 27.2665 39.8146L40.8238 26.2573C41.7209 25.3602 41.7209 23.9019 40.8238 23.0048C39.9245 22.1054 38.4684 22.1054 37.5714 23.0048L25.6403 34.9336L20.0278 29.3234C19.1307 28.4264 17.6724 28.4264 16.7753 29.3234C15.8782 30.2205 15.8782 31.6788 16.7753 32.5759Z" fill="black"/>
<defs>
<linearGradient id="paint0_linear_581_2098" x1="27.25" y1="2" x2="27.25" y2="62.5" gradientUnits="userSpaceOnUse">
<stop stop-color="#FFEAA6"/>
<stop offset="0.35" stop-color="#EEDC7A"/>
<stop offset="0.69" stop-color="#DAAF41"/>
<stop offset="1" stop-color="#FFC737"/>
</linearGradient>
</defs>
</svg>
