<svg width="61" height="42" viewBox="0 0 61 42" fill="none" xmlns="http://www.w3.org/2000/svg">
<path d="M8.69565 2L2 15.9333L8.69565 20.6833L16 5.48333L8.69565 2Z" fill="url(#paint0_linear_4025_14270)"/>
<path d="M51 2.63333L44.3043 5.48333L51.3043 21L57.087 18.4667L58 15.9333L51 2.63333Z" fill="url(#paint1_linear_4025_14270)"/>
<mask id="path-2-outside-1_4025_14270" maskUnits="userSpaceOnUse" x="0" y="0" width="61" height="42" fill="black">
<rect fill="white" width="61" height="42"/>
<path d="M59.6682 14.7668L53.6794 3.30457C53.3222 2.62834 52.715 2.11819 51.9871 1.88275C51.2591 1.64731 50.468 1.70519 49.7821 2.04407L43.9072 4.9797H39.4771L31.2501 1.25938C30.6145 0.972437 29.8973 0.921739 29.2277 1.11642L17.0084 4.67665L11.2179 1.78322C10.532 1.44446 9.74092 1.38663 9.01302 1.62203C8.28512 1.85744 7.6779 2.36749 7.32061 3.04361L1.33177 14.5061C1.15219 14.8499 1.04291 15.226 1.01032 15.6124C0.977735 15.9989 1.02248 16.388 1.14196 16.757C1.26143 17.126 1.45324 17.4675 1.70619 17.7616C1.95915 18.0557 2.26817 18.2965 2.61525 18.47L8.54736 21.4343L21.7813 31.7766C22.1034 32.0291 22.4753 32.2107 22.8726 32.3094L36.9863 35.8358C37.216 35.893 37.4517 35.9219 37.6884 35.9218C38.4652 35.9221 39.2105 35.615 39.7614 35.0676L48.7222 26.1119C48.7402 26.094 48.7574 26.0753 48.774 26.0561L52.5422 21.6504L58.3847 18.7309C58.7318 18.5574 59.0409 18.3165 59.2938 18.0224C59.5468 17.7283 59.7386 17.3868 59.858 17.0178C59.9775 16.6488 60.0223 16.2597 59.9897 15.8732C59.9571 15.4867 59.8478 15.1106 59.6682 14.7668ZM47.8782 24.1069L37.8915 16.8481C37.723 16.7257 37.5197 16.6604 37.3114 16.6619C37.1031 16.6635 36.9007 16.7317 36.734 16.8565L33.617 19.193C32.4345 20.0723 30.9998 20.5472 29.5259 20.5472C28.052 20.5472 26.6173 20.0723 25.4348 19.193L24.1147 18.2036C24.0031 18.1199 23.9108 18.0132 23.844 17.8908C23.7772 17.7683 23.7375 17.633 23.7276 17.4938C23.7177 17.3547 23.7378 17.2151 23.7866 17.0845C23.8354 16.9538 23.9117 16.8351 24.0103 16.7365L33.5404 7.21194C33.7235 7.03 33.971 6.92753 34.2291 6.92673H39.264L39.2663 6.92698L39.2696 6.92673H43.5469L50.7617 20.7355L47.8782 24.1069ZM2.99551 16.1575C2.95526 16.0346 2.94011 15.9048 2.95098 15.776C2.96185 15.6471 2.9985 15.5217 3.05877 15.4072L9.04761 3.94475C9.13082 3.787 9.25562 3.655 9.40849 3.56303C9.56136 3.47105 9.73648 3.42261 9.91491 3.42295C10.0648 3.42281 10.2126 3.45764 10.3465 3.52468L15.5406 6.12009L8.64975 19.3086L3.48659 16.7286C3.37066 16.6711 3.26745 16.5909 3.18309 16.4928C3.09874 16.3947 3.03495 16.2807 2.99551 16.1575ZM38.384 33.6908C38.2648 33.8094 38.117 33.8953 37.9549 33.9401C37.7928 33.9849 37.6219 33.9872 37.4586 33.9468L23.3449 30.4204C23.2125 30.3875 23.0886 30.327 22.9813 30.2428L10.309 20.3395L17.509 6.55891L29.7728 2.98574C29.996 2.92067 30.2351 2.93753 30.447 3.03327L34.751 4.97971H34.2291C33.8453 4.97866 33.465 5.05372 33.1103 5.20055C32.7557 5.34738 32.4337 5.56306 32.163 5.8351L22.6329 15.3597C22.3368 15.6555 22.1078 16.0115 21.9614 16.4035C21.8149 16.7955 21.7545 17.2144 21.7841 17.6318C21.8138 18.0492 21.9329 18.4553 22.1332 18.8227C22.3336 19.1901 22.6107 19.5102 22.9456 19.7613L24.2657 20.7507C25.7862 21.8812 27.6308 22.4917 29.5259 22.4917C31.421 22.4917 33.2656 21.8812 34.7861 20.7507L37.3274 18.8456L46.5387 25.5407L38.384 33.6908ZM58.0045 16.4184C57.9651 16.5416 57.9013 16.6556 57.8169 16.7537C57.7326 16.8518 57.6293 16.9319 57.5134 16.9894L52.3503 19.5695L45.4594 6.38091L50.6535 3.78551C50.882 3.67248 51.1458 3.65315 51.3884 3.73165C51.6311 3.81014 51.8334 3.98025 51.9524 4.20572L57.9412 15.6679C58.0015 15.7824 58.0382 15.9078 58.049 16.0367C58.0599 16.1657 58.0447 16.2954 58.0045 16.4184ZM27.5487 40.2623C27.5178 40.3864 27.4627 40.5031 27.3866 40.6059C27.3105 40.7087 27.2149 40.7955 27.1051 40.8613C26.9954 40.9271 26.8738 40.9707 26.7472 40.9895C26.6207 41.0082 26.4916 41.0019 26.3675 40.9708L19.0279 39.1371C18.5813 39.0249 18.1673 38.8093 17.8193 38.5077L12.3275 33.7367C12.2306 33.6529 12.1512 33.5509 12.0938 33.4364C12.0365 33.3219 12.0023 33.1973 11.9932 33.0695C11.9841 32.9418 12.0003 32.8136 12.0408 32.6921C12.0814 32.5707 12.1456 32.4584 12.2296 32.3618C12.3137 32.2652 12.416 32.1861 12.5306 32.129C12.6453 32.0719 12.7702 32.038 12.898 32.0293C13.0258 32.0205 13.1541 32.037 13.2755 32.0779C13.3969 32.1187 13.509 32.1831 13.6055 32.2674L19.0976 37.0385C19.2138 37.1389 19.3519 37.2108 19.5009 37.2483L26.8398 39.0817C27.0904 39.1444 27.3059 39.3039 27.4389 39.5253C27.5718 39.7467 27.6113 40.0118 27.5487 40.2623Z"/>
</mask>
<path d="M59.6682 14.7668L53.6794 3.30457C53.3222 2.62834 52.715 2.11819 51.9871 1.88275C51.2591 1.64731 50.468 1.70519 49.7821 2.04407L43.9072 4.9797H39.4771L31.2501 1.25938C30.6145 0.972437 29.8973 0.921739 29.2277 1.11642L17.0084 4.67665L11.2179 1.78322C10.532 1.44446 9.74092 1.38663 9.01302 1.62203C8.28512 1.85744 7.6779 2.36749 7.32061 3.04361L1.33177 14.5061C1.15219 14.8499 1.04291 15.226 1.01032 15.6124C0.977735 15.9989 1.02248 16.388 1.14196 16.757C1.26143 17.126 1.45324 17.4675 1.70619 17.7616C1.95915 18.0557 2.26817 18.2965 2.61525 18.47L8.54736 21.4343L21.7813 31.7766C22.1034 32.0291 22.4753 32.2107 22.8726 32.3094L36.9863 35.8358C37.216 35.893 37.4517 35.9219 37.6884 35.9218C38.4652 35.9221 39.2105 35.615 39.7614 35.0676L48.7222 26.1119C48.7402 26.094 48.7574 26.0753 48.774 26.0561L52.5422 21.6504L58.3847 18.7309C58.7318 18.5574 59.0409 18.3165 59.2938 18.0224C59.5468 17.7283 59.7386 17.3868 59.858 17.0178C59.9775 16.6488 60.0223 16.2597 59.9897 15.8732C59.9571 15.4867 59.8478 15.1106 59.6682 14.7668ZM47.8782 24.1069L37.8915 16.8481C37.723 16.7257 37.5197 16.6604 37.3114 16.6619C37.1031 16.6635 36.9007 16.7317 36.734 16.8565L33.617 19.193C32.4345 20.0723 30.9998 20.5472 29.5259 20.5472C28.052 20.5472 26.6173 20.0723 25.4348 19.193L24.1147 18.2036C24.0031 18.1199 23.9108 18.0132 23.844 17.8908C23.7772 17.7683 23.7375 17.633 23.7276 17.4938C23.7177 17.3547 23.7378 17.2151 23.7866 17.0845C23.8354 16.9538 23.9117 16.8351 24.0103 16.7365L33.5404 7.21194C33.7235 7.03 33.971 6.92753 34.2291 6.92673H39.264L39.2663 6.92698L39.2696 6.92673H43.5469L50.7617 20.7355L47.8782 24.1069ZM2.99551 16.1575C2.95526 16.0346 2.94011 15.9048 2.95098 15.776C2.96185 15.6471 2.9985 15.5217 3.05877 15.4072L9.04761 3.94475C9.13082 3.787 9.25562 3.655 9.40849 3.56303C9.56136 3.47105 9.73648 3.42261 9.91491 3.42295C10.0648 3.42281 10.2126 3.45764 10.3465 3.52468L15.5406 6.12009L8.64975 19.3086L3.48659 16.7286C3.37066 16.6711 3.26745 16.5909 3.18309 16.4928C3.09874 16.3947 3.03495 16.2807 2.99551 16.1575ZM38.384 33.6908C38.2648 33.8094 38.117 33.8953 37.9549 33.9401C37.7928 33.9849 37.6219 33.9872 37.4586 33.9468L23.3449 30.4204C23.2125 30.3875 23.0886 30.327 22.9813 30.2428L10.309 20.3395L17.509 6.55891L29.7728 2.98574C29.996 2.92067 30.2351 2.93753 30.447 3.03327L34.751 4.97971H34.2291C33.8453 4.97866 33.465 5.05372 33.1103 5.20055C32.7557 5.34738 32.4337 5.56306 32.163 5.8351L22.6329 15.3597C22.3368 15.6555 22.1078 16.0115 21.9614 16.4035C21.8149 16.7955 21.7545 17.2144 21.7841 17.6318C21.8138 18.0492 21.9329 18.4553 22.1332 18.8227C22.3336 19.1901 22.6107 19.5102 22.9456 19.7613L24.2657 20.7507C25.7862 21.8812 27.6308 22.4917 29.5259 22.4917C31.421 22.4917 33.2656 21.8812 34.7861 20.7507L37.3274 18.8456L46.5387 25.5407L38.384 33.6908ZM58.0045 16.4184C57.9651 16.5416 57.9013 16.6556 57.8169 16.7537C57.7326 16.8518 57.6293 16.9319 57.5134 16.9894L52.3503 19.5695L45.4594 6.38091L50.6535 3.78551C50.882 3.67248 51.1458 3.65315 51.3884 3.73165C51.6311 3.81014 51.8334 3.98025 51.9524 4.20572L57.9412 15.6679C58.0015 15.7824 58.0382 15.9078 58.049 16.0367C58.0599 16.1657 58.0447 16.2954 58.0045 16.4184ZM27.5487 40.2623C27.5178 40.3864 27.4627 40.5031 27.3866 40.6059C27.3105 40.7087 27.2149 40.7955 27.1051 40.8613C26.9954 40.9271 26.8738 40.9707 26.7472 40.9895C26.6207 41.0082 26.4916 41.0019 26.3675 40.9708L19.0279 39.1371C18.5813 39.0249 18.1673 38.8093 17.8193 38.5077L12.3275 33.7367C12.2306 33.6529 12.1512 33.5509 12.0938 33.4364C12.0365 33.3219 12.0023 33.1973 11.9932 33.0695C11.9841 32.9418 12.0003 32.8136 12.0408 32.6921C12.0814 32.5707 12.1456 32.4584 12.2296 32.3618C12.3137 32.2652 12.416 32.1861 12.5306 32.129C12.6453 32.0719 12.7702 32.038 12.898 32.0293C13.0258 32.0205 13.1541 32.037 13.2755 32.0779C13.3969 32.1187 13.509 32.1831 13.6055 32.2674L19.0976 37.0385C19.2138 37.1389 19.3519 37.2108 19.5009 37.2483L26.8398 39.0817C27.0904 39.1444 27.3059 39.3039 27.4389 39.5253C27.5718 39.7467 27.6113 40.0118 27.5487 40.2623Z" fill="black"/>
<path d="M59.6682 14.7668L53.6794 3.30457C53.3222 2.62834 52.715 2.11819 51.9871 1.88275C51.2591 1.64731 50.468 1.70519 49.7821 2.04407L43.9072 4.9797H39.4771L31.2501 1.25938C30.6145 0.972437 29.8973 0.921739 29.2277 1.11642L17.0084 4.67665L11.2179 1.78322C10.532 1.44446 9.74092 1.38663 9.01302 1.62203C8.28512 1.85744 7.6779 2.36749 7.32061 3.04361L1.33177 14.5061C1.15219 14.8499 1.04291 15.226 1.01032 15.6124C0.977735 15.9989 1.02248 16.388 1.14196 16.757C1.26143 17.126 1.45324 17.4675 1.70619 17.7616C1.95915 18.0557 2.26817 18.2965 2.61525 18.47L8.54736 21.4343L21.7813 31.7766C22.1034 32.0291 22.4753 32.2107 22.8726 32.3094L36.9863 35.8358C37.216 35.893 37.4517 35.9219 37.6884 35.9218C38.4652 35.9221 39.2105 35.615 39.7614 35.0676L48.7222 26.1119C48.7402 26.094 48.7574 26.0753 48.774 26.0561L52.5422 21.6504L58.3847 18.7309C58.7318 18.5574 59.0409 18.3165 59.2938 18.0224C59.5468 17.7283 59.7386 17.3868 59.858 17.0178C59.9775 16.6488 60.0223 16.2597 59.9897 15.8732C59.9571 15.4867 59.8478 15.1106 59.6682 14.7668ZM47.8782 24.1069L37.8915 16.8481C37.723 16.7257 37.5197 16.6604 37.3114 16.6619C37.1031 16.6635 36.9007 16.7317 36.734 16.8565L33.617 19.193C32.4345 20.0723 30.9998 20.5472 29.5259 20.5472C28.052 20.5472 26.6173 20.0723 25.4348 19.193L24.1147 18.2036C24.0031 18.1199 23.9108 18.0132 23.844 17.8908C23.7772 17.7683 23.7375 17.633 23.7276 17.4938C23.7177 17.3547 23.7378 17.2151 23.7866 17.0845C23.8354 16.9538 23.9117 16.8351 24.0103 16.7365L33.5404 7.21194C33.7235 7.03 33.971 6.92753 34.2291 6.92673H39.264L39.2663 6.92698L39.2696 6.92673H43.5469L50.7617 20.7355L47.8782 24.1069ZM2.99551 16.1575C2.95526 16.0346 2.94011 15.9048 2.95098 15.776C2.96185 15.6471 2.9985 15.5217 3.05877 15.4072L9.04761 3.94475C9.13082 3.787 9.25562 3.655 9.40849 3.56303C9.56136 3.47105 9.73648 3.42261 9.91491 3.42295C10.0648 3.42281 10.2126 3.45764 10.3465 3.52468L15.5406 6.12009L8.64975 19.3086L3.48659 16.7286C3.37066 16.6711 3.26745 16.5909 3.18309 16.4928C3.09874 16.3947 3.03495 16.2807 2.99551 16.1575ZM38.384 33.6908C38.2648 33.8094 38.117 33.8953 37.9549 33.9401C37.7928 33.9849 37.6219 33.9872 37.4586 33.9468L23.3449 30.4204C23.2125 30.3875 23.0886 30.327 22.9813 30.2428L10.309 20.3395L17.509 6.55891L29.7728 2.98574C29.996 2.92067 30.2351 2.93753 30.447 3.03327L34.751 4.97971H34.2291C33.8453 4.97866 33.465 5.05372 33.1103 5.20055C32.7557 5.34738 32.4337 5.56306 32.163 5.8351L22.6329 15.3597C22.3368 15.6555 22.1078 16.0115 21.9614 16.4035C21.8149 16.7955 21.7545 17.2144 21.7841 17.6318C21.8138 18.0492 21.9329 18.4553 22.1332 18.8227C22.3336 19.1901 22.6107 19.5102 22.9456 19.7613L24.2657 20.7507C25.7862 21.8812 27.6308 22.4917 29.5259 22.4917C31.421 22.4917 33.2656 21.8812 34.7861 20.7507L37.3274 18.8456L46.5387 25.5407L38.384 33.6908ZM58.0045 16.4184C57.9651 16.5416 57.9013 16.6556 57.8169 16.7537C57.7326 16.8518 57.6293 16.9319 57.5134 16.9894L52.3503 19.5695L45.4594 6.38091L50.6535 3.78551C50.882 3.67248 51.1458 3.65315 51.3884 3.73165C51.6311 3.81014 51.8334 3.98025 51.9524 4.20572L57.9412 15.6679C58.0015 15.7824 58.0382 15.9078 58.049 16.0367C58.0599 16.1657 58.0447 16.2954 58.0045 16.4184ZM27.5487 40.2623C27.5178 40.3864 27.4627 40.5031 27.3866 40.6059C27.3105 40.7087 27.2149 40.7955 27.1051 40.8613C26.9954 40.9271 26.8738 40.9707 26.7472 40.9895C26.6207 41.0082 26.4916 41.0019 26.3675 40.9708L19.0279 39.1371C18.5813 39.0249 18.1673 38.8093 17.8193 38.5077L12.3275 33.7367C12.2306 33.6529 12.1512 33.5509 12.0938 33.4364C12.0365 33.3219 12.0023 33.1973 11.9932 33.0695C11.9841 32.9418 12.0003 32.8136 12.0408 32.6921C12.0814 32.5707 12.1456 32.4584 12.2296 32.3618C12.3137 32.2652 12.416 32.1861 12.5306 32.129C12.6453 32.0719 12.7702 32.038 12.898 32.0293C13.0258 32.0205 13.1541 32.037 13.2755 32.0779C13.3969 32.1187 13.509 32.1831 13.6055 32.2674L19.0976 37.0385C19.2138 37.1389 19.3519 37.2108 19.5009 37.2483L26.8398 39.0817C27.0904 39.1444 27.3059 39.3039 27.4389 39.5253C27.5718 39.7467 27.6113 40.0118 27.5487 40.2623Z" stroke="black" mask="url(#path-2-outside-1_4025_14270)"/>
<defs>
<linearGradient id="paint0_linear_4025_14270" x1="30" y1="2" x2="30" y2="21" gradientUnits="userSpaceOnUse">
<stop stop-color="#FFEAA6"/>
<stop offset="0.35" stop-color="#EEDC7A"/>
<stop offset="0.69" stop-color="#DAAF41"/>
<stop offset="1" stop-color="#FFC737"/>
</linearGradient>
<linearGradient id="paint1_linear_4025_14270" x1="30" y1="2" x2="30" y2="21" gradientUnits="userSpaceOnUse">
<stop stop-color="#FFEAA6"/>
<stop offset="0.35" stop-color="#EEDC7A"/>
<stop offset="0.69" stop-color="#DAAF41"/>
<stop offset="1" stop-color="#FFC737"/>
</linearGradient>
</defs>
</svg>
