<svg width="97" height="67" viewBox="0 0 97 67" fill="none" xmlns="http://www.w3.org/2000/svg">
<path d="M13.5 3L2.5 25L13.5 32.5L25.5 8.5L13.5 3Z" fill="url(#paint0_linear_4023_14269)"/>
<path d="M83 4L72 8.5L83.5 33L93 29L94.5 25L83 4Z" fill="url(#paint1_linear_4023_14269)"/>
<mask id="path-2-outside-1_4023_14269" maskUnits="userSpaceOnUse" x="0" y="0" width="97" height="67" fill="black">
<rect fill="white" width="97" height="67"/>
<path d="M95.7973 23.371L86.1204 4.74493C85.5432 3.64606 84.5621 2.81705 83.3859 2.43446C82.2097 2.05187 80.9313 2.14593 79.8231 2.69661L70.3302 7.46701H63.172L49.8786 1.4215C48.8517 0.95521 47.6929 0.872825 46.6109 1.18918L26.8667 6.97456L17.5103 2.27273C16.402 1.72225 15.1237 1.62827 13.9476 2.01081C12.7714 2.39334 11.7903 3.22217 11.213 4.32086L1.53608 22.9473C1.24591 23.506 1.06934 24.1172 1.01668 24.7452C0.964024 25.3732 1.03633 26.0054 1.22938 26.6051C1.42243 27.2047 1.73236 27.7596 2.14108 28.2376C2.54981 28.7155 3.04914 29.1068 3.60994 29.3887L13.1952 34.2058L34.5788 51.0119C35.0993 51.4223 35.7002 51.7174 36.3422 51.8778L59.1474 57.6082C59.5184 57.7011 59.8994 57.7481 60.2818 57.748C61.5369 57.7485 62.7412 57.2494 63.6314 56.3599L78.1104 41.8069C78.1396 41.7778 78.1673 41.7474 78.1942 41.7162L84.2828 34.5569L93.7234 29.8126C94.2842 29.5307 94.7835 29.1394 95.1923 28.6614C95.601 28.1835 95.9109 27.6285 96.104 27.0289C96.297 26.4292 96.3693 25.797 96.3167 25.1689C96.264 24.5409 96.0874 23.9297 95.7973 23.371ZM76.7467 38.5487L60.61 26.7532C60.3377 26.5542 60.0092 26.4482 59.6726 26.4507C59.336 26.4531 59.0091 26.564 58.7397 26.7669L53.7032 30.5636C51.7925 31.9925 49.4743 32.7642 47.0927 32.7642C44.7111 32.7642 42.393 31.9925 40.4823 30.5636L38.3492 28.9558C38.1688 28.8198 38.0196 28.6465 37.9117 28.4475C37.8038 28.2485 37.7396 28.0286 37.7236 27.8025C37.7076 27.5764 37.7402 27.3496 37.819 27.1373C37.8978 26.9249 38.0211 26.7321 38.1805 26.5718L53.5795 11.0944C53.8753 10.7988 54.2751 10.6322 54.6923 10.6309H62.8277L62.8314 10.6313L62.8367 10.6309H69.7481L81.4059 33.0701L76.7467 38.5487ZM4.22438 25.631C4.15934 25.4312 4.13487 25.2204 4.15243 25.0109C4.16999 24.8015 4.22921 24.5977 4.32659 24.4117L14.0035 5.78522C14.1379 5.52887 14.3396 5.31437 14.5866 5.16492C14.8336 5.01546 15.1166 4.93675 15.4049 4.93729C15.647 4.93706 15.8858 4.99367 16.1023 5.1026L24.495 9.32014L13.3606 30.7515L5.01788 26.5589C4.83055 26.4655 4.66379 26.3352 4.52748 26.1759C4.39118 26.0165 4.28811 25.8312 4.22438 25.631ZM61.4057 54.1225C61.2132 54.3153 60.9744 54.4548 60.7125 54.5277C60.4505 54.6005 60.1744 54.6043 59.9106 54.5385L37.1054 48.8081C36.8915 48.7547 36.6912 48.6564 36.5178 48.5196L16.0416 32.4267L27.6755 10.0332L47.4916 4.22682C47.8523 4.12109 48.2387 4.14849 48.581 4.30407L55.5356 7.46703H54.6923C54.072 7.46532 53.4576 7.5873 52.8845 7.8259C52.3115 8.06449 51.7912 8.41497 51.3538 8.85704L35.9549 24.3345C35.4764 24.8152 35.1064 25.3937 34.8698 26.0307C34.6332 26.6677 34.5355 27.3484 34.5834 28.0267C34.6313 28.7049 34.8237 29.3649 35.1475 29.962C35.4713 30.559 35.919 31.0791 36.4602 31.4871L38.5932 33.0949C41.05 34.932 44.0306 35.9241 47.0927 35.9241C50.1549 35.9241 53.1354 34.932 55.5922 33.0949L59.6985 29.9992L74.5823 40.8787L61.4057 54.1225ZM93.109 26.0549C93.0452 26.2551 92.9422 26.4403 92.8059 26.5997C92.6695 26.7591 92.5028 26.8894 92.3155 26.9828L83.9727 31.1754L72.8383 9.74398L81.231 5.52645C81.6004 5.34278 82.0265 5.31137 82.4186 5.43893C82.8106 5.56648 83.1376 5.84291 83.3299 6.20929L93.0068 24.8354C93.1041 25.0214 93.1634 25.2252 93.1809 25.4347C93.1985 25.6442 93.174 25.8551 93.109 26.0549ZM43.898 64.8012C43.848 65.0028 43.759 65.1926 43.636 65.3597C43.513 65.5267 43.3585 65.6677 43.1812 65.7747C43.0039 65.8816 42.8074 65.9523 42.6029 65.9829C42.3984 66.0134 42.1899 66.0031 41.9893 65.9525L30.1298 62.9728C29.4081 62.7904 28.7392 62.4401 28.177 61.9501L19.3032 54.1971C19.1467 54.061 19.0184 53.8952 18.9256 53.7091C18.8329 53.5231 18.7776 53.3205 18.763 53.113C18.7483 52.9055 18.7744 52.697 18.84 52.4997C18.9056 52.3023 19.0092 52.1199 19.145 51.9629C19.2808 51.8059 19.4461 51.6773 19.6314 51.5846C19.8167 51.4919 20.0184 51.4368 20.225 51.4226C20.4315 51.4083 20.6388 51.4352 20.835 51.5016C21.0311 51.5679 21.2124 51.6726 21.3683 51.8095L30.2424 59.5625C30.4302 59.7258 30.6534 59.8426 30.8941 59.9035L42.7525 62.8828C43.1574 62.9846 43.5056 63.2439 43.7204 63.6036C43.9352 63.9634 43.9991 64.3941 43.898 64.8012Z"/>
</mask>
<path d="M95.7973 23.371L86.1204 4.74493C85.5432 3.64606 84.5621 2.81705 83.3859 2.43446C82.2097 2.05187 80.9313 2.14593 79.8231 2.69661L70.3302 7.46701H63.172L49.8786 1.4215C48.8517 0.95521 47.6929 0.872825 46.6109 1.18918L26.8667 6.97456L17.5103 2.27273C16.402 1.72225 15.1237 1.62827 13.9476 2.01081C12.7714 2.39334 11.7903 3.22217 11.213 4.32086L1.53608 22.9473C1.24591 23.506 1.06934 24.1172 1.01668 24.7452C0.964024 25.3732 1.03633 26.0054 1.22938 26.6051C1.42243 27.2047 1.73236 27.7596 2.14108 28.2376C2.54981 28.7155 3.04914 29.1068 3.60994 29.3887L13.1952 34.2058L34.5788 51.0119C35.0993 51.4223 35.7002 51.7174 36.3422 51.8778L59.1474 57.6082C59.5184 57.7011 59.8994 57.7481 60.2818 57.748C61.5369 57.7485 62.7412 57.2494 63.6314 56.3599L78.1104 41.8069C78.1396 41.7778 78.1673 41.7474 78.1942 41.7162L84.2828 34.5569L93.7234 29.8126C94.2842 29.5307 94.7835 29.1394 95.1923 28.6614C95.601 28.1835 95.9109 27.6285 96.104 27.0289C96.297 26.4292 96.3693 25.797 96.3167 25.1689C96.264 24.5409 96.0874 23.9297 95.7973 23.371ZM76.7467 38.5487L60.61 26.7532C60.3377 26.5542 60.0092 26.4482 59.6726 26.4507C59.336 26.4531 59.0091 26.564 58.7397 26.7669L53.7032 30.5636C51.7925 31.9925 49.4743 32.7642 47.0927 32.7642C44.7111 32.7642 42.393 31.9925 40.4823 30.5636L38.3492 28.9558C38.1688 28.8198 38.0196 28.6465 37.9117 28.4475C37.8038 28.2485 37.7396 28.0286 37.7236 27.8025C37.7076 27.5764 37.7402 27.3496 37.819 27.1373C37.8978 26.9249 38.0211 26.7321 38.1805 26.5718L53.5795 11.0944C53.8753 10.7988 54.2751 10.6322 54.6923 10.6309H62.8277L62.8314 10.6313L62.8367 10.6309H69.7481L81.4059 33.0701L76.7467 38.5487ZM4.22438 25.631C4.15934 25.4312 4.13487 25.2204 4.15243 25.0109C4.16999 24.8015 4.22921 24.5977 4.32659 24.4117L14.0035 5.78522C14.1379 5.52887 14.3396 5.31437 14.5866 5.16492C14.8336 5.01546 15.1166 4.93675 15.4049 4.93729C15.647 4.93706 15.8858 4.99367 16.1023 5.1026L24.495 9.32014L13.3606 30.7515L5.01788 26.5589C4.83055 26.4655 4.66379 26.3352 4.52748 26.1759C4.39118 26.0165 4.28811 25.8312 4.22438 25.631ZM61.4057 54.1225C61.2132 54.3153 60.9744 54.4548 60.7125 54.5277C60.4505 54.6005 60.1744 54.6043 59.9106 54.5385L37.1054 48.8081C36.8915 48.7547 36.6912 48.6564 36.5178 48.5196L16.0416 32.4267L27.6755 10.0332L47.4916 4.22682C47.8523 4.12109 48.2387 4.14849 48.581 4.30407L55.5356 7.46703H54.6923C54.072 7.46532 53.4576 7.5873 52.8845 7.8259C52.3115 8.06449 51.7912 8.41497 51.3538 8.85704L35.9549 24.3345C35.4764 24.8152 35.1064 25.3937 34.8698 26.0307C34.6332 26.6677 34.5355 27.3484 34.5834 28.0267C34.6313 28.7049 34.8237 29.3649 35.1475 29.962C35.4713 30.559 35.919 31.0791 36.4602 31.4871L38.5932 33.0949C41.05 34.932 44.0306 35.9241 47.0927 35.9241C50.1549 35.9241 53.1354 34.932 55.5922 33.0949L59.6985 29.9992L74.5823 40.8787L61.4057 54.1225ZM93.109 26.0549C93.0452 26.2551 92.9422 26.4403 92.8059 26.5997C92.6695 26.7591 92.5028 26.8894 92.3155 26.9828L83.9727 31.1754L72.8383 9.74398L81.231 5.52645C81.6004 5.34278 82.0265 5.31137 82.4186 5.43893C82.8106 5.56648 83.1376 5.84291 83.3299 6.20929L93.0068 24.8354C93.1041 25.0214 93.1634 25.2252 93.1809 25.4347C93.1985 25.6442 93.174 25.8551 93.109 26.0549ZM43.898 64.8012C43.848 65.0028 43.759 65.1926 43.636 65.3597C43.513 65.5267 43.3585 65.6677 43.1812 65.7747C43.0039 65.8816 42.8074 65.9523 42.6029 65.9829C42.3984 66.0134 42.1899 66.0031 41.9893 65.9525L30.1298 62.9728C29.4081 62.7904 28.7392 62.4401 28.177 61.9501L19.3032 54.1971C19.1467 54.061 19.0184 53.8952 18.9256 53.7091C18.8329 53.5231 18.7776 53.3205 18.763 53.113C18.7483 52.9055 18.7744 52.697 18.84 52.4997C18.9056 52.3023 19.0092 52.1199 19.145 51.9629C19.2808 51.8059 19.4461 51.6773 19.6314 51.5846C19.8167 51.4919 20.0184 51.4368 20.225 51.4226C20.4315 51.4083 20.6388 51.4352 20.835 51.5016C21.0311 51.5679 21.2124 51.6726 21.3683 51.8095L30.2424 59.5625C30.4302 59.7258 30.6534 59.8426 30.8941 59.9035L42.7525 62.8828C43.1574 62.9846 43.5056 63.2439 43.7204 63.6036C43.9352 63.9634 43.9991 64.3941 43.898 64.8012Z" fill="black"/>
<path d="M95.7973 23.371L86.1204 4.74493C85.5432 3.64606 84.5621 2.81705 83.3859 2.43446C82.2097 2.05187 80.9313 2.14593 79.8231 2.69661L70.3302 7.46701H63.172L49.8786 1.4215C48.8517 0.95521 47.6929 0.872825 46.6109 1.18918L26.8667 6.97456L17.5103 2.27273C16.402 1.72225 15.1237 1.62827 13.9476 2.01081C12.7714 2.39334 11.7903 3.22217 11.213 4.32086L1.53608 22.9473C1.24591 23.506 1.06934 24.1172 1.01668 24.7452C0.964024 25.3732 1.03633 26.0054 1.22938 26.6051C1.42243 27.2047 1.73236 27.7596 2.14108 28.2376C2.54981 28.7155 3.04914 29.1068 3.60994 29.3887L13.1952 34.2058L34.5788 51.0119C35.0993 51.4223 35.7002 51.7174 36.3422 51.8778L59.1474 57.6082C59.5184 57.7011 59.8994 57.7481 60.2818 57.748C61.5369 57.7485 62.7412 57.2494 63.6314 56.3599L78.1104 41.8069C78.1396 41.7778 78.1673 41.7474 78.1942 41.7162L84.2828 34.5569L93.7234 29.8126C94.2842 29.5307 94.7835 29.1394 95.1923 28.6614C95.601 28.1835 95.9109 27.6285 96.104 27.0289C96.297 26.4292 96.3693 25.797 96.3167 25.1689C96.264 24.5409 96.0874 23.9297 95.7973 23.371ZM76.7467 38.5487L60.61 26.7532C60.3377 26.5542 60.0092 26.4482 59.6726 26.4507C59.336 26.4531 59.0091 26.564 58.7397 26.7669L53.7032 30.5636C51.7925 31.9925 49.4743 32.7642 47.0927 32.7642C44.7111 32.7642 42.393 31.9925 40.4823 30.5636L38.3492 28.9558C38.1688 28.8198 38.0196 28.6465 37.9117 28.4475C37.8038 28.2485 37.7396 28.0286 37.7236 27.8025C37.7076 27.5764 37.7402 27.3496 37.819 27.1373C37.8978 26.9249 38.0211 26.7321 38.1805 26.5718L53.5795 11.0944C53.8753 10.7988 54.2751 10.6322 54.6923 10.6309H62.8277L62.8314 10.6313L62.8367 10.6309H69.7481L81.4059 33.0701L76.7467 38.5487ZM4.22438 25.631C4.15934 25.4312 4.13487 25.2204 4.15243 25.0109C4.16999 24.8015 4.22921 24.5977 4.32659 24.4117L14.0035 5.78522C14.1379 5.52887 14.3396 5.31437 14.5866 5.16492C14.8336 5.01546 15.1166 4.93675 15.4049 4.93729C15.647 4.93706 15.8858 4.99367 16.1023 5.1026L24.495 9.32014L13.3606 30.7515L5.01788 26.5589C4.83055 26.4655 4.66379 26.3352 4.52748 26.1759C4.39118 26.0165 4.28811 25.8312 4.22438 25.631ZM61.4057 54.1225C61.2132 54.3153 60.9744 54.4548 60.7125 54.5277C60.4505 54.6005 60.1744 54.6043 59.9106 54.5385L37.1054 48.8081C36.8915 48.7547 36.6912 48.6564 36.5178 48.5196L16.0416 32.4267L27.6755 10.0332L47.4916 4.22682C47.8523 4.12109 48.2387 4.14849 48.581 4.30407L55.5356 7.46703H54.6923C54.072 7.46532 53.4576 7.5873 52.8845 7.8259C52.3115 8.06449 51.7912 8.41497 51.3538 8.85704L35.9549 24.3345C35.4764 24.8152 35.1064 25.3937 34.8698 26.0307C34.6332 26.6677 34.5355 27.3484 34.5834 28.0267C34.6313 28.7049 34.8237 29.3649 35.1475 29.962C35.4713 30.559 35.919 31.0791 36.4602 31.4871L38.5932 33.0949C41.05 34.932 44.0306 35.9241 47.0927 35.9241C50.1549 35.9241 53.1354 34.932 55.5922 33.0949L59.6985 29.9992L74.5823 40.8787L61.4057 54.1225ZM93.109 26.0549C93.0452 26.2551 92.9422 26.4403 92.8059 26.5997C92.6695 26.7591 92.5028 26.8894 92.3155 26.9828L83.9727 31.1754L72.8383 9.74398L81.231 5.52645C81.6004 5.34278 82.0265 5.31137 82.4186 5.43893C82.8106 5.56648 83.1376 5.84291 83.3299 6.20929L93.0068 24.8354C93.1041 25.0214 93.1634 25.2252 93.1809 25.4347C93.1985 25.6442 93.174 25.8551 93.109 26.0549ZM43.898 64.8012C43.848 65.0028 43.759 65.1926 43.636 65.3597C43.513 65.5267 43.3585 65.6677 43.1812 65.7747C43.0039 65.8816 42.8074 65.9523 42.6029 65.9829C42.3984 66.0134 42.1899 66.0031 41.9893 65.9525L30.1298 62.9728C29.4081 62.7904 28.7392 62.4401 28.177 61.9501L19.3032 54.1971C19.1467 54.061 19.0184 53.8952 18.9256 53.7091C18.8329 53.5231 18.7776 53.3205 18.763 53.113C18.7483 52.9055 18.7744 52.697 18.84 52.4997C18.9056 52.3023 19.0092 52.1199 19.145 51.9629C19.2808 51.8059 19.4461 51.6773 19.6314 51.5846C19.8167 51.4919 20.0184 51.4368 20.225 51.4226C20.4315 51.4083 20.6388 51.4352 20.835 51.5016C21.0311 51.5679 21.2124 51.6726 21.3683 51.8095L30.2424 59.5625C30.4302 59.7258 30.6534 59.8426 30.8941 59.9035L42.7525 62.8828C43.1574 62.9846 43.5056 63.2439 43.7204 63.6036C43.9352 63.9634 43.9991 64.3941 43.898 64.8012Z" stroke="black" mask="url(#path-2-outside-1_4023_14269)"/>
<defs>
<linearGradient id="paint0_linear_4023_14269" x1="48.5" y1="3" x2="48.5" y2="33" gradientUnits="userSpaceOnUse">
<stop stop-color="#FFEAA6"/>
<stop offset="0.35" stop-color="#EEDC7A"/>
<stop offset="0.69" stop-color="#DAAF41"/>
<stop offset="1" stop-color="#FFC737"/>
</linearGradient>
<linearGradient id="paint1_linear_4023_14269" x1="48.5" y1="3" x2="48.5" y2="33" gradientUnits="userSpaceOnUse">
<stop stop-color="#FFEAA6"/>
<stop offset="0.35" stop-color="#EEDC7A"/>
<stop offset="0.69" stop-color="#DAAF41"/>
<stop offset="1" stop-color="#FFC737"/>
</linearGradient>
</defs>
</svg>
