<svg width="132" height="39" viewBox="0 0 132 39" fill="none" xmlns="http://www.w3.org/2000/svg">
<path fill-rule="evenodd" clip-rule="evenodd" d="M45.4835 15.4661C45.4835 19.7106 45.8481 21.6108 46.0581 24.8683H40.0806C40.5004 23.0545 41.4949 21.6108 42.3898 20.0808C44.7543 15.6511 43.4395 16.2804 45.4835 15.4661ZM73.6363 7.42113L68.7085 31.3708C66.7639 39.6008 65.6148 38.2436 81.3927 38.2436C84.0113 38.2436 85.1715 28.8414 86.3206 23.5974C87.4697 18.5384 88.6851 12.6651 89.7789 7.42113H98.1651C99.06 5.43458 99.3694 3.17657 99.3694 0.104194H68.2223C65.8578 0.104194 65.3385 6.06386 65.5485 6.5204C66.4435 8.33421 71.526 7.42113 73.6253 7.42113H73.6363ZM3.5858 38.2436H17.3197C19.7284 34.2705 36.8764 3.34931 37.0863 0.104194H29.9045C28.3355 3.53439 19.0544 22.0673 17.3197 23.511L15.9054 5.07675C15.2204 -1.15437 17.165 0.104194 1.79586 0.104194C-0.0935147 0.104194 -0.0935146 1.19001 0.0611712 3.17657L3.57475 38.2436H3.5858ZM97.5463 38.2436H121.512C124.285 38.2436 124.495 34.0854 124.495 30.8279H113.114C113.324 28.1134 114.374 24.7696 114.893 22.1537H122.705C124.329 14.1952 125.688 14.8368 116.727 14.8368C116.783 12.3073 117.457 9.59277 117.932 7.42113C126.892 7.42113 131.091 10.1357 131.091 0.104194H103.568L96.2757 34.2705C95.9111 35.9856 95.0161 38.2436 97.5353 38.2436H97.5463ZM25.7169 38.2436H32.3242C33.2634 36.6148 34.8434 34.1718 35.3074 32.1852C37.8266 32.1852 42.6992 31.8274 44.9532 32.0988C50.3009 32.8268 44.5886 38.2436 49.0965 38.2436C65.9794 38.2436 63.0404 39.6008 62.2559 30.1986L59.2727 0.104194H45.4835L35.5173 19.0813C33.9926 21.7959 25.9268 35.4427 25.7169 38.2436Z" fill="url(#paint0_linear_2149_13239)"/>
<defs>
<linearGradient id="paint0_linear_2149_13239" x1="65.5455" y1="0" x2="65.5455" y2="38.3271" gradientUnits="userSpaceOnUse">
<stop stop-color="#FFEAA6"/>
<stop offset="0.35" stop-color="#EEDC7A"/>
<stop offset="0.69" stop-color="#DAAF41"/>
<stop offset="1" stop-color="#FFC737"/>
</linearGradient>
</defs>
</svg>
