<svg width="214" height="92" viewBox="0 0 214 92" fill="none" xmlns="http://www.w3.org/2000/svg">
	<path fill-rule="evenodd" clip-rule="evenodd" d="M37.7244 89.6196C38.1788 89.7797 38.5587 90.1403 38.8411 90.4153C38.0435 90.2843 37.2463 89.9784 36.6402 89.5061C36.5123 89.4062 36.4483 89.3621 36.3284 89.2643L36.0436 88.936L37.1033 89.2493C37.1743 88.7587 37.298 88.2591 37.4004 87.7647C37.4822 87.3695 37.499 86.4203 38.0047 86.5433C38.5884 86.6852 37.8065 88.4371 37.7244 89.6199V89.6196ZM38.4388 71.003C38.5936 71.0671 38.6726 71.1445 38.8795 71.2111L38.4388 71.003ZM20.2538 89.8953C20.309 89.9381 20.4072 90.0001 20.4792 90.0404C20.7658 90.2012 20.7173 90.169 21.0891 90.1721C21.553 90.1763 22.0248 90.1679 22.4897 90.1672C23.4313 90.1658 24.3736 90.1721 25.3148 90.1662C25.111 89.8607 24.5595 89.4931 24.2526 89.196L20.0326 89.682L20.2534 89.8957L20.2538 89.8953ZM17.7859 87.9847C17.8865 88.2107 19.0438 89.341 19.6582 89.2797C20.5565 89.19 21.6393 89.0779 22.5613 88.9101L21.4656 87.8302L17.7859 87.9844V87.9847ZM24.8101 89.0422C25.0764 89.3785 25.3756 89.5765 25.7349 89.8999C26.1341 90.259 26.3004 90.101 26.9411 89.9672C27.5262 89.8449 29.343 89.5744 29.725 89.3379C29.4108 89.0891 28.4846 88.4013 28.2937 88.0846L24.8101 89.0422ZM16.3396 86.613C16.5437 87.0026 16.8921 87.2409 17.1725 87.566L22.0566 87.3134C21.9171 86.9823 22.0314 87.1428 21.7525 86.8975C21.5855 86.7507 21.5704 86.7332 21.4289 86.572C21.2045 86.3169 21.0091 86.1291 20.8329 85.8099L16.3396 86.613ZM22.093 87.8726C23.188 88.6985 22.7217 89.1907 24.7357 88.6046C25.7199 88.3183 26.8226 87.9858 27.8383 87.7349L26.9009 86.6971C26.6825 86.723 22.3991 87.6235 22.0933 87.8726H22.093ZM13.9247 11.279L19.8735 10.2489C20.0385 10.1498 20.8329 9.08742 20.9025 8.91679C19.7204 9.00894 18.1287 9.3884 16.9551 9.65013C16.321 9.79133 15.694 9.93569 15.0719 10.0913C14.6535 10.1957 14.6545 10.2153 14.412 10.5492C14.2435 10.7808 14.0523 11.0099 13.9251 11.2794L13.9247 11.279ZM14.514 84.4137C14.6874 84.7795 15.6164 85.955 15.9799 86.2199L19.4216 85.6025C19.3035 85.3411 19.0071 85.017 18.7858 84.7466C17.8502 83.6026 18.681 83.8401 14.5137 84.4137H14.514ZM20.6369 10.1803L25.7608 9.68131C26.0935 9.19394 26.9023 8.41014 27.0264 8.1386C26.4091 8.17294 21.9171 8.53102 21.5491 8.93571L20.6369 10.1803ZM21.28 85.6642C21.5813 86.2626 22.2261 86.607 22.5826 87.1852L26.2228 86.3653C26.4997 86.2598 26.3284 86.3127 26.4144 86.2539L24.9901 84.4487L21.28 85.6638V85.6642ZM12.1723 14.1073C12.6462 14.0204 17.0082 12.874 17.256 12.5621C17.3388 12.4577 17.9666 11.2461 18.0221 11.0958C16.8464 11.2177 15.4738 11.5152 14.2956 11.7275C13.2268 11.9202 13.4623 11.8834 12.9821 12.6599C12.7091 13.1017 12.3219 13.662 12.1723 14.1069V14.1073ZM18.8051 10.9111L17.8844 12.6119C18.7138 12.6315 22.9769 11.8235 24.1558 11.545C24.5445 11.4532 25.0873 10.6137 25.2652 10.2549L18.8051 10.9108V10.9111ZM19.9246 85.4697C20.6159 85.4862 21.7165 85.05 22.3736 84.8334C22.7885 84.6968 23.1485 84.571 23.5581 84.4361L24.6018 84.0605C24.613 84.029 24.6437 84.0311 24.6727 84.0115L23.7825 82.6555L18.6715 83.8233L19.9242 85.4701L19.9246 85.4697ZM12.7448 81.9193L16.4622 81.0182L15.3022 78.9418L11.4596 79.549L12.7444 81.9193H12.7448ZM17.875 14.9731L22.5697 14.5246L23.9286 12.1977C22.678 12.3656 21.4107 12.649 20.1821 12.8897C19.87 12.9507 19.5597 13.0117 19.2412 13.0698C18.5307 13.1991 18.552 13.1693 17.875 14.9731ZM13.0901 82.3405C13.4484 82.8829 13.6518 83.3562 14.1467 83.9869C15.471 83.9519 17.5821 83.5272 18.8791 83.2788C18.5814 82.59 18.0655 82.0115 17.7254 81.3304C16.6604 81.3002 14.2984 82.1303 13.0898 82.3405H13.0901ZM10.5785 17.1699C10.2615 17.9961 9.70643 18.96 9.46806 19.8563C10.5488 19.6142 12.6078 18.7932 13.8486 18.378C14.3414 18.213 14.3554 18.3216 14.5437 17.8623C14.7765 17.2954 15.0439 16.6987 15.2337 16.1269L10.5785 17.1696V17.1699ZM10.9413 16.4853L17.1864 15.0782L17.984 13.2664C17.1721 13.0898 14.7912 13.9689 13.9027 14.2345C13.3271 14.4065 12.3523 14.6076 11.8776 14.814C11.5854 14.9412 11.0175 16.1423 10.9413 16.4853ZM18.1972 81.1184C18.5569 81.7242 18.9669 82.6054 19.4198 83.0952C20.0441 83.0406 20.8693 82.8016 21.51 82.6572C22.0056 82.5458 23.072 82.3917 23.4536 82.1544L22.1283 79.7162L18.1972 81.1184ZM9.1465 20.5717L8.53765 22.3674L14.3459 20.9512L15.1477 18.7645C13.7101 18.7337 10.6889 20.2298 9.1465 20.5717ZM15.9331 16.0025L15.0823 18.0525C15.802 18.1706 18.3143 17.3619 19.1305 17.1416C19.8008 16.9604 20.4457 16.7919 21.1133 16.6205C21.6742 16.4765 21.5299 16.555 21.7683 16.0557C21.9259 15.7253 22.0811 15.4944 22.188 15.1731C21.0808 15.1511 16.6786 15.6255 15.9334 16.0021L15.9331 16.0025ZM15.873 18.7025L15.1243 20.7855L19.9399 20.0861C20.114 19.8724 21.0119 17.726 21.1381 17.3195L15.873 18.7025ZM8.28984 23.1526L7.36432 26.2622C8.01372 26.099 11.7427 24.6789 12.0772 24.4277L12.7769 22.0651L8.28984 23.153V23.1526ZM9.00215 73.7219C9.06472 74.1448 9.38872 74.9146 9.53342 75.2776L9.99583 76.396C10.1 76.6343 10.0668 76.5922 10.2104 76.7723L13.8335 75.4377L12.8828 72.9238L9.00215 73.7219ZM10.4107 77.3024L11.2114 79.0732L14.9383 78.4972C15.4235 78.4187 15.7062 78.2537 16.1288 78.1619L15.0823 75.8179C13.98 75.7692 13.4962 76.0793 12.5938 76.4261C12.0349 76.6409 10.791 76.9909 10.4111 77.3028L10.4107 77.3024ZM17.0012 80.8882C17.7107 80.8216 21.3128 79.5788 21.8647 79.2463L21.0126 77.3991C20.1308 77.5585 19.1843 77.8346 18.3084 78.0498L15.738 78.7824L17.0008 80.8878L17.0012 80.8882ZM13.8353 24.8649C13.5246 25.4073 13.3687 26.6571 13.2649 27.3389L17.839 26.5254C17.854 26.4994 17.8799 26.4413 17.8862 26.4563L18.8037 23.3779L13.8353 24.8649ZM15.5147 75.4966L16.6181 77.9447L20.7644 76.9415L19.5656 73.8894L15.5143 75.4966H15.5147ZM7.01795 67.138L7.89209 70.5083C8.3178 70.4277 11.3471 69.208 11.5889 69.003L10.7693 66.1849C10.5173 66.2186 7.39892 66.9029 7.01795 67.138ZM7.20704 27.0954C6.99278 27.4682 6.70513 28.6465 6.70513 29.1595L12.5504 27.5274L13.0663 25.0233C12.3177 24.9837 8.0284 26.6932 7.20704 27.0954ZM12.8556 24.3355C13.9534 24.2812 15.8055 23.557 16.9208 23.2294C19.2175 22.5542 18.9973 22.8744 19.3737 21.7718C19.4918 21.4263 19.6289 21.1439 19.7093 20.7977C18.6135 20.9162 15.2945 21.3976 14.161 21.6765C13.5578 21.8247 13.5606 21.6807 13.4138 22.2332C13.2292 22.928 12.9891 23.6302 12.8552 24.3355H12.8556ZM6.5807 29.8813C6.31682 30.3214 5.9278 32.9141 5.88272 33.3171L10.489 31.5112L10.8675 28.7096L6.58035 29.8813H6.5807ZM8.10739 71.148L8.77532 73.2279C9.91998 73.1781 12.7357 72.4003 13.8402 72.0906C13.6584 71.3744 13.1873 70.0415 12.8979 69.399C11.8958 69.4386 11.2828 69.8142 10.431 70.1537C9.95913 70.3418 8.3566 70.9171 8.10704 71.1477L8.10739 71.148ZM13.3655 72.7321L14.3309 75.3116L14.8255 75.3151C14.9467 75.1826 14.9887 75.1963 14.9897 74.9314C15.2868 75.2142 15.1435 75.1231 16.0397 74.7562C16.4483 74.5888 16.7786 74.4577 17.1697 74.3018C17.8173 74.0436 18.8826 73.6634 19.3832 73.3635L18.6729 71.2234L13.3655 72.7314V72.7321ZM23.1366 91.1973C25.8181 91.7527 25.7961 91.7401 28.8177 91.8869C30.8816 91.9874 32.8423 91.8995 34.8975 91.8322C34.5994 91.6553 33.3768 91.3645 32.4229 90.9388C29.2067 89.504 32.008 89.3894 26.0893 90.5993L26.4354 90.8817C26.529 90.9437 26.5192 90.9328 26.6035 90.999C26.6154 91.0085 26.6458 91.067 26.6541 91.0502C26.6629 91.033 26.687 91.0863 26.6996 91.1024L26.5849 91.4156C25.2984 91.108 26.3326 90.355 21.8144 90.6367L22.0391 90.8263C21.5058 90.703 21.5785 90.6199 20.9074 90.6185C20.574 90.1805 20.9207 90.396 20.2975 90.0383C19.9116 89.8169 19.8837 89.7258 19.3688 89.7492C19.2909 89.2114 18.6121 89.0005 18.0697 88.5383L17.2406 87.9571C16.926 87.6796 16.4158 86.7409 15.824 86.6901C15.6804 86.0412 15.6276 86.2297 15.2791 85.839L14.3295 84.6449C13.7745 84.0174 13.4068 83.2963 12.9059 82.6219C12.6445 82.2697 11.1653 82.0094 10.7008 82.0777C10.2538 82.1436 9.96437 81.9516 10.215 81.4989C10.4394 81.2603 11.9556 81.7578 12.347 81.8097C12.2181 81.4404 11.9346 81.0441 11.7518 80.6972C11.4456 80.1167 11.4746 80.2253 10.8196 80.0473C9.9836 79.8199 9.10177 79.5869 8.2839 79.3213L8.28914 78.417L10.805 79.0256C10.6851 78.6212 10.5009 78.2922 10.3219 77.9359C9.87665 77.0491 9.79311 77.2825 8.56631 76.8984C8.07698 76.7453 7.74704 76.7846 7.35977 76.6795L7.40556 76.073C7.94347 75.9037 8.39714 76.4216 9.74977 76.7222L8.80048 74.3295L5.8974 73.4798L5.8946 72.5983L8.3545 73.1855L7.68867 71.1536C7.25841 71.0422 6.83445 70.8898 6.41084 70.7588C6.04349 70.6449 5.25114 70.6382 5.17704 70.2994C4.97991 69.3983 6.01553 70.0324 6.15883 70.0829C6.56358 70.2255 7.02039 70.346 7.40696 70.4624C7.39927 70.1053 7.22032 69.6456 7.12245 69.2963C6.68276 67.7294 7.09169 68.3044 4.8485 67.7504C4.52904 67.6716 4.19735 67.598 3.87404 67.5227L3.13097 67.3387C2.95516 67.2578 3.05617 67.2984 2.94817 67.1972C3.19423 67.0167 3.26728 66.8843 3.39451 66.658L4.13513 66.5648C4.14597 66.5434 4.15506 66.5129 4.16799 66.4912C4.35253 66.1821 4.80935 66.1783 5.14559 66.2396C5.58493 66.3202 5.94668 66.4477 6.39651 66.4992L5.93654 64.3367C5.5318 64.2432 5.12077 64.0935 4.72372 63.9632C4.13758 63.7708 4.05509 63.9085 3.58639 63.7866C3.40534 63.4065 3.37109 63.3402 3.67657 62.9517C4.28193 62.9177 4.16834 63.1763 4.69051 63.3455C5.0638 63.4667 5.41052 63.5988 5.788 63.6664L5.3193 61.2215L1.7717 60.2373C2.33128 59.5467 2.53295 59.7271 3.61855 59.6052C3.71641 59.3641 3.77129 59.348 3.88593 59.0937L5.07638 59.3747L4.74364 57.0467C4.03762 56.6456 3.41653 56.5548 2.64444 56.5033C2.32953 56.0573 2.32673 56.0205 2.64654 55.5776C3.37843 55.5223 3.11245 55.7122 3.70942 55.9375C4.03902 56.0618 4.36407 56.1564 4.69995 56.2714L4.4476 53.6414C4.35078 53.5664 4.42313 53.5875 4.24838 53.5248C4.21832 53.5139 4.0537 53.4838 4.01036 53.4761C3.88768 53.4547 3.75031 53.441 3.60911 53.4196C2.80907 53.2998 1.67733 53.289 0.976899 52.9631C1.04296 52.8818 1.02443 52.8955 1.11915 52.8051L1.48335 52.5157C2.19811 52.071 2.39139 52.8475 3.40849 51.7403L4.36791 51.7855L4.29137 49.4758C3.57276 49.014 2.37811 49.0602 2.29842 49.0231C1.69865 48.7425 2.17854 47.6111 2.93839 48.2218C3.25155 48.4734 3.79575 48.596 4.26341 48.6994L4.27075 46.0295C3.8342 45.9047 3.35256 45.6293 2.90309 45.5659C2.36413 45.4895 1.8084 45.486 1.26944 45.409C1.74688 45.0673 2.19881 45.1353 2.86744 45.1378L2.87163 44.3557L4.30989 44.4349L4.45145 41.6519C4.06243 41.5587 3.69195 41.4199 3.31097 41.3152C2.72938 41.155 2.89714 41.4914 2.30436 41.0615C2.20999 39.5349 3.4001 40.887 4.50248 40.9371L4.72442 38.3261C4.22706 38.2259 3.97925 38.0605 3.42107 38.0184C2.95796 37.9838 2.51477 37.9817 2.05341 37.9207C2.29632 37.6134 2.87512 37.6877 3.28651 37.6292L3.60771 36.9656L4.86457 37.1106L5.26407 34.1415C4.93203 34.0536 4.49164 33.8717 4.1949 33.8143C3.70767 33.72 3.68111 33.9888 3.2533 33.6541C3.1848 33.2582 3.26693 33.1366 3.45462 32.9555C3.89222 32.8865 4.81564 33.3612 5.38605 33.4744L5.84077 30.9293L3.82022 30.726C3.89746 30.5764 4.51436 30.1244 4.65766 30.0537C4.9911 29.8886 5.59437 30.0053 6.04175 29.9356L6.67752 27.0369C6.10396 26.9577 5.28714 27.0124 4.82753 26.6452L4.82298 26.1704C5.47553 25.6974 5.56675 26.2906 6.89317 26.4094L7.56913 23.9897L5.92885 23.9347C6.39301 23.428 6.92917 23.5535 7.75053 23.4561C7.93997 22.928 8.72778 20.9246 8.69248 20.5609C7.49434 20.4071 7.14552 20.5805 6.84633 20.2319L6.87534 19.8521C7.3395 19.5427 7.71104 19.9351 9.00495 19.994L9.84624 17.9103L8.33073 17.9008C8.56386 17.7032 8.62922 17.6223 9.05703 17.5809C9.37614 17.5501 9.74138 17.542 10.0643 17.5294C10.2601 17.0809 11.2737 15.1409 11.3104 14.8588C10.2716 14.862 9.00425 15.1293 9.33 14.4083C9.49218 14.0495 10.0014 14.2744 10.3939 14.2797C10.8357 14.2856 11.2869 14.2786 11.7294 14.2765C11.9654 13.7404 12.3449 13.2821 12.5595 12.7419L11.0629 12.7391C11.3516 12.1623 12.2562 12.5611 12.7885 12.3522C12.9513 12.2885 14.2257 10.4199 14.3256 10.175C14.0062 10.175 13.584 10.1508 13.2774 10.1732C12.9807 10.195 12.4138 10.504 12.3498 9.97458C12.2663 9.28504 13.1967 9.69007 13.6511 9.68762C14.0279 9.68552 14.4018 9.69042 14.7786 9.67781C15.053 9.38279 15.5381 8.93641 15.701 8.51701L14.5546 8.60776C14.6472 8.52262 14.534 8.52822 14.7992 8.43712C15.7262 8.11898 15.6496 8.67328 16.6017 7.70834C17.8694 6.42385 20.1077 4.5609 21.7403 4.1916C21.3806 4.46384 20.358 4.92249 19.8854 5.22101C18.934 5.82156 18.0994 6.45749 17.3587 7.1649C16.7415 7.75494 15.6751 8.81693 15.2533 9.50542C15.8265 9.45112 16.5573 9.22582 17.1553 9.09759C17.7736 8.96479 18.4363 8.83375 19.0924 8.71042C20.1954 8.503 20.0993 8.71883 20.6809 7.97112C21.014 7.54296 21.3803 7.09973 21.7452 6.72623L22.0933 6.97325C21.827 7.44626 21.2842 7.87652 21.1007 8.34007C22.3111 8.26404 23.6787 7.97638 24.9125 7.84358C29.8882 7.30856 26.4993 7.65088 30.7215 5.08051C31.3939 4.67092 32.7693 3.86995 33.6679 3.71263C33.1055 4.13519 31.3251 4.7007 30.1895 5.66283L30.0864 5.75744C30.0724 5.77145 30.0494 5.80123 30.0382 5.81315C30.0266 5.82541 30.0064 5.85204 29.991 5.87166C30.3003 6.43507 31.0318 6.41404 31.6687 6.5598C32.1342 6.66632 33.275 6.81733 33.5522 7.08957C33.9248 7.45607 34.4113 10.2083 34.6088 10.9332C34.1838 10.0383 33.9213 8.87194 33.5554 7.92312C33.289 8.04645 32.7864 8.63964 32.6036 8.94938C32.7934 9.55343 33.5466 11.1624 33.6225 11.6886C33.6658 11.99 33.613 11.937 33.4994 12.0618C32.9441 12.2345 32.8497 11.5124 32.6536 10.9791C32.4677 10.4732 32.2618 9.97423 32.1129 9.49106L31.5953 9.87402C31.3586 10.1007 31.4219 10.1158 31.1329 10.2629C31.4118 9.37543 31.9672 8.75562 32.6354 8.20798C32.8633 8.02123 33.1202 7.93118 33.3754 7.73707C33.0454 7.44661 31.603 7.31697 31.1828 7.23883C29.985 7.01669 29.7603 6.7914 28.9638 6.61341C28.6946 7.05103 28.2553 7.2115 27.9722 7.64387C28.2553 7.81836 28.8792 7.99495 29.2762 7.9953C29.8704 7.99565 30.0158 8.10847 29.7771 8.68344C29.193 8.79276 29.3273 8.5545 28.7145 8.39718C28.3315 8.29872 27.9026 8.15297 27.514 8.11758C27.1351 8.51491 26.9642 8.64209 26.6363 9.13578C26.7723 9.37614 26.6849 9.26577 26.9048 9.46723C26.997 9.55167 27.1246 9.66555 27.2179 9.71285C27.701 9.95706 29.4877 10.1873 30.0909 10.2924C30.5121 10.8978 31.3768 13.0933 31.518 13.985L30.4045 11.6382L30.1682 11.8932C30.1081 11.9843 30.0487 12.1094 30.0011 12.1876C29.854 12.43 29.7662 12.5474 29.6509 12.7723C29.9469 13.6595 30.5219 14.5316 30.8473 15.3946L33.6158 12.081C33.8035 11.8901 33.9381 11.7478 34.145 11.6981C33.1293 12.6273 32.3534 13.8042 31.5435 14.9461C29.1133 18.3728 27.2427 22.9298 26.0893 27.1049C22.4537 40.2665 22.4299 55.4017 26.3085 68.5307C28.1228 74.6718 31.1786 80.3167 34.6406 83.721C32.7333 82.0486 31.0332 79.8672 29.7026 77.6251L29.4139 77.2341C29.4014 77.2211 29.3741 77.1998 29.3542 77.1826L28.0707 79.3437L28.7565 80.9208C27.9848 80.4208 26.7992 78.6391 26.5804 77.2614C27.0327 77.5501 27.2232 78.0659 27.5863 78.4699C28.0414 78.0316 28.2644 77.0558 28.8456 76.6854L29.0983 76.5183C28.2413 75.5211 27.6132 73.0149 26.9561 72.1922C26.6884 72.4136 25.8398 73.4399 25.6409 73.7584C25.7335 74.3593 25.9719 74.7447 26.0477 75.4847C25.1002 74.9885 24.4358 72.7535 24.5487 71.8376C24.8639 72.1231 24.9918 72.4861 25.2452 72.8779C25.4445 72.6361 25.6605 72.3954 25.8919 72.1337C26.2962 71.6761 26.0212 71.751 26.6604 71.4269C26.6174 71.2279 25.0275 66.5525 25.0023 66.5122C24.5322 66.7964 24.1628 67.2431 23.6969 67.5612L23.9681 69.5261C23.4085 69.1849 23.1733 68.2248 23.0188 67.6313C22.82 66.8668 22.6847 66.0451 22.7777 65.1846C23.1069 65.5788 23.1558 66.0721 23.4211 66.4712C23.8276 66.2645 24.2456 65.8521 24.5875 65.5129L24.6801 65.4159C24.6899 65.4057 24.7112 65.3819 24.7269 65.3654C24.4186 63.8087 23.9685 62.2684 23.7063 60.6952L23.5144 60.0243L22.3079 60.6903C22.3173 61.2183 22.411 61.8459 22.2992 62.3816C22.2579 62.5789 22.2625 62.5077 22.2121 62.6149C21.5114 61.6511 21.4638 59.3599 21.5904 57.9893C21.8364 58.3074 21.9287 58.7671 22.0391 59.1914L22.2121 59.5926C22.555 59.4202 23.1894 59.0954 23.3897 58.8379L22.7095 53.2308L21.5491 53.3524C21.467 54.173 21.5725 54.7185 21.3321 55.5394C20.9182 54.3085 20.5467 51.7424 20.9822 50.4632C21.2996 51.1166 21.2394 51.6909 21.4684 52.3156L22.6574 52.1965L22.4963 46.0621L21.3513 45.9195L21.0877 48.0851C20.5505 46.7099 20.5575 44.1963 21.0531 42.8337L21.395 44.9237L22.5564 45.019L22.6469 43.0621C22.1087 42.9756 21.6658 42.8004 21.1325 42.6694C20.6285 42.5453 19.9857 42.505 19.4226 42.4416C18.7649 42.3677 16.4689 41.8253 16.1316 41.9125L16.0201 44.232C16.4594 44.3196 16.8327 44.4798 17.2574 44.5985C17.9012 44.7786 17.8865 44.3946 18.3751 44.8554C18.4388 45.2369 18.3584 45.3774 18.2105 45.5792C17.3975 45.7453 17.7768 45.465 17.1623 45.2481C16.8397 45.1343 16.3249 44.9706 15.9914 44.9314L15.9575 47.6577C16.6429 47.7957 17.2787 47.9944 17.9722 48.1734C18.9012 48.4138 19.1808 48.2961 19.4803 49.1808L20.8039 49.0676L21.1216 49.4989L20.6131 49.665C18.8599 49.9849 17.7705 49.617 15.9935 49.5238L16.0638 51.9207C16.4867 51.9989 16.8474 52.0896 17.2231 52.1828C17.7589 52.3156 17.8788 52.1807 18.3447 52.29C18.6603 52.9887 18.1843 53.4361 17.7215 53.0878C17.1938 52.6905 16.8533 52.6429 16.1033 52.5349L16.278 55.2605C17.4734 55.6628 18.481 55.5597 19.7704 55.6887L19.7813 56.6988L20.8693 56.7139C19.6383 57.5884 21.2702 57.4777 16.4563 57.0597C16.4933 57.4847 16.5419 57.8817 16.5916 58.2836C16.6167 58.4882 16.6405 58.6928 16.6646 58.8978C16.7726 59.814 17.0505 59.5982 18.2871 59.7906C18.6984 59.8547 19.4489 59.5453 19.3996 60.2271C19.3818 60.4734 19.2234 60.6164 19.0165 60.6546C18.8141 60.6921 18.0214 60.1564 16.8397 60.1521C16.9135 60.7537 17.0365 62.2197 17.2833 62.6514C17.9763 63.124 19.9123 63.0708 20.8882 63.0617L20.9444 63.7348L21.8154 63.7554C21.6124 64.1111 21.2164 64.5154 20.9091 64.8104L17.5901 64.4926L17.9847 66.4575C18.1221 66.5511 18.0613 66.5444 18.2609 66.6191C18.9158 66.8643 20.0399 66.8398 20.5624 67.015L20.6023 67.6369C20.2311 67.7473 20.3143 67.7767 19.9836 67.5977L19.4471 67.3934C18.9899 67.2946 18.6107 67.1877 18.1574 67.1215C18.2685 67.782 18.5649 68.988 18.7865 69.5325L22.4257 69.8912L22.4638 70.4855L23.4861 70.4956C22.3401 71.811 22.8339 71.4452 19.3454 71.4448L19.9008 73.2952C20.3649 73.3491 20.8186 73.3971 21.2842 73.4472C22.0031 73.5247 22.1552 73.2738 22.5473 73.5965C22.6501 74.4847 22.0608 74.0681 21.7186 73.9882C21.3639 73.9055 20.5166 73.8603 20.1227 73.8326C20.2486 74.3817 20.6571 75.6161 20.9563 75.9398L24.3872 76.0915L24.4089 76.4447L25.635 76.2152C25.5483 76.4552 24.966 77.363 24.7234 77.5179L21.5924 77.5183L22.3037 79.1752C22.7025 79.2032 23.0985 79.2256 23.5106 79.247C24.1813 79.2817 24.721 78.9208 24.9681 79.5389L24.8077 79.8879C24.3358 79.9537 24.3487 79.7803 23.7979 79.7516C23.404 79.7309 23.0024 79.6955 22.6109 79.7267C22.7651 80.1061 23.296 81.2042 23.6071 81.4663L28.0987 81.3714C27.9771 81.658 27.5237 82.3416 27.328 82.5294L24.2337 82.6103C24.9443 84.2234 25.1767 83.9901 26.6793 83.9677C27.1089 83.9613 27.7205 83.5931 27.8149 84.1176C27.9442 84.8369 27.1728 84.4456 26.9491 84.42C26.5647 84.3758 25.8912 84.4207 25.4714 84.4165C25.5619 84.7262 26.2536 85.564 26.4906 85.8033L28.9194 85.7686C28.7191 85.9904 28.421 86.1319 28.1211 86.3005L27.5339 86.6417C27.5189 86.6526 27.4944 86.6687 27.4804 86.6796L27.3451 86.8124C28.4699 87.9399 27.9197 87.6799 30.1221 87.6568C30.6215 87.6515 30.6736 87.5149 30.8697 87.5075C31.1772 87.4963 31.2464 87.7107 31.229 88.0247C31.0479 88.4816 30.2241 87.9455 28.6565 88.1396L29.6376 89.0548L31.8312 88.9942L30.9018 89.649C30.718 89.806 30.8529 89.6939 30.7627 89.7965C31.4037 90.4507 34.0901 91.6136 35.1474 91.7565C35.8821 91.8557 40.3042 91.3606 40.8124 91.1027C40.9179 90.9917 40.798 91.136 40.7218 90.8193C40.6069 90.3421 40.7582 89.6995 40.7952 89.2254C40.8267 88.82 40.7201 87.4182 41.1961 87.3796C41.8116 87.3299 41.4953 88.7034 41.4628 89.1466C41.4205 89.7286 41.4771 90.6602 41.1843 91.0719L44.3481 90.4612C44.3432 89.6676 44.2446 87.7433 44.4211 87.1652L44.9304 87.1431C45.1076 87.7692 44.9964 89.4689 45.0111 90.2545C45.9262 90.0632 45.6574 89.8624 45.9132 89.7244C46.5298 89.6007 46.4522 89.7587 47.0062 89.478C47.3344 89.312 47.5504 89.2093 47.8548 89.0183C47.7978 87.347 47.074 85.5261 48.0757 85.6081C48.3196 86.0815 48.414 87.8414 48.4801 88.5569C48.7219 88.5075 49.0473 88.2605 49.2462 88.086C49.3105 86.6925 49.3416 87.4427 50.2941 87.1866C50.5642 87.114 51.1357 86.456 51.372 86.1596C51.2577 85.3863 50.6712 83.6418 50.7963 83.0108C51.7495 82.5612 51.5002 84.7091 51.9794 85.5202C52.1895 85.3579 52.5079 84.9785 52.7047 84.7564L52.4974 83.7413C53.0315 83.5104 53.5205 83.6334 53.8343 83.2595C54.0517 83.0006 54.4243 82.4467 54.5784 82.1495C54.6333 81.7018 52.9133 79.1983 53.9151 79.2929C54.3607 79.335 54.7406 81.0476 55.0492 81.37L55.729 80.3038L55.209 79.0137C55.9384 78.9429 56.2946 78.939 56.6392 78.5189C56.8489 78.2632 57.1911 77.5126 57.2666 77.2075C57.0051 76.6497 56.0688 75.218 56.188 74.6192C56.9828 74.2661 57.1044 75.9002 57.687 76.3907L58.2655 74.9749C58.0516 74.5337 57.3938 73.9654 57.5675 73.4774C58.6129 72.9809 58.7982 73.9034 59.2588 72.2836C60.6419 72.9567 61.8292 74.2303 62.3587 73.244C62.4471 73.079 62.5048 72.983 62.5929 72.8348C62.7589 72.5562 62.899 72.312 63.0997 72.1077C63.165 72.9409 63.3496 76.7965 63.5823 77.2309C64.0266 78.0603 63.956 78.5838 64.0297 79.5893L64.5834 87.6372C64.741 89.3933 64.2936 89.6154 62.8983 90.0197C62.3304 90.1844 62.1794 90.1182 62.2461 90.7997C63.1996 91.088 64.338 90.615 65.2792 90.5285C66.1432 90.4489 66.8349 90.8999 66.8203 89.6108L66.7497 85.9732C66.7832 84.407 66.7839 82.693 66.9094 81.1471C67.1894 82.6877 68.0097 85.6204 67.9747 87.0923C67.9408 88.5243 67.9275 89.0064 68.3123 90.3018C68.5014 90.9381 68.5598 91.0975 69.0149 91.3739C69.3504 91.5782 70.0844 91.8876 70.508 91.5842C71.0166 91.2198 70.4458 90.6459 70.2868 90.3733C69.4997 89.0239 69.7632 87.1799 69.7468 85.6004C69.7223 83.2522 69.7733 80.9355 69.9449 78.6065C70.4098 78.2351 70.5021 78.0449 70.6251 77.3283L71.0337 77.204C71.1214 74.5961 71.2057 72.0811 71.0882 69.461C71.0274 68.0991 71.1787 66.9221 70.2812 66.3233C69.5 65.8023 68.1635 65.6776 67.5441 65.0693C67.5277 63.9348 68.1561 63.6076 67.8908 62.37C67.6846 61.4079 67.3127 60.7846 66.2135 60.7681C64.4841 60.7425 64.8549 63.2852 65.1723 64.2638C65.5725 65.4986 66.3047 65.6387 63.8759 66.3777C62.9938 66.646 62.9626 66.8622 62.7166 67.7403C62.5904 68.1912 61.5855 71.3446 61.4685 71.4995C61.2909 71.3614 60.0484 70.386 59.9865 70.2143C60.0173 69.4312 60.5517 69.0451 60.1309 68.4789C59.7492 67.9652 59.2756 67.6439 59.4336 66.9579C59.9229 66.8776 60.7558 66.8356 60.947 66.419C61.0337 66.2298 61.2878 64.933 61.3342 64.6195C61.1948 64.0242 59.8792 63.6563 59.9103 62.8578C60.5321 62.4394 60.9606 63.4397 61.5321 63.7607L61.8788 61.8291L60.6845 60.6094C60.7607 60.0197 60.6387 59.9381 61.1843 59.8575C62.4111 59.677 62.2185 59.7173 62.3678 58.6105C62.4219 58.209 62.4716 57.8123 62.5006 57.4104C62.1633 57.2647 61.9553 57.114 61.6125 56.922C61.2836 56.7381 60.933 56.6897 61.04 56.1687C61.545 55.887 62.0466 56.5033 62.5901 56.7037L62.7966 54.5202C62.5184 54.3909 61.6984 53.8369 61.5317 53.5219L61.5398 52.5966L62.9619 51.975L63.0437 49.8062C62.5212 49.7838 61.8795 49.8574 61.4772 49.6948L61.4471 49.2319C61.8641 49.0743 62.5264 49.1293 63.0413 49.1331L63.0703 47.088L61.5656 46.1864L61.5786 45.3385L63.0242 44.5148L62.919 42.2734C62.3891 42.285 61.9885 42.758 61.5534 42.5345C60.9952 42.0467 62.597 41.6189 62.8588 41.5292C62.841 41.1323 62.8092 40.7675 62.7799 40.3761C62.7554 40.0517 62.7508 39.5598 62.5845 39.3103L61.2193 39.0447L61.2147 37.9669L62.4094 36.9232L62.1616 34.9222C61.5967 34.9947 61.3377 35.9729 60.6052 35.7424C60.4325 35.0837 61.4597 34.644 62.0053 34.0326L61.7026 32.1664C61.6736 32.1524 61.6411 32.1002 61.6289 32.1219C61.6174 32.1426 61.5793 32.088 61.5628 32.082C61.0781 31.9061 60.4667 32.0512 59.9841 31.8879C59.8694 31.088 60.666 30.2642 61.1759 29.7464C61.1511 29.3396 60.9124 28.1788 60.7243 27.9132C60.4472 28.1763 59.7813 29.567 59.3424 29.1826C59.27 29.1192 59.0194 29.0761 59.3759 28.5775C60.6223 26.8354 60.6957 27.4721 60.1714 25.6368C59.9648 24.9133 59.752 25.1599 58.515 25.0443C58.3861 24.0703 59.5996 23.688 59.2375 22.6554C59.1424 22.3846 59.0425 22.0423 58.8855 21.8352C58.7108 22.1579 58.5147 22.4922 58.3494 22.7956C58.125 23.2069 58.0411 23.4732 57.5273 23.3478C57.4008 22.7574 58.1134 21.8702 58.4098 21.3608C58.7992 20.6916 58.1439 19.8219 57.8943 19.1471L56.4844 18.9145C56.6507 18.288 57.1904 17.6076 56.8999 16.9821L56.6759 16.548C56.5903 16.4261 56.6 16.4559 56.5193 16.3756C56.4078 16.7621 56.2121 17.1041 56.0419 17.4975C55.815 18.0214 55.8196 18.3577 55.2156 18.1941C55.0629 17.5532 55.9555 16.2667 56.16 15.5687C55.8758 14.9026 55.4582 14.3315 55.1205 13.7282L54.0601 13.6577C53.9196 12.1385 55.2058 13.3971 52.4425 9.97388C51.9102 9.31412 51.7033 9.67185 51.1193 9.32113C51.0658 8.34883 51.1493 8.41715 49.8565 7.43785C48.9219 6.73008 48.9778 6.55945 47.794 6.3268C47.6154 5.85449 47.5594 5.70243 46.9817 5.60257C46.981 6.1891 46.981 6.77598 46.9813 7.36287C46.982 8.0412 47.2043 8.74616 46.4225 8.54854C46.1684 8.00441 46.3375 5.98063 46.3096 5.21961C45.3348 4.92459 44.4907 4.54618 43.3778 4.38711C43.375 6.43612 43.936 7.69117 42.9228 7.65018C42.6424 7.05629 42.7606 5.08822 42.6826 4.20036C40.6544 3.92251 38.947 3.49575 36.7272 3.27046C34.5616 3.05077 32.3481 2.97579 30.1196 3.00662C29.8721 3.39834 30.0441 3.23647 29.5125 3.49225L27.2501 4.53567L27.0816 4.19405C27.6241 3.65342 28.6932 3.61032 29.2374 3.04937C27.4217 3.0774 25.5839 3.2596 23.8084 3.56372C23.2079 3.66673 22.727 3.89903 22.2093 4.0038C22.2356 3.98698 22.3135 3.92987 22.3271 3.91971C22.339 3.91095 22.3803 3.90429 22.39 3.8703C22.4002 3.83492 22.4316 3.83281 22.4547 3.81775C19.4908 4.1429 16.8292 5.09382 14.4214 6.64039C13.6266 7.15089 12.7308 8.02088 12.4494 8.19641L12.4071 8.81553L11.7633 8.83095C11.4386 9.31587 10.8633 9.83548 10.5963 10.1701C9.3328 11.7538 9.32091 11.4031 9.38522 12.8771L8.50374 12.9559C8.2416 13.5137 7.7411 14.1809 7.40207 14.8038C7.0854 15.3855 6.5786 16.1836 6.37344 16.7817C6.5108 17.1409 6.86765 17.5869 6.81837 17.9313L5.73802 17.9705C5.58073 18.5567 3.96282 22.0122 4.00406 22.3765C4.2288 22.818 4.89953 23.3944 4.62725 23.9115L3.45847 23.9953C3.05722 24.9655 2.29947 27.6578 2.14394 28.7194C3.20752 29.95 3.038 29.5102 3.00025 30.541C2.5305 30.6808 2.10304 30.5554 1.71193 30.733C1.43232 31.4026 0.855617 34.9992 0.808432 35.9151C2.02056 36.6684 1.86502 37.0258 1.86118 37.6908L0.540353 38.1369C0.375031 38.852 0.0573208 42.5723 0.147147 43.2797L1.36661 44.0124L1.34424 44.9388L0 45.54L0.0709519 50.8374L1.3743 51.3804C1.3376 52.2133 1.56304 52.2473 0.181399 53.0616C0.243963 54.0608 0.431304 57.5114 0.691694 58.2387L2.02475 58.6255C2.0237 59.396 2.16561 59.6553 0.996822 60.4069C1.04156 61.1896 1.70704 64.9134 1.98665 65.501L3.34662 65.7396C3.34872 66.3405 3.30573 66.5241 2.39035 67.2123C2.45396 67.9435 3.47699 71.5272 3.80065 71.9679L4.13583 72.1098C4.65207 72.2237 4.91001 72.1105 5.17425 72.4055C4.95125 72.9938 4.6629 73.224 4.41195 73.7587C4.62131 74.5562 5.83518 77.4012 6.24726 78.014C7.58416 78.0964 7.31189 78.1559 6.85158 79.1671C7.04241 79.7519 7.75403 80.8623 8.08712 81.391C9.30693 83.3265 8.92701 82.8226 9.90006 83.0237C9.97556 83.447 9.85462 83.474 9.75466 83.8552L11.1443 85.5093C12.2156 86.804 12.8395 86.7665 12.88 86.7966C13.0335 86.9122 12.9475 87.0366 13.0282 87.2486C13.1862 87.6627 15.5857 89.2072 16.0285 89.3789C16.5178 89.5684 16.2885 89.3186 16.6961 89.642C17.5695 90.3361 22.0342 91.2912 23.4879 91.3886C23.4627 91.3715 23.4316 91.348 23.4127 91.3364L23.1394 91.1959L23.1366 91.1973ZM5.73173 34.1075L5.41996 36.3752L11.1 34.85L11.4435 31.9629C10.5593 32.0862 9.33315 32.6825 8.5317 33.0038C7.69182 33.3406 6.55099 33.8742 5.73207 34.1079L5.73173 34.1075ZM5.31685 37.1208L4.97677 40.8986L9.15384 39.1337C9.17307 39.1221 9.19823 39.1095 9.21606 39.0966C9.35936 38.9935 9.27233 39.057 9.37334 38.9315L9.63128 35.9922L5.3165 37.1208H5.31685ZM5.6384 59.9591L6.22385 63.6734L10.1996 61.9787L9.69594 58.9742C9.20557 58.8967 6.3993 59.8088 5.6384 59.9591ZM6.39231 64.2593L6.83096 66.5073L12.0706 65.219L11.3184 62.2502C9.77878 62.5277 7.9218 63.7705 6.39196 64.2593H6.39231ZM4.89673 52.4193L5.15817 56.2493L9.18984 54.5349L9.01753 51.3451L4.89673 52.4193ZM12.1202 31.8374L11.7948 34.6548L16.3382 33.6079L16.5514 32.7435C16.602 32.4404 16.6618 32.1209 16.7223 31.8003C16.831 31.2215 16.9627 30.6262 17.0673 30.0498C16.536 30.149 12.4047 31.6248 12.1202 31.8374ZM11.2293 31.3056C12.008 31.1752 16.3382 29.609 17.241 29.2383L17.7149 27.2541C16.8841 27.2433 14.2253 27.8456 13.2505 28.0264C12.8461 28.1014 12.5774 28.1855 12.2097 28.2969C11.6442 28.4679 11.5809 28.341 11.5043 28.8999C11.4163 29.5428 11.2052 30.6998 11.2293 31.3056ZM4.77405 44.78L4.74958 48.6226L8.98887 46.8157L8.98468 43.5751L4.77405 44.78ZM13.3543 69.0636L14.3131 71.9056C14.8705 71.825 18.1679 70.9084 18.4912 70.682L17.5377 67.1551L13.3547 69.0636H13.3543ZM4.79397 49.4204L4.84465 51.7108C5.50699 51.686 9.28736 50.5087 10.2125 50.2676L10.0699 47.1416C9.75991 47.1482 5.12427 49.1703 4.79397 49.4204ZM11.8822 62.0141L12.6134 65.0017L16.7642 63.9124C16.8408 63.5207 16.3105 60.945 16.22 60.2611C15.6094 60.3007 12.7738 61.7236 11.8825 62.0141H11.8822ZM4.92609 41.6823L4.81075 44.0509C5.45526 43.9419 10.0287 42.6045 10.36 42.4097L10.4471 39.3961C9.52783 39.5832 8.49046 40.1586 7.64638 40.5047C6.72995 40.88 5.7845 41.2829 4.92609 41.6827V41.6823ZM10.3352 35.7455L10.085 38.7584L15.9152 36.6082L16.1225 35.4761C16.1791 35.0791 16.2445 34.7077 16.2787 34.3171C14.3393 34.6534 12.2278 35.2704 10.3356 35.7455H10.3352ZM11.3299 66.0052L12.1254 68.7588C13.2435 68.742 13.9639 68.2487 14.8772 67.81C15.5018 67.5101 16.8142 66.85 17.4108 66.6863L16.9533 64.4954C16.1714 64.5837 14.8527 65.0182 14.0736 65.2274C13.1191 65.4835 12.2135 65.7473 11.3303 66.0056L11.3299 66.0052ZM11.1325 39.1295L11.0234 42.2591L15.5336 41.1442L15.8642 37.3436L11.1321 39.1295H11.1325ZM5.25079 56.9346L5.5353 59.3897C6.49787 59.2128 9.85218 58.2373 10.8535 57.902L10.4942 54.7682C9.79905 54.8569 8.54289 55.5324 7.86413 55.8316C7.09169 56.1719 5.99736 56.7121 5.25114 56.9346H5.25079ZM11.0702 54.5738L11.4205 57.7118L15.7171 56.5387L15.4315 52.6141L11.0699 54.5734L11.0702 54.5738ZM9.64841 43.327L9.65121 46.5183L15.378 44.1749L15.477 41.8589L9.64841 43.3274V43.327ZM9.68406 51.132L9.84938 54.1635C11.1111 54.0973 11.7158 53.6264 12.7437 53.1751C13.3085 52.927 14.9915 52.241 15.391 51.9379L15.3228 49.5763L9.68406 51.132ZM10.733 46.8115L10.8742 50.0406L15.3158 48.8805L15.327 44.9356L10.733 46.8115ZM10.2447 58.7629L10.7808 61.7436C11.367 61.6717 15.6335 59.8999 16.0837 59.5849L15.8216 57.2097C15.378 57.0986 10.7064 58.4931 10.2447 58.7629ZM53.3785 59.8669C55.4896 53.0654 55.5704 42.3207 53.1157 35.8034C53.1458 36.5241 53.5285 37.7515 53.6617 38.5917C54.7808 45.6357 54.6427 52.8293 52.6788 59.6364C51.4936 63.7449 48.6139 69.9911 44.4753 71.4585C43.6525 71.75 42.618 72.0058 41.6725 71.9459C40.467 71.8695 40.0123 71.5569 39.0256 71.3204L39.6478 71.6701C44.0915 73.545 47.9016 70.4848 50.2147 66.9554C51.6428 64.7764 52.5802 62.4398 53.3785 59.8666V59.8669ZM24.8297 11.5597C25.887 12.3578 27.0855 11.6981 26.6192 12.7888C26.0341 12.8915 25.5539 12.327 24.4026 12.1063L23.5414 13.5887C24.0523 14.5225 25.91 14.6434 27.0362 14.9286C27.7523 15.1101 27.6283 15.8809 27.9079 16.4786C28.1553 17.0081 28.5957 17.6524 28.7418 18.1923C28.724 18.1748 28.695 18.1251 28.6869 18.1412C28.6792 18.1569 28.6446 18.1019 28.6345 18.09C28.6247 18.0781 28.5989 18.0515 28.587 18.0368C28.2556 17.6223 27.782 16.6212 27.3829 16.3802L26.9401 17.9972C27.1281 18.356 27.998 19.7193 28.2354 19.9288C28.6925 19.1373 29.9068 16.5806 30.502 16.0761C30.4842 16.0547 30.4569 15.9958 30.4464 16.0144L30.0252 15.5684C29.7704 15.0785 29.3654 14.0095 29.0938 13.6735C29.0169 13.7425 29.0256 13.7219 28.9389 13.8291C28.9236 13.848 28.8495 13.9556 28.8212 13.9948C28.7229 14.1308 28.695 14.1623 28.5796 14.3088C28.394 14.5446 28.3063 14.6759 28.076 14.904C28.2375 14.0803 28.9243 12.7506 29.5237 12.176C29.6939 12.0127 29.6995 11.9864 29.8791 11.7906C30.1056 11.5432 30.0871 11.7082 30.2045 11.3691C29.6331 11.0474 27.7604 10.7819 26.8453 10.5488C26.4186 10.4399 26.2543 10.2251 25.838 10.1701C25.5829 10.3901 24.9565 11.2401 24.8293 11.5604L24.8297 11.5597ZM24.6329 29.4626C24.8269 29.3915 25.6301 26.4931 25.7195 26.1109C25.3728 25.7423 24.7909 24.9753 24.3386 24.7763C24.2467 25.1386 23.9748 25.8582 23.6794 26.128C23.6263 25.2058 23.7629 24.5286 24.0195 23.7206C24.3837 22.5749 24.7283 22.2925 24.8968 21.8233C24.3498 21.5157 23.3187 21.4141 22.5718 21.2701C21.5708 21.077 21.1723 21.0542 20.3828 20.6352C20.1399 20.9761 19.7882 22.1386 19.6386 22.6355C20.9161 23.3622 22.1782 22.9445 21.5061 24.0608C20.6159 24.1372 21.3883 23.7707 19.4031 23.3078L18.7841 25.4522C18.9819 25.6904 19.8159 26.3134 20.1283 26.5166C20.7337 26.9101 22.8133 26.8253 23.1894 27.1774C23.7937 27.7433 23.2628 27.9006 24.0667 28.7226C24.3096 28.971 24.449 29.1483 24.6332 29.4633C23.2009 28.7341 24.1768 28.2583 21.7609 28.0183C20.3663 27.8796 19.6191 27.5141 18.3968 27.1753C18.1864 27.4577 17.9225 28.8372 17.8565 29.2783C18.5681 29.8813 19.8851 29.7124 19.9979 30.2106L19.9305 30.7138C19.0252 31.0081 19.1598 30.2229 17.6765 30.0326L17.2043 32.5662C18.6666 33.013 17.6772 33.3987 20.6292 33.849C21.2838 33.9488 21.8301 33.952 22.1978 34.604C22.4267 35.0101 22.2363 34.9842 22.677 35.3356C22.9702 35.5693 23.0384 35.6121 23.3044 35.9039C23.5326 35.6394 23.4466 35.6758 23.5431 35.0931L24.0289 32.3227C23.5393 32.1314 23.2485 31.7446 22.7486 31.5161L22.1789 32.9453C22.0213 31.698 22.3152 29.2552 23.0615 28.5365C23.1366 29.2257 23.0412 29.7523 22.9748 30.4009C23.3012 30.6157 23.9793 31.2092 24.3019 31.28C24.4347 30.7103 24.7206 29.8473 24.6332 29.4629L24.6329 29.4626ZM22.0105 16.6391C22.3876 16.7547 23.9706 17.2043 24.0258 17.528C23.923 18.2996 23.4246 17.8801 23.0408 17.7197C22.6773 17.568 22.116 17.3427 21.7452 17.2491C21.4261 17.6552 21.0954 18.5785 20.9158 19.1131C22.0535 20.7795 24.4054 20.0683 25.0443 20.8401C25.7017 21.6344 25.5035 21.7283 25.456 22.2325C25.6772 22.3797 26.1554 23.0465 26.3081 23.298C25.9394 23.0006 25.334 22.1968 24.996 21.9957L24.6895 23.8653C24.9471 24.1267 25.1086 24.2945 25.3487 24.5461C25.6958 24.9098 25.7052 25.0166 26.0624 25.1897C26.2868 24.4185 26.5947 23.6905 26.8876 22.9613C27.1547 22.2956 27.6835 21.3033 27.8282 20.6979C27.292 20.2168 26.8824 19.2428 26.4895 18.9506C26.204 19.2855 26.0753 19.5875 25.7804 19.9095C25.5951 18.1576 27.1907 16.527 27.3448 16.1889C26.6318 15.8014 24.4875 15.5887 22.9549 14.8974L22.8021 15.0417C22.5557 15.3283 22.1122 16.3077 22.0108 16.6384L22.0105 16.6391ZM16.609 36.6345C17.0019 36.7515 17.3399 36.9049 17.709 37.0532C18.2399 37.2665 18.4926 37.1691 18.8784 37.3594L18.9501 37.9242C18.3884 38.5097 18.3157 38.0703 17.8673 37.8257C17.5842 37.6712 16.8411 37.4074 16.5461 37.3142L16.2578 40.0065C16.5056 40.1806 16.8163 40.4788 17.1267 40.6235C17.4671 40.7822 17.919 40.9189 18.2797 41.051C19.5701 41.5233 19.48 41.518 20.9993 41.518C21.375 42.0495 21.4006 42.4139 22.662 42.8897L22.9653 39.0685L21.6463 38.4946L21.2894 40.3656C20.783 39.1169 20.943 36.441 21.6603 35.5154L21.7378 37.3899C22.0521 37.647 22.6557 37.8871 23.1219 37.9526L23.3648 36.0945C22.8409 35.9067 22.3988 35.6657 21.9535 35.412C21.3604 35.0742 19.5076 35.0339 18.5139 34.7529C18.0358 34.6177 17.4168 34.4134 16.9243 34.3279L16.609 36.6338V36.6345ZM45.8688 49.4204C45.6053 53.0328 44.7972 56.4129 43.346 59.2314C42.2223 61.4135 41.0853 62.9534 39.2217 64.3265C38.3287 64.9846 38.1235 64.8472 37.1725 64.1689C28.9312 58.292 29.6551 34.5364 37.7842 30.1483C38.4385 29.7951 38.8498 30.2912 39.711 30.9433C44.4407 34.5248 46.325 43.1707 45.8688 49.4204ZM48.9268 49.5136C49.2752 45.629 48.6017 40.7065 47.5161 37.3871C46.3921 33.9495 44.563 30.7337 41.6613 29.5474C39.7481 28.765 37.5143 29.5845 36.3553 30.5901C29.1448 36.845 29.0183 54.5335 34.5155 62.0761C35.5109 63.4422 36.3718 64.3329 38.1578 65.2354C40.0469 66.1898 42.1297 65.2918 43.3205 64.3335C47.2417 61.1773 48.4703 54.6067 48.9271 49.5143L48.9268 49.5136ZM34.1747 87.2808C34.5197 87.7153 34.9485 87.8772 35.2411 88.4045C33.9377 88.0114 33.0042 87.018 32.4477 86.0843C32.8245 86.2633 33.2586 86.5594 33.5585 86.7756C34.0345 86.216 34.0447 84.7693 34.5819 84.2988L34.9094 84.3278C35.2121 84.8338 34.304 86.6056 34.1744 87.2805L34.1747 87.2808ZM30.9193 83.9239C31.1605 84.3194 31.4558 84.7504 31.59 85.2504C30.7631 84.7756 29.7016 83.4932 29.3797 82.3188C29.8417 82.5847 30.0574 82.9645 30.4041 83.1818C30.5506 82.7708 30.7812 82.3885 30.971 81.9852C31.2297 81.4358 31.2335 80.981 31.9116 81.0304C32.2939 81.7648 31.0675 83.0525 30.9193 83.9239ZM59.6744 70.2115L59.4203 70.9571C59.2385 70.7665 58.1799 69.38 58.2064 69.1022C58.2221 68.9375 58.4717 68.3958 59.0358 69.2931C59.2309 69.6032 59.4297 69.9221 59.6744 70.2115ZM28.5125 49.7004C28.2228 42.6687 29.2189 35.0676 31.2926 28.9629C33.1594 23.4669 36.6339 17.2113 41.7012 15.8084C43.4177 15.3333 45.2449 15.4944 46.7444 16.1545C47.47 16.4741 47.9824 16.7796 48.5937 17.1889C49.472 17.7771 51.0123 19.268 51.5771 20.0746C52.9839 22.0836 53.8053 23.0784 54.8961 25.6957C59.9557 37.8352 60.3074 53.5398 56.1387 65.9964C53.8459 72.8484 48.3864 81.8594 40.6876 78.7348C36.8953 77.1956 34.1579 72.683 32.5515 69.1765C30.0242 63.6587 28.7935 56.5303 28.5122 49.7007L28.5125 49.7004ZM58.024 67.0427C57.8237 68.6751 55.7808 73.1459 54.9723 74.7093C54.3568 75.8995 53.6215 77.0768 52.9077 78.0494L51.6974 79.5375C47.5339 84.3005 42.4163 85.7353 36.9502 81.6457C36.1998 81.0844 36.1191 80.9534 35.5298 80.3633L34.2596 79.028C33.8713 78.5739 33.4662 77.9804 33.1101 77.472C32.345 76.3799 31.7693 75.4013 31.071 74.1098C29.8641 71.8786 28.7803 69.0107 28.0124 66.3584C24.5473 54.3884 24.5682 40.277 28.0669 28.3414C29.429 23.6947 32.2513 17.4261 35.6843 14.3434C37.7821 12.4595 39.7551 11.0177 42.9539 10.8712C44.599 10.7959 46.1313 11.2479 47.385 11.8733C51.955 14.1539 54.9818 19.5742 56.7682 24.1022C57.1278 25.0135 58.0093 27.2401 58.118 28.1553C57.8656 27.7352 57.658 26.8218 57.4452 26.2226C56.4117 23.3138 54.8193 19.817 53.0294 17.405C50.8327 14.4447 47.7125 11.2514 43.3261 11.2727C41.0109 11.2839 39.2385 12.1858 37.5507 13.4149C37.284 13.6094 37.0736 13.793 36.8174 13.9903L35.4588 15.3301C34.3669 16.3052 32.46 19.5189 31.7592 20.8535C27.8512 28.2958 26.3169 38.6169 26.2613 47.1822C26.2001 56.5902 28.1693 69.1653 33.4855 77.0029C34.0849 77.8869 35.0943 79.2968 35.8447 79.9534L37.1924 81.2116C40.1161 83.6467 43.6463 84.3765 47.2274 82.7084C51.6558 80.6454 54.7857 75.2632 56.5868 70.9196C56.8402 70.3089 57.0845 69.6817 57.3141 69.0374C57.5346 68.419 57.7356 67.5563 58.0236 67.0423L58.024 67.0427ZM23.1219 6.84606C23.3676 6.27039 24.4543 5.73466 24.7755 5.21155C25.0778 5.3566 24.9758 5.27777 25.1614 5.57944L23.4173 7.06925L23.1219 6.84606ZM34.4026 6.99112C34.5924 6.62918 35.0834 6.16983 35.4648 5.91791C35.9342 5.60783 36.3585 5.42773 37.0323 5.31421C36.7457 5.7238 36.3606 5.80614 36.089 6.15126C36.1855 6.77528 36.3536 7.41122 36.4934 8.06327C36.5975 8.54854 37.0477 9.63682 36.2103 9.46233C35.9398 9.11966 35.5951 7.11305 35.4896 6.52196L34.4026 6.99077V6.99112ZM23.613 5.49991C23.7574 5.11169 24.9628 4.34506 25.2802 4.049C25.5095 4.2403 25.428 4.11907 25.5658 4.41234C25.2718 4.6061 24.9831 4.837 24.6766 5.08331C24.2509 5.42528 24.161 5.61729 23.7846 5.71224L23.613 5.50026V5.49991ZM38.0075 5.02094C38.6342 4.36749 39.4947 4.03428 40.7407 4.07282C40.4349 4.426 40.1934 4.34927 39.7593 4.6597C39.8072 5.37412 40.2381 7.23358 40.0288 7.8131L39.566 7.84569C39.3465 7.31031 39.1966 5.63095 39.1057 4.84891L38.0075 5.02129V5.02094Z" fill="url(#paint0_linear_2111_8591)" />
	<path fill-rule="evenodd" clip-rule="evenodd"
		d="M127.653 71.1235C127.653 74.9996 128.018 76.7348 128.228 79.7095H122.25C122.67 78.0532 123.664 76.7348 124.559 75.3376C126.924 71.2925 125.609 71.8672 127.653 71.1235ZM155.806 63.7769L150.878 85.6476C148.933 93.1632 147.784 91.9238 163.562 91.9238C166.181 91.9238 167.341 83.3377 168.49 78.5489C169.639 73.9292 170.855 68.5657 171.948 63.7769H180.335C181.23 61.9628 181.539 59.9008 181.539 57.0951H150.392C148.027 57.0951 147.508 62.5375 147.718 62.9544C148.613 64.6107 153.696 63.7769 155.795 63.7769H155.806ZM85.7554 91.9238H99.4892C101.898 88.2955 119.046 60.0586 119.256 57.0951H112.074C110.505 60.2276 101.224 77.1517 99.4892 78.4701L98.075 61.6361C97.3899 55.9458 99.3345 57.0951 83.9654 57.0951C82.076 57.0951 82.076 58.0867 82.2307 59.9008L85.7443 91.9238H85.7554ZM179.716 91.9238H203.681C206.454 91.9238 206.664 88.1265 206.664 85.1518H195.284C195.494 82.6729 196.543 79.6194 197.063 77.2306H204.874C206.499 69.9629 207.858 70.5488 198.897 70.5488C198.952 68.2389 199.626 65.76 200.101 63.7769C209.062 63.7769 213.261 66.2558 213.261 57.0951H185.738L178.445 88.2955C178.081 89.8618 177.186 91.9238 179.705 91.9238H179.716ZM107.886 91.9238H114.494C115.433 90.4364 117.013 88.2054 117.477 86.3913C119.996 86.3913 124.869 86.0645 127.123 86.3124C132.47 86.9772 126.758 91.9238 131.266 91.9238C148.149 91.9238 145.21 93.1632 144.425 84.5772L141.442 57.0951H127.653L117.687 74.4249C116.162 76.9038 108.096 89.366 107.886 91.9238Z"
		fill="url(#paint1_linear_2111_8591)" />
	<path
		d="M81.972 12V3.48H88.704V12H87.348V4.668H83.316V12H81.972ZM90.0919 7.74C90.0919 5.472 91.8439 3.42 94.1959 3.42C96.6319 3.42 98.2639 5.616 98.2639 7.752C98.2639 10.02 96.5239 12.06 94.1719 12.06C91.7359 12.06 90.0919 9.924 90.0919 7.74ZM94.1839 10.848C95.8999 10.848 96.8839 9.264 96.8839 7.74C96.8839 6.12 95.8159 4.644 94.1839 4.644C92.4679 4.644 91.4599 6.204 91.4599 7.74C91.4599 9.348 92.5159 10.848 94.1839 10.848ZM103.243 3.432C104.779 3.432 105.931 4.2 106.483 5.292L105.427 6C104.959 4.968 104.011 4.644 103.195 4.644C101.419 4.644 100.483 6.24 100.483 7.728C100.483 9.384 101.635 10.86 103.231 10.86C104.059 10.86 105.055 10.452 105.499 9.456L106.615 10.092C106.087 11.364 104.527 12.072 103.183 12.072C100.795 12.072 99.1153 9.84 99.1153 7.68C99.1153 5.616 100.639 3.432 103.243 3.432ZM114.11 4.668H111.278V12H109.922V4.668H107.078V3.48H114.11V4.668ZM116.928 3.48H118.2L121.512 12H120.096L119.196 9.684H115.908L115.02 12H113.592L116.928 3.48ZM118.932 8.688L117.564 4.956L116.148 8.688H118.932ZM126.633 12H122.565V3.48H126.957C128.157 3.48 128.901 4.584 128.901 5.652C128.901 6.48 128.457 7.284 127.677 7.632C128.649 7.92 129.261 8.724 129.261 9.804C129.261 11.172 128.073 12 126.633 12ZM123.909 4.644V7.152H126.381C127.041 7.152 127.557 6.624 127.557 5.904C127.557 5.172 127.089 4.644 126.453 4.644H123.909ZM126.717 8.232H123.909V10.836H126.633C127.341 10.836 127.881 10.248 127.881 9.552C127.881 8.856 127.389 8.232 126.717 8.232ZM140.443 13.62V12H130.663V3.48H132.007V10.812H134.923V3.48H136.279V10.812H139.195V3.48H140.551V10.812H141.631V13.62H140.443ZM143.063 12V3.48H144.407V10.104L148.955 3.48H150.215V12H148.871V5.508L144.371 12H143.063ZM152.202 12V3.48H153.546V7.044H154.542L157.218 3.48H158.754L155.622 7.608L158.982 12H157.338L154.542 8.28H153.546V12H152.202ZM81.972 28V19.48H83.316V23.044H84.312L86.988 19.48H88.524L85.392 23.608L88.752 28H87.108L84.312 24.28H83.316V28H81.972ZM89.9873 28V19.48H93.5633C95.0993 19.48 96.2033 20.884 96.2033 22.252C96.2033 23.68 95.1713 25.036 93.6353 25.036H91.3313V28H89.9873ZM91.3313 23.848H93.5513C94.3073 23.848 94.8353 23.164 94.8353 22.252C94.8353 21.304 94.1993 20.668 93.4793 20.668H91.3313V23.848ZM98.3279 28.048V26.92H98.9399C99.3359 26.92 99.4919 26.74 99.6959 26.344L99.9479 25.792L96.4799 19.48H97.9679L100.56 24.412L102.756 19.48H104.184L100.728 26.98C100.344 27.76 99.9479 28.048 99.1679 28.048H98.3279ZM105.035 28V19.48H111.767V28H110.411V20.668H106.379V28H105.035ZM120.69 19.48V28H119.334V24.244H115.038V28H113.694V19.48H115.038V23.044H119.334V19.48H120.69ZM122.072 23.74C122.072 21.472 123.824 19.42 126.176 19.42C128.612 19.42 130.244 21.616 130.244 23.752C130.244 26.02 128.504 28.06 126.152 28.06C123.716 28.06 122.072 25.924 122.072 23.74ZM126.164 26.848C127.88 26.848 128.864 25.264 128.864 23.74C128.864 22.12 127.796 20.644 126.164 20.644C124.448 20.644 123.44 22.204 123.44 23.74C123.44 25.348 124.496 26.848 126.164 26.848ZM131.648 28V19.48H136.724V20.668H132.992V28H131.648ZM140.447 19.48H141.719L145.031 28H143.615L142.715 25.684H139.427L138.539 28H137.111L140.447 19.48ZM142.451 24.688L141.083 20.956L139.667 24.688H142.451ZM146.097 28V19.48H152.085V20.656H147.441V23.044H149.937C151.821 23.044 152.769 24.016 152.769 25.468C152.769 26.932 151.845 28 150.021 28H146.097ZM147.441 26.824H149.841C150.945 26.824 151.377 26.14 151.377 25.42C151.377 24.748 151.041 24.112 149.817 24.112H147.441V26.824ZM156.326 19.48H157.598L160.91 28H159.494L158.594 25.684H155.306L154.418 28H152.99L156.326 19.48ZM158.33 24.688L156.962 20.956L155.546 24.688H158.33ZM161.964 28V19.48H165.54C167.076 19.48 168.18 20.884 168.18 22.252C168.18 23.68 167.148 25.036 165.612 25.036H163.308V28H161.964ZM163.308 23.848H165.528C166.284 23.848 166.812 23.164 166.812 22.252C166.812 21.304 166.176 20.668 165.456 20.668H163.308V23.848ZM169.5 28V19.48H170.844V26.104L175.392 19.48H176.652V28H175.308V21.508L170.808 28H169.5ZM184.88 20.668H182.048V28H180.692V20.668H177.848V19.48H184.88V20.668ZM193.019 19.48V28H191.663V24.244H187.367V28H186.023V19.48H187.367V23.044H191.663V19.48H193.019ZM194.94 28V19.48H196.284V22.624H198.192C200.064 22.624 201.072 23.692 201.072 25.3C201.072 26.86 200.076 28 198.276 28H194.94ZM202.416 28V19.492H203.772V28H202.416ZM196.284 26.884H198.084C199.212 26.884 199.692 26.152 199.692 25.3C199.692 24.484 199.284 23.74 198.072 23.74H196.284V26.884ZM206.215 19.48L208.567 22.828L210.919 19.48H212.407L209.335 23.8L212.311 28H210.823L208.567 24.772L206.311 28H204.811L207.787 23.8L204.715 19.48H206.215ZM81.96 44V35.48H83.304V42.812H86.22V35.48H87.576V42.812H90.492V35.48H91.848V44H81.96ZM93.8208 44V35.48H95.1648V42.104L99.7128 35.48H100.973V44H99.6288V37.508L95.1288 44H93.8208ZM109.944 35.48V44H108.588V40.244H104.292V44H102.948V35.48H104.292V39.044H108.588V35.48H109.944ZM114.891 44V35.48H116.235V42.104L120.783 35.48H122.043V44H120.699V37.508L116.199 44H114.891ZM126.419 45.632V42.812H126.827C127.703 42.8 128.147 41.528 128.255 37.88L128.315 35.48H133.799V42.812H134.879V45.632H133.691V44H127.607V45.632H126.419ZM128.531 42.812H132.443V36.668H129.563L129.527 38.06C129.455 40.832 129.191 42.236 128.531 42.812ZM136.313 44V35.48H137.657V42.104L142.205 35.48H143.465V44H142.121V37.508L137.621 44H136.313ZM149.028 35.432C150.564 35.432 151.716 36.2 152.268 37.292L151.212 38C150.744 36.968 149.796 36.644 148.98 36.644C147.204 36.644 146.268 38.24 146.268 39.728C146.268 41.384 147.42 42.86 149.016 42.86C149.844 42.86 150.84 42.452 151.284 41.456L152.4 42.092C151.872 43.364 150.312 44.072 148.968 44.072C146.58 44.072 144.9 41.84 144.9 39.68C144.9 37.616 146.424 35.432 149.028 35.432ZM153.656 44V35.48H155V39.044H155.996L158.672 35.48H160.208L157.076 39.608L160.436 44H158.792L155.996 40.28H155V44H153.656ZM160.639 39.74C160.639 37.472 162.391 35.42 164.743 35.42C167.179 35.42 168.811 37.616 168.811 39.752C168.811 42.02 167.071 44.06 164.719 44.06C162.283 44.06 160.639 41.924 160.639 39.74ZM164.731 42.848C166.447 42.848 167.431 41.264 167.431 39.74C167.431 38.12 166.363 36.644 164.731 36.644C163.015 36.644 162.007 38.204 162.007 39.74C162.007 41.348 163.063 42.848 164.731 42.848ZM174.27 44H170.202V35.48H174.594C175.794 35.48 176.538 36.584 176.538 37.652C176.538 38.48 176.094 39.284 175.314 39.632C176.286 39.92 176.898 40.724 176.898 41.804C176.898 43.172 175.71 44 174.27 44ZM171.546 36.644V39.152H174.018C174.678 39.152 175.194 38.624 175.194 37.904C175.194 37.172 174.726 36.644 174.09 36.644H171.546ZM174.354 40.232H171.546V42.836H174.27C174.978 42.836 175.518 42.248 175.518 41.552C175.518 40.856 175.026 40.232 174.354 40.232Z"
		fill="white" />
	<defs>
		<linearGradient id="paint0_linear_2111_8591" x1="35.573" y1="3" x2="35.573" y2="91.9324"
			gradientUnits="userSpaceOnUse">
			<stop stop-color="#FFEAA6" />
			<stop offset="0.35" stop-color="#EEDC7A" />
			<stop offset="0.685" stop-color="#DAAF41" />
			<stop offset="1" stop-color="#FFC737" />
		</linearGradient>
		<linearGradient id="paint1_linear_2111_8591" x1="147.715" y1="57" x2="147.715" y2="92"
			gradientUnits="userSpaceOnUse">
			<stop stop-color="#FFEAA6" />
			<stop offset="0.35" stop-color="#EEDC7A" />
			<stop offset="0.69" stop-color="#DAAF41" />
			<stop offset="1" stop-color="#FFC737" />
		</linearGradient>
	</defs>
</svg>