<svg width="128" height="159" viewBox="0 0 128 159" fill="none" xmlns="http://www.w3.org/2000/svg">
<path fill-rule="evenodd" clip-rule="evenodd" d="M67.8707 154.865C68.6882 155.151 69.3717 155.796 69.8798 156.288C68.4448 156.053 67.0105 155.507 65.9201 154.662C65.6899 154.484 65.5749 154.405 65.3592 154.23L64.8467 153.643L66.7533 154.203C66.8809 153.326 67.1035 152.433 67.2878 151.549C67.4349 150.842 67.4651 149.145 68.375 149.365C69.4251 149.619 68.0185 152.751 67.8707 154.866V154.865ZM69.156 121.581C69.4346 121.695 69.5767 121.834 69.9489 121.953L69.156 121.581ZM36.439 155.358C36.5384 155.434 36.7151 155.545 36.8446 155.617C37.3602 155.905 37.2728 155.847 37.9419 155.853C38.7763 155.86 39.6252 155.845 40.4616 155.844C42.1556 155.842 43.8509 155.853 45.5444 155.842C45.1777 155.296 44.1855 154.639 43.6334 154.108L36.041 154.977L36.4384 155.359L36.439 155.358ZM31.9989 151.942C32.18 152.346 34.262 154.367 35.3675 154.257C36.9836 154.097 38.9317 153.897 40.5905 153.597L38.6191 151.666L31.9989 151.941V151.942ZM44.6363 153.833C45.1155 154.434 45.6538 154.788 46.3002 155.366C47.0183 156.008 47.3176 155.726 48.4703 155.486C49.5229 155.268 52.7915 154.784 53.4788 154.361C52.9135 153.917 51.2471 152.687 50.9038 152.121L44.6363 153.833ZM29.3968 149.49C29.7641 150.186 30.391 150.612 30.8953 151.194L39.6825 150.742C39.4316 150.15 39.6372 150.437 39.1354 149.998C38.8348 149.736 38.8078 149.704 38.5531 149.416C38.1494 148.96 37.7979 148.625 37.481 148.054L29.3968 149.49ZM39.7479 151.742C41.718 153.218 40.8791 154.098 44.5024 153.05C46.2732 152.538 48.2571 151.944 50.0844 151.495L48.3979 149.64C48.0049 149.686 40.2987 151.296 39.7485 151.742H39.7479ZM25.0523 14.8019L35.7548 12.9602C36.0516 12.7829 37.481 10.8836 37.6061 10.5785C35.4794 10.7432 32.6158 11.4217 30.5042 11.8896C29.3635 12.1421 28.2354 12.4001 27.1161 12.6783C26.3634 12.865 26.3653 12.9 25.9289 13.497C25.6258 13.9111 25.2818 14.3208 25.0529 14.8025L25.0523 14.8019ZM26.1125 145.558C26.4244 146.212 28.0958 148.313 28.7498 148.787L34.9418 147.683C34.7292 147.216 34.196 146.636 33.7979 146.153C32.1146 144.107 33.6093 144.532 26.1119 145.558H26.1125ZM37.1282 12.8374L46.3467 11.9454C46.9454 11.074 48.4005 9.67266 48.6237 9.18718C47.5132 9.24857 39.4316 9.88878 38.7694 10.6123L37.1282 12.8374ZM38.2852 147.793C38.8273 148.863 39.9874 149.479 40.6288 150.513L47.178 149.047C47.6761 148.858 47.3679 148.953 47.5226 148.848L44.9602 145.62L38.2852 147.793V147.793ZM21.8994 19.8584C22.7521 19.7031 30.5998 17.6534 31.0456 17.0959C31.1946 16.9092 32.324 14.743 32.424 14.4743C30.3086 14.6923 27.8392 15.2241 25.7195 15.6037C23.7965 15.9483 24.2204 15.8825 23.3564 17.2706C22.8652 18.0606 22.1685 19.0622 21.8994 19.8578V19.8584ZM33.8325 14.1441L32.1762 17.1848C33.6684 17.2199 41.3382 15.7754 43.4592 15.2773C44.1584 15.1132 45.135 13.6123 45.4551 12.9708L33.8325 14.1435V14.1441ZM35.8467 147.446C37.0905 147.475 39.0706 146.695 40.2528 146.308C40.9992 146.064 41.6469 145.839 42.3839 145.598L44.2616 144.926C44.2817 144.87 44.337 144.873 44.3892 144.838L42.7876 142.414L33.5923 144.502L35.846 147.446L35.8467 147.446ZM22.9294 141.098L29.6175 139.487L27.5305 135.775L20.6172 136.86L22.9288 141.098H22.9294ZM32.1592 21.4064L40.6056 20.6045L43.0504 16.4444C40.8005 16.7444 38.5204 17.2512 36.3101 17.6816C35.7486 17.7906 35.1902 17.8996 34.6173 18.0036C33.3389 18.2347 33.3773 18.1815 32.1592 21.4064ZM23.5507 141.851C24.1952 142.821 24.5612 143.667 25.4516 144.795C27.8342 144.732 31.6323 143.973 33.9658 143.529C33.4301 142.297 32.5019 141.263 31.8901 140.045C29.9741 139.991 25.7245 141.475 23.55 141.851H23.5507ZM19.0319 25.3341C18.4616 26.8112 17.463 28.5345 17.0342 30.1369C18.9785 29.7041 22.6829 28.2363 24.9152 27.494C25.8018 27.199 25.827 27.3932 26.1659 26.5719C26.5847 25.5583 27.0658 24.4915 27.4072 23.4692L19.0319 25.3334V25.3341ZM19.6847 24.11L30.9205 21.5943L32.3554 18.355C30.8947 18.0393 26.6111 19.611 25.0127 20.0858C23.977 20.3934 22.2232 20.753 21.3693 21.122C20.8436 21.3493 19.8217 23.4968 19.6847 24.11ZM32.739 139.666C33.3861 140.749 34.1237 142.325 34.9386 143.2C36.0617 143.103 37.5464 142.675 38.699 142.417C39.5907 142.218 41.5092 141.942 42.1959 141.518L39.8114 137.159L32.739 139.666ZM16.4557 31.4161L15.3602 34.6266L25.81 32.0945L27.2525 28.185C24.6662 28.1298 19.2306 30.8047 16.4557 31.4161ZM28.6655 23.2468L27.1349 26.9121C28.4297 27.1232 32.9497 25.6774 34.418 25.2833C35.6241 24.9595 36.7842 24.6582 37.9853 24.3518C38.9945 24.0944 38.7348 24.2347 39.1637 23.342C39.4473 22.7513 39.7265 22.3385 39.9189 21.764C37.9268 21.7246 30.0068 22.5728 28.6661 23.2462L28.6655 23.2468ZM28.5573 28.0741L27.2104 31.7982L35.8743 30.5479C36.1875 30.1657 37.8029 26.3282 38.0299 25.6016L28.5573 28.0741ZM14.9144 36.0304L13.2493 41.59C14.4176 41.298 21.1265 38.7591 21.7283 38.31L22.9872 34.0859L14.9144 36.031V36.0304ZM16.196 126.442C16.3085 127.198 16.8914 128.574 17.1518 129.223L17.9837 131.223C18.1711 131.649 18.1113 131.574 18.3698 131.896L24.8882 129.51L23.1778 125.015L16.196 126.442ZM18.7301 132.843L20.1707 136.009L26.8759 134.98C27.7487 134.839 28.2574 134.544 29.0176 134.38L27.1349 130.189C25.1516 130.102 24.2814 130.657 22.6577 131.277C21.6522 131.661 19.4143 132.287 18.7307 132.844L18.7301 132.843ZM30.5872 139.254C31.8637 139.135 38.3443 136.913 39.3372 136.319L37.8042 133.016C36.2177 133.301 34.5148 133.795 32.939 134.18L28.3146 135.49L30.5866 139.254L30.5872 139.254ZM24.8913 39.0918C24.3323 40.0615 24.0518 42.296 23.8651 43.515L32.0945 42.0604C32.1215 42.0141 32.168 41.9101 32.1794 41.937L33.83 36.4332L24.8913 39.0918ZM27.9128 129.615L29.898 133.992L37.3577 132.198L35.2009 126.741L27.9122 129.615H27.9128ZM12.6261 114.671L14.1988 120.696C14.9647 120.552 20.4147 118.372 20.8499 118.005L19.3753 112.967C18.9219 113.027 13.3115 114.25 12.6261 114.671ZM12.9663 43.0796C12.5809 43.7461 12.0633 45.8528 12.0633 46.7699L22.5798 43.852L23.5079 39.3749C22.161 39.3041 14.4441 42.3605 12.9663 43.0796ZM23.1287 38.1452C25.1038 38.0481 28.436 36.7533 30.4426 36.1676C34.5745 34.9604 34.1784 35.533 34.8556 33.5616C35.0682 32.944 35.3147 32.4391 35.4593 31.8201C33.4879 32.0319 27.5166 32.8926 25.4774 33.3912C24.392 33.6562 24.3971 33.3988 24.1329 34.3866C23.8009 35.6288 23.3689 36.8842 23.1281 38.1452H23.1287ZM11.8395 48.0604C11.3647 48.8472 10.6648 53.4828 10.5837 54.2032L18.871 50.9745L19.552 45.9656L11.8388 48.0604H11.8395ZM14.5862 121.84L15.7878 125.559C17.8472 125.47 22.913 124.079 24.9001 123.525C24.5731 122.245 23.7255 119.862 23.2048 118.713C21.402 118.784 20.299 119.455 18.7666 120.062C17.9177 120.399 15.0345 121.427 14.5855 121.84L14.5862 121.84ZM24.0462 124.672L25.783 129.284L26.6728 129.29C26.891 129.054 26.9664 129.078 26.9683 128.604C27.5028 129.11 27.245 128.947 28.8573 128.291C29.5924 127.992 30.1866 127.757 30.8903 127.479C32.0555 127.017 33.9721 126.337 34.8726 125.801L33.5948 121.975L24.0462 124.671V124.672ZM41.6255 157.686C46.4499 158.679 46.4102 158.656 51.8464 158.919C55.5596 159.098 59.0873 158.941 62.7848 158.821C62.2484 158.505 60.0488 157.985 58.3327 157.224C52.5463 154.658 57.5863 154.453 46.9378 156.617L47.5604 157.121C47.7289 157.232 47.7113 157.213 47.8628 157.331C47.8842 157.348 47.9389 157.453 47.954 157.423C47.9697 157.392 48.0131 157.487 48.0357 157.516L47.8295 158.076C45.5148 157.526 47.3755 156.18 39.2467 156.684L39.651 157.022C38.6914 156.802 38.8222 156.654 37.6149 156.651C37.015 155.868 37.6388 156.253 36.5176 155.614C35.8234 155.218 35.7731 155.055 34.8468 155.097C34.7066 154.135 33.4854 153.758 32.5095 152.932L31.0179 151.893C30.452 151.396 29.5339 149.718 28.4693 149.627C28.2109 148.467 28.1159 148.804 27.489 148.106L25.7805 145.971C24.7819 144.849 24.1204 143.56 23.2193 142.354C22.7489 141.724 20.0877 141.259 19.252 141.381C18.4478 141.499 17.9271 141.156 18.378 140.346C18.7817 139.92 21.5095 140.809 22.2138 140.902C21.9817 140.242 21.4718 139.533 21.1429 138.913C20.592 137.875 20.6442 138.069 19.4658 137.751C17.9617 137.344 16.3752 136.928 14.9037 136.453L14.9132 134.836L19.4394 135.924C19.2237 135.201 18.8923 134.613 18.5704 133.976C17.7693 132.391 17.619 132.808 15.4118 132.121C14.5315 131.847 13.9378 131.918 13.2411 131.73L13.3235 130.645C14.2912 130.343 15.1075 131.269 17.541 131.806L15.8331 127.528L10.6101 126.009L10.6051 124.433L15.0307 125.483L13.8328 121.85C13.0588 121.651 12.296 121.379 11.5339 121.144C10.873 120.941 9.44743 120.929 9.31412 120.323C8.95946 118.712 10.8227 119.846 11.0805 119.936C11.8087 120.191 12.6305 120.406 13.326 120.614C13.3122 119.976 12.9902 119.154 12.8141 118.53C12.0231 115.728 12.7588 116.756 8.72303 115.766C8.14828 115.625 7.55153 115.493 6.96987 115.359L5.63299 115.03C5.31669 114.885 5.49842 114.958 5.30412 114.777C5.74681 114.454 5.87823 114.217 6.10712 113.812L7.4396 113.646C7.45909 113.608 7.47544 113.553 7.49871 113.514C7.83073 112.962 8.6526 112.955 9.25752 113.065C10.048 113.209 10.6988 113.437 11.5081 113.529L10.6805 109.662C9.95237 109.495 9.21288 109.228 8.49854 108.995C7.444 108.651 7.2956 108.897 6.45235 108.679C6.12662 107.999 6.06499 107.881 6.61458 107.186C7.7037 107.125 7.49934 107.588 8.4388 107.89C9.11038 108.107 9.73417 108.343 10.4133 108.464L9.57005 104.093L3.1875 102.333C4.19425 101.098 4.55708 101.421 6.5102 101.203C6.68627 100.772 6.78499 100.743 6.99125 100.288L9.13302 100.791L8.53438 96.6289C7.26416 95.9116 6.14674 95.7493 4.75767 95.6573C4.1911 94.8598 4.18607 94.794 4.76144 94.0022C6.0782 93.9032 5.59966 94.2428 6.67369 94.6456C7.26667 94.868 7.85148 95.0371 8.45578 95.2426L8.00177 90.5406C7.82758 90.4065 7.95775 90.4441 7.64334 90.332C7.58926 90.3125 7.29308 90.2587 7.21511 90.2449C6.99439 90.2067 6.74726 90.1822 6.49322 90.144C5.05385 89.9298 3.01772 89.9104 1.75756 89.3278C1.87641 89.1825 1.84308 89.2069 2.01349 89.0453L2.66872 88.5278C3.95466 87.7329 4.3024 89.1211 6.13228 87.1415L7.85839 87.2224L7.72068 83.0929C6.42782 82.2673 4.27851 82.35 4.13514 82.2836C3.05608 81.7818 3.91945 79.7591 5.28651 80.8509C5.84994 81.3007 6.82901 81.52 7.67038 81.7048L7.68358 76.9313C6.89818 76.7083 6.03167 76.216 5.223 76.1026C4.25336 75.966 3.25353 75.9597 2.28388 75.8219C3.14285 75.2112 3.95592 75.3327 5.15886 75.3371L5.16641 73.9389L7.75401 74.0805L8.00868 69.1047C7.3088 68.9381 6.64225 68.69 5.95684 68.5027C4.91047 68.2164 5.21231 68.8178 4.14583 68.0492C3.97604 65.3198 6.11719 67.7372 8.10049 67.8268L8.49979 63.1586C7.60498 62.9795 7.15914 62.6838 6.15491 62.6086C5.32172 62.5466 4.52438 62.5428 3.69433 62.4338C4.13136 61.8845 5.17269 62.0173 5.91282 61.9127L6.49071 60.7262L8.75195 60.9855L9.47069 55.6772C8.87331 55.5199 8.081 55.1948 7.54713 55.0921C6.67055 54.9236 6.62276 55.404 5.85308 54.8058C5.72983 54.0979 5.8776 53.8806 6.21528 53.5567C7.00257 53.4333 8.66392 54.2821 9.69015 54.4844L10.5083 49.934L6.87303 49.5707C7.012 49.3032 8.12187 48.4951 8.37969 48.3686C8.97958 48.0735 10.0649 48.2821 10.8698 48.1575L12.0137 42.975C10.9818 42.8334 9.5122 42.9312 8.6853 42.2747L8.67712 41.4258C9.85113 40.5802 10.0153 41.6407 12.4016 41.8531L13.6178 37.5269L10.6667 37.4286C11.5018 36.5228 12.4664 36.747 13.9441 36.5729C14.285 35.6288 15.7023 32.0469 15.6388 31.3967C13.4832 31.1217 12.8556 31.4318 12.3174 30.8085L12.3696 30.1294C13.2046 29.5763 13.8731 30.2779 16.201 30.3831L17.7146 26.6577L14.988 26.6408C15.4074 26.2875 15.525 26.1428 16.2947 26.0689C16.8688 26.0138 17.5259 25.9993 18.1069 25.9768C18.4591 25.175 20.2827 21.7064 20.3487 21.2021C18.4798 21.2078 16.1997 21.6857 16.7858 20.3965C17.0776 19.7551 17.9938 20.1572 18.6999 20.1666C19.4948 20.1773 20.3066 20.1648 21.1027 20.161C21.5271 19.2026 22.21 18.3832 22.5961 17.4172L19.9035 17.4122C20.4229 16.3811 22.0503 17.094 23.008 16.7206C23.301 16.6066 25.5937 13.2659 25.7735 12.828C25.1988 12.828 24.4392 12.7848 23.8877 12.8249C23.3538 12.8637 22.3339 13.4162 22.2188 12.4697C22.0685 11.2369 23.7424 11.961 24.5599 11.9566C25.2378 11.9529 25.9106 11.9616 26.5885 11.9391C27.0821 11.4116 27.9549 10.6136 28.248 9.86373L26.1854 10.026C26.3521 9.87375 26.1483 9.88377 26.6256 9.7209C28.2932 9.1521 28.1555 10.1431 29.8684 8.41792C32.1492 6.12143 36.1762 2.79069 39.1134 2.13043C38.4663 2.61717 36.6264 3.43717 35.7762 3.97089C34.0646 5.04459 32.5629 6.18156 31.2305 7.44633C30.12 8.50124 28.2014 10.4 27.4424 11.6309C28.4737 11.5338 29.7886 11.131 30.8645 10.9017C31.9769 10.6643 33.1691 10.43 34.3494 10.2095C36.334 9.83867 36.1611 10.2246 37.2074 8.88775C37.8067 8.12225 38.4657 7.32981 39.1222 6.66204L39.7485 7.10367C39.2693 7.94935 38.2928 8.71861 37.9626 9.54738C40.1403 9.41144 42.6008 8.89714 44.8206 8.65973C53.7725 7.70316 47.6754 8.31519 55.2716 3.71969C56.4815 2.98739 58.9559 1.55537 60.5726 1.2741C59.5608 2.02958 56.3576 3.04064 54.3145 4.76082L54.129 4.92995C54.1039 4.95501 54.0624 5.00826 54.0423 5.02956C54.0215 5.05148 53.985 5.09909 53.9574 5.13417C54.5139 6.14147 55.83 6.10389 56.9757 6.36448C57.8133 6.55492 59.8658 6.82491 60.3644 7.31165C61.0348 7.96689 61.9101 12.8875 62.2654 14.1836C61.5007 12.5837 61.0285 10.4983 60.3701 8.80192C59.8909 9.02243 58.9867 10.083 58.6578 10.6367C58.9993 11.7167 60.3544 14.5933 60.4908 15.5342C60.5688 16.0729 60.4739 15.9783 60.2695 16.2013C59.2703 16.5102 59.1005 15.2191 58.7477 14.2657C58.4132 13.3611 58.0428 12.4691 57.775 11.6052L56.8437 12.2899C56.418 12.6952 56.5318 12.7221 56.0117 12.9852C56.5135 11.3985 57.5127 10.2903 58.715 9.31121C59.125 8.97733 59.5872 8.81633 60.0463 8.46929C59.4526 7.94998 56.8575 7.7182 56.1017 7.5785C53.9467 7.18135 53.5423 6.77855 52.1093 6.46032C51.6251 7.24274 50.8346 7.52964 50.3253 8.30266C50.8346 8.61462 51.9571 8.93034 52.6714 8.93097C53.7404 8.9316 54.002 9.13331 53.5725 10.1613C52.5218 10.3567 52.7632 9.93075 51.6609 9.64949C50.9717 9.47346 50.2002 9.21286 49.5009 9.14959C48.8193 9.85997 48.5118 10.0874 47.9219 10.97C48.1665 11.3997 48.0093 11.2024 48.4049 11.5626C48.5709 11.7136 48.8004 11.9172 48.9683 12.0017C49.8373 12.4384 53.0519 12.8499 54.1372 13.0379C54.8949 14.1203 56.4506 18.0455 56.7047 19.6398L54.7013 15.444L54.2762 15.9C54.168 16.0629 54.0611 16.2865 53.9756 16.4262C53.7109 16.8597 53.553 17.0696 53.3455 17.4717C53.8781 19.0579 54.9125 20.617 55.498 22.1599L60.4789 16.2358C60.8166 15.8944 61.0587 15.64 61.4309 15.5511C59.6036 17.2124 58.2076 19.3166 56.7506 21.3581C52.3784 27.4846 49.0129 35.632 46.9378 43.0965C40.3968 66.6278 40.3541 93.6878 47.3321 117.161C50.5963 128.14 56.0941 138.233 62.3226 144.319C58.8911 141.329 55.8325 137.429 53.4386 133.42L52.9192 132.721C52.8965 132.698 52.8475 132.66 52.8117 132.629L50.5026 136.493L51.7364 139.313C50.3479 138.419 48.215 135.233 47.8213 132.77C48.635 133.286 48.9777 134.208 49.6311 134.931C50.4498 134.147 50.851 132.402 51.8967 131.74L52.3514 131.442C50.8095 129.659 49.6795 125.178 48.4973 123.707C48.0156 124.103 46.4888 125.938 46.131 126.507C46.2977 127.581 46.7265 128.271 46.863 129.594C45.1583 128.707 43.9629 124.711 44.166 123.073C44.7332 123.584 44.9633 124.233 45.4192 124.933C45.7776 124.501 46.1663 124.07 46.5825 123.602C47.3101 122.784 46.8152 122.918 47.9653 122.339C47.888 121.983 45.0275 113.624 44.9822 113.552C44.1364 114.06 43.4718 114.859 42.6335 115.427L43.1215 118.94C42.1148 118.33 41.6916 116.614 41.4136 115.553C41.0558 114.186 40.8125 112.717 40.9797 111.178C41.5721 111.883 41.6601 112.765 42.1374 113.479C42.8687 113.109 43.6208 112.372 44.2358 111.765L44.4024 111.592C44.42 111.574 44.4584 111.531 44.4867 111.502C43.9321 108.718 43.1221 105.965 42.6505 103.152L42.3053 101.952L40.1346 103.143C40.1516 104.087 40.3201 105.209 40.1189 106.167C40.0447 106.52 40.0528 106.392 39.9623 106.584C38.7015 104.861 38.616 100.765 38.8436 98.3139C39.2863 98.8827 39.4523 99.7046 39.651 100.463L39.9623 101.18C40.5792 100.872 41.7205 100.292 42.0808 99.8312L40.8571 89.8064L38.7694 90.0238C38.6216 91.4909 38.8116 92.4662 38.3789 93.9339C37.6344 91.7333 36.966 87.1453 37.7495 84.8582C38.3204 86.0265 38.2123 87.0532 38.6242 88.1702L40.7634 87.9572L40.4735 76.9896L38.4135 76.7346L37.9394 80.6066C36.9729 78.1479 36.9854 73.6539 37.8771 71.2177L38.4921 74.9543L40.5817 75.1247L40.7446 71.6261C39.7762 71.4714 38.9794 71.1581 38.0199 70.9239C37.1131 70.7021 35.9567 70.6301 34.9437 70.5167C33.7602 70.3845 29.6295 69.4148 29.0227 69.5708L28.8221 73.7178C29.6125 73.8744 30.2841 74.1606 31.0481 74.373C32.2064 74.695 32.18 74.0084 33.0591 74.8322C33.1735 75.5144 33.0289 75.7656 32.7629 76.1264C31.3003 76.4233 31.9825 75.9222 30.8771 75.5344C30.2967 75.3308 29.3704 75.0383 28.7705 74.9681L28.7095 79.8424C29.9426 80.0892 31.0865 80.4444 32.334 80.7645C34.0055 81.1942 34.5085 80.9837 35.0474 82.5655L37.4288 82.3631L38.0004 83.1343L37.0854 83.4312C33.9313 84.0031 31.9712 83.3454 28.7743 83.1787L28.9007 87.4642C29.6616 87.6039 30.3105 87.7661 30.9865 87.9327C31.9505 88.1701 32.1662 87.929 33.0044 88.1244C33.5722 89.3735 32.7157 90.1735 31.8832 89.5508C30.9337 88.8404 30.3212 88.7552 28.9717 88.5623L29.2861 93.4353C31.4367 94.1544 33.2496 93.9703 35.5693 94.2008L35.5888 96.0068L37.5464 96.0337C35.3316 97.5973 38.2676 97.3994 29.6068 96.652C29.6735 97.4119 29.7609 98.1216 29.8502 98.8401C29.8955 99.206 29.9382 99.5718 29.9816 99.9383C30.1759 101.576 30.6758 101.191 32.9006 101.534C33.6407 101.649 34.9908 101.096 34.9022 102.315C34.8701 102.755 34.5852 103.011 34.213 103.079C33.8489 103.146 32.4227 102.188 30.2967 102.181C30.4293 103.257 30.6507 105.877 31.0946 106.649C32.3416 107.494 35.8246 107.399 37.5803 107.383L37.6816 108.586L39.2486 108.623C38.8832 109.259 38.1708 109.982 37.618 110.509L31.6467 109.941L32.3567 113.454C32.6038 113.621 32.4944 113.61 32.8535 113.743C34.0319 114.181 36.0542 114.138 36.9943 114.451L37.0659 115.563C36.3981 115.76 36.5478 115.813 35.9529 115.493L34.9877 115.127C34.1652 114.951 33.4829 114.76 32.6673 114.641C32.8673 115.822 33.4005 117.978 33.7992 118.952L40.3465 119.593L40.4151 120.656L42.2544 120.674C40.1924 123.025 41.081 122.371 34.8047 122.371L35.8039 125.679C36.639 125.775 37.4552 125.861 38.2928 125.951C39.5863 126.089 39.8598 125.641 40.5653 126.218C40.7502 127.806 39.69 127.061 39.0744 126.918C38.4361 126.77 36.9119 126.689 36.2032 126.64C36.4296 127.622 37.1647 129.828 37.7029 130.407L43.8755 130.679L43.9144 131.31L46.1204 130.9C45.9644 131.329 44.9168 132.952 44.4804 133.229L38.8474 133.229L40.127 136.192C40.8445 136.242 41.557 136.282 42.2984 136.32C43.5051 136.382 44.476 135.737 44.9206 136.842L44.6319 137.466C43.783 137.584 43.8063 137.274 42.8153 137.222C42.1066 137.185 41.3841 137.122 40.6798 137.178C40.9571 137.856 41.9123 139.819 42.4719 140.288L50.5529 140.118C50.3341 140.631 49.5185 141.853 49.1664 142.189L43.5994 142.333C44.8778 145.217 45.296 144.8 47.9993 144.76C48.7721 144.749 49.8725 144.09 50.0423 145.028C50.275 146.314 48.8872 145.615 48.4847 145.569C47.793 145.49 46.5813 145.57 45.8261 145.563C45.9889 146.116 47.2334 147.614 47.6597 148.042L52.0294 147.98C51.6691 148.376 51.1327 148.63 50.5932 148.931L49.5367 149.541C49.5097 149.56 49.4657 149.589 49.4405 149.609L49.1972 149.846C51.2207 151.862 50.231 151.397 54.1932 151.356C55.0918 151.346 55.1855 151.102 55.5382 151.089C56.0916 151.069 56.2161 151.452 56.1847 152.014C55.8589 152.83 54.3768 151.872 51.5565 152.219L53.3216 153.855L57.2681 153.747L55.5961 154.918C55.2653 155.198 55.508 154.998 55.3458 155.181C56.4991 156.351 61.3322 158.43 63.2344 158.686C64.5562 158.863 72.512 157.978 73.4263 157.517C73.6162 157.318 73.4006 157.576 73.2635 157.01C73.0566 156.157 73.3289 155.008 73.3955 154.16C73.4521 153.436 73.2603 150.929 74.1168 150.86C75.2241 150.771 74.6551 153.227 74.5966 154.019C74.5205 155.06 74.6224 156.726 74.0954 157.462L79.7875 156.37C79.7787 154.951 79.6014 151.51 79.9189 150.477L80.8351 150.437C81.1539 151.557 80.954 154.596 80.9804 156C82.6266 155.658 82.1431 155.299 82.6034 155.052C83.7126 154.831 83.573 155.114 84.5697 154.612C85.1602 154.315 85.5488 154.131 86.0965 153.79C85.994 150.802 84.6917 147.546 86.4939 147.693C86.9328 148.539 87.1026 151.686 87.2214 152.965C87.6566 152.877 88.242 152.435 88.5998 152.123C88.7155 149.632 88.7715 150.973 90.485 150.515C90.9711 150.385 91.9992 149.209 92.4243 148.679C92.2187 147.296 91.1635 144.178 91.3886 143.049C93.1034 142.246 92.6551 146.086 93.5172 147.536C93.8951 147.246 94.468 146.567 94.822 146.17L94.4491 144.355C95.41 143.943 96.2897 144.162 96.8544 143.494C97.2455 143.031 97.9158 142.041 98.1931 141.51C98.2919 140.709 95.1974 136.233 96.9996 136.402C97.8014 136.477 98.4849 139.539 99.0402 140.116L100.263 138.209L99.3275 135.903C100.64 135.776 101.281 135.77 101.901 135.018C102.278 134.561 102.894 133.219 103.029 132.674C102.559 131.676 100.874 129.117 101.089 128.046C102.519 127.415 102.738 130.336 103.786 131.213L104.827 128.682C104.442 127.893 103.258 126.877 103.571 126.005C105.452 125.117 105.785 126.766 106.614 123.87C109.102 125.074 111.238 127.351 112.191 125.588C112.35 125.292 112.454 125.121 112.612 124.856C112.911 124.358 113.163 123.921 113.524 123.556C113.641 125.046 113.973 131.939 114.392 132.716C115.191 134.198 115.064 135.134 115.197 136.932L116.193 151.321C116.477 154.46 115.672 154.858 113.162 155.58C112.14 155.875 111.868 155.756 111.988 156.975C113.704 157.49 115.752 156.645 117.445 156.49C119 156.348 120.244 157.154 120.218 154.849L120.091 148.346C120.151 145.546 120.152 142.481 120.378 139.717C120.882 142.472 122.358 147.715 122.295 150.347C122.234 152.907 122.21 153.769 122.902 156.085C123.242 157.222 123.347 157.507 124.166 158.002C124.77 158.367 126.09 158.92 126.852 158.377C127.767 157.726 126.74 156.7 126.454 156.212C125.038 153.8 125.512 150.503 125.483 147.679C125.439 143.481 125.531 139.339 125.839 135.175C126.676 134.511 126.842 134.171 127.063 132.89L127.798 132.667C127.956 128.005 128.107 123.508 127.896 118.824C127.787 116.389 128.059 114.285 126.444 113.214C125.039 112.283 122.634 112.06 121.52 110.972C121.49 108.944 122.621 108.359 122.144 106.146C121.773 104.426 121.104 103.312 119.126 103.282C116.015 103.236 116.682 107.782 117.253 109.532C117.973 111.74 119.29 111.99 114.92 113.311C113.333 113.791 113.277 114.178 112.835 115.748C112.608 116.554 110.8 122.192 110.589 122.469C110.27 122.222 108.034 120.478 107.923 120.171C107.978 118.771 108.94 118.08 108.183 117.068C107.496 116.15 106.644 115.575 106.928 114.349C107.808 114.205 109.307 114.13 109.651 113.385C109.807 113.047 110.264 110.729 110.348 110.168C110.097 109.104 107.73 108.446 107.786 107.018C108.905 106.27 109.675 108.059 110.704 108.633L111.327 105.179L109.179 102.998C109.316 101.944 109.096 101.798 110.078 101.654C112.285 101.331 111.939 101.404 112.207 99.4246C112.305 98.7067 112.394 97.9976 112.446 97.2791C111.839 97.0185 111.465 96.7491 110.848 96.4058C110.256 96.077 109.626 95.9905 109.818 95.059C110.727 94.5554 111.629 95.6573 112.607 96.0156L112.979 92.1117C112.478 91.8805 111.003 90.8901 110.703 90.327L110.717 88.6725L113.276 87.5613L113.423 83.6836C112.483 83.6436 111.329 83.7751 110.605 83.4844L110.551 82.6569C111.301 82.375 112.493 82.4734 113.419 82.4803L113.471 78.8238L110.764 77.212L110.787 75.696L113.388 74.2233L113.199 70.216C112.245 70.2367 111.525 71.0824 110.742 70.6827C109.738 69.8107 112.62 69.0458 113.091 68.8855C113.059 68.1757 113.001 67.5236 112.948 66.8239C112.904 66.2438 112.896 65.3643 112.597 64.9183L110.141 64.4434L110.133 62.5165L112.282 60.6504L111.836 57.0728C110.82 57.2025 110.354 58.9515 109.036 58.5393C108.725 57.3616 110.573 56.5755 111.555 55.4823L111.01 52.146C110.958 52.1209 110.9 52.0276 110.878 52.0664C110.857 52.1034 110.788 52.0056 110.759 51.995C109.887 51.6805 108.787 51.9399 107.919 51.6479C107.712 50.2178 109.145 48.7451 110.063 47.8192C110.018 47.0919 109.589 45.0165 109.25 44.5417C108.752 45.0122 107.554 47.4985 106.764 46.8113C106.634 46.6979 106.183 46.6208 106.824 45.7294C109.067 42.6148 109.199 43.753 108.256 40.4718C107.884 39.1782 107.501 39.6192 105.276 39.4125C105.044 37.671 107.227 36.9876 106.575 35.1415C106.404 34.6572 106.224 34.0452 105.942 33.675C105.628 34.252 105.275 34.8496 104.978 35.3921C104.574 36.1275 104.423 36.6036 103.499 36.3793C103.271 35.3238 104.553 33.7376 105.086 32.8268C105.787 31.6303 104.608 30.0755 104.159 28.869L101.622 28.4531C101.921 27.333 102.892 26.1165 102.37 24.9983L101.967 24.2222C101.813 24.0042 101.83 24.0574 101.685 23.914C101.484 24.6049 101.132 25.2163 100.826 25.9198C100.418 26.8563 100.426 27.4577 99.3395 27.1651C99.0647 26.0194 100.671 23.7191 101.039 22.4713C100.527 21.2804 99.7759 20.2594 99.1684 19.1806L97.2606 19.0547C97.0078 16.3385 99.3219 18.5887 94.3504 12.4684C93.3927 11.2889 93.0204 11.9284 91.9697 11.3014C91.8735 9.56304 92.0238 9.68519 89.6977 7.93432C88.0163 6.66893 88.1169 6.36385 85.9871 5.9479C85.6657 5.10347 85.5651 4.8316 84.5257 4.65307C84.5244 5.70172 84.5244 6.75099 84.5251 7.80026C84.5263 9.01303 84.9262 10.2734 83.5196 9.9201C83.0624 8.94726 83.3668 5.32899 83.3165 3.96838C81.5627 3.44093 80.0441 2.76438 78.0419 2.47998C78.0369 6.14335 79.0461 8.38723 77.2232 8.31393C76.7188 7.25213 76.9314 3.73347 76.7912 2.14609C73.1421 1.64933 70.0703 0.886339 66.0767 0.483543C62.1805 0.0907709 58.1981 -0.0432854 54.1888 0.0118405C53.7436 0.712191 54.0529 0.42278 53.0965 0.880074L49.0261 2.74559L48.723 2.13482C49.699 1.16823 51.6226 1.09118 52.6016 0.0882652C49.3349 0.13838 46.0285 0.464124 42.8341 1.00787C41.7538 1.19204 40.8885 1.60736 39.9573 1.79466C40.0044 1.7646 40.1447 1.66249 40.1692 1.64432C40.1906 1.62866 40.2648 1.61676 40.2824 1.55599C40.3006 1.49272 40.3572 1.48897 40.3987 1.46203C35.0663 2.04336 30.2778 3.74349 25.9458 6.50856C24.5159 7.42127 22.9042 8.9767 22.398 9.29054L22.3219 10.3974L21.1636 10.425C20.5795 11.292 19.5444 12.221 19.064 12.8192C16.7908 15.6507 16.7694 15.0236 16.8851 17.659L15.2993 17.8C14.8276 18.7973 13.9272 19.99 13.3172 21.1038C12.7475 22.1437 11.8357 23.5707 11.4666 24.64C11.7137 25.2821 12.3557 26.0795 12.2671 26.6953L10.3234 26.7655C10.0404 27.8135 7.12959 33.9914 7.20379 34.6428C7.60812 35.4321 8.81483 36.4626 8.32498 37.3872L6.2222 37.537C5.50031 39.2715 4.13702 44.085 3.8572 45.9831C5.7707 48.1832 5.46572 47.397 5.39781 49.2399C4.55267 49.4899 3.78362 49.2656 3.07997 49.5832C2.57691 50.7803 1.53936 57.2107 1.45447 58.8481C3.63522 60.195 3.3554 60.8339 3.34848 62.0229L0.97216 62.8204C0.674726 64.0989 0.103127 70.7503 0.264734 72.0151L2.4587 73.325L2.41845 74.9813L0 76.0562L0.127651 85.5272L2.47253 86.4982C2.4065 87.9872 2.81209 88.048 0.326359 89.5038C0.438918 91.2904 0.775967 97.4595 1.24444 98.76L3.64277 99.4515C3.64088 100.829 3.89618 101.293 1.7934 102.636C1.87389 104.036 3.07117 110.693 3.57423 111.744L6.02098 112.171C6.02475 113.245 5.9474 113.573 4.30052 114.804C4.41496 116.111 6.25553 122.518 6.83782 123.306L7.44086 123.56C8.36963 123.763 8.8337 123.561 9.30909 124.088C8.9079 125.14 8.38912 125.552 7.93763 126.508C8.31429 127.934 10.4982 133.02 11.2396 134.116C13.6448 134.263 13.155 134.369 12.3268 136.177C12.6701 137.223 13.9504 139.208 14.5497 140.153C16.7443 143.614 16.0608 142.713 17.8114 143.072C17.9472 143.829 17.7296 143.877 17.5498 144.559L20.05 147.516C21.9773 149.831 23.0998 149.764 23.1727 149.818C23.4488 150.025 23.2941 150.247 23.4394 150.626C23.7236 151.366 28.0405 154.128 28.8372 154.435C29.7175 154.774 29.305 154.327 30.0382 154.905C31.6096 156.146 39.6422 157.854 42.2575 158.028C42.2122 157.997 42.1563 157.955 42.1223 157.935L41.6306 157.683L41.6255 157.686ZM10.3121 55.6164L9.75115 59.6707L19.9701 56.9438L20.5883 51.782C18.9974 52.0025 16.7914 53.0687 15.3496 53.6431C13.8385 54.2451 11.786 55.1992 10.3127 55.617L10.3121 55.6164ZM9.56565 61.0037L8.9538 67.7579L16.4689 64.6026C16.5034 64.5819 16.5487 64.5593 16.5808 64.5361C16.8386 64.352 16.682 64.4654 16.8638 64.2411L17.3278 58.986L9.56502 61.0037H9.56565ZM10.1442 101.836L11.1974 108.477L18.3503 105.447L17.4442 100.075C16.5619 99.9364 11.5131 101.567 10.1442 101.836ZM11.5005 109.524L12.2897 113.543L21.7164 111.24L20.3632 105.932C17.5932 106.428 14.2523 108.65 11.4999 109.524H11.5005ZM8.8098 88.3556L9.28016 95.2031L16.5336 92.138L16.2236 86.4349L8.8098 88.3556ZM21.8057 51.5577L21.2202 56.5949L29.3943 54.7231L29.7779 53.1777C29.8691 52.6358 29.9766 52.0645 30.0854 51.4913C30.2809 50.4565 30.518 49.3922 30.706 48.3617C29.7502 48.539 22.3175 51.1775 21.8057 51.5577ZM20.2028 50.6068C21.6038 50.3738 29.3943 47.5736 31.0186 46.9109L31.8712 43.3634C30.3765 43.344 25.5931 44.4208 23.8393 44.744C23.1117 44.8781 22.6282 45.0285 21.9667 45.2277C20.9492 45.5334 20.8354 45.3066 20.6977 46.3057C20.5392 47.4552 20.1594 49.5237 20.2028 50.6068ZM8.58909 74.6975L8.54507 81.5676L16.1721 78.3371L16.1645 72.5432L8.58909 74.6975ZM24.026 118.114L25.7509 123.195C26.7539 123.05 32.6862 121.412 33.2678 121.007L31.5524 114.701L24.0267 118.114H24.026ZM8.62493 82.9939L8.71611 87.0889C9.90773 87.0444 16.7091 84.9396 18.3736 84.5087L18.117 78.9196C17.5592 78.9315 9.21917 82.5467 8.62493 82.9939ZM21.3774 105.51L22.6929 110.851L30.1608 108.904C30.2986 108.203 29.3446 103.599 29.1818 102.376C28.0832 102.447 22.9816 104.99 21.3781 105.51H21.3774ZM8.86262 69.1592L8.65511 73.3939C9.81466 73.1991 18.0428 70.808 18.6389 70.4597L18.7955 65.0717C17.1417 65.4063 15.2754 66.4349 13.7567 67.0538C12.108 67.7247 10.407 68.4451 8.86262 69.1598V69.1592ZM18.5943 58.545L18.144 63.9316L28.6334 60.0872L29.0063 58.0632C29.1082 57.3535 29.2258 56.6895 29.2874 55.991C25.7981 56.5924 21.9994 57.6955 18.5949 58.545H18.5943ZM20.3839 112.645L21.8151 117.569C23.8267 117.539 25.1227 116.656 26.7658 115.872C27.8895 115.336 30.2508 114.156 31.3242 113.863L30.501 109.946C29.0944 110.104 26.7218 110.881 25.3202 111.255C23.6028 111.713 21.9736 112.184 20.3845 112.646L20.3839 112.645ZM20.0286 64.595L19.8324 70.1903L27.9468 68.197L28.5416 61.4021L20.028 64.595H20.0286ZM9.4468 96.4284L9.95866 100.818C11.6904 100.501 17.7252 98.7575 19.5268 98.158L18.8804 92.5552C17.6297 92.7137 15.3697 93.9214 14.1485 94.4564C12.7588 95.0647 10.79 96.0306 9.44743 96.4284H9.4468ZM19.9167 92.2075L20.5468 97.8178L28.2769 95.7205L27.7631 88.7039L19.9161 92.2069L19.9167 92.2075ZM17.3586 72.0997L17.3637 77.8052L27.6669 73.6156L27.8449 69.4749L17.3586 72.1003V72.0997ZM17.4228 86.0541L17.7202 91.4739C19.9903 91.3556 21.0781 90.5136 22.9275 89.7068C23.9437 89.2633 26.9715 88.0367 27.6902 87.4949L27.5676 83.2727L17.4228 86.0541ZM19.3099 78.3295L19.5639 84.1027L27.555 82.0286L27.5751 74.9756L19.3099 78.3295ZM18.4314 99.6971L19.396 105.026C20.4506 104.898 28.1266 101.73 28.9365 101.167L28.4649 96.9201C27.6669 96.7216 19.2621 99.2148 18.4314 99.6971ZM96.0344 101.671C99.8325 89.5107 99.9777 70.3006 95.5615 58.6483C95.6156 59.9369 96.3042 62.1313 96.5437 63.6335C98.5572 76.2272 98.3088 89.0885 94.7755 101.259C92.6432 108.604 87.4623 119.772 80.0164 122.395C78.5361 122.916 76.6748 123.374 74.9739 123.267C72.8051 123.13 71.987 122.571 70.2118 122.148L71.3311 122.774C79.326 126.126 86.1807 120.654 90.3423 114.344C92.9117 110.449 94.5982 106.271 96.0344 101.67V101.671ZM44.6715 15.3037C46.5737 16.7307 48.73 15.5511 47.8911 17.5012C46.8385 17.6847 45.9745 16.6755 43.9031 16.2809L42.3537 18.9313C43.273 20.6008 46.6152 20.8169 48.6413 21.3268C49.9298 21.6513 49.7065 23.0294 50.2096 24.0981C50.6548 25.0447 51.4471 26.1967 51.71 27.162C51.6779 27.1307 51.6257 27.0417 51.6112 27.0705C51.5974 27.0987 51.5351 27.0004 51.5169 26.9791C51.4993 26.9578 51.4528 26.9102 51.4314 26.8839C50.8353 26.1428 49.9832 24.3531 49.2651 23.9221L48.4684 26.8131C48.8067 27.4545 50.3718 29.892 50.7988 30.2666C51.6213 28.8515 53.8058 24.2804 54.8767 23.3784C54.8446 23.3401 54.7956 23.2349 54.7767 23.2681L54.019 22.4707C53.5606 21.5949 52.8318 19.6837 52.3432 19.0829C52.2048 19.2063 52.2206 19.1694 52.0646 19.361C52.0369 19.3949 51.9036 19.5872 51.8527 19.6574C51.676 19.9004 51.6257 19.9568 51.4182 20.2186C51.0843 20.6402 50.9264 20.8751 50.5121 21.2829C50.8026 19.8102 52.0382 17.4329 53.1166 16.4055C53.4229 16.1136 53.4329 16.0666 53.7561 15.7165C54.1636 15.2742 54.1303 15.5693 54.3416 14.9629C53.3135 14.3878 49.9442 13.913 48.298 13.4964C47.5302 13.3016 47.2346 12.9176 46.4857 12.8192C46.0267 13.2126 44.8998 14.7324 44.6709 15.3049L44.6715 15.3037ZM44.3175 47.3118C44.6665 47.1846 46.1115 42.0028 46.2725 41.3193C45.6487 40.6603 44.6017 39.2891 43.788 38.9333C43.6227 39.581 43.1334 40.8677 42.6021 41.35C42.5065 39.7013 42.7524 38.4904 43.2139 37.0458C43.8692 34.9974 44.4892 34.4925 44.7923 33.6537C43.8082 33.1037 41.9531 32.922 40.6094 32.6646C38.8084 32.3194 38.0915 32.2787 36.671 31.5295C36.234 32.139 35.6014 34.2175 35.3323 35.1058C37.6306 36.405 39.9013 35.6583 38.6921 37.6541C37.0905 37.7907 38.4802 37.1354 34.9085 36.3079L33.7948 40.1417C34.1507 40.5676 35.6511 41.6814 36.2133 42.0448C37.3024 42.7482 41.0439 42.5966 41.7205 43.2262C42.8077 44.2379 41.8525 44.5192 43.2988 45.9888C43.7359 46.4329 43.9868 46.7499 44.3181 47.313C41.7412 46.0094 43.4969 45.1587 39.1505 44.7296C36.6415 44.4816 35.2971 43.8282 33.0981 43.2224C32.7195 43.7274 32.2448 46.1936 32.1259 46.9823C33.4062 48.0604 35.7756 47.7584 35.9787 48.6492L35.8573 49.5488C34.2287 50.075 34.4708 48.6711 31.8021 48.331L30.9525 52.8607C33.5835 53.6594 31.8033 54.3491 37.1144 55.1541C38.2921 55.3326 39.275 55.3383 39.9365 56.504C40.3484 57.2301 40.0057 57.1837 40.7986 57.812C41.3262 58.2299 41.4488 58.3063 41.9274 58.8281C42.338 58.3551 42.1833 58.4203 42.3569 57.3785L43.2309 52.4254C42.3499 52.0833 41.8268 51.3917 40.9275 50.9833L39.9026 53.5385C39.619 51.3084 40.1478 46.9409 41.4903 45.6561C41.6255 46.8883 41.4539 47.8298 41.3344 48.9894C41.9217 49.3734 43.1416 50.4346 43.722 50.5611C43.961 49.5425 44.4754 47.9996 44.3181 47.3124L44.3175 47.3118ZM39.5995 24.385C40.278 24.5918 43.1259 25.3955 43.2253 25.9743C43.0404 27.3537 42.1437 26.6038 41.4532 26.3169C40.7993 26.0457 39.7894 25.6429 39.1222 25.4756C38.5481 26.2017 37.9532 27.8523 37.63 28.8083C39.6768 31.7876 43.9082 30.5159 45.0576 31.8959C46.2405 33.3161 45.8839 33.4839 45.7984 34.3854C46.1964 34.6485 47.0567 35.8406 47.3315 36.2904C46.6681 35.7585 45.5789 34.3215 44.9709 33.9619L44.4194 37.3046C44.8828 37.7719 45.1733 38.0719 45.6053 38.5217C46.2298 39.1719 46.2467 39.363 46.8894 39.6725C47.2931 38.2937 47.8471 36.992 48.3741 35.6884C48.8545 34.4981 49.8059 32.7241 50.0662 31.6416C49.1016 30.7815 48.3646 29.04 47.6578 28.5176C47.1441 29.1165 46.9127 29.6565 46.3819 30.2321C46.0487 27.1 48.9192 24.1846 49.1966 23.5801C47.9138 22.8872 44.0559 22.507 41.2985 21.271L41.0238 21.5291C40.5804 22.0416 39.7825 23.7924 39.6001 24.3838L39.5995 24.385ZM29.8816 60.1342C30.5884 60.3434 31.1965 60.6178 31.8605 60.8828C32.8157 61.2643 33.2704 61.0901 33.9646 61.4303L34.0935 62.4401C33.083 63.4869 32.9522 62.7013 32.1454 62.2641C31.6361 61.9878 30.2992 61.5161 29.7685 61.3495L29.2497 66.163C29.6955 66.4743 30.2545 67.0074 30.8129 67.2661C31.4254 67.5499 32.2385 67.7942 32.8874 68.0304C35.209 68.8748 35.0468 68.8654 37.7803 68.8654C38.4563 69.8157 38.5022 70.4672 40.7716 71.3179L41.3174 64.486L38.9442 63.4599L38.3022 66.8051C37.391 64.5725 37.679 59.7884 38.9694 58.1334L39.109 61.4848C39.6743 61.9446 40.7603 62.3737 41.5991 62.4908L42.0362 59.1689C41.0935 58.8331 40.2981 58.4021 39.497 57.9486C38.4299 57.3447 35.0965 57.2727 33.3087 56.7703C32.4485 56.5285 31.3349 56.1633 30.4488 56.0104L29.8816 60.133V60.1342ZM82.5235 82.9939C82.0494 89.4525 80.5955 95.4956 77.9847 100.535C75.963 104.436 73.9174 107.189 70.5646 109.644C68.9579 110.821 68.5888 110.575 66.8778 109.362C52.0508 98.8552 53.3531 56.3831 67.9782 48.5377C69.1554 47.9063 69.8955 48.7933 71.4449 49.9591C79.9541 56.3625 83.3441 71.8203 82.5235 82.9939ZM88.0251 83.1606C88.652 76.2153 87.4403 67.4146 85.4872 61.4798C83.4649 55.3339 80.1742 49.5845 74.9538 47.4634C71.5116 46.0646 67.4928 47.5298 65.4076 49.3276C52.435 60.5107 52.2074 92.1355 62.0975 105.621C63.8884 108.063 65.4371 109.655 68.6504 111.269C72.0492 112.976 75.7964 111.37 77.9388 109.657C84.9935 104.014 87.2038 92.2664 88.0257 83.1618L88.0251 83.1606ZM61.4844 150.684C62.105 151.46 62.8766 151.75 63.4029 152.693C61.058 151.99 59.3784 150.214 58.3774 148.544C59.0552 148.864 59.8362 149.394 60.3758 149.78C61.2322 148.78 61.2505 146.193 62.2169 145.352L62.8062 145.404C63.3507 146.309 61.717 149.476 61.4837 150.683L61.4844 150.684ZM55.6275 144.682C56.0614 145.389 56.5928 146.16 56.8342 147.053C55.3464 146.205 53.4367 143.912 52.8576 141.812C53.6889 142.288 54.0768 142.967 54.7006 143.355C54.9641 142.62 55.3791 141.937 55.7206 141.216C56.1859 140.233 56.1928 139.42 57.4127 139.509C58.1007 140.822 55.8941 143.124 55.6275 144.682ZM107.361 120.166L106.904 121.499C106.577 121.158 104.673 118.679 104.72 118.182C104.749 117.888 105.198 116.92 106.213 118.524C106.563 119.078 106.921 119.648 107.361 120.166ZM51.2975 83.4945C50.7762 70.9226 52.5683 57.3328 56.2991 46.4185C59.6576 36.5923 65.9088 25.408 75.0254 22.8998C78.1136 22.0503 81.4011 22.3385 84.0987 23.5187C85.4041 24.09 86.326 24.6362 87.4258 25.3679C89.006 26.4197 91.7773 29.0851 92.7934 30.5272C95.3244 34.1191 96.8022 35.8976 98.7647 40.577C107.868 62.281 108.5 90.3589 101 112.63C96.8751 124.88 87.0529 140.991 73.2019 135.404C66.3791 132.652 61.4542 124.585 58.5641 118.315C54.0171 108.45 51.803 95.7055 51.2968 83.4951L51.2975 83.4945ZM104.392 114.5C104.032 117.419 100.356 125.412 98.9018 128.207C97.7945 130.335 96.4714 132.44 95.1874 134.179L93.0098 136.839C85.5192 145.355 76.312 147.92 66.4778 140.609C65.1278 139.605 64.9825 139.371 63.9223 138.316L61.6372 135.929C60.9386 135.117 60.2097 134.056 59.569 133.147C58.1925 131.194 57.1568 129.444 55.9004 127.135C53.7291 123.146 51.7791 118.019 50.3976 113.277C44.1635 91.8761 44.2012 66.6466 50.4957 45.3072C52.9462 36.9995 58.024 25.792 64.2003 20.2807C67.9744 16.9123 71.5241 14.3346 77.2791 14.0727C80.239 13.938 82.9958 14.7461 85.2513 15.8643C93.4732 19.9418 98.9188 29.6326 102.133 37.728C102.78 39.3574 104.366 43.3383 104.561 44.9746C104.107 44.2235 103.734 42.5904 103.351 41.5192C101.491 36.3185 98.6264 30.0668 95.4062 25.7544C91.454 20.4617 85.8406 14.7524 77.9488 14.7906C73.7835 14.8107 70.5947 16.4231 67.5582 18.6206C67.0784 18.9683 66.6998 19.2965 66.2389 19.6492L63.7947 22.0447C61.8302 23.788 58.3994 29.5337 57.1386 31.9197C50.1077 45.2258 47.3472 63.6786 47.2472 78.9923C47.1372 95.8126 50.6799 118.295 60.2443 132.308C61.3228 133.888 63.1388 136.409 64.4889 137.583L66.9136 139.833C72.1737 144.186 78.5248 145.491 84.9677 142.509C92.9349 138.82 98.566 129.198 101.806 121.432C102.262 120.34 102.702 119.219 103.115 118.067C103.512 116.961 103.873 115.419 104.391 114.5L104.392 114.5ZM41.5991 6.87628C42.0412 5.84705 43.9962 4.88924 44.5741 3.95397C45.118 4.21332 44.9344 4.07237 45.2683 4.61173L42.1305 7.27531L41.5991 6.87628ZM61.8944 7.13562C62.2358 6.48851 63.1193 5.66726 63.8054 5.21686C64.6499 4.66247 65.4132 4.34048 66.6256 4.13752C66.11 4.86982 65.417 5.01703 64.9284 5.63406C65.102 6.74974 65.4044 7.88671 65.656 9.0525C65.8434 9.9201 66.6533 11.8658 65.1466 11.5538C64.6599 10.9412 64.0399 7.35362 63.85 6.29683L61.8944 7.13499V7.13562ZM42.4826 4.46953C42.7423 3.77544 44.9111 2.40481 45.4821 1.87547C45.8946 2.21751 45.7481 2.00076 45.9958 2.52508C45.467 2.8715 44.9476 3.28432 44.3961 3.7247C43.6302 4.3361 43.4686 4.67938 42.7914 4.84914L42.4826 4.47015V4.46953ZM68.38 3.61319C69.5075 2.4449 71.0557 1.84916 73.2974 1.91807C72.7472 2.54951 72.3127 2.41233 71.5317 2.96734C71.6178 4.24464 72.3932 7.56911 72.0165 8.60523L71.184 8.66348C70.7891 7.7063 70.5193 4.70381 70.3558 3.30562L68.38 3.61382V3.61319Z" fill="url(#paint0_linear_2191_6619)"/>
<defs>
<linearGradient id="paint0_linear_2191_6619" x1="64" y1="0" x2="64" y2="159" gradientUnits="userSpaceOnUse">
<stop stop-color="#FFEAA6"/>
<stop offset="0.35" stop-color="#EEDC7A"/>
<stop offset="0.685" stop-color="#DAAF41"/>
<stop offset="1" stop-color="#FFC737"/>
</linearGradient>
</defs>
</svg>
