<svg width="64" height="72" viewBox="0 0 64 72" fill="none" xmlns="http://www.w3.org/2000/svg">
<path fill-rule="evenodd" clip-rule="evenodd" d="M14.7871 9.26471V44.2536C14.7871 45.1461 15.5115 45.8706 16.4041 45.8706C17.2967 45.8706 18.0211 45.1461 18.0211 44.2536V9.26471C18.0211 8.37213 17.2967 7.64771 16.4041 7.64771C15.5115 7.64771 14.7871 8.37213 14.7871 9.26471Z" fill="#DACEE8"/>
<path fill-rule="evenodd" clip-rule="evenodd" d="M32.5332 8.62116V44.9748C32.5332 45.8674 33.2576 46.5918 34.1502 46.5918C35.0428 46.5918 35.7672 45.8674 35.7672 44.9748V8.62116C35.7672 7.72857 35.0428 7.00415 34.1502 7.00415C33.2576 7.00415 32.5332 7.72857 32.5332 8.62116Z" fill="#DACEE8"/>
<path fill-rule="evenodd" clip-rule="evenodd" d="M54.6657 13.5917C54.1806 13.5205 53.6906 13.6741 53.3317 14.0072C52.9727 14.342 52.7851 14.8206 52.8207 15.3089C53.3802 22.9913 53.3769 30.6737 52.8223 38.3562C52.7883 38.8445 52.9759 39.3231 53.3349 39.6562C53.6923 39.9909 54.1838 40.1429 54.6673 40.0734C59.8029 39.328 64.0007 33.7558 64.0007 26.8317C64.0007 19.9077 59.8013 14.3339 54.6657 13.5917ZM56.2019 17.4725C58.9362 18.9892 60.7667 22.6566 60.7667 26.8317C60.7667 31.0068 58.9362 34.6742 56.2035 36.191C56.5624 29.9509 56.5641 23.7125 56.2035 17.4741L56.2019 17.4725Z" fill="#DACEE8"/>
<path fill-rule="evenodd" clip-rule="evenodd" d="M55.3583 7.85947C55.3583 7.85624 55.3567 7.85139 55.3567 7.84654C54.9621 4.72248 52.9571 2.03339 50.0755 0.762421C47.194 -0.508549 43.8565 -0.17383 41.2839 1.64207C37.9124 3.9932 34.7043 6.25217 33.6112 7.02186L17.2616 7.59105C7.63228 7.92577 0 15.8281 0 25.4639V28.0543C0 37.6884 7.63228 45.5924 17.2616 45.9271L33.6112 46.4947L41.2645 51.8971C43.8452 53.7195 47.194 54.0542 50.0852 52.78C52.9765 51.5042 54.988 48.807 55.3826 45.6716C55.3842 45.6652 55.3842 45.6603 55.3858 45.6538C56.8379 33.0541 56.8411 20.456 55.3583 7.85947ZM52.1469 8.24594C53.599 20.587 53.5958 32.928 52.1744 45.2738C51.9189 47.2789 50.6302 49.0043 48.7803 49.8209C46.9272 50.6375 44.7831 50.4224 43.1289 49.2549L35.0826 43.5744C34.8239 43.3933 34.5199 43.2914 34.2062 43.2801C34.2062 43.2801 25.691 42.9841 17.3731 42.6947C9.48538 42.4198 3.23402 35.9469 3.23402 28.0543V25.4639C3.23402 17.5712 9.48538 11.0967 17.3731 10.8235C25.691 10.534 34.2062 10.2381 34.2062 10.2381C34.5199 10.2268 34.8239 10.1233 35.0826 9.94218C35.0826 9.94218 38.9829 7.19003 43.1402 4.28912C43.1434 4.2875 43.145 4.28588 43.1483 4.28427C44.7944 3.12325 46.9272 2.90981 48.7706 3.72155C50.6124 4.53329 51.8931 6.25055 52.1469 8.24594Z" fill="#DACEE8"/>
<path fill-rule="evenodd" clip-rule="evenodd" d="M14.0914 42.2065C13.5772 42.069 13.0274 42.1935 12.6232 42.5396C12.2189 42.8856 12.0103 43.4095 12.0653 43.9383L13.9508 61.8466C14.5183 67.2394 19.0654 71.3336 24.4888 71.3336H24.492C26.2077 71.3336 27.8263 70.5348 28.8709 69.1733C29.9139 67.8118 30.2664 66.0428 29.8217 64.3853C28.0947 57.8542 27.414 51.3134 28.0074 44.7726C28.0462 44.3296 27.9023 43.8898 27.6096 43.5567C27.3153 43.2235 26.8965 43.0263 26.4519 43.0101L17.374 42.6948C16.2421 42.6544 15.1425 42.4878 14.0914 42.2065ZM15.5112 45.78C16.0868 45.856 16.6706 45.9062 17.2624 45.9272L24.6586 46.1843C24.2834 52.5294 25.0208 58.8746 26.696 65.2181C26.696 65.2197 26.6976 65.2213 26.6976 65.223C26.882 65.9102 26.7364 66.6427 26.3047 67.2054C25.8713 67.7697 25.2019 68.0996 24.492 68.0996H24.4888C20.7212 68.0996 17.5615 65.2553 17.167 61.5087L15.5112 45.78Z" fill="#DACEE8"/>
<path fill-rule="evenodd" clip-rule="evenodd" d="M26.4516 43.01C25.5946 42.9809 24.8637 43.6261 24.7861 44.4798C24.453 48.1569 24.4967 51.8324 24.8864 55.5078C24.9753 56.3358 25.6771 56.9615 26.5098 56.9534C32.3974 56.9001 37.3034 52.712 38.4644 47.1544C38.5954 46.5237 38.3399 45.8737 37.8144 45.5034L35.0832 43.5743C34.8245 43.3932 34.5205 43.2913 34.2068 43.28L26.4516 43.01ZM27.8908 46.2957L33.6117 46.4946L35.0282 47.4956C33.9853 50.6309 31.2784 53.0112 27.9587 53.5868C27.7695 51.1565 27.7436 48.7261 27.8908 46.2957Z" fill="#DACEE8"/>
</svg>
