<svg width="64" height="67" viewBox="0 0 64 67" fill="none" xmlns="http://www.w3.org/2000/svg">
<path d="M54.4022 27.8181C52.7791 27.8181 51.4592 26.5006 51.4592 24.8763C51.4592 23.2553 52.7791 21.9379 54.4022 21.9379C56.022 21.9379 57.3384 23.2553 57.3384 24.8763C57.3384 26.4972 56.022 27.8181 54.4022 27.8181ZM54.4022 24.3693C54.1196 24.3693 53.8922 24.5969 53.8922 24.8763C53.8922 25.4384 54.9088 25.4384 54.9088 24.8763C54.9157 24.5969 54.6848 24.3693 54.4022 24.3693ZM54.4022 15.2679C49.1054 15.2679 44.7976 19.5789 44.7976 24.8763C44.7976 29.4908 48.0681 33.3534 52.4069 34.2777V50.087C52.4103 57.5089 45.4489 63.5512 36.9023 63.5512C32.7323 63.5512 28.8036 62.1268 25.8468 59.5506C22.976 56.9916 21.3942 53.6255 21.3942 50.087V34.3329C29.1276 33.5569 35.1791 27.7767 35.1791 20.6929V11.8329C37.7363 11.1328 39.6317 8.81171 39.6317 6.03541C39.6317 2.70731 36.9264 0 33.6008 0C30.2752 0 27.5699 2.70731 27.5699 6.03541C27.5699 8.70824 29.324 10.9534 31.7329 11.7432V20.6929C31.7329 26.3972 26.3223 31.0393 19.6711 31.0393C16.4006 31.0393 13.3438 29.9322 11.0452 27.9009C8.82925 26.004 7.60928 23.445 7.60928 20.6929V11.8329C10.1664 11.1328 12.0618 8.81171 12.0618 6.03541C12.0618 2.70731 9.35652 0 6.03091 0C2.70529 0 0 2.70731 0 6.03541C0 8.70824 1.75413 10.9534 4.16305 11.7432V20.6929C4.16305 24.4693 5.81035 27.9595 8.78445 30.5047C11.2795 32.7085 14.4949 34.0018 17.948 34.3363V50.0836C17.948 54.6188 19.9399 58.9022 23.5688 62.1372C27.1667 65.2756 31.9018 67 36.9023 67C47.3547 67 55.8565 59.4092 55.8565 50.087V34.3398C60.4573 33.6328 64 29.6804 64 24.8797C64 19.5789 59.6922 15.2679 54.4022 15.2679ZM31.0161 6.03541C31.0161 4.60761 32.174 3.44881 33.6008 3.44881C35.0275 3.44881 36.1854 4.60761 36.1854 6.03541C36.1854 7.46322 35.0275 8.62202 33.6008 8.62202C32.174 8.62202 31.0161 7.45977 31.0161 6.03541ZM3.44623 6.03541C3.44623 4.60761 4.60417 3.44881 6.03091 3.44881C7.45765 3.44881 8.61558 4.60761 8.61558 6.03541C8.61558 7.46322 7.45765 8.62202 6.03091 8.62202C4.60417 8.62202 3.44623 7.45977 3.44623 6.03541ZM54.4022 31.0393C51.0077 31.0393 48.2438 28.2768 48.2438 24.8763C48.2473 21.4792 51.0077 18.7167 54.4022 18.7167C57.7933 18.7167 60.5538 21.4792 60.5538 24.8763C60.5538 28.2733 57.7968 31.0393 54.4022 31.0393Z" fill="#DACEE8"/>
</svg>
