<svg xmlns="http://www.w3.org/2000/svg" xmlns:xlink="http://www.w3.org/1999/xlink" width="430" height="720" viewBox="0 0 430 720"><defs><clipPath id="a"><rect width="430" height="720" fill="none"/></clipPath></defs><title>decorRight</title><g clip-path="url(#a)"><path d="M435.18,553.59A61.56,61.56,0,1,1,345,637.37Z" fill="#bddcf2"/><path d="M456.42,669.23a39.55,39.55,0,0,1-79.09,0Z" fill="#bddcf2"/><path d="M243.45,610.74A49.48,49.48,0,1,1,171,543.3Z" fill="#bddcf2" opacity="0.64" style="isolation:isolate"/><path d="M279.2,326.39a59.73,59.73,0,0,1-119.46,0Z" fill="#bddcf2" opacity="0.79" style="isolation:isolate"/><path d="M384,397.84a51.94,51.94,0,0,1-70.68-76.12Z" fill="#bddcf2"/><path d="M212.4,510a42.67,42.67,0,1,1-58.07-62.54Z" fill="#bddcf2"/><path d="M364.51,536a51.94,51.94,0,0,1-70.68-76.12Z" fill="#bddcf2"/><path d="M435.18,239.06A61.56,61.56,0,1,1,345,322.84Z" fill="#bddcf2"/><path d="M277.72,369.17a65.95,65.95,0,0,1-96.65,89.75Z" fill="#bddcf2" opacity="0.78" style="isolation:isolate"/><path d="M243.45,295A49.48,49.48,0,1,1,171,227.57Z" fill="#bddcf2"/><path d="M257,491.68a37.15,37.15,0,1,1-59.91,43.93Z" fill="#bddcf2" opacity="0.86" style="isolation:isolate"/><path d="M377.33,241.06a72.53,72.53,0,0,1-145.06,0Z" fill="#bddcf2" opacity="0.83" style="isolation:isolate"/><path d="M437.07,424.52a66.13,66.13,0,1,1-132.26,0Z" fill="#bddcf2"/><path d="M456.42,354.7a39.54,39.54,0,1,1-79.08,0Z" fill="#bddcf2"/><path d="M210.94,401.05a36.27,36.27,0,1,1-72.53,0Z" fill="#bddcf2" opacity="0.84" style="isolation:isolate"/><path d="M443.62,515.76a36.27,36.27,0,0,1-72.54,0Z" fill="#bddcf2"/><path d="M136.52,239.06A61.56,61.56,0,1,1,46.3,322.84Z" fill="#bddcf2" opacity="0.62" style="isolation:isolate"/><path d="M157.76,354.7a39.54,39.54,0,1,1-79.08,0Z" fill="#bddcf2" opacity="0.81" style="isolation:isolate"/><path d="M145,515.76a36.27,36.27,0,1,1-72.53,0Z" fill="#bddcf2" opacity="0.67" style="isolation:isolate"/><path d="M243.45,296.21A49.48,49.48,0,1,1,171,228.77Z" fill="#bddcf2" opacity="0.75" style="isolation:isolate"/><path d="M279.2,11.87a59.73,59.73,0,0,1-119.46,0Z" fill="#bddcf2" opacity="0.88" style="isolation:isolate"/><path d="M384,83.32A51.94,51.94,0,0,1,313.27,7.2Z" fill="#bddcf2"/><path d="M212.4,195.52A42.67,42.67,0,1,1,154.33,133Z" fill="#bddcf2" opacity="0.77" style="isolation:isolate"/><path d="M364.51,221.49a51.93,51.93,0,1,1-70.68-76.11Z" fill="#bddcf2" opacity="0.75" style="isolation:isolate"/><path d="M435.18-75.46a61.57,61.57,0,0,1,16.41,44.17A61.61,61.61,0,0,1,432,11.54,61.59,61.59,0,0,1,387.79,28,61.61,61.61,0,0,1,345,8.32Z" fill="#bddcf2"/><path d="M277.72,54.64a65.95,65.95,0,1,1-96.65,89.75Z" fill="#bddcf2" opacity="0.65" style="isolation:isolate"/><path d="M257,177.15a37.15,37.15,0,0,1-59.91,43.93Z" fill="#bddcf2"/><path d="M437.07,110a66.13,66.13,0,1,1-132.26,0Z" fill="#bddcf2" style="isolation:isolate"/><path d="M456.42,40.18a39.54,39.54,0,1,1-79.08,0Z" fill="#bddcf2"/><path d="M210.94,86.53a36.27,36.27,0,0,1-72.53,0Z" fill="#bddcf2"/><path d="M443.62,201.24a36.27,36.27,0,0,1-72.53,0Z" fill="#bddcf2"/><path d="M157.76,40.18a39.54,39.54,0,1,1-79.08,0Z" fill="#bddcf2" opacity="0.74" style="isolation:isolate"/><path d="M145,201.24a36.27,36.27,0,1,1-72.53,0Z" fill="#bddcf2" opacity="0.72" style="isolation:isolate"/></g></svg>