<svg xmlns="http://www.w3.org/2000/svg" xmlns:xlink="http://www.w3.org/1999/xlink" width="348" height="920" viewBox="0 0 348 920"><defs><clipPath id="a"><rect width="348" height="920" fill="none"/></clipPath></defs><title>decorLeft</title><g clip-path="url(#a)"><path d="M-33.33,583.8A58.94,58.94,0,0,0-45.4,603.36,58.78,58.78,0,0,0-49,626.06,59,59,0,0,0,53.09,664Z" fill="#bddcf2" style="isolation:isolate"/><path d="M-53.68,694.43a38.07,38.07,0,0,0,2.89,14.49,37.87,37.87,0,0,0,8.22,12.27,37.69,37.69,0,0,0,12.28,8.2,37.75,37.75,0,0,0,14.49,2.87A37.8,37.8,0,0,0,11,721.19a37.84,37.84,0,0,0,11.11-26.76Z" fill="#bddcf2" opacity="0.81" style="isolation:isolate"/><path d="M-41.42,848.52a34.59,34.59,0,0,0,2.65,13.28,34.84,34.84,0,0,0,7.53,11.26A34.8,34.8,0,0,0-20,880.58a34.62,34.62,0,0,0,13.29,2.63A34.57,34.57,0,0,0,6.6,880.58a34.59,34.59,0,0,0,11.27-7.52A34.53,34.53,0,0,0,25.4,861.8a34.59,34.59,0,0,0,2.65-13.28Z" fill="#bddcf2"/><path d="M-33.33-20.1A58.8,58.8,0,0,0-49,22.16,59,59,0,0,0,53.09,60.05Z" fill="#bddcf2" opacity="0.74" style="isolation:isolate"/><path d="M-53.68,90.53a37.84,37.84,0,0,0,11.11,26.76A37.8,37.8,0,0,0-15.8,128.36,37.8,37.8,0,0,0,11,117.29,37.84,37.84,0,0,0,22.08,90.53Z" fill="#bddcf2"/><path d="M-41.42,244.61a34.69,34.69,0,0,0,10.18,24.54A34.75,34.75,0,0,0-6.68,279.31,34.58,34.58,0,0,0,6.6,276.67a34.43,34.43,0,0,0,11.27-7.52A34.48,34.48,0,0,0,25.4,257.9a34.64,34.64,0,0,0,2.65-13.29Z" fill="#bddcf2"/><path d="M150.32,638.48A47.37,47.37,0,1,0,219.69,574Z" fill="#bddcf2" opacity="0.86" style="isolation:isolate"/><path d="M12.39,728.41a47.37,47.37,0,1,0,69.37-64.52Z" fill="#bddcf2" opacity="0.92" style="isolation:isolate"/><path d="M116.07,366.44a57.22,57.22,0,0,0,114.43,0Z" fill="#bddcf2"/><path d="M15.74,434.8A49.72,49.72,0,1,0,83.45,362Z" fill="#bddcf2"/><path d="M180.06,542.14a40.85,40.85,0,1,0,55.63-59.84Z" fill="#bddcf2" opacity="0.74" style="isolation:isolate"/><path d="M34.36,567a49.72,49.72,0,1,0,67.71-72.83Z" fill="#bddcf2"/><path d="M34.36,259a49.72,49.72,0,1,0,67.71-72.83Z" fill="#bddcf2" opacity="0.85" style="isolation:isolate"/><path d="M126.32,899A49.72,49.72,0,1,0,194,826.15Z" fill="#bddcf2" opacity="0.74" style="isolation:isolate"/><path d="M-33.33,282.9A58.84,58.84,0,0,0-45.4,302.46,58.72,58.72,0,0,0-49,325.16a59,59,0,0,0,5.32,22.36,58.84,58.84,0,0,0,13.48,18.61,59,59,0,0,0,83.34-3.08Z" fill="#bddcf2"/><path d="M117.5,407.37a63.13,63.13,0,0,0,92.57,85.86Z" fill="#bddcf2" opacity="0.85" style="isolation:isolate"/><path d="M150.32,336.43a47.37,47.37,0,1,0,69.37-64.52Z" fill="#bddcf2"/><path d="M137.34,524.57a35.57,35.57,0,0,0,57.39,42Z" fill="#bddcf2"/><path d="M22.08,284.81a69.48,69.48,0,0,0,139,0Z" fill="#bddcf2" opacity="0.82" style="isolation:isolate"/><path d="M-35.14,460.32a63.35,63.35,0,0,0,126.69,0Z" fill="#bddcf2"/><path d="M22.08,587.44a66.35,66.35,0,0,0,132.69,0Z" fill="#bddcf2"/><path d="M28.08,753.07a63.35,63.35,0,0,0,126.69,0Z" fill="#bddcf2" opacity="0.75" style="isolation:isolate"/><path d="M-53.68,393.53a37.84,37.84,0,0,0,11.11,26.76A37.8,37.8,0,0,0-15.8,431.36,37.8,37.8,0,0,0,11,420.29a37.84,37.84,0,0,0,11.11-26.76Z" fill="#bddcf2"/><path d="M181.46,437.87a34.74,34.74,0,0,0,69.48,0Z" fill="#bddcf2"/><path d="M-41.42,547.61a34.64,34.64,0,0,0,2.65,13.29,35,35,0,0,0,7.53,11.26A34.78,34.78,0,0,0-20,579.67a34.81,34.81,0,0,0,13.29,2.64,34.78,34.78,0,0,0,24.55-10.15,34.73,34.73,0,0,0,10.18-24.55Z" fill="#bddcf2"/><path d="M252.75,282.9a58.93,58.93,0,0,0,86.42,80.15Z" fill="#bddcf2" opacity="0.59" style="isolation:isolate"/><path d="M232.4,393.53a37.88,37.88,0,0,0,75.75,0Z" fill="#bddcf2" opacity="0.82" style="isolation:isolate"/><path d="M244.66,547.61a34.74,34.74,0,0,0,69.48,0Z" fill="#bddcf2"/></g></svg>