<svg width="430" height="437" viewBox="0 0 430 437" fill="none" xmlns="http://www.w3.org/2000/svg">
<g clip-path="url(#clip0_2424_817)">
<path d="M435.18 270.589C446.289 282.554 452.191 298.441 451.586 314.757C450.982 331.072 443.921 346.479 431.957 357.589C419.993 368.698 404.105 374.6 387.79 373.995C371.474 373.391 356.067 366.33 344.957 354.366L435.18 270.589Z" fill="white"/>
<path d="M456.421 386.229C456.421 396.716 452.255 406.774 444.839 414.19C437.423 421.606 427.365 425.772 416.878 425.772C406.391 425.772 396.333 421.606 388.917 414.19C381.502 406.774 377.336 396.716 377.336 386.229H456.421Z" fill="white"/>
<path opacity="0.643" d="M243.451 327.738C234.509 337.342 222.117 343 209.003 343.467C195.889 343.935 183.127 339.173 173.523 330.231C163.919 321.288 158.261 308.897 157.793 295.782C157.325 282.668 162.087 269.904 171.029 260.3L243.451 327.738Z" fill="white"/>
<path opacity="0.79" d="M279.206 43.3891C279.206 59.2309 272.913 74.4236 261.711 85.6253C250.509 96.827 235.316 103.12 219.474 103.12C211.63 103.12 203.863 101.575 196.616 98.5736C189.369 95.5719 182.784 91.1721 177.237 85.6256C171.691 80.079 167.291 73.4944 164.289 66.2474C161.287 59.0005 159.742 51.2332 159.742 43.3891H279.206Z" fill="white"/>
<path d="M383.953 114.841C373.859 124.213 360.455 129.192 346.69 128.682C332.925 128.173 319.926 122.216 310.553 112.122C301.181 102.028 296.202 88.6242 296.711 74.8592C297.221 61.0943 303.178 48.0954 313.271 38.722L383.953 114.841Z" fill="white"/>
<path d="M212.404 227.042C204.111 234.743 193.098 238.834 181.788 238.415C170.479 237.996 159.798 233.101 152.097 224.808C144.397 216.515 140.306 205.502 140.725 194.192C141.144 182.882 146.038 172.202 154.331 164.501L212.404 227.042Z" fill="white"/>
<path d="M364.507 253.022C354.413 262.395 341.009 267.374 327.244 266.864C313.479 266.354 300.48 260.398 291.107 250.304C281.735 240.21 276.756 226.806 277.266 213.041C277.776 199.276 283.732 186.278 293.825 176.904L364.507 253.022Z" fill="white"/>
<path d="M435.18 -43.9359C446.289 -31.9714 452.191 -16.084 451.586 0.231537C450.982 16.5471 443.921 31.9543 431.957 43.0641C419.993 54.1732 404.105 60.0747 387.79 59.4703C371.474 58.8659 356.067 51.805 344.957 39.841L435.18 -43.9359Z" fill="white"/>
<path opacity="0.78" d="M277.721 86.1691C283.615 92.5151 288.2 99.9598 291.216 108.078C294.232 116.196 295.62 124.829 295.299 133.484C294.979 142.138 292.957 150.645 289.349 158.518C285.74 166.391 280.617 173.476 274.27 179.369C267.924 185.262 260.479 189.848 252.361 192.864C244.243 195.88 235.61 197.267 226.955 196.947C218.301 196.626 209.794 194.604 201.921 190.995C194.048 187.387 186.963 182.263 181.07 175.916L277.721 86.1691Z" fill="white"/>
<path d="M243.451 12.0131C239.023 16.7683 233.702 20.6049 227.791 23.3037C221.881 26.0025 215.496 27.5107 209.003 27.7421C202.51 27.9735 196.034 26.9235 189.946 24.6523C183.859 22.3811 178.278 18.9332 173.523 14.5051C163.919 5.56248 158.261 -6.82899 157.793 -19.9434C157.325 -33.0577 162.087 -45.8208 171.029 -55.4249L243.451 12.0131Z" fill="white"/>
<path opacity="0.856" d="M256.999 208.68C259.883 212.614 261.965 217.077 263.124 221.815C264.283 226.553 264.498 231.473 263.756 236.294C263.014 241.115 261.33 245.743 258.799 249.913C256.269 254.083 252.942 257.714 249.008 260.598C241.064 266.423 231.131 268.854 221.394 267.356C211.658 265.858 202.915 260.553 197.09 252.609L256.999 208.68Z" fill="white"/>
<path opacity="0.827" d="M377.335 -41.9419C377.335 -22.7055 369.694 -4.25699 356.092 9.34521C342.489 22.9474 324.041 30.5891 304.804 30.5891C285.568 30.5891 267.119 22.9474 253.517 9.34521C239.915 -4.25699 232.273 -22.7055 232.273 -41.9419H377.335Z" fill="white"/>
<path d="M437.07 141.52C437.07 159.059 430.103 175.879 417.701 188.281C405.299 200.683 388.479 207.65 370.941 207.651C362.256 207.651 353.657 205.941 345.633 202.617C337.61 199.294 330.319 194.423 324.178 188.282C318.037 182.141 313.166 174.851 309.843 166.828C306.519 158.804 304.809 150.205 304.809 141.52H437.07Z" fill="white"/>
<path d="M456.421 71.7041C456.421 82.1916 452.255 92.2496 444.839 99.6655C437.423 107.081 427.365 111.248 416.878 111.248C411.685 111.248 406.543 110.225 401.746 108.238C396.948 106.25 392.589 103.338 388.917 99.6655C385.245 95.9935 382.333 91.6343 380.346 86.8367C378.358 82.039 377.336 76.8969 377.336 71.7041H456.421Z" fill="white"/>
<path opacity="0.837" d="M210.941 118.053C210.941 127.671 207.12 136.895 200.319 143.696C193.518 150.497 184.293 154.318 174.675 154.318C169.913 154.318 165.197 153.38 160.797 151.558C156.397 149.735 152.399 147.064 149.032 143.696C145.664 140.329 142.993 136.331 141.171 131.931C139.348 127.531 138.41 122.816 138.41 118.053H210.941Z" fill="white"/>
<path d="M443.622 232.763C443.622 237.526 442.684 242.241 440.862 246.641C439.039 251.041 436.368 255.039 433 258.407C429.633 261.774 425.635 264.445 421.235 266.268C416.835 268.09 412.119 269.028 407.357 269.028C402.594 269.029 397.878 268.091 393.477 266.269C389.077 264.447 385.078 261.776 381.71 258.408C378.342 255.041 375.67 251.043 373.847 246.642C372.024 242.242 371.086 237.526 371.086 232.763H443.622Z" fill="white"/>
<path opacity="0.616" d="M136.524 -43.9359C147.633 -31.9714 153.534 -16.084 152.93 0.231537C152.326 16.5471 145.265 31.9543 133.301 43.0641C121.336 54.1732 105.449 60.0747 89.1333 59.4703C72.8178 58.8659 57.4105 51.805 46.3008 39.841L136.524 -43.9359Z" fill="white"/>
<path opacity="0.805" d="M157.765 71.7041C157.765 82.1916 153.599 92.2496 146.183 99.6655C138.767 107.081 128.709 111.248 118.222 111.248C113.029 111.248 107.887 110.225 103.089 108.238C98.2918 106.25 93.9327 103.338 90.2609 99.6655C86.589 95.9935 83.6764 91.6343 81.6893 86.8367C79.7022 82.039 78.6796 76.8969 78.6797 71.7041H157.765Z" fill="white"/>
<path opacity="0.674" d="M144.965 232.763C144.964 242.381 141.143 251.605 134.342 258.406C127.541 265.207 118.317 269.028 108.699 269.028C103.936 269.028 99.2204 268.09 94.8204 266.268C90.4205 264.445 86.4226 261.774 83.0551 258.407C79.6875 255.039 77.0163 251.041 75.1938 246.641C73.3714 242.241 72.4335 237.526 72.4336 232.763H144.965Z" fill="white"/>
<path opacity="0.753" d="M243.455 13.213C239.027 17.9683 233.706 21.8049 227.795 24.5037C221.885 27.2025 215.5 28.7106 209.007 28.942C202.514 29.1735 196.038 28.1235 189.95 25.8523C183.863 23.5811 178.282 20.1331 173.527 15.7051C163.923 6.76246 158.265 -5.62901 157.797 -18.7434C157.329 -31.8577 162.09 -44.6209 171.033 -54.2249L243.455 13.213Z" fill="white"/>
</g>
<defs>
<clipPath id="clip0_2424_817">
<rect width="430" height="720" fill="white" transform="translate(0 -283)"/>
</clipPath>
</defs>
</svg>
