<svg width="430" height="437" viewBox="0 0 430 437" fill="none" xmlns="http://www.w3.org/2000/svg">
<g clip-path="url(#clip0_1749_10132)">
<path d="M435.18 410.59C446.289 422.554 452.191 438.442 451.586 454.757C450.982 471.073 443.921 486.48 431.957 497.59C419.993 508.699 404.105 514.6 387.79 513.996C371.474 513.392 356.067 506.331 344.957 494.367L435.18 410.59Z" fill="white"/>
<path opacity="0.643" d="M243.451 467.739C234.509 477.342 222.117 483 209.003 483.468C195.889 483.935 183.127 479.174 173.523 470.232C163.919 461.289 158.261 448.897 157.793 435.783C157.325 422.668 162.087 409.905 171.029 400.301L243.451 467.739Z" fill="white"/>
<path opacity="0.79" d="M279.206 183.387C279.206 199.228 272.913 214.421 261.711 225.623C250.509 236.825 235.316 243.118 219.474 243.118C211.63 243.118 203.863 241.573 196.616 238.571C189.369 235.569 182.784 231.17 177.237 225.623C171.691 220.077 167.291 213.492 164.289 206.245C161.287 198.998 159.742 191.231 159.742 183.387H279.206Z" fill="white"/>
<path d="M383.953 254.842C373.859 264.214 360.455 269.193 346.69 268.683C332.925 268.173 319.926 262.216 310.553 252.123C301.181 242.028 296.202 228.625 296.711 214.86C297.221 201.095 303.178 188.096 313.271 178.723L383.953 254.842Z" fill="white"/>
<path d="M212.404 367.041C204.111 374.742 193.098 378.833 181.788 378.414C170.479 377.995 159.798 373.1 152.097 364.807C144.397 356.514 140.306 345.501 140.725 334.191C141.144 322.881 146.038 312.201 154.331 304.5L212.404 367.041Z" fill="white"/>
<path d="M364.507 393.02C354.413 402.393 341.009 407.372 327.244 406.862C313.479 406.353 300.48 400.396 291.107 390.302C281.735 380.208 276.756 366.804 277.266 353.04C277.776 339.275 283.732 326.276 293.825 316.902L364.507 393.02Z" fill="white"/>
<path d="M435.18 96.0625C446.289 108.027 452.191 123.914 451.586 140.23C450.982 156.546 443.921 171.953 431.957 183.062C419.993 194.172 404.105 200.073 387.79 199.469C371.474 198.864 356.067 191.803 344.957 179.839L435.18 96.0625Z" fill="white"/>
<path opacity="0.78" d="M277.721 226.168C283.615 232.514 288.2 239.959 291.216 248.077C294.232 256.195 295.62 264.828 295.299 273.483C294.979 282.137 292.957 290.644 289.349 298.517C285.74 306.39 280.617 313.475 274.27 319.368C267.924 325.261 260.479 329.847 252.361 332.863C244.243 335.879 235.61 337.266 226.955 336.946C218.301 336.625 209.794 334.603 201.921 330.994C194.048 327.386 186.963 322.262 181.07 315.915L277.721 226.168Z" fill="white"/>
<path d="M243.451 152.012C239.023 156.767 233.702 160.604 227.791 163.303C221.881 166.002 215.496 167.51 209.003 167.741C202.51 167.973 196.034 166.923 189.946 164.651C183.859 162.38 178.278 158.932 173.523 154.504C163.919 145.562 158.261 133.17 157.793 120.056C157.325 106.941 162.087 94.1783 171.029 84.5742L243.451 152.012Z" fill="white"/>
<path opacity="0.856" d="M256.999 348.68C259.883 352.613 261.965 357.077 263.124 361.815C264.283 366.553 264.498 371.473 263.756 376.294C263.014 381.115 261.33 385.743 258.799 389.913C256.269 394.083 252.942 397.713 249.008 400.598C241.064 406.423 231.131 408.854 221.394 407.356C211.658 405.857 202.915 400.553 197.09 392.609L256.999 348.68Z" fill="white"/>
<path opacity="0.827" d="M377.335 98.0586C377.335 117.295 369.694 135.743 356.092 149.346C342.489 162.948 324.041 170.59 304.804 170.59C285.568 170.59 267.119 162.948 253.517 149.346C239.915 135.743 232.273 117.295 232.273 98.0586H377.335Z" fill="white"/>
<path d="M437.07 281.52C437.07 299.058 430.103 315.879 417.701 328.281C405.299 340.682 388.479 347.65 370.941 347.651C362.256 347.651 353.657 345.94 345.633 342.617C337.61 339.294 330.319 334.422 324.178 328.282C318.037 322.141 313.166 314.85 309.843 306.827C306.519 298.804 304.809 290.204 304.809 281.52H437.07Z" fill="white"/>
<path d="M456.421 211.703C456.421 222.191 452.255 232.249 444.839 239.665C437.423 247.08 427.365 251.247 416.878 251.247C411.685 251.247 406.543 250.224 401.746 248.237C396.948 246.249 392.589 243.337 388.917 239.665C385.245 235.993 382.333 231.633 380.346 226.836C378.358 222.038 377.336 216.896 377.336 211.703H456.421Z" fill="white"/>
<path opacity="0.837" d="M210.941 258.051C210.941 267.669 207.12 276.893 200.319 283.694C193.518 290.495 184.293 294.316 174.675 294.316C169.913 294.316 165.197 293.378 160.797 291.555C156.397 289.733 152.399 287.061 149.032 283.694C145.664 280.326 142.993 276.329 141.171 271.929C139.348 267.529 138.41 262.813 138.41 258.051H210.941Z" fill="white"/>
<path d="M443.622 372.762C443.622 377.524 442.684 382.24 440.862 386.64C439.039 391.04 436.368 395.038 433 398.405C429.633 401.773 425.635 404.444 421.235 406.266C416.835 408.089 412.119 409.027 407.357 409.027C402.594 409.027 397.878 408.09 393.477 406.268C389.077 404.446 385.078 401.774 381.71 398.407C378.342 395.039 375.67 391.041 373.847 386.641C372.024 382.241 371.086 377.525 371.086 372.762H443.622Z" fill="white"/>
<path opacity="0.616" d="M136.524 96.0625C147.633 108.027 153.534 123.914 152.93 140.23C152.326 156.546 145.265 171.953 133.301 183.062C121.336 194.172 105.449 200.073 89.1333 199.469C72.8178 198.864 57.4105 191.803 46.3008 179.839L136.524 96.0625Z" fill="white"/>
<path opacity="0.805" d="M157.765 211.703C157.765 222.191 153.599 232.249 146.183 239.665C138.767 247.08 128.709 251.247 118.222 251.247C113.029 251.247 107.887 250.224 103.089 248.237C98.2918 246.249 93.9327 243.337 90.2609 239.665C86.589 235.993 83.6764 231.633 81.6893 226.836C79.7022 222.038 78.6796 216.896 78.6797 211.703H157.765Z" fill="white"/>
<path opacity="0.674" d="M144.965 372.762C144.964 382.38 141.143 391.604 134.342 398.405C127.541 405.206 118.317 409.027 108.699 409.027C103.936 409.027 99.2204 408.089 94.8204 406.266C90.4205 404.444 86.4226 401.773 83.0551 398.405C79.6875 395.038 77.0163 391.04 75.1938 386.64C73.3714 382.24 72.4335 377.524 72.4336 372.762H144.965Z" fill="white"/>
<path opacity="0.753" d="M243.455 153.211C239.027 157.967 233.706 161.803 227.795 164.502C221.885 167.201 215.5 168.709 209.007 168.94C202.514 169.172 196.038 168.122 189.95 165.851C183.863 163.58 178.282 160.132 173.527 155.703C163.923 146.761 158.265 134.369 157.797 121.255C157.329 108.141 162.09 95.3775 171.033 85.7734L243.455 153.211Z" fill="white"/>
<path opacity="0.766" d="M212.408 52.5176C204.115 60.2185 193.102 64.3093 181.792 63.8904C170.482 63.4714 159.802 58.577 152.101 50.2836C144.4 41.9901 140.31 30.9771 140.728 19.6674C141.147 8.35762 146.042 -2.32244 154.335 -10.0234L212.408 52.5176Z" fill="white"/>
<path opacity="0.753" d="M364.511 78.4929C354.417 87.8655 341.014 92.8446 327.249 92.3348C313.484 91.8251 300.485 85.8685 291.111 75.775C281.739 65.6808 276.76 52.277 277.27 38.5121C277.78 24.7471 283.736 11.7484 293.829 2.375L364.511 78.4929Z" fill="white"/>
<path opacity="0.65" d="M277.725 -88.3555C283.619 -82.0094 288.204 -74.5647 291.22 -66.4464C294.236 -58.3281 295.624 -49.6953 295.303 -41.0408C294.983 -32.3863 292.961 -23.8796 289.352 -16.0066C285.744 -8.13357 280.621 -1.04834 274.274 4.84448C267.928 10.7379 260.483 15.3236 252.365 18.3396C244.247 21.3556 235.614 22.7429 226.959 22.4222C218.304 22.1016 209.798 20.0793 201.925 16.4708C194.052 12.8623 186.967 7.73833 181.074 1.39148L277.725 -88.3555Z" fill="white"/>
<path d="M257.003 34.1523C259.887 38.0861 261.969 42.5495 263.128 47.2876C264.287 52.0257 264.502 56.9458 263.76 61.767C263.018 66.5881 261.334 71.2158 258.803 75.386C256.273 79.5562 252.946 83.1871 249.012 86.0714C245.078 88.9559 240.615 91.0373 235.877 92.1968C231.139 93.3563 226.219 93.5712 221.398 92.8292C216.577 92.0873 211.949 90.403 207.779 87.8726C203.609 85.3421 199.978 82.0151 197.094 78.0814L257.003 34.1523Z" fill="white"/>
<path opacity="0.998" d="M437.07 -33.0078C437.07 -15.469 430.103 1.35166 417.701 13.7538C405.3 26.1559 388.479 33.1236 370.941 33.1241C362.256 33.1243 353.656 31.4138 345.633 28.0905C337.609 24.7671 330.319 19.8958 324.178 13.7549C318.037 7.61393 313.166 0.32349 309.842 -7.70007C306.519 -15.7236 304.808 -24.3232 304.809 -33.0078H437.07Z" fill="white"/>
<path d="M443.621 58.2422C443.621 63.0046 442.683 67.7204 440.861 72.1204C439.038 76.5203 436.367 80.5182 432.999 83.8857C429.632 87.2533 425.634 89.9245 421.234 91.7469C416.834 93.5694 412.118 94.5073 407.356 94.5072C397.738 94.5072 388.513 90.6865 381.712 83.8855C374.911 77.0845 371.09 67.8604 371.09 58.2422H443.621Z" fill="white"/>
<path opacity="0.723" d="M144.965 58.2422C144.964 67.8604 141.143 77.0845 134.342 83.8855C127.541 90.6865 118.317 94.5072 108.699 94.5072C103.936 94.5073 99.2204 93.5694 94.8204 91.7469C90.4205 89.9245 86.4226 87.2533 83.0551 83.8857C79.6875 80.5182 77.0163 76.5203 75.1938 72.1204C73.3714 67.7204 72.4335 63.0046 72.4336 58.2422H144.965Z" fill="white"/>
</g>
<defs>
<clipPath id="clip0_1749_10132">
<rect width="430" height="720" fill="white" transform="translate(0 -143)"/>
</clipPath>
</defs>
</svg>
