<svg xmlns="http://www.w3.org/2000/svg" width="200" height="8" viewBox="0 0 200 8"><path d="M3.67,8a3.24,3.24,0,0,1-1.94-.51A3.39,3.39,0,0,1,.43,6.09,4.92,4.92,0,0,1,0,4,4.92,4.92,0,0,1,.43,1.91,3.24,3.24,0,0,1,1.65.55a3.68,3.68,0,0,1,2-.51A3.53,3.53,0,0,1,5.83.69a3.29,3.29,0,0,1,1.22,1.8l-1.29.36A2.34,2.34,0,0,0,5,1.63a2.73,2.73,0,0,0-1.37-.36,2.47,2.47,0,0,0-1.3.36,2,2,0,0,0-.79.93A4.42,4.42,0,0,0,1.37,4a3.09,3.09,0,0,0,.28,1.44,1.71,1.71,0,0,0,.8.93,2.44,2.44,0,0,0,1.29.36A2.06,2.06,0,0,0,5.11,6.3a2.17,2.17,0,0,0,.72-1.15l1.29.36A3.51,3.51,0,0,1,5.9,7.31,3.9,3.9,0,0,1,3.67,8Zm7.41-.15V1.41H8.63V.19h6.19V1.41H12.37v6.4ZM19.93,8a3.37,3.37,0,0,1-3.17-1.87A4.92,4.92,0,0,1,16.33,4a4.92,4.92,0,0,1,.43-2.09A3.2,3.2,0,0,1,18,.55,3.54,3.54,0,0,1,19.93,0a3.39,3.39,0,0,1,1.94.51,3.13,3.13,0,0,1,1.22,1.36A4.1,4.1,0,0,1,23.6,4a5.07,5.07,0,0,1-.43,2.09,3.2,3.2,0,0,1-1.23,1.36A3.63,3.63,0,0,1,19.93,8Zm0-1.23a2.44,2.44,0,0,0,1.29-.36A1.69,1.69,0,0,0,22,5.44,4.5,4.5,0,0,0,22.3,4,3,3,0,0,0,22,2.56a1.66,1.66,0,0,0-.79-.93,2.51,2.51,0,0,0-2.59,0,2.47,2.47,0,0,0-.79.93A4.79,4.79,0,0,0,17.55,4a3.09,3.09,0,0,0,.29,1.44,1.7,1.7,0,0,0,.79.93A2,2,0,0,0,19.93,6.73Zm5.75,1.08V.19h1.15L29.5,5.58,32.16.19h1.15V7.81H32.09V2.92L29.78,7.81h-.5L27,2.92V7.81Zm9.57,0L37.63.19H39.5l2.37,7.62H40.58L38.42,1h.29L36.55,7.81Zm1.37-1.65V4.94h4V6.16Zm8.49,1.65V1.41H42.66V.19h6.19V1.41H46.4v6.4ZM54,8a3.3,3.3,0,0,1-2-.51,3.26,3.26,0,0,1-1.22-1.36A4.92,4.92,0,0,1,50.36,4a4.92,4.92,0,0,1,.43-2.09A3.24,3.24,0,0,1,52,.55,3.6,3.6,0,0,1,54,0,3.24,3.24,0,0,1,55.9.55a3.26,3.26,0,0,1,1.22,1.36A4.1,4.1,0,0,1,57.63,4a4.92,4.92,0,0,1-.44,2.09A3.18,3.18,0,0,1,56,7.45,3.63,3.63,0,0,1,54,8Zm0-1.23a2.44,2.44,0,0,0,1.29-.36A2.39,2.39,0,0,0,56,5.44,4.5,4.5,0,0,0,56.33,4,3,3,0,0,0,56,2.56a1.66,1.66,0,0,0-.79-.93,2.51,2.51,0,0,0-2.59,0,1.59,1.59,0,0,0-.72.93A4.79,4.79,0,0,0,51.65,4a3.09,3.09,0,0,0,.29,1.44,1.7,1.7,0,0,0,.79.93A1.66,1.66,0,0,0,54,6.73Zm5,1.08V6.73a.86.86,0,0,0,.72-.28L59.93,6a2.14,2.14,0,0,0,.14-.72c.07-.43.15-.86.22-1.36s.07-.94.14-1.37a8,8,0,0,0,.07-1.29c0-.44.08-.72.08-1h5.1V7.88H64.39V1.41H61.73c0,.22-.08.5-.08.86s-.07.72-.07,1.08a8.43,8.43,0,0,1-.14,1.23c-.07.43-.15.79-.22,1.22a4.26,4.26,0,0,1-.28,1,1.6,1.6,0,0,1-.44.72,1,1,0,0,1-.64.35A4.64,4.64,0,0,1,59,7.81ZM71.44,8a3.37,3.37,0,0,1-3.17-1.87A4.09,4.09,0,0,1,67.77,4a4.92,4.92,0,0,1,.43-2.09A3.24,3.24,0,0,1,69.42.55a3.6,3.6,0,0,1,2-.51,3.24,3.24,0,0,1,1.94.51,3.26,3.26,0,0,1,1.22,1.36A4.7,4.7,0,0,1,75,4a4.92,4.92,0,0,1-.43,2.09,3.24,3.24,0,0,1-1.22,1.36A3.16,3.16,0,0,1,71.44,8Zm0-1.23a2.44,2.44,0,0,0,1.29-.36,2.5,2.5,0,0,0,.8-.93A4.78,4.78,0,0,0,73.81,4a3.09,3.09,0,0,0-.28-1.44,1.71,1.71,0,0,0-.8-.93,2.44,2.44,0,0,0-1.29-.36,2.47,2.47,0,0,0-1.3.36,1.73,1.73,0,0,0-.79.93A4.79,4.79,0,0,0,69.06,4a3.09,3.09,0,0,0,.29,1.44,1.7,1.7,0,0,0,.79.93A2,2,0,0,0,71.44,6.73Zm5.75,1.08V.19h4.9V1.41H78.42v6.4Zm12.88,0H88.78V2.42L85.25,7.74H84V.19h1.29V5.51L88.78.19h1.29Zm6.91,0V4.43l.21.36a4,4,0,0,1-.86.43,5.72,5.72,0,0,1-1.15.15A3,3,0,0,1,93.67,5a1.87,1.87,0,0,1-.79-1,4.56,4.56,0,0,1-.29-1.51V.33h1.29v1.8a2.66,2.66,0,0,0,.08.79,1,1,0,0,0,.21.65,1.12,1.12,0,0,0,.51.5,1.48,1.48,0,0,0,.86.15A2.47,2.47,0,0,0,96.62,4a2.6,2.6,0,0,0,.65-.43l-.15.65v-4h1.3V7.81Zm3.81,0V.19h4.89V1.41H102V3.28h3V4.5h-3V6.66h3.67V7.88h-4.89ZM110.94,8a3.34,3.34,0,0,1-3.17-1.87A4.7,4.7,0,0,1,107.34,4a4.92,4.92,0,0,1,.43-2.09A3.24,3.24,0,0,1,109,.55a3.6,3.6,0,0,1,2-.51,3.48,3.48,0,0,1,2.15.65,3.26,3.26,0,0,1,1.23,1.8l-1.3.36a2.61,2.61,0,0,0-.72-1.15,2.05,2.05,0,0,0-1.36-.43,2.45,2.45,0,0,0-1.3.36,2.39,2.39,0,0,0-.79.93A4.33,4.33,0,0,0,108.56,4a3,3,0,0,0,.29,1.44,1.66,1.66,0,0,0,.79.93,2.45,2.45,0,0,0,1.3.36,2.05,2.05,0,0,0,1.36-.43A2.11,2.11,0,0,0,113,5.15l1.3.36a3.52,3.52,0,0,1-1.23,1.8A3.48,3.48,0,0,1,110.94,8Zm5.61-.15V.19h1.29V3.71l3-3.52h1.59l-3.24,3.74,3.52,3.88h-1.58l-3.24-3.52V7.81Zm14,0h-1.3V2.42l-3.52,5.32h-1.3V.19h1.3V5.51L129.28.19h1.3Zm2.51,0V.19H138V1.41h-3.67V3.28h3V4.5h-3V6.66H138V7.88h-4.9Zm10.36,0V.19h1.3V3.71l3-3.52h1.58l-3.23,3.74,3.52,3.88h-1.58l-3.24-3.52V7.81Zm7.41,0V6.73a.86.86,0,0,0,.72-.28L151.8,6a2.14,2.14,0,0,0,.14-.72c.07-.43.15-.86.22-1.36s.07-.94.14-1.37a8,8,0,0,0,.07-1.29c0-.44.08-.72.08-1h5.1V7.88h-1.29V1.41H153.6c0,.22-.07.5-.07.86s-.08.72-.08,1.08a8.43,8.43,0,0,1-.14,1.23c-.07.43-.14.79-.22,1.22a4.26,4.26,0,0,1-.28,1,1.6,1.6,0,0,1-.44.72,1,1,0,0,1-.64.35A4.64,4.64,0,0,1,150.86,7.81Zm15.33,0h-1.3V2.42l-3.52,5.32h-1.3V.19h1.3V5.51L164.89.19h1.3Zm2.52,0V.19H170V3.35h3.6V.19h1.29V7.81H173.6V4.58H170V7.81Zm14.74,0h-1.29V2.42l-3.53,5.32h-1.29V.19h1.29V5.51L182.16.19h1.29Zm2.52,0V.19h1.3V3.71l3-3.52h1.58l-3.24,3.74,3.53,3.88h-1.58l-3.24-3.52V7.81Zm14,0h-1.29V2.42l-3.53,5.32h-1.3V.19h1.3V5.51L198.71.19H200Z" fill="#fff"/></svg>