<svg xmlns="http://www.w3.org/2000/svg" width="200" height="30" viewBox="0 0 200 30"><path d="M62.22,15.91h136a14,14,0,0,0-.4,5.11H62.22Z" fill="#7cc5ad"/><path d="M44.51,21.11H30c.43,2.58,2.3,4.1,5.16,4.1a5.33,5.33,0,0,0,2.53-.63,5.43,5.43,0,0,0,1.93-1.76L43.8,25.7a10.63,10.63,0,0,1-8.86,4.24C28.17,29.94,24,25.45,24,19.15S28.14,8.36,34.34,8.36,44.6,12.82,44.6,19.25a14.46,14.46,0,0,1-.07,1.86M30,17h8.67a4.08,4.08,0,0,0-4.29-3.89A4.11,4.11,0,0,0,30,17" fill="#fff"/><path d="M80.45,19.6c0,6.28-3.69,10.34-9.77,10.34-6.85,0-10.34-5.09-10.34-13.12C60.34,6.13,65.59.59,79.66,0L79,4.66c-7.19.19-11.13,2.78-12.23,7A7.3,7.3,0,0,1,69.27,10a7.16,7.16,0,0,1,2.92-.52c5,0,8.23,3.7,8.23,10.07m-9.71,5.63c2.26,0,3.66-2,3.66-5.53s-1.39-5.42-3.7-5.42a5.47,5.47,0,0,0-2.38.53,5.69,5.69,0,0,0-1.92,1.49C66.37,23,68,25.21,70.71,25.21Z" fill="#fff"/><path d="M93.94,29.94c-6.36,0-10.54-4.45-10.54-10.79S87.58,8.36,93.94,8.36s10.53,4.45,10.53,10.79S100.29,29.94,93.94,29.94Zm0-16.81c-2.79,0-4.42,2.15-4.42,6s1.63,6.05,4.42,6.05,4.41-2.16,4.41-6.05S96.71,13.13,93.94,13.13Z" fill="#fff"/><path d="M133.65,8.87h6V16h2.88c5.75,0,8.83,2.38,8.83,6.75s-3.11,6.76-8.83,6.76h-8.92Zm9.06,11.72h-3v4.22h3c1.64,0,2.63-.64,2.63-2.07s-1-2.15-2.63-2.15" fill="#fff"/><path d="M13.8,15.92V8.84h6v20.6h-6V20.56H6v8.88H0V8.84H6v7.08Z" fill="#fff"/><path d="M44.37,21.09H29.86c.43,2.58,2.31,4.09,5.17,4.09a5.26,5.26,0,0,0,2.52-.63,5.15,5.15,0,0,0,1.92-1.76l4.18,2.88a10.63,10.63,0,0,1-8.86,4.21c-6.76,0-10.93-4.49-10.93-10.79S28,8.3,34.19,8.3s10.26,4.52,10.26,10.92a16.71,16.71,0,0,1-.08,1.87M29.82,17h8.63a4,4,0,0,0-.32-1.56,4.07,4.07,0,0,0-3.91-2.34A4.13,4.13,0,0,0,29.85,17" fill="#fff"/><path d="M104.47,19.18c0-6.3-4.14-10.73-10.46-10.8v4.74c2.74.05,4.32,2.22,4.32,6s-1.6,6-4.32,6v4.73c6.32,0,10.46-4.47,10.46-10.79" fill="#fff"/><path d="M128.37,8.87H110.73v13c0,2.22-.84,3.3-3,3.3-.6,0-1.12-.05-1.75-.08v4.64a14.75,14.75,0,0,0,2.3.17c6.09,0,8.51-2.63,8.51-8V13.54h5.53v15.9h6.19V8.87Z" fill="#fff"/><path d="M191.14,8.5h-.25l-.54-.05-.44,0h-.44c-6.36,0-10.53,4.46-10.53,10.8S183.11,30,189.47,30h0C195.83,30,200,25.54,200,19.21,200,13.42,196.55,9.22,191.14,8.5Zm-6.08,10.65c0-3.86,1.62-6,4.41-6h.44c2.41.3,3.82,2.42,3.82,6s-1.44,5.68-3.82,6v.06h-.44c-2.79.07-4.41-2.12-4.41-6Z" fill="#fff"/><path d="M13.8,15.92V8.84h6V29.43h-6V20.56H6v8.87H0V8.84H6v7.08Z" fill="#fff"/><path d="M44.37,21.08H29.86c.43,2.59,2.31,4.1,5.17,4.1a5.27,5.27,0,0,0,4.44-2.39l4.18,2.88a10.62,10.62,0,0,1-8.86,4.22C28,29.89,23.86,25.4,23.86,19.1S28,8.31,34.19,8.31s10.26,4.51,10.26,10.91a16.71,16.71,0,0,1-.08,1.87M29.82,17h8.63a4.09,4.09,0,0,0-2.71-3.66,4,4,0,0,0-1.58-.23A4.13,4.13,0,0,0,29.78,17" fill="#fff"/><polygon points="174.98 8.85 168.94 8.85 168.94 8.87 168.87 8.87 168.87 15.92 161.12 15.92 161.12 8.87 155.08 8.87 155.08 29.46 161.12 29.46 161.12 20.95 168.87 20.95 168.87 29.46 174.91 29.46 174.91 29.43 174.98 29.43 174.98 8.85" fill="#fff"/><path d="M80.23,21a13.9,13.9,0,0,0,.08-1.44h0a14.67,14.67,0,0,0-.43-3.67H80c-.87-3.48-3-5.66-6.09-6.24h-.12a2.07,2.07,0,0,1-.41-.07,11.73,11.73,0,0,0-1.32-.1H72a7.4,7.4,0,0,0-5.2,2.16c1.07-4.21,5-6.8,12.23-7L79.69,0C66,.54,60.7,5.82,60.4,15.91h6.34a5.46,5.46,0,0,1,3.94-1.65h0a3.08,3.08,0,0,1,1.34.25v0c1.4.66,2.21,2.37,2.21,5.12s-.82,4.49-2.21,5.19V25a3.22,3.22,0,0,1-1.3.27h0c-2,0-3.32-1.12-3.94-4.2H60.71c1.07,5.57,4.41,8.92,10,8.92s9.18-3.46,9.7-8.94Z" fill="#fff"/><path d="M178.65,15.91h8.82V21h-8.82Z" fill="#7cc5ad"/><path d="M139.7,15.91h13.6c0,1.1,0,2.33-.05,3.69V21H139.7Z" fill="#7cc5ad"/><path d="M165.35,15.91h11.87c0,1.1-.05,2.33-.05,3.69V21H165.35Z" fill="#7cc5ad"/><path d="M107.81,15.91H120c0,1.1,0,2.33,0,3.69V21H107.81Z" fill="#7cc5ad"/><path d="M82.81,15.91H95V21H82.81Z" fill="#7cc5ad"/><path d="M60.22,15.91H67V21H60.22Z" fill="#7cc5ad"/><path d="M52.31,15.25a3.34,3.34,0,0,1,1.24.24,3.28,3.28,0,0,1,1.05.72,3.21,3.21,0,0,1,.72,1.06,3.56,3.56,0,0,1,0,2.49,3.21,3.21,0,0,1-.72,1.06,3.19,3.19,0,0,1-3.54.72,3.25,3.25,0,0,1-1.74-1.77,3.15,3.15,0,0,1-.23-1.25,3.49,3.49,0,0,1,.23-1.24A3.37,3.37,0,0,1,50,16.22a3.21,3.21,0,0,1,2.3-1Z" fill="#7cc5ad"/></svg>