<svg xmlns="http://www.w3.org/2000/svg" width="67" height="72" viewBox="0 0 67 72"><title>guarantees</title><path d="M33.5,69.47h-.25C18,66.21,3.5,48.5,3.5,33V10.27l1-.09c.06,0,6.13-.79,12.63-7.29l.33-.36H49.77l.34.41c3.94,4.6,12.35,6.28,12.43,6.28l1,.19V32.94c0,16-13.61,32.71-29.73,36.44ZM5.82,12.27V33c0,14.47,13.39,31,27.66,34.11,15-3.61,27.68-19.17,27.68-34.11V11.33c-2.39-.6-8.74-2.47-12.44-6.48H18.46C13,10.18,7.94,11.79,5.82,12.27Z" fill="#4c5f7e"/><path d="M28.59,53.43c-4.26,0-8.66-8.76-10.28-14.69A48.74,48.74,0,0,1,17,24c.64-6,3.83-7.32,9-9h.14a41.45,41.45,0,0,1,7.46-.73h0a47.82,47.82,0,0,1,7.92.65h.12c5.54,1.59,8,3.18,8.61,8.91a48.89,48.89,0,0,1-1,14.68c-1.19,6-5.62,14.81-10.57,14.81a3.55,3.55,0,0,1-.73-.08c-2.36-.55-2.15-3.08-1.92-5.53a30.53,30.53,0,0,0,.15-3.45c-.12-4.12-1.32-7.1-2.09-7.1h-.72c-.56,0-1.66,2-1.79,6.77v3c.09,3,.19,5.74-2.23,6.36A3.14,3.14,0,0,1,28.59,53.43Zm-2-36.15c-5.05,1.6-6.86,2.57-7.32,6.91a46.27,46.27,0,0,0,1.27,14c1.91,7,6,13,8,13h.22c.56-.13.49-2.37.43-4,0-1-.06-2,0-3.1.1-3.37.76-9,4.13-9h.71c4,0,4.38,8.4,4.41,9.36A32.78,32.78,0,0,1,38.36,48c-.11,1.33-.24,3,.16,3.07h.2c2.87,0,7-6.54,8.29-13a46.25,46.25,0,0,0,1-14c-.48-4.43-1.91-5.46-6.85-6.88a45.35,45.35,0,0,0-7.45-.67A38.77,38.77,0,0,0,26.63,17.28Z" fill="#4c5f7e"/></svg>