<svg width="63" height="71" viewBox="0 0 63 71" fill="none" xmlns="http://www.w3.org/2000/svg">
<path d="M47.4015 2.09766C51.7615 7.22566 60.9305 9.03464 60.9305 9.03464V32.3586C60.9305 48.3496 47.4015 65.0707 31.1415 68.8327C16.2475 65.7087 1.35352 48.3496 1.35352 32.3586V9.97464C1.35352 9.97464 7.97853 9.23366 15.1135 2.09766H47.4015Z" stroke="white" stroke-width="2.4" stroke-miterlimit="10"/>
<path d="M31.2579 14.2422C28.7437 14.2597 26.236 14.502 23.7649 14.9662C18.5189 16.6342 15.8649 17.7782 15.2919 23.1522C14.9757 28.1406 15.4214 33.1481 16.6139 38.0022C18.5299 44.9912 22.9779 52.2872 26.0849 52.2872C26.2505 52.2873 26.4156 52.2685 26.5769 52.2312C28.6569 51.7422 27.7989 47.9452 27.9159 43.7422C28.0219 39.9622 28.8159 35.5822 30.9699 35.5822H31.7149C33.8749 35.5822 34.9659 40.3142 35.0699 44.0932C35.1859 48.2932 33.9189 51.7422 35.9999 52.2302C36.1605 52.2676 36.325 52.2864 36.4899 52.2862C40.5239 52.2862 44.9709 44.3662 46.2299 37.9272C47.3032 33.08 47.6379 28.0984 47.2229 23.1512C46.6619 17.9282 44.6929 16.5262 39.2309 14.9652C36.5981 14.5022 33.9311 14.2603 31.2579 14.2422Z" stroke="white" stroke-width="2.4" stroke-miterlimit="10"/>
</svg>
