<svg width="67" height="72" viewBox="0 0 67 72" fill="none" xmlns="http://www.w3.org/2000/svg">
<path d="M40.2871 25.7827C40.2871 26.0969 40.412 26.3983 40.6342 26.6206C40.8564 26.8428 41.1578 26.9677 41.4721 26.9677H53.3261C53.6404 26.9677 53.9418 26.8428 54.1641 26.6206C54.3863 26.3983 54.5111 26.0969 54.5111 25.7827C54.5111 25.4684 54.3863 25.167 54.1641 24.9447C53.9418 24.7225 53.6404 24.5977 53.3261 24.5977H41.4721C41.1578 24.5977 40.8564 24.7225 40.6342 24.9447C40.412 25.167 40.2871 25.4684 40.2871 25.7827Z" fill="white"/>
<path d="M47.3965 32.8915C47.3964 33.0472 47.4269 33.2013 47.4864 33.3452C47.5459 33.489 47.6332 33.6197 47.7433 33.7297C47.8534 33.8398 47.984 33.9271 48.1279 33.9866C48.2717 34.0461 48.4258 34.0767 48.5815 34.0765H55.6905C55.8489 34.0811 56.0067 34.0539 56.1544 33.9964C56.3022 33.939 56.4368 33.8525 56.5505 33.742C56.6642 33.6316 56.7546 33.4995 56.8163 33.3535C56.8781 33.2075 56.9099 33.0506 56.9099 32.892C56.9099 32.7335 56.8781 32.5766 56.8163 32.4306C56.7546 32.2846 56.6642 32.1525 56.5505 32.042C56.4368 31.9316 56.3022 31.8451 56.1544 31.7876C56.0067 31.7302 55.8489 31.7029 55.6905 31.7075H48.5815C48.2674 31.7075 47.9661 31.8323 47.7439 32.0543C47.5217 32.2763 47.3967 32.5774 47.3965 32.8915Z" fill="white"/>
<path d="M31.9929 31.7075C31.8344 31.7029 31.6767 31.7302 31.5289 31.7876C31.3812 31.8451 31.2465 31.9316 31.1328 32.042C31.019 32.1525 30.9287 32.2846 30.8669 32.4306C30.8052 32.5766 30.7734 32.7335 30.7734 32.892C30.7734 33.0506 30.8052 33.2075 30.8669 33.3535C30.9287 33.4995 31.019 33.6316 31.1328 33.742C31.2465 33.8525 31.3812 33.939 31.5289 33.9965C31.6767 34.0539 31.8344 34.0812 31.9929 34.0766H43.8409C43.9993 34.0812 44.1571 34.0539 44.3048 33.9965C44.4525 33.939 44.5872 33.8525 44.7009 33.742C44.8146 33.6316 44.905 33.4995 44.9667 33.3535C45.0285 33.2075 45.0603 33.0506 45.0603 32.892C45.0603 32.7335 45.0285 32.5766 44.9667 32.4306C44.905 32.2846 44.8146 32.1525 44.7009 32.042C44.5872 31.9316 44.4525 31.8451 44.3048 31.7876C44.1571 31.7302 43.9993 31.7029 43.8409 31.7075H31.9929Z" fill="white"/>
<path d="M37.9176 64.8857H15.4086C14.4661 64.8846 13.5625 64.5097 12.896 63.8432C12.2295 63.1768 11.8547 62.2731 11.8536 61.3306V6.82562C11.8536 6.51134 11.7288 6.20993 11.5065 5.9877C11.2843 5.76547 10.9829 5.64063 10.6687 5.64062C9.09808 5.64248 7.59233 6.26721 6.48176 7.37778C5.3712 8.48834 4.74649 9.99403 4.74464 11.5646C4.74004 11.7231 4.76726 11.8808 4.82472 12.0286C4.88217 12.1763 4.96867 12.311 5.07911 12.4247C5.18956 12.5384 5.32172 12.6288 5.46772 12.6905C5.61373 12.7522 5.77064 12.784 5.92915 12.784C6.08766 12.784 6.24457 12.7522 6.39058 12.6905C6.53658 12.6288 6.66868 12.5384 6.77913 12.4247C6.88957 12.311 6.97606 12.1763 7.03352 12.0286C7.09098 11.8808 7.11826 11.7231 7.11366 11.5646C7.11447 10.8296 7.34265 10.1129 7.76698 9.51273C8.19131 8.91258 8.79098 8.45844 9.48365 8.21262V61.3306C9.48551 62.9014 10.1103 64.4074 11.2211 65.5182C12.3318 66.6289 13.8378 67.2538 15.4086 67.2556H37.9216C38.2359 67.2556 38.5373 67.1308 38.7595 66.9085C38.9818 66.6863 39.1066 66.3849 39.1066 66.0706C39.1066 65.7564 38.9818 65.4549 38.7595 65.2327C38.5373 65.0105 38.2359 64.8857 37.9216 64.8857H37.9176Z" fill="white"/>
<path d="M20.142 26.9677H36.73C37.0443 26.9677 37.3457 26.8428 37.5679 26.6206C37.7902 26.3983 37.915 26.0969 37.915 25.7827C37.915 25.4684 37.7902 25.167 37.5679 24.9447C37.3457 24.7225 37.0443 24.5977 36.73 24.5977H20.142C19.8277 24.5977 19.5263 24.7225 19.3041 24.9447C19.0818 25.167 18.957 25.4684 18.957 25.7827C18.957 26.0969 19.0818 26.3983 19.3041 26.6206C19.5263 26.8428 19.8277 26.9677 20.142 26.9677Z" fill="white"/>
<path d="M55.69 0.929688H10.664C7.84387 0.933085 5.13958 2.0521 3.1416 4.04239C1.14363 6.03268 0.0142611 8.73261 0 11.5527V11.6077C0.010382 13.4727 0.507706 15.3026 1.44275 16.9162C2.37779 18.5299 3.71812 19.8713 5.33099 20.8077C5.60212 20.9536 5.9194 20.9883 6.21564 20.9044C6.51188 20.8204 6.76381 20.6245 6.91809 20.358C7.07238 20.0916 7.11692 19.7755 7.04224 19.4768C6.96755 19.1781 6.77954 18.9202 6.51801 18.7577C4.93712 17.8471 3.70124 16.4398 3.0025 14.7545C2.30376 13.0693 2.18123 11.2004 2.65399 9.43832C3.12675 7.67626 4.16834 6.11968 5.61682 5.0105C7.06531 3.90132 8.83962 3.30166 10.664 3.30469H55.69C57.8894 3.30601 59.9983 4.18024 61.5536 5.73535C63.1089 7.29046 63.9834 9.3993 63.985 11.5987V61.3637C63.981 61.9772 63.8136 62.5785 63.5 63.1057C63.4169 63.24 63.3614 63.3895 63.3369 63.5455C63.3123 63.7016 63.3193 63.861 63.3572 64.0143C63.3952 64.1676 63.4634 64.3117 63.5579 64.4383C63.6523 64.5649 63.7712 64.6713 63.9073 64.7513C64.0435 64.8313 64.1943 64.8832 64.3509 64.9041C64.5074 64.925 64.6666 64.9144 64.819 64.8729C64.9714 64.8313 65.1139 64.7597 65.2382 64.6624C65.3626 64.565 65.4662 64.4437 65.543 64.3057C66.0707 63.4145 66.3507 62.3984 66.354 61.3627V11.5917C66.3506 8.76468 65.2258 6.05446 63.2266 4.05563C61.2274 2.05681 58.517 0.932599 55.69 0.929688Z" fill="white"/>
<path d="M59.2454 55.4059C59.2454 53.9999 58.8284 52.6255 58.0473 51.4564C57.2662 50.2874 56.156 49.3762 54.8571 48.8381C53.5581 48.3 52.1288 48.1592 50.7498 48.4334C49.3708 48.7076 48.1041 49.3846 47.1099 50.3787C46.1156 51.3728 45.4385 52.6394 45.1641 54.0184C44.8897 55.3973 45.0303 56.8266 45.5682 58.1257C46.1061 59.4247 47.0172 60.535 48.1861 61.3163C49.355 62.0975 50.7293 62.5147 52.1353 62.5149C54.0203 62.513 55.8275 61.7635 57.1605 60.4307C58.4934 59.0979 59.2433 57.2908 59.2454 55.4059ZM52.1353 60.1449C51.1981 60.1447 50.2819 59.8665 49.5028 59.3457C48.7236 58.8248 48.1164 58.0847 47.7578 57.2187C47.3993 56.3528 47.3056 55.3999 47.4885 54.4807C47.6715 53.5615 48.1229 52.7172 48.7857 52.0546C49.4485 51.3919 50.2929 50.9406 51.2122 50.7579C52.1314 50.5751 53.0843 50.669 53.9501 51.0277C54.816 51.3864 55.556 51.9938 56.0767 52.7731C56.5974 53.5524 56.8754 54.4686 56.8754 55.4059C56.8743 56.6625 56.3747 57.8674 55.4862 58.756C54.5977 59.6447 53.393 60.1445 52.1364 60.1459L52.1353 60.1449Z" fill="white"/>
<path d="M49.9951 63.7081C49.7229 63.5515 49.3996 63.5092 49.0963 63.5906C48.793 63.6719 48.5344 63.8703 48.3771 64.1421L45.8261 68.5631L45.4211 67.9521C45.3202 67.7983 45.1848 67.6703 45.0255 67.5782C44.8663 67.4862 44.6877 67.4327 44.5041 67.4221L43.7721 67.3781L46.3661 62.8871C46.4439 62.7523 46.4944 62.6035 46.5147 62.4492C46.535 62.2948 46.5247 62.1381 46.4844 61.9877C46.4441 61.8374 46.3746 61.6965 46.2798 61.573C46.185 61.4495 46.0669 61.3459 45.9321 61.2681C45.7973 61.1903 45.6485 61.1398 45.4941 61.1195C45.3398 61.0992 45.183 61.1095 45.0327 61.1498C44.8823 61.1901 44.7414 61.2596 44.6179 61.3544C44.4945 61.4491 44.3909 61.5673 44.3131 61.7021L40.7621 67.8531C40.6612 68.0281 40.6066 68.2259 40.6036 68.4279C40.6007 68.6299 40.6495 68.8293 40.7452 69.0071C40.841 69.185 40.9807 69.3353 41.1509 69.444C41.3212 69.5527 41.5164 69.6161 41.7181 69.6281L43.7711 69.7511L44.9051 71.4681C45.0129 71.6316 45.1595 71.7658 45.332 71.8587C45.5044 71.9516 45.6972 72.0002 45.8931 72.0001H45.9301C46.1317 71.9933 46.3283 71.9354 46.5015 71.8318C46.6746 71.7283 46.8186 71.5825 46.92 71.4081L50.4301 65.3271C50.5079 65.1922 50.5583 65.0434 50.5786 64.889C50.5988 64.7347 50.5884 64.5778 50.548 64.4275C50.5076 64.2771 50.438 64.1362 50.3431 64.0128C50.2483 63.8893 50.13 63.7858 49.9951 63.7081Z" fill="white"/>
<path d="M59.9887 61.7524C59.8276 61.488 59.5694 61.2971 59.2695 61.2205C58.9695 61.1439 58.6514 61.1876 58.3832 61.3423C58.115 61.497 57.918 61.7505 57.8342 62.0485C57.7504 62.3466 57.7864 62.6656 57.9347 62.9374L60.4977 67.3734L59.7657 67.4164C59.582 67.4276 59.4036 67.4813 59.2442 67.5733C59.0849 67.6653 58.9492 67.793 58.8477 67.9464L58.4477 68.5574L55.9097 64.1574C55.7486 63.893 55.4905 63.7021 55.1905 63.6255C54.8905 63.5488 54.5724 63.5926 54.3042 63.7473C54.0361 63.902 53.839 64.1555 53.7552 64.4535C53.6714 64.7516 53.7075 65.0706 53.8557 65.3425L57.3557 71.4004C57.457 71.575 57.601 71.7208 57.7741 71.8244C57.9473 71.9279 58.144 71.9858 58.3457 71.9924H58.3827C58.5786 71.9923 58.7715 71.9436 58.9441 71.8508C59.1166 71.7579 59.2636 71.6239 59.3717 71.4604L60.5047 69.7454L62.5577 69.6204C62.7592 69.6081 62.9543 69.5446 63.1244 69.4359C63.2945 69.3272 63.434 69.1768 63.5297 68.999C63.6254 68.8213 63.6742 68.622 63.6714 68.4202C63.6686 68.2183 63.6144 68.0205 63.5137 67.8454L59.9887 61.7524Z" fill="white"/>
<path d="M20.1428 34.076H27.2527C27.5609 34.0671 27.8535 33.9384 28.0684 33.7172C28.2832 33.496 28.4033 33.1999 28.4033 32.8915C28.4033 32.5832 28.2832 32.287 28.0684 32.0659C27.8535 31.8447 27.5609 31.716 27.2527 31.707H20.1428C19.8346 31.716 19.542 31.8447 19.3271 32.0659C19.1123 32.287 18.9922 32.5832 18.9922 32.8915C18.9922 33.1999 19.1123 33.496 19.3271 33.7172C19.542 33.9384 19.8346 34.0671 20.1428 34.076Z" fill="white"/>
<path d="M20.1428 41.1854H34.3618C34.6699 41.1765 34.9625 41.0477 35.1774 40.8266C35.3922 40.6054 35.5123 40.3092 35.5123 40.0009C35.5123 39.6926 35.3922 39.3964 35.1774 39.1753C34.9625 38.9541 34.6699 38.8254 34.3618 38.8164H20.1428C19.8346 38.8254 19.542 38.9541 19.3271 39.1753C19.1123 39.3964 18.9922 39.6926 18.9922 40.0009C18.9922 40.3092 19.1123 40.6054 19.3271 40.8266C19.542 41.0477 19.8346 41.1765 20.1428 41.1854Z" fill="white"/>
<path d="M52.1348 40.0014C52.1349 39.8458 52.1044 39.6916 52.0449 39.5478C51.9854 39.404 51.898 39.2733 51.788 39.1632C51.6779 39.0531 51.5473 38.9658 51.4034 38.9063C51.2596 38.8468 51.1054 38.8163 50.9498 38.8164H39.1018C38.7936 38.8254 38.501 38.9541 38.2862 39.1753C38.0714 39.3964 37.9512 39.6926 37.9512 40.0009C37.9512 40.3092 38.0714 40.6054 38.2862 40.8266C38.501 41.0477 38.7936 41.1765 39.1018 41.1854H50.9508C51.2648 41.1854 51.5659 41.0607 51.788 40.8386C52.01 40.6166 52.1348 40.3154 52.1348 40.0014Z" fill="white"/>
</svg>
