<svg xmlns="http://www.w3.org/2000/svg" width="67" height="72" viewBox="0 0 67 72"><title>licenses</title><path d="M40.61,25.32a1.22,1.22,0,0,0,.35.84,1.18,1.18,0,0,0,.84.34H53.65a1.16,1.16,0,0,0,1.18-1.18,1.18,1.18,0,0,0-.34-.84,1.22,1.22,0,0,0-.84-.35H41.8a1.2,1.2,0,0,0-1.19,1.19Z" fill="#4c5f7e"/><path d="M47.72,32.43a1.17,1.17,0,0,0,.09.45,1.25,1.25,0,0,0,.64.64,1.17,1.17,0,0,0,.45.09H56a1.09,1.09,0,0,0,.47-.08,1.24,1.24,0,0,0,.39-.25,1.14,1.14,0,0,0,.27-.39,1.22,1.22,0,0,0,.09-.46,1.18,1.18,0,0,0-.09-.46,1.05,1.05,0,0,0-.27-.39,1.27,1.27,0,0,0-.39-.26,1.5,1.5,0,0,0-.47-.08H48.9a1.18,1.18,0,0,0-.83.35A1.15,1.15,0,0,0,47.72,32.43Z" fill="#4c5f7e"/><path d="M32.32,31.24a1.5,1.5,0,0,0-.47.08,1.16,1.16,0,0,0-.39.26,1.05,1.05,0,0,0-.27.39,1.18,1.18,0,0,0-.09.46,1.22,1.22,0,0,0,.09.46,1.19,1.19,0,0,0,.66.64,1.09,1.09,0,0,0,.47.08H44.16a1.09,1.09,0,0,0,.47-.08,1.19,1.19,0,0,0,.66-.64,1.22,1.22,0,0,0,.09-.46,1.18,1.18,0,0,0-.09-.46,1.05,1.05,0,0,0-.27-.39,1.16,1.16,0,0,0-.39-.26,1.5,1.5,0,0,0-.47-.08Z" fill="#4c5f7e"/><path d="M38.24,64.42H15.73a3.55,3.55,0,0,1-3.55-3.55V6.36a1.22,1.22,0,0,0-.35-.84A1.18,1.18,0,0,0,11,5.18,5.91,5.91,0,0,0,5.07,11.1a1,1,0,0,0,.08.46,1,1,0,0,0,.25.4,1.36,1.36,0,0,0,.39.27,1.22,1.22,0,0,0,.46.09,1.18,1.18,0,0,0,.46-.09A1.36,1.36,0,0,0,7.1,12a1.2,1.2,0,0,0,.26-.4,1.39,1.39,0,0,0,.08-.46A3.55,3.55,0,0,1,9.81,7.75V60.87a5.92,5.92,0,0,0,5.92,5.92H38.24a1.15,1.15,0,0,0,.84-.35,1.19,1.19,0,0,0-.84-2Z" fill="#4c5f7e"/><path d="M20.47,26.5H37.05a1.18,1.18,0,0,0,.84-.34,1.22,1.22,0,0,0,.35-.84,1.2,1.2,0,0,0-1.19-1.19H20.47a1.2,1.2,0,0,0-1.19,1.19,1.22,1.22,0,0,0,.35.84A1.18,1.18,0,0,0,20.47,26.5Z" fill="#4c5f7e"/><path d="M56,.46H11A10.69,10.69,0,0,0,.32,11.09v.05a10.75,10.75,0,0,0,5.33,9.2,1.2,1.2,0,0,0,.89.1A1.2,1.2,0,0,0,7.37,19a1.24,1.24,0,0,0-.53-.72A8.28,8.28,0,0,1,11,2.84H56a8.3,8.3,0,0,1,8.3,8.29V60.9a3.46,3.46,0,0,1-.49,1.74,1.17,1.17,0,0,0-.16.44,1.23,1.23,0,0,0,0,.47,1.25,1.25,0,0,0,.2.42,1.19,1.19,0,0,0,.35.32,1.21,1.21,0,0,0,.44.15,1.23,1.23,0,0,0,.47,0,1.28,1.28,0,0,0,.42-.21,1.19,1.19,0,0,0,.31-.36,6,6,0,0,0,.81-2.94V11.13A10.69,10.69,0,0,0,56,.46Z" fill="#4c5f7e"/><path d="M59.57,54.94a7.11,7.11,0,0,0-14.08-1.39,7.11,7.11,0,1,0,14.08,1.39Zm-7.11,4.74a4.74,4.74,0,0,1-3.35-8.09,4.81,4.81,0,0,1,2.43-1.3,4.74,4.74,0,1,1,.92,9.39Z" fill="#4c5f7e"/><path d="M50.32,63.24a1.18,1.18,0,0,0-.9-.11,1.2,1.2,0,0,0-.72.55L46.15,68.1l-.4-.61a1.32,1.32,0,0,0-.4-.38,1.2,1.2,0,0,0-.52-.15l-.73,0,2.59-4.49a1.1,1.1,0,0,0,.15-.44,1.19,1.19,0,0,0,0-.46,1.07,1.07,0,0,0-.21-.41,1.12,1.12,0,0,0-.34-.31,1.43,1.43,0,0,0-.44-.15,1.18,1.18,0,0,0-.46,0,1.38,1.38,0,0,0-.42.21,1,1,0,0,0-.3.35l-3.55,6.15a1.14,1.14,0,0,0-.16.57,1.06,1.06,0,0,0,.14.58,1.21,1.21,0,0,0,.4.44,1.19,1.19,0,0,0,.57.18l2.06.13L45.23,71a1.08,1.08,0,0,0,.43.39,1.09,1.09,0,0,0,.56.15h0a1.3,1.3,0,0,0,.58-.17,1.21,1.21,0,0,0,.41-.43l3.51-6.08a1.1,1.1,0,0,0,.15-.44,1.19,1.19,0,0,0-.23-.87A1.28,1.28,0,0,0,50.32,63.24Z" fill="#4c5f7e"/><path d="M60.31,61.29a1.19,1.19,0,0,0-1.6-.41,1.16,1.16,0,0,0-.55.7,1.15,1.15,0,0,0,.1.89l2.56,4.44-.73,0a1.21,1.21,0,0,0-.52.16,1.18,1.18,0,0,0-.4.37l-.4.61-2.54-4.4a1.21,1.21,0,0,0-.72-.53,1.18,1.18,0,0,0-1.43.83,1.15,1.15,0,0,0,.1.89l3.5,6.06a1.13,1.13,0,0,0,.42.42,1.26,1.26,0,0,0,.57.17h0a1.25,1.25,0,0,0,.56-.14,1.21,1.21,0,0,0,.42-.39l1.14-1.72,2.05-.12a1.29,1.29,0,0,0,.57-.19,1.13,1.13,0,0,0,.4-.44A1,1,0,0,0,64,68a1.17,1.17,0,0,0-.15-.58Z" fill="#4c5f7e"/><path d="M20.47,33.61h7.11a1.19,1.19,0,0,0,.81-.36,1.15,1.15,0,0,0,.34-.82,1.17,1.17,0,0,0-.34-.83,1.19,1.19,0,0,0-.81-.36H20.47a1.18,1.18,0,0,0-1.15,1.19,1.18,1.18,0,0,0,.33.82A1.21,1.21,0,0,0,20.47,33.61Z" fill="#4c5f7e"/><path d="M20.47,40.72H34.68a1.19,1.19,0,0,0,.82-.36,1.17,1.17,0,0,0,0-1.65,1.19,1.19,0,0,0-.82-.36H20.47a1.19,1.19,0,0,0,0,2.37Z" fill="#4c5f7e"/><path d="M52.46,39.54a1.18,1.18,0,0,0-1.19-1.19H39.42a1.19,1.19,0,0,0-.81.36,1.17,1.17,0,0,0,0,1.65,1.19,1.19,0,0,0,.81.36H51.27a1.15,1.15,0,0,0,.84-.35A1.18,1.18,0,0,0,52.46,39.54Z" fill="#4c5f7e"/></svg>