<svg width="24" height="32" viewBox="0 0 24 32" fill="none" xmlns="http://www.w3.org/2000/svg">
<g clip-path="url(#clip0_165_46963)">
<path d="M11.8184 1.53906C6.1288 1.53906 1.5 6.16786 1.5 11.8574C1.5 14.1692 3.33743 18.134 6.67381 23.0213C8.73845 26.0457 10.8077 28.597 11.9305 29.8926C13.0481 28.6625 15.1149 26.0969 17.236 22.8688C20.3505 18.1287 22.1367 14.1152 22.1367 11.8574C22.1367 6.16786 17.5079 1.53906 11.8184 1.53906ZM11.8184 0.0390625C18.3455 0.0390625 23.6367 5.33032 23.6367 11.8574C23.6367 18.302 12.7172 31.9618 11.8467 31.9618C11.8356 31.9618 11.8262 31.9596 11.8184 31.9551C11.2007 31.5985 0 18.3845 0 11.8574C0 5.33032 5.29126 0.0390625 11.8184 0.0390625Z" fill="#3C3C3C"/>
<path d="M12 16.2891C14.3472 16.2891 16.25 14.3863 16.25 12.0391C16.25 9.69185 14.3472 7.78906 12 7.78906C9.65279 7.78906 7.75 9.69185 7.75 12.0391C7.75 14.3863 9.65279 16.2891 12 16.2891Z" stroke="#3C3C3C" stroke-width="1.5"/>
</g>
<defs>
<clipPath id="clip0_165_46963">
<rect width="23.637" height="31.923" fill="white" transform="translate(0 0.0390625)"/>
</clipPath>
</defs>
</svg>
