<svg xmlns="http://www.w3.org/2000/svg" width="278" height="42" viewBox="0 0 278 42"><path d="M86.48,22.3h189a19.49,19.49,0,0,0-.55,7.1H86.48Z" fill="#7cc5ad"/><path d="M61.87,29.53H41.71c.6,3.59,3.2,5.69,7.18,5.69a7.3,7.3,0,0,0,3.51-.87,7.48,7.48,0,0,0,2.68-2.44l5.8,4A14.78,14.78,0,0,1,48.56,41.8c-9.4,0-15.2-6.24-15.2-15s5.75-15,14.37-15S62,18,62,26.94a20.4,20.4,0,0,1-.11,2.59M41.65,23.84H53.7a5.67,5.67,0,0,0-3.77-5.09,5.66,5.66,0,0,0-2.2-.32c-3.37,0-5.58,1.93-6.07,5.41" fill="#3c3c3c"/><path d="M111.83,27.43c0,8.73-5.14,14.37-13.59,14.37-9.51,0-14.37-7.08-14.37-18.24C83.87,8.7,91.17,1,110.73.19l-.89,6.47c-10,.27-15.47,3.86-17,9.72a10.18,10.18,0,0,1,3.45-2.26,10.07,10.07,0,0,1,4.06-.72c7,0,11.43,5.14,11.43,14M98.29,35.22c3.14,0,5.08-2.76,5.08-7.68S101.44,20,98.23,20a7.69,7.69,0,0,0-3.3.74,7.85,7.85,0,0,0-2.67,2.08C92.26,32.18,94.47,35.22,98.29,35.22Z" fill="#3c3c3c"/><path d="M130.57,41.8c-8.84,0-14.65-6.19-14.65-15s5.81-15,14.65-15,14.64,6.19,14.64,15S139.41,41.8,130.57,41.8Zm0-23.37c-3.87,0-6.14,3-6.14,8.39s2.27,8.4,6.14,8.4,6.13-3,6.13-8.4S134.43,18.43,130.57,18.43Z" fill="#3c3c3c"/><path d="M185.77,12.51h8.4v9.84h4c8,0,12.27,3.31,12.27,9.39s-4.31,9.4-12.27,9.4H185.77Zm12.6,16.3h-4.19v5.86h4.19c2.27,0,3.65-.89,3.65-2.87s-1.38-3-3.65-3" fill="#3c3c3c"/><path d="M19.18,22.31V12.47h8.39V41.1H19.18V28.77H8.4V41.1H0V12.47H8.4v9.84Z" fill="#3c3c3c"/><path d="M61.67,29.5H41.5c.61,3.58,3.21,5.69,7.19,5.69a7.43,7.43,0,0,0,3.51-.88,7.19,7.19,0,0,0,2.67-2.44l5.81,4a14.85,14.85,0,0,1-5.45,4.43,14.68,14.68,0,0,1-6.87,1.42c-9.4,0-15.2-6.24-15.2-15s5.75-15,14.37-15S61.78,18,61.78,26.9a20.48,20.48,0,0,1-.11,2.6M41.45,23.81h12A5.78,5.78,0,0,0,53,21.65a5.64,5.64,0,0,0-3.23-2.93,5.48,5.48,0,0,0-2.2-.33c-3.37,0-5.58,1.94-6.08,5.42" fill="#3c3c3c"/><path d="M145.22,26.84c0-8.75-5.76-14.91-14.54-15v6.58c3.8.07,6,3.09,6,8.39s-2.22,8.32-6,8.39v6.58c8.78-.05,14.54-6.22,14.54-15" fill="#3c3c3c"/><path d="M178.44,12.51v0h-8.53v0h-16V30.64c0,3.09-1.16,4.58-4.2,4.58-.83,0-1.55-.06-2.43-.11v6.46a20.18,20.18,0,0,0,3.2.23c8.46,0,11.83-3.65,11.83-11.11V19H170V41.1h.2v0h8.4V12.51Z" fill="#3c3c3c"/><path d="M265.69,12l-.35,0-.76-.07-.61-.05v0c-.21,0-.4,0-.61,0-8.84,0-14.64,6.19-14.64,15s5.8,15,14.64,15h0c8.84,0,14.64-6.19,14.64-15C278,18.84,273.2,13,265.69,12Zm-8.46,14.8c0-5.36,2.26-8.39,6.13-8.39a6.08,6.08,0,0,1,.61,0h0c3.36.41,5.32,3.36,5.32,8.32s-2,7.9-5.32,8.31v.09a6.08,6.08,0,0,1-.61,0C259.49,35.22,257.23,32.18,257.23,26.82Z" fill="#3c3c3c"/><path d="M19.18,22.31V12.47h8.39V41.09H19.18V28.77H8.4V41.09H0V12.47H8.4v9.84Z" fill="#3c3c3c"/><path d="M61.67,29.49H41.5c.61,3.59,3.21,5.69,7.19,5.69a7.35,7.35,0,0,0,6.18-3.31l5.81,4a14.78,14.78,0,0,1-12.32,5.86c-9.4,0-15.2-6.24-15.2-15s5.75-15,14.37-15S61.78,18,61.78,26.9a20.56,20.56,0,0,1-.11,2.6M41.45,23.8h12a5.71,5.71,0,0,0-3.77-5.09,5.66,5.66,0,0,0-2.2-.32c-3.37,0-5.58,1.93-6.08,5.41" fill="#3c3c3c"/><polygon points="243.22 12.48 234.83 12.48 234.83 12.51 234.73 12.51 234.73 22.32 223.96 22.32 223.96 12.52 215.56 12.52 215.56 41.13 223.96 41.13 223.96 29.31 234.73 29.31 234.73 41.13 243.13 41.13 243.13 41.1 243.22 41.1 243.22 12.48" fill="#3c3c3c"/><path d="M111.52,29.39a18.56,18.56,0,0,0,.11-2h0a21.07,21.07,0,0,0-.59-5.1h.19c-1.21-4.84-4.23-7.87-8.47-8.68l-.17,0c-.18,0-.37-.06-.56-.09a13.59,13.59,0,0,0-1.84-.14h-.08v0a10.24,10.24,0,0,0-7.23,3c1.49-5.86,6.91-9.45,17-9.72l.89-6.47c-19,.75-26.4,8.09-26.81,22.11h8.81A7.62,7.62,0,0,1,98.24,20h0a4.45,4.45,0,0,1,1.87.36v.05c1.94.92,3.07,3.3,3.07,7.12s-1.14,6.24-3.07,7.21v.14a4.47,4.47,0,0,1-1.81.37h0c-2.71,0-4.61-1.55-5.48-5.83H84.39c1.48,7.74,6.13,12.4,13.85,12.4S111,37,111.73,29.39Z" fill="#3c3c3c"/><path d="M248.33,22.3h12.25c0,1.53,0,3.24,0,5.13,0,.67,0,1.33,0,2H248.33Z" fill="#7cc5ad"/><path d="M194.18,22.3h18.91c0,1.53-.06,3.24-.07,5.13,0,.67,0,1.33,0,2H194.18Z" fill="#7cc5ad"/><path d="M229.84,22.3h16.49q-.06,2.29-.06,5.13c0,.67,0,1.33,0,2H229.84Z" fill="#7cc5ad"/><path d="M149.86,22.3h16.93q-.06,2.29-.06,5.13c0,.67,0,1.33,0,2H149.86Z" fill="#7cc5ad"/><path d="M115.11,22.3H132Q132,24.6,132,27.43c0,.67,0,1.33,0,2H115.1Z" fill="#7cc5ad"/><path d="M83.7,22.3h9.4c0,1.53,0,3.24,0,5.13,0,.67,0,1.33,0,2H83.7Z" fill="#7cc5ad"/><path d="M72.71,21.38a4.59,4.59,0,0,1,1.72.34,4.44,4.44,0,0,1,1.46,1,4.38,4.38,0,0,1,1,1.47,4.84,4.84,0,0,1,0,3.46,4.38,4.38,0,0,1-1,1.47,4.51,4.51,0,0,1-1.45,1,4.57,4.57,0,0,1-3.46,0,4.47,4.47,0,0,1-2.42-2.46,4.47,4.47,0,0,1-.33-1.73,4.67,4.67,0,0,1,.33-1.73,4.51,4.51,0,0,1,1-1.47,4.42,4.42,0,0,1,3.19-1.33Z" fill="#7cc5ad"/></svg>