<svg version="1.1" xmlns="http://www.w3.org/2000/svg" viewBox="0 0 278 12" width="278" height="12">
<path fill="#7CC5AD" d="M5.1,11.5c-1.1,0-2-0.2-2.7-0.7C1.6,10.3,1,9.7,0.6,8.9C0.2,8,0,7.1,0,6c0-1.1,0.2-2,0.6-2.9
	c0.4-0.8,1-1.5,1.7-1.9C3.1,0.7,4,0.5,5.1,0.5c1.2,0,2.2,0.3,3,0.9C8.9,2,9.5,2.8,9.8,3.9L8,4.4C7.8,3.7,7.5,3.1,7,2.7
	C6.5,2.4,5.8,2.2,5.1,2.2c-0.7,0-1.3,0.2-1.8,0.5C2.8,3,2.5,3.4,2.2,4C2,4.6,1.9,5.2,1.9,6c0,0.8,0.1,1.4,0.4,2
	c0.2,0.6,0.6,1,1.1,1.3c0.5,0.3,1.1,0.5,1.8,0.5c0.8,0,1.4-0.2,1.9-0.6c0.5-0.4,0.8-0.9,1-1.6l1.8,0.5c-0.3,1-0.9,1.9-1.7,2.5
	C7.3,11.2,6.3,11.5,5.1,11.5z M15.4,11.3V2.4H12V0.7h8.6v1.7h-3.4v8.9H15.4z M27.7,11.5c-1.1,0-2-0.2-2.7-0.7
	c-0.8-0.5-1.3-1.1-1.7-1.9C22.9,8,22.7,7.1,22.7,6c0-1.1,0.2-2,0.6-2.9c0.4-0.8,1-1.5,1.7-1.9c0.8-0.5,1.7-0.7,2.7-0.7
	s2,0.2,2.7,0.7c0.8,0.5,1.3,1.1,1.7,1.9C32.6,4,32.8,4.9,32.8,6c0,1.1-0.2,2-0.6,2.9c-0.4,0.8-1,1.5-1.7,1.9
	C29.7,11.3,28.8,11.5,27.7,11.5z M27.7,9.8c0.7,0,1.3-0.2,1.8-0.5C30,9.1,30.3,8.6,30.6,8c0.2-0.6,0.4-1.3,0.4-2
	c0-0.8-0.1-1.4-0.4-2c-0.2-0.6-0.6-1-1.1-1.3c-0.5-0.3-1.1-0.5-1.8-0.5c-0.7,0-1.3,0.2-1.8,0.5c-0.5,0.3-0.8,0.8-1.1,1.3
	c-0.2,0.6-0.4,1.3-0.4,2c0,0.8,0.1,1.4,0.4,2c0.2,0.6,0.6,1,1.1,1.3C26.4,9.7,27,9.8,27.7,9.8z M35.7,11.3V0.7h1.6L41,8.2l3.7-7.5
	h1.6v10.6h-1.7V4.5l-3.2,6.8h-0.7l-3.2-6.8v6.8H35.7z M49,11.3l3.3-10.6h2.6l3.3,10.6h-1.8l-3-9.5h0.4l-3,9.5H49z M50.9,9V7.3h5.5V9
	H50.9z M62.7,11.3V2.4h-3.4V0.7h8.6v1.7h-3.4v8.9H62.7z M75,11.5c-1.1,0-2-0.2-2.7-0.7c-0.8-0.5-1.3-1.1-1.7-1.9C70.2,8,70,7.1,70,6
	c0-1.1,0.2-2,0.6-2.9c0.4-0.8,1-1.5,1.7-1.9C73.1,0.7,74,0.5,75,0.5c1.1,0,2,0.2,2.7,0.7c0.8,0.5,1.3,1.1,1.7,1.9
	C79.9,4,80.1,4.9,80.1,6c0,1.1-0.2,2-0.6,2.9c-0.4,0.8-1,1.5-1.7,1.9C77,11.3,76.1,11.5,75,11.5z M75,9.8c0.7,0,1.3-0.2,1.8-0.5
	c0.5-0.3,0.8-0.8,1.1-1.3c0.2-0.6,0.4-1.3,0.4-2c0-0.8-0.1-1.4-0.4-2c-0.2-0.6-0.6-1-1.1-1.3c-0.5-0.3-1.1-0.5-1.8-0.5
	c-0.7,0-1.3,0.2-1.8,0.5S72.4,3.4,72.2,4c-0.2,0.6-0.4,1.3-0.4,2c0,0.8,0.1,1.4,0.4,2c0.2,0.6,0.6,1,1.1,1.3
	C73.7,9.7,74.3,9.8,75,9.8z M82,11.3V9.8c0.2,0,0.4,0,0.6-0.1c0.2-0.1,0.3-0.2,0.4-0.3c0.1-0.2,0.2-0.4,0.3-0.6
	c0.1-0.3,0.2-0.6,0.2-1c0.1-0.6,0.2-1.2,0.3-1.9C83.9,5.2,83.9,4.6,84,4c0.1-0.6,0.1-1.2,0.1-1.8c0-0.6,0.1-1,0.1-1.4h7.1v10.6h-1.8
	V2.4h-3.7c0,0.3-0.1,0.7-0.1,1.2c0,0.5-0.1,1-0.1,1.5c0,0.5-0.1,1.1-0.2,1.7c-0.1,0.6-0.2,1.1-0.3,1.7c-0.1,0.5-0.2,1-0.4,1.4
	c-0.1,0.4-0.3,0.7-0.6,1c-0.2,0.3-0.5,0.4-0.9,0.5C83,11.4,82.5,11.4,82,11.3z M99.3,11.5c-1.1,0-2-0.2-2.7-0.7
	c-0.8-0.5-1.3-1.1-1.7-1.9C94.4,8,94.2,7.1,94.2,6c0-1.1,0.2-2,0.6-2.9c0.4-0.8,1-1.5,1.7-1.9c0.8-0.5,1.7-0.7,2.7-0.7
	c1.1,0,2,0.2,2.7,0.7c0.8,0.5,1.3,1.1,1.7,1.9c0.4,0.8,0.6,1.8,0.6,2.9c0,1.1-0.2,2-0.6,2.9c-0.4,0.8-1,1.5-1.7,1.9
	C101.2,11.3,100.3,11.5,99.3,11.5z M99.3,9.8c0.7,0,1.3-0.2,1.8-0.5c0.5-0.3,0.8-0.8,1.1-1.3c0.2-0.6,0.4-1.3,0.4-2
	c0-0.8-0.1-1.4-0.4-2c-0.2-0.6-0.6-1-1.1-1.3c-0.5-0.3-1.1-0.5-1.8-0.5c-0.7,0-1.3,0.2-1.8,0.5C97,2.9,96.7,3.4,96.4,4
	c-0.2,0.6-0.4,1.3-0.4,2c0,0.8,0.1,1.4,0.4,2c0.2,0.6,0.6,1,1.1,1.3C98,9.7,98.6,9.8,99.3,9.8z M107.3,11.3V0.7h6.8v1.7H109v8.9
	H107.3z M125.2,11.3h-1.8V3.8l-4.9,7.4h-1.8V0.7h1.8v7.4l4.9-7.4h1.8V11.3z M134.8,11.3V6.6l0.3,0.5c-0.3,0.2-0.7,0.4-1.2,0.6
	c-0.5,0.1-1,0.2-1.6,0.2c-0.9,0-1.6-0.2-2.1-0.5c-0.5-0.3-0.9-0.8-1.1-1.4c-0.2-0.6-0.4-1.3-0.4-2.1v-3h1.8v2.5c0,0.4,0,0.7,0.1,1.1
	c0,0.3,0.1,0.7,0.3,0.9c0.1,0.3,0.4,0.5,0.7,0.7c0.3,0.2,0.7,0.2,1.2,0.2c0.6,0,1.1-0.1,1.5-0.3c0.4-0.2,0.7-0.4,0.9-0.6l-0.2,0.9
	V0.7h1.8v10.6H134.8z M140.1,11.3V0.7h6.8v1.7h-5.1V5h4.2v1.7h-4.2v3h5.1v1.7H140.1z M154.2,11.5c-1.1,0-2-0.2-2.7-0.7
	c-0.8-0.5-1.3-1.1-1.7-1.9c-0.4-0.8-0.6-1.8-0.6-2.9c0-1.1,0.2-2,0.6-2.9c0.4-0.8,1-1.5,1.7-1.9c0.8-0.5,1.7-0.7,2.7-0.7
	c1.2,0,2.2,0.3,3,0.9c0.8,0.6,1.4,1.4,1.7,2.5l-1.8,0.5c-0.2-0.7-0.6-1.2-1-1.6c-0.5-0.4-1.1-0.6-1.9-0.6c-0.7,0-1.3,0.2-1.8,0.5
	c-0.5,0.3-0.8,0.8-1.1,1.3c-0.2,0.6-0.4,1.2-0.4,2c0,0.8,0.1,1.4,0.4,2c0.2,0.6,0.6,1,1.1,1.3c0.5,0.3,1.1,0.5,1.8,0.5
	c0.8,0,1.4-0.2,1.9-0.6c0.5-0.4,0.8-0.9,1-1.6l1.8,0.5c-0.3,1-0.9,1.9-1.7,2.5C156.4,11.2,155.4,11.5,154.2,11.5z M162,11.3V0.7h1.8
	v4.9l4.2-4.9h2.2l-4.5,5.2l4.9,5.4h-2.2l-4.5-4.9v4.9H162z M181.5,11.3h-1.8V3.8l-4.9,7.4H173V0.7h1.8v7.4l4.9-7.4h1.8V11.3z
	 M185,11.3V0.7h6.8v1.7h-5.1V5h4.2v1.7h-4.2v3h5.1v1.7H185z M199.4,11.3V0.7h1.8v4.9l4.2-4.9h2.2l-4.5,5.2l4.9,5.4h-2.2l-4.5-4.9
	v4.9H199.4z M209.7,11.3V9.8c0.2,0,0.4,0,0.6-0.1c0.2-0.1,0.3-0.2,0.4-0.3c0.1-0.2,0.2-0.4,0.3-0.6c0.1-0.3,0.2-0.6,0.2-1
	c0.1-0.6,0.2-1.2,0.3-1.9c0.1-0.7,0.1-1.3,0.2-1.9c0.1-0.6,0.1-1.2,0.1-1.8c0-0.6,0.1-1,0.1-1.4h7.1v10.6h-1.8V2.4h-3.7
	c0,0.3-0.1,0.7-0.1,1.2c0,0.5-0.1,1-0.1,1.5c0,0.5-0.1,1.1-0.2,1.7c-0.1,0.6-0.2,1.1-0.3,1.7c-0.1,0.5-0.2,1-0.4,1.4
	c-0.1,0.4-0.3,0.7-0.6,1c-0.2,0.3-0.5,0.4-0.9,0.5C210.7,11.4,210.2,11.4,209.7,11.3z M231,11.3h-1.8V3.8l-4.9,7.4h-1.8V0.7h1.8v7.4
	l4.9-7.4h1.8V11.3z M234.5,11.3V0.7h1.8v4.4h5V0.7h1.8v10.6h-1.8V6.8h-5v4.5H234.5z M255,11.3h-1.8V3.8l-4.9,7.4h-1.8V0.7h1.8v7.4
	l4.9-7.4h1.8V11.3z M258.5,11.3V0.7h1.8v4.9l4.2-4.9h2.2l-4.5,5.2l4.9,5.4h-2.2l-4.5-4.9v4.9H258.5z M278,11.3h-1.8V3.8l-4.9,7.4
	h-1.8V0.7h1.8v7.4l4.9-7.4h1.8V11.3z"/>
</svg>