<svg width="35" height="46" viewBox="0 0 35 46" fill="none" xmlns="http://www.w3.org/2000/svg">
<path d="M17.03 1.8C12.9619 1.8 9.13731 3.38419 6.26075 6.26075C3.38419 9.13731 1.8 12.9619 1.8 17.0299C1.8 20.4426 4.48312 26.2472 9.35511 33.3745C12.4701 37.9314 15.6296 41.7862 17.1859 43.5579C18.7297 41.9111 21.8401 38.1051 25.0859 33.1757C27.2166 29.9398 28.9195 26.9513 30.1472 24.2932C31.5293 21.3007 32.2599 18.7892 32.2599 17.0299C32.2599 12.9619 30.6757 9.13731 27.7992 6.26075C24.9226 3.38419 21.098 1.8 17.03 1.8ZM17.03 0C26.4353 0 34.0599 7.62457 34.0599 17.0299C34.0599 26.3165 18.3251 45.9999 17.0708 45.9999C17.0548 45.9999 17.0412 45.9967 17.03 45.9902C16.14 45.4763 0 26.4353 0 17.0299C0 7.62457 7.62457 0 17.03 0Z" fill="#4C5F7E"/>
<path d="M17.682 24.0984C21.3271 24.0984 24.282 21.3674 24.282 17.9984C24.282 14.6295 21.3271 11.8984 17.682 11.8984C14.037 11.8984 11.082 14.6295 11.082 17.9984C11.082 21.3674 14.037 24.0984 17.682 24.0984Z" stroke="#4C5F7E" stroke-width="1.8"/>
</svg>
