<svg width="321" height="297" viewBox="0 0 321 297" fill="none" xmlns="http://www.w3.org/2000/svg">
<g opacity="0.8" clip-path="url(#clip0_4119_9791)">
<path d="M324.868 172.885C333.161 181.808 337.567 193.658 337.116 205.826C336.664 217.995 331.393 229.486 322.462 237.772C313.531 246.058 301.67 250.459 289.491 250.009C277.311 249.558 265.809 244.292 257.516 235.368L324.868 172.885Z" fill="#E9EEF7"/>
<path d="M340.725 259.133C340.725 266.955 337.615 274.456 332.079 279.987C326.543 285.518 319.035 288.625 311.206 288.625C303.377 288.625 295.869 285.518 290.333 279.987C284.797 274.456 281.687 266.955 281.688 259.133H340.725Z" fill="#E9EEF7"/>
<path opacity="0.643" d="M181.741 215.508C175.066 222.671 165.816 226.891 156.026 227.24C146.236 227.588 136.709 224.037 129.539 217.368C122.37 210.698 118.146 201.456 117.797 191.675C117.448 181.893 121.002 172.374 127.678 165.211L181.741 215.508Z" fill="#E9EEF7"/>
<path opacity="0.79" d="M208.431 3.43164C208.431 15.2469 203.733 26.5782 195.371 34.9328C187.008 43.2874 175.667 47.981 163.841 47.981C157.985 47.9811 152.187 46.8288 146.777 44.59C141.367 42.3513 136.451 39.0698 132.31 34.933C128.17 30.7962 124.885 25.8851 122.644 20.4801C120.403 15.0751 119.25 9.28201 119.25 3.43164H208.431Z" fill="#E9EEF7"/>
<path d="M286.622 56.7233C279.087 63.7136 269.081 67.427 258.805 67.0467C248.529 66.6664 238.825 62.2235 231.828 54.6954C224.832 47.1668 221.115 37.1699 221.495 26.9035C221.876 16.6372 226.322 6.94217 233.857 -0.0488281L286.622 56.7233Z" fill="#E9EEF7"/>
<path d="M158.563 140.405C152.372 146.149 144.15 149.2 135.708 148.887C127.265 148.575 119.292 144.924 113.543 138.739C107.794 132.553 104.74 124.339 105.053 115.904C105.366 107.469 109.02 99.5034 115.211 93.7598L158.563 140.405Z" fill="#E9EEF7"/>
<path d="M272.106 159.783C264.571 166.773 254.565 170.487 244.289 170.107C234.013 169.727 224.309 165.284 217.312 157.756C210.316 150.227 206.599 140.23 206.98 129.964C207.36 119.698 211.807 110.003 219.341 103.012L272.106 159.783Z" fill="#E9EEF7"/>
<path d="M324.868 -61.6992C333.161 -52.7757 337.567 -40.9263 337.116 -28.7576C336.664 -16.589 331.393 -5.09772 322.462 3.18828C313.531 11.4739 301.67 15.8754 289.491 15.4246C277.311 14.9738 265.809 9.70756 257.516 0.784443L324.868 -61.6992Z" fill="#E9EEF7"/>
<path opacity="0.78" d="M207.323 35.3379C211.722 40.071 215.146 45.6235 217.397 51.6784C219.649 57.7333 220.684 64.172 220.445 70.6269C220.206 77.0817 218.696 83.4262 216.003 89.2982C213.309 95.1701 209.484 100.454 204.747 104.85C200.009 109.245 194.452 112.665 188.391 114.915C182.331 117.164 175.886 118.199 169.425 117.96C162.965 117.72 156.614 116.212 150.737 113.521C144.86 110.83 139.571 107.008 135.172 102.274L207.323 35.3379Z" fill="#E9EEF7"/>
<path opacity="0.856" d="M191.856 126.711C194.009 129.645 195.563 132.974 196.428 136.507C197.294 140.041 197.454 143.711 196.9 147.306C196.346 150.902 195.089 154.354 193.2 157.464C191.311 160.574 188.827 163.282 185.89 165.433C179.96 169.778 172.545 171.591 165.276 170.473C158.008 169.356 151.482 165.4 147.133 159.475L191.856 126.711Z" fill="#E9EEF7"/>
<path d="M326.273 76.6211C326.273 89.702 321.072 102.247 311.815 111.497C302.557 120.747 290 125.943 276.907 125.944C270.424 125.944 264.005 124.668 258.015 122.19C252.025 119.711 246.583 116.078 241.999 111.498C237.414 106.918 233.778 101.48 231.297 95.4963C228.816 89.5121 227.539 83.0983 227.539 76.6211H326.273Z" fill="#E9EEF7"/>
<path d="M340.725 24.5488C340.725 32.3708 337.615 39.8724 332.079 45.4034C326.543 50.9344 319.035 54.0418 311.206 54.042C307.33 54.0419 303.491 53.279 299.91 51.7968C296.328 50.3146 293.074 48.1421 290.333 45.4034C287.592 42.6647 285.418 39.4134 283.934 35.8352C282.451 32.257 281.687 28.4218 281.688 24.5488H340.725Z" fill="#E9EEF7"/>
<path opacity="0.837" d="M157.466 59.1172C157.465 66.2907 154.613 73.1703 149.536 78.2427C144.459 83.3151 137.573 86.1648 130.393 86.1648C126.837 86.1648 123.317 85.4652 120.032 84.1059C116.748 82.7466 113.763 80.7543 111.25 78.2427C108.736 75.7311 106.742 72.7494 105.381 69.4678C104.021 66.1862 103.32 62.6691 103.32 59.1172H157.466Z" fill="#E9EEF7"/>
<path d="M294.484 143.5C294.484 147.052 298.845 155.047 297.484 158.328C301.984 160.828 301.484 160.828 304.484 164.828C301.97 167.34 316.722 167.13 313.437 168.489C310.152 169.848 306.632 170.548 303.077 170.548C299.521 170.548 296 169.849 292.715 168.49C289.43 167.131 286.445 165.139 283.931 162.627C281.417 160.115 279.422 157.133 278.061 153.852C276.701 150.57 276 147.052 276 143.5H294.484Z" fill="#E9EEF7"/>
<path opacity="0.616" d="M101.915 -61.6992C110.208 -52.7757 114.614 -40.9263 114.162 -28.7576C113.711 -16.589 108.44 -5.09772 99.509 3.18828C90.5774 11.4739 78.7172 15.8754 66.5375 15.4246C54.3577 14.9738 42.856 9.70756 34.5625 0.784443L101.915 -61.6992Z" fill="#E9EEF7"/>
<path opacity="0.805" d="M117.772 24.5488C117.772 32.3708 114.662 39.8724 109.126 45.4034C103.59 50.9344 96.082 54.0418 88.2529 54.042C84.3764 54.0419 80.5379 53.279 76.9564 51.7968C73.375 50.3146 70.1209 48.1421 67.3799 45.4034C64.6388 42.6647 62.4645 39.4134 60.9811 35.8352C59.4977 32.257 58.7343 28.4218 58.7344 24.5488H117.772Z" fill="#E9EEF7"/>
<path opacity="0.674" d="M108.216 144.672C108.215 151.845 105.363 158.725 100.286 163.798C95.2086 168.87 88.3226 171.72 81.1426 171.72C77.5874 171.72 74.0669 171.02 70.7823 169.661C67.4977 168.302 64.5133 166.309 61.9994 163.798C59.4855 161.286 57.4913 158.304 56.1309 155.023C54.7704 151.741 54.0702 148.224 54.0703 144.672H108.216Z" fill="#E9EEF7"/>
</g>
<defs>
<clipPath id="clip0_4119_9791">
<rect width="321" height="297" fill="white"/>
</clipPath>
</defs>
</svg>
