<svg width="32" height="33" viewBox="0 0 32 33" fill="none" xmlns="http://www.w3.org/2000/svg">
<rect y="0.0878906" width="32" height="32" rx="16" fill="#7CC5AD"/>
<path d="M24.242 20.6173C23.7041 20.1662 20.5497 18.1687 20.0254 18.2603C19.7792 18.304 19.5909 18.5139 19.0869 19.1151C18.8538 19.411 18.5979 19.6882 18.3214 19.944C17.8148 19.8217 17.3244 19.6399 16.8605 19.4025C15.0409 18.5167 13.571 17.0463 12.6857 15.2265C12.4483 14.7625 12.2665 14.2722 12.1442 13.7656C12.4 13.4891 12.6771 13.2331 12.9731 13C13.5737 12.496 13.7842 12.309 13.8278 12.0616C13.9195 11.536 11.9202 8.38281 11.4709 7.84496C11.2826 7.62219 11.1115 7.47266 10.8925 7.47266C10.2574 7.47266 7.38477 11.0247 7.38477 11.485C7.38477 11.5225 7.4463 15.2203 12.1165 19.9717C16.8678 24.6419 20.5657 24.7034 20.6032 24.7034C21.0635 24.7034 24.6155 21.8308 24.6155 21.1957C24.6155 20.9767 24.466 20.8056 24.242 20.6173Z" fill="white"/>
<path d="M20.3075 15.4719H21.5383C21.5368 14.1667 21.0177 12.9153 20.0948 11.9924C19.1718 11.0694 17.9205 10.5503 16.6152 10.5488V11.7796C17.5942 11.7806 18.5328 12.1699 19.225 12.8621C19.9172 13.5544 20.3066 14.4929 20.3075 15.4719Z" fill="white"/>
<path d="M23.3845 15.4727H24.6152C24.6128 13.3517 23.7692 11.3183 22.2694 9.8185C20.7696 8.31874 18.7362 7.4751 16.6152 7.47266V8.70343C18.4099 8.70554 20.1304 9.41941 21.3995 10.6884C22.6685 11.9574 23.3823 13.678 23.3845 15.4727Z" fill="white"/>
</svg>
