<svg version="1.1" xmlns="http://www.w3.org/2000/svg" viewBox="0 0 52 52" width="52" height="52">
	<path fill="#4C5F7E" d="M26,2c-3.2,0-6.4,0.6-9.3,1.9C13.8,5.1,11.2,6.8,9,9c-2.2,2.2-3.9,4.8-5.1,7.6C2.6,19.6,2,22.8,2,26 c0,3.2,0.6,6.4,1.9,9.3C5.1,38.2,6.8,40.8,9,43c2.2,2.2,4.8,3.9,7.6,5.1c3,1.3,6.1,1.9,9.3,1.9s6.4-0.6,9.3-1.9 c2.9-1.2,5.4-2.9,7.6-5.1c2.2-2.2,3.9-4.8,5.1-7.6c1.3-3,1.9-6.1,1.9-9.3c0-3.2-0.6-6.4-1.9-9.3c-1.2-2.9-2.9-5.4-5.1-7.6 c-2.2-2.2-4.8-3.9-7.6-5.1C32.4,2.6,29.2,2,26,2z M26,0c14.4,0,26,11.6,26,26S40.4,52,26,52S0,40.4,0,26S11.6,0,26,0z"/>
	<path fill="#4C5F7E" d="M38,18H15v2h23V18z"/>
	<path fill="#4C5F7E" d="M38,25H15v2h23V25z"/>
	<path fill="#4C5F7E" d="M38,32H15v2h23V32z"/>
</svg>